# Blender v3.4.1 OBJ File: 'MixedBag1_Export.blend'
# www.blender.org
mtllib chain_shackle.mtl
o chain_shackle
v 0.046838 -0.075000 -0.119891
v 0.046838 0.075000 -0.119891
v 0.119891 -0.075000 -0.069219
v 0.119891 0.075000 -0.069219
v 0.138438 -0.075000 0.000000
v 0.138438 0.075000 0.000000
v 0.119891 -0.075000 0.069219
v 0.119891 0.075000 0.069219
v 0.046838 -0.075000 0.119891
v 0.046838 0.075000 0.119891
v 0.100000 -0.075000 -0.173205
v 0.100000 0.075000 -0.173205
v 0.173205 -0.075000 -0.100000
v 0.173205 0.075000 -0.100000
v 0.200000 -0.075000 0.000000
v 0.200000 0.075000 0.000000
v 0.173205 -0.075000 0.100000
v 0.173205 0.075000 0.100000
v 0.100000 -0.075000 0.173205
v 0.100000 0.075000 0.173205
v -0.046838 -0.075000 0.119891
v -0.046838 0.075000 0.119891
v -0.119891 -0.075000 0.069219
v -0.119891 0.075000 0.069219
v -0.138438 -0.075000 -0.000000
v -0.138438 0.075000 -0.000000
v -0.119891 -0.075000 -0.069219
v -0.119891 0.075000 -0.069219
v -0.046838 -0.075000 -0.119891
v -0.046838 0.075000 -0.119891
v -0.100000 -0.075000 0.173205
v -0.100000 0.075000 0.173205
v -0.173205 -0.075000 0.100000
v -0.173205 0.075000 0.100000
v -0.200000 -0.075000 -0.000000
v -0.200000 0.075000 -0.000000
v -0.173205 -0.075000 -0.100000
v -0.173205 0.075000 -0.100000
v -0.100000 -0.075000 -0.173205
v -0.100000 0.075000 -0.173205
v 0.046838 0.075000 0.208205
v 0.046838 -0.075000 0.208205
v -0.046838 0.075000 0.208205
v -0.046838 -0.075000 0.208205
v 0.046838 0.075000 -0.208205
v 0.046838 -0.075000 -0.208205
v -0.046838 0.075000 -0.208205
v -0.046838 -0.075000 -0.208205
v 0.100000 0.075000 -0.290705
v 0.100000 -0.075000 -0.290705
v -0.100000 0.075000 -0.290705
v -0.100000 -0.075000 -0.290705
v 0.046838 0.075000 -0.290705
v 0.046838 -0.075000 -0.290705
v -0.046838 0.075000 -0.290705
v -0.046838 -0.075000 -0.290705
v 0.100000 0.075000 0.290705
v 0.100000 -0.075000 0.290705
v -0.100000 0.075000 0.290705
v -0.100000 -0.075000 0.290705
v 0.046838 0.075000 0.290705
v 0.046838 -0.075000 0.290705
v -0.046838 0.075000 0.290705
v -0.046838 -0.075000 0.290705
v 0.116629 0.000000 -0.173205
v 0.202007 0.000000 -0.100000
v 0.233257 0.000000 0.000000
v 0.202007 0.000000 0.100000
v 0.116629 0.000000 0.173205
v 0.046838 0.000000 0.119891
v 0.119891 0.000000 0.069219
v 0.138438 0.000000 0.000000
v 0.119891 0.000000 -0.069219
v 0.046838 0.000000 -0.119891
v 0.046838 0.000000 0.208205
v 0.046838 0.000000 -0.208205
v 0.100000 0.000000 -0.290705
v 0.046838 0.000000 -0.290705
v 0.100000 0.000000 0.290705
v 0.046838 0.000000 0.290705
v -0.116629 0.000000 0.173205
v -0.202007 0.000000 0.100000
v -0.233257 0.000000 -0.000000
v -0.202007 0.000000 -0.100000
v -0.116629 0.000000 -0.173205
v -0.046838 0.000000 -0.119891
v -0.119891 0.000000 -0.069219
v -0.138438 0.000000 -0.000000
v -0.119891 0.000000 0.069219
v -0.046838 0.000000 0.119891
v -0.046838 0.000000 0.208205
v -0.046838 0.000000 -0.208205
v -0.100000 0.000000 -0.290705
v -0.046838 0.000000 -0.290705
v -0.100000 0.000000 0.290705
v -0.046838 0.000000 0.290705
v -0.136652 -0.000000 0.231955
v 0.136652 0.000000 0.231955
v -0.000000 -0.000000 0.191852
v 0.000000 -0.028357 0.203598
v 0.000000 -0.040103 0.231955
v 0.000000 -0.028357 0.260312
v 0.000000 0.000000 0.272058
v -0.000000 0.028357 0.260312
v -0.000000 0.040103 0.231955
v -0.000000 0.028357 0.203598
v -0.126628 -0.000000 0.183443
v -0.126628 -0.034304 0.197652
v 0.126628 -0.034304 0.197651
v 0.126628 0.000000 0.183442
v -0.126628 -0.048513 0.231955
v 0.126628 -0.048513 0.231955
v -0.126628 -0.034304 0.266259
v 0.126628 -0.034304 0.266259
v -0.126628 -0.000000 0.280468
v 0.126628 0.000000 0.280468
v -0.126628 0.034304 0.266259
v 0.126628 0.034304 0.266259
v -0.126628 0.048513 0.231955
v 0.126628 0.048513 0.231955
v -0.126628 0.034304 0.197652
v 0.126628 0.034304 0.197651
v 0.136652 -0.000000 -0.231955
v -0.136652 0.000000 -0.231955
v -0.000000 -0.000000 -0.191852
v -0.000000 -0.028357 -0.203598
v -0.000000 -0.040103 -0.231955
v -0.000000 -0.028357 -0.260312
v 0.000000 0.000000 -0.272058
v 0.000000 0.028357 -0.260312
v 0.000000 0.040103 -0.231955
v 0.000000 0.028357 -0.203598
v 0.126628 -0.000000 -0.183442
v 0.126628 -0.034304 -0.197651
v -0.126628 -0.034304 -0.197652
v -0.126628 0.000000 -0.183443
v 0.126628 -0.048513 -0.231955
v -0.126628 -0.048513 -0.231955
v 0.126628 -0.034304 -0.266259
v -0.126628 -0.034304 -0.266259
v 0.126628 -0.000000 -0.280468
v -0.126628 0.000000 -0.280468
v 0.126628 0.034304 -0.266259
v -0.126628 0.034304 -0.266259
v 0.126628 0.048513 -0.231955
v -0.126628 0.048513 -0.231955
v 0.126628 0.034304 -0.197651
v -0.126628 0.034304 -0.197652
vt 0.831098 0.593750
vt 0.831098 0.607698
vt 0.844712 0.607698
vt 0.844712 0.593750
vt 0.849695 0.607698
vt 0.849695 0.593750
vt 0.844712 0.607698
vt 0.844712 0.593750
vt 0.831098 0.607698
vt 0.831098 0.593750
vt 0.834797 0.595427
vt 0.825373 0.595427
vt 0.831098 0.595427
vt 0.844712 0.595427
vt 0.825373 0.623323
vt 0.834797 0.623323
vt 0.844712 0.623323
vt 0.831098 0.623323
vt 0.838246 0.595427
vt 0.849695 0.595427
vt 0.838246 0.623323
vt 0.849695 0.623323
vt 0.834797 0.595427
vt 0.844712 0.595427
vt 0.834797 0.623323
vt 0.844712 0.623323
vt 0.825373 0.595427
vt 0.831098 0.595427
vt 0.825373 0.623323
vt 0.831098 0.623323
vt 0.825373 0.593750
vt 0.834797 0.593750
vt 0.834797 0.579802
vt 0.825373 0.579802
vt 0.838246 0.593750
vt 0.838246 0.579802
vt 0.834797 0.593750
vt 0.834797 0.579802
vt 0.825373 0.593750
vt 0.825373 0.579802
vt 0.831098 0.595427
vt 0.793903 0.593750
vt 0.793903 0.607698
vt 0.780288 0.607698
vt 0.780288 0.593750
vt 0.775305 0.607698
vt 0.775305 0.593750
vt 0.780288 0.607698
vt 0.780288 0.593750
vt 0.799627 0.593750
vt 0.790204 0.593750
vt 0.790204 0.579802
vt 0.799627 0.579802
vt 0.793903 0.607698
vt 0.793903 0.593750
vt 0.799627 0.595427
vt 0.793903 0.595427
vt 0.793903 0.595427
vt 0.793903 0.595427
vt 0.799627 0.595427
vt 0.793903 0.595427
vt 0.831098 0.623323
vt 0.790204 0.595427
vt 0.780288 0.595427
vt 0.799627 0.623323
vt 0.790204 0.623323
vt 0.780288 0.623323
vt 0.793903 0.623323
vt 0.786754 0.595427
vt 0.775305 0.595427
vt 0.786754 0.623323
vt 0.775305 0.623323
vt 0.790204 0.595427
vt 0.780288 0.595427
vt 0.790204 0.623323
vt 0.780288 0.623323
vt 0.799627 0.623323
vt 0.793903 0.623323
vt 0.786754 0.593750
vt 0.786754 0.579802
vt 0.790204 0.593750
vt 0.790204 0.579802
vt 0.799627 0.593750
vt 0.799627 0.579802
vt 0.825373 0.607698
vt 0.831098 0.607698
vt 0.831098 0.593750
vt 0.799627 0.607698
vt 0.793903 0.607698
vt 0.793903 0.593750
vt 0.831098 0.595427
vt 0.793903 0.623323
vt 0.793903 0.607698
vt 0.793903 0.593750
vt 0.793903 0.623323
vt 0.793903 0.623323
vt 0.793903 0.579802
vt 0.793903 0.593750
vt 0.831098 0.623323
vt 0.831098 0.623323
vt 0.831098 0.623323
vt 0.793903 0.623323
vt 0.793903 0.595427
vt 0.793903 0.595427
vt 0.793903 0.593750
vt 0.793903 0.607698
vt 0.793903 0.607698
vt 0.793903 0.593750
vt 0.831098 0.593750
vt 0.831098 0.579802
vt 0.831098 0.579802
vt 0.831098 0.593750
vt 0.793903 0.579802
vt 0.831098 0.595427
vt 0.831098 0.595427
vt 0.831098 0.579802
vt 0.831098 0.607698
vt 0.793903 0.623323
vt 0.793903 0.623323
vt 0.793903 0.593750
vt 0.793903 0.579802
vt 0.793903 0.579802
vt 0.831098 0.593750
vt 0.831098 0.607698
vt 0.831098 0.607698
vt 0.831098 0.593750
vt 0.831098 0.595427
vt 0.831098 0.595427
vt 0.793903 0.595427
vt 0.793903 0.595427
vt 0.831098 0.593750
vt 0.831098 0.579802
vt 0.831098 0.579802
vt 0.831098 0.623323
vt 0.831098 0.623323
vt 0.793903 0.579802
vt 0.825373 0.607698
vt 0.831098 0.607698
vt 0.831098 0.579802
vt 0.831098 0.579802
vt 0.831098 0.579802
vt 0.831098 0.607698
vt 0.834797 0.607698
vt 0.838246 0.607698
vt 0.834797 0.607698
vt 0.844712 0.579802
vt 0.849695 0.579802
vt 0.844712 0.579802
vt 0.793903 0.607698
vt 0.793903 0.607698
vt 0.793903 0.579802
vt 0.793903 0.579802
vt 0.799627 0.607698
vt 0.793903 0.579802
vt 0.790204 0.607698
vt 0.786754 0.607698
vt 0.790204 0.607698
vt 0.780288 0.579802
vt 0.775305 0.579802
vt 0.780288 0.579802
vt 0.812500 0.625000
vt 0.844950 0.625000
vt 0.844950 0.616209
vt 0.812500 0.617733
vt 0.844950 0.612568
vt 0.812500 0.614723
vt 0.844950 0.616209
vt 0.812500 0.617733
vt 0.844950 0.625000
vt 0.812500 0.625000
vt 0.844950 0.633791
vt 0.812500 0.632267
vt 0.844950 0.637432
vt 0.812500 0.635277
vt 0.844950 0.633791
vt 0.812500 0.632267
vt 0.780050 0.633791
vt 0.780050 0.625000
vt 0.780050 0.637432
vt 0.780050 0.633791
vt 0.780050 0.625000
vt 0.780050 0.616209
vt 0.780050 0.612568
vt 0.780050 0.616209
vt 0.777481 0.625000
vt 0.847519 0.625000
vt 0.812500 0.625000
vt 0.844950 0.625000
vt 0.844950 0.616209
vt 0.812500 0.617733
vt 0.844950 0.612568
vt 0.812500 0.614723
vt 0.844950 0.616209
vt 0.812500 0.617733
vt 0.844950 0.625000
vt 0.812500 0.625000
vt 0.844950 0.633791
vt 0.812500 0.632267
vt 0.844950 0.637432
vt 0.812500 0.635277
vt 0.844950 0.633791
vt 0.812500 0.632267
vt 0.780050 0.633791
vt 0.780050 0.625000
vt 0.780050 0.637432
vt 0.780050 0.633791
vt 0.780050 0.625000
vt 0.780050 0.616209
vt 0.780050 0.612568
vt 0.780050 0.616209
vt 0.777481 0.625000
vt 0.847519 0.625000
vn 0.8921 0.0000 -0.4517
vn 0.8987 0.1647 -0.4064
vn 0.7957 0.2869 -0.5334
vn 0.8652 0.0000 -0.5015
vn 0.9240 0.3823 0.0000
vn 1.0000 0.0000 0.0000
vn 0.7957 0.2869 0.5334
vn 0.8652 0.0000 0.5015
vn 0.8987 0.1647 0.4064
vn 0.8921 0.0000 0.4517
vn 0.0000 -1.0000 0.0000
vn 0.0000 1.0000 0.0000
vn -0.5699 0.0000 -0.8217
vn -0.8179 0.0000 -0.5754
vn -1.0000 0.0000 0.0000
vn -0.8179 0.0000 0.5754
vn -0.5699 0.0000 0.8217
vn -0.8921 0.0000 0.4517
vn -0.8987 0.1647 0.4064
vn -0.7957 0.2869 0.5334
vn -0.8652 0.0000 0.5015
vn -0.9240 0.3823 0.0000
vn -0.7957 0.2869 -0.5333
vn -0.8652 0.0000 -0.5015
vn 0.5699 0.0000 0.8217
vn 0.8179 0.0000 0.5754
vn -0.8987 0.1647 -0.4064
vn -0.8921 0.0000 -0.4517
vn 0.8179 0.0000 -0.5754
vn 0.5699 0.0000 -0.8217
vn 0.0000 0.0000 -1.0000
vn -0.9915 0.1099 -0.0702
vn -0.9975 0.0000 -0.0706
vn 0.8987 -0.1647 -0.4064
vn 0.9915 -0.1099 -0.0702
vn 0.9975 0.0000 -0.0706
vn 0.0000 0.0000 1.0000
vn -0.8987 -0.1647 0.4064
vn -0.9915 -0.1099 0.0702
vn -0.9975 0.0000 0.0706
vn 0.9915 0.1099 0.0702
vn 0.9975 0.0000 0.0706
vn 0.8987 -0.1647 0.4064
vn 0.9915 -0.1099 0.0702
vn 0.9915 0.1099 -0.0702
vn 0.7957 -0.2869 0.5334
vn 0.9240 -0.3823 0.0000
vn 0.7957 -0.2869 -0.5334
vn -0.9915 0.1099 0.0702
vn -0.8987 -0.1647 -0.4064
vn -0.9915 -0.1099 -0.0702
vn -0.7957 -0.2869 -0.5333
vn -0.9240 -0.3823 0.0000
vn -0.7957 -0.2869 0.5334
vn -0.0663 0.0000 -0.9978
vn -0.0663 -0.7056 -0.7056
vn 0.0000 -0.7071 -0.7071
vn -0.0663 -0.9978 0.0000
vn -0.0663 -0.7056 0.7056
vn 0.0000 -0.7071 0.7071
vn -0.0663 -0.0000 0.9978
vn -0.0663 0.7056 0.7056
vn -0.0000 0.7071 0.7071
vn -0.0663 0.9978 -0.0000
vn -0.0663 0.7056 -0.7056
vn -0.0000 0.7071 -0.7071
vn 0.0663 0.7056 -0.7056
vn 0.0663 -0.0000 -0.9978
vn 0.0663 0.9978 0.0000
vn 0.0663 0.7056 0.7056
vn 0.0663 -0.0000 0.9978
vn 0.0663 -0.7056 0.7056
vn 0.0663 -0.9978 0.0000
vn 0.0663 -0.7056 -0.7056
vn -0.9793 0.0000 -0.2023
vn -0.9793 -0.1431 -0.1431
vn 0.9793 -0.1431 -0.1431
vn 0.9793 0.0000 -0.2023
vn -0.9793 -0.2023 0.0000
vn 0.9793 -0.2023 0.0000
vn -0.9793 -0.1431 0.1431
vn 0.9793 -0.1431 0.1431
vn -0.9793 -0.0000 0.2023
vn 0.9793 0.0000 0.2023
vn -0.9793 0.1431 0.1431
vn 0.9793 0.1431 0.1431
vn -0.9793 0.2023 -0.0000
vn 0.9793 0.2023 0.0000
vn -0.9793 0.1431 -0.1431
vn 0.9793 0.1431 -0.1431
usemtl KayKit_Texture_A
s 1
f 65/1/1 12/2/2 14/3/3 66/4/4
f 66/4/4 14/3/3 16/5/5 67/6/6
f 67/6/6 16/5/5 18/7/7 68/8/8
f 68/8/8 18/7/7 20/9/9 69/10/10
f 3/11/11 1/12/11 11/13/11 13/14/11
f 2/15/12 4/16/12 14/17/12 12/18/12
f 5/19/11 3/11/11 13/14/11 15/20/11
f 4/16/12 6/21/12 16/22/12 14/17/12
f 7/23/11 5/19/11 15/20/11 17/24/11
f 6/21/12 8/25/12 18/26/12 16/22/12
f 9/27/11 7/23/11 17/24/11 19/28/11
f 8/25/12 10/29/12 20/30/12 18/26/12
f 70/31/13 71/32/14 7/33/14 9/34/13
f 71/32/14 72/35/15 5/36/15 7/33/14
f 72/35/15 73/37/16 3/38/16 5/36/15
f 73/37/16 74/39/17 1/40/17 3/38/16
f 11/13/11 1/12/11 46/41/11
f 81/42/18 32/43/19 34/44/20 82/45/21
f 82/45/21 34/44/20 36/46/22 83/47/15
f 83/47/15 36/46/22 38/48/23 84/49/24
f 86/50/25 87/51/26 27/52/26 29/53/25
f 84/49/24 38/48/23 40/54/27 85/55/28
f 29/56/11 39/57/11 48/58/11
f 31/59/11 21/60/11 44/61/11
f 20/30/12 10/29/12 41/62/12
f 23/63/11 21/60/11 31/59/11 33/64/11
f 22/65/12 24/66/12 34/67/12 32/68/12
f 25/69/11 23/63/11 33/64/11 35/70/11
f 24/66/12 26/71/12 36/72/12 34/67/12
f 27/73/11 25/69/11 35/70/11 37/74/11
f 26/71/12 28/75/12 38/76/12 36/72/12
f 29/56/11 27/73/11 37/74/11 39/57/11
f 28/75/12 30/77/12 40/78/12 38/76/12
f 87/51/26 88/79/6 25/80/6 27/52/26
f 88/79/6 89/81/29 23/82/29 25/80/6
f 89/81/29 90/83/30 21/84/30 23/82/29
f 74/39/15 2/85/15 45/86/15 76/87/15
f 90/83/6 22/88/6 43/89/6 91/90/6
f 9/27/11 19/28/11 42/91/11
f 22/65/12 32/68/12 43/92/12
f 91/90/6 43/89/6 63/93/6 96/94/6
f 43/92/12 32/68/12 59/95/12 63/96/12
f 86/50/6 29/53/6 48/97/6 92/98/6
f 45/99/12 12/18/12 49/100/12 53/101/12
f 40/78/12 30/77/12 47/102/12
f 48/58/11 39/57/11 52/103/11 56/104/11
f 2/15/12 12/18/12 45/99/12
f 93/105/31 51/106/31 55/107/31 94/108/31
f 77/109/31 50/110/31 54/111/31 78/112/31
f 85/55/28 40/54/27 51/106/32 93/105/33
f 92/98/6 48/97/6 56/113/6 94/108/6
f 11/13/11 46/41/11 54/114/11 50/115/11
f 65/1/1 11/116/34 50/110/35 77/109/36
f 76/87/15 45/86/15 53/117/15 78/112/15
f 40/78/12 47/102/12 55/118/12 51/119/12
f 95/120/37 60/121/37 64/122/37 96/94/37
f 79/123/37 57/124/37 61/125/37 80/126/37
f 42/91/11 19/28/11 58/127/11 62/128/11
f 31/59/11 44/61/11 64/129/11 60/130/11
f 75/131/15 42/132/15 62/133/15 80/126/15
f 20/30/12 41/62/12 61/134/12 57/135/12
f 81/42/18 31/136/38 60/121/39 95/120/40
f 69/10/10 20/9/9 57/124/41 79/123/42
f 70/31/15 9/34/15 42/132/15 75/131/15
f 10/137/15 70/31/15 75/131/15 41/138/15
f 19/139/43 69/10/10 79/123/42 58/140/44
f 41/138/15 75/131/15 80/126/15 61/125/15
f 58/140/37 79/123/37 80/126/37 62/133/37
f 46/141/15 76/87/15 78/112/15 54/111/15
f 12/2/2 65/1/1 77/109/36 49/142/45
f 49/142/31 77/109/31 78/112/31 53/117/31
f 1/40/15 74/39/15 76/87/15 46/141/15
f 4/143/16 2/85/17 74/39/17 73/37/16
f 6/144/15 4/143/16 73/37/16 72/35/15
f 8/145/14 6/144/15 72/35/15 71/32/14
f 10/137/13 8/145/14 71/32/14 70/31/13
f 17/146/46 68/8/8 69/10/10 19/139/43
f 15/147/47 67/6/6 68/8/8 17/146/46
f 13/148/48 66/4/4 67/6/6 15/147/47
f 11/116/34 65/1/1 66/4/4 13/148/48
f 32/43/19 81/42/18 95/120/40 59/149/49
f 59/149/37 95/120/37 96/94/37 63/93/37
f 47/150/6 92/98/6 94/108/6 55/107/6
f 39/151/50 85/55/28 93/105/33 52/152/51
f 52/152/31 93/105/31 94/108/31 56/113/31
f 30/153/6 86/50/6 92/98/6 47/150/6
f 44/154/6 91/90/6 96/94/6 64/122/6
f 21/84/6 90/83/6 91/90/6 44/154/6
f 24/155/29 22/88/30 90/83/30 89/81/29
f 26/156/6 24/155/29 89/81/29 88/79/6
f 28/157/26 26/156/6 88/79/6 87/51/26
f 37/158/52 84/49/24 85/55/28 39/151/50
f 30/153/25 28/157/26 87/51/26 86/50/25
f 35/159/53 83/47/15 84/49/24 37/158/52
f 33/160/54 82/45/21 83/47/15 35/159/53
f 31/136/38 81/42/18 82/45/21 33/160/54
f 99/161/31 110/162/55 109/163/56 100/164/57
f 100/164/57 109/163/56 112/165/58 101/166/11
f 101/166/11 112/165/58 114/167/59 102/168/60
f 102/168/60 114/167/59 116/169/61 103/170/37
f 103/170/37 116/169/61 118/171/62 104/172/63
f 104/172/63 118/171/62 120/173/64 105/174/12
f 105/174/12 120/173/64 122/175/65 106/176/66
f 106/176/66 122/175/65 110/162/55 99/161/31
f 121/177/67 106/176/66 99/161/31 107/178/68
f 119/179/69 105/174/12 106/176/66 121/177/67
f 117/180/70 104/172/63 105/174/12 119/179/69
f 115/181/71 103/170/37 104/172/63 117/180/70
f 113/182/72 102/168/60 103/170/37 115/181/71
f 111/183/73 101/166/11 102/168/60 113/182/72
f 108/184/74 100/164/57 101/166/11 111/183/73
f 107/178/68 99/161/31 100/164/57 108/184/74
f 97/185/15 107/178/75 108/184/76
f 98/186/6 109/163/77 110/162/78
f 97/185/15 108/184/76 111/183/79
f 98/186/6 112/165/80 109/163/77
f 97/185/15 111/183/79 113/182/81
f 98/186/6 114/167/82 112/165/80
f 97/185/15 113/182/81 115/181/83
f 98/186/6 116/169/84 114/167/82
f 97/185/15 115/181/83 117/180/85
f 98/186/6 118/171/86 116/169/84
f 97/185/15 117/180/85 119/179/87
f 98/186/6 120/173/88 118/171/86
f 97/185/15 119/179/87 121/177/89
f 98/186/6 122/175/90 120/173/88
f 97/185/15 121/177/89 107/178/75
f 98/186/6 110/162/78 122/175/90
f 125/187/37 136/188/71 135/189/72 126/190/60
f 126/190/60 135/189/72 138/191/73 127/192/11
f 127/192/11 138/191/73 140/193/74 128/194/57
f 128/194/57 140/193/74 142/195/68 129/196/31
f 129/196/31 142/195/68 144/197/67 130/198/66
f 130/198/66 144/197/67 146/199/69 131/200/12
f 131/200/12 146/199/69 148/201/70 132/202/63
f 132/202/63 148/201/70 136/188/71 125/187/37
f 147/203/62 132/202/63 125/187/37 133/204/61
f 145/205/64 131/200/12 132/202/63 147/203/62
f 143/206/65 130/198/66 131/200/12 145/205/64
f 141/207/55 129/196/31 130/198/66 143/206/65
f 139/208/56 128/194/57 129/196/31 141/207/55
f 137/209/58 127/192/11 128/194/57 139/208/56
f 134/210/59 126/190/60 127/192/11 137/209/58
f 133/204/61 125/187/37 126/190/60 134/210/59
f 123/211/6 133/204/84 134/210/82
f 124/212/15 135/189/81 136/188/83
f 123/211/6 134/210/82 137/209/80
f 124/212/15 138/191/79 135/189/81
f 123/211/6 137/209/80 139/208/77
f 124/212/15 140/193/76 138/191/79
f 123/211/6 139/208/77 141/207/78
f 124/212/15 142/195/75 140/193/76
f 123/211/6 141/207/78 143/206/90
f 124/212/15 144/197/89 142/195/75
f 123/211/6 143/206/90 145/205/88
f 124/212/15 146/199/87 144/197/89
f 123/211/6 145/205/88 147/203/86
f 124/212/15 148/201/85 146/199/87
f 123/211/6 147/203/86 133/204/84
f 124/212/15 136/188/83 148/201/85
