# Blender v3.4.1 OBJ File: 'MixedBag1_Export.blend'
# www.blender.org
mtllib chain_hanging_A.mtl
o chain_hanging_A
v -0.100000 0.000000 -0.100000
v -0.100000 -0.000000 0.100000
v 0.100000 0.000000 -0.100000
v 0.100000 -0.000000 0.100000
v 0.100000 -0.050000 -0.100000
v 0.100000 -0.050000 0.100000
v -0.100000 -0.050000 -0.100000
v -0.100000 -0.050000 0.100000
v -0.100000 0.000000 -0.150000
v -0.150000 0.000000 -0.100000
v -0.150000 -0.050000 -0.100000
v -0.100000 -0.050000 -0.150000
v -0.150000 -0.000000 0.100000
v -0.100000 -0.000000 0.150000
v -0.100000 -0.050000 0.150000
v -0.150000 -0.050000 0.100000
v 0.150000 0.000000 -0.100000
v 0.100000 0.000000 -0.150000
v 0.100000 -0.050000 -0.150000
v 0.150000 -0.050000 -0.100000
v 0.100000 -0.000000 0.150000
v 0.150000 -0.000000 0.100000
v 0.150000 -0.050000 0.100000
v 0.100000 -0.050000 0.150000
v 0.122147 -0.101021 -0.000000
v 0.103312 -0.100628 -0.034015
v 0.063457 -0.099535 -0.035536
v 0.063457 -0.099535 0.035536
v 0.103312 -0.100628 0.034015
v 0.098885 -0.171834 -0.000000
v 0.083771 -0.160856 -0.033893
v 0.051529 -0.137420 -0.035660
v 0.051529 -0.137420 0.035660
v 0.083771 -0.160856 0.033893
v 0.037769 -0.216241 -0.000000
v 0.031994 -0.198468 -0.033898
v 0.019682 -0.160573 -0.035663
v 0.019682 -0.160573 0.035663
v 0.031994 -0.198468 0.033898
v -0.037769 -0.216241 -0.000000
v -0.031994 -0.198468 -0.033898
v -0.019682 -0.160573 -0.035663
v -0.019682 -0.160573 0.035663
v -0.031994 -0.198468 0.033898
v -0.098885 -0.171834 -0.000000
v -0.051529 -0.137420 -0.035660
v -0.051529 -0.137420 0.035660
v -0.083771 -0.160856 0.033893
v -0.122147 -0.101021 -0.000000
v -0.103312 -0.100628 -0.034015
v -0.063457 -0.099535 -0.035536
v -0.063457 -0.099535 0.035536
v -0.103312 -0.100628 0.034015
v -0.083771 -0.160856 -0.033893
v -0.122147 -0.050000 -0.000000
v -0.063457 -0.050000 0.035536
v -0.103312 -0.050000 0.034015
v -0.103312 -0.050000 -0.034015
v -0.063457 -0.050000 -0.035536
v 0.063457 -0.050000 -0.035536
v 0.103312 -0.050000 0.034015
v 0.063457 -0.050000 0.035536
v 0.103312 -0.050000 -0.034015
v 0.122147 -0.050000 -0.000000
vt 0.843203 0.570449
vt 0.843203 0.585801
vt 0.781798 0.585801
vt 0.781798 0.570449
vt 0.858554 0.570449
vt 0.858554 0.585801
vt 0.858554 0.585801
vt 0.858554 0.570449
vt 0.781798 0.617051
vt 0.781798 0.617051
vt 0.766447 0.617051
vt 0.781798 0.617051
vt 0.766447 0.617051
vt 0.781798 0.617051
vt 0.766447 0.570449
vt 0.766447 0.585801
vt 0.766447 0.585801
vt 0.766447 0.570449
vt 0.781798 0.570449
vt 0.781798 0.585801
vt 0.843203 0.585801
vt 0.843203 0.570449
vt 0.843203 0.570449
vt 0.843203 0.570449
vt 0.843203 0.617051
vt 0.843203 0.617051
vt 0.843203 0.617051
vt 0.843203 0.617051
vt 0.858554 0.617051
vt 0.858554 0.617051
vt 0.781798 0.570449
vt 0.781798 0.570449
vt 0.767171 0.625000
vt 0.762134 0.625000
vt 0.762134 0.625000
vt 0.767171 0.625000
vt 0.767171 0.625000
vt 0.767171 0.625000
vt 0.783977 0.645723
vt 0.783977 0.645723
vt 0.801605 0.658531
vt 0.801605 0.658531
vt 0.862866 0.625000
vt 0.857830 0.625000
vt 0.857830 0.625000
vt 0.862866 0.625000
vt 0.847756 0.625000
vt 0.857830 0.625000
vt 0.857830 0.625000
vt 0.847756 0.625000
vt 0.847756 0.625000
vt 0.847756 0.625000
vt 0.777244 0.625000
vt 0.777244 0.625000
vt 0.777244 0.625000
vt 0.777244 0.625000
vt 0.853247 0.654604
vt 0.849172 0.651644
vt 0.841023 0.645723
vt 0.841023 0.645723
vt 0.849172 0.651644
vt 0.828064 0.672901
vt 0.826508 0.668111
vt 0.823395 0.658531
vt 0.823395 0.658531
vt 0.826508 0.668111
vt 0.796936 0.672901
vt 0.798493 0.668111
vt 0.798493 0.668111
vt 0.771753 0.654604
vt 0.775828 0.651644
vt 0.775828 0.651644
vn 0.3827 0.0000 -0.9239
vn -0.3827 0.0000 -0.9239
vn 0.9239 -0.0000 0.3827
vn 1.0000 -0.0000 0.0000
vn 0.0000 -1.0000 -0.0000
vn -1.0000 0.0000 0.0000
vn -0.9239 -0.0000 0.3827
vn 0.0000 -0.0000 1.0000
vn -0.7071 0.0000 -0.7071
vn -0.7071 -0.0000 0.7071
vn 0.7071 -0.0000 0.7071
vn 0.7071 0.0000 -0.7071
vn 0.0000 1.0000 0.0000
vn -0.8748 -0.0000 0.4844
vn -0.8669 -0.1327 0.4804
vn -0.8655 -0.1443 0.4797
vn -0.8748 0.0000 -0.4844
vn -0.8655 -0.1443 -0.4797
vn -0.8669 -0.1327 -0.4804
vn 0.8116 0.5842 0.0000
vn 0.3092 0.9510 0.0000
vn 0.8748 -0.0000 0.4844
vn 0.8655 -0.1443 0.4797
vn 0.8669 -0.1327 0.4804
vn 0.0381 0.0000 -0.9993
vn 0.0395 -0.0060 -0.9992
vn 0.0397 -0.0071 -0.9992
vn 0.0381 -0.0000 0.9993
vn 0.0397 -0.0071 0.9992
vn 0.0395 -0.0060 0.9992
vn -0.0381 -0.0000 0.9993
vn -0.0395 -0.0060 0.9992
vn -0.0397 -0.0071 0.9992
vn -0.0381 0.0000 -0.9993
vn -0.0397 -0.0071 -0.9992
vn -0.0395 -0.0060 -0.9992
vn 0.8748 0.0000 -0.4844
vn 0.8669 -0.1327 -0.4804
vn 0.8655 -0.1443 -0.4797
vn 0.7076 -0.5152 -0.4837
vn 0.0343 -0.0254 -0.9991
vn 0.9884 0.1521 0.0000
vn 0.0343 -0.0254 0.9991
vn 0.7076 -0.5152 0.4837
vn 0.2706 -0.8329 -0.4828
vn 0.0137 -0.0421 -0.9990
vn -0.3092 0.9510 0.0000
vn 0.0137 -0.0421 0.9990
vn 0.2706 -0.8329 0.4828
vn -0.2706 -0.8329 -0.4828
vn -0.0137 -0.0421 -0.9990
vn -0.9884 0.1521 0.0000
vn -0.0137 -0.0421 0.9990
vn -0.2706 -0.8329 0.4828
vn -0.7076 -0.5152 -0.4837
vn -0.0343 -0.0254 -0.9991
vn -0.8116 0.5842 0.0000
vn -0.0343 -0.0254 0.9991
vn -0.7076 -0.5152 0.4837
usemtl KayKit_Texture_A
s 1
f 18/1/1 19/2/1 12/3/2 9/4/2
f 22/5/3 23/6/3 20/7/4 17/8/4
f 8/9/5 15/10/5 16/11/5
f 7/12/5 11/13/5 12/14/5
f 10/15/6 11/16/6 16/17/7 13/18/7
f 14/19/8 15/20/8 24/21/8 21/22/8
f 9/4/2 12/3/2 11/16/9 10/15/9
f 15/20/10 14/19/10 13/18/7 16/17/7
f 23/6/3 22/5/3 21/22/11 24/21/11
f 19/2/1 18/1/1 17/8/12 20/7/12
f 4/23/13 21/22/13 22/5/13
f 7/12/5 8/9/5 16/11/5 11/13/5
f 3/24/13 4/23/13 22/5/13 17/8/13
f 18/1/13 3/24/13 17/8/13
f 24/25/5 15/10/5 8/9/5 6/26/5
f 5/27/5 6/26/5 8/9/5 7/12/5
f 5/27/5 7/12/5 12/14/5 19/28/5
f 23/29/5 24/25/5 6/26/5
f 20/30/5 5/27/5 19/28/5
f 20/30/5 23/29/5 6/26/5 5/27/5
f 14/19/13 21/22/13 4/23/13 2/31/13
f 9/4/13 10/15/13 1/32/13
f 1/32/13 2/31/13 4/23/13 3/24/13
f 13/18/13 14/19/13 2/31/13
f 10/15/13 13/18/13 2/31/13 1/32/13
f 18/1/13 9/4/13 1/32/13 3/24/13
f 57/33/14 55/34/14 49/35/15 53/36/16
f 55/34/17 58/37/17 50/38/18 49/35/19
f 46/39/20 47/40/20 43/41/21 42/42/21
f 64/43/22 61/44/22 29/45/23 25/46/24
f 60/47/25 63/48/25 26/49/26 27/50/27
f 61/44/28 62/51/28 28/52/29 29/45/30
f 56/53/31 57/33/31 53/36/32 52/54/33
f 58/37/34 59/55/34 51/56/35 50/38/36
f 63/48/37 64/43/37 25/46/38 26/49/39
f 25/46/38 30/57/40 31/58/40 26/49/39
f 26/49/26 31/58/41 32/59/41 27/50/27
f 51/56/42 52/54/42 47/40/20 46/39/20
f 28/52/29 33/60/43 34/61/43 29/45/30
f 29/45/23 34/61/44 30/57/44 25/46/24
f 30/57/40 35/62/45 36/63/45 31/58/40
f 31/58/41 36/63/46 37/64/46 32/59/41
f 42/42/21 43/41/21 38/65/47 37/64/47
f 33/60/43 38/65/48 39/66/48 34/61/43
f 34/61/44 39/66/49 35/62/49 30/57/44
f 35/62/45 40/67/50 41/68/50 36/63/45
f 36/63/46 41/68/51 42/42/51 37/64/46
f 60/47/6 27/50/52 28/52/52 62/51/6
f 38/65/48 43/41/53 44/69/53 39/66/48
f 39/66/49 44/69/54 40/67/54 35/62/49
f 40/67/50 45/70/55 54/71/55 41/68/50
f 41/68/51 54/71/56 46/39/56 42/42/51
f 32/59/57 33/60/57 28/52/52 27/50/52
f 43/41/53 47/40/58 48/72/58 44/69/53
f 44/69/54 48/72/59 45/70/59 40/67/54
f 45/70/55 49/35/19 50/38/18 54/71/55
f 54/71/56 50/38/36 51/56/35 46/39/56
f 37/64/47 38/65/47 33/60/57 32/59/57
f 47/40/58 52/54/33 53/36/32 48/72/58
f 48/72/59 53/36/16 49/35/15 45/70/59
f 59/55/4 56/53/4 52/54/42 51/56/42
