# Blender v3.4.1 OBJ File: 'MixedBag1_Export.blend'
# www.blender.org
mtllib chainlinks.mtl
o chainlinks
v 0.122147 -0.051021 0.000000
v 0.103312 -0.050628 0.034015
v 0.063457 -0.049535 0.035536
v 0.063457 -0.049535 -0.035536
v 0.103312 -0.050628 -0.034015
v -0.122147 -0.051021 0.000000
v -0.103312 -0.050628 0.034015
v -0.063457 -0.049535 0.035536
v -0.063457 -0.049535 -0.035536
v -0.103312 -0.050628 -0.034015
v -0.098885 -0.121834 -0.000000
v -0.083771 -0.110856 0.033893
v -0.051529 -0.087420 0.035660
v -0.051529 -0.087420 -0.035660
v -0.083771 -0.110856 -0.033893
v -0.037769 -0.166241 -0.000000
v -0.031994 -0.148469 0.033898
v -0.019682 -0.110573 0.035663
v -0.019682 -0.110573 -0.035663
v -0.031994 -0.148469 -0.033898
v 0.037769 -0.166241 -0.000000
v 0.031994 -0.148469 0.033898
v 0.019682 -0.110573 0.035663
v 0.019682 -0.110573 -0.035663
v 0.031994 -0.148469 -0.033898
v 0.098885 -0.121834 -0.000000
v 0.083771 -0.110856 0.033893
v 0.051529 -0.087420 0.035660
v 0.051529 -0.087420 -0.035660
v 0.083771 -0.110856 -0.033893
v 0.122147 0.051021 0.000000
v 0.103312 0.050628 0.034015
v 0.063457 0.049535 0.035536
v 0.063457 0.049535 -0.035536
v 0.103312 0.050628 -0.034015
v 0.098885 0.121834 0.000000
v 0.083771 0.110856 0.033893
v 0.051529 0.087420 0.035660
v 0.051529 0.087420 -0.035660
v 0.083771 0.110856 -0.033893
v 0.037769 0.166241 0.000000
v 0.031994 0.148468 0.033898
v 0.019682 0.110573 0.035663
v 0.019682 0.110573 -0.035663
v 0.031994 0.148468 -0.033898
v -0.037769 0.166241 0.000000
v -0.031994 0.148468 0.033898
v -0.019682 0.110573 0.035663
v -0.019682 0.110573 -0.035663
v -0.031994 0.148468 -0.033898
v -0.098885 0.121834 0.000000
v -0.051529 0.087420 0.035660
v -0.051529 0.087420 -0.035660
v -0.083771 0.110856 -0.033893
v -0.122147 0.051021 0.000000
v -0.103312 0.050628 0.034015
v -0.063457 0.049535 0.035536
v -0.063457 0.049535 -0.035536
v -0.103312 0.050628 -0.034015
v -0.083771 0.110856 0.033893
v -0.000000 0.148979 -0.122147
v 0.034015 0.149372 -0.103312
v 0.035536 0.150465 -0.063457
v -0.035536 0.150465 -0.063457
v -0.034015 0.149372 -0.103312
v 0.000000 0.148979 0.122147
v 0.034015 0.149372 0.103312
v 0.035536 0.150465 0.063457
v -0.035536 0.150465 0.063457
v -0.034015 0.149372 0.103312
v 0.000000 0.078166 0.098885
v 0.033893 0.089144 0.083771
v 0.035660 0.112580 0.051529
v -0.035660 0.112580 0.051529
v -0.033893 0.089144 0.083771
v -0.000000 0.033759 0.037769
v 0.033898 0.051532 0.031994
v 0.035663 0.089427 0.019682
v -0.035663 0.089427 0.019682
v -0.033898 0.051532 0.031994
v -0.000000 0.033759 -0.037769
v 0.033898 0.051532 -0.031994
v 0.035663 0.089427 -0.019682
v -0.035663 0.089427 -0.019682
v -0.033898 0.051532 -0.031994
v -0.000000 0.078166 -0.098885
v 0.033893 0.089144 -0.083771
v 0.035660 0.112580 -0.051529
v -0.035660 0.112580 -0.051529
v -0.033893 0.089144 -0.083771
v -0.000000 0.251021 -0.122147
v 0.034015 0.250628 -0.103312
v 0.035536 0.249535 -0.063457
v -0.035536 0.249535 -0.063457
v -0.034015 0.250628 -0.103312
v -0.000000 0.321834 -0.098885
v 0.033893 0.310856 -0.083771
v 0.035660 0.287420 -0.051529
v -0.035660 0.287420 -0.051529
v -0.033893 0.310856 -0.083771
v 0.000000 0.366241 -0.037769
v 0.033898 0.348469 -0.031994
v 0.035663 0.310573 -0.019682
v -0.035663 0.310573 -0.019682
v -0.033898 0.348469 -0.031994
v 0.000000 0.366241 0.037769
v 0.033898 0.348469 0.031994
v 0.035663 0.310573 0.019682
v -0.035663 0.310573 0.019682
v -0.033898 0.348469 0.031994
v 0.000000 0.321834 0.098885
v 0.035660 0.287420 0.051529
v -0.035660 0.287420 0.051529
v -0.033893 0.310856 0.083771
v 0.000000 0.251021 0.122147
v 0.034015 0.250628 0.103312
v 0.035536 0.249535 0.063457
v -0.035536 0.249535 0.063457
v -0.034015 0.250628 0.103312
v 0.033893 0.310856 0.083771
vt 0.767171 0.625000
vt 0.762134 0.625000
vt 0.762134 0.625000
vt 0.767171 0.625000
vt 0.801605 0.591469
vt 0.783977 0.604277
vt 0.783977 0.604277
vt 0.801605 0.591469
vt 0.767171 0.625000
vt 0.767171 0.625000
vt 0.841023 0.604277
vt 0.823395 0.591469
vt 0.823395 0.591469
vt 0.841023 0.604277
vt 0.862866 0.625000
vt 0.857830 0.625000
vt 0.857830 0.625000
vt 0.862866 0.625000
vt 0.847756 0.625000
vt 0.857830 0.625000
vt 0.857830 0.625000
vt 0.847756 0.625000
vt 0.847756 0.625000
vt 0.847756 0.625000
vt 0.777244 0.625000
vt 0.777244 0.625000
vt 0.777244 0.625000
vt 0.777244 0.625000
vt 0.771753 0.595396
vt 0.775828 0.598356
vt 0.783977 0.645723
vt 0.783977 0.645723
vt 0.801605 0.658531
vt 0.801605 0.658531
vt 0.775828 0.598356
vt 0.796936 0.577099
vt 0.798493 0.581889
vt 0.798493 0.581889
vt 0.828064 0.577099
vt 0.826508 0.581889
vt 0.826508 0.581889
vt 0.853247 0.595396
vt 0.849172 0.598356
vt 0.849172 0.598356
vt 0.853247 0.654604
vt 0.849172 0.651644
vt 0.841023 0.645723
vt 0.841023 0.645723
vt 0.849172 0.651644
vt 0.828064 0.672901
vt 0.826508 0.668111
vt 0.823395 0.658531
vt 0.823395 0.658531
vt 0.826508 0.668111
vt 0.796936 0.672901
vt 0.798493 0.668111
vt 0.798493 0.668111
vt 0.771753 0.654604
vt 0.775828 0.651644
vt 0.775828 0.651644
vt 0.767171 0.625000
vt 0.762134 0.625000
vt 0.762134 0.625000
vt 0.767171 0.625000
vt 0.801605 0.591469
vt 0.783977 0.604277
vt 0.783977 0.604277
vt 0.801605 0.591469
vt 0.767171 0.625000
vt 0.767171 0.625000
vt 0.841023 0.604277
vt 0.823395 0.591469
vt 0.823395 0.591469
vt 0.841023 0.604277
vt 0.862866 0.625000
vt 0.857830 0.625000
vt 0.857830 0.625000
vt 0.862866 0.625000
vt 0.847756 0.625000
vt 0.857830 0.625000
vt 0.857830 0.625000
vt 0.847756 0.625000
vt 0.847756 0.625000
vt 0.847756 0.625000
vt 0.777244 0.625000
vt 0.777244 0.625000
vt 0.777244 0.625000
vt 0.777244 0.625000
vt 0.771753 0.595396
vt 0.775828 0.598356
vt 0.783977 0.645723
vt 0.783977 0.645723
vt 0.801605 0.658531
vt 0.801605 0.658531
vt 0.775828 0.598356
vt 0.796936 0.577099
vt 0.798493 0.581889
vt 0.798493 0.581889
vt 0.828064 0.577099
vt 0.826508 0.581889
vt 0.826508 0.581889
vt 0.853247 0.595396
vt 0.849172 0.598356
vt 0.849172 0.598356
vt 0.853247 0.654604
vt 0.849172 0.651644
vt 0.841023 0.645723
vt 0.841023 0.645723
vt 0.849172 0.651644
vt 0.828064 0.672901
vt 0.826508 0.668111
vt 0.823395 0.658531
vt 0.823395 0.658531
vt 0.826508 0.668111
vt 0.796936 0.672901
vt 0.798493 0.668111
vt 0.798493 0.668111
vt 0.771753 0.654604
vt 0.775828 0.651644
vt 0.775828 0.651644
vn -0.8655 -0.1443 -0.4797
vn -0.8669 -0.1327 -0.4804
vn -0.8669 0.1327 -0.4804
vn -0.8655 0.1443 -0.4797
vn 0.3092 0.9510 -0.0000
vn 0.8116 0.5842 -0.0000
vn -0.8669 -0.1327 0.4804
vn -0.8655 -0.1443 0.4797
vn -0.8655 0.1443 0.4797
vn -0.8669 0.1327 0.4804
vn -0.8116 0.5842 0.0000
vn -0.3092 0.9510 0.0000
vn 0.8669 -0.1327 -0.4804
vn 0.8655 -0.1443 -0.4797
vn 0.8655 0.1443 -0.4797
vn 0.8669 0.1327 -0.4804
vn 0.0397 -0.0071 0.9992
vn 0.0395 -0.0060 0.9992
vn 0.0395 0.0060 0.9992
vn 0.0397 0.0071 0.9992
vn 0.0395 -0.0060 -0.9992
vn 0.0397 -0.0071 -0.9992
vn 0.0397 0.0071 -0.9992
vn 0.0395 0.0060 -0.9992
vn -0.0397 -0.0071 -0.9992
vn -0.0395 -0.0060 -0.9992
vn -0.0395 0.0060 -0.9992
vn -0.0397 0.0071 -0.9992
vn -0.0395 -0.0060 0.9992
vn -0.0397 -0.0071 0.9992
vn -0.0397 0.0071 0.9992
vn -0.0395 0.0060 0.9992
vn 0.8655 -0.1443 0.4797
vn 0.8669 -0.1327 0.4804
vn 0.8669 0.1327 0.4804
vn 0.8655 0.1443 0.4797
vn -0.7076 -0.5152 0.4837
vn -0.0343 -0.0254 0.9991
vn 0.8116 -0.5842 0.0000
vn 0.3092 -0.9510 -0.0000
vn -0.0343 -0.0254 -0.9991
vn -0.7076 -0.5152 -0.4837
vn -0.2706 -0.8329 0.4828
vn -0.0137 -0.0421 0.9990
vn 0.9884 0.1521 -0.0000
vn 0.9884 -0.1521 0.0000
vn -0.0137 -0.0421 -0.9990
vn -0.2706 -0.8329 -0.4828
vn 0.2706 -0.8329 0.4828
vn 0.0137 -0.0421 0.9990
vn -0.9884 0.1521 0.0000
vn -0.9884 -0.1521 0.0000
vn 0.0137 -0.0421 -0.9990
vn 0.2706 -0.8329 -0.4828
vn 0.7076 -0.5152 0.4837
vn 0.0343 -0.0254 0.9991
vn 0.0343 -0.0254 -0.9991
vn 0.7076 -0.5152 -0.4837
vn 0.7076 0.5152 0.4837
vn 0.0343 0.0254 0.9991
vn 0.0343 0.0254 -0.9991
vn 0.7076 0.5152 -0.4837
vn 0.2706 0.8329 0.4828
vn 0.0137 0.0421 0.9990
vn -0.3092 -0.9510 -0.0000
vn 0.0137 0.0421 -0.9990
vn 0.2706 0.8329 -0.4828
vn -0.2706 0.8329 0.4828
vn -0.0137 0.0421 0.9990
vn -0.0137 0.0421 -0.9990
vn -0.2706 0.8329 -0.4828
vn -0.7076 0.5152 0.4837
vn -0.0343 0.0254 0.9991
vn -0.8116 -0.5842 -0.0000
vn -0.0343 0.0254 -0.9991
vn -0.7076 0.5152 -0.4837
vn -0.4797 -0.1443 0.8655
vn -0.4804 -0.1327 0.8669
vn -0.4804 0.1327 0.8669
vn -0.4797 0.1443 0.8655
vn -0.0000 0.9510 -0.3092
vn -0.0000 0.5842 -0.8116
vn 0.4804 -0.1327 0.8669
vn 0.4797 -0.1443 0.8655
vn 0.4797 0.1443 0.8655
vn 0.4804 0.1327 0.8669
vn 0.0000 0.5842 0.8116
vn 0.0000 0.9510 0.3092
vn -0.4804 -0.1327 -0.8669
vn -0.4797 -0.1443 -0.8655
vn -0.4797 0.1443 -0.8655
vn -0.4804 0.1327 -0.8669
vn 0.9992 -0.0071 -0.0397
vn 0.9992 -0.0060 -0.0395
vn 0.9992 0.0060 -0.0395
vn 0.9992 0.0071 -0.0397
vn -0.9992 -0.0060 -0.0395
vn -0.9992 -0.0071 -0.0397
vn -0.9992 0.0071 -0.0397
vn -0.9992 0.0060 -0.0395
vn -0.9992 -0.0071 0.0397
vn -0.9992 -0.0060 0.0395
vn -0.9992 0.0060 0.0395
vn -0.9992 0.0071 0.0397
vn 0.9992 -0.0060 0.0395
vn 0.9992 -0.0071 0.0397
vn 0.9992 0.0071 0.0397
vn 0.9992 0.0060 0.0395
vn 0.4797 -0.1443 -0.8655
vn 0.4804 -0.1327 -0.8669
vn 0.4804 0.1327 -0.8669
vn 0.4797 0.1443 -0.8655
vn 0.4837 -0.5152 0.7076
vn 0.9991 -0.0254 0.0343
vn 0.0000 -0.5842 -0.8116
vn 0.0000 -0.9510 -0.3092
vn -0.9991 -0.0254 0.0343
vn -0.4837 -0.5152 0.7076
vn 0.4828 -0.8329 0.2706
vn 0.9990 -0.0421 0.0137
vn 0.0000 0.1521 -0.9884
vn 0.0000 -0.1521 -0.9884
vn -0.9990 -0.0421 0.0137
vn -0.4828 -0.8329 0.2706
vn 0.4828 -0.8329 -0.2706
vn 0.9990 -0.0421 -0.0137
vn 0.0000 0.1521 0.9884
vn 0.0000 -0.1521 0.9884
vn -0.9990 -0.0421 -0.0137
vn -0.4828 -0.8329 -0.2706
vn 0.4837 -0.5152 -0.7076
vn 0.9991 -0.0254 -0.0343
vn -0.9991 -0.0254 -0.0343
vn -0.4837 -0.5152 -0.7076
vn 0.4837 0.5152 -0.7076
vn 0.9991 0.0254 -0.0343
vn -0.9991 0.0254 -0.0343
vn -0.4837 0.5152 -0.7076
vn 0.4828 0.8329 -0.2706
vn 0.9990 0.0421 -0.0137
vn 0.0000 -0.9510 0.3092
vn -0.9990 0.0421 -0.0137
vn -0.4828 0.8329 -0.2706
vn 0.4828 0.8329 0.2706
vn 0.9990 0.0421 0.0137
vn -0.9990 0.0421 0.0137
vn -0.4828 0.8329 0.2706
vn 0.4837 0.5152 0.7076
vn 0.9991 0.0254 0.0343
vn 0.0000 -0.5842 0.8116
vn -0.9991 0.0254 0.0343
vn -0.4837 0.5152 0.7076
usemtl KayKit_Texture_A
s 1
f 10/1/1 6/2/2 55/3/3 59/4/4
f 19/5/5 14/6/6 13/7/6 18/8/5
f 6/2/7 7/9/8 56/10/9 55/3/10
f 29/11/11 24/12/12 23/13/12 28/14/11
f 1/15/13 5/16/14 35/17/15 31/18/16
f 3/19/17 2/20/18 32/21/19 33/22/20
f 5/16/21 4/23/22 34/24/23 35/17/24
f 9/25/25 10/1/26 59/4/27 58/26/28
f 7/9/29 8/27/30 57/28/31 56/10/32
f 2/20/33 1/15/34 31/18/35 32/21/36
f 6/2/7 11/29/37 12/30/37 7/9/8
f 7/9/29 12/30/38 13/7/38 8/27/30
f 52/31/39 53/32/39 49/33/40 48/34/40
f 9/25/25 14/6/41 15/35/41 10/1/26
f 10/1/1 15/35/42 11/29/42 6/2/2
f 11/29/37 16/36/43 17/37/43 12/30/37
f 12/30/38 17/37/44 18/8/44 13/7/38
f 8/27/45 9/25/45 58/26/46 57/28/46
f 14/6/41 19/5/47 20/38/47 15/35/41
f 15/35/42 20/38/48 16/36/48 11/29/42
f 16/36/43 21/39/49 22/40/49 17/37/43
f 17/37/44 22/40/50 23/13/50 18/8/44
f 3/19/51 33/22/52 34/24/52 4/23/51
f 19/5/47 24/12/53 25/41/53 20/38/47
f 20/38/48 25/41/54 21/39/54 16/36/48
f 21/39/49 26/42/55 27/43/55 22/40/49
f 22/40/50 27/43/56 28/14/56 23/13/50
f 13/7/6 14/6/6 9/25/45 8/27/45
f 24/12/53 29/11/57 30/44/57 25/41/53
f 25/41/54 30/44/58 26/42/58 21/39/54
f 26/42/55 1/15/34 2/20/33 27/43/55
f 27/43/56 2/20/18 3/19/17 28/14/56
f 23/13/12 24/12/12 19/5/5 18/8/5
f 29/11/57 4/23/22 5/16/21 30/44/57
f 30/44/58 5/16/14 1/15/13 26/42/58
f 31/18/35 36/45/59 37/46/59 32/21/36
f 32/21/19 37/46/60 38/47/60 33/22/20
f 57/28/46 58/26/46 53/32/39 52/31/39
f 34/24/23 39/48/61 40/49/61 35/17/24
f 35/17/15 40/49/62 36/45/62 31/18/16
f 36/45/59 41/50/63 42/51/63 37/46/59
f 37/46/60 42/51/64 43/52/64 38/47/60
f 48/34/40 49/33/40 44/53/65 43/52/65
f 39/48/61 44/53/66 45/54/66 40/49/61
f 40/49/62 45/54/67 41/50/67 36/45/62
f 41/50/63 46/55/68 47/56/68 42/51/63
f 42/51/64 47/56/69 48/34/69 43/52/64
f 44/53/66 49/33/70 50/57/70 45/54/66
f 45/54/67 50/57/71 46/55/71 41/50/67
f 46/55/68 51/58/72 60/59/72 47/56/68
f 47/56/69 60/59/73 52/31/73 48/34/69
f 38/47/74 39/48/74 34/24/52 33/22/52
f 49/33/70 53/32/75 54/60/75 50/57/70
f 50/57/71 54/60/76 51/58/76 46/55/71
f 51/58/72 55/3/10 56/10/9 60/59/72
f 60/59/73 56/10/32 57/28/31 52/31/73
f 43/52/65 44/53/65 39/48/74 38/47/74
f 53/32/75 58/26/28 59/4/27 54/60/75
f 54/60/76 59/4/4 55/3/3 51/58/76
f 3/19/51 4/23/51 29/11/11 28/14/11
f 70/61/77 66/62/78 115/63/79 119/64/80
f 79/65/81 74/66/82 73/67/82 78/68/81
f 66/62/83 67/69/84 116/70/85 115/63/86
f 89/71/87 84/72/88 83/73/88 88/74/87
f 61/75/89 65/76/90 95/77/91 91/78/92
f 63/79/93 62/80/94 92/81/95 93/82/96
f 65/76/97 64/83/98 94/84/99 95/77/100
f 69/85/101 70/61/102 119/64/103 118/86/104
f 67/69/105 68/87/106 117/88/107 116/70/108
f 62/80/109 61/75/110 91/78/111 92/81/112
f 66/62/83 71/89/113 72/90/113 67/69/84
f 67/69/105 72/90/114 73/67/114 68/87/106
f 112/91/115 113/92/115 109/93/116 108/94/116
f 69/85/101 74/66/117 75/95/117 70/61/102
f 70/61/77 75/95/118 71/89/118 66/62/78
f 71/89/113 76/96/119 77/97/119 72/90/113
f 72/90/114 77/97/120 78/68/120 73/67/114
f 68/87/121 69/85/121 118/86/122 117/88/122
f 74/66/117 79/65/123 80/98/123 75/95/117
f 75/95/118 80/98/124 76/96/124 71/89/118
f 76/96/119 81/99/125 82/100/125 77/97/119
f 77/97/120 82/100/126 83/73/126 78/68/120
f 63/79/127 93/82/128 94/84/128 64/83/127
f 79/65/123 84/72/129 85/101/129 80/98/123
f 80/98/124 85/101/130 81/99/130 76/96/124
f 81/99/125 86/102/131 87/103/131 82/100/125
f 82/100/126 87/103/132 88/74/132 83/73/126
f 73/67/82 74/66/82 69/85/121 68/87/121
f 84/72/129 89/71/133 90/104/133 85/101/129
f 85/101/130 90/104/134 86/102/134 81/99/130
f 86/102/131 61/75/110 62/80/109 87/103/131
f 87/103/132 62/80/94 63/79/93 88/74/132
f 83/73/88 84/72/88 79/65/81 78/68/81
f 89/71/133 64/83/98 65/76/97 90/104/133
f 90/104/134 65/76/90 61/75/89 86/102/134
f 91/78/111 96/105/135 97/106/135 92/81/112
f 92/81/95 97/106/136 98/107/136 93/82/96
f 117/88/122 118/86/122 113/92/115 112/91/115
f 94/84/99 99/108/137 100/109/137 95/77/100
f 95/77/91 100/109/138 96/105/138 91/78/92
f 96/105/135 101/110/139 102/111/139 97/106/135
f 97/106/136 102/111/140 103/112/140 98/107/136
f 108/94/116 109/93/116 104/113/141 103/112/141
f 99/108/137 104/113/142 105/114/142 100/109/137
f 100/109/138 105/114/143 101/110/143 96/105/138
f 101/110/139 106/115/144 107/116/144 102/111/139
f 102/111/140 107/116/145 108/94/145 103/112/140
f 104/113/142 109/93/146 110/117/146 105/114/142
f 105/114/143 110/117/147 106/115/147 101/110/143
f 106/115/144 111/118/148 120/119/148 107/116/144
f 107/116/145 120/119/149 112/91/149 108/94/145
f 98/107/150 99/108/150 94/84/128 93/82/128
f 109/93/146 113/92/151 114/120/151 110/117/146
f 110/117/147 114/120/152 111/118/152 106/115/147
f 111/118/148 115/63/86 116/70/85 120/119/148
f 120/119/149 116/70/108 117/88/107 112/91/149
f 103/112/141 104/113/141 99/108/150 98/107/150
f 113/92/151 118/86/104 119/64/103 114/120/151
f 114/120/152 119/64/80 115/63/79 111/118/152
f 63/79/127 64/83/127 89/71/87 88/74/87
