# Blender v3.4.1 OBJ File: 'MixedBag1_Export.blend'
# www.blender.org
mtllib chain_hanging_A_chain.mtl
o chain
v -0.085125 -1.796808 0.000000
v -0.071999 -1.796534 -0.023705
v -0.044223 -1.795773 -0.024765
v -0.044223 -1.795773 0.024765
v -0.071999 -1.796534 0.023705
v 0.085124 -1.796808 -0.000000
v 0.071998 -1.796534 -0.023705
v 0.044223 -1.795773 -0.024765
v 0.044223 -1.795773 0.024765
v 0.071998 -1.796534 0.023705
v 0.068913 -1.846158 0.000000
v 0.058380 -1.838507 -0.023620
v 0.035910 -1.822175 -0.024851
v 0.035910 -1.822175 0.024851
v 0.058380 -1.838507 0.023620
v 0.026321 -1.877105 0.000000
v 0.022296 -1.864720 -0.023623
v 0.013716 -1.838311 -0.024854
v 0.013716 -1.838311 0.024854
v 0.022296 -1.864720 0.023623
v -0.026322 -1.877105 0.000000
v -0.022297 -1.864720 -0.023623
v -0.013716 -1.838311 -0.024854
v -0.013716 -1.838311 0.024854
v -0.022297 -1.864720 0.023623
v -0.068914 -1.846158 0.000000
v -0.058381 -1.838507 -0.023620
v -0.035911 -1.822175 -0.024851
v -0.035911 -1.822175 0.024851
v -0.058381 -1.838507 0.023620
v -0.085125 -1.725696 0.000000
v -0.071999 -1.725970 -0.023705
v -0.044223 -1.726731 -0.024765
v -0.044223 -1.726731 0.024765
v -0.071999 -1.725970 0.023705
v -0.068913 -1.676346 -0.000000
v -0.058381 -1.683997 -0.023620
v -0.035911 -1.700329 -0.024851
v -0.035911 -1.700329 0.024851
v -0.058381 -1.683997 0.023620
v -0.026321 -1.645399 -0.000000
v -0.022297 -1.657784 -0.023623
v -0.013716 -1.684193 -0.024854
v -0.013716 -1.684193 0.024854
v -0.022297 -1.657784 0.023623
v 0.026321 -1.645399 -0.000000
v 0.022297 -1.657784 -0.023623
v 0.013716 -1.684193 -0.024854
v 0.013716 -1.684193 0.024854
v 0.022297 -1.657784 0.023623
v 0.068913 -1.676346 -0.000000
v 0.035910 -1.700329 -0.024851
v 0.035910 -1.700329 0.024851
v 0.058380 -1.683997 0.023620
v 0.085124 -1.725696 -0.000000
v 0.071998 -1.725970 -0.023705
v 0.044223 -1.726731 -0.024765
v 0.044223 -1.726731 0.024765
v 0.071998 -1.725970 0.023705
v 0.058380 -1.683997 -0.023620
v -0.000000 -1.657429 0.085124
v -0.023705 -1.657155 0.071998
v -0.024765 -1.656393 0.044223
v 0.024765 -1.656393 0.044223
v 0.023705 -1.657155 0.071998
v -0.000000 -1.657429 -0.085124
v -0.023705 -1.657155 -0.071998
v -0.024765 -1.656393 -0.044223
v 0.024765 -1.656393 -0.044223
v 0.023704 -1.657155 -0.071998
v -0.000000 -1.706778 -0.068913
v -0.023620 -1.699128 -0.058380
v -0.024852 -1.682795 -0.035910
v 0.024851 -1.682795 -0.035910
v 0.023619 -1.699128 -0.058380
v -0.000000 -1.737725 -0.026321
v -0.023624 -1.725340 -0.022297
v -0.024854 -1.698931 -0.013716
v 0.024853 -1.698931 -0.013716
v 0.023623 -1.725340 -0.022297
v -0.000000 -1.737725 0.026321
v -0.023624 -1.725340 0.022297
v -0.024854 -1.698931 0.013716
v 0.024853 -1.698931 0.013716
v 0.023623 -1.725340 0.022297
v -0.000000 -1.706778 0.068913
v -0.023620 -1.699128 0.058380
v -0.024852 -1.682795 0.035910
v 0.024851 -1.682795 0.035910
v 0.023619 -1.699128 0.058380
v -0.000000 -1.586316 0.085124
v -0.023705 -1.586590 0.071998
v -0.024765 -1.587351 0.044223
v 0.024765 -1.587351 0.044223
v 0.023705 -1.586590 0.071998
v -0.000000 -1.536966 0.068913
v -0.023620 -1.544617 0.058380
v -0.024851 -1.560949 0.035910
v 0.024851 -1.560950 0.035910
v 0.023620 -1.544617 0.058380
v -0.000000 -1.506019 0.026321
v -0.023623 -1.518405 0.022297
v -0.024854 -1.544814 0.013716
v 0.024853 -1.544814 0.013716
v 0.023623 -1.518405 0.022297
v -0.000000 -1.506019 -0.026321
v -0.023623 -1.518405 -0.022297
v -0.024854 -1.544814 -0.013716
v 0.024853 -1.544814 -0.013716
v 0.023623 -1.518405 -0.022297
v -0.000000 -1.536966 -0.068913
v -0.024852 -1.560949 -0.035910
v 0.024851 -1.560950 -0.035910
v 0.023619 -1.544617 -0.058380
v -0.000000 -1.586316 -0.085124
v -0.023705 -1.586590 -0.071998
v -0.024765 -1.587351 -0.044223
v 0.024765 -1.587351 -0.044223
v 0.023705 -1.586590 -0.071998
v -0.023620 -1.544617 -0.058380
v -0.085125 -1.518494 -0.000000
v -0.071998 -1.518220 -0.023705
v -0.044223 -1.517458 -0.024765
v -0.044223 -1.517458 0.024765
v -0.071998 -1.518220 0.023705
v 0.085124 -1.518494 -0.000000
v 0.071998 -1.518220 -0.023705
v 0.044223 -1.517459 -0.024765
v 0.044223 -1.517459 0.024765
v 0.071998 -1.518220 0.023705
v 0.068913 -1.567843 -0.000000
v 0.058380 -1.560193 -0.023620
v 0.035910 -1.543860 -0.024851
v 0.035910 -1.543860 0.024851
v 0.058380 -1.560193 0.023620
v 0.026321 -1.598791 -0.000000
v 0.022297 -1.586405 -0.023623
v 0.013716 -1.559996 -0.024854
v 0.013716 -1.559996 0.024854
v 0.022297 -1.586405 0.023623
v -0.026321 -1.598791 -0.000000
v -0.022297 -1.586405 -0.023623
v -0.013716 -1.559996 -0.024854
v -0.013716 -1.559996 0.024854
v -0.022297 -1.586405 0.023623
v -0.068913 -1.567843 -0.000000
v -0.058380 -1.560193 -0.023620
v -0.035911 -1.543860 -0.024851
v -0.035911 -1.543860 0.024851
v -0.058380 -1.560193 0.023620
v -0.085125 -1.447381 -0.000000
v -0.071998 -1.447655 -0.023705
v -0.044223 -1.448416 -0.024765
v -0.044223 -1.448416 0.024765
v -0.071998 -1.447655 0.023705
v -0.068913 -1.398031 -0.000000
v -0.058380 -1.405682 -0.023620
v -0.035911 -1.422015 -0.024851
v -0.035911 -1.422015 0.024851
v -0.058380 -1.405682 0.023620
v -0.026321 -1.367084 -0.000000
v -0.022297 -1.379470 -0.023623
v -0.013716 -1.405879 -0.024854
v -0.013716 -1.405879 0.024854
v -0.022297 -1.379470 0.023623
v 0.026321 -1.367084 -0.000000
v 0.022297 -1.379470 -0.023623
v 0.013716 -1.405879 -0.024854
v 0.013716 -1.405879 0.024854
v 0.022297 -1.379470 0.023623
v 0.068913 -1.398032 -0.000000
v 0.035910 -1.422015 -0.024851
v 0.035910 -1.422015 0.024851
v 0.058380 -1.405682 0.023620
v 0.085124 -1.447381 -0.000000
v 0.071998 -1.447655 -0.023705
v 0.044223 -1.448416 -0.024765
v 0.044223 -1.448416 0.024765
v 0.071998 -1.447655 0.023705
v 0.058380 -1.405682 -0.023620
v -0.000000 -1.379114 0.085124
v -0.023705 -1.378840 0.071998
v -0.024765 -1.378079 0.044223
v 0.024765 -1.378079 0.044223
v 0.023705 -1.378840 0.071998
v -0.000000 -1.379114 -0.085124
v -0.023705 -1.378840 -0.071998
v -0.024765 -1.378079 -0.044223
v 0.024765 -1.378079 -0.044223
v 0.023705 -1.378840 -0.071998
v -0.000000 -1.428464 -0.068913
v -0.023620 -1.420813 -0.058380
v -0.024851 -1.404480 -0.035910
v 0.024851 -1.404480 -0.035910
v 0.023620 -1.420813 -0.058380
v -0.000000 -1.459411 -0.026321
v -0.023623 -1.447025 -0.022297
v -0.024854 -1.420616 -0.013716
v 0.024853 -1.420616 -0.013716
v 0.023623 -1.447025 -0.022297
v -0.000000 -1.459411 0.026321
v -0.023623 -1.447025 0.022297
v -0.024854 -1.420616 0.013716
v 0.024853 -1.420616 0.013716
v 0.023623 -1.447025 0.022297
v -0.000000 -1.428464 0.068913
v -0.023620 -1.420813 0.058380
v -0.024851 -1.404480 0.035910
v 0.024851 -1.404480 0.035910
v 0.023620 -1.420813 0.058380
v -0.000000 -1.308001 0.085124
v -0.023705 -1.308275 0.071998
v -0.024765 -1.309037 0.044223
v 0.024765 -1.309037 0.044223
v 0.023705 -1.308275 0.071998
v -0.000000 -1.258652 0.068913
v -0.023620 -1.266302 0.058380
v -0.024851 -1.282635 0.035910
v 0.024851 -1.282635 0.035910
v 0.023620 -1.266302 0.058380
v -0.000000 -1.227704 0.026321
v -0.023623 -1.240090 0.022297
v -0.024854 -1.266499 0.013716
v 0.024853 -1.266499 0.013716
v 0.023623 -1.240090 0.022297
v -0.000000 -1.227704 -0.026321
v -0.023623 -1.240090 -0.022297
v -0.024854 -1.266499 -0.013716
v 0.024853 -1.266499 -0.013716
v 0.023623 -1.240090 -0.022297
v -0.000000 -1.258652 -0.068913
v -0.024851 -1.282635 -0.035910
v 0.024851 -1.282635 -0.035910
v 0.023620 -1.266302 -0.058380
v -0.000000 -1.308001 -0.085124
v -0.023705 -1.308275 -0.071998
v -0.024765 -1.309037 -0.044223
v 0.024765 -1.309037 -0.044223
v 0.023705 -1.308275 -0.071998
v -0.023620 -1.266302 -0.058380
v -0.085125 -1.240179 -0.000000
v -0.071998 -1.239905 -0.023705
v -0.044223 -1.239144 -0.024765
v -0.044223 -1.239144 0.024765
v -0.071998 -1.239905 0.023705
v 0.085124 -1.240179 -0.000000
v 0.071998 -1.239905 -0.023705
v 0.044223 -1.239144 -0.024765
v 0.044223 -1.239144 0.024765
v 0.071998 -1.239905 0.023705
v 0.068913 -1.289529 -0.000000
v 0.058380 -1.281878 -0.023620
v 0.035910 -1.265545 -0.024851
v 0.035910 -1.265545 0.024851
v 0.058380 -1.281878 0.023620
v 0.026321 -1.320476 -0.000000
v 0.022297 -1.308091 -0.023623
v 0.013716 -1.281681 -0.024854
v 0.013716 -1.281681 0.024854
v 0.022297 -1.308090 0.023623
v -0.026321 -1.320476 -0.000000
v -0.022297 -1.308090 -0.023623
v -0.013716 -1.281681 -0.024854
v -0.013716 -1.281681 0.024854
v -0.022297 -1.308090 0.023623
v -0.068913 -1.289529 -0.000000
v -0.058380 -1.281878 -0.023620
v -0.035910 -1.265545 -0.024851
v -0.035910 -1.265545 0.024851
v -0.058380 -1.281878 0.023620
v -0.085124 -1.169066 -0.000000
v -0.071998 -1.169340 -0.023705
v -0.044223 -1.170102 -0.024765
v -0.044223 -1.170102 0.024765
v -0.071998 -1.169340 0.023705
v -0.068913 -1.119717 -0.000000
v -0.058380 -1.127367 -0.023620
v -0.035910 -1.143700 -0.024851
v -0.035910 -1.143700 0.024851
v -0.058380 -1.127367 0.023620
v -0.026321 -1.088770 -0.000000
v -0.022297 -1.101155 -0.023623
v -0.013716 -1.127564 -0.024854
v -0.013716 -1.127564 0.024854
v -0.022297 -1.101155 0.023623
v 0.026321 -1.088770 -0.000000
v 0.022297 -1.101155 -0.023623
v 0.013716 -1.127564 -0.024854
v 0.013716 -1.127564 0.024854
v 0.022297 -1.101155 0.023623
v 0.068913 -1.119717 -0.000000
v 0.035910 -1.143700 -0.024851
v 0.035910 -1.143700 0.024851
v 0.058380 -1.127368 0.023620
v 0.085124 -1.169067 -0.000000
v 0.071998 -1.169340 -0.023705
v 0.044223 -1.170102 -0.024765
v 0.044223 -1.170102 0.024765
v 0.071998 -1.169340 0.023705
v 0.058380 -1.127368 -0.023620
v -0.000000 -1.100799 0.085124
v -0.023705 -1.100525 0.071998
v -0.024765 -1.099764 0.044223
v 0.024765 -1.099764 0.044223
v 0.023705 -1.100525 0.071998
v -0.000000 -1.100799 -0.085124
v -0.023705 -1.100525 -0.071998
v -0.024765 -1.099764 -0.044223
v 0.024765 -1.099764 -0.044223
v 0.023705 -1.100525 -0.071998
v -0.000000 -1.150149 -0.068913
v -0.023620 -1.142498 -0.058380
v -0.024851 -1.126166 -0.035910
v 0.024851 -1.126166 -0.035910
v 0.023620 -1.142498 -0.058380
v -0.000000 -1.181096 -0.026321
v -0.023623 -1.168710 -0.022297
v -0.024854 -1.142302 -0.013716
v 0.024854 -1.142302 -0.013716
v 0.023623 -1.168711 -0.022297
v -0.000000 -1.181096 0.026321
v -0.023623 -1.168710 0.022297
v -0.024854 -1.142302 0.013716
v 0.024854 -1.142302 0.013716
v 0.023623 -1.168711 0.022297
v -0.000000 -1.150149 0.068913
v -0.023620 -1.142498 0.058380
v -0.024851 -1.126166 0.035910
v 0.024851 -1.126166 0.035910
v 0.023620 -1.142498 0.058380
v 0.000000 -1.029687 0.085124
v -0.023705 -1.029961 0.071998
v -0.024765 -1.030722 0.044223
v 0.024765 -1.030722 0.044223
v 0.023705 -1.029961 0.071998
v 0.000000 -0.980337 0.068913
v -0.023620 -0.987988 0.058380
v -0.024851 -1.004320 0.035910
v 0.024851 -1.004320 0.035910
v 0.023620 -0.987988 0.058380
v 0.000000 -0.949390 0.026321
v -0.023623 -0.961775 0.022297
v -0.024854 -0.988184 0.013716
v 0.024854 -0.988184 0.013716
v 0.023623 -0.961775 0.022297
v 0.000000 -0.949390 -0.026321
v -0.023623 -0.961775 -0.022297
v -0.024854 -0.988184 -0.013716
v 0.024854 -0.988184 -0.013716
v 0.023623 -0.961775 -0.022297
v 0.000000 -0.980337 -0.068913
v -0.024851 -1.004320 -0.035910
v 0.024851 -1.004320 -0.035910
v 0.023620 -0.987988 -0.058380
v 0.000000 -1.029687 -0.085124
v -0.023705 -1.029961 -0.071998
v -0.024765 -1.030722 -0.044223
v 0.024765 -1.030722 -0.044223
v 0.023705 -1.029961 -0.071998
v -0.023620 -0.987988 -0.058380
v -0.085124 -0.961864 -0.000000
v -0.071998 -0.961590 -0.023705
v -0.044223 -0.960829 -0.024765
v -0.044223 -0.960829 0.024765
v -0.071998 -0.961590 0.023705
v 0.085124 -0.961865 -0.000000
v 0.071998 -0.961591 -0.023705
v 0.044223 -0.960829 -0.024765
v 0.044223 -0.960829 0.024765
v 0.071998 -0.961591 0.023705
v 0.068913 -1.011214 -0.000000
v 0.058380 -1.003564 -0.023620
v 0.035910 -0.987231 -0.024851
v 0.035910 -0.987231 0.024851
v 0.058380 -1.003564 0.023620
v 0.026321 -1.042161 -0.000000
v 0.022297 -1.029776 -0.023623
v 0.013716 -1.003367 -0.024854
v 0.013716 -1.003367 0.024854
v 0.022297 -1.029776 0.023623
v -0.026321 -1.042161 -0.000000
v -0.022297 -1.029776 -0.023623
v -0.013716 -1.003367 -0.024854
v -0.013716 -1.003367 0.024854
v -0.022297 -1.029776 0.023623
v -0.068913 -1.011214 -0.000000
v -0.058380 -1.003563 -0.023620
v -0.035910 -0.987231 -0.024851
v -0.035910 -0.987231 0.024851
v -0.058380 -1.003563 0.023620
v -0.085124 -0.890752 0.000000
v -0.071998 -0.891026 -0.023705
v -0.044223 -0.891787 -0.024765
v -0.044223 -0.891787 0.024765
v -0.071998 -0.891026 0.023705
v -0.068913 -0.841402 -0.000000
v -0.058380 -0.849053 -0.023620
v -0.035910 -0.865386 -0.024851
v -0.035910 -0.865386 0.024851
v -0.058380 -0.849053 0.023620
v -0.026321 -0.810455 -0.000000
v -0.022297 -0.822841 -0.023623
v -0.013716 -0.849250 -0.024854
v -0.013716 -0.849250 0.024854
v -0.022297 -0.822841 0.023623
v 0.026321 -0.810455 -0.000000
v 0.022297 -0.822841 -0.023623
v 0.013716 -0.849250 -0.024854
v 0.013716 -0.849250 0.024854
v 0.022297 -0.822841 0.023623
v 0.068913 -0.841402 -0.000000
v 0.035910 -0.865386 -0.024851
v 0.035910 -0.865386 0.024851
v 0.058380 -0.849053 0.023620
v 0.085125 -0.890752 -0.000000
v 0.071998 -0.891026 -0.023705
v 0.044223 -0.891787 -0.024765
v 0.044223 -0.891787 0.024765
v 0.071998 -0.891026 0.023705
v 0.058380 -0.849053 -0.023620
v 0.000000 -0.822485 0.085124
v -0.023705 -0.822211 0.071998
v -0.024765 -0.821449 0.044223
v 0.024765 -0.821449 0.044223
v 0.023705 -0.822211 0.071998
v 0.000000 -0.822485 -0.085124
v -0.023705 -0.822211 -0.071998
v -0.024765 -0.821449 -0.044223
v 0.024765 -0.821449 -0.044223
v 0.023705 -0.822211 -0.071998
v 0.000000 -0.871834 -0.068913
v -0.023620 -0.864184 -0.058380
v -0.024851 -0.847851 -0.035910
v 0.024851 -0.847851 -0.035910
v 0.023620 -0.864184 -0.058380
v 0.000000 -0.902782 -0.026321
v -0.023623 -0.890396 -0.022297
v -0.024853 -0.863987 -0.013716
v 0.024854 -0.863987 -0.013716
v 0.023623 -0.890396 -0.022297
v 0.000000 -0.902782 0.026321
v -0.023623 -0.890396 0.022297
v -0.024853 -0.863987 0.013716
v 0.024854 -0.863987 0.013716
v 0.023623 -0.890396 0.022297
v 0.000000 -0.871834 0.068913
v -0.023620 -0.864184 0.058380
v -0.024851 -0.847851 0.035910
v 0.024851 -0.847851 0.035910
v 0.023620 -0.864184 0.058380
v 0.000000 -0.751372 0.085124
v -0.023705 -0.751646 0.071998
v -0.024765 -0.752407 0.044223
v 0.024765 -0.752407 0.044223
v 0.023705 -0.751646 0.071998
v 0.000000 -0.702022 0.068913
v -0.023620 -0.709673 0.058380
v -0.024851 -0.726006 0.035910
v 0.024851 -0.726006 0.035910
v 0.023620 -0.709673 0.058380
v 0.000000 -0.671075 0.026321
v -0.023623 -0.683461 0.022297
v -0.024853 -0.709870 0.013716
v 0.024854 -0.709870 0.013716
v 0.023623 -0.683461 0.022297
v 0.000000 -0.671075 -0.026321
v -0.023623 -0.683461 -0.022297
v -0.024853 -0.709870 -0.013716
v 0.024854 -0.709870 -0.013716
v 0.023623 -0.683461 -0.022297
v 0.000000 -0.702022 -0.068913
v -0.024851 -0.726006 -0.035910
v 0.024851 -0.726006 -0.035910
v 0.023620 -0.709673 -0.058380
v 0.000000 -0.751372 -0.085124
v -0.023705 -0.751646 -0.071998
v -0.024765 -0.752407 -0.044223
v 0.024765 -0.752407 -0.044223
v 0.023705 -0.751646 -0.071998
v -0.023620 -0.709673 -0.058380
v -0.085124 -0.683550 0.000000
v -0.071998 -0.683276 -0.023705
v -0.044223 -0.682515 -0.024765
v -0.044223 -0.682515 0.024765
v -0.071998 -0.683276 0.023705
v 0.085125 -0.683550 -0.000000
v 0.071998 -0.683276 -0.023705
v 0.044223 -0.682515 -0.024765
v 0.044223 -0.682515 0.024765
v 0.071998 -0.683276 0.023705
v 0.068913 -0.732900 -0.000000
v 0.058380 -0.725249 -0.023620
v 0.035911 -0.708916 -0.024851
v 0.035911 -0.708916 0.024851
v 0.058380 -0.725249 0.023620
v 0.026321 -0.763847 -0.000000
v 0.022297 -0.751461 -0.023623
v 0.013716 -0.725052 -0.024854
v 0.013716 -0.725052 0.024854
v 0.022297 -0.751461 0.023623
v -0.026321 -0.763847 0.000000
v -0.022297 -0.751461 -0.023623
v -0.013716 -0.725052 -0.024854
v -0.013716 -0.725052 0.024854
v -0.022297 -0.751461 0.023623
v -0.068913 -0.732900 0.000000
v -0.058380 -0.725249 -0.023620
v -0.035910 -0.708916 -0.024851
v -0.035910 -0.708916 0.024851
v -0.058380 -0.725249 0.023620
v -0.085124 -0.612437 0.000000
v -0.071998 -0.612711 -0.023705
v -0.044223 -0.613472 -0.024765
v -0.044223 -0.613472 0.024765
v -0.071998 -0.612711 0.023705
v -0.068913 -0.563088 0.000000
v -0.058380 -0.570738 -0.023620
v -0.035910 -0.587071 -0.024851
v -0.035910 -0.587071 0.024851
v -0.058380 -0.570738 0.023620
v -0.026321 -0.532140 -0.000000
v -0.022297 -0.544526 -0.023623
v -0.013716 -0.570935 -0.024854
v -0.013716 -0.570935 0.024854
v -0.022297 -0.544526 0.023623
v 0.026321 -0.532140 -0.000000
v 0.022297 -0.544526 -0.023623
v 0.013716 -0.570935 -0.024854
v 0.013716 -0.570935 0.024854
v 0.022297 -0.544526 0.023623
v 0.068913 -0.563088 -0.000000
v 0.035911 -0.587071 -0.024851
v 0.035911 -0.587071 0.024851
v 0.058380 -0.570738 0.023620
v 0.085125 -0.612437 -0.000000
v 0.071998 -0.612711 -0.023705
v 0.044223 -0.613473 -0.024765
v 0.044223 -0.613473 0.024765
v 0.071998 -0.612711 0.023705
v 0.058380 -0.570738 -0.023620
v 0.000000 -0.544170 0.085124
v -0.023705 -0.543896 0.071998
v -0.024765 -0.543135 0.044223
v 0.024765 -0.543135 0.044223
v 0.023705 -0.543896 0.071998
v 0.000000 -0.544170 -0.085124
v -0.023705 -0.543896 -0.071998
v -0.024765 -0.543135 -0.044223
v 0.024765 -0.543135 -0.044223
v 0.023705 -0.543896 -0.071998
v 0.000000 -0.593520 -0.068913
v -0.023620 -0.585869 -0.058380
v -0.024851 -0.569536 -0.035910
v 0.024851 -0.569536 -0.035910
v 0.023620 -0.585869 -0.058380
v 0.000000 -0.624467 -0.026321
v -0.023623 -0.612081 -0.022297
v -0.024853 -0.585672 -0.013716
v 0.024854 -0.585672 -0.013716
v 0.023623 -0.612081 -0.022297
v 0.000000 -0.624467 0.026321
v -0.023623 -0.612081 0.022297
v -0.024853 -0.585672 0.013716
v 0.024854 -0.585672 0.013716
v 0.023623 -0.612081 0.022297
v 0.000000 -0.593520 0.068913
v -0.023619 -0.585869 0.058380
v -0.024851 -0.569536 0.035910
v 0.024852 -0.569536 0.035910
v 0.023620 -0.585869 0.058380
v 0.000000 -0.473057 0.085124
v -0.023704 -0.473331 0.071998
v -0.024765 -0.474093 0.044223
v 0.024765 -0.474093 0.044223
v 0.023705 -0.473331 0.071998
v 0.000000 -0.423708 0.068913
v -0.023619 -0.431358 0.058380
v -0.024851 -0.447691 0.035910
v 0.024852 -0.447691 0.035910
v 0.023620 -0.431358 0.058380
v 0.000000 -0.392761 0.026321
v -0.023623 -0.405146 0.022297
v -0.024853 -0.431555 0.013716
v 0.024854 -0.431555 0.013716
v 0.023624 -0.405146 0.022297
v 0.000000 -0.392761 -0.026321
v -0.023623 -0.405146 -0.022297
v -0.024853 -0.431555 -0.013716
v 0.024854 -0.431555 -0.013716
v 0.023624 -0.405146 -0.022297
v 0.000000 -0.423708 -0.068913
v -0.024851 -0.447691 -0.035910
v 0.024852 -0.447691 -0.035910
v 0.023620 -0.431359 -0.058380
v 0.000000 -0.473057 -0.085124
v -0.023705 -0.473331 -0.071998
v -0.024765 -0.474093 -0.044223
v 0.024765 -0.474093 -0.044223
v 0.023705 -0.473331 -0.071998
v -0.023619 -0.431359 -0.058380
v -0.085124 -0.405235 0.000000
v -0.071998 -0.404961 -0.023705
v -0.044223 -0.404200 -0.024765
v -0.044223 -0.404200 0.024765
v -0.071998 -0.404961 0.023705
v 0.085125 -0.405235 -0.000000
v 0.071999 -0.404961 -0.023705
v 0.044223 -0.404200 -0.024765
v 0.044223 -0.404200 0.024765
v 0.071999 -0.404961 0.023705
v 0.068913 -0.454585 -0.000000
v 0.058381 -0.446934 -0.023620
v 0.035911 -0.430602 -0.024851
v 0.035911 -0.430602 0.024851
v 0.058381 -0.446934 0.023620
v 0.026321 -0.485532 -0.000000
v 0.022297 -0.473147 -0.023623
v 0.013716 -0.446737 -0.024854
v 0.013716 -0.446737 0.024854
v 0.022297 -0.473147 0.023623
v -0.026321 -0.485532 0.000000
v -0.022297 -0.473147 -0.023623
v -0.013716 -0.446737 -0.024854
v -0.013716 -0.446737 0.024854
v -0.022297 -0.473147 0.023623
v -0.068913 -0.454585 0.000000
v -0.058380 -0.446934 -0.023620
v -0.035910 -0.430602 -0.024851
v -0.035910 -0.430602 0.024851
v -0.058380 -0.446934 0.023620
v -0.085124 -0.334122 0.000000
v -0.071998 -0.334397 -0.023705
v -0.044223 -0.335158 -0.024765
v -0.044223 -0.335158 0.024765
v -0.071998 -0.334397 0.023705
v -0.068913 -0.284773 0.000000
v -0.058380 -0.292424 -0.023620
v -0.035910 -0.308756 -0.024851
v -0.035910 -0.308756 0.024851
v -0.058380 -0.292424 0.023620
v -0.026321 -0.253826 -0.000000
v -0.022296 -0.266211 -0.023623
v -0.013716 -0.292620 -0.024854
v -0.013716 -0.292620 0.024854
v -0.022296 -0.266211 0.023623
v 0.026322 -0.253826 -0.000000
v 0.022297 -0.266211 -0.023623
v 0.013716 -0.292620 -0.024854
v 0.013716 -0.292620 0.024854
v 0.022297 -0.266211 0.023623
v 0.068914 -0.284773 -0.000000
v 0.035911 -0.308756 -0.024851
v 0.035911 -0.308756 0.024851
v 0.058381 -0.292424 0.023620
v 0.085125 -0.334123 -0.000000
v 0.071999 -0.334397 -0.023705
v 0.044223 -0.335158 -0.024765
v 0.044223 -0.335158 0.024765
v 0.071999 -0.334397 0.023705
v 0.058381 -0.292424 -0.023620
v 0.000000 -0.265855 0.085124
v -0.023704 -0.265581 0.071998
v -0.024765 -0.264820 0.044223
v 0.024765 -0.264820 0.044223
v 0.023705 -0.265581 0.071998
v 0.000000 -0.265855 -0.085124
v -0.023704 -0.265581 -0.071998
v -0.024765 -0.264820 -0.044223
v 0.024765 -0.264820 -0.044223
v 0.023705 -0.265581 -0.071998
v 0.000000 -0.315205 -0.068913
v -0.023619 -0.307554 -0.058380
v -0.024851 -0.291222 -0.035910
v 0.024852 -0.291222 -0.035910
v 0.023620 -0.307554 -0.058380
v 0.000000 -0.346152 -0.026321
v -0.023623 -0.333767 -0.022297
v -0.024853 -0.307358 -0.013716
v 0.024854 -0.307358 -0.013716
v 0.023624 -0.333767 -0.022297
v 0.000000 -0.346152 0.026321
v -0.023623 -0.333767 0.022297
v -0.024853 -0.307358 0.013716
v 0.024854 -0.307358 0.013716
v 0.023624 -0.333767 0.022297
v 0.000000 -0.315205 0.068913
v -0.023619 -0.307554 0.058380
v -0.024851 -0.291222 0.035910
v 0.024852 -0.291222 0.035910
v 0.023620 -0.307554 0.058380
v 0.000000 -0.194743 0.085124
v -0.023704 -0.195017 0.071998
v -0.024765 -0.195778 0.044223
v 0.024766 -0.195778 0.044223
v 0.023705 -0.195017 0.071998
v 0.000000 -0.145393 0.068913
v -0.023619 -0.153044 0.058380
v -0.024851 -0.169376 0.035910
v 0.024852 -0.169376 0.035910
v 0.023620 -0.153044 0.058380
v 0.000000 -0.114446 0.026321
v -0.023623 -0.126832 0.022297
v -0.024853 -0.153241 0.013716
v 0.024854 -0.153241 0.013716
v 0.023624 -0.126832 0.022297
v 0.000000 -0.114446 -0.026321
v -0.023623 -0.126832 -0.022297
v -0.024853 -0.153241 -0.013716
v 0.024854 -0.153241 -0.013716
v 0.023624 -0.126832 -0.022297
v 0.000000 -0.145393 -0.068913
v -0.024851 -0.169376 -0.035910
v 0.024852 -0.169376 -0.035910
v 0.023620 -0.153044 -0.058380
v 0.000000 -0.194743 -0.085124
v -0.023704 -0.195017 -0.071998
v -0.024765 -0.195778 -0.044223
v 0.024766 -0.195778 -0.044223
v 0.023705 -0.195017 -0.071998
v -0.023619 -0.153044 -0.058380
vt 0.767171 0.625000
vt 0.762134 0.625000
vt 0.762134 0.625000
vt 0.767171 0.625000
vt 0.801605 0.591469
vt 0.783977 0.604277
vt 0.783977 0.604277
vt 0.801605 0.591469
vt 0.767171 0.625000
vt 0.767171 0.625000
vt 0.841023 0.604277
vt 0.823395 0.591469
vt 0.823395 0.591469
vt 0.841023 0.604277
vt 0.862866 0.625000
vt 0.857830 0.625000
vt 0.857830 0.625000
vt 0.862866 0.625000
vt 0.847756 0.625000
vt 0.857830 0.625000
vt 0.857830 0.625000
vt 0.847756 0.625000
vt 0.847756 0.625000
vt 0.847756 0.625000
vt 0.777244 0.625000
vt 0.777244 0.625000
vt 0.777244 0.625000
vt 0.777244 0.625000
vt 0.771753 0.595396
vt 0.775828 0.598356
vt 0.783977 0.645723
vt 0.783977 0.645723
vt 0.801605 0.658531
vt 0.801605 0.658531
vt 0.775828 0.598356
vt 0.796936 0.577099
vt 0.798493 0.581889
vt 0.798493 0.581889
vt 0.828064 0.577099
vt 0.826508 0.581889
vt 0.826508 0.581889
vt 0.853247 0.595396
vt 0.849172 0.598356
vt 0.849172 0.598356
vt 0.853247 0.654604
vt 0.849172 0.651644
vt 0.841023 0.645723
vt 0.841023 0.645723
vt 0.849172 0.651644
vt 0.828064 0.672901
vt 0.826508 0.668111
vt 0.823395 0.658531
vt 0.823395 0.658531
vt 0.826508 0.668111
vt 0.796936 0.672901
vt 0.798493 0.668111
vt 0.847756 0.625000
vt 0.847756 0.625000
vt 0.841023 0.604277
vt 0.841023 0.604277
vt 0.798493 0.668111
vt 0.771753 0.654604
vt 0.775828 0.651644
vt 0.775828 0.651644
vt 0.767171 0.625000
vt 0.762134 0.625000
vt 0.762134 0.625000
vt 0.767171 0.625000
vt 0.801605 0.591469
vt 0.783977 0.604277
vt 0.783977 0.604277
vt 0.801605 0.591469
vt 0.767171 0.625000
vt 0.767171 0.625000
vt 0.823395 0.591469
vt 0.823395 0.591469
vt 0.862866 0.625000
vt 0.857830 0.625000
vt 0.857830 0.625000
vt 0.862866 0.625000
vt 0.857830 0.625000
vt 0.857830 0.625000
vt 0.847756 0.625000
vt 0.847756 0.625000
vt 0.777244 0.625000
vt 0.777244 0.625000
vt 0.777244 0.625000
vt 0.777244 0.625000
vt 0.771753 0.595396
vt 0.775828 0.598356
vt 0.783977 0.645723
vt 0.783977 0.645723
vt 0.801605 0.658531
vt 0.801605 0.658531
vt 0.775828 0.598356
vt 0.796936 0.577099
vt 0.798493 0.581889
vt 0.798493 0.581889
vt 0.828064 0.577099
vt 0.826508 0.581889
vt 0.826508 0.581889
vt 0.853247 0.595396
vt 0.849172 0.598356
vt 0.849172 0.598356
vt 0.853247 0.654604
vt 0.849172 0.651644
vt 0.841023 0.645723
vt 0.841023 0.645723
vt 0.849172 0.651644
vt 0.828064 0.672901
vt 0.826508 0.668111
vt 0.823395 0.658531
vt 0.823395 0.658531
vt 0.826508 0.668111
vt 0.796936 0.672901
vt 0.798493 0.668111
vt 0.798493 0.668111
vt 0.771753 0.654604
vt 0.775828 0.651644
vt 0.775828 0.651644
vt 0.767171 0.625000
vt 0.762134 0.625000
vt 0.762134 0.625000
vt 0.767171 0.625000
vt 0.801605 0.591469
vt 0.783977 0.604277
vt 0.783977 0.604277
vt 0.801605 0.591469
vt 0.767171 0.625000
vt 0.767171 0.625000
vt 0.841023 0.604277
vt 0.823395 0.591469
vt 0.823395 0.591469
vt 0.841023 0.604277
vt 0.862866 0.625000
vt 0.857830 0.625000
vt 0.857830 0.625000
vt 0.862866 0.625000
vt 0.847756 0.625000
vt 0.857830 0.625000
vt 0.857830 0.625000
vt 0.847756 0.625000
vt 0.847756 0.625000
vt 0.847756 0.625000
vt 0.777244 0.625000
vt 0.777244 0.625000
vt 0.777244 0.625000
vt 0.777244 0.625000
vt 0.771753 0.595396
vt 0.775828 0.598356
vt 0.783977 0.645723
vt 0.783977 0.645723
vt 0.801605 0.658531
vt 0.801605 0.658531
vt 0.775828 0.598356
vt 0.796936 0.577099
vt 0.798493 0.581889
vt 0.798493 0.581889
vt 0.828064 0.577099
vt 0.826508 0.581889
vt 0.826508 0.581889
vt 0.853247 0.595396
vt 0.849172 0.598356
vt 0.849172 0.598356
vt 0.853247 0.654604
vt 0.849172 0.651644
vt 0.841023 0.645723
vt 0.841023 0.645723
vt 0.849172 0.651644
vt 0.828064 0.672901
vt 0.826508 0.668111
vt 0.823395 0.658531
vt 0.823395 0.658531
vt 0.826508 0.668111
vt 0.796936 0.672901
vt 0.798493 0.668111
vt 0.847756 0.625000
vt 0.847756 0.625000
vt 0.841023 0.604277
vt 0.841023 0.604277
vt 0.798493 0.668111
vt 0.771753 0.654604
vt 0.775828 0.651644
vt 0.775828 0.651644
vt 0.767171 0.625000
vt 0.762134 0.625000
vt 0.762134 0.625000
vt 0.767171 0.625000
vt 0.801605 0.591469
vt 0.783977 0.604277
vt 0.783977 0.604277
vt 0.801605 0.591469
vt 0.767171 0.625000
vt 0.767171 0.625000
vt 0.823395 0.591469
vt 0.823395 0.591469
vt 0.862866 0.625000
vt 0.857830 0.625000
vt 0.857830 0.625000
vt 0.862866 0.625000
vt 0.857830 0.625000
vt 0.857830 0.625000
vt 0.847756 0.625000
vt 0.847756 0.625000
vt 0.777244 0.625000
vt 0.777244 0.625000
vt 0.777244 0.625000
vt 0.777244 0.625000
vt 0.771753 0.595396
vt 0.775828 0.598356
vt 0.783977 0.645723
vt 0.783977 0.645723
vt 0.801605 0.658531
vt 0.801605 0.658531
vt 0.775828 0.598356
vt 0.796936 0.577099
vt 0.798493 0.581889
vt 0.798493 0.581889
vt 0.828064 0.577099
vt 0.826508 0.581889
vt 0.826508 0.581889
vt 0.853247 0.595396
vt 0.849172 0.598356
vt 0.849172 0.598356
vt 0.853247 0.654604
vt 0.849172 0.651644
vt 0.841023 0.645723
vt 0.841023 0.645723
vt 0.849172 0.651644
vt 0.828064 0.672901
vt 0.826508 0.668111
vt 0.823395 0.658531
vt 0.823395 0.658531
vt 0.826508 0.668111
vt 0.796936 0.672901
vt 0.798493 0.668111
vt 0.798493 0.668111
vt 0.771753 0.654604
vt 0.775828 0.651644
vt 0.775828 0.651644
vt 0.767171 0.625000
vt 0.762134 0.625000
vt 0.762134 0.625000
vt 0.767171 0.625000
vt 0.801605 0.591469
vt 0.783977 0.604277
vt 0.783977 0.604277
vt 0.801605 0.591469
vt 0.767171 0.625000
vt 0.767171 0.625000
vt 0.841023 0.604277
vt 0.823395 0.591469
vt 0.823395 0.591469
vt 0.841023 0.604277
vt 0.862866 0.625000
vt 0.857830 0.625000
vt 0.857830 0.625000
vt 0.862866 0.625000
vt 0.847756 0.625000
vt 0.857830 0.625000
vt 0.857830 0.625000
vt 0.847756 0.625000
vt 0.847756 0.625000
vt 0.847756 0.625000
vt 0.777244 0.625000
vt 0.777244 0.625000
vt 0.777244 0.625000
vt 0.777244 0.625000
vt 0.771753 0.595396
vt 0.775828 0.598356
vt 0.783977 0.645723
vt 0.783977 0.645723
vt 0.801605 0.658531
vt 0.801605 0.658531
vt 0.775828 0.598356
vt 0.796936 0.577099
vt 0.798493 0.581889
vt 0.798493 0.581889
vt 0.828064 0.577099
vt 0.826508 0.581889
vt 0.826508 0.581889
vt 0.853247 0.595396
vt 0.849172 0.598356
vt 0.849172 0.598356
vt 0.853247 0.654604
vt 0.849172 0.651644
vt 0.841023 0.645723
vt 0.841023 0.645723
vt 0.849172 0.651644
vt 0.828064 0.672901
vt 0.826508 0.668111
vt 0.823395 0.658531
vt 0.823395 0.658531
vt 0.826508 0.668111
vt 0.796936 0.672901
vt 0.798493 0.668111
vt 0.847756 0.625000
vt 0.847756 0.625000
vt 0.841023 0.604277
vt 0.841023 0.604277
vt 0.798493 0.668111
vt 0.771753 0.654604
vt 0.775828 0.651644
vt 0.775828 0.651644
vt 0.767171 0.625000
vt 0.762134 0.625000
vt 0.762134 0.625000
vt 0.767171 0.625000
vt 0.801605 0.591469
vt 0.783977 0.604277
vt 0.783977 0.604277
vt 0.801605 0.591469
vt 0.767171 0.625000
vt 0.767171 0.625000
vt 0.823395 0.591469
vt 0.823395 0.591469
vt 0.862866 0.625000
vt 0.857830 0.625000
vt 0.857830 0.625000
vt 0.862866 0.625000
vt 0.857830 0.625000
vt 0.857830 0.625000
vt 0.847756 0.625000
vt 0.847756 0.625000
vt 0.777244 0.625000
vt 0.777244 0.625000
vt 0.777244 0.625000
vt 0.777244 0.625000
vt 0.771753 0.595396
vt 0.775828 0.598356
vt 0.783977 0.645723
vt 0.783977 0.645723
vt 0.801605 0.658531
vt 0.801605 0.658531
vt 0.775828 0.598356
vt 0.796936 0.577099
vt 0.798493 0.581889
vt 0.798493 0.581889
vt 0.828064 0.577099
vt 0.826508 0.581889
vt 0.826508 0.581889
vt 0.853247 0.595396
vt 0.849172 0.598356
vt 0.849172 0.598356
vt 0.853247 0.654604
vt 0.849172 0.651644
vt 0.841023 0.645723
vt 0.841023 0.645723
vt 0.849172 0.651644
vt 0.828064 0.672901
vt 0.826508 0.668111
vt 0.823395 0.658531
vt 0.823395 0.658531
vt 0.826508 0.668111
vt 0.796936 0.672901
vt 0.798493 0.668111
vt 0.798493 0.668111
vt 0.771753 0.654604
vt 0.775828 0.651644
vt 0.775828 0.651644
vt 0.767171 0.625000
vt 0.762134 0.625000
vt 0.762134 0.625000
vt 0.767171 0.625000
vt 0.801605 0.591469
vt 0.783977 0.604277
vt 0.783977 0.604277
vt 0.801605 0.591469
vt 0.767171 0.625000
vt 0.767171 0.625000
vt 0.841023 0.604277
vt 0.823395 0.591469
vt 0.823395 0.591469
vt 0.841023 0.604277
vt 0.862866 0.625000
vt 0.857830 0.625000
vt 0.857830 0.625000
vt 0.862866 0.625000
vt 0.847756 0.625000
vt 0.857830 0.625000
vt 0.857830 0.625000
vt 0.847756 0.625000
vt 0.847756 0.625000
vt 0.847756 0.625000
vt 0.777244 0.625000
vt 0.777244 0.625000
vt 0.777244 0.625000
vt 0.777244 0.625000
vt 0.771753 0.595396
vt 0.775828 0.598356
vt 0.783977 0.645723
vt 0.783977 0.645723
vt 0.801605 0.658531
vt 0.801605 0.658531
vt 0.775828 0.598356
vt 0.796936 0.577099
vt 0.798493 0.581889
vt 0.798493 0.581889
vt 0.828064 0.577099
vt 0.826508 0.581889
vt 0.826508 0.581889
vt 0.853247 0.595396
vt 0.849172 0.598356
vt 0.849172 0.598356
vt 0.853247 0.654604
vt 0.849172 0.651644
vt 0.841023 0.645723
vt 0.841023 0.645723
vt 0.849172 0.651644
vt 0.828064 0.672901
vt 0.826508 0.668111
vt 0.823395 0.658531
vt 0.823395 0.658531
vt 0.826508 0.668111
vt 0.796936 0.672901
vt 0.798493 0.668111
vt 0.847756 0.625000
vt 0.847756 0.625000
vt 0.841023 0.604277
vt 0.841023 0.604277
vt 0.798493 0.668111
vt 0.771753 0.654604
vt 0.775828 0.651644
vt 0.775828 0.651644
vt 0.767171 0.625000
vt 0.762134 0.625000
vt 0.762134 0.625000
vt 0.767171 0.625000
vt 0.801605 0.591469
vt 0.783977 0.604277
vt 0.783977 0.604277
vt 0.801605 0.591469
vt 0.767171 0.625000
vt 0.767171 0.625000
vt 0.823395 0.591469
vt 0.823395 0.591469
vt 0.862866 0.625000
vt 0.857830 0.625000
vt 0.857830 0.625000
vt 0.862866 0.625000
vt 0.857830 0.625000
vt 0.857830 0.625000
vt 0.847756 0.625000
vt 0.847756 0.625000
vt 0.777244 0.625000
vt 0.777244 0.625000
vt 0.777244 0.625000
vt 0.777244 0.625000
vt 0.771753 0.595396
vt 0.775828 0.598356
vt 0.783977 0.645723
vt 0.783977 0.645723
vt 0.801605 0.658531
vt 0.801605 0.658531
vt 0.775828 0.598356
vt 0.796936 0.577099
vt 0.798493 0.581889
vt 0.798493 0.581889
vt 0.828064 0.577099
vt 0.826508 0.581889
vt 0.826508 0.581889
vt 0.853247 0.595396
vt 0.849172 0.598356
vt 0.849172 0.598356
vt 0.853247 0.654604
vt 0.849172 0.651644
vt 0.841023 0.645723
vt 0.841023 0.645723
vt 0.849172 0.651644
vt 0.828064 0.672901
vt 0.826508 0.668111
vt 0.823395 0.658531
vt 0.823395 0.658531
vt 0.826508 0.668111
vt 0.796936 0.672901
vt 0.798493 0.668111
vt 0.798493 0.668111
vt 0.771753 0.654604
vt 0.775828 0.651644
vt 0.775828 0.651644
vt 0.767171 0.625000
vt 0.762134 0.625000
vt 0.762134 0.625000
vt 0.767171 0.625000
vt 0.801605 0.591469
vt 0.783977 0.604277
vt 0.783977 0.604277
vt 0.801605 0.591469
vt 0.767171 0.625000
vt 0.767171 0.625000
vt 0.841023 0.604277
vt 0.823395 0.591469
vt 0.823395 0.591469
vt 0.841023 0.604277
vt 0.862866 0.625000
vt 0.857830 0.625000
vt 0.857830 0.625000
vt 0.862866 0.625000
vt 0.847756 0.625000
vt 0.857830 0.625000
vt 0.857830 0.625000
vt 0.847756 0.625000
vt 0.847756 0.625000
vt 0.847756 0.625000
vt 0.777244 0.625000
vt 0.777244 0.625000
vt 0.777244 0.625000
vt 0.777244 0.625000
vt 0.771753 0.595396
vt 0.775828 0.598356
vt 0.783977 0.645723
vt 0.783977 0.645723
vt 0.801605 0.658531
vt 0.801605 0.658531
vt 0.775828 0.598356
vt 0.796936 0.577099
vt 0.798493 0.581889
vt 0.798493 0.581889
vt 0.828064 0.577099
vt 0.826508 0.581889
vt 0.826508 0.581889
vt 0.853247 0.595396
vt 0.849172 0.598356
vt 0.849172 0.598356
vt 0.853247 0.654604
vt 0.849172 0.651644
vt 0.841023 0.645723
vt 0.841023 0.645723
vt 0.849172 0.651644
vt 0.828064 0.672901
vt 0.826508 0.668111
vt 0.823395 0.658531
vt 0.823395 0.658531
vt 0.826508 0.668111
vt 0.796936 0.672901
vt 0.798493 0.668111
vt 0.847756 0.625000
vt 0.847756 0.625000
vt 0.841023 0.604277
vt 0.841023 0.604277
vt 0.798493 0.668111
vt 0.771753 0.654604
vt 0.775828 0.651644
vt 0.775828 0.651644
vt 0.767171 0.625000
vt 0.762134 0.625000
vt 0.762134 0.625000
vt 0.767171 0.625000
vt 0.801605 0.591469
vt 0.783977 0.604277
vt 0.783977 0.604277
vt 0.801605 0.591469
vt 0.767171 0.625000
vt 0.767171 0.625000
vt 0.823395 0.591469
vt 0.823395 0.591469
vt 0.862866 0.625000
vt 0.857830 0.625000
vt 0.857830 0.625000
vt 0.862866 0.625000
vt 0.857830 0.625000
vt 0.857830 0.625000
vt 0.847756 0.625000
vt 0.847756 0.625000
vt 0.777244 0.625000
vt 0.777244 0.625000
vt 0.777244 0.625000
vt 0.777244 0.625000
vt 0.771753 0.595396
vt 0.775828 0.598356
vt 0.783977 0.645723
vt 0.783977 0.645723
vt 0.801605 0.658531
vt 0.801605 0.658531
vt 0.775828 0.598356
vt 0.796936 0.577099
vt 0.798493 0.581889
vt 0.798493 0.581889
vt 0.828064 0.577099
vt 0.826508 0.581889
vt 0.826508 0.581889
vt 0.853247 0.595396
vt 0.849172 0.598356
vt 0.849172 0.598356
vt 0.853247 0.654604
vt 0.849172 0.651644
vt 0.841023 0.645723
vt 0.841023 0.645723
vt 0.849172 0.651644
vt 0.828064 0.672901
vt 0.826508 0.668111
vt 0.823395 0.658531
vt 0.823395 0.658531
vt 0.826508 0.668111
vt 0.796936 0.672901
vt 0.798493 0.668111
vt 0.798493 0.668111
vt 0.771753 0.654604
vt 0.775828 0.651644
vt 0.775828 0.651644
vt 0.767171 0.625000
vt 0.762134 0.625000
vt 0.762134 0.625000
vt 0.767171 0.625000
vt 0.801605 0.591469
vt 0.783977 0.604277
vt 0.783977 0.604277
vt 0.801605 0.591469
vt 0.767171 0.625000
vt 0.767171 0.625000
vt 0.841023 0.604277
vt 0.823395 0.591469
vt 0.823395 0.591469
vt 0.841023 0.604277
vt 0.862866 0.625000
vt 0.857830 0.625000
vt 0.857830 0.625000
vt 0.862866 0.625000
vt 0.847756 0.625000
vt 0.857830 0.625000
vt 0.857830 0.625000
vt 0.847756 0.625000
vt 0.847756 0.625000
vt 0.847756 0.625000
vt 0.777244 0.625000
vt 0.777244 0.625000
vt 0.777244 0.625000
vt 0.777244 0.625000
vt 0.771753 0.595396
vt 0.775828 0.598356
vt 0.783977 0.645723
vt 0.783977 0.645723
vt 0.801605 0.658531
vt 0.801605 0.658531
vt 0.775828 0.598356
vt 0.796936 0.577099
vt 0.798493 0.581889
vt 0.798493 0.581889
vt 0.828064 0.577099
vt 0.826508 0.581889
vt 0.826508 0.581889
vt 0.853247 0.595396
vt 0.849172 0.598356
vt 0.849172 0.598356
vt 0.853247 0.654604
vt 0.849172 0.651644
vt 0.841023 0.645723
vt 0.841023 0.645723
vt 0.849172 0.651644
vt 0.828064 0.672901
vt 0.826508 0.668111
vt 0.823395 0.658531
vt 0.823395 0.658531
vt 0.826508 0.668111
vt 0.796936 0.672901
vt 0.798493 0.668111
vt 0.847756 0.625000
vt 0.847756 0.625000
vt 0.841023 0.604277
vt 0.841023 0.604277
vt 0.798493 0.668111
vt 0.771753 0.654604
vt 0.775828 0.651644
vt 0.775828 0.651644
vt 0.767171 0.625000
vt 0.762134 0.625000
vt 0.762134 0.625000
vt 0.767171 0.625000
vt 0.801605 0.591469
vt 0.783977 0.604277
vt 0.783977 0.604277
vt 0.801605 0.591469
vt 0.767171 0.625000
vt 0.767171 0.625000
vt 0.823395 0.591469
vt 0.823395 0.591469
vt 0.862866 0.625000
vt 0.857830 0.625000
vt 0.857830 0.625000
vt 0.862866 0.625000
vt 0.857830 0.625000
vt 0.857830 0.625000
vt 0.847756 0.625000
vt 0.847756 0.625000
vt 0.777244 0.625000
vt 0.777244 0.625000
vt 0.777244 0.625000
vt 0.777244 0.625000
vt 0.771753 0.595396
vt 0.775828 0.598356
vt 0.783977 0.645723
vt 0.783977 0.645723
vt 0.801605 0.658531
vt 0.801605 0.658531
vt 0.775828 0.598356
vt 0.796936 0.577099
vt 0.798493 0.581889
vt 0.798493 0.581889
vt 0.828064 0.577099
vt 0.826508 0.581889
vt 0.826508 0.581889
vt 0.853247 0.595396
vt 0.849172 0.598356
vt 0.849172 0.598356
vt 0.853247 0.654604
vt 0.849172 0.651644
vt 0.841023 0.645723
vt 0.841023 0.645723
vt 0.849172 0.651644
vt 0.828064 0.672901
vt 0.826508 0.668111
vt 0.823395 0.658531
vt 0.823395 0.658531
vt 0.826508 0.668111
vt 0.796936 0.672901
vt 0.798493 0.668111
vt 0.798493 0.668111
vt 0.771753 0.654604
vt 0.775828 0.651644
vt 0.775828 0.651644
vn 0.8655 -0.1443 0.4797
vn 0.8669 -0.1327 0.4804
vn 0.8669 0.1327 0.4804
vn 0.8655 0.1443 0.4797
vn -0.3092 0.9510 0.0000
vn -0.8116 0.5842 0.0000
vn 0.8669 -0.1327 -0.4804
vn 0.8655 -0.1443 -0.4797
vn 0.8655 0.1443 -0.4797
vn 0.8669 0.1327 -0.4804
vn 0.8116 0.5842 0.0000
vn 0.3092 0.9510 0.0000
vn -0.8669 -0.1327 0.4804
vn -0.8655 -0.1443 0.4797
vn -0.8655 0.1443 0.4797
vn -0.8669 0.1327 0.4804
vn -0.0397 -0.0071 -0.9992
vn -0.0395 -0.0060 -0.9992
vn -0.0395 0.0060 -0.9992
vn -0.0397 0.0071 -0.9992
vn -0.0395 -0.0060 0.9992
vn -0.0397 -0.0071 0.9992
vn -0.0397 0.0071 0.9992
vn -0.0395 0.0060 0.9992
vn 0.0397 -0.0071 0.9992
vn 0.0395 -0.0060 0.9992
vn 0.0395 0.0060 0.9992
vn 0.0397 0.0071 0.9992
vn 0.0395 -0.0060 -0.9992
vn 0.0397 -0.0071 -0.9992
vn 0.0397 0.0071 -0.9992
vn 0.0395 0.0060 -0.9992
vn -0.8655 -0.1443 -0.4797
vn -0.8669 -0.1327 -0.4804
vn -0.8669 0.1327 -0.4804
vn -0.8655 0.1443 -0.4797
vn 0.7076 -0.5152 -0.4837
vn 0.0343 -0.0254 -0.9991
vn -0.8116 -0.5842 0.0000
vn -0.3092 -0.9510 0.0000
vn 0.0343 -0.0254 0.9991
vn 0.7076 -0.5152 0.4837
vn 0.2706 -0.8329 -0.4828
vn 0.0137 -0.0421 -0.9990
vn -0.9884 0.1521 0.0000
vn -0.9884 -0.1521 -0.0000
vn 0.0137 -0.0421 0.9990
vn 0.2706 -0.8329 0.4828
vn -0.2706 -0.8329 -0.4828
vn -0.0137 -0.0421 -0.9990
vn 0.9884 0.1521 -0.0000
vn 0.9884 -0.1521 0.0000
vn -0.0137 -0.0421 0.9990
vn -0.2706 -0.8329 0.4828
vn -0.7076 -0.5152 -0.4837
vn -0.0343 -0.0254 -0.9991
vn -0.0343 -0.0254 0.9991
vn -0.7076 -0.5152 0.4837
vn -0.7076 0.5152 -0.4837
vn -0.0343 0.0254 -0.9991
vn -0.0343 0.0254 0.9991
vn -0.7076 0.5152 0.4837
vn -0.2706 0.8329 -0.4828
vn -0.0137 0.0421 -0.9990
vn 0.3092 -0.9510 -0.0000
vn -0.0137 0.0421 0.9990
vn -0.2706 0.8329 0.4828
vn 0.2706 0.8329 -0.4828
vn 0.0137 0.0421 -0.9990
vn 0.0000 0.1521 -0.9884
vn 0.0000 0.5842 -0.8116
vn 0.0137 0.0421 0.9990
vn 0.2706 0.8329 0.4828
vn 0.7076 0.5152 -0.4837
vn 0.0343 0.0254 -0.9991
vn 0.8116 -0.5842 0.0000
vn 0.0343 0.0254 0.9991
vn 0.7076 0.5152 0.4837
vn 0.4797 -0.1443 -0.8655
vn 0.4804 -0.1327 -0.8669
vn 0.4804 0.1327 -0.8669
vn 0.4797 0.1443 -0.8655
vn 0.0000 0.9510 0.3092
vn 0.0000 0.5842 0.8116
vn -0.4804 -0.1327 -0.8669
vn -0.4797 -0.1443 -0.8655
vn -0.4797 0.1443 -0.8655
vn -0.4804 0.1327 -0.8669
vn -0.0000 0.9510 -0.3092
vn 0.4804 -0.1327 0.8669
vn 0.4797 -0.1443 0.8655
vn 0.4797 0.1443 0.8655
vn 0.4804 0.1327 0.8669
vn -0.9992 -0.0071 0.0397
vn -0.9992 -0.0060 0.0395
vn -0.9992 0.0060 0.0395
vn -0.9992 0.0071 0.0397
vn 0.9992 -0.0060 0.0395
vn 0.9992 -0.0071 0.0397
vn 0.9992 0.0071 0.0397
vn 0.9992 0.0060 0.0395
vn 0.9992 -0.0071 -0.0397
vn 0.9992 -0.0060 -0.0395
vn 0.9992 0.0060 -0.0395
vn 0.9992 0.0071 -0.0397
vn -0.9992 -0.0060 -0.0395
vn -0.9992 -0.0071 -0.0397
vn -0.9992 0.0071 -0.0397
vn -0.9992 0.0060 -0.0395
vn -0.4797 -0.1443 0.8655
vn -0.4804 -0.1327 0.8669
vn -0.4804 0.1327 0.8669
vn -0.4797 0.1443 0.8655
vn -0.4837 -0.5152 -0.7076
vn -0.9991 -0.0254 -0.0343
vn -0.0000 -0.5842 0.8116
vn -0.0000 -0.9510 0.3092
vn 0.9991 -0.0254 -0.0343
vn 0.4837 -0.5152 -0.7076
vn -0.4828 -0.8329 -0.2706
vn -0.9990 -0.0421 -0.0137
vn 0.0000 0.1521 0.9884
vn -0.0000 -0.1521 0.9884
vn 0.9990 -0.0421 -0.0137
vn 0.4828 -0.8329 -0.2706
vn -0.4828 -0.8329 0.2706
vn -0.9990 -0.0421 0.0137
vn -0.0000 -0.1521 -0.9884
vn 0.9990 -0.0421 0.0137
vn 0.4828 -0.8329 0.2706
vn -0.4837 -0.5152 0.7076
vn -0.9991 -0.0254 0.0343
vn 0.9991 -0.0254 0.0343
vn 0.4837 -0.5152 0.7076
vn -0.4837 0.5152 0.7076
vn -0.9991 0.0254 0.0343
vn 0.9991 0.0254 0.0343
vn 0.4837 0.5152 0.7076
vn -0.4828 0.8329 0.2706
vn -0.9990 0.0421 0.0137
vn -0.0000 -0.9510 -0.3092
vn 0.9990 0.0421 0.0137
vn 0.4828 0.8329 0.2706
vn -0.4828 0.8329 -0.2706
vn -0.9990 0.0421 -0.0137
vn 0.9990 0.0421 -0.0137
vn 0.4828 0.8329 -0.2706
vn -0.4837 0.5152 -0.7076
vn -0.9991 0.0254 -0.0343
vn -0.0000 -0.5842 -0.8116
vn 0.9991 0.0254 -0.0343
vn 0.4837 0.5152 -0.7076
usemtl KayKit_Texture_A
s 1
f 10/1/1 6/2/2 55/3/3 59/4/4
f 19/5/5 14/6/6 13/7/6 18/8/5
f 6/2/7 7/9/8 56/10/9 55/3/10
f 29/11/11 24/12/12 23/13/12 28/14/11
f 1/15/13 5/16/14 35/17/15 31/18/16
f 3/19/17 2/20/18 32/21/19 33/22/20
f 5/16/21 4/23/22 34/24/23 35/17/24
f 9/25/25 10/1/26 59/4/27 58/26/28
f 7/9/29 8/27/30 57/28/31 56/10/32
f 2/20/33 1/15/34 31/18/35 32/21/36
f 6/2/7 11/29/37 12/30/37 7/9/8
f 7/9/29 12/30/38 13/7/38 8/27/30
f 52/31/39 53/32/39 49/33/40 48/34/40
f 9/25/25 14/6/41 15/35/41 10/1/26
f 10/1/1 15/35/42 11/29/42 6/2/2
f 11/29/37 16/36/43 17/37/43 12/30/37
f 12/30/38 17/37/44 18/8/44 13/7/38
f 8/27/45 9/25/45 58/26/46 57/28/46
f 14/6/41 19/5/47 20/38/47 15/35/41
f 15/35/42 20/38/48 16/36/48 11/29/42
f 16/36/43 21/39/49 22/40/49 17/37/43
f 17/37/44 22/40/50 23/13/50 18/8/44
f 3/19/51 33/22/52 34/24/52 4/23/51
f 19/5/47 24/12/53 25/41/53 20/38/47
f 20/38/48 25/41/54 21/39/54 16/36/48
f 21/39/49 26/42/55 27/43/55 22/40/49
f 22/40/50 27/43/56 28/14/56 23/13/50
f 13/7/6 14/6/6 9/25/45 8/27/45
f 24/12/53 29/11/57 30/44/57 25/41/53
f 25/41/54 30/44/58 26/42/58 21/39/54
f 26/42/55 1/15/34 2/20/33 27/43/55
f 27/43/56 2/20/18 3/19/17 28/14/56
f 23/13/12 24/12/12 19/5/5 18/8/5
f 29/11/57 4/23/22 5/16/21 30/44/57
f 30/44/58 5/16/14 1/15/13 26/42/58
f 31/18/35 36/45/59 37/46/59 32/21/36
f 32/21/19 37/46/60 38/47/60 33/22/20
f 57/28/46 58/26/46 53/32/39 52/31/39
f 34/24/23 39/48/61 40/49/61 35/17/24
f 35/17/15 40/49/62 36/45/62 31/18/16
f 36/45/59 41/50/63 42/51/63 37/46/59
f 37/46/60 42/51/64 43/52/64 38/47/60
f 48/34/40 49/33/40 44/53/65 43/52/65
f 39/48/61 44/53/66 45/54/66 40/49/61
f 40/49/62 45/54/67 41/50/67 36/45/62
f 41/50/63 46/55/68 47/56/68 42/51/63
f 42/51/64 47/56/69 48/34/69 43/52/64
f 63/57/70 64/58/70 89/59/71 88/60/71
f 44/53/66 49/33/72 50/61/72 45/54/66
f 45/54/67 50/61/73 46/55/73 41/50/67
f 46/55/68 51/62/74 60/63/74 47/56/68
f 47/56/69 60/63/75 52/31/75 48/34/69
f 38/47/76 39/48/76 34/24/52 33/22/52
f 49/33/72 53/32/77 54/64/77 50/61/72
f 50/61/73 54/64/78 51/62/78 46/55/73
f 51/62/74 55/3/10 56/10/9 60/63/74
f 60/63/75 56/10/32 57/28/31 52/31/75
f 43/52/65 44/53/65 39/48/76 38/47/76
f 53/32/77 58/26/28 59/4/27 54/64/77
f 54/64/78 59/4/4 55/3/3 51/62/78
f 70/65/79 66/66/80 115/67/81 119/68/82
f 79/69/83 74/70/84 73/71/84 78/72/83
f 66/66/85 67/73/86 116/74/87 115/67/88
f 89/59/71 84/75/89 83/76/89 88/60/71
f 61/77/90 65/78/91 95/79/92 91/80/93
f 63/57/94 62/81/95 92/82/96 93/83/97
f 65/78/98 64/58/99 94/84/100 95/79/101
f 69/85/102 70/65/103 119/68/104 118/86/105
f 67/73/106 68/87/107 117/88/108 116/74/109
f 62/81/110 61/77/111 91/80/112 92/82/113
f 66/66/85 71/89/114 72/90/114 67/73/86
f 67/73/106 72/90/115 73/71/115 68/87/107
f 112/91/116 113/92/116 109/93/117 108/94/117
f 69/85/102 74/70/118 75/95/118 70/65/103
f 70/65/79 75/95/119 71/89/119 66/66/80
f 71/89/114 76/96/120 77/97/120 72/90/114
f 72/90/115 77/97/121 78/72/121 73/71/115
f 68/87/122 69/85/122 118/86/123 117/88/123
f 74/70/118 79/69/124 80/98/124 75/95/118
f 75/95/119 80/98/125 76/96/125 71/89/119
f 76/96/120 81/99/126 82/100/126 77/97/120
f 77/97/121 82/100/127 83/76/127 78/72/121
f 63/57/70 93/83/128 94/84/128 64/58/70
f 79/69/124 84/75/129 85/101/129 80/98/124
f 80/98/125 85/101/130 81/99/130 76/96/125
f 81/99/126 86/102/131 87/103/131 82/100/126
f 82/100/127 87/103/132 88/60/132 83/76/127
f 73/71/84 74/70/84 69/85/122 68/87/122
f 84/75/129 89/59/133 90/104/133 85/101/129
f 85/101/130 90/104/134 86/102/134 81/99/130
f 86/102/131 61/77/111 62/81/110 87/103/131
f 87/103/132 62/81/95 63/57/94 88/60/132
f 83/76/89 84/75/89 79/69/83 78/72/83
f 89/59/133 64/58/99 65/78/98 90/104/133
f 90/104/134 65/78/91 61/77/90 86/102/134
f 91/80/112 96/105/135 97/106/135 92/82/113
f 92/82/96 97/106/136 98/107/136 93/83/97
f 117/88/123 118/86/123 113/92/116 112/91/116
f 94/84/100 99/108/137 100/109/137 95/79/101
f 95/79/92 100/109/138 96/105/138 91/80/93
f 96/105/135 101/110/139 102/111/139 97/106/135
f 97/106/136 102/111/140 103/112/140 98/107/136
f 108/94/117 109/93/117 104/113/141 103/112/141
f 99/108/137 104/113/142 105/114/142 100/109/137
f 100/109/138 105/114/143 101/110/143 96/105/138
f 101/110/139 106/115/144 107/116/144 102/111/139
f 102/111/140 107/116/145 108/94/145 103/112/140
f 104/113/142 109/93/146 110/117/146 105/114/142
f 105/114/143 110/117/147 106/115/147 101/110/143
f 106/115/144 111/118/148 120/119/148 107/116/144
f 107/116/145 120/119/149 112/91/149 108/94/145
f 98/107/150 99/108/150 94/84/128 93/83/128
f 109/93/146 113/92/151 114/120/151 110/117/146
f 110/117/147 114/120/152 111/118/152 106/115/147
f 111/118/148 115/67/88 116/74/87 120/119/148
f 120/119/149 116/74/109 117/88/108 112/91/149
f 103/112/141 104/113/141 99/108/150 98/107/150
f 113/92/151 118/86/105 119/68/104 114/120/151
f 114/120/152 119/68/82 115/67/81 111/118/152
f 3/19/51 4/23/51 29/11/11 28/14/11
f 130/121/1 126/122/2 175/123/3 179/124/4
f 139/125/5 134/126/6 133/127/6 138/128/5
f 126/122/7 127/129/8 176/130/9 175/123/10
f 149/131/11 144/132/12 143/133/12 148/134/11
f 121/135/13 125/136/14 155/137/15 151/138/16
f 123/139/17 122/140/18 152/141/19 153/142/20
f 125/136/21 124/143/22 154/144/23 155/137/24
f 129/145/25 130/121/26 179/124/27 178/146/28
f 127/129/29 128/147/30 177/148/31 176/130/32
f 122/140/33 121/135/34 151/138/35 152/141/36
f 126/122/7 131/149/37 132/150/37 127/129/8
f 127/129/29 132/150/38 133/127/38 128/147/30
f 172/151/39 173/152/39 169/153/40 168/154/40
f 129/145/25 134/126/41 135/155/41 130/121/26
f 130/121/1 135/155/42 131/149/42 126/122/2
f 131/149/37 136/156/43 137/157/43 132/150/37
f 132/150/38 137/157/44 138/128/44 133/127/38
f 128/147/45 129/145/45 178/146/46 177/148/46
f 134/126/41 139/125/47 140/158/47 135/155/41
f 135/155/42 140/158/48 136/156/48 131/149/42
f 136/156/43 141/159/49 142/160/49 137/157/43
f 137/157/44 142/160/50 143/133/50 138/128/44
f 123/139/51 153/142/52 154/144/52 124/143/51
f 139/125/47 144/132/53 145/161/53 140/158/47
f 140/158/48 145/161/54 141/159/54 136/156/48
f 141/159/49 146/162/55 147/163/55 142/160/49
f 142/160/50 147/163/56 148/134/56 143/133/50
f 133/127/6 134/126/6 129/145/45 128/147/45
f 144/132/53 149/131/57 150/164/57 145/161/53
f 145/161/54 150/164/58 146/162/58 141/159/54
f 146/162/55 121/135/34 122/140/33 147/163/55
f 147/163/56 122/140/18 123/139/17 148/134/56
f 143/133/12 144/132/12 139/125/5 138/128/5
f 149/131/57 124/143/22 125/136/21 150/164/57
f 150/164/58 125/136/14 121/135/13 146/162/58
f 151/138/35 156/165/59 157/166/59 152/141/36
f 152/141/19 157/166/60 158/167/60 153/142/20
f 177/148/46 178/146/46 173/152/39 172/151/39
f 154/144/23 159/168/61 160/169/61 155/137/24
f 155/137/15 160/169/62 156/165/62 151/138/16
f 156/165/59 161/170/63 162/171/63 157/166/59
f 157/166/60 162/171/64 163/172/64 158/167/60
f 168/154/40 169/153/40 164/173/65 163/172/65
f 159/168/61 164/173/66 165/174/66 160/169/61
f 160/169/62 165/174/67 161/170/67 156/165/62
f 161/170/63 166/175/68 167/176/68 162/171/63
f 162/171/64 167/176/69 168/154/69 163/172/64
f 183/177/70 184/178/70 209/179/71 208/180/71
f 164/173/66 169/153/72 170/181/72 165/174/66
f 165/174/67 170/181/73 166/175/73 161/170/67
f 166/175/68 171/182/74 180/183/74 167/176/68
f 167/176/69 180/183/75 172/151/75 168/154/69
f 158/167/76 159/168/76 154/144/52 153/142/52
f 169/153/72 173/152/77 174/184/77 170/181/72
f 170/181/73 174/184/78 171/182/78 166/175/73
f 171/182/74 175/123/10 176/130/9 180/183/74
f 180/183/75 176/130/32 177/148/31 172/151/75
f 163/172/65 164/173/65 159/168/76 158/167/76
f 173/152/77 178/146/28 179/124/27 174/184/77
f 174/184/78 179/124/4 175/123/3 171/182/78
f 190/185/79 186/186/80 235/187/81 239/188/82
f 199/189/83 194/190/84 193/191/84 198/192/83
f 186/186/85 187/193/86 236/194/87 235/187/88
f 209/179/71 204/195/89 203/196/89 208/180/71
f 181/197/90 185/198/91 215/199/92 211/200/93
f 183/177/94 182/201/95 212/202/96 213/203/97
f 185/198/98 184/178/99 214/204/100 215/199/101
f 189/205/102 190/185/103 239/188/104 238/206/105
f 187/193/106 188/207/107 237/208/108 236/194/109
f 182/201/110 181/197/111 211/200/112 212/202/113
f 186/186/85 191/209/114 192/210/114 187/193/86
f 187/193/106 192/210/115 193/191/115 188/207/107
f 232/211/116 233/212/116 229/213/117 228/214/117
f 189/205/102 194/190/118 195/215/118 190/185/103
f 190/185/79 195/215/119 191/209/119 186/186/80
f 191/209/114 196/216/120 197/217/120 192/210/114
f 192/210/115 197/217/121 198/192/121 193/191/115
f 188/207/122 189/205/122 238/206/123 237/208/123
f 194/190/118 199/189/124 200/218/124 195/215/118
f 195/215/119 200/218/125 196/216/125 191/209/119
f 196/216/120 201/219/126 202/220/126 197/217/120
f 197/217/121 202/220/127 203/196/127 198/192/121
f 183/177/70 213/203/128 214/204/128 184/178/70
f 199/189/124 204/195/129 205/221/129 200/218/124
f 200/218/125 205/221/130 201/219/130 196/216/125
f 201/219/126 206/222/131 207/223/131 202/220/126
f 202/220/127 207/223/132 208/180/132 203/196/127
f 193/191/84 194/190/84 189/205/122 188/207/122
f 204/195/129 209/179/133 210/224/133 205/221/129
f 205/221/130 210/224/134 206/222/134 201/219/130
f 206/222/131 181/197/111 182/201/110 207/223/131
f 207/223/132 182/201/95 183/177/94 208/180/132
f 203/196/89 204/195/89 199/189/83 198/192/83
f 209/179/133 184/178/99 185/198/98 210/224/133
f 210/224/134 185/198/91 181/197/90 206/222/134
f 211/200/112 216/225/135 217/226/135 212/202/113
f 212/202/96 217/226/136 218/227/136 213/203/97
f 237/208/123 238/206/123 233/212/116 232/211/116
f 214/204/100 219/228/137 220/229/137 215/199/101
f 215/199/92 220/229/138 216/225/138 211/200/93
f 216/225/135 221/230/139 222/231/139 217/226/135
f 217/226/136 222/231/140 223/232/140 218/227/136
f 228/214/117 229/213/117 224/233/141 223/232/141
f 219/228/137 224/233/142 225/234/142 220/229/137
f 220/229/138 225/234/143 221/230/143 216/225/138
f 221/230/139 226/235/144 227/236/144 222/231/139
f 222/231/140 227/236/145 228/214/145 223/232/140
f 224/233/142 229/213/146 230/237/146 225/234/142
f 225/234/143 230/237/147 226/235/147 221/230/143
f 226/235/144 231/238/148 240/239/148 227/236/144
f 227/236/145 240/239/149 232/211/149 228/214/145
f 218/227/150 219/228/150 214/204/128 213/203/128
f 229/213/146 233/212/151 234/240/151 230/237/146
f 230/237/147 234/240/152 231/238/152 226/235/147
f 231/238/148 235/187/88 236/194/87 240/239/148
f 240/239/149 236/194/109 237/208/108 232/211/149
f 223/232/141 224/233/141 219/228/150 218/227/150
f 233/212/151 238/206/105 239/188/104 234/240/151
f 234/240/152 239/188/82 235/187/81 231/238/152
f 123/139/51 124/143/51 149/131/11 148/134/11
f 250/241/1 246/242/2 295/243/3 299/244/4
f 259/245/5 254/246/6 253/247/6 258/248/5
f 246/242/7 247/249/8 296/250/9 295/243/10
f 269/251/11 264/252/12 263/253/12 268/254/11
f 241/255/13 245/256/14 275/257/15 271/258/16
f 243/259/17 242/260/18 272/261/19 273/262/20
f 245/256/21 244/263/22 274/264/23 275/257/24
f 249/265/25 250/241/26 299/244/27 298/266/28
f 247/249/29 248/267/30 297/268/31 296/250/32
f 242/260/33 241/255/34 271/258/35 272/261/36
f 246/242/7 251/269/37 252/270/37 247/249/8
f 247/249/29 252/270/38 253/247/38 248/267/30
f 292/271/39 293/272/39 289/273/40 288/274/40
f 249/265/25 254/246/41 255/275/41 250/241/26
f 250/241/1 255/275/42 251/269/42 246/242/2
f 251/269/37 256/276/43 257/277/43 252/270/37
f 252/270/38 257/277/44 258/248/44 253/247/38
f 248/267/45 249/265/45 298/266/46 297/268/46
f 254/246/41 259/245/47 260/278/47 255/275/41
f 255/275/42 260/278/48 256/276/48 251/269/42
f 256/276/43 261/279/49 262/280/49 257/277/43
f 257/277/44 262/280/50 263/253/50 258/248/44
f 243/259/51 273/262/52 274/264/52 244/263/51
f 259/245/47 264/252/53 265/281/53 260/278/47
f 260/278/48 265/281/54 261/279/54 256/276/48
f 261/279/49 266/282/55 267/283/55 262/280/49
f 262/280/50 267/283/56 268/254/56 263/253/50
f 253/247/6 254/246/6 249/265/45 248/267/45
f 264/252/53 269/251/57 270/284/57 265/281/53
f 265/281/54 270/284/58 266/282/58 261/279/54
f 266/282/55 241/255/34 242/260/33 267/283/55
f 267/283/56 242/260/18 243/259/17 268/254/56
f 263/253/12 264/252/12 259/245/5 258/248/5
f 269/251/57 244/263/22 245/256/21 270/284/57
f 270/284/58 245/256/14 241/255/13 266/282/58
f 271/258/35 276/285/59 277/286/59 272/261/36
f 272/261/19 277/286/60 278/287/60 273/262/20
f 297/268/46 298/266/46 293/272/39 292/271/39
f 274/264/23 279/288/61 280/289/61 275/257/24
f 275/257/15 280/289/62 276/285/62 271/258/16
f 276/285/59 281/290/63 282/291/63 277/286/59
f 277/286/60 282/291/64 283/292/64 278/287/60
f 288/274/40 289/273/40 284/293/65 283/292/65
f 279/288/61 284/293/66 285/294/66 280/289/61
f 280/289/62 285/294/67 281/290/67 276/285/62
f 281/290/63 286/295/68 287/296/68 282/291/63
f 282/291/64 287/296/69 288/274/69 283/292/64
f 303/297/70 304/298/70 329/299/71 328/300/71
f 284/293/66 289/273/72 290/301/72 285/294/66
f 285/294/67 290/301/73 286/295/73 281/290/67
f 286/295/68 291/302/74 300/303/74 287/296/68
f 287/296/69 300/303/75 292/271/75 288/274/69
f 278/287/76 279/288/76 274/264/52 273/262/52
f 289/273/72 293/272/77 294/304/77 290/301/72
f 290/301/73 294/304/78 291/302/78 286/295/73
f 291/302/74 295/243/10 296/250/9 300/303/74
f 300/303/75 296/250/32 297/268/31 292/271/75
f 283/292/65 284/293/65 279/288/76 278/287/76
f 293/272/77 298/266/28 299/244/27 294/304/77
f 294/304/78 299/244/4 295/243/3 291/302/78
f 310/305/79 306/306/80 355/307/81 359/308/82
f 319/309/83 314/310/84 313/311/84 318/312/83
f 306/306/85 307/313/86 356/314/87 355/307/88
f 329/299/71 324/315/89 323/316/89 328/300/71
f 301/317/90 305/318/91 335/319/92 331/320/93
f 303/297/94 302/321/95 332/322/96 333/323/97
f 305/318/98 304/298/99 334/324/100 335/319/101
f 309/325/102 310/305/103 359/308/104 358/326/105
f 307/313/106 308/327/107 357/328/108 356/314/109
f 302/321/110 301/317/111 331/320/112 332/322/113
f 306/306/85 311/329/114 312/330/114 307/313/86
f 307/313/106 312/330/115 313/311/115 308/327/107
f 352/331/116 353/332/116 349/333/117 348/334/117
f 309/325/102 314/310/118 315/335/118 310/305/103
f 310/305/79 315/335/119 311/329/119 306/306/80
f 311/329/114 316/336/120 317/337/120 312/330/114
f 312/330/115 317/337/121 318/312/121 313/311/115
f 308/327/122 309/325/122 358/326/123 357/328/123
f 314/310/118 319/309/124 320/338/124 315/335/118
f 315/335/119 320/338/125 316/336/125 311/329/119
f 316/336/120 321/339/126 322/340/126 317/337/120
f 317/337/121 322/340/127 323/316/127 318/312/121
f 303/297/70 333/323/128 334/324/128 304/298/70
f 319/309/124 324/315/129 325/341/129 320/338/124
f 320/338/125 325/341/130 321/339/130 316/336/125
f 321/339/126 326/342/131 327/343/131 322/340/126
f 322/340/127 327/343/132 328/300/132 323/316/127
f 313/311/84 314/310/84 309/325/122 308/327/122
f 324/315/129 329/299/133 330/344/133 325/341/129
f 325/341/130 330/344/134 326/342/134 321/339/130
f 326/342/131 301/317/111 302/321/110 327/343/131
f 327/343/132 302/321/95 303/297/94 328/300/132
f 323/316/89 324/315/89 319/309/83 318/312/83
f 329/299/133 304/298/99 305/318/98 330/344/133
f 330/344/134 305/318/91 301/317/90 326/342/134
f 331/320/112 336/345/135 337/346/135 332/322/113
f 332/322/96 337/346/136 338/347/136 333/323/97
f 357/328/123 358/326/123 353/332/116 352/331/116
f 334/324/100 339/348/137 340/349/137 335/319/101
f 335/319/92 340/349/138 336/345/138 331/320/93
f 336/345/135 341/350/139 342/351/139 337/346/135
f 337/346/136 342/351/140 343/352/140 338/347/136
f 348/334/117 349/333/117 344/353/141 343/352/141
f 339/348/137 344/353/142 345/354/142 340/349/137
f 340/349/138 345/354/143 341/350/143 336/345/138
f 341/350/139 346/355/144 347/356/144 342/351/139
f 342/351/140 347/356/145 348/334/145 343/352/140
f 344/353/142 349/333/146 350/357/146 345/354/142
f 345/354/143 350/357/147 346/355/147 341/350/143
f 346/355/144 351/358/148 360/359/148 347/356/144
f 347/356/145 360/359/149 352/331/149 348/334/145
f 338/347/150 339/348/150 334/324/128 333/323/128
f 349/333/146 353/332/151 354/360/151 350/357/146
f 350/357/147 354/360/152 351/358/152 346/355/147
f 351/358/148 355/307/88 356/314/87 360/359/148
f 360/359/149 356/314/109 357/328/108 352/331/149
f 343/352/141 344/353/141 339/348/150 338/347/150
f 353/332/151 358/326/105 359/308/104 354/360/151
f 354/360/152 359/308/82 355/307/81 351/358/152
f 243/259/51 244/263/51 269/251/11 268/254/11
f 370/361/1 366/362/2 415/363/3 419/364/4
f 379/365/5 374/366/6 373/367/6 378/368/5
f 366/362/7 367/369/8 416/370/9 415/363/10
f 389/371/11 384/372/12 383/373/12 388/374/11
f 361/375/13 365/376/14 395/377/15 391/378/16
f 363/379/17 362/380/18 392/381/19 393/382/20
f 365/376/21 364/383/22 394/384/23 395/377/24
f 369/385/25 370/361/26 419/364/27 418/386/28
f 367/369/29 368/387/30 417/388/31 416/370/32
f 362/380/33 361/375/34 391/378/35 392/381/36
f 366/362/7 371/389/37 372/390/37 367/369/8
f 367/369/29 372/390/38 373/367/38 368/387/30
f 412/391/39 413/392/39 409/393/40 408/394/40
f 369/385/25 374/366/41 375/395/41 370/361/26
f 370/361/1 375/395/42 371/389/42 366/362/2
f 371/389/37 376/396/43 377/397/43 372/390/37
f 372/390/38 377/397/44 378/368/44 373/367/38
f 368/387/45 369/385/45 418/386/46 417/388/46
f 374/366/41 379/365/47 380/398/47 375/395/41
f 375/395/42 380/398/48 376/396/48 371/389/42
f 376/396/43 381/399/49 382/400/49 377/397/43
f 377/397/44 382/400/50 383/373/50 378/368/44
f 363/379/51 393/382/52 394/384/52 364/383/51
f 379/365/47 384/372/53 385/401/53 380/398/47
f 380/398/48 385/401/54 381/399/54 376/396/48
f 381/399/49 386/402/55 387/403/55 382/400/49
f 382/400/50 387/403/56 388/374/56 383/373/50
f 373/367/6 374/366/6 369/385/45 368/387/45
f 384/372/53 389/371/57 390/404/57 385/401/53
f 385/401/54 390/404/58 386/402/58 381/399/54
f 386/402/55 361/375/34 362/380/33 387/403/55
f 387/403/56 362/380/18 363/379/17 388/374/56
f 383/373/12 384/372/12 379/365/5 378/368/5
f 389/371/57 364/383/22 365/376/21 390/404/57
f 390/404/58 365/376/14 361/375/13 386/402/58
f 391/378/35 396/405/59 397/406/59 392/381/36
f 392/381/19 397/406/60 398/407/60 393/382/20
f 417/388/46 418/386/46 413/392/39 412/391/39
f 394/384/23 399/408/61 400/409/61 395/377/24
f 395/377/15 400/409/62 396/405/62 391/378/16
f 396/405/59 401/410/63 402/411/63 397/406/59
f 397/406/60 402/411/64 403/412/64 398/407/60
f 408/394/40 409/393/40 404/413/65 403/412/65
f 399/408/61 404/413/66 405/414/66 400/409/61
f 400/409/62 405/414/67 401/410/67 396/405/62
f 401/410/63 406/415/68 407/416/68 402/411/63
f 402/411/64 407/416/69 408/394/69 403/412/64
f 423/417/70 424/418/70 449/419/71 448/420/71
f 404/413/66 409/393/72 410/421/72 405/414/66
f 405/414/67 410/421/73 406/415/73 401/410/67
f 406/415/68 411/422/74 420/423/74 407/416/68
f 407/416/69 420/423/75 412/391/75 408/394/69
f 398/407/76 399/408/76 394/384/52 393/382/52
f 409/393/72 413/392/77 414/424/77 410/421/72
f 410/421/73 414/424/78 411/422/78 406/415/73
f 411/422/74 415/363/10 416/370/9 420/423/74
f 420/423/75 416/370/32 417/388/31 412/391/75
f 403/412/65 404/413/65 399/408/76 398/407/76
f 413/392/77 418/386/28 419/364/27 414/424/77
f 414/424/78 419/364/4 415/363/3 411/422/78
f 430/425/79 426/426/80 475/427/81 479/428/82
f 439/429/83 434/430/84 433/431/84 438/432/83
f 426/426/85 427/433/86 476/434/87 475/427/88
f 449/419/71 444/435/89 443/436/89 448/420/71
f 421/437/90 425/438/91 455/439/92 451/440/93
f 423/417/94 422/441/95 452/442/96 453/443/97
f 425/438/98 424/418/99 454/444/100 455/439/101
f 429/445/102 430/425/103 479/428/104 478/446/105
f 427/433/106 428/447/107 477/448/108 476/434/109
f 422/441/110 421/437/111 451/440/112 452/442/113
f 426/426/85 431/449/114 432/450/114 427/433/86
f 427/433/106 432/450/115 433/431/115 428/447/107
f 472/451/116 473/452/116 469/453/117 468/454/117
f 429/445/102 434/430/118 435/455/118 430/425/103
f 430/425/79 435/455/119 431/449/119 426/426/80
f 431/449/114 436/456/120 437/457/120 432/450/114
f 432/450/115 437/457/121 438/432/121 433/431/115
f 428/447/122 429/445/122 478/446/123 477/448/123
f 434/430/118 439/429/124 440/458/124 435/455/118
f 435/455/119 440/458/125 436/456/125 431/449/119
f 436/456/120 441/459/126 442/460/126 437/457/120
f 437/457/121 442/460/127 443/436/127 438/432/121
f 423/417/70 453/443/128 454/444/128 424/418/70
f 439/429/124 444/435/129 445/461/129 440/458/124
f 440/458/125 445/461/130 441/459/130 436/456/125
f 441/459/126 446/462/131 447/463/131 442/460/126
f 442/460/127 447/463/132 448/420/132 443/436/127
f 433/431/84 434/430/84 429/445/122 428/447/122
f 444/435/129 449/419/133 450/464/133 445/461/129
f 445/461/130 450/464/134 446/462/134 441/459/130
f 446/462/131 421/437/111 422/441/110 447/463/131
f 447/463/132 422/441/95 423/417/94 448/420/132
f 443/436/89 444/435/89 439/429/83 438/432/83
f 449/419/133 424/418/99 425/438/98 450/464/133
f 450/464/134 425/438/91 421/437/90 446/462/134
f 451/440/112 456/465/135 457/466/135 452/442/113
f 452/442/96 457/466/136 458/467/136 453/443/97
f 477/448/123 478/446/123 473/452/116 472/451/116
f 454/444/100 459/468/137 460/469/137 455/439/101
f 455/439/92 460/469/138 456/465/138 451/440/93
f 456/465/135 461/470/139 462/471/139 457/466/135
f 457/466/136 462/471/140 463/472/140 458/467/136
f 468/454/117 469/453/117 464/473/141 463/472/141
f 459/468/137 464/473/142 465/474/142 460/469/137
f 460/469/138 465/474/143 461/470/143 456/465/138
f 461/470/139 466/475/144 467/476/144 462/471/139
f 462/471/140 467/476/145 468/454/145 463/472/140
f 464/473/142 469/453/146 470/477/146 465/474/142
f 465/474/143 470/477/147 466/475/147 461/470/143
f 466/475/144 471/478/148 480/479/148 467/476/144
f 467/476/145 480/479/149 472/451/149 468/454/145
f 458/467/150 459/468/150 454/444/128 453/443/128
f 469/453/146 473/452/151 474/480/151 470/477/146
f 470/477/147 474/480/152 471/478/152 466/475/147
f 471/478/148 475/427/88 476/434/87 480/479/148
f 480/479/149 476/434/109 477/448/108 472/451/149
f 463/472/141 464/473/141 459/468/150 458/467/150
f 473/452/151 478/446/105 479/428/104 474/480/151
f 474/480/152 479/428/82 475/427/81 471/478/152
f 363/379/51 364/383/51 389/371/11 388/374/11
f 490/481/1 486/482/2 535/483/3 539/484/4
f 499/485/5 494/486/6 493/487/6 498/488/5
f 486/482/7 487/489/8 536/490/9 535/483/10
f 509/491/11 504/492/12 503/493/12 508/494/11
f 481/495/13 485/496/14 515/497/15 511/498/16
f 483/499/17 482/500/18 512/501/19 513/502/20
f 485/496/21 484/503/22 514/504/23 515/497/24
f 489/505/25 490/481/26 539/484/27 538/506/28
f 487/489/29 488/507/30 537/508/31 536/490/32
f 482/500/33 481/495/34 511/498/35 512/501/36
f 486/482/7 491/509/37 492/510/37 487/489/8
f 487/489/29 492/510/38 493/487/38 488/507/30
f 532/511/39 533/512/39 529/513/40 528/514/40
f 489/505/25 494/486/41 495/515/41 490/481/26
f 490/481/1 495/515/42 491/509/42 486/482/2
f 491/509/37 496/516/43 497/517/43 492/510/37
f 492/510/38 497/517/44 498/488/44 493/487/38
f 488/507/45 489/505/45 538/506/46 537/508/46
f 494/486/41 499/485/47 500/518/47 495/515/41
f 495/515/42 500/518/48 496/516/48 491/509/42
f 496/516/43 501/519/49 502/520/49 497/517/43
f 497/517/44 502/520/50 503/493/50 498/488/44
f 483/499/51 513/502/52 514/504/52 484/503/51
f 499/485/47 504/492/53 505/521/53 500/518/47
f 500/518/48 505/521/54 501/519/54 496/516/48
f 501/519/49 506/522/55 507/523/55 502/520/49
f 502/520/50 507/523/56 508/494/56 503/493/50
f 493/487/6 494/486/6 489/505/45 488/507/45
f 504/492/53 509/491/57 510/524/57 505/521/53
f 505/521/54 510/524/58 506/522/58 501/519/54
f 506/522/55 481/495/34 482/500/33 507/523/55
f 507/523/56 482/500/18 483/499/17 508/494/56
f 503/493/12 504/492/12 499/485/5 498/488/5
f 509/491/57 484/503/22 485/496/21 510/524/57
f 510/524/58 485/496/14 481/495/13 506/522/58
f 511/498/35 516/525/59 517/526/59 512/501/36
f 512/501/19 517/526/60 518/527/60 513/502/20
f 537/508/46 538/506/46 533/512/39 532/511/39
f 514/504/23 519/528/61 520/529/61 515/497/24
f 515/497/15 520/529/62 516/525/62 511/498/16
f 516/525/59 521/530/63 522/531/63 517/526/59
f 517/526/60 522/531/64 523/532/64 518/527/60
f 528/514/40 529/513/40 524/533/65 523/532/65
f 519/528/61 524/533/66 525/534/66 520/529/61
f 520/529/62 525/534/67 521/530/67 516/525/62
f 521/530/63 526/535/68 527/536/68 522/531/63
f 522/531/64 527/536/69 528/514/69 523/532/64
f 543/537/70 544/538/70 569/539/71 568/540/71
f 524/533/66 529/513/72 530/541/72 525/534/66
f 525/534/67 530/541/73 526/535/73 521/530/67
f 526/535/68 531/542/74 540/543/74 527/536/68
f 527/536/69 540/543/75 532/511/75 528/514/69
f 518/527/76 519/528/76 514/504/52 513/502/52
f 529/513/72 533/512/77 534/544/77 530/541/72
f 530/541/73 534/544/78 531/542/78 526/535/73
f 531/542/74 535/483/10 536/490/9 540/543/74
f 540/543/75 536/490/32 537/508/31 532/511/75
f 523/532/65 524/533/65 519/528/76 518/527/76
f 533/512/77 538/506/28 539/484/27 534/544/77
f 534/544/78 539/484/4 535/483/3 531/542/78
f 550/545/79 546/546/80 595/547/81 599/548/82
f 559/549/83 554/550/84 553/551/84 558/552/83
f 546/546/85 547/553/86 596/554/87 595/547/88
f 569/539/71 564/555/89 563/556/89 568/540/71
f 541/557/90 545/558/91 575/559/92 571/560/93
f 543/537/94 542/561/95 572/562/96 573/563/97
f 545/558/98 544/538/99 574/564/100 575/559/101
f 549/565/102 550/545/103 599/548/104 598/566/105
f 547/553/106 548/567/107 597/568/108 596/554/109
f 542/561/110 541/557/111 571/560/112 572/562/113
f 546/546/85 551/569/114 552/570/114 547/553/86
f 547/553/106 552/570/115 553/551/115 548/567/107
f 592/571/116 593/572/116 589/573/117 588/574/117
f 549/565/102 554/550/118 555/575/118 550/545/103
f 550/545/79 555/575/119 551/569/119 546/546/80
f 551/569/114 556/576/120 557/577/120 552/570/114
f 552/570/115 557/577/121 558/552/121 553/551/115
f 548/567/122 549/565/122 598/566/123 597/568/123
f 554/550/118 559/549/124 560/578/124 555/575/118
f 555/575/119 560/578/125 556/576/125 551/569/119
f 556/576/120 561/579/126 562/580/126 557/577/120
f 557/577/121 562/580/127 563/556/127 558/552/121
f 543/537/70 573/563/128 574/564/128 544/538/70
f 559/549/124 564/555/129 565/581/129 560/578/124
f 560/578/125 565/581/130 561/579/130 556/576/125
f 561/579/126 566/582/131 567/583/131 562/580/126
f 562/580/127 567/583/132 568/540/132 563/556/127
f 553/551/84 554/550/84 549/565/122 548/567/122
f 564/555/129 569/539/133 570/584/133 565/581/129
f 565/581/130 570/584/134 566/582/134 561/579/130
f 566/582/131 541/557/111 542/561/110 567/583/131
f 567/583/132 542/561/95 543/537/94 568/540/132
f 563/556/89 564/555/89 559/549/83 558/552/83
f 569/539/133 544/538/99 545/558/98 570/584/133
f 570/584/134 545/558/91 541/557/90 566/582/134
f 571/560/112 576/585/135 577/586/135 572/562/113
f 572/562/96 577/586/136 578/587/136 573/563/97
f 597/568/123 598/566/123 593/572/116 592/571/116
f 574/564/100 579/588/137 580/589/137 575/559/101
f 575/559/92 580/589/138 576/585/138 571/560/93
f 576/585/135 581/590/139 582/591/139 577/586/135
f 577/586/136 582/591/140 583/592/140 578/587/136
f 588/574/117 589/573/117 584/593/141 583/592/141
f 579/588/137 584/593/142 585/594/142 580/589/137
f 580/589/138 585/594/143 581/590/143 576/585/138
f 581/590/139 586/595/144 587/596/144 582/591/139
f 582/591/140 587/596/145 588/574/145 583/592/140
f 584/593/142 589/573/146 590/597/146 585/594/142
f 585/594/143 590/597/147 586/595/147 581/590/143
f 586/595/144 591/598/148 600/599/148 587/596/144
f 587/596/145 600/599/149 592/571/149 588/574/145
f 578/587/150 579/588/150 574/564/128 573/563/128
f 589/573/146 593/572/151 594/600/151 590/597/146
f 590/597/147 594/600/152 591/598/152 586/595/147
f 591/598/148 595/547/88 596/554/87 600/599/148
f 600/599/149 596/554/109 597/568/108 592/571/149
f 583/592/141 584/593/141 579/588/150 578/587/150
f 593/572/151 598/566/105 599/548/104 594/600/151
f 594/600/152 599/548/82 595/547/81 591/598/152
f 483/499/51 484/503/51 509/491/11 508/494/11
f 610/601/1 606/602/2 655/603/3 659/604/4
f 619/605/5 614/606/6 613/607/6 618/608/5
f 606/602/7 607/609/8 656/610/9 655/603/10
f 629/611/11 624/612/12 623/613/12 628/614/11
f 601/615/13 605/616/14 635/617/15 631/618/16
f 603/619/17 602/620/18 632/621/19 633/622/20
f 605/616/21 604/623/22 634/624/23 635/617/24
f 609/625/25 610/601/26 659/604/27 658/626/28
f 607/609/29 608/627/30 657/628/31 656/610/32
f 602/620/33 601/615/34 631/618/35 632/621/36
f 606/602/7 611/629/37 612/630/37 607/609/8
f 607/609/29 612/630/38 613/607/38 608/627/30
f 652/631/39 653/632/39 649/633/40 648/634/40
f 609/625/25 614/606/41 615/635/41 610/601/26
f 610/601/1 615/635/42 611/629/42 606/602/2
f 611/629/37 616/636/43 617/637/43 612/630/37
f 612/630/38 617/637/44 618/608/44 613/607/38
f 608/627/45 609/625/45 658/626/46 657/628/46
f 614/606/41 619/605/47 620/638/47 615/635/41
f 615/635/42 620/638/48 616/636/48 611/629/42
f 616/636/43 621/639/49 622/640/49 617/637/43
f 617/637/44 622/640/50 623/613/50 618/608/44
f 603/619/51 633/622/52 634/624/52 604/623/51
f 619/605/47 624/612/53 625/641/53 620/638/47
f 620/638/48 625/641/54 621/639/54 616/636/48
f 621/639/49 626/642/55 627/643/55 622/640/49
f 622/640/50 627/643/56 628/614/56 623/613/50
f 613/607/6 614/606/6 609/625/45 608/627/45
f 624/612/53 629/611/57 630/644/57 625/641/53
f 625/641/54 630/644/58 626/642/58 621/639/54
f 626/642/55 601/615/34 602/620/33 627/643/55
f 627/643/56 602/620/18 603/619/17 628/614/56
f 623/613/12 624/612/12 619/605/5 618/608/5
f 629/611/57 604/623/22 605/616/21 630/644/57
f 630/644/58 605/616/14 601/615/13 626/642/58
f 631/618/35 636/645/59 637/646/59 632/621/36
f 632/621/19 637/646/60 638/647/60 633/622/20
f 657/628/46 658/626/46 653/632/39 652/631/39
f 634/624/23 639/648/61 640/649/61 635/617/24
f 635/617/15 640/649/62 636/645/62 631/618/16
f 636/645/59 641/650/63 642/651/63 637/646/59
f 637/646/60 642/651/64 643/652/64 638/647/60
f 648/634/40 649/633/40 644/653/65 643/652/65
f 639/648/61 644/653/66 645/654/66 640/649/61
f 640/649/62 645/654/67 641/650/67 636/645/62
f 641/650/63 646/655/68 647/656/68 642/651/63
f 642/651/64 647/656/69 648/634/69 643/652/64
f 663/657/70 664/658/70 689/659/71 688/660/71
f 644/653/66 649/633/72 650/661/72 645/654/66
f 645/654/67 650/661/73 646/655/73 641/650/67
f 646/655/68 651/662/74 660/663/74 647/656/68
f 647/656/69 660/663/75 652/631/75 648/634/69
f 638/647/76 639/648/76 634/624/52 633/622/52
f 649/633/72 653/632/77 654/664/77 650/661/72
f 650/661/73 654/664/78 651/662/78 646/655/73
f 651/662/74 655/603/10 656/610/9 660/663/74
f 660/663/75 656/610/32 657/628/31 652/631/75
f 643/652/65 644/653/65 639/648/76 638/647/76
f 653/632/77 658/626/28 659/604/27 654/664/77
f 654/664/78 659/604/4 655/603/3 651/662/78
f 670/665/79 666/666/80 715/667/81 719/668/82
f 679/669/83 674/670/84 673/671/84 678/672/83
f 666/666/85 667/673/86 716/674/87 715/667/88
f 689/659/71 684/675/89 683/676/89 688/660/71
f 661/677/90 665/678/91 695/679/92 691/680/93
f 663/657/94 662/681/95 692/682/96 693/683/97
f 665/678/98 664/658/99 694/684/100 695/679/101
f 669/685/102 670/665/103 719/668/104 718/686/105
f 667/673/106 668/687/107 717/688/108 716/674/109
f 662/681/110 661/677/111 691/680/112 692/682/113
f 666/666/85 671/689/114 672/690/114 667/673/86
f 667/673/106 672/690/115 673/671/115 668/687/107
f 712/691/116 713/692/116 709/693/117 708/694/117
f 669/685/102 674/670/118 675/695/118 670/665/103
f 670/665/79 675/695/119 671/689/119 666/666/80
f 671/689/114 676/696/120 677/697/120 672/690/114
f 672/690/115 677/697/121 678/672/121 673/671/115
f 668/687/122 669/685/122 718/686/123 717/688/123
f 674/670/118 679/669/124 680/698/124 675/695/118
f 675/695/119 680/698/125 676/696/125 671/689/119
f 676/696/120 681/699/126 682/700/126 677/697/120
f 677/697/121 682/700/127 683/676/127 678/672/121
f 663/657/70 693/683/128 694/684/128 664/658/70
f 679/669/124 684/675/129 685/701/129 680/698/124
f 680/698/125 685/701/130 681/699/130 676/696/125
f 681/699/126 686/702/131 687/703/131 682/700/126
f 682/700/127 687/703/132 688/660/132 683/676/127
f 673/671/84 674/670/84 669/685/122 668/687/122
f 684/675/129 689/659/133 690/704/133 685/701/129
f 685/701/130 690/704/134 686/702/134 681/699/130
f 686/702/131 661/677/111 662/681/110 687/703/131
f 687/703/132 662/681/95 663/657/94 688/660/132
f 683/676/89 684/675/89 679/669/83 678/672/83
f 689/659/133 664/658/99 665/678/98 690/704/133
f 690/704/134 665/678/91 661/677/90 686/702/134
f 691/680/112 696/705/135 697/706/135 692/682/113
f 692/682/96 697/706/136 698/707/136 693/683/97
f 717/688/123 718/686/123 713/692/116 712/691/116
f 694/684/100 699/708/137 700/709/137 695/679/101
f 695/679/92 700/709/138 696/705/138 691/680/93
f 696/705/135 701/710/139 702/711/139 697/706/135
f 697/706/136 702/711/140 703/712/140 698/707/136
f 708/694/117 709/693/117 704/713/141 703/712/141
f 699/708/137 704/713/142 705/714/142 700/709/137
f 700/709/138 705/714/143 701/710/143 696/705/138
f 701/710/139 706/715/144 707/716/144 702/711/139
f 702/711/140 707/716/145 708/694/145 703/712/140
f 704/713/142 709/693/146 710/717/146 705/714/142
f 705/714/143 710/717/147 706/715/147 701/710/143
f 706/715/144 711/718/148 720/719/148 707/716/144
f 707/716/145 720/719/149 712/691/149 708/694/145
f 698/707/150 699/708/150 694/684/128 693/683/128
f 709/693/146 713/692/151 714/720/151 710/717/146
f 710/717/147 714/720/152 711/718/152 706/715/147
f 711/718/148 715/667/88 716/674/87 720/719/148
f 720/719/149 716/674/109 717/688/108 712/691/149
f 703/712/141 704/713/141 699/708/150 698/707/150
f 713/692/151 718/686/105 719/668/104 714/720/151
f 714/720/152 719/668/82 715/667/81 711/718/152
f 603/619/51 604/623/51 629/611/11 628/614/11
