# Blender v3.4.1 OBJ File: 'MixedBag1_Export.blend'
# www.blender.org
mtllib circus_tent.mtl
o circus_tent
v 0.000000 0.000000 -1.500000
v 0.574025 0.000000 -1.385819
v 0.482051 1.000000 -1.163773
v 1.060660 0.000000 -1.060660
v 1.385819 0.000000 -0.574025
v 1.163773 1.000000 -0.482051
v 1.500000 0.000000 0.000000
v 1.385819 0.000000 0.574025
v 1.163773 1.000000 0.482051
v 1.060660 0.000000 1.060660
v 0.574025 0.000000 1.385819
v 0.482051 1.000000 1.163773
v 0.574025 0.000000 1.065703
v -0.574025 0.000000 1.385819
v -0.482051 1.000000 1.163773
v -1.060660 0.000000 1.060660
v -1.385819 0.000000 0.574025
v -1.163773 1.000000 0.482051
v -1.500000 0.000000 -0.000000
v -1.385819 0.000000 -0.574025
v -1.163773 1.000000 -0.482051
v -1.060660 0.000000 -1.060660
v -0.574025 0.000000 -1.385819
v -0.482051 1.000000 -1.163773
v 0.000000 0.800000 -1.307727
v 0.500446 0.800000 -1.208182
v 0.924703 0.800000 -0.924703
v 1.208182 0.800000 -0.500446
v 1.307727 0.800000 0.000000
v 1.208182 0.800000 0.500446
v 0.924703 0.800000 0.924703
v -0.000000 0.800000 1.307727
v -0.924703 0.800000 0.924703
v -1.208182 0.800000 0.500446
v -1.307727 0.800000 -0.000000
v -1.208182 0.800000 -0.500446
v -0.924703 0.800000 -0.924703
v -0.500446 0.800000 -1.208182
v 0.000000 0.000000 0.000000
v 0.495964 1.066123 -1.197362
v 0.000000 1.056078 -1.305169
v 0.000000 0.837413 -1.364818
v 0.922894 1.056078 -0.922894
v 1.197362 1.066123 -0.495964
v 1.305169 1.056078 0.000000
v 1.197362 1.066123 0.495964
v 0.922894 1.056078 0.922894
v 0.495964 1.066123 1.197362
v -0.000000 1.056078 1.305169
v -0.495964 1.066123 1.197362
v -0.922894 1.056078 0.922894
v -1.197362 1.066123 0.495964
v -1.305169 1.056078 -0.000000
v -1.197362 1.066123 -0.495964
v -0.922894 1.056078 -0.922894
v -0.495964 1.066123 -1.197362
v 0.000000 2.088295 0.000000
v 0.965072 0.837413 -0.965072
v 1.364818 0.837413 0.000000
v 0.965072 0.837413 0.965072
v -0.000000 0.837413 1.364818
v -0.965072 0.837413 0.965072
v -1.364818 0.837413 -0.000000
v -0.965072 0.837413 -0.965072
v 0.537235 0.400000 1.297001
v -0.537235 0.400000 1.297001
v -0.477369 0.515404 1.281173
v -0.174648 0.755643 1.283648
v -0.500408 0.799970 1.208197
v -0.359203 0.680115 1.265090
v 0.153926 0.749903 1.289150
v 0.470066 0.505138 1.285093
v 0.500408 0.799970 1.208197
v 0.341284 0.666652 1.271891
v 0.537235 0.400000 1.065703
v -0.000000 0.000000 1.065703
v -0.000000 0.400000 1.065703
v -0.574025 0.000000 1.065703
v -0.537235 0.400000 1.065703
v -0.000000 0.800000 1.065703
v 0.341284 0.666652 1.065703
v 0.470066 0.505138 1.065703
v -0.477369 0.515404 1.065703
v -0.359203 0.680115 1.065703
v -0.174648 0.755643 1.065703
v 0.153926 0.749903 1.065703
v 0.000000 2.047962 0.027250
v 0.000000 2.428628 0.027250
v -0.027250 2.047962 0.000000
v -0.027250 2.428628 0.000000
v 0.027250 2.047962 0.000000
v 0.027250 2.428628 0.000000
v 0.000000 2.047962 -0.027250
v 0.000000 2.428628 -0.027250
v 0.006342 2.208696 -0.000000
v 0.492194 2.298295 -0.000000
v 0.006342 2.387894 0.000000
v 0.492194 2.298295 0.000000
v 0.161016 2.237220 0.018126
v 0.090032 2.224130 0.027561
v 0.282480 2.259620 -0.018126
v 0.216056 2.247370 -0.018126
v 0.408504 2.282861 0.027561
v 0.337520 2.269770 0.018126
v 0.337520 2.326819 0.018126
v 0.408504 2.313729 0.027561
v 0.216056 2.349219 -0.018126
v 0.282480 2.336970 -0.018126
v 0.090032 2.372460 0.027561
v 0.161016 2.359369 0.018126
v -0.096908 1.818961 0.233956
v -0.292094 1.318702 0.705178
v -0.163987 1.558086 0.395900
v 0.255021 1.818961 0.000000
v 0.767127 1.315611 0.000000
v 0.431169 1.557333 0.000000
v 0.705178 1.318702 0.292094
v 0.233956 1.818961 0.096908
v 0.395900 1.558086 0.163987
v -0.542441 1.315611 0.542441
v -0.180327 1.818961 0.180327
v -0.304883 1.557333 0.304883
v -0.180327 1.818961 -0.180327
v -0.542441 1.315611 -0.542441
v -0.304883 1.557333 -0.304883
v -0.292094 1.318702 -0.705178
v -0.096908 1.818961 -0.233956
v -0.163987 1.558086 -0.395900
v 0.180327 1.818961 -0.180327
v 0.542441 1.315611 -0.542441
v 0.304883 1.557333 -0.304883
v 0.705178 1.318702 -0.292094
v 0.233956 1.818961 -0.096908
v 0.395900 1.558087 -0.163987
v 0.096908 1.818961 0.233956
v 0.292094 1.318702 0.705178
v 0.163987 1.558086 0.395900
v -0.000000 1.315611 0.767127
v -0.000000 1.818961 0.255021
v -0.000000 1.557333 0.431169
v -0.000000 1.818961 -0.255021
v 0.000000 1.315611 -0.767127
v 0.000000 1.557333 -0.431169
v 0.292094 1.318702 -0.705178
v 0.096908 1.818961 -0.233956
v 0.163987 1.558086 -0.395900
v -0.255021 1.818961 0.000000
v -0.767127 1.315611 -0.000000
v -0.431169 1.557333 -0.000000
v -0.705178 1.318702 -0.292094
v -0.233956 1.818961 -0.096908
v -0.395900 1.558086 -0.163987
v 0.542441 1.315611 0.542441
v 0.180327 1.818961 0.180327
v 0.304883 1.557333 0.304883
v -0.705178 1.318702 0.292094
v -0.233956 1.818961 0.096908
v -0.395900 1.558087 0.163987
v -0.219632 1.756912 0.090975
v -0.239385 1.756867 0.000000
v 0.169271 1.756867 0.169271
v 0.090975 1.756912 0.219632
v 0.090975 1.756912 -0.219632
v 0.169271 1.756867 -0.169271
v -0.219632 1.756912 -0.090975
v -0.169271 1.756867 -0.169271
v 0.000000 1.756867 0.239385
v -0.090975 1.756912 0.219632
v 0.219632 1.756912 -0.090975
v 0.239385 1.756867 0.000000
v -0.090975 1.756912 -0.219632
v 0.000000 1.756867 -0.239385
v -0.169271 1.756867 0.169271
v 0.219632 1.756912 0.090975
v 1.555293 -0.031797 1.603009
v 1.668967 0.163986 1.668967
v 1.603009 -0.031797 1.555293
v 1.598657 -0.059954 1.646373
v 1.646373 -0.059954 1.598657
v 1.636861 0.094992 1.636861
v 1.651474 0.066960 1.609975
v 1.609975 0.066960 1.651474
v 1.624588 0.038928 1.624588
v 0.873812 0.962838 0.873812
v 0.880832 0.940836 0.839332
v 0.839332 0.940836 0.880832
v 0.846352 0.918834 0.846352
v 0.996189 0.726627 0.996190
v 1.399454 0.260400 1.399454
v 1.181644 0.460091 1.181644
v 1.410537 0.236347 1.369037
v 1.006211 0.700249 0.964711
v 1.192195 0.434736 1.150695
v 1.369037 0.236347 1.410537
v 0.964711 0.700249 1.006211
v 1.150695 0.434736 1.192195
v 1.380095 0.212232 1.380095
v 0.974743 0.673884 0.974743
v 1.161242 0.409366 1.161242
v 1.588181 0.169028 1.666665
v 1.666665 0.169028 1.588181
v 1.737990 0.122715 1.659506
v 1.659506 0.122715 1.737990
v -1.603009 -0.031797 1.555293
v -1.668967 0.163986 1.668967
v -1.555293 -0.031797 1.603009
v -1.646373 -0.059954 1.598657
v -1.598657 -0.059954 1.646373
v -1.636861 0.094992 1.636861
v -1.609975 0.066960 1.651474
v -1.651474 0.066960 1.609975
v -1.624588 0.038928 1.624588
v -0.873812 0.962838 0.873812
v -0.839332 0.940836 0.880832
v -0.880832 0.940836 0.839332
v -0.846352 0.918834 0.846352
v -0.996190 0.726627 0.996189
v -1.399454 0.260400 1.399454
v -1.181644 0.460091 1.181644
v -1.369037 0.236347 1.410537
v -0.964711 0.700249 1.006211
v -1.150695 0.434736 1.192195
v -1.410537 0.236347 1.369037
v -1.006211 0.700249 0.964711
v -1.192195 0.434736 1.150695
v -1.380095 0.212232 1.380095
v -0.974743 0.673884 0.974743
v -1.161242 0.409366 1.161242
v -1.666665 0.169028 1.588181
v -1.588181 0.169028 1.666665
v -1.659506 0.122715 1.737990
v -1.737990 0.122715 1.659506
v -1.555292 -0.031797 -1.603009
v -1.668966 0.163986 -1.668967
v -1.603009 -0.031797 -1.555293
v -1.598656 -0.059954 -1.646373
v -1.646373 -0.059954 -1.598657
v -1.636861 0.094992 -1.636862
v -1.651474 0.066960 -1.609975
v -1.609974 0.066960 -1.651474
v -1.624587 0.038928 -1.624588
v -0.873812 0.962838 -0.873812
v -0.880832 0.940836 -0.839333
v -0.839332 0.940836 -0.880832
v -0.846352 0.918834 -0.846352
v -0.996189 0.726627 -0.996190
v -1.399454 0.260400 -1.399454
v -1.181644 0.460091 -1.181644
v -1.410537 0.236347 -1.369038
v -1.006211 0.700249 -0.964711
v -1.192195 0.434736 -1.150696
v -1.369037 0.236347 -1.410537
v -0.964711 0.700249 -1.006211
v -1.150695 0.434736 -1.192195
v -1.380095 0.212232 -1.380096
v -0.974742 0.673884 -0.974743
v -1.161242 0.409366 -1.161242
v -1.588181 0.169028 -1.666665
v -1.666665 0.169028 -1.588181
v -1.737990 0.122715 -1.659506
v -1.659506 0.122715 -1.737990
v 1.603010 -0.031797 -1.555292
v 1.668967 0.163986 -1.668966
v 1.555293 -0.031797 -1.603009
v 1.646374 -0.059954 -1.598656
v 1.598657 -0.059954 -1.646372
v 1.636862 0.094992 -1.636861
v 1.609975 0.066960 -1.651474
v 1.651475 0.066960 -1.609974
v 1.624588 0.038928 -1.624587
v 0.873812 0.962838 -0.873812
v 0.839333 0.940836 -0.880832
v 0.880832 0.940836 -0.839332
v 0.846353 0.918834 -0.846352
v 0.996190 0.726627 -0.996189
v 1.399454 0.260400 -1.399453
v 1.181644 0.460091 -1.181643
v 1.369038 0.236347 -1.410537
v 0.964712 0.700249 -1.006211
v 1.150696 0.434736 -1.192195
v 1.410537 0.236347 -1.369037
v 1.006211 0.700249 -0.964711
v 1.192195 0.434736 -1.150695
v 1.380096 0.212232 -1.380095
v 0.974743 0.673884 -0.974742
v 1.161242 0.409366 -1.161242
v 1.666665 0.169028 -1.588181
v 1.588182 0.169028 -1.666664
v 1.659507 0.122715 -1.737989
v 1.737991 0.122715 -1.659506
v 0.587921 0.305872 1.254397
v 0.026381 0.793878 1.165095
v 0.258451 0.425449 1.240688
v 0.069015 0.630144 1.197288
v 0.146463 0.508654 1.222781
v 0.180819 0.794662 1.174764
v 0.480516 0.600979 1.210929
v 0.341203 0.700960 1.189195
v 0.569543 0.044618 1.306463
v 0.398355 0.349569 1.255460
v 0.400730 0.261972 1.273828
v 0.561232 0.453847 1.235524
v 0.575463 0.296166 1.154327
v 0.018686 0.782234 1.070018
v 0.248843 0.415174 1.143783
v 0.060782 0.619143 1.098742
v 0.137620 0.498261 1.125803
v 0.171793 0.782736 1.076432
v 0.471341 0.591041 1.114089
v 0.332117 0.690471 1.092751
v 0.556415 0.037313 1.209050
v 0.386397 0.341326 1.157967
v 0.387772 0.252076 1.176402
v 0.550781 0.444945 1.137652
v 0.428990 0.167774 1.293847
v 0.491864 0.089879 1.306200
v 0.586005 0.107137 1.293382
v 0.616767 0.197636 1.272784
v 0.478394 0.079940 1.206531
v 0.415471 0.156923 1.195850
v 0.604025 0.187551 1.176049
v 0.572944 0.097255 1.194437
v 0.633507 0.305631 1.199224
v 0.356023 0.248572 1.230412
v 0.005921 0.806449 1.114901
v 0.196843 0.819566 1.119874
v 0.222515 0.387616 1.198975
v 0.105875 0.469447 1.181533
v 0.345770 0.335111 1.211107
v 0.033523 0.605464 1.152874
v 0.572707 0.023436 1.259070
v 0.509578 0.626499 1.155722
v 0.587878 0.468437 1.181709
v 0.370822 0.731414 1.133787
v 0.647364 0.199119 1.219239
v 0.608556 0.102128 1.240247
v 0.386572 0.149992 1.250642
v 0.463502 0.069108 1.260950
v -0.587921 0.305872 1.254397
v -0.026381 0.793878 1.165095
v -0.258451 0.425449 1.240688
v -0.069015 0.630144 1.197288
v -0.146463 0.508654 1.222781
v -0.180819 0.794662 1.174764
v -0.480516 0.600979 1.210929
v -0.341203 0.700960 1.189195
v -0.569543 0.044618 1.306463
v -0.398355 0.349569 1.255460
v -0.400730 0.261972 1.273828
v -0.561232 0.453847 1.235524
v -0.575463 0.296166 1.154327
v -0.018686 0.782234 1.070018
v -0.248843 0.415174 1.143783
v -0.060782 0.619143 1.098742
v -0.137620 0.498261 1.125803
v -0.171793 0.782736 1.076432
v -0.471341 0.591041 1.114089
v -0.332117 0.690471 1.092751
v -0.556415 0.037313 1.209050
v -0.386397 0.341326 1.157967
v -0.387772 0.252076 1.176402
v -0.550781 0.444945 1.137652
v -0.428990 0.167774 1.293847
v -0.491864 0.089879 1.306200
v -0.586005 0.107137 1.293382
v -0.616767 0.197636 1.272784
v -0.478394 0.079940 1.206531
v -0.415471 0.156923 1.195850
v -0.604025 0.187551 1.176049
v -0.572944 0.097255 1.194437
v -0.633507 0.305631 1.199224
v -0.356023 0.248572 1.230412
v -0.005921 0.806449 1.114901
v -0.196843 0.819566 1.119874
v -0.222515 0.387616 1.198975
v -0.105875 0.469447 1.181533
v -0.345770 0.335111 1.211107
v -0.033523 0.605464 1.152874
v -0.572707 0.023436 1.259070
v -0.509578 0.626499 1.155722
v -0.587878 0.468437 1.181709
v -0.370822 0.731414 1.133787
v -0.647364 0.199119 1.219239
v -0.608556 0.102128 1.240247
v -0.386572 0.149992 1.250642
v -0.463502 0.069108 1.260950
vt 0.155811 0.086168
vt 0.159580 0.073214
vt 0.158954 0.075637
vt 0.155136 0.090451
vt 0.187939 0.086168
vt 0.184170 0.073214
vt 0.184795 0.075637
vt 0.188614 0.090451
vt 0.154487 0.073214
vt 0.153602 0.075637
vt 0.189263 0.073214
vt 0.190147 0.075637
vt 0.155811 0.086168
vt 0.155136 0.090451
vt 0.187939 0.086168
vt 0.188614 0.090451
vt 0.159580 0.073214
vt 0.158954 0.075637
vt 0.184170 0.073214
vt 0.184795 0.075637
vt 0.165221 0.086168
vt 0.164941 0.090451
vt 0.178529 0.086168
vt 0.178808 0.090451
vt 0.171875 0.073214
vt 0.171875 0.075637
vt 0.171875 0.073214
vt 0.171875 0.075637
vt 0.178529 0.086168
vt 0.178808 0.090451
vt 0.165221 0.086168
vt 0.164941 0.090451
vt 0.194093 0.795227
vt 0.194093 0.826327
vt 0.203125 0.826327
vt 0.203125 0.795227
vt 0.206625 0.045227
vt 0.206625 0.076327
vt 0.212188 0.076327
vt 0.212188 0.045227
vt 0.181320 0.795227
vt 0.181320 0.826327
vt 0.186436 0.826327
vt 0.186436 0.795227
vt 0.201602 0.045227
vt 0.201602 0.076327
vt 0.202908 0.076327
vt 0.202908 0.045227
vt 0.181320 0.795227
vt 0.181320 0.826327
vt 0.179523 0.826327
vt 0.179523 0.795227
vt 0.206625 0.045227
vt 0.206625 0.076327
vt 0.202908 0.076327
vt 0.202908 0.045227
vt 0.194093 0.810777
vt 0.194093 0.826327
vt 0.186436 0.826327
vt 0.186436 0.795227
vt 0.173205 0.027955
vt 0.160495 0.027955
vt 0.173205 0.027955
vt 0.230875 0.045227
vt 0.230875 0.076327
vt 0.225312 0.076327
vt 0.225312 0.060777
vt 0.224930 0.795227
vt 0.224930 0.826327
vt 0.219814 0.826327
vt 0.219814 0.795227
vt 0.235897 0.045227
vt 0.235897 0.076327
vt 0.234592 0.076327
vt 0.234592 0.045227
vt 0.224930 0.795227
vt 0.224930 0.826327
vt 0.226727 0.826327
vt 0.226727 0.795227
vt 0.230875 0.045227
vt 0.230875 0.076327
vt 0.234592 0.076327
vt 0.234592 0.045227
vt 0.212157 0.795227
vt 0.212157 0.826327
vt 0.219814 0.826327
vt 0.219814 0.795227
vt 0.218750 0.045227
vt 0.218750 0.076327
vt 0.225312 0.076327
vt 0.225312 0.045227
vt 0.212188 0.076327
vt 0.218750 0.076327
vt 0.212188 0.084101
vt 0.212157 0.826327
vt 0.212157 0.834101
vt 0.203125 0.826327
vt 0.225312 0.084101
vt 0.224930 0.834101
vt 0.234592 0.084101
vt 0.224930 0.834101
vt 0.234592 0.084101
vt 0.212157 0.834101
vt 0.225312 0.084101
vt 0.194093 0.834101
vt 0.212188 0.084101
vt 0.181320 0.834101
vt 0.202908 0.084101
vt 0.181320 0.834101
vt 0.202908 0.084101
vt 0.194093 0.834101
vt 0.188197 0.027955
vt 0.203190 0.027955
vt 0.188197 0.027955
vt 0.215900 0.027955
vt 0.224393 0.027955
vt 0.227375 0.027955
vt 0.224393 0.027955
vt 0.215900 0.027955
vt 0.203190 0.027955
vt 0.203190 0.027955
vt 0.152002 0.027955
vt 0.149020 0.027955
vt 0.152002 0.027955
vt 0.160495 0.027955
vt 0.173205 0.027955
vt 0.171875 0.106887
vt 0.171875 0.121050
vt 0.178808 0.121701
vt 0.184752 0.121050
vt 0.184795 0.106887
vt 0.188614 0.121701
vt 0.190086 0.121050
vt 0.190147 0.106887
vt 0.188614 0.121701
vt 0.184752 0.121050
vt 0.184795 0.106887
vt 0.178808 0.121701
vt 0.171875 0.121050
vt 0.171875 0.106887
vt 0.164941 0.121701
vt 0.158998 0.121050
vt 0.158954 0.106887
vt 0.155136 0.121701
vt 0.153664 0.121050
vt 0.153602 0.106887
vt 0.155136 0.121701
vt 0.158998 0.121050
vt 0.158954 0.106887
vt 0.226727 0.865351
vt 0.224930 0.865351
vt 0.218190 0.877367
vt 0.219411 0.877402
vt 0.164941 0.121701
vt 0.212188 0.115351
vt 0.218750 0.115351
vt 0.218750 0.127402
vt 0.214216 0.127367
vt 0.186436 0.865351
vt 0.181320 0.865351
vt 0.188060 0.877367
vt 0.191609 0.877402
vt 0.219814 0.865351
vt 0.212157 0.865351
vt 0.209365 0.877367
vt 0.214641 0.877402
vt 0.225312 0.115351
vt 0.230875 0.115351
vt 0.227116 0.127402
vt 0.223284 0.127367
vt 0.225312 0.115351
vt 0.218750 0.115351
vt 0.218750 0.127402
vt 0.223284 0.127367
vt 0.179523 0.865351
vt 0.181320 0.865351
vt 0.188060 0.877367
vt 0.186839 0.877402
vt 0.202908 0.115351
vt 0.206625 0.115351
vt 0.210383 0.127402
vt 0.207805 0.127367
vt 0.198791 0.144131
vt 0.197463 0.144131
vt 0.203125 0.154226
vt 0.207459 0.144131
vt 0.205470 0.144131
vt 0.234592 0.115351
vt 0.235897 0.115351
vt 0.230582 0.127402
vt 0.229695 0.127367
vt 0.186436 0.865351
vt 0.194093 0.865351
vt 0.196885 0.877367
vt 0.191609 0.877402
vt 0.212188 0.115351
vt 0.206625 0.115351
vt 0.210383 0.127402
vt 0.214216 0.127367
vt 0.234592 0.115351
vt 0.230875 0.115351
vt 0.227116 0.127402
vt 0.229695 0.127367
vt 0.203125 0.865351
vt 0.212157 0.865351
vt 0.209365 0.877367
vt 0.203125 0.877402
vt 0.202908 0.115351
vt 0.201602 0.115351
vt 0.206918 0.127402
vt 0.207805 0.127367
vt 0.212188 0.060777
vt 0.212834 0.065263
vt 0.194093 0.795227
vt 0.210693 0.821117
vt 0.211119 0.814864
vt 0.225312 0.045227
vt 0.214155 0.074271
vt 0.216513 0.074602
vt 0.212157 0.810777
vt 0.211119 0.814864
vt 0.212157 0.810777
vt 0.205820 0.824379
vt 0.216513 0.074602
vt 0.218750 0.076327
vt 0.210693 0.821117
vt 0.213078 0.071559
vt 0.212834 0.065263
vt 0.213078 0.071559
vt 0.209141 0.823893
vt 0.203125 0.826327
vt 0.205820 0.824379
vt 0.209141 0.823893
vt 0.212188 0.060777
vt 0.194093 0.795227
vt 0.194093 0.810777
vt 0.567290 0.819384
vt 0.589772 0.848950
vt 0.577429 0.858180
vt 0.555786 0.858817
vt 0.543629 0.850442
vt 0.598255 0.831041
vt 0.567290 0.775033
vt 0.531901 0.819384
vt 0.529477 0.775033
vt 0.605103 0.775033
vt 0.602679 0.819384
vt 0.567290 0.863735
vt 0.535844 0.832180
vt 0.214155 0.074271
vt 0.225312 0.060777
vt 0.225312 0.045227
vt 0.188197 0.027955
vt 0.789280 0.847278
vt 0.789280 0.902722
vt 0.789280 0.902722
vt 0.789280 0.847278
vt 0.804470 0.902722
vt 0.804470 0.847278
vt 0.804470 0.902722
vt 0.804470 0.847278
vt 0.297561 0.337203
vt 0.306878 0.343485
vt 0.306878 0.406515
vt 0.297561 0.412797
vt 0.318121 0.351066
vt 0.327439 0.357347
vt 0.327439 0.392653
vt 0.318121 0.398935
vt 0.339454 0.365449
vt 0.353621 0.375000
vt 0.353621 0.375000
vt 0.339454 0.384551
vt 0.285545 0.420898
vt 0.285545 0.329102
vt 0.271379 0.319550
vt 0.271379 0.430450
vt 0.220454 0.144131
vt 0.218750 0.144131
vt 0.218750 0.154226
vt 0.220454 0.144131
vt 0.221899 0.144131
vt 0.203125 0.865351
vt 0.194093 0.865351
vt 0.196885 0.877367
vt 0.203125 0.877402
vt 0.209254 0.144131
vt 0.208787 0.144131
vt 0.219814 0.865351
vt 0.224930 0.865351
vt 0.218190 0.877367
vt 0.214641 0.877402
vt 0.203125 0.144131
vt 0.200780 0.144131
vt 0.214636 0.144131
vt 0.215601 0.144131
vt 0.207459 0.144131
vt 0.208787 0.144131
vt 0.214636 0.144131
vt 0.214297 0.144131
vt 0.196996 0.144131
vt 0.197463 0.144131
vt 0.203125 0.144131
vt 0.205470 0.144131
vt 0.222864 0.144131
vt 0.221899 0.144131
vt 0.217046 0.144131
vt 0.215601 0.144131
vt 0.198791 0.144131
vt 0.200780 0.144131
vt 0.222864 0.144131
vt 0.223203 0.144131
vt 0.197201 0.893664
vt 0.196713 0.893664
vt 0.192277 0.886358
vt 0.193102 0.886358
vt 0.222044 0.143664
vt 0.220533 0.143664
vt 0.221766 0.136358
vt 0.224323 0.136358
vt 0.205579 0.893664
vt 0.207659 0.893664
vt 0.210796 0.886358
vt 0.207276 0.886358
vt 0.197201 0.893664
vt 0.198591 0.893664
vt 0.195454 0.886358
vt 0.193102 0.886358
vt 0.218750 0.143664
vt 0.216967 0.143664
vt 0.215734 0.136358
vt 0.218750 0.136358
vt 0.209049 0.893664
vt 0.209537 0.893664
vt 0.213973 0.886358
vt 0.213148 0.886358
vt 0.200671 0.893664
vt 0.203125 0.893664
vt 0.203125 0.886358
vt 0.198973 0.886358
vt 0.215456 0.143664
vt 0.214446 0.143664
vt 0.211468 0.136358
vt 0.213177 0.136358
vt 0.209049 0.893664
vt 0.207659 0.893664
vt 0.210796 0.886358
vt 0.213148 0.886358
vt 0.214091 0.143664
vt 0.214446 0.143664
vt 0.211468 0.136358
vt 0.210868 0.136358
vt 0.218750 0.143664
vt 0.220533 0.143664
vt 0.221766 0.136358
vt 0.218750 0.136358
vt 0.205579 0.893664
vt 0.203125 0.893664
vt 0.203125 0.886358
vt 0.207276 0.886358
vt 0.222044 0.143664
vt 0.223054 0.143664
vt 0.226032 0.136358
vt 0.224323 0.136358
vt 0.215456 0.143664
vt 0.216967 0.143664
vt 0.215734 0.136358
vt 0.213177 0.136358
vt 0.200671 0.893664
vt 0.198591 0.893664
vt 0.195454 0.886358
vt 0.198974 0.886358
vt 0.223409 0.143664
vt 0.223054 0.143664
vt 0.226032 0.136358
vt 0.226632 0.136358
vt 0.217046 0.144131
vt 0.218750 0.144131
vt 0.198591 0.143664
vt 0.200671 0.143664
vt 0.203125 0.143664
vt 0.205579 0.143664
vt 0.207659 0.143664
vt 0.209049 0.143664
vt 0.203125 0.143664
vt 0.200671 0.143664
vt 0.209537 0.143664
vt 0.209049 0.143664
vt 0.198591 0.143664
vt 0.197201 0.143664
vt 0.207659 0.143664
vt 0.205579 0.143664
vt 0.196713 0.143664
vt 0.197201 0.143664
vt 0.921648 0.807241
vt 0.939045 0.931968
vt 0.939045 0.931968
vt 0.921648 0.807241
vt 0.964748 0.903204
vt 0.937276 0.789753
vt 0.964748 0.903204
vt 0.937276 0.789753
vt 0.721259 0.338418
vt 0.721809 0.340193
vt 0.721259 0.338418
vt 0.720710 0.336643
vt 0.700547 0.350668
vt 0.699682 0.349145
vt 0.663472 0.378521
vt 0.664432 0.380192
vt 0.653473 0.395150
vt 0.652243 0.393757
vt 0.663472 0.378521
vt 0.662512 0.376852
vt 0.651014 0.392364
vt 0.652243 0.393757
vt 0.698814 0.347617
vt 0.699682 0.349145
vt 0.681041 0.363313
vt 0.680128 0.361708
vt 0.679214 0.360101
vt 0.680128 0.361708
vt 0.943851 0.926589
vt 0.959942 0.908582
vt 0.921648 0.807241
vt 0.939045 0.931968
vt 0.939045 0.931968
vt 0.921648 0.807241
vt 0.964748 0.903204
vt 0.937276 0.789753
vt 0.964748 0.903204
vt 0.937276 0.789753
vt 0.721259 0.338418
vt 0.721809 0.340193
vt 0.721259 0.338418
vt 0.720710 0.336643
vt 0.700547 0.350668
vt 0.699682 0.349145
vt 0.663472 0.378521
vt 0.664432 0.380192
vt 0.653473 0.395150
vt 0.652243 0.393757
vt 0.663472 0.378521
vt 0.662512 0.376852
vt 0.651014 0.392364
vt 0.652243 0.393757
vt 0.698814 0.347617
vt 0.699682 0.349145
vt 0.681041 0.363313
vt 0.680128 0.361708
vt 0.679214 0.360101
vt 0.680128 0.361708
vt 0.943851 0.926589
vt 0.959942 0.908582
vt 0.921648 0.807241
vt 0.939045 0.931968
vt 0.939045 0.931968
vt 0.921648 0.807241
vt 0.964748 0.903204
vt 0.937276 0.789753
vt 0.964748 0.903204
vt 0.937276 0.789753
vt 0.721259 0.338418
vt 0.721809 0.340193
vt 0.721259 0.338418
vt 0.720710 0.336643
vt 0.700547 0.350668
vt 0.699682 0.349145
vt 0.663472 0.378521
vt 0.664432 0.380192
vt 0.653473 0.395150
vt 0.652243 0.393757
vt 0.663472 0.378521
vt 0.662512 0.376852
vt 0.651014 0.392364
vt 0.652243 0.393757
vt 0.698814 0.347617
vt 0.699682 0.349145
vt 0.681041 0.363313
vt 0.680128 0.361708
vt 0.679214 0.360101
vt 0.680128 0.361708
vt 0.943851 0.926589
vt 0.959942 0.908582
vt 0.921648 0.807241
vt 0.939045 0.931968
vt 0.939045 0.931968
vt 0.921648 0.807241
vt 0.964748 0.903204
vt 0.937276 0.789753
vt 0.964748 0.903204
vt 0.937276 0.789753
vt 0.721259 0.338418
vt 0.721809 0.340193
vt 0.721259 0.338418
vt 0.720710 0.336643
vt 0.700547 0.350668
vt 0.699682 0.349145
vt 0.663472 0.378521
vt 0.664432 0.380192
vt 0.653473 0.395150
vt 0.652243 0.393757
vt 0.663472 0.378521
vt 0.662512 0.376852
vt 0.651014 0.392364
vt 0.652243 0.393757
vt 0.698814 0.347617
vt 0.699682 0.349145
vt 0.681041 0.363313
vt 0.680128 0.361708
vt 0.679214 0.360101
vt 0.680128 0.361708
vt 0.943851 0.926589
vt 0.959942 0.908582
vt 0.335563 0.379702
vt 0.348234 0.370495
vt 0.344212 0.395603
vt 0.324853 0.387957
vt 0.339662 0.421600
vt 0.333210 0.439505
vt 0.316530 0.401612
vt 0.323399 0.449780
vt 0.311589 0.422951
vt 0.308465 0.455762
vt 0.341235 0.334524
vt 0.341287 0.334449
vt 0.347978 0.324689
vt 0.347978 0.324689
vt 0.335563 0.364077
vt 0.334731 0.348907
vt 0.348234 0.354870
vt 0.334731 0.348907
vt 0.334731 0.348907
vt 0.337024 0.342236
vt 0.337023 0.342240
vt 0.335563 0.379702
vt 0.344212 0.395603
vt 0.348234 0.370495
vt 0.324853 0.387957
vt 0.316530 0.401612
vt 0.333210 0.439505
vt 0.339662 0.421600
vt 0.311589 0.422951
vt 0.323399 0.449780
vt 0.308465 0.455762
vt 0.335563 0.364077
vt 0.348234 0.354870
vt 0.349484 0.341440
vt 0.349504 0.341671
vt 0.341183 0.334600
vt 0.347978 0.324689
vt 0.349525 0.341902
vt 0.323399 0.449780
vt 0.308465 0.455762
vt 0.316530 0.401612
vt 0.324853 0.387957
vt 0.335563 0.364077
vt 0.311589 0.422951
vt 0.349547 0.351457
vt 0.349554 0.351438
vt 0.348234 0.354870
vt 0.344212 0.395603
vt 0.339662 0.421600
vt 0.333210 0.439505
vt 0.348234 0.370495
vt 0.335563 0.379702
vt 0.349539 0.351476
vt 0.337022 0.342244
vt 0.335563 0.379702
vt 0.344212 0.395603
vt 0.348234 0.370495
vt 0.324853 0.387957
vt 0.316530 0.401612
vt 0.333210 0.439505
vt 0.339662 0.421600
vt 0.311589 0.422951
vt 0.323399 0.449780
vt 0.308465 0.455762
vt 0.341235 0.334524
vt 0.347978 0.324689
vt 0.347978 0.324689
vt 0.341287 0.334449
vt 0.335563 0.364077
vt 0.348234 0.354870
vt 0.334731 0.348907
vt 0.334731 0.348907
vt 0.337023 0.342240
vt 0.337024 0.342236
vt 0.334731 0.348907
vt 0.335563 0.379702
vt 0.348234 0.370495
vt 0.344212 0.395603
vt 0.324853 0.387957
vt 0.339662 0.421600
vt 0.333210 0.439505
vt 0.316530 0.401612
vt 0.323399 0.449780
vt 0.311589 0.422951
vt 0.308465 0.455762
vt 0.335563 0.364077
vt 0.348234 0.354870
vt 0.349484 0.341440
vt 0.349504 0.341671
vt 0.341183 0.334600
vt 0.349525 0.341902
vt 0.347978 0.324689
vt 0.323399 0.449780
vt 0.308465 0.455762
vt 0.316530 0.401612
vt 0.324853 0.387957
vt 0.335563 0.364077
vt 0.311589 0.422951
vt 0.349547 0.351457
vt 0.348234 0.354870
vt 0.349554 0.351438
vt 0.344212 0.395603
vt 0.339662 0.421600
vt 0.333210 0.439505
vt 0.348234 0.370495
vt 0.335563 0.379702
vt 0.337022 0.342244
vt 0.349539 0.351476
vn -0.7794 -0.6161 0.1132
vn 0.7794 -0.6161 -0.1132
vn -0.6312 -0.6161 0.4711
vn 0.6312 -0.6161 -0.4711
vn -0.6312 -0.6161 -0.4711
vn 0.6312 -0.6161 0.4711
vn -0.7794 -0.6161 -0.1132
vn 0.7794 -0.6161 0.1132
vn -0.1132 -0.6161 -0.7794
vn 0.1132 -0.6161 0.7794
vn -0.4711 -0.6161 -0.6312
vn 0.4711 -0.6161 0.6312
vn 0.4711 -0.6161 -0.6312
vn -0.1132 -0.6161 0.7794
vn -0.4711 -0.6161 0.6312
vn 0.1132 -0.6161 -0.7794
vn -0.3721 0.2337 -0.8983
vn 0.0000 0.2337 -0.9723
vn -0.6875 0.2337 -0.6875
vn -0.8983 0.2337 -0.3721
vn -0.9723 0.2337 0.0000
vn -0.8983 0.2337 0.3721
vn -0.6875 0.2337 0.6875
vn -0.5053 0.2311 0.8314
vn -0.3721 0.2337 0.8983
vn 0.0000 -1.0000 0.0000
vn 0.6875 0.2337 0.6875
vn 0.3721 0.2337 0.8983
vn 0.4979 0.2314 0.8358
vn 0.8983 0.2337 0.3721
vn 0.9723 0.2337 -0.0000
vn 0.8983 0.2337 -0.3721
vn 0.6875 0.2337 -0.6875
vn 0.3721 0.2337 -0.8983
vn -0.1899 0.2294 0.9546
vn -0.3721 0.2336 0.8983
vn 0.3721 0.2336 0.8983
vn 0.1899 0.2294 0.9546
vn -0.0000 0.2632 -0.9647
vn 0.2002 0.2578 -0.9452
vn 0.5268 0.2578 -0.8100
vn 0.6822 0.2632 -0.6822
vn 0.8100 0.2578 -0.5268
vn 0.9452 0.2578 -0.2002
vn 0.9647 0.2632 -0.0000
vn 0.9452 0.2578 0.2002
vn 0.8100 0.2578 0.5268
vn 0.6822 0.2632 0.6822
vn 0.5268 0.2578 0.8100
vn 0.2002 0.2578 0.9452
vn 0.0000 0.2632 0.9647
vn -0.2002 0.2578 0.9452
vn -0.5268 0.2578 0.8100
vn -0.6822 0.2632 0.6822
vn -0.8100 0.2578 0.5268
vn -0.9452 0.2578 0.2002
vn -0.9647 0.2632 -0.0000
vn -0.9452 0.2578 -0.2002
vn -0.8100 0.2578 -0.5268
vn -0.6822 0.2632 -0.6822
vn 0.4327 0.9015 0.0000
vn 0.3975 0.9027 -0.1646
vn 0.4630 0.8654 -0.1918
vn 0.5007 0.8656 0.0000
vn -0.5268 0.2578 -0.8100
vn -0.2002 0.2578 -0.9452
vn -0.1646 0.9027 0.3975
vn -0.0000 0.9015 0.4327
vn 0.0000 0.8656 0.5007
vn -0.1918 0.8654 0.4630
vn -0.3059 0.9015 -0.3059
vn -0.3975 0.9027 -0.1646
vn -0.4630 0.8654 -0.1918
vn -0.3540 0.8656 -0.3540
vn 0.3059 0.9015 -0.3059
vn 0.1646 0.9027 -0.3975
vn 0.1918 0.8654 -0.4630
vn 0.3540 0.8656 -0.3540
vn 0.1646 0.9027 0.3975
vn 0.3059 0.9015 0.3059
vn 0.3540 0.8656 0.3540
vn 0.1918 0.8654 0.4630
vn 0.0000 0.9015 -0.4327
vn -0.0000 0.8656 -0.5007
vn -0.4327 0.9015 -0.0000
vn -0.3975 0.9027 0.1646
vn -0.4630 0.8654 0.1918
vn -0.5007 0.8656 -0.0000
vn -0.3059 0.9015 0.3059
vn -0.3540 0.8656 0.3540
vn -0.5135 0.6875 -0.5135
vn -0.6731 0.6850 -0.2788
vn 0.0000 1.0000 0.0000
vn 0.5135 0.6875 -0.5135
vn 0.2788 0.6850 -0.6731
vn 0.3975 0.9027 0.1646
vn 0.4630 0.8654 0.1918
vn -0.1646 0.9027 -0.3975
vn -0.1918 0.8654 -0.4630
vn -0.5407 0.2294 0.8093
vn 0.5407 0.2294 0.8093
vn -0.9533 -0.3020 0.0000
vn -0.8149 -0.5796 0.0000
vn -0.8134 -0.5817 0.0000
vn -0.9460 -0.3241 0.0000
vn -0.0348 -0.9994 0.0000
vn 0.3085 -0.9512 0.0000
vn 0.3132 -0.9497 0.0000
vn -0.0330 -0.9995 0.0000
vn -0.6103 -0.7922 0.0000
vn -0.6115 -0.7913 0.0000
vn 0.6189 -0.7855 0.0000
vn 0.8547 -0.5192 0.0000
vn 0.8523 -0.5231 0.0000
vn 0.6198 -0.7848 0.0000
vn -0.3552 -0.9348 0.0000
vn -0.3583 -0.9336 0.0000
vn 0.9652 -0.2616 0.0000
vn 0.9596 -0.2813 0.0000
vn 0.9958 -0.0916 0.0000
vn -0.0000 0.0000 1.0000
vn -0.9958 -0.0916 0.0000
vn -0.7071 0.0000 0.7071
vn -0.7071 0.0000 -0.7071
vn 0.7071 0.0000 -0.7071
vn 0.7071 0.0000 0.7071
vn 0.3271 -0.0000 0.9450
vn 0.3179 -0.0000 0.9481
vn -0.2566 -0.0000 0.9665
vn -0.3726 -0.0000 0.9280
vn 0.0672 -0.0000 0.9977
vn 0.3128 -0.0000 0.9498
vn -0.1186 -0.0000 0.9929
vn -0.3128 -0.0000 0.9498
vn -0.0000 0.6875 -0.7261
vn 0.2788 0.6850 0.6731
vn 0.5135 0.6875 0.5135
vn 0.7261 0.6875 0.0000
vn 0.6731 0.6850 -0.2788
vn -0.2788 0.6850 -0.6731
vn -0.6731 0.6850 0.2788
vn -0.5135 0.6875 0.5135
vn 0.6731 0.6850 0.2788
vn -0.7261 0.6875 0.0000
vn 0.0000 0.6875 0.7261
vn -0.2788 0.6850 0.6731
vn -0.6672 0.6917 0.2764
vn -0.7203 0.6936 -0.0000
vn -0.6470 0.7625 -0.0000
vn -0.6000 0.7604 0.2485
vn 0.5094 0.6936 0.5094
vn 0.2764 0.6917 0.6672
vn 0.2485 0.7604 0.6000
vn 0.4575 0.7625 0.4575
vn 0.2764 0.6917 -0.6672
vn 0.5094 0.6936 -0.5094
vn 0.4575 0.7625 -0.4575
vn 0.2485 0.7604 -0.6000
vn -0.6672 0.6917 -0.2764
vn -0.5094 0.6936 -0.5094
vn -0.4575 0.7625 -0.4575
vn -0.6000 0.7604 -0.2485
vn 0.0000 0.6936 0.7203
vn -0.2764 0.6917 0.6672
vn -0.2485 0.7604 0.6000
vn 0.0000 0.7625 0.6470
vn 0.6672 0.6917 -0.2764
vn 0.7203 0.6936 0.0000
vn 0.6470 0.7625 0.0000
vn 0.6000 0.7604 -0.2485
vn -0.2764 0.6917 -0.6672
vn 0.0000 0.6936 -0.7203
vn 0.0000 0.7625 -0.6470
vn -0.2485 0.7604 -0.6000
vn -0.5094 0.6936 0.5094
vn -0.4575 0.7625 0.4575
vn 0.6672 0.6917 0.2764
vn 0.6000 0.7604 0.2485
vn 0.9697 -0.2441 -0.0000
vn 0.8963 -0.2425 0.3713
vn -0.3713 -0.2425 0.8963
vn -0.6857 -0.2441 0.6857
vn -0.6857 -0.2441 -0.6857
vn -0.3713 -0.2425 -0.8963
vn 0.6857 -0.2441 -0.6857
vn 0.8963 -0.2425 -0.3713
vn 0.3713 -0.2425 0.8963
vn -0.0000 -0.2441 0.9697
vn -0.0000 -0.2441 -0.9697
vn 0.3713 -0.2425 -0.8963
vn -0.9697 -0.2441 0.0000
vn -0.8963 -0.2425 -0.3713
vn 0.6857 -0.2441 0.6857
vn -0.8963 -0.2425 0.3713
vn -0.6695 0.3218 -0.6695
vn 0.6731 -0.0932 -0.7336
vn 0.6090 -0.5083 0.6090
vn -0.7336 -0.0932 0.6731
vn -0.2950 -0.9088 -0.2950
vn 0.6755 -0.2958 0.6755
vn -0.2651 0.6452 0.7166
vn -0.2407 0.6251 0.7425
vn -0.1119 0.4711 0.8750
vn -0.1034 0.4593 0.8822
vn -0.0801 0.4265 0.9009
vn 0.1047 -0.4608 -0.8813
vn 0.1132 -0.4725 -0.8740
vn 0.0812 -0.4280 -0.9001
vn -0.8740 -0.4725 0.1132
vn -0.8813 -0.4608 0.1047
vn -0.9001 -0.4280 0.0812
vn -0.5302 0.6617 -0.5302
vn 0.8822 0.4593 -0.1034
vn 0.8750 0.4711 -0.1119
vn 0.9009 0.4265 -0.0801
vn 0.2639 -0.6437 -0.7183
vn 0.2412 -0.6248 -0.7425
vn 0.2413 -0.6249 -0.7425
vn -0.7183 -0.6437 0.2639
vn -0.7425 -0.6249 0.2413
vn -0.7425 -0.6248 0.2412
vn 0.8163 0.5512 -0.1729
vn 0.8098 0.5587 -0.1790
vn 0.7425 0.6251 -0.2407
vn 0.1749 -0.5526 -0.8149
vn 0.1809 -0.5599 -0.8086
vn -0.8086 -0.5599 0.1809
vn -0.8149 -0.5526 0.1750
vn -0.1790 0.5587 0.8098
vn -0.1729 0.5512 0.8163
vn 0.7166 0.6452 -0.2651
vn 0.2950 0.9088 0.2950
vn 0.2972 0.9535 0.0510
vn 0.0510 0.9535 0.2972
vn 0.5209 0.8082 0.2747
vn 0.2747 0.8082 0.5209
vn 0.6695 0.3218 -0.6695
vn 0.7336 -0.0932 0.6731
vn -0.6090 -0.5083 0.6090
vn -0.6731 -0.0932 -0.7336
vn 0.2950 -0.9088 -0.2950
vn -0.6755 -0.2958 0.6755
vn -0.7166 0.6452 -0.2651
vn -0.7425 0.6251 -0.2407
vn -0.8750 0.4711 -0.1119
vn -0.8822 0.4593 -0.1034
vn -0.9009 0.4265 -0.0801
vn 0.8813 -0.4608 0.1047
vn 0.8740 -0.4725 0.1132
vn 0.9001 -0.4280 0.0812
vn -0.1132 -0.4725 -0.8740
vn -0.1047 -0.4608 -0.8813
vn -0.0812 -0.4280 -0.9001
vn 0.5302 0.6617 -0.5302
vn 0.1034 0.4593 0.8822
vn 0.1119 0.4711 0.8750
vn 0.0801 0.4265 0.9009
vn 0.7183 -0.6437 0.2639
vn 0.7425 -0.6248 0.2412
vn 0.7425 -0.6249 0.2413
vn -0.2639 -0.6437 -0.7183
vn -0.2413 -0.6249 -0.7425
vn -0.2412 -0.6248 -0.7425
vn 0.1729 0.5512 0.8163
vn 0.1790 0.5587 0.8098
vn 0.2407 0.6251 0.7425
vn 0.8149 -0.5526 0.1750
vn 0.8086 -0.5599 0.1809
vn -0.1809 -0.5599 -0.8086
vn -0.1750 -0.5526 -0.8149
vn -0.8098 0.5587 -0.1790
vn -0.8163 0.5512 -0.1729
vn 0.2651 0.6452 0.7166
vn -0.2950 0.9088 0.2950
vn -0.0510 0.9535 0.2972
vn -0.2972 0.9535 0.0510
vn -0.2747 0.8082 0.5209
vn -0.5209 0.8082 0.2747
vn 0.6695 0.3218 0.6695
vn -0.6731 -0.0932 0.7336
vn -0.6090 -0.5083 -0.6090
vn 0.7336 -0.0932 -0.6731
vn 0.2950 -0.9088 0.2950
vn -0.6755 -0.2958 -0.6755
vn 0.2651 0.6452 -0.7166
vn 0.2407 0.6251 -0.7425
vn 0.1119 0.4711 -0.8750
vn 0.1034 0.4593 -0.8822
vn 0.0801 0.4265 -0.9009
vn -0.1047 -0.4608 0.8813
vn -0.1132 -0.4725 0.8740
vn -0.0812 -0.4280 0.9001
vn 0.8740 -0.4725 -0.1132
vn 0.8813 -0.4608 -0.1047
vn 0.9001 -0.4280 -0.0812
vn 0.5302 0.6617 0.5302
vn -0.8822 0.4593 0.1034
vn -0.8750 0.4711 0.1119
vn -0.9009 0.4265 0.0801
vn -0.2639 -0.6437 0.7183
vn -0.2412 -0.6248 0.7425
vn -0.2413 -0.6249 0.7425
vn 0.7183 -0.6437 -0.2639
vn 0.7425 -0.6249 -0.2413
vn 0.7425 -0.6248 -0.2412
vn -0.8163 0.5512 0.1729
vn -0.8098 0.5587 0.1790
vn -0.7425 0.6251 0.2407
vn -0.1750 -0.5526 0.8149
vn -0.1809 -0.5599 0.8086
vn 0.8086 -0.5599 -0.1809
vn 0.8149 -0.5526 -0.1750
vn 0.1790 0.5587 -0.8098
vn 0.1729 0.5512 -0.8163
vn -0.7166 0.6452 0.2651
vn -0.2950 0.9088 -0.2950
vn -0.2972 0.9535 -0.0510
vn -0.0510 0.9535 -0.2972
vn -0.5209 0.8082 -0.2747
vn -0.2747 0.8082 -0.5209
vn -0.6695 0.3218 0.6695
vn -0.7336 -0.0932 -0.6731
vn 0.6090 -0.5083 -0.6090
vn 0.6731 -0.0932 0.7336
vn -0.2950 -0.9088 0.2950
vn 0.6755 -0.2958 -0.6755
vn 0.7166 0.6452 0.2651
vn 0.7425 0.6251 0.2407
vn 0.8750 0.4711 0.1119
vn 0.8822 0.4593 0.1034
vn 0.9009 0.4265 0.0801
vn -0.8813 -0.4608 -0.1047
vn -0.8740 -0.4725 -0.1132
vn -0.9001 -0.4280 -0.0812
vn 0.1132 -0.4725 0.8740
vn 0.1047 -0.4608 0.8813
vn 0.0812 -0.4280 0.9001
vn -0.5302 0.6617 0.5302
vn -0.1034 0.4593 -0.8822
vn -0.1119 0.4711 -0.8750
vn -0.0801 0.4265 -0.9009
vn -0.7183 -0.6437 -0.2639
vn -0.7425 -0.6248 -0.2412
vn -0.7425 -0.6249 -0.2413
vn 0.2639 -0.6437 0.7183
vn 0.2413 -0.6249 0.7425
vn 0.2412 -0.6248 0.7425
vn -0.1729 0.5512 -0.8163
vn -0.1790 0.5587 -0.8098
vn -0.2407 0.6251 -0.7425
vn -0.8149 -0.5526 -0.1750
vn -0.8086 -0.5599 -0.1809
vn 0.1809 -0.5599 0.8086
vn 0.1750 -0.5526 0.8149
vn 0.8098 0.5587 0.1790
vn 0.8163 0.5512 0.1729
vn -0.2651 0.6452 -0.7166
vn 0.2950 0.9088 -0.2950
vn 0.0510 0.9535 -0.2972
vn 0.2972 0.9535 -0.0510
vn 0.2747 0.8082 -0.5209
vn 0.5209 0.8082 -0.2747
vn 0.0239 0.1766 0.9840
vn 0.0530 0.1785 0.9825
vn 0.0153 0.1571 0.9875
vn -0.0103 0.1830 0.9831
vn -0.0082 0.1813 0.9834
vn -0.0160 0.1794 0.9836
vn -0.0158 0.1783 0.9838
vn -0.0323 0.1709 0.9848
vn -0.0286 0.1701 0.9850
vn -0.0624 0.1769 0.9823
vn -0.6092 -0.7737 0.1738
vn -0.5527 -0.7800 -0.2934
vn -0.4170 -0.8857 -0.2040
vn -0.4245 -0.8915 0.1583
vn 0.0596 0.2050 0.9770
vn -0.8110 -0.2659 -0.5211
vn -0.8112 -0.2511 -0.5281
vn -0.7502 -0.4980 -0.4349
vn -0.7500 -0.4986 -0.4347
vn -0.0319 -0.1719 -0.9846
vn -0.0215 -0.1502 -0.9884
vn -0.0594 -0.1784 -0.9822
vn 0.0095 -0.1814 -0.9834
vn 0.0207 -0.1808 -0.9833
vn 0.2297 0.1759 -0.9572
vn 0.3346 0.1145 -0.9354
vn 0.0293 -0.1705 -0.9849
vn 0.0307 -0.1696 -0.9850
vn 0.0418 -0.1628 -0.9858
vn -0.0664 -0.2094 -0.9756
vn -0.0806 -0.1925 -0.9780
vn -0.0812 -0.1951 -0.9774
vn -0.0853 -0.2137 -0.9732
vn 0.7858 -0.4088 -0.4640
vn 0.7580 -0.4007 -0.5148
vn 0.7531 -0.3992 -0.5230
vn 0.0873 0.1992 0.9761
vn 0.1006 0.1783 0.9788
vn 0.0889 0.1968 0.9764
vn 0.2204 0.6691 -0.7097
vn 0.1469 0.7265 -0.6713
vn -0.0138 0.8235 -0.5672
vn -0.5365 -0.6204 -0.5721
vn -0.5566 -0.6042 -0.5701
vn -0.3836 -0.7610 -0.5231
vn -0.3854 -0.7583 -0.5258
vn -0.8086 -0.1741 -0.5620
vn -0.9093 -0.2368 -0.3423
vn -0.8181 -0.3640 -0.4452
vn -0.7840 -0.4009 -0.4739
vn 0.7032 -0.1904 -0.6850
vn 0.7077 -0.2152 -0.6729
vn 0.6641 0.0303 -0.7470
vn 0.6632 0.0233 -0.7480
vn 0.6621 0.1478 -0.7347
vn 0.6627 0.1421 -0.7353
vn 0.5534 0.3222 -0.7681
vn 0.4030 0.4725 -0.7838
vn -0.0713 -0.2026 -0.9767
vn -0.0709 -0.2035 -0.9765
vn -0.3467 -0.8130 -0.4677
vn 0.0726 0.2049 0.9761
vn 0.0721 0.2049 0.9761
vn 0.8490 0.0598 0.5249
vn 0.8614 -0.0127 0.5077
vn 0.8970 -0.2511 0.3636
vn 0.8901 -0.2441 0.3848
vn -0.6546 -0.2721 0.7053
vn -0.6656 -0.2266 0.7111
vn -0.4940 -0.6547 0.5721
vn 0.3958 0.7308 0.5561
vn 0.3973 0.7290 0.5574
vn 0.1822 0.8697 0.4588
vn 0.1532 0.8822 0.4453
vn -0.3925 -0.5194 0.7590
vn -0.4036 -0.4947 0.7696
vn -0.5285 -0.3308 0.7818
vn -0.6048 -0.1639 0.7793
vn -0.7602 -0.1446 0.6334
vn -0.7552 -0.1482 0.6385
vn -0.5475 -0.3228 0.7720
vn -0.5384 -0.3318 0.7747
vn 0.7910 0.2530 0.5571
vn 0.7909 0.2531 0.5571
vn 0.7518 0.3683 0.5470
vn 0.7612 0.3438 0.5499
vn 0.5871 0.5810 0.5636
vn 0.5645 0.5997 0.5671
vn -0.8552 -0.0658 0.5142
vn -0.6898 0.0274 0.7234
vn -0.6902 0.0206 0.7233
vn -0.0521 0.9399 0.3374
vn 0.9137 -0.2698 0.3040
vn -0.3840 -0.7974 0.4655
vn -0.0239 0.1766 0.9840
vn -0.0153 0.1571 0.9875
vn -0.0530 0.1785 0.9825
vn 0.0103 0.1830 0.9831
vn 0.0158 0.1783 0.9838
vn 0.0160 0.1794 0.9836
vn 0.0082 0.1813 0.9834
vn 0.0286 0.1701 0.9850
vn 0.0323 0.1709 0.9848
vn 0.0624 0.1769 0.9823
vn 0.6092 -0.7737 0.1738
vn 0.4245 -0.8915 0.1583
vn 0.4170 -0.8857 -0.2040
vn 0.5527 -0.7800 -0.2934
vn -0.0596 0.2050 0.9770
vn 0.8110 -0.2659 -0.5211
vn 0.7500 -0.4986 -0.4347
vn 0.7502 -0.4980 -0.4349
vn 0.8112 -0.2511 -0.5281
vn 0.0319 -0.1719 -0.9846
vn 0.0594 -0.1784 -0.9822
vn 0.0215 -0.1502 -0.9884
vn -0.0095 -0.1814 -0.9834
vn -0.3346 0.1145 -0.9354
vn -0.2297 0.1759 -0.9572
vn -0.0207 -0.1808 -0.9833
vn -0.0307 -0.1696 -0.9850
vn -0.0293 -0.1705 -0.9849
vn -0.0418 -0.1628 -0.9858
vn 0.0664 -0.2094 -0.9756
vn 0.0806 -0.1925 -0.9780
vn 0.0853 -0.2137 -0.9732
vn 0.0812 -0.1951 -0.9774
vn -0.7858 -0.4088 -0.4640
vn -0.7531 -0.3992 -0.5230
vn -0.7580 -0.4007 -0.5148
vn -0.0873 0.1992 0.9761
vn -0.0889 0.1968 0.9764
vn -0.1006 0.1783 0.9788
vn -0.2204 0.6691 -0.7097
vn 0.0138 0.8235 -0.5672
vn -0.1469 0.7265 -0.6713
vn 0.5365 -0.6204 -0.5721
vn 0.3854 -0.7583 -0.5258
vn 0.3836 -0.7610 -0.5231
vn 0.5566 -0.6042 -0.5701
vn 0.8086 -0.1741 -0.5620
vn 0.9093 -0.2368 -0.3423
vn 0.7840 -0.4009 -0.4739
vn 0.8181 -0.3640 -0.4452
vn -0.7032 -0.1904 -0.6850
vn -0.6632 0.0233 -0.7480
vn -0.6641 0.0303 -0.7470
vn -0.7077 -0.2152 -0.6729
vn -0.6621 0.1478 -0.7347
vn -0.5534 0.3222 -0.7681
vn -0.6627 0.1421 -0.7353
vn -0.4030 0.4725 -0.7838
vn 0.0713 -0.2026 -0.9767
vn 0.0709 -0.2035 -0.9765
vn 0.3467 -0.8130 -0.4677
vn -0.0721 0.2049 0.9761
vn -0.0726 0.2049 0.9761
vn -0.8490 0.0598 0.5249
vn -0.8901 -0.2441 0.3848
vn -0.8970 -0.2511 0.3636
vn -0.8614 -0.0127 0.5077
vn 0.6546 -0.2721 0.7053
vn 0.4940 -0.6547 0.5721
vn 0.6656 -0.2266 0.7111
vn -0.3958 0.7308 0.5561
vn -0.1532 0.8822 0.4453
vn -0.1822 0.8697 0.4588
vn -0.3973 0.7290 0.5574
vn 0.3925 -0.5194 0.7590
vn 0.6048 -0.1639 0.7793
vn 0.5285 -0.3308 0.7818
vn 0.4036 -0.4947 0.7696
vn 0.7602 -0.1446 0.6334
vn 0.5384 -0.3318 0.7747
vn 0.5475 -0.3228 0.7720
vn 0.7552 -0.1482 0.6385
vn -0.7910 0.2530 0.5571
vn -0.7612 0.3438 0.5499
vn -0.7518 0.3683 0.5470
vn -0.7909 0.2531 0.5571
vn -0.5871 0.5810 0.5636
vn -0.5645 0.5997 0.5671
vn 0.8552 -0.0658 0.5142
vn 0.6902 0.0206 0.7233
vn 0.6898 0.0274 0.7234
vn 0.0521 0.9399 0.3374
vn -0.9137 -0.2698 0.3040
vn 0.3840 -0.7974 0.4655
usemtl KayKit_Texture_A
s 1
f 18/1/1 33/2/1 62/3/1 52/4/1
f 6/5/2 27/6/2 58/7/2 44/8/2
f 35/9/3 18/1/3 52/4/3 63/10/3
f 29/11/4 6/5/4 44/8/4 59/12/4
f 21/13/5 35/9/5 63/10/5 54/14/5
f 9/15/6 29/11/6 59/12/6 46/16/6
f 37/17/7 21/13/7 54/14/7 64/18/7
f 31/19/8 9/15/8 46/16/8 60/20/8
f 24/21/9 37/17/9 64/18/9 56/22/9
f 12/23/10 31/19/10 60/20/10 48/24/10
f 25/25/11 24/21/11 56/22/11 42/26/11
f 32/27/12 12/23/12 48/24/12 61/28/12
f 3/29/13 25/25/13 42/26/13 40/30/13
f 33/2/14 15/31/14 50/32/14 62/3/14
f 15/31/15 32/27/15 61/28/15 50/32/15
f 27/6/16 3/29/16 40/30/16 58/7/16
f 23/33/17 38/34/17 25/35/18 1/36/18
f 22/37/19 37/38/19 38/39/17 23/40/17
f 20/41/20 36/42/20 37/43/19 22/44/19
f 19/45/21 35/46/21 36/47/20 20/48/20
f 17/49/22 34/50/22 35/51/21 19/52/21
f 16/53/23 33/54/23 34/55/22 17/56/22
f 66/57/24 69/58/25 33/59/23 16/60/23
f 14/61/26 16/62/26 78/63/26
f 10/64/27 31/65/27 73/66/28 65/67/29
f 8/68/30 30/69/30 31/70/27 10/71/27
f 7/72/31 29/73/31 30/74/30 8/75/30
f 5/76/32 28/77/32 29/78/31 7/79/31
f 4/80/33 27/81/33 28/82/32 5/83/32
f 2/84/34 26/85/34 27/86/33 4/87/33
f 1/88/18 25/89/18 26/90/34 2/91/34
f 69/92/25 32/93/35 15/94/36
f 73/95/28 12/96/37 32/97/38
f 73/66/28 31/65/27 12/98/37
f 30/69/30 9/99/30 31/70/27
f 30/74/30 29/73/31 9/100/30
f 28/77/32 6/101/32 29/78/31
f 28/82/32 27/81/33 6/102/32
f 26/85/34 3/103/34 27/86/33
f 26/90/34 25/89/18 3/104/34
f 38/34/17 24/105/17 25/35/18
f 38/39/17 37/38/19 24/106/17
f 36/42/20 21/107/20 37/43/19
f 36/47/20 35/46/21 21/108/20
f 34/50/22 18/109/22 35/51/21
f 34/55/22 33/54/23 18/110/22
f 69/58/25 15/111/36 33/59/23
f 1/112/26 2/113/26 39/114/26
f 2/113/26 4/115/26 39/114/26
f 4/115/26 5/116/26 39/114/26
f 5/116/26 7/117/26 39/114/26
f 7/117/26 8/118/26 39/114/26
f 8/118/26 10/119/26 39/114/26
f 10/119/26 11/120/26 13/121/26
f 16/62/26 39/114/26 78/63/26
f 16/62/26 17/122/26 39/114/26
f 17/122/26 19/123/26 39/114/26
f 19/123/26 20/124/26 39/114/26
f 20/124/26 22/125/26 39/114/26
f 22/125/26 23/126/26 39/114/26
f 23/126/26 1/112/26 39/114/26
f 42/127/39 41/128/39 40/129/40
f 40/129/41 43/130/42 58/131/42
f 58/131/42 43/130/42 44/132/43
f 44/132/44 45/133/45 59/134/45
f 59/134/45 45/133/45 46/135/46
f 46/135/47 47/136/48 60/137/48
f 60/137/48 47/136/48 48/138/49
f 48/138/50 49/139/51 61/140/51
f 61/140/51 49/139/51 50/141/52
f 50/141/53 51/142/54 62/143/54
f 62/143/54 51/142/54 52/144/55
f 52/144/56 53/145/57 63/146/57
f 63/146/57 53/145/57 54/147/58
f 54/147/59 55/148/60 64/149/60
f 45/150/61 44/151/62 132/152/63 115/153/64
f 64/149/60 55/148/60 56/154/65
f 56/154/66 41/128/39 42/127/39
f 50/155/67 49/156/68 138/157/69 112/158/70
f 55/159/71 54/160/72 150/161/73 124/162/74
f 43/163/75 40/164/76 144/165/77 130/166/78
f 48/167/79 47/168/80 153/169/81 136/170/82
f 40/171/76 41/172/83 142/173/84 144/174/77
f 53/175/85 52/176/86 156/177/87 148/178/88
f 52/179/86 51/180/89 120/181/90 156/182/87
f 123/183/91 151/184/92 57/185/93
f 129/186/94 145/187/95 57/185/93
f 46/188/96 45/189/61 115/190/64 117/191/97
f 51/192/89 50/193/67 112/194/70 120/195/90
f 56/196/98 55/197/71 124/198/74 126/199/99
f 44/200/62 43/201/75 130/202/78 132/203/63
f 49/204/68 48/205/79 136/206/82 138/207/69
f 54/208/72 53/209/85 148/210/88 150/211/73
f 69/92/25 66/212/24 67/213/35
f 14/214/100 66/57/24 16/60/23
f 73/95/28 74/215/38 72/216/38
f 11/217/101 10/64/27 65/67/29
f 69/92/25 70/218/35 68/219/35
f 65/220/102 72/216/103 82/221/104 75/222/105
f 73/95/28 32/97/38 71/223/38
f 32/93/106 68/219/107 85/224/108 80/225/109
f 72/216/103 74/215/110 81/226/111 82/221/104
f 70/227/112 67/213/113 83/228/114 84/229/115
f 65/220/29 73/95/28 72/216/38
f 74/230/38 73/95/28 71/223/38
f 71/223/116 32/97/106 80/231/109 86/232/117
f 74/230/110 71/223/116 86/232/117 81/233/111
f 67/213/113 66/212/118 79/234/119 83/228/114
f 66/57/118 14/214/120 78/235/120 79/236/119
f 32/93/35 69/92/25 68/219/35
f 70/227/35 69/92/25 67/213/35
f 77/237/121 81/238/121 86/239/121
f 77/237/121 85/240/121 84/241/121
f 82/242/121 81/238/121 77/237/121
f 76/243/121 77/237/121 79/244/121 78/245/121
f 13/246/121 75/247/121 77/237/121 76/243/121
f 75/247/121 82/242/121 77/237/121
f 77/237/121 86/239/121 80/248/121
f 77/237/121 84/241/121 83/249/121
f 77/237/121 80/248/121 85/240/121
f 77/237/121 83/249/121 79/244/121
f 68/219/107 70/218/112 84/250/115 85/224/108
f 11/217/122 65/67/102 75/251/105 13/252/122
f 39/114/26 10/119/26 13/121/26
f 76/253/26 39/114/26 13/121/26
f 78/63/26 39/114/26 76/253/26
f 87/254/123 88/255/123 90/256/123 89/257/123
f 89/257/124 90/256/124 94/258/124 93/259/124
f 93/259/125 94/258/125 92/260/125 91/261/125
f 91/261/126 92/260/126 88/255/126 87/254/126
f 94/258/93 90/256/93 88/255/93 92/260/93
f 99/262/127 102/263/128 107/264/128 110/265/127
f 101/266/129 104/267/130 105/268/130 108/269/129
f 103/270/131 96/271/132 98/272/132 106/273/131
f 99/262/127 110/265/127 109/274/133 100/275/133
f 101/266/129 108/269/129 107/264/128 102/263/128
f 103/270/131 106/273/131 105/268/130 104/267/130
f 95/276/134 100/275/133 109/274/133 97/277/134
f 145/278/95 141/279/135 57/280/93
f 135/281/136 154/282/137 57/280/93
f 41/283/83 56/284/98 126/285/99 142/286/84
f 114/287/138 133/288/139 57/185/93
f 47/289/80 46/290/96 117/291/97 153/292/81
f 141/293/135 127/294/140 57/185/93
f 157/295/141 121/296/142 57/280/93
f 154/297/137 118/298/143 57/185/93
f 151/299/92 147/300/144 57/280/93
f 147/301/144 157/302/141 57/185/93
f 139/303/145 135/304/136 57/185/93
f 133/305/139 129/306/94 57/280/93
f 127/307/140 123/308/91 57/280/93
f 121/309/142 111/310/146 57/185/93
f 118/311/143 114/312/138 57/280/93
f 159/313/147 160/314/148 149/315/149 158/316/150
f 158/316/150 149/315/149 148/178/88 156/177/87
f 161/317/151 162/318/152 137/319/153 155/320/154
f 155/320/154 137/319/153 136/170/82 153/169/81
f 163/321/155 164/322/156 131/323/157 146/324/158
f 146/324/158 131/323/157 130/166/78 144/165/77
f 165/325/159 166/326/160 125/327/161 152/328/162
f 152/328/162 125/327/161 124/162/74 150/161/73
f 167/329/163 168/330/164 113/331/165 140/332/166
f 140/332/166 113/331/165 112/158/70 138/157/69
f 169/333/167 170/334/168 116/335/169 134/336/170
f 134/336/170 116/335/169 115/153/64 132/152/63
f 171/337/171 172/338/172 143/339/173 128/340/174
f 128/340/174 143/339/173 142/286/84 126/285/99
f 173/341/175 159/342/147 158/343/150 122/344/176
f 122/344/176 158/343/150 156/182/87 120/181/90
f 174/345/177 161/346/151 155/347/154 119/348/178
f 119/348/178 155/347/154 153/292/81 117/291/97
f 160/349/148 165/350/159 152/351/162 149/352/149
f 149/352/149 152/351/162 150/211/73 148/210/88
f 172/353/172 163/354/155 146/355/158 143/356/173
f 143/356/173 146/355/158 144/174/77 142/173/84
f 162/357/152 167/358/163 140/359/166 137/360/153
f 137/360/153 140/359/166 138/207/69 136/206/82
f 164/361/156 169/362/167 134/363/170 131/364/157
f 131/364/157 134/363/170 132/203/63 130/202/78
f 166/365/160 171/366/171 128/367/174 125/368/161
f 125/368/161 128/367/174 126/199/99 124/198/74
f 168/369/164 173/370/175 122/371/176 113/372/165
f 113/372/165 122/371/176 120/195/90 112/194/70
f 170/373/168 174/374/177 119/375/178 116/376/169
f 116/376/169 119/375/178 117/191/97 115/190/64
f 111/377/146 139/378/145 57/280/93
f 114/312/179 118/311/180 174/374/180 170/373/179
f 111/310/181 121/309/182 173/379/182 168/380/181
f 123/308/183 127/307/184 171/366/184 166/365/183
f 129/306/185 133/305/186 169/362/186 164/361/185
f 135/304/187 139/303/188 167/381/188 162/382/187
f 141/279/189 145/278/190 163/354/190 172/353/189
f 147/300/191 151/299/192 165/350/192 160/349/191
f 118/298/180 154/297/193 161/383/193 174/384/180
f 121/296/182 157/295/194 159/342/194 173/341/182
f 127/294/184 141/293/189 172/385/189 171/386/184
f 133/288/186 114/287/179 170/387/179 169/388/186
f 139/378/188 111/377/181 168/330/181 167/329/188
f 151/184/192 123/183/183 166/389/183 165/390/192
f 145/187/190 129/186/185 164/391/185 163/392/190
f 154/282/193 135/281/187 162/318/187 161/317/193
f 157/302/194 147/301/191 160/393/191 159/394/194
f 175/395/195 200/396/195 201/397/195 177/398/195
f 177/398/196 201/397/196 202/399/196 179/400/196
f 179/400/197 202/399/197 203/401/197 178/402/197
f 178/402/198 203/401/198 200/396/198 175/395/198
f 177/398/199 179/400/199 178/402/199 175/395/199
f 181/403/200 180/404/200 182/405/200 183/406/200
f 182/405/201 180/404/201 189/407/202 194/408/202
f 195/409/203 188/410/204 184/411/205 186/412/205
f 192/413/206 198/414/207 187/415/208 185/416/208
f 198/414/209 195/409/210 186/412/211 187/415/211
f 185/416/212 187/415/212 186/412/212 184/411/212
f 188/410/213 192/413/214 185/416/215 184/411/215
f 181/403/216 183/406/216 197/417/217 191/418/218
f 183/406/219 182/405/219 194/408/220 197/417/221
f 192/413/214 188/410/213 190/419/222 193/420/223
f 193/420/223 190/419/222 189/407/224 191/418/224
f 198/414/207 192/413/206 193/420/225 199/421/226
f 199/421/226 193/420/225 191/418/218 197/417/217
f 195/409/210 198/414/209 199/421/227 196/422/228
f 196/422/228 199/421/227 197/417/221 194/408/220
f 188/410/204 195/409/203 196/422/229 190/419/230
f 190/419/230 196/422/229 194/408/202 189/407/202
f 180/404/231 181/403/231 191/418/224 189/407/224
f 176/423/232 201/397/233 200/396/234
f 176/424/232 202/399/235 201/397/233
f 176/424/232 203/401/236 202/399/235
f 176/423/232 200/396/234 203/401/236
f 204/425/237 229/426/237 230/427/237 206/428/237
f 206/428/238 230/427/238 231/429/238 208/430/238
f 208/430/239 231/429/239 232/431/239 207/432/239
f 207/432/240 232/431/240 229/426/240 204/425/240
f 206/428/241 208/430/241 207/432/241 204/425/241
f 210/433/242 209/434/242 211/435/242 212/436/242
f 211/435/243 209/434/243 218/437/244 223/438/244
f 224/439/245 217/440/246 213/441/247 215/442/247
f 221/443/248 227/444/249 216/445/250 214/446/250
f 227/444/251 224/439/252 215/442/253 216/445/253
f 214/446/254 216/445/254 215/442/254 213/441/254
f 217/440/255 221/443/256 214/446/257 213/441/257
f 210/433/258 212/436/258 226/447/259 220/448/260
f 212/436/261 211/435/261 223/438/262 226/447/263
f 221/443/256 217/440/255 219/449/264 222/450/265
f 222/450/265 219/449/264 218/437/266 220/448/266
f 227/444/249 221/443/248 222/450/267 228/451/268
f 228/451/268 222/450/267 220/448/260 226/447/259
f 224/439/252 227/444/251 228/451/269 225/452/270
f 225/452/270 228/451/269 226/447/263 223/438/262
f 217/440/246 224/439/245 225/452/271 219/449/272
f 219/449/272 225/452/271 223/438/244 218/437/244
f 209/434/273 210/433/273 220/448/266 218/437/266
f 205/453/274 230/427/275 229/426/276
f 205/454/274 231/429/277 230/427/275
f 205/454/274 232/431/278 231/429/277
f 205/453/274 229/426/276 232/431/278
f 233/455/279 258/456/279 259/457/279 235/458/279
f 235/458/280 259/457/280 260/459/280 237/460/280
f 237/460/281 260/459/281 261/461/281 236/462/281
f 236/462/282 261/461/282 258/456/282 233/455/282
f 235/458/283 237/460/283 236/462/283 233/455/283
f 239/463/284 238/464/284 240/465/284 241/466/284
f 240/465/285 238/464/285 247/467/286 252/468/286
f 253/469/287 246/470/288 242/471/289 244/472/289
f 250/473/290 256/474/291 245/475/292 243/476/292
f 256/474/293 253/469/294 244/472/295 245/475/295
f 243/476/296 245/475/296 244/472/296 242/471/296
f 246/470/297 250/473/298 243/476/299 242/471/299
f 239/463/300 241/466/300 255/477/301 249/478/302
f 241/466/303 240/465/303 252/468/304 255/477/305
f 250/473/298 246/470/297 248/479/306 251/480/307
f 251/480/307 248/479/306 247/467/308 249/478/308
f 256/474/291 250/473/290 251/480/309 257/481/310
f 257/481/310 251/480/309 249/478/302 255/477/301
f 253/469/294 256/474/293 257/481/311 254/482/312
f 254/482/312 257/481/311 255/477/305 252/468/304
f 246/470/288 253/469/287 254/482/313 248/479/314
f 248/479/314 254/482/313 252/468/286 247/467/286
f 238/464/315 239/463/315 249/478/308 247/467/308
f 234/483/316 259/457/317 258/456/318
f 234/484/316 260/459/319 259/457/317
f 234/484/316 261/461/320 260/459/319
f 234/483/316 258/456/318 261/461/320
f 262/485/321 287/486/321 288/487/321 264/488/321
f 264/488/322 288/487/322 289/489/322 266/490/322
f 266/490/323 289/489/323 290/491/323 265/492/323
f 265/492/324 290/491/324 287/486/324 262/485/324
f 264/488/325 266/490/325 265/492/325 262/485/325
f 268/493/326 267/494/326 269/495/326 270/496/326
f 269/495/327 267/494/327 276/497/328 281/498/328
f 282/499/329 275/500/330 271/501/331 273/502/331
f 279/503/332 285/504/333 274/505/334 272/506/334
f 285/504/335 282/499/336 273/502/337 274/505/337
f 272/506/338 274/505/338 273/502/338 271/501/338
f 275/500/339 279/503/340 272/506/341 271/501/341
f 268/493/342 270/496/342 284/507/343 278/508/344
f 270/496/345 269/495/345 281/498/346 284/507/347
f 279/503/340 275/500/339 277/509/348 280/510/349
f 280/510/349 277/509/348 276/497/350 278/508/350
f 285/504/333 279/503/332 280/510/351 286/511/352
f 286/511/352 280/510/351 278/508/344 284/507/343
f 282/499/336 285/504/335 286/511/353 283/512/354
f 283/512/354 286/511/353 284/507/347 281/498/346
f 275/500/330 282/499/329 283/512/355 277/509/356
f 277/509/356 283/512/355 281/498/328 276/497/328
f 267/494/357 268/493/357 278/508/350 276/497/350
f 263/513/358 288/487/359 287/486/360
f 263/514/358 289/489/361 288/487/359
f 263/514/358 290/491/362 289/489/361
f 263/513/358 287/486/360 290/491/362
f 300/515/363 291/516/364 302/517/365
f 293/518/366 297/519/367 298/520/368 295/521/369
f 295/521/369 298/520/368 296/522/370 294/523/371
f 292/524/372 294/523/371 296/522/370
f 338/525/373 319/526/374 311/527/375 331/528/376
f 293/518/366 300/515/363 302/517/365 297/519/367
f 300/529/363 301/530/377 291/531/364
f 324/532/378 313/533/379 320/534/380 337/535/381
f 312/536/382 314/537/383 303/538/384
f 305/539/385 307/540/386 310/541/387 309/542/388
f 307/540/386 306/543/389 308/544/390 310/541/387
f 304/545/391 308/544/390 306/543/389
f 305/539/385 309/542/388 314/537/383 312/536/382
f 312/546/382 303/547/384 313/533/392
f 319/526/393 322/548/394 311/527/395
f 331/528/396 311/527/396 322/548/397 336/549/398
f 316/550/399 299/551/400 317/552/401
f 326/553/402 308/544/403 304/545/404 325/554/404
f 328/555/405 307/540/406 305/539/407 327/556/408
f 329/557/409 312/546/409 313/533/379 324/532/378
f 325/554/410 304/545/410 306/543/411 330/558/412
f 335/559/413 321/560/414 303/547/415 323/561/416
f 333/562/417 314/537/418 309/542/388 332/563/419
f 332/563/419 309/542/388 310/541/387 334/564/420
f 321/560/421 320/534/422 313/533/392 303/547/384
f 323/565/416 303/538/415 314/537/418 333/562/417
f 330/558/412 306/543/411 307/540/406 328/555/405
f 327/556/408 305/539/407 312/536/423 329/566/423
f 334/564/420 310/541/387 308/544/403 326/553/402
f 316/550/399 317/552/401 318/567/424 315/568/425
f 320/534/422 321/560/421 322/548/394 319/526/393
f 335/559/426 318/567/427 317/552/428 336/549/429
f 337/535/381 320/534/380 319/526/374 338/525/373
f 318/567/424 291/531/364 301/530/377 315/568/425
f 315/568/430 337/535/431 338/525/373 316/550/432
f 321/560/414 335/559/413 336/549/398 322/548/397
f 298/520/433 334/564/434 326/553/435 296/522/436
f 293/518/437 327/556/438 329/566/439 300/515/440
f 294/523/441 330/558/442 328/555/443 295/521/444
f 291/516/445 323/565/446 333/562/447 302/517/448
f 297/519/449 332/563/450 334/564/434 298/520/433
f 302/517/448 333/562/447 332/563/450 297/519/449
f 318/567/427 335/559/426 323/561/446 291/531/445
f 292/524/451 325/554/451 330/558/442 294/523/441
f 300/529/440 329/557/439 324/532/452 301/530/453
f 295/521/444 328/555/443 327/556/438 293/518/437
f 296/522/436 326/553/435 325/554/454 292/524/454
f 299/551/455 331/528/455 336/549/429 317/552/428
f 301/530/453 324/532/452 337/535/431 315/568/430
f 316/550/432 338/525/373 331/528/376 299/551/456
f 348/569/457 350/570/458 339/571/459
f 341/572/460 343/573/461 346/574/462 345/575/463
f 343/573/461 342/576/464 344/577/465 346/574/462
f 340/578/466 344/577/465 342/576/464
f 386/579/467 379/580/468 359/581/469 367/582/470
f 341/572/460 345/575/463 350/570/458 348/569/457
f 348/583/457 339/584/459 349/585/471
f 372/586/472 385/587/473 368/588/474 361/589/475
f 360/590/476 351/591/477 362/592/478
f 353/593/479 357/594/480 358/595/481 355/596/482
f 355/596/482 358/595/481 356/597/483 354/598/484
f 352/599/485 354/598/484 356/597/483
f 353/593/479 360/590/476 362/592/478 357/594/480
f 360/600/476 361/589/486 351/601/477
f 367/582/487 359/581/488 370/602/489
f 379/580/490 384/603/491 370/602/492 359/581/490
f 364/604/493 365/605/494 347/606/495
f 374/607/496 373/608/497 352/599/497 356/597/498
f 376/609/499 375/610/500 353/593/501 355/596/502
f 377/611/503 372/586/472 361/589/475 360/600/503
f 373/608/504 378/612/505 354/598/506 352/599/504
f 383/613/507 371/614/508 351/601/509 369/615/510
f 381/616/511 380/617/512 357/594/480 362/592/513
f 380/617/512 382/618/514 358/595/481 357/594/480
f 369/615/515 351/601/477 361/589/486 368/588/516
f 371/619/508 381/616/511 362/592/513 351/591/509
f 378/612/505 376/609/499 355/596/502 354/598/506
f 375/610/500 377/620/517 360/590/517 353/593/501
f 382/618/514 374/607/496 356/597/498 358/595/481
f 364/604/493 363/621/518 366/622/519 365/605/494
f 368/588/516 367/582/487 370/602/489 369/615/515
f 383/613/520 384/603/521 365/605/522 366/622/523
f 385/587/473 386/579/467 367/582/470 368/588/474
f 366/622/519 363/621/518 349/585/471 339/584/459
f 363/621/524 364/604/525 386/579/467 385/587/526
f 369/615/510 370/602/492 384/603/491 383/613/507
f 346/574/527 344/577/528 374/607/529 382/618/530
f 341/572/531 348/569/532 377/620/533 375/610/534
f 342/576/535 343/573/536 376/609/537 378/612/538
f 339/571/539 350/570/540 381/616/541 371/619/542
f 345/575/543 346/574/527 382/618/530 380/617/544
f 350/570/540 345/575/543 380/617/544 381/616/541
f 366/622/523 339/584/539 371/614/542 383/613/520
f 340/578/545 342/576/535 378/612/538 373/608/545
f 348/583/532 349/585/546 372/586/547 377/611/533
f 343/573/536 341/572/531 375/610/534 376/609/537
f 344/577/528 340/578/548 373/608/548 374/607/529
f 347/606/549 365/605/522 384/603/521 379/580/549
f 349/585/546 363/621/524 385/587/526 372/586/547
f 364/604/525 347/606/550 379/580/468 386/579/467
