# Blender v3.4.1 OBJ File: 'MixedBag1_Export.blend'
# www.blender.org
mtllib comicbox_open_B.mtl
o comicbox_open_B
v -0.227367 -0.318906 0.018331
v -0.227367 0.318906 0.018331
v -0.227367 -0.318906 -0.018331
v -0.227367 0.318906 -0.018331
v 0.227367 -0.318906 0.018331
v 0.227367 0.318906 0.018331
v 0.227367 -0.318906 -0.018331
v 0.227367 0.318906 -0.018331
v -0.253146 -0.344685 0.018331
v -0.253146 0.344685 0.018331
v -0.253146 0.344685 -0.018331
v -0.253146 -0.344685 -0.018331
v 0.253146 -0.344685 -0.018331
v 0.253146 0.344685 -0.018331
v 0.253146 0.344685 0.018331
v 0.253146 -0.344685 0.018331
v -0.259593 -0.344685 0.008629
v -0.259593 -0.344685 -0.008629
v -0.259593 0.344685 -0.008629
v -0.259593 0.344685 0.008629
v 0.246698 -0.344685 -0.008629
v 0.246698 -0.344685 0.008629
v 0.246698 0.344685 0.008629
v 0.246698 0.344685 -0.008629
vt 0.235406 0.940625
vt 0.145958 0.940625
vt 0.145958 0.940625
vt 0.235406 0.940625
vt 0.270958 0.318832
vt 0.270958 0.440625
vt 0.270958 0.440625
vt 0.270958 0.318832
vt 0.235406 0.818832
vt 0.235406 0.818832
vt 0.275513 0.323386
vt 0.275513 0.436070
vt 0.270958 0.440625
vt 0.270958 0.318832
vt 0.275513 0.436070
vt 0.275513 0.323386
vt 0.355852 0.323386
vt 0.360406 0.318832
vt 0.355852 0.436070
vt 0.360406 0.440625
vt 0.355852 0.436070
vt 0.355852 0.323386
vt 0.360406 0.318832
vt 0.360406 0.440625
vt 0.235406 0.940625
vt 0.145958 0.940625
vt 0.145958 0.940625
vt 0.235406 0.940625
vt 0.145958 0.818832
vt 0.235406 0.818832
vt 0.235406 0.818832
vt 0.145958 0.818832
vt 0.145958 0.818832
vt 0.145958 0.818832
vt 0.270958 0.318832
vt 0.270958 0.440625
vt 0.845980 0.014726
vt 0.845980 0.985274
vt 0.154020 0.985274
vt 0.154020 0.014726
vt 0.845980 0.014726
vt 0.845980 0.985274
vt 0.154020 0.985274
vt 0.154020 0.014726
vn 0.0000 1.0000 -0.0000
vn -0.9573 0.0000 -0.2891
vn -0.8329 0.0000 -0.5535
vn 0.8329 0.0000 0.5535
vn 0.9573 0.0000 0.2891
vn 0.0000 0.0000 1.0000
vn 0.0000 0.0000 -1.0000
vn 0.0000 -1.0000 0.0000
vn 0.9573 0.0000 -0.2891
vn 0.8329 0.0000 -0.5535
vn -0.9573 0.0000 0.2891
vn -0.8329 0.0000 0.5535
usemtl KayKit_Texture_A
s 1
f 14/1/1 11/2/1 19/3/1 24/4/1
f 18/5/2 19/6/2 11/7/3 12/8/3
f 13/9/4 14/1/4 24/4/5 21/10/5
f 1/11/6 2/12/6 10/13/6 9/14/6
f 4/15/7 3/16/7 12/8/7 11/7/7
f 3/16/7 7/17/7 13/18/7 12/8/7
f 8/19/7 4/15/7 11/7/7 14/20/7
f 7/17/7 8/19/7 14/20/7 13/18/7
f 6/21/6 5/22/6 16/23/6 15/24/6
f 5/22/6 1/11/6 9/14/6 16/23/6
f 2/12/6 6/21/6 15/24/6 10/13/6
f 23/25/1 20/26/1 10/27/1 15/28/1
f 17/29/8 22/30/8 16/31/8 9/32/8
f 22/30/9 23/25/9 15/28/10 16/31/10
f 12/33/8 13/9/8 21/10/8 18/34/8
f 20/26/1 23/25/1 24/4/1 19/3/1
f 22/30/8 17/29/8 18/34/8 21/10/8
f 23/25/9 22/30/9 21/10/5 24/4/5
f 19/6/2 18/5/2 17/35/11 20/36/11
f 9/14/12 10/13/12 20/36/11 17/35/11
usemtl CustomTextureHere
f 3/37/7 4/38/7 8/39/7 7/40/7
f 5/41/6 6/42/6 2/43/6 1/44/6
