# Blender v3.4.1 OBJ File: 'MixedBag1_Export.blend'
# www.blender.org
mtllib comicbox_filled.mtl
o comicbox_filled
v -0.301754 0.000000 0.384000
v -0.301754 0.016000 0.400000
v -0.317754 0.016000 0.384000
v -0.301754 0.664000 0.400000
v -0.260930 0.680000 0.343177
v -0.317754 0.664000 0.384000
v -0.301754 0.000000 -0.384000
v -0.317754 0.016000 -0.384000
v -0.301754 0.016000 -0.400000
v -0.260930 0.680000 -0.343177
v -0.301754 0.664000 -0.400000
v -0.317754 0.664000 -0.384000
v 0.301754 0.000000 0.384000
v 0.317754 0.016000 0.384000
v 0.301754 0.016000 0.400000
v 0.260930 0.680000 0.343177
v 0.301754 0.664000 0.400000
v 0.317754 0.664000 0.384000
v 0.301754 0.000000 -0.384000
v 0.301754 0.016000 -0.400000
v 0.317754 0.016000 -0.384000
v 0.260930 0.680000 -0.343177
v 0.317754 0.664000 -0.384000
v 0.301754 0.664000 -0.400000
v -0.260930 0.068000 -0.343176
v 0.260930 0.068000 -0.343176
v 0.260930 0.068000 0.343176
v -0.260930 0.068000 0.343176
v -0.116880 0.361786 0.400000
v -0.154153 0.399059 0.400000
v -0.205179 0.326337 0.400000
v -0.116880 0.484791 0.343176
v -0.154153 0.447517 0.343176
v -0.205179 0.514489 0.343176
v -0.154153 0.399059 -0.400000
v -0.116880 0.361786 -0.400000
v -0.205179 0.326337 -0.400000
v -0.154153 0.447517 -0.343176
v -0.116880 0.484791 -0.343176
v -0.205179 0.514489 -0.343176
v 0.154154 0.399059 0.400000
v 0.116880 0.361786 0.400000
v 0.205179 0.326337 0.400000
v 0.154154 0.447517 0.343176
v 0.116880 0.484791 0.343176
v 0.205179 0.514489 0.343176
v 0.116880 0.361786 -0.400000
v 0.154154 0.399059 -0.400000
v 0.205179 0.326337 -0.400000
v 0.116880 0.484791 -0.343176
v 0.154154 0.447517 -0.343176
v 0.205179 0.514489 -0.343176
v -0.154153 0.447517 0.400000
v -0.116880 0.484791 0.400000
v -0.205179 0.514489 0.400000
v -0.116880 0.484791 -0.400000
v -0.154153 0.447517 -0.400000
v -0.205179 0.514489 -0.400000
v 0.154154 0.447517 -0.400000
v 0.116880 0.484791 -0.400000
v 0.205179 0.514489 -0.400000
v 0.116880 0.484791 0.400000
v 0.154154 0.447517 0.400000
v 0.205179 0.514489 0.400000
v -0.154153 0.399059 0.343176
v -0.116880 0.361786 0.343176
v -0.205179 0.326337 0.343176
v -0.116880 0.361786 -0.343176
v -0.154153 0.399059 -0.343176
v -0.205179 0.326337 -0.343176
v 0.154154 0.399059 -0.343176
v 0.116880 0.361786 -0.343176
v 0.205179 0.326337 -0.343176
v 0.116880 0.361786 0.343176
v 0.154154 0.399059 0.343176
v 0.205179 0.326337 0.343176
v -0.301754 0.680000 0.384000
v -0.301754 0.680000 -0.384000
v 0.301754 0.680000 -0.384000
v 0.301754 0.680000 0.384000
v -0.260649 0.173734 0.308673
v -0.245520 0.855091 0.204969
v -0.245520 0.849575 0.168724
v -0.260649 0.168218 0.272428
v 0.245520 0.157233 0.274100
v 0.260649 0.838590 0.170395
v 0.260649 0.844107 0.206641
v 0.245520 0.162750 0.310345
v -0.267095 0.172414 0.299060
v -0.267095 0.169818 0.281999
v -0.251966 0.851175 0.178294
v -0.251966 0.853771 0.195356
v 0.239074 0.158833 0.283671
v 0.239074 0.161430 0.300732
v 0.254203 0.842786 0.197028
v 0.254203 0.840190 0.179966
v -0.230542 0.119993 0.372962
v -0.263185 0.805848 0.311577
v -0.262877 0.802594 0.275060
v -0.230234 0.116739 0.336445
v 0.275471 0.140996 0.338543
v 0.242828 0.826851 0.277158
v 0.242520 0.830104 0.313675
v 0.275164 0.144250 0.375060
v -0.236901 0.118823 0.363271
v -0.236756 0.117291 0.346082
v -0.269399 0.803146 0.284697
v -0.269544 0.804678 0.301886
v 0.268950 0.141548 0.348181
v 0.268805 0.143080 0.365370
v 0.236162 0.828935 0.303985
v 0.236306 0.827403 0.286796
v -0.254584 0.131757 0.269352
v -0.251702 0.813272 0.165624
v -0.251702 0.807756 0.129378
v -0.254584 0.126241 0.233107
v 0.251702 0.124148 0.233425
v 0.254584 0.805663 0.129697
v 0.254584 0.811180 0.165942
v 0.251702 0.129665 0.269671
v -0.261032 0.130324 0.259756
v -0.261032 0.127727 0.242695
v -0.258150 0.809242 0.138966
v -0.258150 0.811839 0.156028
v 0.245255 0.125635 0.243013
v 0.245255 0.128232 0.260075
v 0.248137 0.809747 0.156346
v 0.248137 0.807150 0.139285
v -0.253146 0.102191 0.229510
v -0.253146 0.783712 0.125780
v -0.253146 0.778196 0.089535
v -0.253146 0.096674 0.193264
v 0.253146 0.096674 0.193264
v 0.253146 0.778196 0.089535
v 0.253146 0.783712 0.125780
v 0.253146 0.102191 0.229510
v -0.259593 0.100731 0.219917
v -0.259593 0.098134 0.202856
v -0.259593 0.779655 0.099127
v -0.259593 0.782252 0.116188
v 0.246698 0.098134 0.202856
v 0.246698 0.100731 0.219917
v 0.246698 0.782252 0.116188
v 0.246698 0.779655 0.099127
v -0.265836 0.195916 0.348072
v -0.240103 0.876962 0.244415
v -0.240103 0.871446 0.208170
v -0.265836 0.190399 0.311827
v 0.240103 0.171716 0.314671
v 0.265836 0.852762 0.211014
v 0.265836 0.858278 0.247259
v 0.240103 0.177232 0.350916
v -0.272279 0.194694 0.338444
v -0.272279 0.192097 0.321383
v -0.246546 0.873144 0.217726
v -0.246546 0.875740 0.234787
v 0.233659 0.173414 0.324226
v 0.233659 0.176010 0.341288
v 0.259393 0.857056 0.237631
v 0.259393 0.854460 0.220569
v -0.253146 0.132299 0.100046
v -0.253146 0.813820 -0.003683
v -0.253146 0.808303 -0.039929
v -0.253146 0.126782 0.063801
v 0.253146 0.126782 0.063801
v 0.253146 0.808303 -0.039929
v 0.253146 0.813820 -0.003683
v 0.253146 0.132299 0.100046
v -0.259593 0.130839 0.090454
v -0.259593 0.128242 0.073393
v -0.259593 0.809763 -0.030337
v -0.259593 0.812360 -0.013275
v 0.246698 0.128242 0.073393
v 0.246698 0.130839 0.090454
v 0.246698 0.812360 -0.013275
v 0.246698 0.809763 -0.030337
v -0.253146 0.108849 0.189510
v -0.253146 0.790370 0.085780
v -0.253146 0.784853 0.049535
v -0.253146 0.103332 0.153264
v 0.253146 0.103332 0.153264
v 0.253146 0.784853 0.049535
v 0.253146 0.790370 0.085780
v 0.253146 0.108849 0.189510
v -0.259593 0.107389 0.179917
v -0.259593 0.104792 0.162856
v -0.259593 0.786313 0.059127
v -0.259593 0.788910 0.076188
v 0.246698 0.104792 0.162856
v 0.246698 0.107389 0.179917
v 0.246698 0.788910 0.076188
v 0.246698 0.786313 0.059127
v -0.252910 0.122938 0.050608
v -0.253382 0.804459 -0.053121
v -0.253382 0.798942 -0.089366
v -0.252910 0.117421 0.014363
v 0.253382 0.117764 0.014311
v 0.252910 0.799285 -0.089419
v 0.252910 0.804802 -0.053173
v 0.253382 0.123281 0.050556
v -0.259357 0.121474 0.041017
v -0.259357 0.118877 0.023956
v -0.259829 0.800398 -0.079774
v -0.259829 0.802995 -0.062712
v 0.246934 0.119220 0.023903
v 0.246934 0.121816 0.040965
v 0.246462 0.803337 -0.062765
v 0.246462 0.800741 -0.079826
v -0.245526 0.104833 0.001930
v -0.260643 0.786191 -0.101775
v -0.260643 0.780674 -0.138020
v -0.245526 0.099317 -0.034316
v 0.260643 0.110293 -0.035986
v 0.245526 0.791650 -0.139691
v 0.245526 0.797167 -0.103445
v 0.260643 0.115809 0.000259
v -0.251972 0.103234 -0.007641
v -0.251972 0.100637 -0.024702
v -0.267089 0.781994 -0.128407
v -0.267089 0.784591 -0.111345
v 0.254197 0.111613 -0.026373
v 0.254197 0.114210 -0.009312
v 0.239080 0.795567 -0.113016
v 0.239080 0.792970 -0.130077
v -0.253146 0.123109 0.149510
v -0.253146 0.804630 0.045780
v -0.253146 0.799114 0.009535
v -0.253146 0.117593 0.113264
v 0.253146 0.117593 0.113264
v 0.253146 0.799114 0.009535
v 0.253146 0.804630 0.045780
v 0.253146 0.123109 0.149510
v -0.259593 0.121649 0.139917
v -0.259593 0.119053 0.122856
v -0.259593 0.800574 0.019127
v -0.259593 0.803170 0.036188
v 0.246698 0.119053 0.122856
v 0.246698 0.121649 0.139917
v 0.246698 0.803170 0.036188
v 0.246698 0.800574 0.019127
v -0.226469 0.158031 -0.127811
v -0.278384 0.837617 -0.231246
v -0.278384 0.832100 -0.267491
v -0.226469 0.152515 -0.164056
v 0.278384 0.190208 -0.169793
v 0.226469 0.869794 -0.273228
v 0.226469 0.875311 -0.236983
v 0.278384 0.195725 -0.133548
v -0.232899 0.156091 -0.137330
v -0.232899 0.153495 -0.154391
v -0.284814 0.833080 -0.257826
v -0.284814 0.835677 -0.240765
v 0.271955 0.191188 -0.160128
v 0.271955 0.193785 -0.143067
v 0.220040 0.873371 -0.246502
v 0.220040 0.870774 -0.263563
v -0.228486 0.116248 -0.047998
v -0.276572 0.796109 -0.151475
v -0.276572 0.790593 -0.187720
v -0.228486 0.110732 -0.084244
v 0.276572 0.145646 -0.089558
v 0.228486 0.825507 -0.193034
v 0.228486 0.831024 -0.156789
v 0.276572 0.151163 -0.053312
v -0.234918 0.114344 -0.057523
v -0.234918 0.111747 -0.074584
v -0.283004 0.791608 -0.178061
v -0.283004 0.794205 -0.160999
v 0.270140 0.146661 -0.079898
v 0.270140 0.149258 -0.062837
v 0.222054 0.829119 -0.166313
v 0.222054 0.826522 -0.183375
v -0.237884 0.151726 -0.168904
v -0.267927 0.832600 -0.272534
v -0.267927 0.827083 -0.308780
v -0.237884 0.146210 -0.205149
v 0.267927 0.168023 -0.208469
v 0.237884 0.848896 -0.312100
v 0.237884 0.854413 -0.275854
v 0.267927 0.173539 -0.172224
v -0.244325 0.149989 -0.178454
v -0.244325 0.147392 -0.195515
v -0.274368 0.828265 -0.299146
v -0.274368 0.830862 -0.282084
v 0.261485 0.169205 -0.198835
v 0.261485 0.171802 -0.181774
v 0.231442 0.852675 -0.285404
v 0.231442 0.850078 -0.302466
v -0.249859 0.130515 -0.210136
v -0.256410 0.812005 -0.313861
v -0.256410 0.806489 -0.350106
v -0.249859 0.124999 -0.246382
v 0.256410 0.129755 -0.247105
v 0.249859 0.811245 -0.350830
v 0.249859 0.816762 -0.314584
v 0.256410 0.135271 -0.210860
v -0.256306 0.128995 -0.219719
v -0.256306 0.126398 -0.236780
v -0.262857 0.807888 -0.340505
v -0.262857 0.810485 -0.323444
v 0.249962 0.131154 -0.237504
v 0.249962 0.133751 -0.220443
v 0.243411 0.815241 -0.324167
v 0.243411 0.812645 -0.341229
v -0.220269 0.140673 -0.087249
v -0.283863 0.819288 -0.190536
v -0.283863 0.813772 -0.226781
v -0.220269 0.135157 -0.123494
v 0.283863 0.181330 -0.130522
v 0.220269 0.859945 -0.233809
v 0.220269 0.865462 -0.197564
v 0.283863 0.186847 -0.094277
v -0.226689 0.138625 -0.096751
v -0.226689 0.136029 -0.113813
v -0.290284 0.814644 -0.217100
v -0.290284 0.817240 -0.200038
v 0.277443 0.182202 -0.120840
v 0.277443 0.184799 -0.103779
v 0.213849 0.863414 -0.207066
v 0.213849 0.860817 -0.224127
vt 0.730744 0.329842
vt 0.730744 0.434362
vt 0.730744 0.434362
vt 0.730744 0.329842
vt 0.644256 0.329842
vt 0.644256 0.434362
vt 0.644256 0.434362
vt 0.644256 0.329842
vt 0.646433 0.374540
vt 0.646433 0.376717
vt 0.644256 0.376717
vt 0.646433 0.481237
vt 0.646433 0.483415
vt 0.644256 0.481237
vt 0.646433 0.374540
vt 0.644256 0.376717
vt 0.646433 0.376717
vt 0.646433 0.483415
vt 0.646433 0.481237
vt 0.644256 0.481237
vt 0.728567 0.374540
vt 0.730744 0.376717
vt 0.728567 0.376717
vt 0.728567 0.483415
vt 0.728567 0.481237
vt 0.730744 0.481237
vt 0.728567 0.374540
vt 0.728567 0.376717
vt 0.730744 0.376717
vt 0.728567 0.483415
vt 0.730744 0.481237
vt 0.728567 0.481237
vt 0.646433 0.327665
vt 0.728567 0.327665
vt 0.728567 0.327665
vt 0.646433 0.327665
vt 0.710770 0.367140
vt 0.708479 0.358025
vt 0.708479 0.351431
vt 0.710770 0.341534
vt 0.710770 0.341534
vt 0.708479 0.351431
vt 0.708479 0.358025
vt 0.710770 0.367140
vt 0.664230 0.367140
vt 0.666521 0.358025
vt 0.666521 0.351431
vt 0.664230 0.341534
vt 0.703407 0.378723
vt 0.671594 0.378723
vt 0.671594 0.378723
vt 0.703407 0.378723
vt 0.703407 0.361983
vt 0.671594 0.361983
vt 0.671594 0.361983
vt 0.703407 0.361983
vt 0.671594 0.361983
vt 0.703407 0.361983
vt 0.703407 0.361983
vt 0.671594 0.361983
vt 0.664230 0.414015
vt 0.666521 0.404900
vt 0.666521 0.398306
vt 0.664230 0.388409
vt 0.671594 0.346358
vt 0.703407 0.346358
vt 0.708479 0.367056
vt 0.708479 0.373650
vt 0.708479 0.373650
vt 0.708479 0.367056
vt 0.708479 0.373650
vt 0.708479 0.367056
vt 0.708479 0.367056
vt 0.708479 0.373650
vt 0.703407 0.363098
vt 0.671594 0.363098
vt 0.710770 0.414015
vt 0.703407 0.409973
vt 0.671594 0.409973
vt 0.664230 0.341534
vt 0.666521 0.351431
vt 0.666521 0.358025
vt 0.664230 0.367140
vt 0.671594 0.378723
vt 0.703407 0.378723
vt 0.703407 0.378723
vt 0.671594 0.378723
vt 0.646433 0.434362
vt 0.664230 0.414015
vt 0.710770 0.414015
vt 0.728567 0.434362
vt 0.703407 0.346358
vt 0.671594 0.346358
vt 0.666521 0.373650
vt 0.666521 0.367056
vt 0.666521 0.367056
vt 0.666521 0.373650
vt 0.708479 0.404900
vt 0.708479 0.398306
vt 0.710770 0.388409
vt 0.710770 0.388409
vt 0.708479 0.398306
vt 0.708479 0.404900
vt 0.671594 0.409973
vt 0.703407 0.409973
vt 0.703407 0.393233
vt 0.671594 0.393233
vt 0.664230 0.388409
vt 0.666521 0.398306
vt 0.666521 0.404900
vt 0.671594 0.363098
vt 0.703407 0.363098
vt 0.671594 0.393233
vt 0.703407 0.393233
vt 0.666521 0.373650
vt 0.666521 0.373650
vt 0.666521 0.367056
vt 0.666521 0.367056
vt 0.728567 0.329842
vt 0.646433 0.329842
vt 0.646433 0.434362
vt 0.646433 0.329842
vt 0.728567 0.329842
vt 0.728567 0.434362
vt 0.651989 0.389665
vt 0.723011 0.389665
vt 0.723011 0.290044
vt 0.651989 0.290044
vt 0.651989 0.389665
vt 0.651989 0.290044
vt 0.723011 0.290044
vt 0.723011 0.389665
vt 0.651989 0.321294
vt 0.651989 0.321294
vt 0.723011 0.321294
vt 0.723011 0.321294
vt 0.651989 0.452165
vt 0.651989 0.452165
vt 0.646433 0.452165
vt 0.646433 0.452165
vt 0.723011 0.452165
vt 0.728567 0.452165
vt 0.723011 0.452165
vt 0.728567 0.452165
vt 0.235406 0.940625
vt 0.145958 0.940625
vt 0.145958 0.940625
vt 0.235406 0.940625
vt 0.270958 0.068832
vt 0.270958 0.190625
vt 0.270958 0.190625
vt 0.270958 0.068832
vt 0.235406 0.818832
vt 0.235406 0.818832
vt 0.360406 0.190625
vt 0.360406 0.068832
vt 0.270958 0.190625
vt 0.270958 0.068832
vt 0.360406 0.068832
vt 0.360406 0.190625
vt 0.235406 0.940625
vt 0.145958 0.940625
vt 0.145958 0.940625
vt 0.235406 0.940625
vt 0.145958 0.818832
vt 0.235406 0.818832
vt 0.235406 0.818832
vt 0.145958 0.818832
vt 0.145958 0.818832
vt 0.145958 0.818832
vt 0.270958 0.068832
vt 0.270958 0.190625
vt 0.235406 0.940625
vt 0.145958 0.940625
vt 0.145958 0.940625
vt 0.235406 0.940625
vt 0.645958 0.568832
vt 0.645958 0.690625
vt 0.645958 0.690625
vt 0.645958 0.568832
vt 0.235406 0.818832
vt 0.235406 0.818832
vt 0.735406 0.690625
vt 0.735406 0.568832
vt 0.645958 0.690625
vt 0.645958 0.568832
vt 0.735406 0.568832
vt 0.735406 0.690625
vt 0.235406 0.940625
vt 0.145958 0.940625
vt 0.145958 0.940625
vt 0.235406 0.940625
vt 0.145958 0.818832
vt 0.235406 0.818832
vt 0.235406 0.818832
vt 0.145958 0.818832
vt 0.145958 0.818832
vt 0.145958 0.818832
vt 0.645958 0.568832
vt 0.645958 0.690625
vt 0.235406 0.940625
vt 0.145958 0.940625
vt 0.145958 0.940625
vt 0.235406 0.940625
vt 0.770958 0.068832
vt 0.770958 0.190625
vt 0.770958 0.190625
vt 0.770958 0.068832
vt 0.235406 0.818832
vt 0.235406 0.818832
vt 0.860406 0.190625
vt 0.860406 0.068832
vt 0.770958 0.190625
vt 0.770958 0.068832
vt 0.860406 0.068832
vt 0.860406 0.190625
vt 0.235406 0.940625
vt 0.145958 0.940625
vt 0.145958 0.940625
vt 0.235406 0.940625
vt 0.145958 0.818832
vt 0.235406 0.818832
vt 0.235406 0.818832
vt 0.145958 0.818832
vt 0.145958 0.818832
vt 0.145958 0.818832
vt 0.770958 0.068832
vt 0.770958 0.190625
vt 0.235406 0.940625
vt 0.145958 0.940625
vt 0.145958 0.940625
vt 0.235406 0.940625
vt 0.770958 0.068832
vt 0.770958 0.190625
vt 0.770958 0.190625
vt 0.770958 0.068832
vt 0.235406 0.818832
vt 0.235406 0.818832
vt 0.860406 0.190625
vt 0.860406 0.068832
vt 0.770958 0.190625
vt 0.770958 0.068832
vt 0.860406 0.068832
vt 0.860406 0.190625
vt 0.235406 0.940625
vt 0.145958 0.940625
vt 0.145958 0.940625
vt 0.235406 0.940625
vt 0.145958 0.818832
vt 0.235406 0.818832
vt 0.235406 0.818832
vt 0.145958 0.818832
vt 0.145958 0.818832
vt 0.145958 0.818832
vt 0.770958 0.068832
vt 0.770958 0.190625
vt 0.235406 0.940625
vt 0.145958 0.940625
vt 0.145958 0.940625
vt 0.235406 0.940625
vt 0.520958 0.568832
vt 0.520958 0.690625
vt 0.520958 0.690625
vt 0.520958 0.568832
vt 0.235406 0.818832
vt 0.235406 0.818832
vt 0.610406 0.690625
vt 0.610406 0.568832
vt 0.520958 0.690625
vt 0.520958 0.568832
vt 0.610406 0.568832
vt 0.610406 0.690625
vt 0.235406 0.940625
vt 0.145958 0.940625
vt 0.145958 0.940625
vt 0.235406 0.940625
vt 0.145958 0.818832
vt 0.235406 0.818832
vt 0.235406 0.818832
vt 0.145958 0.818832
vt 0.145958 0.818832
vt 0.145958 0.818832
vt 0.520958 0.568832
vt 0.520958 0.690625
vt 0.235406 0.940625
vt 0.145958 0.940625
vt 0.145958 0.940625
vt 0.235406 0.940625
vt 0.645958 0.568832
vt 0.645958 0.690625
vt 0.645958 0.690625
vt 0.645958 0.568832
vt 0.235406 0.818832
vt 0.235406 0.818832
vt 0.735406 0.690625
vt 0.735406 0.568832
vt 0.645958 0.690625
vt 0.645958 0.568832
vt 0.735406 0.568832
vt 0.735406 0.690625
vt 0.235406 0.940625
vt 0.145958 0.940625
vt 0.145958 0.940625
vt 0.235406 0.940625
vt 0.145958 0.818832
vt 0.235406 0.818832
vt 0.235406 0.818832
vt 0.145958 0.818832
vt 0.145958 0.818832
vt 0.145958 0.818832
vt 0.645958 0.568832
vt 0.645958 0.690625
vt 0.235406 0.940625
vt 0.145958 0.940625
vt 0.145958 0.940625
vt 0.235406 0.940625
vt 0.020958 0.068832
vt 0.020958 0.190625
vt 0.020958 0.190625
vt 0.020958 0.068832
vt 0.235406 0.818832
vt 0.235406 0.818832
vt 0.110406 0.190625
vt 0.110406 0.068832
vt 0.020958 0.190625
vt 0.020958 0.068832
vt 0.110406 0.068832
vt 0.110406 0.190625
vt 0.235406 0.940625
vt 0.145958 0.940625
vt 0.145958 0.940625
vt 0.235406 0.940625
vt 0.145958 0.818832
vt 0.235406 0.818832
vt 0.235406 0.818832
vt 0.145958 0.818832
vt 0.145958 0.818832
vt 0.145958 0.818832
vt 0.020958 0.068832
vt 0.020958 0.190625
vt 0.235406 0.940625
vt 0.145958 0.940625
vt 0.145958 0.940625
vt 0.235406 0.940625
vt 0.270958 0.068832
vt 0.270958 0.190625
vt 0.270958 0.190625
vt 0.270958 0.068832
vt 0.235406 0.818832
vt 0.235406 0.818832
vt 0.360406 0.190625
vt 0.360406 0.068832
vt 0.270958 0.190625
vt 0.270958 0.068832
vt 0.360406 0.068832
vt 0.360406 0.190625
vt 0.235406 0.940625
vt 0.145958 0.940625
vt 0.145958 0.940625
vt 0.235406 0.940625
vt 0.145958 0.818832
vt 0.235406 0.818832
vt 0.235406 0.818832
vt 0.145958 0.818832
vt 0.145958 0.818832
vt 0.145958 0.818832
vt 0.270958 0.068832
vt 0.270958 0.190625
vt 0.235406 0.940625
vt 0.145958 0.940625
vt 0.145958 0.940625
vt 0.235406 0.940625
vt 0.770958 0.068832
vt 0.770958 0.190625
vt 0.770958 0.190625
vt 0.770958 0.068832
vt 0.235406 0.818832
vt 0.235406 0.818832
vt 0.860406 0.190625
vt 0.860406 0.068832
vt 0.770958 0.190625
vt 0.770958 0.068832
vt 0.860406 0.068832
vt 0.860406 0.190625
vt 0.235406 0.940625
vt 0.145958 0.940625
vt 0.145958 0.940625
vt 0.235406 0.940625
vt 0.145958 0.818832
vt 0.235406 0.818832
vt 0.235406 0.818832
vt 0.145958 0.818832
vt 0.145958 0.818832
vt 0.145958 0.818832
vt 0.770958 0.068832
vt 0.770958 0.190625
vt 0.235406 0.940625
vt 0.145958 0.940625
vt 0.145958 0.940625
vt 0.235406 0.940625
vt 0.020958 0.068832
vt 0.020958 0.190625
vt 0.020958 0.190625
vt 0.020958 0.068832
vt 0.235406 0.818832
vt 0.235406 0.818832
vt 0.110406 0.190625
vt 0.110406 0.068832
vt 0.020958 0.190625
vt 0.020958 0.068832
vt 0.110406 0.068832
vt 0.110406 0.190625
vt 0.235406 0.940625
vt 0.145958 0.940625
vt 0.145958 0.940625
vt 0.235406 0.940625
vt 0.145958 0.818832
vt 0.235406 0.818832
vt 0.235406 0.818832
vt 0.145958 0.818832
vt 0.145958 0.818832
vt 0.145958 0.818832
vt 0.020958 0.068832
vt 0.020958 0.190625
vt 0.235406 0.940625
vt 0.145958 0.940625
vt 0.145958 0.940625
vt 0.235406 0.940625
vt 0.520958 0.568832
vt 0.520958 0.690625
vt 0.520958 0.690625
vt 0.520958 0.568832
vt 0.235406 0.818832
vt 0.235406 0.818832
vt 0.610406 0.690625
vt 0.610406 0.568832
vt 0.520958 0.690625
vt 0.520958 0.568832
vt 0.610406 0.568832
vt 0.610406 0.690625
vt 0.235406 0.940625
vt 0.145958 0.940625
vt 0.145958 0.940625
vt 0.235406 0.940625
vt 0.145958 0.818832
vt 0.235406 0.818832
vt 0.235406 0.818832
vt 0.145958 0.818832
vt 0.145958 0.818832
vt 0.145958 0.818832
vt 0.520958 0.568832
vt 0.520958 0.690625
vt 0.235406 0.940625
vt 0.145958 0.940625
vt 0.145958 0.940625
vt 0.235406 0.940625
vt 0.020958 0.068832
vt 0.020958 0.190625
vt 0.020958 0.190625
vt 0.020958 0.068832
vt 0.235406 0.818832
vt 0.235406 0.818832
vt 0.110406 0.190625
vt 0.110406 0.068832
vt 0.020958 0.190625
vt 0.020958 0.068832
vt 0.110406 0.068832
vt 0.110406 0.190625
vt 0.235406 0.940625
vt 0.145958 0.940625
vt 0.145958 0.940625
vt 0.235406 0.940625
vt 0.145958 0.818832
vt 0.235406 0.818832
vt 0.235406 0.818832
vt 0.145958 0.818832
vt 0.145958 0.818832
vt 0.145958 0.818832
vt 0.020958 0.068832
vt 0.020958 0.190625
vt 0.235406 0.940625
vt 0.145958 0.940625
vt 0.145958 0.940625
vt 0.235406 0.940625
vt 0.770958 0.068832
vt 0.770958 0.190625
vt 0.770958 0.190625
vt 0.770958 0.068832
vt 0.235406 0.818832
vt 0.235406 0.818832
vt 0.860406 0.190625
vt 0.860406 0.068832
vt 0.770958 0.190625
vt 0.770958 0.068832
vt 0.860406 0.068832
vt 0.860406 0.190625
vt 0.235406 0.940625
vt 0.145958 0.940625
vt 0.145958 0.940625
vt 0.235406 0.940625
vt 0.145958 0.818832
vt 0.235406 0.818832
vt 0.235406 0.818832
vt 0.145958 0.818832
vt 0.145958 0.818832
vt 0.145958 0.818832
vt 0.770958 0.068832
vt 0.770958 0.190625
vt 0.235406 0.940625
vt 0.145958 0.940625
vt 0.145958 0.940625
vt 0.235406 0.940625
vt 0.020958 0.068832
vt 0.020958 0.190625
vt 0.020958 0.190625
vt 0.020958 0.068832
vt 0.235406 0.818832
vt 0.235406 0.818832
vt 0.110406 0.190625
vt 0.110406 0.068832
vt 0.020958 0.190625
vt 0.020958 0.068832
vt 0.110406 0.068832
vt 0.110406 0.190625
vt 0.235406 0.940625
vt 0.145958 0.940625
vt 0.145958 0.940625
vt 0.235406 0.940625
vt 0.145958 0.818832
vt 0.235406 0.818832
vt 0.235406 0.818832
vt 0.145958 0.818832
vt 0.145958 0.818832
vt 0.145958 0.818832
vt 0.020958 0.068832
vt 0.020958 0.190625
vt 0.235406 0.940625
vt 0.145958 0.940625
vt 0.145958 0.940625
vt 0.235406 0.940625
vt 0.645958 0.568832
vt 0.645958 0.690625
vt 0.645958 0.690625
vt 0.645958 0.568832
vt 0.235406 0.818832
vt 0.235406 0.818832
vt 0.735406 0.690625
vt 0.735406 0.568832
vt 0.645958 0.690625
vt 0.645958 0.568832
vt 0.735406 0.568832
vt 0.735406 0.690625
vt 0.235406 0.940625
vt 0.145958 0.940625
vt 0.145958 0.940625
vt 0.235406 0.940625
vt 0.145958 0.818832
vt 0.235406 0.818832
vt 0.235406 0.818832
vt 0.145958 0.818832
vt 0.145958 0.818832
vt 0.145958 0.818832
vt 0.645958 0.568832
vt 0.645958 0.690625
vn 1.0000 0.0000 0.0000
vn -1.0000 0.0000 0.0000
vn -0.4606 -0.7588 0.4606
vn -0.4606 -0.4606 0.7588
vn -0.7588 -0.4606 0.4606
vn -0.4606 0.4606 0.7588
vn -0.4606 0.7588 0.4606
vn -0.7588 0.4606 0.4606
vn -0.4606 -0.7588 -0.4606
vn -0.7588 -0.4606 -0.4606
vn -0.4606 -0.4606 -0.7588
vn -0.4606 0.7588 -0.4606
vn -0.4606 0.4606 -0.7588
vn -0.7588 0.4606 -0.4606
vn 0.4606 -0.7588 0.4606
vn 0.7588 -0.4606 0.4606
vn 0.4606 -0.4606 0.7588
vn 0.4606 0.7588 0.4606
vn 0.4606 0.4606 0.7588
vn 0.7588 0.4606 0.4606
vn 0.4606 -0.7588 -0.4606
vn 0.4606 -0.4606 -0.7588
vn 0.7588 -0.4606 -0.4606
vn 0.4606 0.7588 -0.4606
vn 0.7588 0.4606 -0.4606
vn 0.4606 0.4606 -0.7588
vn 0.0000 -1.0000 0.0000
vn 0.0000 0.0000 1.0000
vn 0.0000 0.0000 -1.0000
vn 0.0000 1.0000 0.0000
vn 0.7071 -0.7071 0.0000
vn -0.7071 -0.7071 0.0000
vn -0.7071 0.7071 0.0000
vn 0.7071 0.7071 0.0000
vn 0.0219 0.9884 -0.1504
vn -0.9571 -0.0227 -0.2889
vn -0.8327 -0.0652 -0.5499
vn 0.8327 0.0652 0.5499
vn 0.9571 0.0227 0.2889
vn 0.0000 -0.1505 -0.9886
vn -0.0000 0.1505 0.9886
vn -0.0219 -0.9884 0.1504
vn 0.9571 -0.0643 -0.2826
vn 0.8327 -0.1014 -0.5444
vn -0.9571 0.0643 0.2826
vn -0.8327 0.1014 0.5444
vn -0.0474 0.9949 -0.0890
vn -0.9538 -0.0715 -0.2919
vn -0.8273 -0.0890 -0.5547
vn 0.8273 0.0890 0.5547
vn 0.9538 0.0715 0.2919
vn 0.0084 -0.0887 -0.9960
vn -0.0084 0.0887 0.9960
vn 0.0474 -0.9949 0.0890
vn 0.9586 0.0202 -0.2840
vn 0.8365 -0.0092 -0.5478
vn -0.9586 -0.0202 0.2840
vn -0.8365 0.0092 0.5478
vn 0.0042 0.9886 -0.1505
vn -0.9573 -0.0395 -0.2864
vn -0.8329 -0.0798 -0.5477
vn 0.8329 0.0798 0.5477
vn 0.9573 0.0395 0.2864
vn -0.0042 -0.9886 0.1505
vn 0.9573 -0.0475 -0.2852
vn 0.8329 -0.0867 -0.5466
vn -0.9573 0.0475 0.2852
vn -0.8329 0.0867 0.5466
vn 0.0000 0.9886 -0.1505
vn -0.9573 -0.0435 -0.2858
vn -0.8329 -0.0833 -0.5472
vn 0.8329 0.0833 0.5472
vn 0.9573 0.0435 0.2858
vn 0.0000 -0.9886 0.1505
vn 0.9573 -0.0435 -0.2858
vn 0.8329 -0.0833 -0.5472
vn -0.9573 0.0435 0.2858
vn -0.8329 0.0833 0.5472
vn 0.0373 0.9879 -0.1504
vn -0.9566 -0.0082 -0.2912
vn -0.8323 -0.0525 -0.5518
vn 0.8323 0.0525 0.5518
vn 0.9566 0.0082 0.2912
vn -0.0373 -0.9879 0.1504
vn 0.9566 -0.0788 -0.2804
vn 0.8323 -0.1140 -0.5425
vn -0.9566 0.0788 0.2804
vn -0.8323 0.1140 0.5425
vn -0.0007 0.9886 -0.1505
vn -0.9573 -0.0441 -0.2857
vn -0.8329 -0.0838 -0.5471
vn 0.8329 0.0838 0.5471
vn 0.9573 0.0441 0.2857
vn 0.0007 -0.9886 0.1505
vn 0.9573 -0.0428 -0.2859
vn 0.8329 -0.0827 -0.5473
vn -0.9573 0.0428 0.2859
vn -0.8329 0.0827 0.5473
vn -0.0219 0.9884 -0.1504
vn -0.9571 -0.0643 -0.2826
vn -0.8327 -0.1013 -0.5444
vn 0.8327 0.1013 0.5444
vn 0.9571 0.0643 0.2826
vn -0.0219 0.9884 -0.1505
vn 0.0219 -0.9884 0.1504
vn 0.9571 -0.0227 -0.2889
vn 0.8327 -0.0652 -0.5499
vn -0.9571 0.0227 0.2889
vn -0.8327 0.0652 0.5499
vn -0.0753 0.9858 -0.1500
vn -0.9546 -0.1148 -0.2749
vn -0.8305 -0.1453 -0.5377
vn 0.8305 0.1453 0.5377
vn 0.9546 0.1148 0.2749
vn 0.0753 -0.9858 0.1500
vn 0.9546 0.0278 -0.2966
vn 0.8305 -0.0213 -0.5566
vn -0.9546 -0.0278 0.2966
vn -0.8305 0.0213 0.5566
vn -0.0698 0.9862 -0.1501
vn -0.9550 -0.1095 -0.2757
vn -0.8308 -0.1407 -0.5384
vn 0.8308 0.1407 0.5384
vn 0.9550 0.1095 0.2757
vn 0.0698 -0.9862 0.1501
vn 0.9550 0.0225 -0.2958
vn 0.8308 -0.0258 -0.5559
vn -0.9550 -0.0225 0.2958
vn -0.8308 0.0258 0.5559
vn -0.0436 0.9877 -0.1503
vn -0.9564 -0.0847 -0.2795
vn -0.8321 -0.1192 -0.5417
vn 0.8321 0.1192 0.5417
vn 0.9564 0.0847 0.2795
vn 0.0436 -0.9877 0.1503
vn 0.9564 -0.0023 -0.2921
vn 0.8321 -0.0474 -0.5526
vn -0.9564 0.0023 0.2921
vn -0.8321 0.0474 0.5526
vn -0.0095 0.9886 -0.1505
vn -0.9573 -0.0525 -0.2844
vn -0.8328 -0.0911 -0.5460
vn 0.8328 0.0911 0.5460
vn 0.9573 0.0525 0.2844
vn 0.0095 -0.9886 0.1505
vn 0.9573 -0.0345 -0.2872
vn 0.8328 -0.0755 -0.5484
vn -0.9573 0.0345 0.2872
vn -0.8328 0.0755 0.5484
vn -0.0922 0.9844 -0.1498
vn -0.0923 0.9844 -0.1498
vn -0.9532 -0.1308 -0.2725
vn -0.8293 -0.1592 -0.5356
vn 0.8293 0.1592 0.5356
vn 0.9532 0.1308 0.2725
vn 0.0923 -0.9844 0.1498
vn 0.9532 0.0438 -0.2991
vn 0.8293 -0.0073 -0.5587
vn -0.9532 -0.0438 0.2991
vn -0.8293 0.0073 0.5587
usemtl KayKit_Texture_A
s 1
f 21/1/1 23/2/1 18/3/1 14/4/1
f 3/5/2 6/6/2 12/7/2 8/8/2
f 1/9/3 2/10/4 3/11/5
f 4/12/6 77/13/7 6/14/8
f 7/15/9 8/16/10 9/17/11
f 78/18/12 11/19/13 12/20/14
f 13/21/15 14/22/16 15/23/17
f 80/24/18 17/25/19 18/26/20
f 19/27/21 20/28/22 21/29/23
f 79/30/24 23/31/25 24/32/26
f 7/15/9 1/9/3 3/11/5 8/16/10
f 2/10/4 4/12/6 6/14/8 3/11/5
f 77/13/7 78/18/12 12/20/14 6/14/8
f 11/19/13 9/17/11 8/16/10 12/20/14
f 19/27/21 7/15/9 9/17/11 20/28/22
f 78/18/12 79/30/24 24/32/26 11/19/13
f 23/31/25 21/29/23 20/28/22 24/32/26
f 13/21/15 19/27/21 21/29/23 14/22/16
f 79/30/24 80/24/18 18/26/20 23/31/25
f 17/25/19 15/23/17 14/22/16 18/26/20
f 1/9/3 13/21/15 15/23/17 2/10/4
f 80/24/18 77/13/7 4/12/6 17/25/19
f 7/33/27 19/34/27 13/35/27 1/36/27
f 52/37/28 51/38/28 71/39/28 73/40/28
f 76/41/29 75/42/29 44/43/29 46/44/29
f 34/45/29 33/46/29 65/47/29 67/48/29
f 50/49/27 39/50/27 56/51/27 60/52/27
f 74/53/30 66/54/30 29/55/30 42/56/30
f 68/57/30 72/58/30 47/59/30 36/60/30
f 58/61/29 57/62/29 35/63/29 37/64/29
f 67/48/29 66/65/29 74/66/29 76/41/29
f 71/67/2 51/68/2 59/69/2 48/70/2
f 44/71/2 75/72/2 41/73/2 63/74/2
f 46/44/29 45/75/29 32/76/29 34/45/29
f 61/77/29 60/78/29 56/79/29 58/61/29
f 70/80/28 69/81/28 38/82/28 40/83/28
f 32/84/27 45/85/27 62/86/27 54/87/27
f 4/88/28 55/89/28 64/90/28 17/91/28
f 73/40/28 72/92/28 68/93/28 70/80/28
f 38/94/1 69/95/1 35/96/1 57/97/1
f 64/90/28 63/98/28 41/99/28 43/100/28
f 49/101/29 48/102/29 59/103/29 61/77/29
f 55/89/28 54/104/28 62/105/28 64/90/28
f 43/100/28 42/106/28 29/107/28 31/108/28
f 31/108/28 30/109/28 53/110/28 55/89/28
f 40/83/28 39/111/28 50/112/28 52/37/28
f 37/64/29 36/113/29 47/114/29 49/101/29
f 29/107/28 30/109/28 31/108/28
f 32/76/29 33/46/29 34/45/29
f 35/63/29 36/113/29 37/64/29
f 38/82/28 39/111/28 40/83/28
f 41/99/28 42/106/28 43/100/28
f 44/43/29 45/75/29 46/44/29
f 47/114/29 48/102/29 49/101/29
f 50/112/28 51/38/28 52/37/28
f 53/110/28 54/104/28 55/89/28
f 56/79/29 57/62/29 58/61/29
f 59/103/29 60/78/29 61/77/29
f 62/105/28 63/98/28 64/90/28
f 65/47/29 66/65/29 67/48/29
f 68/93/28 69/81/28 70/80/28
f 71/39/28 72/92/28 73/40/28
f 74/66/29 75/42/29 76/41/29
f 53/115/31 33/116/31 32/84/31 54/87/31
f 44/71/32 63/74/32 62/86/32 45/85/32
f 74/53/33 42/56/33 41/73/33 75/72/33
f 65/117/34 30/118/34 29/55/34 66/54/34
f 35/96/34 69/95/34 68/57/34 36/60/34
f 71/67/33 48/70/33 47/59/33 72/58/33
f 50/49/32 60/52/32 59/69/32 51/68/32
f 38/94/31 57/97/31 56/51/31 39/50/31
f 65/117/1 33/116/1 53/115/1 30/118/1
f 17/91/28 64/90/28 43/100/28 15/119/28
f 15/119/28 43/100/28 31/108/28 2/120/28
f 2/120/28 31/108/28 55/89/28 4/88/28
f 11/121/29 58/61/29 37/64/29 9/122/29
f 9/122/29 37/64/29 49/101/29 20/123/29
f 20/123/29 49/101/29 61/77/29 24/124/29
f 24/124/29 61/77/29 58/61/29 11/121/29
f 10/125/28 40/83/28 52/37/28 22/126/28
f 22/126/28 52/37/28 73/40/28 26/127/28
f 26/127/28 73/40/28 70/80/28 25/128/28
f 25/128/28 70/80/28 40/83/28 10/125/28
f 5/129/29 34/45/29 67/48/29 28/130/29
f 28/130/29 67/48/29 76/41/29 27/131/29
f 27/131/29 76/41/29 46/44/29 16/132/29
f 16/132/29 46/44/29 34/45/29 5/129/29
f 16/132/2 22/126/2 26/127/2 27/131/2
f 25/133/30 28/134/30 27/135/30 26/136/30
f 5/129/1 28/130/1 25/128/1 10/125/1
f 5/137/30 10/138/30 78/139/30 77/140/30
f 10/138/30 22/141/30 79/142/30 78/139/30
f 22/141/30 16/143/30 80/144/30 79/142/30
f 16/143/30 5/137/30 77/140/30 80/144/30
f 86/145/35 83/146/35 91/147/35 96/148/35
f 90/149/36 91/150/36 83/151/37 84/152/37
f 85/153/38 86/145/38 96/148/39 93/154/39
f 84/152/40 83/151/40 86/155/40 85/156/40
f 82/157/41 81/158/41 88/159/41 87/160/41
f 95/161/35 92/162/35 82/163/35 87/164/35
f 89/165/42 94/166/42 88/167/42 81/168/42
f 94/166/43 95/161/43 87/164/44 88/167/44
f 84/169/42 85/153/42 93/154/42 90/170/42
f 92/162/35 95/161/35 96/148/35 91/147/35
f 94/166/42 89/165/42 90/170/42 93/154/42
f 95/161/43 94/166/43 93/154/39 96/148/39
f 91/150/36 90/149/36 89/171/45 92/172/45
f 81/158/46 82/157/46 92/172/45 89/171/45
f 102/173/47 99/174/47 107/175/47 112/176/47
f 106/177/48 107/178/48 99/179/49 100/180/49
f 101/181/50 102/173/50 112/176/51 109/182/51
f 100/180/52 99/179/52 102/183/52 101/184/52
f 98/185/53 97/186/53 104/187/53 103/188/53
f 111/189/47 108/190/47 98/191/47 103/192/47
f 105/193/54 110/194/54 104/195/54 97/196/54
f 110/194/55 111/189/55 103/192/56 104/195/56
f 100/197/54 101/181/54 109/182/54 106/198/54
f 108/190/47 111/189/47 112/176/47 107/175/47
f 110/194/54 105/193/54 106/198/54 109/182/54
f 111/189/55 110/194/55 109/182/51 112/176/51
f 107/178/48 106/177/48 105/199/57 108/200/57
f 97/186/58 98/185/58 108/200/57 105/199/57
f 118/201/59 115/202/59 123/203/59 128/204/59
f 122/205/60 123/206/60 115/207/61 116/208/61
f 117/209/62 118/201/62 128/204/63 125/210/63
f 116/208/40 115/207/40 118/211/40 117/212/40
f 114/213/41 113/214/41 120/215/41 119/216/41
f 127/217/59 124/218/59 114/219/59 119/220/59
f 121/221/64 126/222/64 120/223/64 113/224/64
f 126/222/65 127/217/65 119/220/66 120/223/66
f 116/225/64 117/209/64 125/210/64 122/226/64
f 124/218/59 127/217/59 128/204/59 123/203/59
f 126/222/64 121/221/64 122/226/64 125/210/64
f 127/217/65 126/222/65 125/210/63 128/204/63
f 123/206/60 122/205/60 121/227/67 124/228/67
f 113/214/68 114/213/68 124/228/67 121/227/67
f 134/229/69 131/230/69 139/231/69 144/232/69
f 138/233/70 139/234/70 131/235/71 132/236/71
f 133/237/72 134/229/72 144/232/73 141/238/73
f 132/236/40 131/235/40 134/239/40 133/240/40
f 130/241/41 129/242/41 136/243/41 135/244/41
f 143/245/69 140/246/69 130/247/69 135/248/69
f 137/249/74 142/250/74 136/251/74 129/252/74
f 142/250/75 143/245/75 135/248/76 136/251/76
f 132/253/74 133/237/74 141/238/74 138/254/74
f 140/246/69 143/245/69 144/232/69 139/231/69
f 142/250/74 137/249/74 138/254/74 141/238/74
f 143/245/75 142/250/75 141/238/73 144/232/73
f 139/234/70 138/233/70 137/255/77 140/256/77
f 129/242/78 130/241/78 140/256/77 137/255/77
f 150/257/79 147/258/79 155/259/79 160/260/79
f 154/261/80 155/262/80 147/263/81 148/264/81
f 149/265/82 150/257/82 160/260/83 157/266/83
f 148/264/40 147/263/40 150/267/40 149/268/40
f 146/269/41 145/270/41 152/271/41 151/272/41
f 159/273/79 156/274/79 146/275/79 151/276/79
f 153/277/84 158/278/84 152/279/84 145/280/84
f 158/278/85 159/273/85 151/276/86 152/279/86
f 148/281/84 149/265/84 157/266/84 154/282/84
f 156/274/79 159/273/79 160/260/79 155/259/79
f 158/278/84 153/277/84 154/282/84 157/266/84
f 159/273/85 158/278/85 157/266/83 160/260/83
f 155/262/80 154/261/80 153/283/87 156/284/87
f 145/270/88 146/269/88 156/284/87 153/283/87
f 166/285/69 163/286/69 171/287/69 176/288/69
f 170/289/70 171/290/70 163/291/71 164/292/71
f 165/293/72 166/285/72 176/288/73 173/294/73
f 164/292/40 163/291/40 166/295/40 165/296/40
f 162/297/41 161/298/41 168/299/41 167/300/41
f 175/301/69 172/302/69 162/303/69 167/304/69
f 169/305/74 174/306/74 168/307/74 161/308/74
f 174/306/75 175/301/75 167/304/76 168/307/76
f 164/309/74 165/293/74 173/294/74 170/310/74
f 172/302/69 175/301/69 176/288/69 171/287/69
f 174/306/74 169/305/74 170/310/74 173/294/74
f 175/301/75 174/306/75 173/294/73 176/288/73
f 171/290/70 170/289/70 169/311/77 172/312/77
f 161/298/78 162/297/78 172/312/77 169/311/77
f 182/313/69 179/314/69 187/315/69 192/316/69
f 186/317/70 187/318/70 179/319/71 180/320/71
f 181/321/72 182/313/72 192/316/73 189/322/73
f 180/320/40 179/319/40 182/323/40 181/324/40
f 178/325/41 177/326/41 184/327/41 183/328/41
f 191/329/69 188/330/69 178/331/69 183/332/69
f 185/333/74 190/334/74 184/335/74 177/336/74
f 190/334/75 191/329/75 183/332/76 184/335/76
f 180/337/74 181/321/74 189/322/74 186/338/74
f 188/330/69 191/329/69 192/316/69 187/315/69
f 190/334/74 185/333/74 186/338/74 189/322/74
f 191/329/75 190/334/75 189/322/73 192/316/73
f 187/318/70 186/317/70 185/339/77 188/340/77
f 177/326/78 178/325/78 188/340/77 185/339/77
f 198/341/89 195/342/89 203/343/89 208/344/89
f 202/345/90 203/346/90 195/347/91 196/348/91
f 197/349/92 198/341/92 208/344/93 205/350/93
f 196/348/40 195/347/40 198/351/40 197/352/40
f 194/353/41 193/354/41 200/355/41 199/356/41
f 207/357/89 204/358/89 194/359/89 199/360/89
f 201/361/94 206/362/94 200/363/94 193/364/94
f 206/362/95 207/357/95 199/360/96 200/363/96
f 196/365/94 197/349/94 205/350/94 202/366/94
f 204/358/89 207/357/89 208/344/89 203/343/89
f 206/362/94 201/361/94 202/366/94 205/350/94
f 207/357/95 206/362/95 205/350/93 208/344/93
f 203/346/90 202/345/90 201/367/97 204/368/97
f 193/354/98 194/353/98 204/368/97 201/367/97
f 214/369/99 211/370/99 219/371/99 224/372/99
f 218/373/100 219/374/100 211/375/101 212/376/101
f 213/377/102 214/369/102 224/372/103 221/378/103
f 212/376/40 211/375/40 214/379/40 213/380/40
f 210/381/41 209/382/41 216/383/41 215/384/41
f 223/385/99 220/386/99 210/387/104 215/388/104
f 217/389/105 222/390/105 216/391/105 209/392/105
f 222/390/106 223/385/106 215/388/107 216/391/107
f 212/393/105 213/377/105 221/378/105 218/394/105
f 220/386/99 223/385/99 224/372/99 219/371/99
f 222/390/105 217/389/105 218/394/105 221/378/105
f 223/385/106 222/390/106 221/378/103 224/372/103
f 219/374/100 218/373/100 217/395/108 220/396/108
f 209/382/109 210/381/109 220/396/108 217/395/108
f 230/397/69 227/398/69 235/399/69 240/400/69
f 234/401/70 235/402/70 227/403/71 228/404/71
f 229/405/72 230/397/72 240/400/73 237/406/73
f 228/404/40 227/403/40 230/407/40 229/408/40
f 226/409/41 225/410/41 232/411/41 231/412/41
f 239/413/69 236/414/69 226/415/69 231/416/69
f 233/417/74 238/418/74 232/419/74 225/420/74
f 238/418/75 239/413/75 231/416/76 232/419/76
f 228/421/74 229/405/74 237/406/74 234/422/74
f 236/414/69 239/413/69 240/400/69 235/399/69
f 238/418/74 233/417/74 234/422/74 237/406/74
f 239/413/75 238/418/75 237/406/73 240/400/73
f 235/402/70 234/401/70 233/423/77 236/424/77
f 225/410/78 226/409/78 236/424/77 233/423/77
f 246/425/110 243/426/110 251/427/110 256/428/110
f 250/429/111 251/430/111 243/431/112 244/432/112
f 245/433/113 246/425/113 256/428/114 253/434/114
f 244/432/40 243/431/40 246/435/40 245/436/40
f 242/437/41 241/438/41 248/439/41 247/440/41
f 255/441/110 252/442/110 242/443/110 247/444/110
f 249/445/115 254/446/115 248/447/115 241/448/115
f 254/446/116 255/441/116 247/444/117 248/447/117
f 244/449/115 245/433/115 253/434/115 250/450/115
f 252/442/110 255/441/110 256/428/110 251/427/110
f 254/446/115 249/445/115 250/450/115 253/434/115
f 255/441/116 254/446/116 253/434/114 256/428/114
f 251/430/111 250/429/111 249/451/118 252/452/118
f 241/438/119 242/437/119 252/452/118 249/451/118
f 262/453/120 259/454/120 267/455/120 272/456/120
f 266/457/121 267/458/121 259/459/122 260/460/122
f 261/461/123 262/453/123 272/456/124 269/462/124
f 260/460/40 259/459/40 262/463/40 261/464/40
f 258/465/41 257/466/41 264/467/41 263/468/41
f 271/469/120 268/470/120 258/471/120 263/472/120
f 265/473/125 270/474/125 264/475/125 257/476/125
f 270/474/126 271/469/126 263/472/127 264/475/127
f 260/477/125 261/461/125 269/462/125 266/478/125
f 268/470/120 271/469/120 272/456/120 267/455/120
f 270/474/125 265/473/125 266/478/125 269/462/125
f 271/469/126 270/474/126 269/462/124 272/456/124
f 267/458/121 266/457/121 265/479/128 268/480/128
f 257/466/129 258/465/129 268/480/128 265/479/128
f 278/481/130 275/482/130 283/483/130 288/484/130
f 282/485/131 283/486/131 275/487/132 276/488/132
f 277/489/133 278/481/133 288/484/134 285/490/134
f 276/488/40 275/487/40 278/491/40 277/492/40
f 274/493/41 273/494/41 280/495/41 279/496/41
f 287/497/130 284/498/130 274/499/130 279/500/130
f 281/501/135 286/502/135 280/503/135 273/504/135
f 286/502/136 287/497/136 279/500/137 280/503/137
f 276/505/135 277/489/135 285/490/135 282/506/135
f 284/498/130 287/497/130 288/484/130 283/483/130
f 286/502/135 281/501/135 282/506/135 285/490/135
f 287/497/136 286/502/136 285/490/134 288/484/134
f 283/486/131 282/485/131 281/507/138 284/508/138
f 273/494/139 274/493/139 284/508/138 281/507/138
f 294/509/140 291/510/140 299/511/140 304/512/140
f 298/513/141 299/514/141 291/515/142 292/516/142
f 293/517/143 294/509/143 304/512/144 301/518/144
f 292/516/40 291/515/40 294/519/40 293/520/40
f 290/521/41 289/522/41 296/523/41 295/524/41
f 303/525/140 300/526/140 290/527/140 295/528/140
f 297/529/145 302/530/145 296/531/145 289/532/145
f 302/530/146 303/525/146 295/528/147 296/531/147
f 292/533/145 293/517/145 301/518/145 298/534/145
f 300/526/140 303/525/140 304/512/140 299/511/140
f 302/530/145 297/529/145 298/534/145 301/518/145
f 303/525/146 302/530/146 301/518/144 304/512/144
f 299/514/141 298/513/141 297/535/148 300/536/148
f 289/522/149 290/521/149 300/536/148 297/535/148
f 310/537/150 307/538/150 315/539/151 320/540/151
f 314/541/152 315/542/152 307/543/153 308/544/153
f 309/545/154 310/537/154 320/540/155 317/546/155
f 308/544/40 307/543/40 310/547/40 309/548/40
f 306/549/41 305/550/41 312/551/41 311/552/41
f 319/553/150 316/554/151 306/555/150 311/556/150
f 313/557/156 318/558/156 312/559/156 305/560/156
f 318/558/157 319/553/157 311/556/158 312/559/158
f 308/561/156 309/545/156 317/546/156 314/562/156
f 316/554/151 319/553/150 320/540/151 315/539/151
f 318/558/156 313/557/156 314/562/156 317/546/156
f 319/553/157 318/558/157 317/546/155 320/540/155
f 315/542/152 314/541/152 313/563/159 316/564/159
f 305/550/160 306/549/160 316/564/159 313/563/159
