# Blender v3.4.1 OBJ File: 'MixedBag1_Export.blend'
# www.blender.org
mtllib comicbox_closed.mtl
o comicbox_closed
v -0.301754 0.000000 0.384000
v -0.301754 0.016000 0.400000
v -0.317754 0.016000 0.384000
v -0.301754 0.664000 0.400000
v -0.317754 0.664000 0.384000
v -0.301754 0.000000 -0.384000
v -0.317754 0.016000 -0.384000
v -0.301754 0.016000 -0.400000
v -0.301754 0.664000 -0.400000
v -0.317754 0.664000 -0.384000
v 0.301754 0.000000 0.384000
v 0.317754 0.016000 0.384000
v 0.301754 0.016000 0.400000
v 0.301754 0.664000 0.400000
v 0.317754 0.664000 0.384000
v 0.301754 0.000000 -0.384000
v 0.301754 0.016000 -0.400000
v 0.317754 0.016000 -0.384000
v 0.317754 0.664000 -0.384000
v 0.301754 0.664000 -0.400000
v -0.116880 0.361786 0.400000
v -0.154153 0.399059 0.400000
v -0.205179 0.326337 0.400000
v -0.103527 0.475249 0.343176
v -0.136542 0.443758 0.343176
v -0.154153 0.399059 -0.400000
v -0.116880 0.361786 -0.400000
v -0.205179 0.326337 -0.400000
v -0.136542 0.443758 -0.343176
v -0.103527 0.475249 -0.343176
v 0.154154 0.399059 0.400000
v 0.116880 0.361786 0.400000
v 0.205179 0.326337 0.400000
v 0.136543 0.443758 0.343176
v 0.103527 0.475249 0.343176
v 0.116880 0.361786 -0.400000
v 0.154154 0.399059 -0.400000
v 0.205179 0.326337 -0.400000
v 0.103527 0.475249 -0.343176
v 0.136543 0.443758 -0.343176
v -0.154153 0.447517 0.400000
v -0.116880 0.484791 0.400000
v -0.205179 0.514489 0.400000
v -0.116880 0.484791 -0.400000
v -0.154153 0.447517 -0.400000
v -0.205179 0.514489 -0.400000
v 0.154154 0.447517 -0.400000
v 0.116880 0.484791 -0.400000
v 0.205179 0.514489 -0.400000
v 0.116880 0.484791 0.400000
v 0.154154 0.447517 0.400000
v 0.205179 0.514489 0.400000
v -0.136542 0.402818 0.343176
v -0.103527 0.371327 0.343176
v -0.103527 0.371327 -0.343176
v -0.136542 0.402818 -0.343176
v 0.136543 0.402818 -0.343176
v 0.103527 0.371327 -0.343176
v 0.103527 0.371327 0.343176
v 0.136543 0.402818 0.343176
v -0.301754 0.680000 0.384000
v -0.301754 0.680000 -0.384000
v 0.301754 0.680000 -0.384000
v 0.301754 0.680000 0.384000
v -0.343398 0.549916 0.432033
v -0.359398 0.549916 0.416033
v -0.343398 0.730083 0.432033
v -0.343398 0.746083 0.416033
v -0.359398 0.730083 0.416033
v -0.359398 0.549916 -0.416033
v -0.343398 0.549916 -0.432033
v -0.343398 0.746083 -0.416033
v -0.343398 0.730083 -0.432033
v -0.359398 0.730083 -0.416033
v 0.359398 0.549916 0.416033
v 0.343398 0.549916 0.432033
v 0.343398 0.746083 0.416033
v 0.343398 0.730083 0.432033
v 0.359398 0.730083 0.416033
v 0.343398 0.549916 -0.432033
v 0.359398 0.549916 -0.416033
v 0.343398 0.746083 -0.416033
v 0.359398 0.730083 -0.416033
v 0.343398 0.730083 -0.432033
v -0.343398 0.533916 -0.416033
v -0.343398 0.533916 0.416033
v 0.343398 0.533916 -0.416033
v 0.343398 0.533916 0.416033
vt 0.730744 0.329842
vt 0.730744 0.434362
vt 0.730744 0.434362
vt 0.730744 0.329842
vt 0.644256 0.329842
vt 0.644256 0.434362
vt 0.644256 0.434362
vt 0.644256 0.329842
vt 0.646433 0.374540
vt 0.646433 0.376717
vt 0.644256 0.376717
vt 0.646433 0.481237
vt 0.646433 0.483415
vt 0.644256 0.481237
vt 0.646433 0.374540
vt 0.644256 0.376717
vt 0.646433 0.376717
vt 0.646433 0.483415
vt 0.646433 0.481237
vt 0.644256 0.481237
vt 0.728567 0.374540
vt 0.730744 0.376717
vt 0.728567 0.376717
vt 0.728567 0.483415
vt 0.728567 0.481237
vt 0.730744 0.481237
vt 0.728567 0.374540
vt 0.728567 0.376717
vt 0.730744 0.376717
vt 0.728567 0.483415
vt 0.730744 0.481237
vt 0.728567 0.481237
vt 0.646433 0.327665
vt 0.728567 0.327665
vt 0.728567 0.327665
vt 0.646433 0.327665
vt 0.703407 0.378723
vt 0.671594 0.378723
vt 0.671594 0.378723
vt 0.703407 0.378723
vt 0.703407 0.361983
vt 0.671594 0.361983
vt 0.671594 0.361983
vt 0.703407 0.361983
vt 0.671594 0.361983
vt 0.703407 0.361983
vt 0.703407 0.361983
vt 0.671594 0.361983
vt 0.664230 0.414015
vt 0.666521 0.404900
vt 0.666521 0.398306
vt 0.664230 0.388409
vt 0.708479 0.367056
vt 0.708479 0.373650
vt 0.708479 0.373650
vt 0.708479 0.367056
vt 0.708479 0.373650
vt 0.708479 0.367056
vt 0.708479 0.367056
vt 0.708479 0.373650
vt 0.710770 0.414015
vt 0.703407 0.409973
vt 0.671594 0.409973
vt 0.671594 0.378723
vt 0.703407 0.378723
vt 0.703407 0.378723
vt 0.671594 0.378723
vt 0.646433 0.434362
vt 0.664230 0.414015
vt 0.710770 0.414015
vt 0.728567 0.434362
vt 0.666521 0.373650
vt 0.666521 0.367056
vt 0.666521 0.367056
vt 0.666521 0.373650
vt 0.708479 0.404900
vt 0.708479 0.398306
vt 0.710770 0.388409
vt 0.710770 0.388409
vt 0.708479 0.398306
vt 0.708479 0.404900
vt 0.671594 0.409973
vt 0.703407 0.409973
vt 0.703407 0.393233
vt 0.671594 0.393233
vt 0.664230 0.388409
vt 0.666521 0.398306
vt 0.666521 0.404900
vt 0.671594 0.393233
vt 0.703407 0.393233
vt 0.666521 0.373650
vt 0.666521 0.373650
vt 0.666521 0.367056
vt 0.666521 0.367056
vt 0.728567 0.329842
vt 0.646433 0.329842
vt 0.646433 0.434362
vt 0.646433 0.329842
vt 0.728567 0.329842
vt 0.728567 0.434362
vt 0.903019 0.263847
vt 0.908092 0.260587
vt 0.939905 0.260587
vt 0.944978 0.263847
vt 0.944978 0.268085
vt 0.903019 0.268085
vt 0.728567 0.452165
vt 0.728567 0.452165
vt 0.646433 0.452165
vt 0.646433 0.452165
vt 0.908092 0.271346
vt 0.939905 0.271346
vt 0.903019 0.268085
vt 0.908092 0.271346
vt 0.939905 0.271346
vt 0.944978 0.268085
vt 0.944978 0.263847
vt 0.903019 0.263847
vt 0.908092 0.260587
vt 0.939905 0.260587
vt 0.730881 0.371891
vt 0.730881 0.394970
vt 0.642906 0.394970
vt 0.642906 0.371891
vt 0.732931 0.371891
vt 0.732931 0.394970
vt 0.732931 0.394970
vt 0.732931 0.371891
vt 0.730881 0.412644
vt 0.642906 0.412644
vt 0.642906 0.412644
vt 0.730881 0.412644
vt 0.640857 0.371891
vt 0.640857 0.394970
vt 0.640857 0.394970
vt 0.640857 0.371891
vt 0.642906 0.371891
vt 0.642906 0.394970
vt 0.730881 0.394970
vt 0.730881 0.371891
vt 0.642906 0.416717
vt 0.642906 0.418766
vt 0.640857 0.418766
vt 0.642906 0.457470
vt 0.642906 0.459519
vt 0.640857 0.457470
vt 0.642906 0.416717
vt 0.640857 0.418766
vt 0.642906 0.418766
vt 0.642906 0.459519
vt 0.642906 0.457470
vt 0.640857 0.457470
vt 0.730881 0.416717
vt 0.732931 0.418766
vt 0.730881 0.418766
vt 0.730881 0.459519
vt 0.730881 0.457470
vt 0.732931 0.457470
vt 0.730881 0.416717
vt 0.730881 0.418766
vt 0.732931 0.418766
vt 0.730881 0.459519
vt 0.732931 0.457470
vt 0.730881 0.457470
vt 0.642906 0.441845
vt 0.640857 0.441845
vt 0.642906 0.441845
vt 0.640857 0.441845
vt 0.732931 0.441845
vt 0.730881 0.441845
vt 0.730881 0.441845
vt 0.732931 0.441845
vt 0.642906 0.369842
vt 0.642906 0.369842
vt 0.730881 0.369842
vt 0.730881 0.369842
vn 1.0000 0.0000 0.0000
vn -1.0000 0.0000 0.0000
vn -0.4606 -0.7588 0.4606
vn -0.4606 -0.4606 0.7588
vn -0.7588 -0.4606 0.4606
vn -0.4606 0.4606 0.7588
vn -0.4606 0.7588 0.4606
vn -0.7588 0.4606 0.4606
vn -0.4606 -0.7588 -0.4606
vn -0.7588 -0.4606 -0.4606
vn -0.4606 -0.4606 -0.7588
vn -0.4606 0.7588 -0.4606
vn -0.4606 0.4606 -0.7588
vn -0.7588 0.4606 -0.4606
vn 0.4606 -0.7588 0.4606
vn 0.7588 -0.4606 0.4606
vn 0.4606 -0.4606 0.7588
vn 0.4606 0.7588 0.4606
vn 0.4606 0.4606 0.7588
vn 0.7588 0.4606 0.4606
vn 0.4606 -0.7588 -0.4606
vn 0.4606 -0.4606 -0.7588
vn 0.7588 -0.4606 -0.4606
vn 0.4606 0.7588 -0.4606
vn 0.7588 0.4606 -0.4606
vn 0.4606 0.4606 -0.7588
vn 0.0000 -1.0000 0.0000
vn 0.0000 -0.9862 -0.1656
vn 0.0000 0.9862 0.1656
vn 0.0000 0.9862 -0.1656
vn 0.0000 0.0000 -1.0000
vn -0.9552 0.0000 -0.2960
vn -0.9552 0.0000 0.2960
vn 0.0000 -0.9862 0.1656
vn -0.0000 0.0000 1.0000
vn 0.9552 0.0000 -0.2960
vn 0.6744 -0.6894 0.2644
vn -0.6744 -0.6894 0.2644
vn -0.6744 0.6894 0.2644
vn 0.6744 0.6894 0.2644
vn 0.6744 0.6894 -0.2644
vn -0.6744 0.6894 -0.2644
vn -0.6744 -0.6894 -0.2644
vn 0.6744 -0.6894 -0.2644
vn 0.9552 0.0000 0.2960
vn 0.0000 1.0000 0.0000
usemtl KayKit_Texture_A
s 1
f 18/1/1 19/2/1 15/3/1 12/4/1
f 3/5/2 5/6/2 10/7/2 7/8/2
f 1/9/3 2/10/4 3/11/5
f 4/12/6 61/13/7 5/14/8
f 6/15/9 7/16/10 8/17/11
f 62/18/12 9/19/13 10/20/14
f 11/21/15 12/22/16 13/23/17
f 64/24/18 14/25/19 15/26/20
f 16/27/21 17/28/22 18/29/23
f 63/30/24 19/31/25 20/32/26
f 6/15/9 1/9/3 3/11/5 7/16/10
f 2/10/4 4/12/6 5/14/8 3/11/5
f 61/13/7 62/18/12 10/20/14 5/14/8
f 9/19/13 8/17/11 7/16/10 10/20/14
f 16/27/21 6/15/9 8/17/11 17/28/22
f 62/18/12 63/30/24 20/32/26 9/19/13
f 19/31/25 18/29/23 17/28/22 20/32/26
f 11/21/15 16/27/21 18/29/23 12/22/16
f 63/30/24 64/24/18 15/26/20 19/31/25
f 14/25/19 13/23/17 12/22/16 15/26/20
f 1/9/3 11/21/15 13/23/17 2/10/4
f 64/24/18 61/13/7 4/12/6 14/25/19
f 6/33/27 16/34/27 11/35/27 1/36/27
f 39/37/28 30/38/28 44/39/28 48/40/28
f 59/41/29 54/42/29 21/43/29 32/44/29
f 55/45/30 58/46/30 36/47/30 27/48/30
f 46/49/31 45/50/31 26/51/31 28/52/31
f 57/53/32 40/54/32 47/55/32 37/56/32
f 34/57/33 60/58/33 31/59/33 51/60/33
f 49/61/31 48/62/31 44/63/31 46/49/31
f 24/64/34 35/65/34 50/66/34 42/67/34
f 4/68/35 43/69/35 52/70/35 14/71/35
f 29/72/36 56/73/36 26/74/36 45/75/36
f 52/70/35 51/76/35 31/77/35 33/78/35
f 38/79/31 37/80/31 47/81/31 49/61/31
f 43/69/35 42/82/35 50/83/35 52/70/35
f 33/78/35 32/84/35 21/85/35 23/86/35
f 23/86/35 22/87/35 41/88/35 43/69/35
f 28/52/31 27/89/31 36/90/31 38/79/31
f 21/85/35 22/87/35 23/86/35
f 26/51/31 27/89/31 28/52/31
f 31/77/35 32/84/35 33/78/35
f 36/90/31 37/80/31 38/79/31
f 41/88/35 42/82/35 43/69/35
f 44/63/31 45/50/31 46/49/31
f 47/81/31 48/62/31 49/61/31
f 50/83/35 51/76/35 52/70/35
f 41/91/37 25/92/37 24/64/37 42/67/37
f 34/57/38 51/60/38 50/66/38 35/65/38
f 59/41/39 32/44/39 31/59/39 60/58/39
f 53/93/40 22/94/40 21/43/40 54/42/40
f 26/74/41 56/73/41 55/45/41 27/48/41
f 57/53/42 37/56/42 36/47/42 58/46/42
f 39/37/43 48/40/43 47/55/43 40/54/43
f 29/72/44 45/75/44 44/39/44 30/38/44
f 53/93/45 25/92/45 41/91/45 22/94/45
f 14/71/35 52/70/35 33/78/35 13/95/35
f 13/95/35 33/78/35 23/86/35 2/96/35
f 2/96/35 23/86/35 43/69/35 4/68/35
f 9/97/31 46/49/31 28/52/31 8/98/31
f 8/98/31 28/52/31 38/79/31 17/99/31
f 17/99/31 38/79/31 49/61/31 20/100/31
f 20/100/31 49/61/31 46/49/31 9/97/31
f 53/101/35 54/102/35 59/103/35 60/104/35
f 53/101/35 60/104/35 34/105/35 25/106/35
f 64/107/46 63/108/46 62/109/46 61/110/46
f 24/111/35 25/106/35 34/105/35 35/112/35
f 29/113/31 30/114/31 39/115/31 40/116/31
f 29/113/31 40/116/31 57/117/31 56/118/31
f 55/119/31 56/118/31 57/117/31 58/120/31
f 76/121/35 78/122/35 67/123/35 65/124/35
f 81/125/1 83/126/1 79/127/1 75/128/1
f 82/129/46 72/130/46 68/131/46 77/132/46
f 66/133/2 69/134/2 74/135/2 70/136/2
f 71/137/31 73/138/31 84/139/31 80/140/31
f 86/141/3 65/142/4 66/143/5
f 67/144/6 68/145/7 69/146/8
f 85/147/9 70/148/10 71/149/11
f 72/150/12 73/151/13 74/152/14
f 88/153/15 75/154/16 76/155/17
f 77/156/18 78/157/19 79/158/20
f 87/159/21 80/160/22 81/161/23
f 82/162/24 83/163/25 84/164/26
f 85/147/9 86/141/3 66/143/5 70/148/10
f 65/142/4 67/165/6 69/166/8 66/143/5
f 68/145/7 72/150/12 74/152/14 69/146/8
f 73/167/13 71/149/11 70/148/10 74/168/14
f 87/159/21 85/147/9 71/149/11 80/160/22
f 72/150/12 82/162/24 84/164/26 73/151/13
f 83/169/25 81/161/23 80/160/22 84/170/26
f 88/153/15 87/159/21 81/161/23 75/154/16
f 82/162/24 77/156/18 79/158/20 83/163/25
f 78/171/19 76/155/17 75/154/16 79/172/20
f 86/141/3 88/153/15 76/155/17 65/142/4
f 77/156/18 68/145/7 67/144/6 78/157/19
f 86/173/27 85/174/27 87/175/27 88/176/27
