# Blender v3.4.1 OBJ File: 'MixedBag1_Export.blend'
# www.blender.org
mtllib comicbooks_stacked.mtl
o comicbooks_stacked
v -0.253146 0.000000 -0.344685
v -0.253146 -0.000000 0.344685
v -0.253146 0.036663 0.344685
v -0.253146 0.036663 -0.344685
v 0.253146 0.036663 -0.344685
v 0.253146 0.036663 0.344685
v 0.253146 -0.000000 0.344685
v 0.253146 0.000000 -0.344685
v -0.259593 0.009703 -0.344685
v -0.259593 0.026960 -0.344685
v -0.259593 0.026960 0.344685
v -0.259593 0.009703 0.344685
v 0.246698 0.026960 -0.344685
v 0.246698 0.009703 -0.344685
v 0.246698 0.009703 0.344685
v 0.246698 0.026960 0.344685
v -0.417878 0.037312 -0.090931
v 0.038274 0.037312 0.425941
v 0.038274 0.073975 0.425941
v -0.417878 0.073975 -0.090931
v -0.038274 0.073975 -0.425941
v 0.417878 0.073975 0.090931
v 0.417878 0.037312 0.090931
v -0.038274 0.037312 -0.425941
v -0.422712 0.047014 -0.086664
v -0.422712 0.064272 -0.086664
v 0.033440 0.064272 0.430207
v 0.033440 0.047014 0.430207
v -0.043108 0.064272 -0.421674
v -0.043108 0.047014 -0.421674
v 0.413044 0.047014 0.095197
v 0.413044 0.064272 0.095197
v -0.315354 0.074686 -0.288863
v -0.181268 0.074686 0.387340
v -0.181268 0.111349 0.387340
v -0.315354 0.111349 -0.288863
v 0.181268 0.111349 -0.387340
v 0.315354 0.111349 0.288863
v 0.315354 0.074686 0.288863
v 0.181268 0.074686 -0.387340
v -0.321679 0.084389 -0.287609
v -0.321679 0.101647 -0.287609
v -0.187592 0.101647 0.388594
v -0.187592 0.084389 0.388594
v 0.174943 0.101647 -0.386086
v 0.174943 0.084389 -0.386086
v 0.309030 0.084389 0.290118
v 0.309030 0.101647 0.290118
vt 0.235406 0.940625
vt 0.145958 0.940625
vt 0.145958 0.940625
vt 0.235406 0.940625
vt 0.770958 0.068832
vt 0.770958 0.190625
vt 0.770958 0.190625
vt 0.770958 0.068832
vt 0.235406 0.818832
vt 0.235406 0.818832
vt 0.860406 0.190625
vt 0.860406 0.068832
vt 0.770958 0.190625
vt 0.770958 0.068832
vt 0.860406 0.068832
vt 0.860406 0.190625
vt 0.235406 0.940625
vt 0.145958 0.940625
vt 0.145958 0.940625
vt 0.235406 0.940625
vt 0.145958 0.818832
vt 0.235406 0.818832
vt 0.235406 0.818832
vt 0.145958 0.818832
vt 0.145958 0.818832
vt 0.145958 0.818832
vt 0.770958 0.068832
vt 0.770958 0.190625
vt 0.235406 0.940625
vt 0.145958 0.940625
vt 0.145958 0.940625
vt 0.235406 0.940625
vt 0.270958 0.068832
vt 0.270958 0.190625
vt 0.270958 0.190625
vt 0.270958 0.068832
vt 0.235406 0.818832
vt 0.235406 0.818832
vt 0.360406 0.190625
vt 0.360406 0.068832
vt 0.270958 0.190625
vt 0.270958 0.068832
vt 0.360406 0.068832
vt 0.360406 0.190625
vt 0.235406 0.940625
vt 0.145958 0.940625
vt 0.145958 0.940625
vt 0.235406 0.940625
vt 0.145958 0.818832
vt 0.235406 0.818832
vt 0.235406 0.818832
vt 0.145958 0.818832
vt 0.145958 0.818832
vt 0.145958 0.818832
vt 0.270958 0.068832
vt 0.270958 0.190625
vt 0.235406 0.940625
vt 0.145958 0.940625
vt 0.145958 0.940625
vt 0.235406 0.940625
vt 0.270958 0.318832
vt 0.270958 0.440625
vt 0.270958 0.440625
vt 0.270958 0.318832
vt 0.235406 0.818832
vt 0.235406 0.818832
vt 0.360406 0.440625
vt 0.360406 0.318832
vt 0.270958 0.440625
vt 0.270958 0.318832
vt 0.360406 0.318832
vt 0.360406 0.440625
vt 0.235406 0.940625
vt 0.145958 0.940625
vt 0.145958 0.940625
vt 0.235406 0.940625
vt 0.145958 0.818832
vt 0.235406 0.818832
vt 0.235406 0.818832
vt 0.145958 0.818832
vt 0.145958 0.818832
vt 0.145958 0.818832
vt 0.270958 0.318832
vt 0.270958 0.440625
vn 0.0000 0.0000 1.0000
vn -0.9573 0.2891 0.0000
vn -0.8329 0.5535 0.0000
vn 0.8329 -0.5535 -0.0000
vn 0.9573 -0.2891 -0.0000
vn 0.0000 1.0000 0.0000
vn 0.0000 -1.0000 -0.0000
vn 0.0000 0.0000 -1.0000
vn 0.9573 0.2891 0.0000
vn 0.8329 0.5535 0.0000
vn -0.9573 -0.2891 -0.0000
vn -0.8329 -0.5535 -0.0000
vn 0.6617 0.0000 0.7498
vn -0.7178 0.2891 0.6334
vn -0.6245 0.5535 0.5511
vn 0.6245 -0.5535 -0.5511
vn 0.7178 -0.2891 -0.6334
vn -0.6617 0.0000 -0.7498
vn 0.7178 0.2891 -0.6334
vn 0.6245 0.5535 -0.5511
vn -0.7178 -0.2891 0.6334
vn -0.6245 -0.5535 0.5511
vn 0.1945 0.0000 0.9809
vn -0.9390 0.2891 0.1862
vn -0.8170 0.5535 0.1620
vn 0.8170 -0.5535 -0.1620
vn 0.9390 -0.2891 -0.1862
vn -0.1945 -0.0000 -0.9809
vn 0.9390 0.2891 -0.1862
vn 0.8170 0.5535 -0.1620
vn -0.9390 -0.2891 0.1862
vn -0.8170 -0.5535 0.1620
usemtl KayKit_Texture_A
s 1
f 6/1/1 3/2/1 11/3/1 16/4/1
f 10/5/2 11/6/2 3/7/3 4/8/3
f 5/9/4 6/1/4 16/4/5 13/10/5
f 4/8/6 3/7/6 6/11/6 5/12/6
f 2/13/7 1/14/7 8/15/7 7/16/7
f 15/17/1 12/18/1 2/19/1 7/20/1
f 9/21/8 14/22/8 8/23/8 1/24/8
f 14/22/9 15/17/9 7/20/10 8/23/10
f 4/25/8 5/9/8 13/10/8 10/26/8
f 12/18/1 15/17/1 16/4/1 11/3/1
f 14/22/8 9/21/8 10/26/8 13/10/8
f 15/17/9 14/22/9 13/10/5 16/4/5
f 11/6/2 10/5/2 9/27/11 12/28/11
f 1/14/12 2/13/12 12/28/11 9/27/11
f 22/29/13 19/30/13 27/31/13 32/32/13
f 26/33/14 27/34/14 19/35/15 20/36/15
f 21/37/16 22/29/16 32/32/17 29/38/17
f 20/36/6 19/35/6 22/39/6 21/40/6
f 18/41/7 17/42/7 24/43/7 23/44/7
f 31/45/13 28/46/13 18/47/13 23/48/13
f 25/49/18 30/50/18 24/51/18 17/52/18
f 30/50/19 31/45/19 23/48/20 24/51/20
f 20/53/18 21/37/18 29/38/18 26/54/18
f 28/46/13 31/45/13 32/32/13 27/31/13
f 30/50/18 25/49/18 26/54/18 29/38/18
f 31/45/19 30/50/19 29/38/17 32/32/17
f 27/34/14 26/33/14 25/55/21 28/56/21
f 17/42/22 18/41/22 28/56/21 25/55/21
f 38/57/23 35/58/23 43/59/23 48/60/23
f 42/61/24 43/62/24 35/63/25 36/64/25
f 37/65/26 38/57/26 48/60/27 45/66/27
f 36/64/6 35/63/6 38/67/6 37/68/6
f 34/69/7 33/70/7 40/71/7 39/72/7
f 47/73/23 44/74/23 34/75/23 39/76/23
f 41/77/28 46/78/28 40/79/28 33/80/28
f 46/78/29 47/73/29 39/76/30 40/79/30
f 36/81/28 37/65/28 45/66/28 42/82/28
f 44/74/23 47/73/23 48/60/23 43/59/23
f 46/78/28 41/77/28 42/82/28 45/66/28
f 47/73/29 46/78/29 45/66/27 48/60/27
f 43/62/24 42/61/24 41/83/31 44/84/31
f 33/70/32 34/69/32 44/84/31 41/83/31
