# Blender v3.4.1 OBJ File: 'MixedBag1_Export.blend'
# www.blender.org
mtllib comicbox_open_comicbox_lid.mtl
o comicbox_lid
v -0.308594 0.533916 0.390743
v -0.343398 0.549916 0.432033
v -0.359398 0.549916 0.416033
v -0.343398 0.730083 0.432033
v -0.343398 0.746083 0.416033
v -0.359398 0.730083 0.416033
v -0.308594 0.533916 -0.390743
v -0.359398 0.549916 -0.416033
v -0.343398 0.549916 -0.432033
v -0.343398 0.746083 -0.416033
v -0.343398 0.730083 -0.432033
v -0.359398 0.730083 -0.416033
v 0.308594 0.533916 0.390743
v 0.359398 0.549916 0.416033
v 0.343398 0.549916 0.432033
v 0.343398 0.746083 0.416033
v 0.343398 0.730083 0.432033
v 0.359398 0.730083 0.416033
v 0.308594 0.533916 -0.390743
v 0.343398 0.549916 -0.432033
v 0.359398 0.549916 -0.416033
v 0.343398 0.746083 -0.416033
v 0.359398 0.730083 -0.416033
v 0.343398 0.730083 -0.432033
v -0.343398 0.533916 -0.416033
v -0.343398 0.533916 0.416033
v 0.343398 0.533916 -0.416033
v 0.343398 0.533916 0.416033
v -0.308594 0.717916 -0.390743
v -0.308594 0.717916 0.390743
v 0.308594 0.717916 -0.390743
v 0.308594 0.717916 0.390743
vt 0.728161 0.338592
vt 0.645627 0.338592
vt 0.645627 0.338592
vt 0.728161 0.338592
vt 0.730881 0.371891
vt 0.730881 0.394970
vt 0.642906 0.394970
vt 0.642906 0.371891
vt 0.732931 0.371891
vt 0.732931 0.394970
vt 0.732931 0.394970
vt 0.732931 0.371891
vt 0.730881 0.412644
vt 0.642906 0.412644
vt 0.642906 0.412644
vt 0.730881 0.412644
vt 0.640857 0.371891
vt 0.640857 0.394970
vt 0.640857 0.394970
vt 0.640857 0.371891
vt 0.642906 0.371891
vt 0.642906 0.394970
vt 0.730881 0.394970
vt 0.730881 0.371891
vt 0.642906 0.416717
vt 0.642906 0.418766
vt 0.640857 0.418766
vt 0.642906 0.457470
vt 0.642906 0.459519
vt 0.640857 0.457470
vt 0.642906 0.416717
vt 0.640857 0.418766
vt 0.642906 0.418766
vt 0.642906 0.459519
vt 0.642906 0.457470
vt 0.640857 0.457470
vt 0.730881 0.416717
vt 0.732931 0.418766
vt 0.730881 0.418766
vt 0.730881 0.459519
vt 0.730881 0.457470
vt 0.732931 0.457470
vt 0.730881 0.416717
vt 0.730881 0.418766
vt 0.732931 0.418766
vt 0.730881 0.459519
vt 0.732931 0.457470
vt 0.730881 0.457470
vt 0.642906 0.441845
vt 0.640857 0.441845
vt 0.642906 0.441845
vt 0.640857 0.441845
vt 0.732931 0.441845
vt 0.730881 0.441845
vt 0.730881 0.441845
vt 0.732931 0.441845
vt 0.645627 0.369842
vt 0.645627 0.369842
vt 0.642906 0.369842
vt 0.642906 0.369842
vt 0.728161 0.369842
vt 0.730881 0.369842
vt 0.728161 0.369842
vt 0.730881 0.369842
vt 0.645627 0.322967
vt 0.728161 0.322967
vt 0.728161 0.322967
vt 0.645627 0.322967
vt 0.645627 0.338592
vt 0.728161 0.338592
vt 0.728161 0.338592
vt 0.645627 0.338592
vn 0.0000 0.0000 -1.0000
vn 0.0000 0.0000 1.0000
vn 1.0000 0.0000 0.0000
vn 0.0000 1.0000 0.0000
vn -1.0000 0.0000 0.0000
vn -0.4606 -0.7588 0.4606
vn -0.4606 -0.4606 0.7588
vn -0.7588 -0.4606 0.4606
vn -0.4606 0.4606 0.7588
vn -0.4606 0.7588 0.4606
vn -0.7588 0.4606 0.4606
vn -0.4606 -0.7588 -0.4606
vn -0.7588 -0.4606 -0.4606
vn -0.4606 -0.4606 -0.7588
vn -0.4606 0.7588 -0.4606
vn -0.4606 0.4606 -0.7588
vn -0.7588 0.4606 -0.4606
vn 0.4606 -0.7588 0.4606
vn 0.7588 -0.4606 0.4606
vn 0.4606 -0.4606 0.7588
vn 0.4606 0.7588 0.4606
vn 0.4606 0.4606 0.7588
vn 0.7588 0.4606 0.4606
vn 0.4606 -0.7588 -0.4606
vn 0.4606 -0.4606 -0.7588
vn 0.7588 -0.4606 -0.4606
vn 0.4606 0.7588 -0.4606
vn 0.7588 0.4606 -0.4606
vn 0.4606 0.4606 -0.7588
vn 0.0000 -1.0000 0.0000
usemtl KayKit_Texture_A
s 1
f 13/1/1 1/2/1 30/3/1 32/4/1
f 15/5/2 17/6/2 4/7/2 2/8/2
f 21/9/3 23/10/3 18/11/3 14/12/3
f 22/13/4 10/14/4 5/15/4 16/16/4
f 3/17/5 6/18/5 12/19/5 8/20/5
f 9/21/1 11/22/1 24/23/1 20/24/1
f 26/25/6 2/26/7 3/27/8
f 4/28/9 5/29/10 6/30/11
f 25/31/12 8/32/13 9/33/14
f 10/34/15 11/35/16 12/36/17
f 28/37/18 14/38/19 15/39/20
f 16/40/21 17/41/22 18/42/23
f 27/43/24 20/44/25 21/45/26
f 22/46/27 23/47/28 24/48/29
f 25/31/12 26/25/6 3/27/8 8/32/13
f 2/26/7 4/49/9 6/50/11 3/27/8
f 5/29/10 10/34/15 12/36/17 6/30/11
f 11/51/16 9/33/14 8/32/13 12/52/17
f 27/43/24 25/31/12 9/33/14 20/44/25
f 10/34/15 22/46/27 24/48/29 11/35/16
f 23/53/28 21/45/26 20/44/25 24/54/29
f 28/37/18 27/43/24 21/45/26 14/38/19
f 22/46/27 16/40/21 18/42/23 23/47/28
f 17/55/22 15/39/20 14/38/19 18/56/23
f 26/25/6 28/37/18 15/39/20 2/26/7
f 16/40/21 5/29/10 4/28/9 17/41/22
f 7/57/30 1/58/30 26/59/30 25/60/30
f 19/61/30 7/57/30 25/60/30 27/62/30
f 13/63/30 19/61/30 27/62/30 28/64/30
f 1/58/30 13/63/30 28/64/30 26/59/30
f 29/65/30 31/66/30 32/67/30 30/68/30
f 7/69/2 19/70/2 31/71/2 29/72/2
f 19/70/5 13/1/5 32/4/5 31/71/5
f 1/2/3 7/69/3 29/72/3 30/3/3
