# Blender v3.4.1 OBJ File: 'MixedBag1_Export.blend'
# www.blender.org
mtllib comicbox_open.mtl
o comicbox_open
v -0.301754 0.000000 0.384000
v -0.301754 0.016000 0.400000
v -0.317754 0.016000 0.384000
v -0.301754 0.664000 0.400000
v -0.260930 0.680000 0.343177
v -0.317754 0.664000 0.384000
v -0.301754 0.000000 -0.384000
v -0.317754 0.016000 -0.384000
v -0.301754 0.016000 -0.400000
v -0.260930 0.680000 -0.343177
v -0.301754 0.664000 -0.400000
v -0.317754 0.664000 -0.384000
v 0.301754 0.000000 0.384000
v 0.317754 0.016000 0.384000
v 0.301754 0.016000 0.400000
v 0.260930 0.680000 0.343177
v 0.301754 0.664000 0.400000
v 0.317754 0.664000 0.384000
v 0.301754 0.000000 -0.384000
v 0.301754 0.016000 -0.400000
v 0.317754 0.016000 -0.384000
v 0.260930 0.680000 -0.343177
v 0.317754 0.664000 -0.384000
v 0.301754 0.664000 -0.400000
v -0.260930 0.068000 -0.343176
v 0.260930 0.068000 -0.343176
v 0.260930 0.068000 0.343176
v -0.260930 0.068000 0.343176
v -0.116880 0.361786 0.400000
v -0.154153 0.399059 0.400000
v -0.205178 0.326337 0.400000
v -0.116880 0.484791 0.343176
v -0.154153 0.447517 0.343176
v -0.205178 0.514489 0.343176
v -0.154153 0.399059 -0.400000
v -0.116880 0.361786 -0.400000
v -0.205178 0.326337 -0.400000
v -0.154153 0.447517 -0.343176
v -0.116880 0.484791 -0.343176
v -0.205178 0.514489 -0.343176
v 0.154154 0.399059 0.400000
v 0.116880 0.361786 0.400000
v 0.205179 0.326337 0.400000
v 0.154154 0.447517 0.343176
v 0.116880 0.484791 0.343176
v 0.205179 0.514489 0.343176
v 0.116880 0.361786 -0.400000
v 0.154154 0.399059 -0.400000
v 0.205179 0.326337 -0.400000
v 0.116880 0.484791 -0.343176
v 0.154154 0.447517 -0.343176
v 0.205179 0.514489 -0.343176
v -0.154153 0.447517 0.400000
v -0.116880 0.484791 0.400000
v -0.205178 0.514489 0.400000
v -0.116880 0.484791 -0.400000
v -0.154153 0.447517 -0.400000
v -0.205178 0.514489 -0.400000
v 0.154154 0.447517 -0.400000
v 0.116880 0.484791 -0.400000
v 0.205179 0.514489 -0.400000
v 0.116880 0.484791 0.400000
v 0.154154 0.447517 0.400000
v 0.205179 0.514489 0.400000
v -0.154153 0.399059 0.343176
v -0.116880 0.361786 0.343176
v -0.205178 0.326337 0.343176
v -0.116880 0.361786 -0.343176
v -0.154153 0.399059 -0.343176
v -0.205178 0.326337 -0.343176
v 0.154154 0.399059 -0.343176
v 0.116880 0.361786 -0.343176
v 0.205179 0.326337 -0.343176
v 0.116880 0.361786 0.343176
v 0.154154 0.399059 0.343176
v 0.205179 0.326337 0.343176
v -0.301754 0.680000 0.384000
v -0.301754 0.680000 -0.384000
v 0.301754 0.680000 -0.384000
v 0.301754 0.680000 0.384000
vt 0.730744 0.329842
vt 0.730744 0.434362
vt 0.730744 0.434362
vt 0.730744 0.329842
vt 0.644256 0.329842
vt 0.644256 0.434362
vt 0.644256 0.434362
vt 0.644256 0.329842
vt 0.646433 0.374540
vt 0.646433 0.376717
vt 0.644256 0.376717
vt 0.646433 0.481237
vt 0.646433 0.483415
vt 0.644256 0.481237
vt 0.646433 0.374540
vt 0.644256 0.376717
vt 0.646433 0.376717
vt 0.646433 0.483415
vt 0.646433 0.481237
vt 0.644256 0.481237
vt 0.728567 0.374540
vt 0.730744 0.376717
vt 0.728567 0.376717
vt 0.728567 0.483415
vt 0.728567 0.481237
vt 0.730744 0.481237
vt 0.728567 0.374540
vt 0.728567 0.376717
vt 0.730744 0.376717
vt 0.728567 0.483415
vt 0.730744 0.481237
vt 0.728567 0.481237
vt 0.646433 0.327665
vt 0.728567 0.327665
vt 0.728567 0.327665
vt 0.646433 0.327665
vt 0.710770 0.367140
vt 0.708479 0.358025
vt 0.708479 0.351431
vt 0.710770 0.341534
vt 0.710770 0.341534
vt 0.708479 0.351431
vt 0.708479 0.358025
vt 0.710770 0.367140
vt 0.664230 0.367140
vt 0.666521 0.358025
vt 0.666521 0.351431
vt 0.664230 0.341534
vt 0.703407 0.378723
vt 0.671594 0.378723
vt 0.671594 0.378723
vt 0.703407 0.378723
vt 0.703407 0.361983
vt 0.671594 0.361983
vt 0.671594 0.361983
vt 0.703407 0.361983
vt 0.671594 0.361983
vt 0.703407 0.361983
vt 0.703407 0.361983
vt 0.671594 0.361983
vt 0.664230 0.414015
vt 0.666521 0.404900
vt 0.666521 0.398306
vt 0.664230 0.388409
vt 0.671594 0.346358
vt 0.703407 0.346358
vt 0.708479 0.367056
vt 0.708479 0.373650
vt 0.708479 0.373650
vt 0.708479 0.367056
vt 0.708479 0.373650
vt 0.708479 0.367056
vt 0.708479 0.367056
vt 0.708479 0.373650
vt 0.703407 0.363098
vt 0.671594 0.363098
vt 0.710770 0.414015
vt 0.703407 0.409973
vt 0.671594 0.409973
vt 0.664230 0.341534
vt 0.666521 0.351431
vt 0.666521 0.358025
vt 0.664230 0.367140
vt 0.671594 0.378723
vt 0.703407 0.378723
vt 0.703407 0.378723
vt 0.671594 0.378723
vt 0.646433 0.434362
vt 0.664230 0.414015
vt 0.710770 0.414015
vt 0.728567 0.434362
vt 0.703407 0.346358
vt 0.671594 0.346358
vt 0.666521 0.373650
vt 0.666521 0.367056
vt 0.666521 0.367056
vt 0.666521 0.373650
vt 0.708479 0.404900
vt 0.708479 0.398306
vt 0.710770 0.388409
vt 0.710770 0.388409
vt 0.708479 0.398306
vt 0.708479 0.404900
vt 0.671594 0.409973
vt 0.703407 0.409973
vt 0.703407 0.393233
vt 0.671594 0.393233
vt 0.664230 0.388409
vt 0.666521 0.398306
vt 0.666521 0.404900
vt 0.671594 0.363098
vt 0.703407 0.363098
vt 0.671594 0.393233
vt 0.703407 0.393233
vt 0.666521 0.373650
vt 0.666521 0.373650
vt 0.666521 0.367056
vt 0.666521 0.367056
vt 0.728567 0.329842
vt 0.646433 0.329842
vt 0.646433 0.434362
vt 0.646433 0.329842
vt 0.728567 0.329842
vt 0.728567 0.434362
vt 0.651989 0.389665
vt 0.723011 0.389665
vt 0.723011 0.290044
vt 0.651989 0.290044
vt 0.651989 0.389665
vt 0.651989 0.290044
vt 0.723011 0.290044
vt 0.723011 0.389665
vt 0.651989 0.321294
vt 0.651989 0.321294
vt 0.723011 0.321294
vt 0.723011 0.321294
vt 0.651989 0.452165
vt 0.651989 0.452165
vt 0.646433 0.452165
vt 0.646433 0.452165
vt 0.723011 0.452165
vt 0.728567 0.452165
vt 0.723011 0.452165
vt 0.728567 0.452165
vn 1.0000 0.0000 0.0000
vn -1.0000 0.0000 0.0000
vn -0.4606 -0.7588 0.4606
vn -0.4606 -0.4606 0.7588
vn -0.7588 -0.4606 0.4606
vn -0.4606 0.4606 0.7588
vn -0.4606 0.7588 0.4606
vn -0.7588 0.4606 0.4606
vn -0.4606 -0.7588 -0.4606
vn -0.7588 -0.4606 -0.4606
vn -0.4606 -0.4606 -0.7588
vn -0.4606 0.7588 -0.4606
vn -0.4606 0.4606 -0.7588
vn -0.7588 0.4606 -0.4606
vn 0.4606 -0.7588 0.4606
vn 0.7588 -0.4606 0.4606
vn 0.4606 -0.4606 0.7588
vn 0.4606 0.7588 0.4606
vn 0.4606 0.4606 0.7588
vn 0.7588 0.4606 0.4606
vn 0.4606 -0.7588 -0.4606
vn 0.4606 -0.4606 -0.7588
vn 0.7588 -0.4606 -0.4606
vn 0.4606 0.7588 -0.4606
vn 0.7588 0.4606 -0.4606
vn 0.4606 0.4606 -0.7588
vn 0.0000 -1.0000 0.0000
vn 0.0000 0.0000 1.0000
vn 0.0000 0.0000 -1.0000
vn 0.0000 1.0000 0.0000
vn 0.7071 -0.7071 0.0000
vn -0.7071 -0.7071 0.0000
vn -0.7071 0.7071 0.0000
vn 0.7071 0.7071 0.0000
usemtl KayKit_Texture_A
s 1
f 21/1/1 23/2/1 18/3/1 14/4/1
f 3/5/2 6/6/2 12/7/2 8/8/2
f 1/9/3 2/10/4 3/11/5
f 4/12/6 77/13/7 6/14/8
f 7/15/9 8/16/10 9/17/11
f 78/18/12 11/19/13 12/20/14
f 13/21/15 14/22/16 15/23/17
f 80/24/18 17/25/19 18/26/20
f 19/27/21 20/28/22 21/29/23
f 79/30/24 23/31/25 24/32/26
f 7/15/9 1/9/3 3/11/5 8/16/10
f 2/10/4 4/12/6 6/14/8 3/11/5
f 77/13/7 78/18/12 12/20/14 6/14/8
f 11/19/13 9/17/11 8/16/10 12/20/14
f 19/27/21 7/15/9 9/17/11 20/28/22
f 78/18/12 79/30/24 24/32/26 11/19/13
f 23/31/25 21/29/23 20/28/22 24/32/26
f 13/21/15 19/27/21 21/29/23 14/22/16
f 79/30/24 80/24/18 18/26/20 23/31/25
f 17/25/19 15/23/17 14/22/16 18/26/20
f 1/9/3 13/21/15 15/23/17 2/10/4
f 80/24/18 77/13/7 4/12/6 17/25/19
f 7/33/27 19/34/27 13/35/27 1/36/27
f 52/37/28 51/38/28 71/39/28 73/40/28
f 76/41/29 75/42/29 44/43/29 46/44/29
f 34/45/29 33/46/29 65/47/29 67/48/29
f 50/49/27 39/50/27 56/51/27 60/52/27
f 74/53/30 66/54/30 29/55/30 42/56/30
f 68/57/30 72/58/30 47/59/30 36/60/30
f 58/61/29 57/62/29 35/63/29 37/64/29
f 67/48/29 66/65/29 74/66/29 76/41/29
f 71/67/2 51/68/2 59/69/2 48/70/2
f 44/71/2 75/72/2 41/73/2 63/74/2
f 46/44/29 45/75/29 32/76/29 34/45/29
f 61/77/29 60/78/29 56/79/29 58/61/29
f 70/80/28 69/81/28 38/82/28 40/83/28
f 32/84/27 45/85/27 62/86/27 54/87/27
f 4/88/28 55/89/28 64/90/28 17/91/28
f 73/40/28 72/92/28 68/93/28 70/80/28
f 38/94/1 69/95/1 35/96/1 57/97/1
f 64/90/28 63/98/28 41/99/28 43/100/28
f 49/101/29 48/102/29 59/103/29 61/77/29
f 55/89/28 54/104/28 62/105/28 64/90/28
f 43/100/28 42/106/28 29/107/28 31/108/28
f 31/108/28 30/109/28 53/110/28 55/89/28
f 40/83/28 39/111/28 50/112/28 52/37/28
f 37/64/29 36/113/29 47/114/29 49/101/29
f 29/107/28 30/109/28 31/108/28
f 32/76/29 33/46/29 34/45/29
f 35/63/29 36/113/29 37/64/29
f 38/82/28 39/111/28 40/83/28
f 41/99/28 42/106/28 43/100/28
f 44/43/29 45/75/29 46/44/29
f 47/114/29 48/102/29 49/101/29
f 50/112/28 51/38/28 52/37/28
f 53/110/28 54/104/28 55/89/28
f 56/79/29 57/62/29 58/61/29
f 59/103/29 60/78/29 61/77/29
f 62/105/28 63/98/28 64/90/28
f 65/47/29 66/65/29 67/48/29
f 68/93/28 69/81/28 70/80/28
f 71/39/28 72/92/28 73/40/28
f 74/66/29 75/42/29 76/41/29
f 53/115/31 33/116/31 32/84/31 54/87/31
f 44/71/32 63/74/32 62/86/32 45/85/32
f 74/53/33 42/56/33 41/73/33 75/72/33
f 65/117/34 30/118/34 29/55/34 66/54/34
f 35/96/34 69/95/34 68/57/34 36/60/34
f 71/67/33 48/70/33 47/59/33 72/58/33
f 50/49/32 60/52/32 59/69/32 51/68/32
f 38/94/31 57/97/31 56/51/31 39/50/31
f 65/117/1 33/116/1 53/115/1 30/118/1
f 17/91/28 64/90/28 43/100/28 15/119/28
f 15/119/28 43/100/28 31/108/28 2/120/28
f 2/120/28 31/108/28 55/89/28 4/88/28
f 11/121/29 58/61/29 37/64/29 9/122/29
f 9/122/29 37/64/29 49/101/29 20/123/29
f 20/123/29 49/101/29 61/77/29 24/124/29
f 24/124/29 61/77/29 58/61/29 11/121/29
f 10/125/28 40/83/28 52/37/28 22/126/28
f 22/126/28 52/37/28 73/40/28 26/127/28
f 26/127/28 73/40/28 70/80/28 25/128/28
f 25/128/28 70/80/28 40/83/28 10/125/28
f 5/129/29 34/45/29 67/48/29 28/130/29
f 28/130/29 67/48/29 76/41/29 27/131/29
f 27/131/29 76/41/29 46/44/29 16/132/29
f 16/132/29 46/44/29 34/45/29 5/129/29
f 16/132/2 22/126/2 26/127/2 27/131/2
f 25/133/30 28/134/30 27/135/30 26/136/30
f 5/129/1 28/130/1 25/128/1 10/125/1
f 5/137/30 10/138/30 78/139/30 77/140/30
f 10/138/30 22/141/30 79/142/30 78/139/30
f 22/141/30 16/143/30 80/144/30 79/142/30
f 16/143/30 5/137/30 77/140/30 80/144/30
