# Blender v3.4.1 OBJ File: 'MixedBag1_Export.blend'
# www.blender.org
mtllib comicbook_A.mtl
o comicbook_A
v -0.227367 -0.318906 0.018331
v -0.227367 0.318906 0.018331
v -0.227367 -0.318906 -0.018331
v -0.227367 0.318906 -0.018331
v 0.227367 -0.318906 0.018331
v 0.227367 0.318906 0.018331
v 0.227367 -0.318906 -0.018331
v 0.227367 0.318906 -0.018331
v -0.253146 -0.344685 0.018331
v -0.253146 0.344685 0.018331
v -0.253146 0.344685 -0.018331
v -0.253146 -0.344685 -0.018331
v 0.253146 -0.344685 -0.018331
v 0.253146 0.344685 -0.018331
v 0.253146 0.344685 0.018331
v 0.253146 -0.344685 0.018331
v -0.259593 -0.344685 0.008629
v -0.259593 -0.344685 -0.008629
v -0.259593 0.344685 -0.008629
v -0.259593 0.344685 0.008629
v 0.246698 -0.344685 -0.008629
v 0.246698 -0.344685 0.008629
v 0.246698 0.344685 0.008629
v 0.246698 0.344685 -0.008629
vt 0.235406 0.940625
vt 0.145958 0.940625
vt 0.145958 0.940625
vt 0.235406 0.940625
vt 0.275513 0.073386
vt 0.275513 0.186070
vt 0.355852 0.186070
vt 0.355852 0.073386
vt 0.355852 0.073386
vt 0.355852 0.186070
vt 0.275513 0.186070
vt 0.275513 0.073386
vt 0.270958 0.068832
vt 0.270958 0.190625
vt 0.270958 0.190625
vt 0.270958 0.068832
vt 0.235406 0.818832
vt 0.235406 0.818832
vt 0.270958 0.190625
vt 0.270958 0.068832
vt 0.360406 0.068832
vt 0.360406 0.190625
vt 0.360406 0.068832
vt 0.360406 0.190625
vt 0.235406 0.940625
vt 0.145958 0.940625
vt 0.145958 0.940625
vt 0.235406 0.940625
vt 0.145958 0.818832
vt 0.235406 0.818832
vt 0.235406 0.818832
vt 0.145958 0.818832
vt 0.145958 0.818832
vt 0.145958 0.818832
vt 0.270958 0.068832
vt 0.270958 0.190625
vn 0.0000 1.0000 -0.0000
vn 0.0000 0.0000 -1.0000
vn -0.0000 0.0000 1.0000
vn -0.9573 0.0000 -0.2891
vn -0.8329 0.0000 -0.5535
vn 0.8329 0.0000 0.5535
vn 0.9573 0.0000 0.2891
vn 0.0000 -1.0000 0.0000
vn 0.9573 0.0000 -0.2891
vn 0.8329 0.0000 -0.5535
vn -0.9573 0.0000 0.2891
vn -0.8329 0.0000 0.5535
usemtl KayKit_Texture_A
s 1
f 14/1/1 11/2/1 19/3/1 24/4/1
f 3/5/2 4/6/2 8/7/2 7/8/2
f 5/9/3 6/10/3 2/11/3 1/12/3
f 18/13/4 19/14/4 11/15/5 12/16/5
f 13/17/6 14/1/6 24/4/7 21/18/7
f 1/12/3 2/11/3 10/19/3 9/20/3
f 4/6/2 3/5/2 12/16/2 11/15/2
f 3/5/2 7/8/2 13/21/2 12/16/2
f 8/7/2 4/6/2 11/15/2 14/22/2
f 7/8/2 8/7/2 14/22/2 13/21/2
f 6/10/3 5/9/3 16/23/3 15/24/3
f 5/9/3 1/12/3 9/20/3 16/23/3
f 2/11/3 6/10/3 15/24/3 10/19/3
f 23/25/1 20/26/1 10/27/1 15/28/1
f 17/29/8 22/30/8 16/31/8 9/32/8
f 22/30/9 23/25/9 15/28/10 16/31/10
f 12/33/8 13/17/8 21/18/8 18/34/8
f 20/26/1 23/25/1 24/4/1 19/3/1
f 22/30/8 17/29/8 18/34/8 21/18/8
f 23/25/9 22/30/9 21/18/7 24/4/7
f 19/14/4 18/13/4 17/35/11 20/36/11
f 9/20/12 10/19/12 20/36/11 17/35/11
