# Blender v3.4.1 OBJ File: 'MixedBag1_Export.blend'
# www.blender.org
mtllib fire_hydrant.mtl
o fire_hydrant
v -0.000000 0.000000 -0.318095
v -0.000000 0.103003 -0.238915
v 0.159048 0.000000 -0.275478
v 0.119457 0.103003 -0.206906
v 0.275478 0.000000 -0.159048
v 0.206906 0.103003 -0.119457
v 0.318095 0.000000 0.000000
v 0.238915 0.103003 0.000000
v 0.275478 0.000000 0.159048
v 0.206906 0.103003 0.119457
v 0.159048 0.000000 0.275478
v 0.119457 0.103003 0.206906
v -0.000000 0.000000 0.318095
v -0.000000 0.103003 0.238915
v -0.159048 0.000000 0.275478
v -0.119457 0.103003 0.206906
v -0.275478 0.000000 0.159048
v -0.206906 0.103003 0.119457
v -0.318095 0.000000 -0.000000
v -0.238915 0.103003 -0.000000
v -0.275478 0.000000 -0.159048
v -0.206906 0.103003 -0.119457
v -0.159048 0.000000 -0.275478
v -0.119458 0.103003 -0.206906
v -0.119458 0.435121 -0.206906
v -0.206906 0.435121 -0.119457
v -0.238915 0.435121 -0.000000
v -0.206906 0.435121 0.119457
v -0.119457 0.435121 0.206906
v -0.000000 0.435121 0.238915
v 0.119457 0.435121 0.206906
v 0.206906 0.435121 0.119457
v 0.238915 0.435121 0.000000
v 0.206906 0.435121 -0.119457
v -0.000000 0.435121 -0.238915
v 0.119457 0.435121 -0.206906
v -0.000000 0.361222 -0.238915
v 0.119457 0.361222 -0.206906
v 0.206906 0.361222 -0.119457
v 0.238915 0.361222 0.000000
v 0.206906 0.361222 0.119457
v 0.119457 0.361222 0.206906
v -0.000000 0.361222 0.238915
v -0.119457 0.361222 0.206906
v -0.206906 0.361222 0.119457
v -0.238915 0.361222 -0.000000
v -0.206906 0.361222 -0.119457
v -0.119458 0.361222 -0.206906
v 0.147698 0.103003 -0.255821
v 0.159048 0.083637 -0.275478
v -0.000000 0.083637 -0.318095
v -0.000000 0.103003 -0.295397
v 0.255821 0.103003 -0.147698
v 0.275478 0.083637 -0.159048
v 0.295397 0.103003 0.000000
v 0.318095 0.083637 0.000000
v 0.255821 0.103003 0.147699
v 0.275478 0.083637 0.159048
v 0.147698 0.103003 0.255821
v 0.159048 0.083637 0.275478
v -0.000000 0.103003 0.295397
v -0.000000 0.083637 0.318095
v -0.147698 0.103003 0.255821
v -0.159048 0.083637 0.275478
v -0.255821 0.103003 0.147698
v -0.275478 0.083637 0.159048
v -0.295397 0.103003 -0.000000
v -0.318095 0.083637 -0.000000
v -0.255821 0.103003 -0.147698
v -0.275478 0.083637 -0.159048
v -0.147699 0.103003 -0.255821
v -0.159048 0.083637 -0.275478
v -0.261187 0.398171 -0.000000
v 0.226194 0.398171 -0.130593
v -0.226194 0.398171 0.130593
v -0.130593 0.398171 0.226194
v -0.000000 0.398171 -0.261187
v -0.130593 0.398171 -0.226194
v 0.226194 0.398171 0.130593
v 0.261187 0.398171 0.000000
v -0.000000 0.398171 0.261187
v 0.130593 0.398171 0.226194
v 0.130593 0.398171 -0.226194
v -0.226194 0.398171 -0.130593
v -0.104444 0.435121 -0.180902
v -0.180902 0.435121 -0.104444
v -0.208887 0.435121 -0.000000
v -0.180902 0.435121 0.104444
v -0.104444 0.435121 0.180902
v -0.000000 0.435121 0.208887
v 0.104444 0.435121 0.180902
v 0.180902 0.435121 0.104444
v 0.208887 0.435121 0.000000
v 0.180902 0.435121 -0.104444
v 0.104444 0.435121 -0.180902
v -0.000000 0.435121 -0.208887
v -0.104444 0.773693 -0.180902
v -0.180902 0.773693 -0.104444
v -0.208887 0.773693 -0.000000
v -0.180902 0.773693 0.104444
v -0.104444 0.773693 0.180902
v -0.000000 0.773693 0.208887
v 0.104444 0.773693 0.180902
v 0.180902 0.773693 0.104444
v 0.208887 0.773693 0.000000
v 0.180902 0.773693 -0.104444
v 0.104444 0.773693 -0.180902
v -0.000000 0.773693 -0.208887
v 0.137399 0.125416 0.188965
v 0.188964 0.125416 0.137399
v 0.188964 0.338810 0.137399
v 0.137399 0.338810 0.188965
v -0.024509 0.125416 -0.232348
v -0.094949 0.125416 -0.213473
v -0.094949 0.338810 -0.213473
v -0.024509 0.338810 -0.232348
v 0.188964 0.125416 -0.137399
v 0.137399 0.125416 -0.188964
v 0.137399 0.338810 -0.188964
v 0.188964 0.338810 -0.137399
v -0.232348 0.125416 0.024509
v -0.213474 0.125416 0.094948
v -0.213474 0.338810 0.094948
v -0.232348 0.338810 0.024509
v 0.024509 0.125416 0.232348
v 0.094948 0.125416 0.213474
v 0.094948 0.338810 0.213474
v 0.024509 0.338810 0.232348
v 0.232348 0.125416 -0.024509
v 0.213473 0.125416 -0.094948
v 0.213473 0.338810 -0.094948
v 0.232348 0.338810 -0.024509
v -0.213474 0.125416 -0.094948
v -0.232348 0.125416 -0.024509
v -0.232348 0.338810 -0.024509
v -0.213474 0.338810 -0.094948
v -0.094948 0.125416 0.213474
v -0.024509 0.125416 0.232348
v -0.024509 0.338810 0.232348
v -0.094948 0.338810 0.213474
v 0.213473 0.125416 0.094948
v 0.232348 0.125416 0.024509
v 0.232348 0.338810 0.024509
v 0.213473 0.338810 0.094948
v -0.137399 0.125416 -0.188964
v -0.188965 0.125416 -0.137399
v -0.188965 0.338810 -0.137399
v -0.137399 0.338810 -0.188964
v 0.094948 0.125416 -0.213473
v 0.024509 0.125416 -0.232348
v 0.024509 0.338810 -0.232348
v 0.094948 0.338810 -0.213473
v -0.188965 0.125416 0.137399
v -0.137399 0.125416 0.188965
v -0.137399 0.338810 0.188965
v -0.188965 0.338810 0.137399
v 0.147079 0.153621 0.147079
v 0.147079 0.310605 0.147079
v -0.053835 0.153621 -0.200913
v -0.053835 0.310605 -0.200913
v 0.147079 0.153621 -0.147079
v 0.147079 0.310605 -0.147079
v -0.200913 0.153621 0.053834
v -0.200913 0.310605 0.053834
v 0.053834 0.153621 0.200913
v 0.053834 0.310605 0.200913
v 0.200913 0.153621 -0.053834
v 0.200913 0.310605 -0.053834
v -0.200913 0.153621 -0.053834
v -0.200913 0.310605 -0.053834
v -0.053835 0.153621 0.200913
v -0.053835 0.310605 0.200913
v 0.200913 0.153621 0.053835
v 0.200913 0.310605 0.053835
v -0.147079 0.153621 -0.147079
v -0.147079 0.310605 -0.147079
v 0.053834 0.153621 -0.200913
v 0.053834 0.310605 -0.200913
v -0.147079 0.153621 0.147079
v -0.147079 0.310605 0.147079
v -0.000000 0.000000 0.000000
v -0.082600 0.948812 -0.186864
v -0.186864 0.948812 -0.082600
v -0.208887 0.949302 -0.000000
v -0.180902 0.949302 0.104444
v -0.104444 0.949302 0.180902
v 0.021898 0.948812 0.203129
v 0.082600 0.948812 0.186864
v 0.186864 0.948812 0.082600
v 0.208887 0.949302 0.000000
v 0.180902 0.949302 -0.104444
v 0.104444 0.949302 -0.180902
v -0.000000 0.949302 -0.208887
v -0.024816 1.108841 -0.092614
v -0.022304 1.077759 -0.144812
v -0.022054 1.018600 -0.188217
v 0.067798 1.108841 -0.067798
v 0.091722 1.077759 -0.114259
v 0.113208 1.018600 -0.151973
v 0.114259 1.077759 -0.091722
v 0.151973 1.018600 -0.113208
v 0.092614 1.108841 0.024816
v 0.144812 1.077759 0.022304
v 0.188217 1.018600 0.022054
v 0.136563 1.077759 0.053091
v 0.174028 1.018600 0.075009
v 0.024816 1.108841 0.092614
v 0.053091 1.077759 0.136563
v 0.075009 1.018600 0.174028
v 0.022303 1.077759 0.144812
v 0.022054 1.018600 0.188217
v -0.067798 1.108841 0.067798
v -0.091722 1.077759 0.114259
v -0.113208 1.018600 0.151974
v -0.114259 1.077759 0.091722
v -0.151974 1.018600 0.113208
v -0.092614 1.108841 -0.024816
v -0.144812 1.077759 -0.022303
v -0.188217 1.018600 -0.022054
v -0.136563 1.077759 -0.053091
v -0.174028 1.018600 -0.075009
v -0.053091 1.077759 -0.136563
v -0.075009 1.018600 -0.174027
v -0.140545 0.894510 0.140545
v 0.051443 0.894510 0.191988
v 0.140545 0.894510 -0.140545
v 0.191988 0.894510 0.051443
v -0.191988 0.894510 -0.051443
v -0.051443 0.894510 -0.191988
v -0.147356 0.794429 -0.255228
v -0.136845 0.773693 -0.237022
v -0.237022 0.773693 -0.136845
v -0.255228 0.794429 -0.147356
v -0.273689 0.773693 -0.000000
v -0.294712 0.794429 -0.000000
v -0.255228 0.794429 0.147356
v -0.237022 0.773693 0.136845
v -0.136845 0.773693 0.237022
v -0.147356 0.794429 0.255228
v -0.000000 0.773693 0.273689
v -0.000000 0.794429 0.294712
v 0.147356 0.794429 0.255228
v 0.136845 0.773693 0.237022
v 0.237022 0.773693 0.136845
v 0.255228 0.794429 0.147356
v 0.273689 0.773693 0.000000
v 0.294712 0.794429 0.000000
v 0.255228 0.794429 -0.147356
v 0.237022 0.773693 -0.136845
v 0.136845 0.773693 -0.237022
v 0.147356 0.794429 -0.255228
v -0.000000 0.794429 -0.294712
v -0.000000 0.773693 -0.273689
v -0.255228 0.853769 0.147356
v -0.237022 0.874505 0.136845
v -0.000000 0.853769 0.294712
v -0.000000 0.874505 0.273689
v 0.255228 0.853769 -0.147356
v 0.237022 0.874505 -0.136845
v 0.294712 0.853769 0.000000
v 0.273689 0.874505 0.000000
v -0.147356 0.853769 -0.255228
v -0.136845 0.874505 -0.237022
v -0.000000 0.853769 -0.294712
v -0.000000 0.874505 -0.273689
v -0.136845 0.874505 0.237022
v -0.147356 0.853769 0.255228
v 0.136845 0.874505 0.237022
v 0.147356 0.853769 0.255228
v 0.136845 0.874505 -0.237022
v 0.147356 0.853769 -0.255228
v -0.237022 0.874505 -0.136845
v -0.255228 0.853769 -0.147356
v 0.237022 0.874505 0.136845
v 0.255228 0.853769 0.147356
v -0.273689 0.874505 -0.000000
v -0.294712 0.853769 -0.000000
v 0.039992 1.170016 -0.069269
v -0.000000 1.170016 -0.079985
v 0.069269 1.170016 -0.039992
v 0.079985 1.170016 0.000000
v 0.069269 1.170016 0.039993
v 0.039992 1.170016 0.069269
v -0.000000 1.170016 0.079985
v -0.039993 1.170016 0.069269
v -0.069269 1.170016 0.039993
v -0.079985 1.170016 0.000000
v -0.069269 1.170016 -0.039992
v -0.039993 1.170016 -0.069269
v -0.000000 1.171097 -0.042542
v 0.042542 1.171097 0.000000
v -0.000000 1.171097 0.042542
v 0.042542 1.209878 0.000000
v -0.000000 1.209878 -0.042542
v -0.042542 1.171097 0.000000
v -0.000000 1.209878 0.042542
v -0.042542 1.209878 0.000000
v -0.051443 0.894510 0.191988
v -0.120529 0.948812 0.164966
v 0.140545 0.894510 0.140545
v 0.104444 0.949302 0.180902
v 0.051443 0.894510 -0.191988
v 0.120529 0.948812 -0.164966
v -0.140545 0.894510 -0.140545
v -0.180902 0.949302 -0.104444
v 0.180902 0.949302 0.104444
v -0.191988 0.894510 0.051443
v -0.203129 0.948812 -0.021898
v 0.024816 1.108841 -0.092614
v 0.022303 1.077759 -0.144812
v 0.022054 1.018600 -0.188217
v 0.053091 1.077759 -0.136563
v 0.075009 1.018600 -0.174028
v 0.092614 1.108841 -0.024816
v 0.136563 1.077759 -0.053091
v 0.174028 1.018600 -0.075009
v 0.144812 1.077759 -0.022303
v 0.188217 1.018600 -0.022054
v 0.067798 1.108841 0.067798
v 0.114259 1.077759 0.091722
v 0.151973 1.018600 0.113208
v 0.091722 1.077759 0.114259
v 0.113208 1.018600 0.151974
v -0.024816 1.108841 0.092614
v -0.022304 1.077759 0.144812
v -0.022054 1.018600 0.188217
v -0.053091 1.077759 0.136563
v -0.075009 1.018600 0.174028
v -0.092614 1.108841 0.024816
v -0.136563 1.077759 0.053091
v -0.174028 1.018600 0.075009
v -0.144812 1.077759 0.022304
v -0.188217 1.018600 0.022054
v -0.067798 1.108841 -0.067798
v -0.114259 1.077759 -0.091722
v -0.151973 1.018600 -0.113208
v -0.091722 1.077759 -0.114259
v -0.113208 1.018600 -0.151973
v -0.104444 0.949302 -0.180902
v -0.021898 0.948812 -0.203129
v 0.164966 0.948812 -0.120529
v 0.203129 0.948812 0.021898
v -0.000000 0.949302 0.208887
v -0.164966 0.948812 0.120529
v 0.191988 0.894510 -0.051443
v -0.104444 0.874505 0.180902
v -0.082600 0.948812 0.186864
v 0.104444 0.874505 0.180902
v 0.120529 0.948812 0.164966
v 0.104444 0.874505 -0.180902
v 0.082600 0.948812 -0.186864
v -0.180902 0.874505 -0.104444
v -0.164966 0.948812 -0.120529
v 0.180902 0.874505 0.104444
v 0.164966 0.948812 0.120529
v -0.208887 0.874505 -0.000000
v -0.203129 0.948812 0.021898
v -0.000000 1.120219 -0.079985
v -0.000000 1.080198 -0.147793
v -0.000000 1.020303 -0.193101
v 0.039992 1.120219 -0.069269
v 0.073896 1.080198 -0.127992
v 0.096550 1.020303 -0.167230
v 0.069269 1.120219 -0.039992
v 0.127992 1.080198 -0.073896
v 0.167230 1.020303 -0.096550
v 0.079985 1.120219 0.000000
v 0.147793 1.080198 0.000000
v 0.193101 1.020303 0.000000
v 0.069269 1.120219 0.039993
v 0.127992 1.080198 0.073896
v 0.167230 1.020303 0.096550
v 0.039992 1.120219 0.069269
v 0.073896 1.080198 0.127992
v 0.096550 1.020303 0.167230
v -0.000000 1.120219 0.079985
v -0.000000 1.080198 0.147793
v -0.000000 1.020303 0.193101
v -0.039993 1.120219 0.069269
v -0.073896 1.080198 0.127992
v -0.096550 1.020303 0.167230
v -0.069269 1.120219 0.039993
v -0.127992 1.080198 0.073896
v -0.167230 1.020303 0.096550
v -0.079985 1.120219 0.000000
v -0.147793 1.080198 0.000000
v -0.193101 1.020303 0.000000
v -0.069269 1.120219 -0.039992
v -0.127992 1.080198 -0.073896
v -0.167230 1.020303 -0.096550
v -0.039993 1.120219 -0.069269
v -0.073896 1.080198 -0.127992
v -0.096550 1.020303 -0.167230
v -0.120529 0.948812 -0.164966
v 0.021898 0.948812 -0.203129
v 0.186864 0.948812 -0.082600
v 0.203129 0.948812 -0.021898
v -0.021898 0.948812 0.203129
v -0.186864 0.948812 0.082600
v -0.180902 0.874505 0.104444
v -0.000000 0.874505 0.208887
v 0.180902 0.874505 -0.104444
v 0.208887 0.874505 0.000000
v -0.104444 0.874505 -0.180902
v -0.000000 0.874505 -0.208887
v -0.049922 0.948114 -0.186310
v -0.186310 0.948114 -0.049922
v 0.049922 0.948114 0.186310
v 0.186310 0.948114 0.049922
v -0.035957 1.072439 -0.134193
v -0.046342 1.015814 -0.172952
v 0.098236 1.072439 -0.098236
v 0.126610 1.015814 -0.126610
v 0.134193 1.072439 0.035957
v 0.172952 1.015814 0.046343
v 0.035957 1.072439 0.134193
v 0.046342 1.015814 0.172953
v -0.098236 1.072439 0.098236
v -0.126610 1.015814 0.126610
v -0.134193 1.072439 -0.035957
v -0.172952 1.015814 -0.046342
v -0.136388 0.948114 0.136389
v 0.136388 0.948114 -0.136388
v 0.035957 1.072439 -0.134193
v 0.046342 1.015814 -0.172952
v 0.134193 1.072439 -0.035957
v 0.172952 1.015814 -0.046342
v 0.098236 1.072439 0.098236
v 0.126610 1.015814 0.126610
v -0.035957 1.072439 0.134193
v -0.046343 1.015814 0.172953
v -0.134193 1.072439 0.035957
v -0.172952 1.015814 0.046342
v -0.098236 1.072439 -0.098236
v -0.126610 1.015814 -0.126610
v -0.049922 0.948114 0.186310
v 0.136388 0.948114 0.136389
v 0.049922 0.948114 -0.186310
v -0.136389 0.948114 -0.136388
v -0.186310 0.948114 0.049922
v 0.186310 0.948114 -0.049922
v 0.283713 0.584328 -0.132965
v 0.283713 0.655584 -0.132965
v 0.283713 0.717293 -0.097337
v 0.283713 0.752921 -0.035628
v 0.283713 0.752921 0.035628
v 0.283713 0.717293 0.097337
v 0.283713 0.655584 0.132965
v 0.283713 0.584328 0.132965
v 0.283713 0.522618 0.097337
v 0.283713 0.486991 0.035628
v 0.283713 0.486991 -0.035628
v 0.283713 0.522619 -0.097337
v 0.294534 0.596641 -0.087012
v 0.294534 0.643271 -0.087012
v 0.294534 0.683653 -0.063697
v 0.294534 0.706968 -0.023315
v 0.294534 0.706968 0.023315
v 0.294534 0.683653 0.063697
v 0.294534 0.643271 0.087012
v 0.294534 0.596641 0.087012
v 0.294534 0.556258 0.063697
v 0.294534 0.532944 0.023315
v 0.294534 0.532944 -0.023315
v 0.294534 0.556258 -0.063697
v 0.322650 0.619956 0.000000
v 0.322650 0.599073 -0.077937
v 0.322650 0.640839 -0.077937
v 0.322650 0.677009 -0.057054
v 0.322650 0.697893 -0.020883
v 0.322650 0.697893 0.020883
v 0.322650 0.677009 0.057054
v 0.322650 0.640839 0.077937
v 0.322650 0.599073 0.077937
v 0.322650 0.562902 0.057054
v 0.322650 0.542019 0.020883
v 0.322650 0.542019 -0.020883
v 0.322650 0.562902 -0.057054
v 0.087579 0.596489 0.281412
v 0.087579 0.643423 0.281412
v 0.064112 0.684068 0.281412
v 0.023467 0.707535 0.281412
v -0.023467 0.707535 0.281412
v -0.064112 0.684068 0.281412
v -0.087579 0.643423 0.281412
v -0.087579 0.596489 0.281412
v -0.064112 0.555843 0.281412
v -0.023467 0.532377 0.281412
v 0.023467 0.532377 0.281412
v 0.064112 0.555843 0.281412
v -0.035860 0.753788 0.026747
v 0.035860 0.753788 0.026747
v -0.133832 0.655816 0.026747
v -0.097972 0.717928 0.026747
v 0.035860 0.486124 0.026747
v -0.035860 0.486124 0.026747
v -0.097972 0.521984 0.026747
v 0.133832 0.655816 0.026747
v 0.133832 0.584096 0.026747
v 0.097972 0.521984 0.026747
v -0.133832 0.584096 0.026747
v 0.097972 0.717927 0.026747
v 0.125543 0.586317 0.273732
v 0.133832 0.584096 0.263599
v 0.133832 0.655816 0.263599
v 0.125543 0.653595 0.273733
v 0.097972 0.717927 0.263599
v 0.091904 0.711860 0.273732
v 0.033639 0.745499 0.273732
v 0.035860 0.753788 0.263599
v -0.035860 0.753788 0.263599
v -0.033639 0.745499 0.273732
v -0.097972 0.717927 0.263599
v -0.091904 0.711860 0.273732
v -0.125543 0.653595 0.273733
v -0.133832 0.655816 0.263599
v -0.133832 0.584096 0.263599
v -0.125543 0.586317 0.273732
v -0.097972 0.521984 0.263599
v -0.091904 0.528052 0.273732
v -0.033639 0.494413 0.273732
v -0.035860 0.486124 0.263599
v 0.035860 0.486124 0.263599
v 0.033639 0.494413 0.273732
v 0.091904 0.528052 0.273732
v 0.097972 0.521984 0.263599
v 0.081419 0.598140 0.297806
v 0.081419 0.641772 0.297806
v 0.059603 0.679559 0.297806
v 0.021816 0.701375 0.297806
v -0.021816 0.701375 0.297806
v -0.059603 0.679559 0.297806
v -0.081419 0.641772 0.297806
v -0.081419 0.598140 0.297806
v -0.059603 0.560353 0.297806
v -0.021816 0.538537 0.297806
v 0.021816 0.538537 0.297806
v 0.059603 0.560353 0.297806
v 0.069988 0.638709 0.307290
v 0.069988 0.601203 0.307290
v 0.051235 0.671191 0.307290
v -0.018753 0.689944 0.307290
v 0.018753 0.689944 0.307290
v -0.051235 0.671191 0.307290
v -0.069988 0.601203 0.307290
v -0.069988 0.638709 0.307290
v -0.051235 0.568721 0.307290
v 0.018753 0.549968 0.307290
v -0.018753 0.549968 0.307290
v 0.051235 0.568721 0.307290
v 0.038624 0.609607 0.307290
v 0.010349 0.658580 0.356207
v 0.010349 0.658580 0.307290
v -0.038624 0.630305 0.307290
v -0.010349 0.581332 0.356206
v 0.038624 0.609606 0.356206
v -0.010349 0.581332 0.307290
v -0.038624 0.630305 0.356207
v -0.322650 0.562902 -0.057054
v -0.322650 0.542019 -0.020883
v -0.322650 0.542019 0.020883
v -0.322650 0.562902 0.057054
v -0.322650 0.599073 0.077937
v -0.322650 0.640839 0.077937
v -0.322650 0.677009 0.057054
v -0.322650 0.697893 0.020883
v -0.322650 0.697893 -0.020883
v -0.322650 0.677009 -0.057054
v -0.322650 0.640839 -0.077937
v -0.322650 0.599073 -0.077937
v -0.322650 0.619956 0.000000
v -0.294534 0.556258 -0.063697
v -0.294534 0.532944 -0.023315
v -0.294534 0.532944 0.023315
v -0.294534 0.556258 0.063697
v -0.294534 0.596641 0.087012
v -0.294534 0.643271 0.087012
v -0.294534 0.683653 0.063697
v -0.294534 0.706968 0.023315
v -0.294534 0.706968 -0.023315
v -0.294534 0.683653 -0.063697
v -0.294534 0.643271 -0.087012
v -0.294534 0.596641 -0.087012
v -0.283713 0.522619 -0.097337
v -0.283713 0.486991 -0.035628
v -0.283713 0.486991 0.035628
v -0.283713 0.522618 0.097337
v -0.283713 0.584328 0.132965
v -0.283713 0.655584 0.132965
v -0.283713 0.717293 0.097337
v -0.283713 0.752921 0.035628
v -0.283713 0.752921 -0.035628
v -0.283713 0.717293 -0.097337
v -0.283713 0.655584 -0.132965
v -0.283713 0.584328 -0.132965
vt 0.201801 0.065472
vt 0.201801 0.073908
vt 0.210389 0.073908
vt 0.210389 0.065472
vt 0.198881 0.094735
vt 0.205331 0.094735
vt 0.208939 0.094735
vt 0.200964 0.094735
vt 0.207692 0.094735
vt 0.211858 0.094735
vt 0.205331 0.094735
vt 0.208939 0.094735
vt 0.198881 0.094735
vt 0.200964 0.094735
vt 0.190071 0.094735
vt 0.190071 0.094735
vt 0.181260 0.094735
vt 0.179177 0.094735
vt 0.174810 0.094735
vt 0.171202 0.094735
vt 0.172449 0.094735
vt 0.168283 0.094735
vt 0.174810 0.094735
vt 0.171202 0.094735
vt 0.148121 0.062496
vt 0.147721 0.062496
vt 0.147455 0.034091
vt 0.181260 0.094735
vt 0.179177 0.094735
vt 0.190071 0.094735
vt 0.190071 0.094735
vt 0.190071 0.065472
vt 0.190071 0.073908
vt 0.178340 0.065472
vt 0.178340 0.073908
vt 0.213532 0.065472
vt 0.213532 0.073908
vt 0.210389 0.073908
vt 0.210389 0.065472
vt 0.201801 0.073908
vt 0.201801 0.065472
vt 0.190071 0.073908
vt 0.190071 0.065472
vt 0.178340 0.073908
vt 0.178340 0.065472
vt 0.169752 0.073908
vt 0.169752 0.065472
vt 0.166609 0.073908
vt 0.166609 0.065472
vt 0.169752 0.073908
vt 0.169752 0.065472
vt 0.172449 0.128232
vt 0.174810 0.128232
vt 0.176728 0.128232
vt 0.174664 0.128232
vt 0.206754 0.162253
vt 0.209335 0.162253
vt 0.207692 0.165980
vt 0.205331 0.165980
vt 0.145208 0.062496
vt 0.143715 0.062496
vt 0.144337 0.034091
vt 0.138670 0.062496
vt 0.138670 0.084020
vt 0.138936 0.049925
vt 0.138936 0.034091
vt 0.148121 0.062496
vt 0.148121 0.084020
vt 0.147455 0.049925
vt 0.147455 0.034091
vt 0.138270 0.084020
vt 0.138270 0.062496
vt 0.147721 0.084020
vt 0.147721 0.062496
vt 0.141183 0.084020
vt 0.142676 0.084020
vt 0.142054 0.049925
vt 0.138270 0.084020
vt 0.138670 0.084020
vt 0.138936 0.049925
vt 0.140283 0.084020
vt 0.139190 0.084020
vt 0.140078 0.049925
vt 0.141183 0.062496
vt 0.142054 0.034091
vt 0.201801 0.130529
vt 0.190071 0.130529
vt 0.190071 0.132482
vt 0.200964 0.132482
vt 0.210389 0.130529
vt 0.208939 0.132482
vt 0.213532 0.130529
vt 0.211858 0.132482
vt 0.210389 0.130529
vt 0.208939 0.132482
vt 0.201801 0.130529
vt 0.200964 0.132482
vt 0.190071 0.130529
vt 0.190071 0.132482
vt 0.178340 0.130529
vt 0.179177 0.132482
vt 0.169752 0.130529
vt 0.171202 0.132482
vt 0.166609 0.130529
vt 0.168283 0.132482
vt 0.169752 0.130529
vt 0.171202 0.132482
vt 0.178340 0.130529
vt 0.179177 0.132482
vt 0.180438 0.162253
vt 0.173387 0.162253
vt 0.174810 0.165980
vt 0.181260 0.165980
vt 0.199703 0.162253
vt 0.190071 0.162253
vt 0.190071 0.165980
vt 0.198881 0.165980
vt 0.173387 0.162253
vt 0.180438 0.162253
vt 0.181260 0.165980
vt 0.174810 0.165980
vt 0.199703 0.162253
vt 0.198881 0.165980
vt 0.206754 0.162253
vt 0.205331 0.165980
vt 0.170806 0.162253
vt 0.172449 0.165980
vt 0.190071 0.162253
vt 0.190071 0.165980
vt 0.181260 0.083031
vt 0.190071 0.083031
vt 0.190071 0.086758
vt 0.180438 0.086758
vt 0.174810 0.083031
vt 0.172449 0.083031
vt 0.170806 0.086758
vt 0.173387 0.086758
vt 0.207692 0.083031
vt 0.205331 0.083031
vt 0.206754 0.086758
vt 0.209335 0.086758
vt 0.198881 0.083031
vt 0.199703 0.086758
vt 0.174810 0.083031
vt 0.173387 0.086758
vt 0.198881 0.083031
vt 0.199703 0.086758
vt 0.190071 0.083031
vt 0.181260 0.083031
vt 0.180438 0.086758
vt 0.190071 0.086758
vt 0.205331 0.083031
vt 0.206754 0.086758
vt 0.176728 0.078109
vt 0.182367 0.078109
vt 0.182367 0.121593
vt 0.176728 0.121593
vt 0.181260 0.128232
vt 0.190071 0.128232
vt 0.190071 0.128232
vt 0.182367 0.128232
vt 0.174810 0.128232
vt 0.176728 0.128232
vt 0.205331 0.128232
vt 0.198881 0.128232
vt 0.197774 0.128232
vt 0.203413 0.128232
vt 0.198881 0.128232
vt 0.197774 0.128232
vt 0.205331 0.128232
vt 0.203413 0.128232
vt 0.207692 0.128232
vt 0.205477 0.128232
vt 0.181260 0.128232
vt 0.182367 0.128232
vt 0.190071 0.128232
vt 0.190071 0.128232
vt 0.146863 0.115044
vt 0.146863 0.121011
vt 0.146863 0.089225
vt 0.146863 0.083513
vt 0.190071 0.078109
vt 0.197774 0.078109
vt 0.197774 0.121593
vt 0.190071 0.121593
vt 0.203413 0.078109
vt 0.197774 0.078109
vt 0.197774 0.121593
vt 0.203413 0.121593
vt 0.205477 0.078109
vt 0.205477 0.121593
vt 0.182367 0.078109
vt 0.176728 0.078109
vt 0.176728 0.121593
vt 0.182367 0.121593
vt 0.190071 0.078109
vt 0.190071 0.121593
vt 0.203413 0.078109
vt 0.203413 0.121593
vt 0.174664 0.078109
vt 0.174664 0.121593
vt 0.198881 0.075861
vt 0.205331 0.075861
vt 0.204008 0.078121
vt 0.200205 0.078121
vt 0.205331 0.101905
vt 0.204008 0.099645
vt 0.198881 0.101905
vt 0.200205 0.099645
vt 0.190071 0.075861
vt 0.181260 0.075861
vt 0.183068 0.078121
vt 0.188263 0.078121
vt 0.181260 0.101905
vt 0.183068 0.099645
vt 0.190071 0.101905
vt 0.188263 0.099645
vt 0.205331 0.075861
vt 0.198881 0.075861
vt 0.200205 0.078121
vt 0.204008 0.078121
vt 0.198881 0.101905
vt 0.200205 0.099645
vt 0.205331 0.101905
vt 0.204008 0.099645
vt 0.172449 0.075861
vt 0.174810 0.075861
vt 0.174326 0.078121
vt 0.172934 0.078121
vt 0.174810 0.101905
vt 0.174326 0.099645
vt 0.172449 0.101905
vt 0.172934 0.099645
vt 0.190071 0.075861
vt 0.197074 0.078121
vt 0.191878 0.078121
vt 0.197074 0.099645
vt 0.190071 0.101905
vt 0.191878 0.099645
vt 0.207692 0.075861
vt 0.205815 0.078121
vt 0.207208 0.078121
vt 0.205815 0.099645
vt 0.207692 0.101905
vt 0.207208 0.099645
vt 0.174810 0.075861
vt 0.172934 0.078121
vt 0.174326 0.078121
vt 0.172934 0.099645
vt 0.174810 0.101905
vt 0.174326 0.099645
vt 0.181260 0.075861
vt 0.188263 0.078121
vt 0.183068 0.078121
vt 0.188263 0.099645
vt 0.181260 0.101905
vt 0.183068 0.099645
vt 0.207208 0.078121
vt 0.205815 0.078121
vt 0.207208 0.099645
vt 0.205815 0.099645
vt 0.176133 0.078121
vt 0.179937 0.078121
vt 0.176133 0.099645
vt 0.179937 0.099645
vt 0.191878 0.078121
vt 0.197074 0.078121
vt 0.191878 0.099645
vt 0.197074 0.099645
vt 0.179937 0.078121
vt 0.176133 0.078121
vt 0.179937 0.099645
vt 0.176133 0.099645
vt 0.146108 0.062496
vt 0.147201 0.062496
vt 0.146313 0.034091
vt 0.145208 0.084020
vt 0.144337 0.049925
vt 0.148121 0.084020
vt 0.147455 0.049925
vt 0.146108 0.084020
vt 0.146313 0.049925
vt 0.143715 0.084020
vt 0.147721 0.084020
vt 0.147201 0.084020
vt 0.141183 0.062496
vt 0.142676 0.062496
vt 0.142054 0.034091
vt 0.147201 0.062496
vt 0.146108 0.062496
vt 0.146313 0.034091
vt 0.141183 0.084020
vt 0.142054 0.049925
vt 0.147201 0.084020
vt 0.146313 0.049925
vt 0.142676 0.084020
vt 0.146108 0.084020
vt 0.140283 0.062496
vt 0.139190 0.062496
vt 0.140078 0.034091
vt 0.143715 0.062496
vt 0.145208 0.062496
vt 0.144337 0.034091
vt 0.140283 0.084020
vt 0.140078 0.049925
vt 0.143715 0.084020
vt 0.144337 0.049925
vt 0.139190 0.084020
vt 0.145208 0.084020
vt 0.139190 0.062496
vt 0.140283 0.062496
vt 0.140078 0.034091
vt 0.138670 0.062496
vt 0.138270 0.062496
vt 0.138936 0.034091
vt 0.142676 0.062496
vt 0.190071 0.065472
vt 0.146863 0.124146
vt 0.146863 0.121011
vt 0.146863 0.089225
vt 0.146863 0.121011
vt 0.146863 0.124146
vt 0.146863 0.089225
vt 0.146863 0.115044
vt 0.146863 0.121011
vt 0.146863 0.089225
vt 0.146863 0.083513
vt 0.146863 0.124146
vt 0.146863 0.124146
vt 0.146863 0.121011
vt 0.146863 0.115044
vt 0.146863 0.083513
vt 0.146863 0.089225
vt 0.146863 0.121011
vt 0.146863 0.115044
vt 0.146863 0.083513
vt 0.146863 0.089225
vt 0.146863 0.115044
vt 0.146863 0.121011
vt 0.146863 0.115044
vt 0.146863 0.121011
vt 0.146863 0.124146
vt 0.146863 0.124146
vt 0.146863 0.108005
vt 0.146863 0.102528
vt 0.146863 0.076685
vt 0.187121 0.150046
vt 0.190071 0.150046
vt 0.190071 0.155069
vt 0.187121 0.155069
vt 0.146863 0.121011
vt 0.146863 0.115044
vt 0.146863 0.083513
vt 0.146863 0.089225
vt 0.146863 0.102528
vt 0.146863 0.108005
vt 0.146863 0.076685
vt 0.146863 0.115044
vt 0.146863 0.121011
vt 0.146863 0.102528
vt 0.146863 0.108005
vt 0.146863 0.076685
vt 0.146863 0.124146
vt 0.190071 0.150046
vt 0.187121 0.150046
vt 0.187121 0.155069
vt 0.190071 0.155069
vt 0.146863 0.108005
vt 0.146863 0.102528
vt 0.146863 0.076685
vt 0.184171 0.150046
vt 0.184961 0.150046
vt 0.184961 0.155069
vt 0.184171 0.155069
vt 0.146863 0.108005
vt 0.146863 0.121011
vt 0.146863 0.115044
vt 0.146863 0.083513
vt 0.146863 0.089225
vt 0.193020 0.150046
vt 0.193020 0.155069
vt 0.146863 0.108005
vt 0.146863 0.102528
vt 0.146863 0.076685
vt 0.184961 0.150046
vt 0.184961 0.155069
vt 0.146863 0.115044
vt 0.146863 0.121011
vt 0.146863 0.124146
vt 0.146863 0.121011
vt 0.146863 0.115044
vt 0.146863 0.083513
vt 0.193020 0.150046
vt 0.193020 0.155069
vt 0.146863 0.124146
vt 0.146863 0.121011
vt 0.146863 0.089225
vt 0.195970 0.150046
vt 0.195180 0.150046
vt 0.195180 0.155069
vt 0.195970 0.155069
vt 0.146863 0.102528
vt 0.146863 0.108005
vt 0.146863 0.076685
vt 0.146863 0.108005
vt 0.146863 0.108005
vt 0.146863 0.102528
vt 0.146863 0.076685
vt 0.146863 0.108005
vt 0.146863 0.108005
vt 0.146863 0.108005
vt 0.146863 0.102528
vt 0.146863 0.076685
vt 0.146863 0.102528
vt 0.146863 0.108005
vt 0.146863 0.076685
vt 0.146863 0.108005
vt 0.146863 0.102528
vt 0.146863 0.108005
vt 0.146863 0.076685
vt 0.146863 0.108005
vt 0.195180 0.150046
vt 0.195180 0.155069
vt 0.146863 0.121011
vt 0.146863 0.102528
vt 0.146863 0.108005
vt 0.146863 0.076685
vt 0.146863 0.108005
vt 0.208895 0.154934
vt 0.200939 0.154934
vt 0.200939 0.160919
vt 0.208895 0.160919
vt 0.174664 0.181884
vt 0.176728 0.181884
vt 0.172589 0.181884
vt 0.169884 0.181884
vt 0.205477 0.096221
vt 0.203413 0.096221
vt 0.207552 0.096221
vt 0.210257 0.096221
vt 0.190071 0.181884
vt 0.182367 0.181884
vt 0.179977 0.181884
vt 0.190071 0.181884
vt 0.203413 0.181884
vt 0.197774 0.181884
vt 0.200164 0.181884
vt 0.207552 0.181884
vt 0.208895 0.154934
vt 0.211807 0.154934
vt 0.211807 0.160919
vt 0.208895 0.160919
vt 0.203413 0.181884
vt 0.205477 0.181884
vt 0.210257 0.181884
vt 0.207552 0.181884
vt 0.190071 0.154934
vt 0.190071 0.160919
vt 0.179202 0.154934
vt 0.190071 0.154934
vt 0.190071 0.160919
vt 0.179202 0.160919
vt 0.203413 0.096221
vt 0.207552 0.096221
vt 0.176728 0.096221
vt 0.182367 0.096221
vt 0.179977 0.096221
vt 0.172589 0.096221
vt 0.174664 0.096221
vt 0.169884 0.096221
vt 0.176728 0.181884
vt 0.172589 0.181884
vt 0.197774 0.096221
vt 0.200164 0.096221
vt 0.176728 0.096221
vt 0.172589 0.096221
vt 0.190071 0.096221
vt 0.182367 0.096221
vt 0.179977 0.096221
vt 0.190071 0.096221
vt 0.197774 0.096221
vt 0.200164 0.096221
vt 0.190071 0.096221
vt 0.190071 0.096221
vt 0.200939 0.154934
vt 0.200939 0.160919
vt 0.182367 0.181884
vt 0.179977 0.181884
vt 0.179202 0.154934
vt 0.179202 0.160919
vt 0.190071 0.181884
vt 0.197774 0.181884
vt 0.200164 0.181884
vt 0.190071 0.181884
vt 0.171246 0.154934
vt 0.171246 0.160919
vt 0.168334 0.154934
vt 0.171246 0.154934
vt 0.171246 0.160919
vt 0.168334 0.160919
vt 0.179977 0.190590
vt 0.172589 0.190590
vt 0.171246 0.192682
vt 0.179202 0.192682
vt 0.169884 0.190590
vt 0.168334 0.192682
vt 0.172589 0.190590
vt 0.179977 0.190590
vt 0.179202 0.192682
vt 0.171246 0.192682
vt 0.190071 0.190590
vt 0.190071 0.192682
vt 0.200164 0.190590
vt 0.207552 0.190590
vt 0.208895 0.192682
vt 0.200939 0.192682
vt 0.210257 0.190590
vt 0.211807 0.192682
vt 0.207552 0.190590
vt 0.200164 0.190590
vt 0.200939 0.192682
vt 0.208895 0.192682
vt 0.190071 0.190590
vt 0.190071 0.192682
vt 0.210257 0.219632
vt 0.207552 0.219632
vt 0.208895 0.217541
vt 0.211807 0.217541
vt 0.172589 0.219632
vt 0.169884 0.219632
vt 0.168334 0.217541
vt 0.171246 0.217541
vt 0.172589 0.219632
vt 0.171246 0.217541
vt 0.190071 0.219632
vt 0.200164 0.219632
vt 0.200939 0.217541
vt 0.190071 0.217541
vt 0.200164 0.219632
vt 0.200939 0.217541
vt 0.179977 0.219632
vt 0.179202 0.217541
vt 0.207552 0.219632
vt 0.208895 0.217541
vt 0.190071 0.219632
vt 0.179977 0.219632
vt 0.179202 0.217541
vt 0.190071 0.217541
vt 0.184171 0.211690
vt 0.184961 0.211690
vt 0.186933 0.211799
vt 0.195970 0.211690
vt 0.195180 0.211690
vt 0.193208 0.211799
vt 0.187121 0.211690
vt 0.190071 0.211799
vt 0.193020 0.211690
vt 0.190071 0.211799
vt 0.187121 0.211690
vt 0.184961 0.211690
vt 0.193020 0.211690
vt 0.195180 0.211690
vt 0.190071 0.211690
vt 0.190071 0.211690
vt 0.315071 0.866235
vt 0.318208 0.866235
vt 0.318208 0.875018
vt 0.315071 0.875018
vt 0.311933 0.850610
vt 0.315071 0.850610
vt 0.315071 0.859393
vt 0.311933 0.859393
vt 0.315071 0.917401
vt 0.311933 0.917401
vt 0.315071 0.917401
vt 0.318208 0.917401
vt 0.315071 0.866235
vt 0.311933 0.866235
vt 0.311933 0.875018
vt 0.315071 0.875018
vt 0.318208 0.850610
vt 0.315071 0.850610
vt 0.315071 0.859393
vt 0.318208 0.859393
vt 0.181181 0.170505
vt 0.179704 0.165028
vt 0.182367 0.163011
vt 0.182367 0.170555
vt 0.196163 0.170505
vt 0.193865 0.165028
vt 0.197774 0.163011
vt 0.197774 0.170555
vt 0.198960 0.170505
vt 0.200437 0.165028
vt 0.197774 0.163011
vt 0.197774 0.170555
vt 0.175910 0.165028
vt 0.176288 0.170505
vt 0.176728 0.170555
vt 0.176728 0.163011
vt 0.204231 0.165028
vt 0.203853 0.170505
vt 0.203413 0.170555
vt 0.203413 0.163011
vt 0.175089 0.170505
vt 0.174664 0.163011
vt 0.174664 0.170555
vt 0.188426 0.183511
vt 0.188240 0.186646
vt 0.190071 0.187794
vt 0.190071 0.183757
vt 0.188444 0.177544
vt 0.190071 0.177716
vt 0.195071 0.186646
vt 0.196836 0.183511
vt 0.195521 0.183757
vt 0.193020 0.187794
vt 0.198420 0.177544
vt 0.197192 0.177716
vt 0.198498 0.183511
vt 0.195180 0.187794
vt 0.199511 0.183757
vt 0.201279 0.177544
vt 0.202405 0.177716
vt 0.196901 0.186646
vt 0.200751 0.183511
vt 0.200971 0.183757
vt 0.195970 0.187794
vt 0.203953 0.177544
vt 0.204313 0.177716
vt 0.200143 0.183511
vt 0.195180 0.187794
vt 0.199511 0.183757
vt 0.202906 0.177544
vt 0.202405 0.177716
vt 0.191901 0.186646
vt 0.193986 0.183511
vt 0.195521 0.183757
vt 0.193020 0.187794
vt 0.195603 0.177544
vt 0.197192 0.177716
vt 0.191716 0.183511
vt 0.190071 0.187794
vt 0.190071 0.183757
vt 0.191697 0.177544
vt 0.190071 0.177716
vt 0.185070 0.186646
vt 0.183306 0.183511
vt 0.184620 0.183757
vt 0.187121 0.187794
vt 0.181721 0.177544
vt 0.182949 0.177716
vt 0.181643 0.183511
vt 0.184961 0.187794
vt 0.180630 0.183757
vt 0.178862 0.177544
vt 0.177736 0.177716
vt 0.183240 0.186646
vt 0.179390 0.183511
vt 0.179170 0.183757
vt 0.184171 0.187794
vt 0.176188 0.177544
vt 0.175828 0.177716
vt 0.179998 0.183511
vt 0.184961 0.187794
vt 0.180630 0.183757
vt 0.177235 0.177544
vt 0.177736 0.177716
vt 0.186155 0.183511
vt 0.184620 0.183757
vt 0.187121 0.187794
vt 0.184538 0.177544
vt 0.182949 0.177716
vt 0.183978 0.170505
vt 0.182367 0.170555
vt 0.188455 0.170505
vt 0.190071 0.170555
vt 0.202238 0.170505
vt 0.203413 0.170555
vt 0.205053 0.170505
vt 0.205477 0.170555
vt 0.191686 0.170505
vt 0.190071 0.170555
vt 0.177903 0.170505
vt 0.176728 0.170555
vt 0.176728 0.163011
vt 0.190071 0.163011
vt 0.203413 0.163011
vt 0.205477 0.163011
vt 0.186276 0.165028
vt 0.182367 0.163011
vt 0.190071 0.163011
vt 0.186276 0.165028
vt 0.183978 0.170505
vt 0.200437 0.165028
vt 0.198960 0.170505
vt 0.193865 0.165028
vt 0.196163 0.170505
vt 0.177903 0.170505
vt 0.179704 0.165028
vt 0.202238 0.170505
vt 0.175910 0.165028
vt 0.175089 0.170505
vt 0.191901 0.186646
vt 0.191716 0.183511
vt 0.191697 0.177544
vt 0.193986 0.183511
vt 0.195603 0.177544
vt 0.196901 0.186646
vt 0.200143 0.183511
vt 0.202906 0.177544
vt 0.200751 0.183511
vt 0.203953 0.177544
vt 0.195071 0.186646
vt 0.198498 0.183511
vt 0.201279 0.177544
vt 0.196836 0.183511
vt 0.198420 0.177544
vt 0.188240 0.186646
vt 0.188426 0.183511
vt 0.188444 0.177544
vt 0.186155 0.183511
vt 0.184538 0.177544
vt 0.183240 0.186646
vt 0.179998 0.183511
vt 0.177235 0.177544
vt 0.179390 0.183511
vt 0.176188 0.177544
vt 0.185070 0.186646
vt 0.181643 0.183511
vt 0.178862 0.177544
vt 0.183306 0.183511
vt 0.181721 0.177544
vt 0.181181 0.170505
vt 0.191686 0.170505
vt 0.203853 0.170505
vt 0.205053 0.170505
vt 0.188455 0.170505
vt 0.176288 0.170505
vt 0.204231 0.165028
vt 0.146863 0.121011
vt 0.146863 0.115044
vt 0.146863 0.115044
vt 0.146863 0.121011
vt 0.146863 0.121011
vt 0.146863 0.124146
vt 0.146863 0.089225
vt 0.146863 0.115044
vt 0.146863 0.083513
vt 0.146863 0.115044
vt 0.146863 0.083513
vt 0.146863 0.115044
vt 0.146863 0.121011
vt 0.146863 0.115044
vt 0.146863 0.115044
vt 0.146863 0.121011
vt 0.146863 0.124146
vt 0.146863 0.089225
vt 0.146863 0.115044
vt 0.146863 0.083513
vt 0.146863 0.108005
vt 0.146863 0.076685
vt 0.146863 0.121011
vt 0.146863 0.115044
vt 0.146863 0.108005
vt 0.146863 0.121011
vt 0.146863 0.108005
vt 0.146863 0.115044
vt 0.146863 0.083513
vt 0.146863 0.108005
vt 0.146863 0.115044
vt 0.146863 0.121011
vt 0.146863 0.124146
vt 0.146863 0.089225
vt 0.146863 0.108005
vt 0.146863 0.115044
vt 0.146863 0.083513
vt 0.146863 0.121011
vt 0.146863 0.115044
vt 0.146863 0.108005
vt 0.146863 0.102528
vt 0.210554 0.094856
vt 0.210554 0.094856
vt 0.210554 0.092373
vt 0.210554 0.092373
vt 0.210554 0.076323
vt 0.210554 0.076323
vt 0.210554 0.076323
vt 0.210554 0.076323
vt 0.210554 0.078806
vt 0.210554 0.078806
vt 0.210554 0.083106
vt 0.210554 0.083106
vt 0.210554 0.088072
vt 0.210554 0.088072
vt 0.210554 0.078806
vt 0.210554 0.078806
vt 0.210554 0.088072
vt 0.210554 0.083106
vt 0.210554 0.083106
vt 0.210554 0.088072
vt 0.210554 0.133230
vt 0.210554 0.128929
vt 0.211335 0.131274
vt 0.211335 0.134088
vt 0.210554 0.126447
vt 0.210554 0.126447
vt 0.211335 0.129649
vt 0.211335 0.129649
vt 0.210554 0.128929
vt 0.210554 0.133230
vt 0.211335 0.134088
vt 0.211335 0.131274
vt 0.210554 0.138196
vt 0.211335 0.137338
vt 0.210554 0.142496
vt 0.210554 0.144979
vt 0.211335 0.141777
vt 0.211335 0.140152
vt 0.210554 0.142496
vt 0.210554 0.138196
vt 0.211335 0.137338
vt 0.211335 0.140152
vt 0.210554 0.144979
vt 0.211335 0.141777
vt 0.211335 0.095150
vt 0.211335 0.095150
vt 0.213365 0.095783
vt 0.213365 0.095783
vt 0.211335 0.096775
vt 0.211335 0.099589
vt 0.213365 0.099759
vt 0.213365 0.097238
vt 0.211335 0.102839
vt 0.213365 0.102669
vt 0.211335 0.105653
vt 0.211335 0.107278
vt 0.213365 0.106646
vt 0.213365 0.105190
vt 0.211335 0.105653
vt 0.211335 0.102839
vt 0.213365 0.102669
vt 0.213365 0.105190
vt 0.211335 0.107278
vt 0.213365 0.106646
vt 0.211335 0.096775
vt 0.213365 0.097238
vt 0.211335 0.099589
vt 0.213365 0.099759
vt 0.213365 0.135713
vt 0.213365 0.134258
vt 0.213365 0.137168
vt 0.213365 0.139689
vt 0.213365 0.141144
vt 0.213365 0.141144
vt 0.213365 0.139689
vt 0.213365 0.137168
vt 0.213365 0.134258
vt 0.213365 0.131737
vt 0.213365 0.130282
vt 0.213365 0.130282
vt 0.213365 0.131737
vt 0.187262 0.145127
vt 0.182397 0.141734
vt 0.184717 0.138931
vt 0.188111 0.141298
vt 0.179588 0.135857
vt 0.179588 0.129071
vt 0.182758 0.130097
vt 0.182758 0.134831
vt 0.192879 0.119802
vt 0.197744 0.123195
vt 0.195424 0.125998
vt 0.192030 0.123631
vt 0.187262 0.119802
vt 0.188111 0.123631
vt 0.200553 0.135857
vt 0.197744 0.141734
vt 0.195424 0.138931
vt 0.197383 0.134831
vt 0.200553 0.129071
vt 0.197383 0.130097
vt 0.182397 0.123195
vt 0.184717 0.125998
vt 0.192879 0.145127
vt 0.192030 0.141298
vt 0.178896 0.128847
vt 0.181890 0.122583
vt 0.181890 0.122583
vt 0.178896 0.128847
vt 0.187076 0.118966
vt 0.193065 0.118966
vt 0.193065 0.118966
vt 0.187076 0.118966
vt 0.201245 0.128847
vt 0.201245 0.136081
vt 0.201245 0.136081
vt 0.201245 0.128847
vt 0.198251 0.122583
vt 0.198251 0.122583
vt 0.198251 0.142346
vt 0.193065 0.145963
vt 0.193065 0.145963
vt 0.198251 0.142346
vt 0.181890 0.142346
vt 0.178896 0.136081
vt 0.178896 0.136081
vt 0.181890 0.142346
vt 0.187076 0.145963
vt 0.187076 0.145963
vt 0.197383 0.148971
vt 0.197383 0.153705
vt 0.196869 0.153538
vt 0.196869 0.149138
vt 0.192193 0.150651
vt 0.195915 0.130573
vt 0.195915 0.134356
vt 0.195424 0.144872
vt 0.195047 0.145326
vt 0.195424 0.157804
vt 0.195047 0.157350
vt 0.192030 0.160171
vt 0.188111 0.160171
vt 0.188249 0.159550
vt 0.191892 0.159550
vt 0.184717 0.157804
vt 0.185094 0.157350
vt 0.182758 0.153705
vt 0.182758 0.148971
vt 0.183272 0.149138
vt 0.183272 0.153538
vt 0.184717 0.144872
vt 0.185094 0.145326
vt 0.188111 0.142505
vt 0.192030 0.142505
vt 0.191892 0.143126
vt 0.188249 0.143126
vt 0.201245 0.204342
vt 0.201245 0.211576
vt 0.200553 0.211352
vt 0.200553 0.204567
vt 0.198251 0.217841
vt 0.197744 0.217229
vt 0.193065 0.221458
vt 0.187076 0.221458
vt 0.187262 0.220622
vt 0.192879 0.220622
vt 0.181890 0.217841
vt 0.182397 0.217229
vt 0.178896 0.211576
vt 0.178896 0.204342
vt 0.179588 0.204567
vt 0.179588 0.211352
vt 0.181890 0.198078
vt 0.182397 0.198690
vt 0.187076 0.194461
vt 0.193065 0.194461
vt 0.192879 0.195297
vt 0.187262 0.195297
vt 0.198251 0.198078
vt 0.197744 0.198690
vt 0.196869 0.205759
vt 0.196869 0.210160
vt 0.195915 0.209851
vt 0.195915 0.206068
vt 0.195047 0.213971
vt 0.194349 0.213127
vt 0.191892 0.216171
vt 0.188249 0.216171
vt 0.188505 0.215019
vt 0.191636 0.215019
vt 0.185094 0.213971
vt 0.185793 0.213127
vt 0.183272 0.210160
vt 0.183272 0.205759
vt 0.184227 0.206068
vt 0.184227 0.209851
vt 0.185094 0.201948
vt 0.185793 0.202792
vt 0.188249 0.199747
vt 0.191892 0.199747
vt 0.191636 0.200900
vt 0.188505 0.200900
vt 0.195047 0.201948
vt 0.194349 0.202792
vt 0.314502 0.844858
vt 0.317193 0.847993
vt 0.317193 0.847993
vt 0.314502 0.844858
vt 0.315639 0.957818
vt 0.312948 0.954683
vt 0.312948 0.954683
vt 0.315639 0.957818
vt 0.317193 0.926289
vt 0.315639 0.931719
vt 0.315639 0.931719
vt 0.317193 0.926289
vt 0.314502 0.897055
vt 0.317193 0.900190
vt 0.315639 0.905621
vt 0.312948 0.902486
vt 0.312948 0.876387
vt 0.314502 0.870957
vt 0.314502 0.870957
vt 0.312948 0.876387
vt 0.194349 0.137632
vt 0.190639 0.153902
vt 0.191636 0.139523
vt 0.188505 0.139523
vt 0.185793 0.137632
vt 0.187948 0.152025
vt 0.184227 0.134356
vt 0.184227 0.130573
vt 0.185793 0.127297
vt 0.189502 0.148774
vt 0.188505 0.125405
vt 0.191636 0.125405
vt 0.194349 0.127297
vt 0.213365 0.135713
vt 0.213365 0.139689
vt 0.213365 0.141144
vt 0.211335 0.105653
vt 0.213365 0.105190
vt 0.213365 0.102669
vt 0.211335 0.102839
vt 0.213365 0.139689
vt 0.213365 0.137168
vt 0.211335 0.096775
vt 0.213365 0.097238
vt 0.213365 0.099759
vt 0.211335 0.099589
vt 0.211335 0.095150
vt 0.213365 0.095783
vt 0.211335 0.096775
vt 0.213365 0.097238
vt 0.213365 0.095783
vt 0.211335 0.095150
vt 0.211335 0.105653
vt 0.213365 0.105190
vt 0.213365 0.106646
vt 0.211335 0.107278
vt 0.213365 0.137168
vt 0.213365 0.131737
vt 0.213365 0.130282
vt 0.213365 0.131737
vt 0.213365 0.134258
vt 0.213365 0.134258
vt 0.211335 0.099589
vt 0.213365 0.099759
vt 0.210554 0.142496
vt 0.211335 0.140152
vt 0.211335 0.137338
vt 0.210554 0.138196
vt 0.210554 0.133230
vt 0.211335 0.134088
vt 0.211335 0.131274
vt 0.210554 0.128929
vt 0.210554 0.142496
vt 0.211335 0.140152
vt 0.211335 0.141777
vt 0.210554 0.144979
vt 0.210554 0.133230
vt 0.211335 0.134088
vt 0.211335 0.137338
vt 0.210554 0.138196
vt 0.210554 0.126447
vt 0.211335 0.129649
vt 0.211335 0.129649
vt 0.210554 0.126447
vt 0.211335 0.131274
vt 0.210554 0.128929
vt 0.210554 0.144979
vt 0.211335 0.141777
vt 0.210554 0.092373
vt 0.210554 0.092373
vt 0.210554 0.094856
vt 0.210554 0.094856
vt 0.213365 0.106646
vt 0.211335 0.107278
vt 0.213365 0.130282
vt 0.213365 0.141144
vt 0.211335 0.102839
vt 0.213365 0.102669
vn 0.5000 0.0000 -0.8660
vn 0.8660 0.0000 -0.5000
vn 0.0000 1.0000 0.0000
vn 0.7515 0.6282 -0.2014
vn 0.0000 0.0000 -1.0000
vn -0.5000 0.0000 -0.8660
vn 1.0000 0.0000 -0.0000
vn 0.8660 0.0000 0.5000
vn 0.5000 0.0000 0.8660
vn -0.0000 0.0000 1.0000
vn -0.5000 0.0000 0.8660
vn -0.8660 0.0000 0.5000
vn -1.0000 0.0000 -0.0000
vn -0.8660 0.0000 -0.5000
vn 0.7417 0.5162 0.4282
vn 0.8564 0.5162 -0.0000
vn 0.2014 0.6282 -0.7515
vn -0.9860 0.0000 0.1668
vn -0.9564 0.0000 -0.2922
vn 0.9373 -0.0000 0.3485
vn 0.6822 0.0000 0.7312
vn -0.9373 0.0000 0.3485
vn -0.6822 0.0000 0.7312
vn 0.9860 -0.0000 0.1668
vn 0.9564 0.0000 -0.2922
vn -0.2014 -0.6282 -0.7515
vn -0.7515 -0.6282 -0.2014
vn -0.7515 0.6282 0.2014
vn -0.5502 -0.6282 0.5502
vn 0.7515 0.6282 0.2014
vn -0.1668 0.0000 -0.9860
vn 0.2922 0.0000 -0.9564
vn 0.3245 0.7607 -0.5621
vn 0.0000 0.7607 -0.6491
vn 0.5621 0.7607 -0.3245
vn 0.6491 0.7607 -0.0000
vn 0.5621 0.7607 0.3245
vn 0.3245 0.7607 0.5621
vn -0.0000 0.7607 0.6491
vn -0.3245 0.7607 0.5621
vn -0.5621 0.7607 0.3245
vn -0.6491 0.7607 -0.0000
vn -0.5621 0.7607 -0.3245
vn -0.3245 0.7607 -0.5621
vn -0.4282 0.5162 -0.7417
vn -0.7417 0.5162 -0.4282
vn 0.4282 0.5162 -0.7417
vn -0.0000 0.5162 -0.8564
vn -0.7417 0.5162 0.4282
vn -0.4282 0.5162 0.7417
vn 0.4282 0.5162 0.7417
vn 0.7417 0.5162 -0.4282
vn -0.8564 0.5162 -0.0000
vn 0.0000 0.5162 0.8564
vn -0.4282 -0.5162 0.7417
vn -0.0000 -0.5162 0.8564
vn -0.7417 -0.5162 -0.4282
vn -0.8564 -0.5162 -0.0000
vn 0.8564 -0.5162 -0.0000
vn 0.7417 -0.5162 -0.4282
vn 0.4282 -0.5162 0.7417
vn -0.7417 -0.5162 0.4282
vn 0.4282 -0.5162 -0.7417
vn 0.0000 -0.5162 -0.8564
vn -0.4282 -0.5162 -0.7417
vn 0.7417 -0.5162 0.4282
vn -0.8565 0.3400 0.3884
vn -0.7852 0.5853 0.2023
vn -0.5288 0.6638 0.5288
vn -0.6542 0.3796 0.6542
vn 0.6375 0.0000 0.7705
vn 0.7705 0.0000 0.6375
vn -0.3485 0.0000 -0.9373
vn 0.7705 0.0000 -0.6375
vn 0.6375 0.0000 -0.7705
vn 0.1668 0.0000 0.9860
vn 0.3485 0.0000 0.9373
vn 0.9860 -0.0000 -0.1668
vn 0.9373 0.0000 -0.3485
vn -0.9373 -0.0000 -0.3485
vn -0.9860 -0.0000 -0.1668
vn -0.3485 -0.0000 0.9373
vn -0.1668 -0.0000 0.9860
vn -0.6375 0.0000 -0.7705
vn -0.7705 -0.0000 -0.6375
vn 0.3485 0.0000 -0.9373
vn 0.1668 0.0000 -0.9860
vn -0.7705 0.0000 0.6375
vn -0.6375 0.0000 0.7705
vn 0.7515 -0.6282 0.2014
vn 0.5502 0.6282 0.5502
vn -0.7515 -0.6282 0.2014
vn -0.2922 0.0000 -0.9564
vn 0.6822 0.0000 -0.7312
vn 0.9743 0.0000 0.2252
vn 0.7312 0.0000 -0.6822
vn 0.9564 -0.0000 0.2922
vn 0.2252 0.0000 0.9743
vn -0.2014 0.6282 0.7515
vn 0.2014 -0.6282 -0.7515
vn 0.5502 0.6282 -0.5502
vn 0.7515 -0.6282 -0.2014
vn 0.5502 -0.6282 0.5502
vn 0.2922 0.0000 0.9564
vn 0.2252 0.0000 -0.9743
vn -0.7312 -0.0000 0.6822
vn 0.9743 0.0000 -0.2252
vn -0.5502 0.6282 -0.5502
vn 0.2014 0.6282 0.7515
vn -0.2014 -0.6282 0.7515
vn 0.5502 -0.6282 -0.5502
vn -0.9743 0.0000 -0.2252
vn 0.7312 0.0000 0.6822
vn -0.2252 0.0000 -0.9743
vn -0.2922 -0.0000 0.9564
vn -0.5502 0.6282 0.5502
vn -0.7515 0.6282 -0.2014
vn -0.5502 -0.6282 -0.5502
vn -0.2014 0.6282 -0.7515
vn 0.2014 -0.6282 0.7515
vn -0.2252 0.0000 0.9743
vn -0.9564 0.0000 0.2922
vn -0.7312 -0.0000 -0.6822
vn -0.9743 0.0000 0.2252
vn -0.6822 0.0000 -0.7312
vn 0.0000 -1.0000 0.0000
vn -0.4310 0.6754 0.5984
vn -0.5678 0.5853 0.5789
vn -0.7224 0.6638 0.1936
vn 0.2174 0.5853 -0.7811
vn 0.3027 0.6754 -0.6724
vn -0.1936 0.6638 -0.7224
vn 0.9359 0.3400 0.0918
vn 0.7811 0.5853 0.2174
vn 0.7224 0.6638 -0.1936
vn 0.8936 0.3796 -0.2394
vn -0.7337 0.6754 0.0740
vn 0.6724 0.6754 0.3027
vn 0.5789 0.5853 0.5678
vn 0.5475 0.3400 0.7646
vn 0.2394 0.3796 0.8936
vn 0.1936 0.6638 0.7224
vn -0.2174 0.5853 -0.7811
vn -0.0918 0.3400 -0.9359
vn 0.2394 0.3796 -0.8936
vn 0.1936 0.6638 -0.7224
vn -0.0918 0.3400 0.9359
vn -0.2174 0.5853 0.7811
vn 0.5475 0.3400 -0.7646
vn 0.5789 0.5853 -0.5678
vn -0.3027 0.6754 0.6724
vn 0.5984 0.6754 -0.4310
vn -0.8409 0.1517 0.5195
vn -0.9602 0.1090 0.2573
vn -0.9548 0.1513 0.2558
vn 0.7811 0.5853 -0.2174
vn 0.9359 0.3400 -0.0918
vn 0.8936 0.3796 0.2394
vn 0.7224 0.6638 0.1936
vn 0.7029 0.1090 0.7029
vn 0.4685 0.1517 0.8703
vn 0.6990 0.1513 0.6990
vn 0.7646 0.3400 0.5475
vn 0.5678 0.5853 0.5789
vn -0.7029 0.1090 -0.7029
vn -0.4685 0.1517 -0.8703
vn -0.6990 0.1513 -0.6990
vn 0.4310 0.6754 0.5984
vn -0.0294 0.1517 -0.9880
vn 0.2573 0.1090 -0.9602
vn 0.2558 0.1513 -0.9548
vn 0.8703 0.1517 0.4685
vn 0.2023 0.5853 -0.7852
vn 0.3884 0.3400 -0.8565
vn 0.6542 0.3796 -0.6542
vn 0.5288 0.6638 -0.5288
vn 0.0294 0.1517 0.9880
vn -0.2573 0.1090 0.9602
vn -0.2558 0.1513 0.9548
vn 0.8565 0.3400 -0.3884
vn 0.7852 0.5853 -0.2023
vn 0.7337 0.6754 -0.0740
vn -0.5789 0.5853 -0.5678
vn -0.5475 0.3400 -0.7646
vn -0.2394 0.3796 -0.8936
vn -0.6724 0.6754 0.3027
vn -0.7811 0.5853 0.2174
vn -0.7224 0.6638 -0.1936
vn -0.5984 0.6754 -0.4310
vn -0.9602 0.1090 -0.2573
vn -0.8409 0.1517 -0.5195
vn -0.9548 0.1513 -0.2558
vn 0.5194 0.1517 -0.8409
vn 0.9880 0.1517 -0.0294
vn 0.9602 0.1090 0.2573
vn 0.9548 0.1513 0.2558
vn -0.8703 0.1517 -0.4685
vn -0.9880 0.1517 0.0294
vn 0.8409 0.1517 -0.5194
vn 0.9602 0.1090 -0.2573
vn 0.9548 0.1513 -0.2558
vn 0.7029 0.1090 -0.7029
vn 0.8703 0.1517 -0.4685
vn 0.6990 0.1513 -0.6990
vn 0.9880 0.1517 0.0294
vn 0.2573 0.1090 0.9602
vn -0.0294 0.1517 0.9880
vn 0.2558 0.1513 0.9548
vn -0.5195 0.1517 0.8409
vn -0.0740 0.6754 0.7337
vn -0.2023 0.5853 0.7852
vn -0.7029 0.1090 0.7029
vn -0.8703 0.1517 0.4685
vn -0.6990 0.1513 0.6990
vn -0.9880 0.1517 -0.0294
vn -0.3511 -0.7119 -0.6082
vn -0.6082 -0.7119 -0.3511
vn -0.7022 -0.7119 0.0000
vn -0.6082 -0.7119 0.3511
vn -0.3511 -0.7119 0.6082
vn 0.0000 -0.7119 0.7022
vn 0.3511 -0.7119 0.6082
vn 0.6082 -0.7119 0.3511
vn 0.7022 -0.7119 -0.0000
vn 0.6082 -0.7119 -0.3511
vn 0.3511 -0.7119 -0.6082
vn 0.0000 -0.7119 -0.7022
vn 0.7022 0.7119 0.0000
vn 0.6082 0.7119 0.3511
vn -0.6082 0.7119 0.3511
vn -0.7022 0.7119 -0.0000
vn -0.6082 0.7119 -0.3511
vn -0.0000 0.7119 -0.7022
vn 0.3511 0.7119 -0.6082
vn 0.3511 0.7119 0.6082
vn -0.3511 0.7119 -0.6082
vn 0.6082 0.7119 -0.3511
vn 0.0000 0.7119 0.7022
vn -0.3511 0.7119 0.6082
vn -0.0289 0.9996 0.0000
vn -0.0203 0.9997 0.0134
vn -0.0215 0.9998 -0.0000
vn 0.0289 0.9996 0.0000
vn 0.0203 0.9997 -0.0134
vn 0.0215 0.9998 0.0000
vn -0.0134 0.9997 0.0203
vn -0.0000 0.9998 0.0215
vn 0.0134 0.9997 -0.0203
vn 0.0000 0.9998 -0.0215
vn -0.0134 0.9997 -0.0203
vn -0.0203 0.9997 -0.0134
vn 0.0134 0.9997 0.0203
vn 0.0203 0.9997 0.0134
vn 0.0000 0.9996 0.0289
vn -0.0000 0.9996 -0.0289
vn 0.7071 0.0000 0.7071
vn -0.7071 0.0000 0.7071
vn -0.7071 0.0000 -0.7071
vn 0.7071 0.0000 -0.7071
vn -0.7172 0.0816 0.6921
vn -0.7058 0.0618 0.7058
vn -0.4999 0.0241 0.8658
vn -0.4975 0.1002 0.8617
vn 0.2408 0.0816 0.9671
vn 0.2583 0.0618 0.9641
vn 0.4999 0.0241 0.8658
vn 0.4975 0.1002 0.8617
vn 0.7172 0.0816 -0.6921
vn 0.7058 0.0618 -0.7058
vn 0.4999 0.0241 -0.8658
vn 0.4975 0.1002 -0.8617
vn -0.9641 0.0618 -0.2583
vn -0.9671 0.0816 -0.2408
vn -0.8617 0.1002 -0.4975
vn -0.8658 0.0241 -0.4999
vn 0.9641 0.0618 0.2583
vn 0.9671 0.0816 0.2408
vn 0.8617 0.1002 0.4975
vn 0.8658 0.0241 0.4999
vn -0.9580 0.0816 -0.2751
vn -0.9997 0.0241 -0.0000
vn -0.9950 0.1002 -0.0000
vn -0.1724 0.7356 -0.6551
vn -0.1360 0.8508 -0.5076
vn 0.0000 0.8600 -0.5103
vn -0.0000 0.7407 -0.6718
vn -0.2216 0.4077 -0.8858
vn 0.0000 0.4126 -0.9109
vn 0.3716 0.8508 -0.3716
vn 0.4769 0.7356 -0.4811
vn 0.3359 0.7407 -0.5818
vn 0.2552 0.8600 -0.4420
vn 0.6348 0.4077 -0.6564
vn 0.4555 0.4126 -0.7889
vn 0.4811 0.7356 -0.4769
vn 0.4420 0.8600 -0.2552
vn 0.5818 0.7407 -0.3359
vn 0.6564 0.4077 -0.6348
vn 0.7889 0.4126 -0.4555
vn 0.5076 0.8508 0.1360
vn 0.6551 0.7356 0.1724
vn 0.6718 0.7407 -0.0000
vn 0.5103 0.8600 -0.0000
vn 0.8858 0.4077 0.2216
vn 0.9109 0.4126 -0.0000
vn 0.6535 0.7356 0.1782
vn 0.4420 0.8600 0.2552
vn 0.5818 0.7407 0.3359
vn 0.8780 0.4077 0.2510
vn 0.7889 0.4126 0.4555
vn 0.1360 0.8508 0.5076
vn 0.1782 0.7356 0.6535
vn 0.3359 0.7407 0.5818
vn 0.2552 0.8600 0.4420
vn 0.2510 0.4077 0.8780
vn 0.4555 0.4126 0.7889
vn 0.1724 0.7356 0.6551
vn 0.0000 0.8600 0.5103
vn 0.0000 0.7407 0.6718
vn 0.2216 0.4077 0.8858
vn 0.0000 0.4126 0.9109
vn -0.3716 0.8508 0.3716
vn -0.4769 0.7356 0.4811
vn -0.3359 0.7407 0.5818
vn -0.2552 0.8600 0.4420
vn -0.6348 0.4077 0.6564
vn -0.4555 0.4126 0.7889
vn -0.4811 0.7356 0.4769
vn -0.4420 0.8600 0.2552
vn -0.5818 0.7407 0.3359
vn -0.6564 0.4077 0.6348
vn -0.7889 0.4126 0.4555
vn -0.5076 0.8508 -0.1360
vn -0.6551 0.7356 -0.1724
vn -0.6718 0.7407 0.0000
vn -0.5103 0.8600 -0.0000
vn -0.8858 0.4077 -0.2216
vn -0.9109 0.4126 0.0000
vn -0.6535 0.7356 -0.1782
vn -0.4420 0.8600 -0.2552
vn -0.5818 0.7407 -0.3359
vn -0.8780 0.4077 -0.2510
vn -0.7889 0.4126 -0.4555
vn -0.1782 0.7356 -0.6535
vn -0.3359 0.7407 -0.5818
vn -0.2552 0.8600 -0.4420
vn -0.2510 0.4077 -0.8780
vn -0.4555 0.4126 -0.7889
vn -0.2408 0.0816 -0.9671
vn -0.4975 0.1002 -0.8617
vn -0.2751 0.0816 -0.9580
vn 0.0000 0.1002 -0.9950
vn 0.6921 0.0816 -0.7172
vn 0.8617 0.1002 -0.4975
vn 0.9580 0.0816 0.2751
vn 0.9950 0.1002 -0.0000
vn 0.2751 0.0816 0.9580
vn 0.0000 0.1002 0.9950
vn -0.6921 0.0816 0.7172
vn -0.8617 0.1002 0.4975
vn -0.8658 0.0241 0.4999
vn 0.0000 0.0241 0.9997
vn 0.8658 0.0241 -0.4999
vn 0.9997 0.0241 0.0000
vn -0.2583 0.0618 -0.9641
vn -0.4999 0.0241 -0.8658
vn 0.0000 0.0241 -0.9997
vn -0.2583 0.0618 0.9641
vn -0.2408 0.0816 0.9671
vn 0.7058 0.0618 0.7058
vn 0.7172 0.0816 0.6921
vn 0.2583 0.0618 -0.9641
vn 0.2408 0.0816 -0.9671
vn -0.6921 0.0816 -0.7172
vn -0.7058 0.0618 -0.7058
vn 0.6921 0.0816 0.7172
vn -0.9641 0.0618 0.2583
vn -0.9580 0.0816 0.2751
vn 0.1360 0.8508 -0.5076
vn 0.1724 0.7356 -0.6551
vn 0.2216 0.4077 -0.8858
vn 0.1782 0.7356 -0.6535
vn 0.2510 0.4077 -0.8780
vn 0.5076 0.8508 -0.1360
vn 0.6535 0.7356 -0.1782
vn 0.8780 0.4077 -0.2510
vn 0.6551 0.7356 -0.1724
vn 0.8858 0.4077 -0.2216
vn 0.3716 0.8508 0.3716
vn 0.4811 0.7356 0.4769
vn 0.6564 0.4077 0.6348
vn 0.4769 0.7356 0.4811
vn 0.6348 0.4077 0.6564
vn -0.1360 0.8508 0.5076
vn -0.1724 0.7356 0.6551
vn -0.2216 0.4077 0.8858
vn -0.1782 0.7356 0.6535
vn -0.2510 0.4077 0.8780
vn -0.5076 0.8508 0.1360
vn -0.6535 0.7356 0.1782
vn -0.8780 0.4077 0.2510
vn -0.6551 0.7356 0.1724
vn -0.8858 0.4077 0.2216
vn -0.3716 0.8508 -0.3716
vn -0.4811 0.7356 -0.4769
vn -0.6564 0.4077 -0.6348
vn -0.4769 0.7356 -0.4811
vn -0.6348 0.4077 -0.6564
vn -0.7172 0.0816 -0.6921
vn 0.2751 0.0816 -0.9580
vn 0.9671 0.0816 -0.2408
vn 0.9580 0.0816 -0.2751
vn -0.2751 0.0816 0.9580
vn -0.9671 0.0816 0.2408
vn 0.9641 0.0618 -0.2583
vn 0.5678 0.5853 -0.5789
vn 0.7646 0.3400 -0.5475
vn -0.3884 0.3400 0.8565
vn -0.5678 0.5853 -0.5789
vn -0.4310 0.6754 -0.5984
vn 0.2023 0.5853 0.7852
vn 0.0740 0.6754 0.7337
vn 0.5288 0.6638 0.5288
vn -0.7646 0.3400 -0.5475
vn -0.8936 0.3796 -0.2394
vn 0.3884 0.3400 0.8565
vn 0.6542 0.3796 0.6542
vn -0.9359 0.3400 0.0918
vn 0.7852 0.5853 0.2023
vn 0.8565 0.3400 0.3884
vn 0.4310 0.6754 -0.5984
vn 0.0918 0.3400 -0.9359
vn -0.5789 0.5853 0.5678
vn -0.5984 0.6754 0.4310
vn -0.1936 0.6638 0.7224
vn 0.5984 0.6754 0.4310
vn -0.5475 0.3400 0.7646
vn -0.2394 0.3796 0.8936
vn 0.0294 0.1517 -0.9880
vn -0.2558 0.1513 -0.9548
vn 0.2174 0.5853 0.7811
vn 0.0918 0.3400 0.9359
vn -0.5194 0.1517 -0.8409
vn -0.7811 0.5853 -0.2174
vn -0.6724 0.6754 -0.3027
vn 0.4685 0.1517 -0.8703
vn -0.9359 0.3400 -0.0918
vn -0.8936 0.3796 0.2394
vn 0.3027 0.6754 0.6724
vn 0.8409 0.1517 0.5194
vn -0.7646 0.3400 0.5475
vn 0.0740 0.6754 -0.7337
vn -0.2023 0.5853 -0.7852
vn -0.0740 0.6754 -0.7337
vn -0.5288 0.6638 -0.5288
vn 0.5195 0.1517 0.8409
vn -0.3884 0.3400 -0.8565
vn -0.6542 0.3796 -0.6542
vn -0.7852 0.5853 -0.2023
vn -0.8565 0.3400 -0.3884
vn -0.4685 0.1517 0.8703
vn 0.6724 0.6754 -0.3027
vn 0.7337 0.6754 0.0740
vn -0.2573 0.1090 -0.9602
vn -0.3027 0.6754 -0.6724
vn -0.7337 0.6754 -0.0740
vn 0.0000 0.9659 -0.2588
vn 0.0000 0.7071 -0.7071
vn 0.0000 -0.9659 0.2588
vn 0.0000 -0.9659 -0.2588
vn 0.0000 -0.7071 0.7071
vn 0.0000 -0.2588 -0.9659
vn 0.0000 0.2588 -0.9659
vn 0.0000 -0.7071 -0.7071
vn 0.0000 0.2588 0.9659
vn 0.0000 -0.2588 0.9659
vn 0.9751 -0.0574 0.2142
vn 0.9751 -0.1568 0.1568
vn 0.9751 -0.2142 0.0574
vn 0.9751 -0.2142 -0.0574
vn 0.9751 -0.1568 -0.1568
vn 0.9751 -0.0574 -0.2142
vn 0.9751 0.0574 -0.2142
vn 0.9751 0.1568 -0.1568
vn 0.9751 0.2142 -0.0574
vn 0.9751 0.1568 0.1568
vn 0.9751 0.0574 0.2142
vn 0.9751 0.2142 0.0574
vn 0.3170 -0.9161 0.2455
vn 0.3170 -0.9161 -0.2455
vn 0.3170 -0.6706 -0.6706
vn 0.3170 -0.2455 -0.9161
vn 0.3170 0.2455 -0.9161
vn 0.3170 0.6706 -0.6706
vn 0.3170 0.9161 -0.2455
vn 0.3170 0.6707 -0.6706
vn 0.3170 0.6706 0.6707
vn 0.3170 0.2455 0.9161
vn 0.3169 0.9161 0.2455
vn 0.3170 -0.6707 0.6706
vn 0.3170 -0.2455 0.9161
vn -0.0496 0.1852 0.9814
vn -0.1356 0.1356 0.9814
vn -0.1852 0.0496 0.9814
vn -0.1852 -0.0496 0.9814
vn 0.0496 -0.1852 0.9814
vn 0.1356 -0.1356 0.9814
vn -0.0496 -0.1852 0.9814
vn 0.1852 0.0496 0.9814
vn 0.1356 0.1356 0.9814
vn 0.1852 -0.0496 0.9814
vn -0.1356 -0.1356 0.9814
vn 0.0496 0.1852 0.9814
vn -0.9659 -0.2588 0.0000
vn -0.7071 -0.7071 0.0000
vn -0.2588 -0.9659 0.0000
vn 0.2588 -0.9659 0.0000
vn 0.9659 -0.2588 0.0000
vn 0.9659 0.2588 0.0000
vn 0.7071 -0.7071 0.0000
vn 0.7071 0.7071 -0.0000
vn 0.2588 0.9659 -0.0000
vn -0.7071 0.7071 0.0000
vn -0.9659 0.2588 0.0000
vn -0.2588 0.9659 0.0000
vn 0.9002 -0.2412 0.3625
vn 0.9002 0.2412 0.3625
vn 0.6590 -0.6590 0.3626
vn 0.6590 0.6590 0.3626
vn 0.2412 0.9002 0.3626
vn -0.2412 0.9002 0.3626
vn -0.6590 0.6590 0.3626
vn -0.9002 0.2412 0.3625
vn -0.9002 -0.2412 0.3625
vn -0.6590 -0.6590 0.3625
vn -0.2412 -0.9002 0.3625
vn 0.2412 -0.9002 0.3626
vn 0.7371 -0.1975 0.6462
vn 0.7371 0.1975 0.6462
vn 0.5396 0.5396 0.6462
vn 0.1975 0.7371 0.6462
vn -0.1975 0.7371 0.6462
vn -0.5396 0.5396 0.6462
vn -0.7371 0.1975 0.6462
vn -0.7371 -0.1975 0.6462
vn -0.5396 -0.5396 0.6462
vn -0.1975 -0.7371 0.6462
vn 0.1975 -0.7371 0.6462
vn 0.5396 -0.5396 0.6462
vn 0.6040 -0.1618 0.7804
vn 0.6040 0.1618 0.7804
vn 0.4422 0.4422 0.7804
vn 0.1618 0.6040 0.7804
vn -0.1618 0.6040 0.7804
vn -0.4422 0.4422 0.7804
vn -0.6040 0.1618 0.7804
vn -0.6040 -0.1618 0.7804
vn -0.4422 -0.4422 0.7804
vn -0.1618 -0.6040 0.7804
vn 0.1618 -0.6040 0.7804
vn 0.4422 -0.4422 0.7804
vn 0.5000 -0.8660 -0.0000
vn -0.5000 0.8660 0.0000
vn 0.8660 0.5000 0.0000
vn -0.8660 -0.5000 0.0000
vn -0.3170 0.6706 0.6707
vn -0.3170 0.2455 0.9161
vn -0.3170 -0.6706 -0.6706
vn -0.3170 -0.2455 -0.9161
vn -0.3170 -0.9161 -0.2455
vn -0.3170 -0.6707 0.6706
vn -0.3170 -0.9161 0.2455
vn -0.3170 0.6707 -0.6706
vn -0.3170 0.9161 -0.2455
vn -0.3170 -0.2455 0.9161
vn -0.9751 0.1568 0.1568
vn -0.9751 0.0574 0.2142
vn -0.9751 -0.0574 0.2142
vn -0.9751 -0.1568 0.1568
vn -0.9751 0.1568 -0.1568
vn -0.9751 0.2142 -0.0574
vn -0.9751 -0.0574 -0.2142
vn -0.9751 0.0574 -0.2142
vn -0.9751 -0.2142 0.0574
vn -0.9751 -0.2142 -0.0574
vn -0.9751 -0.1568 -0.1568
vn -0.9751 0.2142 0.0574
vn 0.0000 0.7071 0.7071
vn 0.0000 0.9659 0.2588
vn -0.3170 0.9161 0.2455
vn -0.3170 0.2455 -0.9161
usemtl KayKit_Texture_A
s 1
f 3/1/1 50/2/1 54/3/2 5/4/2
f 4/5/3 6/6/3 53/7/3 49/8/3
f 6/6/3 8/9/3 55/10/3 53/7/3
f 8/9/3 10/11/3 57/12/3 55/10/3
f 10/11/3 12/13/3 59/14/3 57/12/3
f 12/13/3 14/15/3 61/16/3 59/14/3
f 14/15/3 16/17/3 63/18/3 61/16/3
f 16/17/3 18/19/3 65/20/3 63/18/3
f 18/19/3 20/21/3 67/22/3 65/20/3
f 20/21/3 22/23/3 69/24/3 67/22/3
f 129/25/4 130/26/4 167/27/4
f 22/23/3 24/28/3 71/29/3 69/24/3
f 24/28/3 2/30/3 52/31/3 71/29/3
f 1/32/5 51/33/5 50/2/1 3/1/1
f 23/34/6 72/35/6 51/33/5 1/32/5
f 7/36/7 56/37/7 58/38/8 9/39/8
f 9/39/8 58/38/8 60/40/9 11/41/9
f 11/41/9 60/40/9 62/42/10 13/43/10
f 13/43/10 62/42/10 64/44/11 15/45/11
f 15/45/11 64/44/11 66/46/12 17/47/12
f 17/47/12 66/46/12 68/48/13 19/49/13
f 19/49/13 68/48/13 70/50/14 21/51/14
f 21/51/14 70/50/14 72/35/6 23/34/6
f 27/52/3 28/53/3 88/54/3 87/55/3
f 5/4/2 54/3/2 56/37/7 7/36/7
f 79/56/15 80/57/16 33/58/16 32/59/15
f 149/60/17 150/61/17 177/62/17
f 122/63/18 123/64/18 164/65/19 163/66/19
f 142/67/20 143/68/20 174/69/21 173/70/21
f 124/71/22 121/72/22 163/66/23 164/65/23
f 144/73/24 141/74/24 173/70/25 174/69/25
f 115/75/26 116/76/26 160/77/26
f 135/78/27 136/79/27 170/80/27
f 121/72/28 122/63/28 163/66/28
f 155/81/29 156/82/29 180/83/29
f 141/74/30 142/67/30 173/70/30
f 114/84/31 115/75/31 160/77/32 159/85/32
f 50/86/33 51/87/34 52/88/34 49/89/33
f 54/90/35 50/86/33 49/89/33 53/91/35
f 56/92/36 54/90/35 53/91/35 55/93/36
f 58/94/37 56/92/36 55/93/36 57/95/37
f 60/96/38 58/94/37 57/95/37 59/97/38
f 62/98/39 60/96/38 59/97/38 61/99/39
f 64/100/40 62/98/39 61/99/39 63/101/40
f 66/102/41 64/100/40 63/101/40 65/103/41
f 68/104/42 66/102/41 65/103/41 67/105/42
f 70/106/43 68/104/42 67/105/42 69/107/43
f 72/108/44 70/106/43 69/107/43 71/109/44
f 51/87/34 72/108/44 71/109/44 52/88/34
f 2/30/3 4/5/3 49/8/3 52/31/3
f 78/110/45 84/111/46 26/112/46 25/113/45
f 83/114/47 77/115/48 35/116/48 36/117/47
f 75/118/49 76/119/50 29/120/50 28/121/49
f 82/122/51 79/56/15 32/59/15 31/123/51
f 77/115/48 78/110/45 25/113/45 35/116/48
f 74/124/52 83/114/47 36/117/47 34/125/52
f 73/126/53 75/118/49 28/121/49 27/127/53
f 81/128/54 82/122/51 31/123/51 30/129/54
f 80/57/16 74/124/52 34/125/52 33/58/16
f 84/111/46 73/126/53 27/127/53 26/112/46
f 76/119/50 81/128/54 30/129/54 29/120/50
f 44/130/55 43/131/56 81/132/56 76/133/55
f 47/134/57 46/135/58 73/136/58 84/137/57
f 40/138/59 39/139/60 74/140/60 80/141/59
f 43/131/56 42/142/61 82/143/61 81/132/56
f 46/135/58 45/144/62 75/145/62 73/136/58
f 39/139/60 38/146/63 83/147/63 74/140/60
f 37/148/64 48/149/65 78/150/65 77/151/64
f 42/142/61 41/152/66 79/153/66 82/143/61
f 45/144/62 44/130/55 76/133/55 75/145/62
f 38/146/63 37/148/64 77/151/64 83/147/63
f 48/149/65 47/134/57 84/137/57 78/150/65
f 41/152/66 40/138/59 80/141/59 79/153/66
f 88/154/12 89/155/11 101/156/11 100/157/12
f 29/158/3 30/159/3 90/160/3 89/161/3
f 26/162/3 27/52/3 87/55/3 86/163/3
f 34/164/3 36/165/3 95/166/3 94/167/3
f 30/159/3 31/168/3 91/169/3 90/160/3
f 31/168/3 32/170/3 92/171/3 91/169/3
f 28/53/3 29/158/3 89/161/3 88/54/3
f 33/172/3 34/164/3 94/167/3 93/173/3
f 25/174/3 26/162/3 86/163/3 85/175/3
f 35/176/3 25/174/3 85/175/3 96/177/3
f 36/165/3 35/176/3 96/177/3 95/166/3
f 32/170/3 33/172/3 93/173/3 92/171/3
f 214/178/67 213/179/68 418/180/69 419/181/70
f 90/182/10 91/183/9 103/184/9 102/185/10
f 94/186/2 95/187/1 107/188/1 106/189/2
f 89/155/11 90/182/10 102/185/10 101/156/11
f 93/190/7 94/186/2 106/189/2 105/191/7
f 85/192/6 86/193/14 98/194/14 97/195/6
f 96/196/5 85/192/6 97/195/6 108/197/5
f 91/183/9 92/198/8 104/199/8 103/184/9
f 95/187/1 96/196/5 108/197/5 107/188/1
f 86/193/14 87/200/13 99/201/13 98/194/14
f 87/200/13 88/154/12 100/157/12 99/201/13
f 92/198/8 93/190/7 105/191/7 104/199/8
f 12/202/9 10/203/8 110/204/71 109/205/72
f 10/203/8 41/206/8 111/207/71 110/204/71
f 41/206/8 42/208/9 112/209/72 111/207/71
f 42/208/9 12/202/9 109/205/72 112/209/72
f 2/210/5 24/211/6 114/212/31 113/213/73
f 24/211/6 48/214/6 115/215/31 114/212/31
f 48/214/6 37/216/5 116/217/73 115/215/31
f 37/216/5 2/210/5 113/213/73 116/217/73
f 6/218/2 4/219/1 118/220/74 117/221/75
f 4/219/1 38/222/1 119/223/74 118/220/74
f 38/222/1 39/224/2 120/225/75 119/223/74
f 39/224/2 6/218/2 117/221/75 120/225/75
f 20/226/13 18/227/12 122/228/18 121/229/22
f 18/227/12 45/230/12 123/231/18 122/228/18
f 45/230/12 46/232/13 124/233/22 123/231/18
f 46/232/13 20/226/13 121/229/22 124/233/22
f 14/234/10 12/202/9 126/235/76 125/236/77
f 12/202/9 42/208/9 127/237/76 126/235/76
f 42/208/9 43/238/10 128/239/77 127/237/76
f 43/238/10 14/234/10 125/236/77 128/239/77
f 8/240/7 6/218/2 130/241/78 129/242/79
f 6/218/2 39/224/2 131/243/78 130/241/78
f 39/224/2 40/244/7 132/245/79 131/243/78
f 40/244/7 8/240/7 129/242/79 132/245/79
f 22/246/14 20/226/13 134/247/80 133/248/81
f 20/226/13 46/232/13 135/249/80 134/247/80
f 46/232/13 47/250/14 136/251/81 135/249/80
f 47/250/14 22/246/14 133/248/81 136/251/81
f 16/252/11 14/234/10 138/253/82 137/254/83
f 14/234/10 43/238/10 139/255/82 138/253/82
f 43/238/10 44/256/11 140/257/83 139/255/82
f 44/256/11 16/252/11 137/254/83 140/257/83
f 10/203/8 8/240/7 142/258/20 141/259/24
f 8/240/7 40/244/7 143/260/20 142/258/20
f 40/244/7 41/206/8 144/261/24 143/260/20
f 41/206/8 10/203/8 141/259/24 144/261/24
f 24/211/6 22/246/14 146/262/84 145/263/85
f 22/246/14 47/250/14 147/264/84 146/262/84
f 47/250/14 48/214/6 148/265/85 147/264/84
f 48/214/6 24/211/6 145/263/85 148/265/85
f 4/219/1 2/210/5 150/266/86 149/267/87
f 2/210/5 37/216/5 151/268/86 150/266/86
f 37/216/5 38/222/1 152/269/87 151/268/86
f 38/222/1 4/219/1 149/267/87 152/269/87
f 18/227/12 16/252/11 154/270/88 153/271/89
f 16/252/11 44/256/11 155/272/88 154/270/88
f 44/256/11 45/230/12 156/273/89 155/272/88
f 45/230/12 18/227/12 153/271/89 156/273/89
f 143/68/90 144/73/90 174/69/90
f 109/274/91 110/275/91 157/276/91
f 123/64/92 124/71/92 164/65/92
f 152/277/87 149/60/87 177/62/93 178/278/93
f 132/279/79 129/25/79 167/27/94 168/280/94
f 112/281/72 109/274/72 157/276/95 158/282/95
f 150/61/86 151/283/86 178/278/96 177/62/96
f 130/26/78 131/284/78 168/280/97 167/27/97
f 110/275/71 111/285/71 158/282/98 157/276/98
f 137/286/99 138/287/99 171/288/99
f 151/283/100 152/277/100 178/278/100
f 117/289/101 118/290/101 161/291/101
f 131/284/102 132/279/102 168/280/102
f 111/285/103 112/281/103 158/282/103
f 140/292/83 137/286/83 171/288/104 172/293/104
f 120/294/75 117/289/75 161/291/105 162/295/105
f 138/287/82 139/296/82 172/293/106 171/288/106
f 118/290/74 119/297/74 162/295/107 161/291/107
f 145/298/108 146/299/108 175/300/108
f 125/301/109 126/302/109 165/303/109
f 139/296/110 140/292/110 172/293/110
f 119/297/111 120/294/111 162/295/111
f 148/304/85 145/298/85 175/300/112 176/305/112
f 128/306/77 125/301/77 165/303/113 166/307/113
f 146/299/84 147/308/84 176/305/114 175/300/114
f 126/302/76 127/309/76 166/307/115 165/303/115
f 153/310/116 154/311/116 179/312/116
f 133/313/117 134/314/117 169/315/117
f 147/308/118 148/304/118 176/305/118
f 113/316/119 114/84/119 159/85/119
f 127/309/120 128/306/120 166/307/120
f 156/82/89 153/310/89 179/312/121 180/83/121
f 136/79/81 133/313/81 169/315/122 170/80/122
f 116/76/73 113/316/73 159/85/123 160/77/123
f 154/311/88 155/81/88 180/83/124 179/312/124
f 134/314/80 135/78/80 170/80/125 169/315/125
f 1/32/126 3/1/126 181/317/126
f 3/1/126 5/4/126 181/317/126
f 5/4/126 7/36/126 181/317/126
f 7/36/126 9/39/126 181/317/126
f 9/39/126 11/41/126 181/317/126
f 11/41/126 13/43/126 181/317/126
f 13/43/126 15/45/126 181/317/126
f 15/45/126 17/47/126 181/317/126
f 17/47/126 19/49/126 181/317/126
f 19/49/126 21/51/126 181/317/126
f 21/51/126 23/34/126 181/317/126
f 23/34/126 1/32/126 181/317/126
f 329/318/127 332/319/128 432/320/129
f 222/321/130 194/322/131 410/323/132
f 316/324/133 315/325/134 426/326/135 427/327/136
f 213/179/68 212/328/137 418/180/69
f 315/325/134 314/329/138 426/326/135
f 210/330/139 211/331/140 417/332/141 416/333/142
f 312/334/143 313/335/144 425/336/145 424/337/146
f 209/338/147 208/339/148 416/333/142 417/332/141
f 311/340/149 310/341/150 424/337/146 425/336/145
f 208/339/148 207/342/151 416/333/142
f 310/341/150 309/343/152 424/337/146
f 357/344/153 307/345/154 440/346/155
f 379/347/11 376/348/10 284/349/10 285/350/11
f 205/351/156 206/352/157 415/353/158 414/354/159
f 300/355/160 355/356/161 437/357/162
f 204/358/163 203/359/164 414/354/159 415/353/158
f 304/360/165 353/361/166 439/362/167
f 203/359/164 202/363/168 414/354/159
f 358/364/5 391/365/6 289/366/6 279/367/5
f 351/368/169 302/369/170 438/370/171
f 385/371/13 382/372/12 286/373/12 287/374/13
f 349/375/172 300/355/160 437/357/162
f 200/376/173 201/377/174 413/378/175 412/379/176
f 361/380/1 358/364/5 279/367/5 278/381/1
f 347/382/177 298/383/178 436/384/179
f 391/365/6 388/385/14 288/386/14 289/366/6
f 199/387/180 198/388/181 412/379/176 413/378/175
f 198/388/181 197/389/182 412/379/176
f 195/390/183 196/391/184 411/392/185 410/323/132
f 376/348/10 373/393/9 283/394/9 284/349/10
f 217/395/186 220/396/187 420/397/188
f 367/398/7 364/399/2 280/400/2 281/401/7
f 194/322/189 195/390/183 410/323/132
f 228/402/190 308/403/191 407/404/192
f 382/372/12 379/347/11 285/350/11 286/373/12
f 302/369/170 395/405/193 438/370/171
f 189/406/194 227/407/195 409/408/196
f 394/409/197 304/360/165 439/362/167
f 183/410/198 228/402/190 407/404/192
f 397/411/199 345/412/200 441/413/201
f 388/385/14 385/371/13 287/374/13 288/386/14
f 226/414/202 303/415/203 423/416/204
f 345/412/200 396/417/205 441/413/201
f 225/418/206 188/419/207 408/420/208
f 364/399/2 361/380/1 278/381/1 280/400/2
f 298/383/178 398/421/209 436/384/179
f 370/422/8 367/398/7 281/401/7 282/423/8
f 212/328/210 215/424/211 418/180/69
f 224/425/212 299/426/213 422/427/214
f 373/393/9 370/422/8 282/423/8 283/394/9
f 307/345/154 399/428/215 440/346/155
f 248/429/2 251/430/1 271/431/1 258/432/2
f 356/433/3 352/434/3 272/435/3 276/436/3
f 105/437/126 106/438/126 249/439/126 246/440/126
f 401/441/3 346/442/3 266/443/3 257/444/3
f 354/445/3 348/446/3 268/447/3 274/448/3
f 245/449/8 247/450/7 260/451/7 275/452/8
f 402/453/3 403/454/3 261/455/3 259/456/3
f 251/430/1 252/457/5 264/458/5 271/431/1
f 239/459/11 241/460/10 256/461/10 267/462/11
f 403/454/3 354/445/3 274/448/3 261/455/3
f 247/450/7 248/429/2 258/432/2 260/451/7
f 104/463/126 105/437/126 246/440/126 244/464/126
f 100/465/126 101/466/126 238/467/126 237/468/126
f 99/469/126 100/465/126 237/468/126 234/470/126
f 400/471/3 356/433/3 276/436/3 255/472/3
f 103/473/126 104/463/126 244/464/126 243/474/126
f 98/475/126 99/469/126 234/470/126 232/476/126
f 108/477/126 97/478/126 231/479/126 253/480/126
f 106/438/126 107/481/126 250/482/126 249/439/126
f 102/483/126 103/473/126 243/474/126 240/484/126
f 107/481/126 108/477/126 253/480/126 250/482/126
f 242/485/9 245/449/8 275/452/8 269/486/9
f 101/466/126 102/483/126 240/484/126 238/467/126
f 352/434/3 404/487/3 263/488/3 272/435/3
f 252/457/5 230/489/6 262/490/6 264/458/5
f 405/491/3 350/492/3 270/493/3 265/494/3
f 230/489/6 233/495/14 273/496/14 262/490/6
f 235/497/13 236/498/12 254/499/12 277/500/13
f 350/492/3 402/453/3 259/456/3 270/493/3
f 233/495/14 235/497/13 277/500/13 273/496/14
f 404/487/3 405/491/3 265/494/3 263/488/3
f 241/460/10 242/485/9 269/486/9 256/461/10
f 348/446/3 401/441/3 257/444/3 268/447/3
f 236/498/12 239/459/11 267/462/11 254/499/12
f 346/442/3 400/471/3 255/472/3 266/443/3
f 231/501/216 232/502/217 233/503/217 230/504/216
f 232/502/217 234/505/218 235/506/218 233/503/217
f 237/507/219 238/508/220 239/509/220 236/510/219
f 238/508/220 240/511/221 241/512/221 239/509/220
f 243/513/222 244/514/223 245/515/223 242/516/222
f 244/514/223 246/517/224 247/518/224 245/515/223
f 249/519/225 250/520/226 251/521/226 248/522/225
f 253/523/227 231/501/216 230/504/216 252/524/227
f 234/505/218 237/507/219 236/510/219 235/506/218
f 240/511/221 243/513/222 242/516/222 241/512/221
f 246/517/224 249/519/225 248/522/225 247/518/224
f 250/520/226 253/523/227 252/524/227 251/521/226
f 261/525/228 274/526/229 275/527/229 260/528/228
f 255/529/230 276/530/231 277/531/231 254/532/230
f 276/530/231 272/533/232 273/534/232 277/531/231
f 265/535/233 270/536/234 271/537/234 264/538/233
f 274/526/229 268/539/235 269/540/235 275/527/229
f 263/541/236 265/535/233 264/538/233 262/542/236
f 272/533/232 263/541/236 262/542/236 273/534/232
f 259/543/237 261/525/228 260/528/228 258/544/237
f 257/545/238 266/546/239 267/547/239 256/548/238
f 270/536/234 259/543/237 258/544/237 271/537/234
f 268/539/235 257/545/238 256/548/238 269/540/235
f 266/546/239 255/529/230 254/532/230 267/547/239
f 97/478/126 98/475/126 232/476/126 231/479/126
f 287/549/240 286/550/241 295/551/242
f 281/552/243 280/553/244 291/554/245
f 286/550/241 285/555/246 292/556/247 295/551/242
f 280/553/244 278/557/248 290/558/249 291/554/245
f 289/559/250 288/560/251 295/551/242 290/558/249
f 283/561/252 282/562/253 291/554/245 292/556/247
f 285/555/246 284/563/254 292/556/247
f 278/557/248 279/564/255 290/558/249
f 288/560/251 287/549/240 295/551/242
f 282/562/253 281/552/243 291/554/245
f 284/563/254 283/561/252 292/556/247
f 279/564/255 289/559/250 290/558/249
f 292/565/256 291/566/256 293/567/256 296/568/256
f 295/569/257 292/570/257 296/571/257 297/572/257
f 294/573/3 297/574/3 296/575/3 293/576/3
f 290/577/258 295/578/258 297/579/258 294/580/258
f 291/581/259 290/582/259 294/583/259 293/584/259
f 299/585/260 224/586/261 346/587/262 186/588/263
f 188/589/264 225/590/265 348/591/266 301/592/267
f 303/593/268 226/594/269 350/595/270 192/596/271
f 228/597/272 183/598/273 305/599/274 352/600/275
f 227/601/276 189/602/277 306/603/278 354/604/279
f 308/605/280 228/597/272 356/606/281 184/607/282
f 195/608/283 194/609/284 358/610/285 359/611/286
f 196/612/287 195/608/283 359/611/286 360/613/288
f 197/614/289 198/615/290 362/616/291 361/617/292
f 198/615/290 199/618/293 363/619/294 362/616/291
f 200/620/295 197/614/289 364/621/296 365/622/297
f 201/623/298 200/620/295 365/622/297 366/624/299
f 197/614/289 361/617/292 364/621/296
f 202/625/300 203/626/301 368/627/302 367/628/303
f 203/626/301 204/629/304 369/630/305 368/627/302
f 205/631/306 202/625/300 370/632/307 371/633/308
f 206/634/309 205/631/306 371/633/308 372/635/310
f 202/625/300 367/628/303 370/632/307
f 207/636/311 208/637/312 374/638/313 373/639/314
f 208/637/312 209/640/315 375/641/316 374/638/313
f 210/642/317 207/636/311 376/643/318 377/644/319
f 211/645/320 210/642/317 377/644/319 378/646/321
f 207/636/311 373/639/314 376/643/318
f 212/647/322 213/648/323 380/649/324 379/650/325
f 213/648/323 214/651/326 381/652/327 380/649/324
f 215/653/328 212/647/322 382/654/329 383/655/330
f 216/656/331 215/653/328 383/655/330 384/657/332
f 212/647/322 379/650/325 382/654/329
f 217/658/333 218/659/334 386/660/335 385/661/336
f 218/659/334 219/662/337 387/663/338 386/660/335
f 220/664/339 217/658/333 388/665/340 389/666/341
f 221/667/342 220/664/339 389/666/341 390/668/343
f 217/658/333 385/661/336 388/665/340
f 194/609/284 222/669/344 392/670/345 391/671/346
f 222/669/344 223/672/347 393/673/348 392/670/345
f 194/609/284 391/671/346 358/610/285
f 223/672/347 182/674/349 339/675/350 393/673/348
f 340/676/351 196/612/287 360/613/288 193/677/352
f 199/618/293 303/593/268 192/596/271 363/619/294
f 341/678/353 201/623/298 366/624/299 191/679/354
f 204/629/304 342/680/355 190/681/356 369/630/305
f 189/602/277 206/634/309 372/635/310 306/603/278
f 209/640/315 188/589/264 301/592/267 375/641/316
f 187/682/357 211/645/320 378/646/321 343/683/358
f 214/651/326 299/585/260 186/588/263 381/652/327
f 344/684/359 216/656/331 384/657/332 185/685/360
f 219/662/337 308/605/280 184/607/282 387/663/338
f 183/598/273 221/667/342 390/668/343 305/599/274
f 224/586/261 344/684/359 185/685/360 400/686/361
f 225/590/265 187/682/357 343/683/358 401/687/362
f 226/594/269 341/678/353 191/679/354 402/688/363
f 342/680/355 227/601/276 403/689/364 190/681/356
f 182/674/349 229/690/365 404/691/366 339/675/350
f 229/690/365 340/676/351 193/677/352 405/692/367
f 227/601/276 354/604/279 403/689/364
f 228/597/272 352/600/275 356/606/281
f 229/690/365 405/692/367 404/691/366
f 226/594/269 402/688/363 350/595/270
f 225/590/265 401/687/362 348/591/266
f 224/586/261 400/686/361 346/587/262
f 298/693/368 347/694/369 186/588/263 346/587/262
f 300/695/370 349/696/371 301/592/267 348/591/266
f 302/697/372 351/698/373 192/596/271 350/595/270
f 353/699/374 304/700/375 352/600/275 305/599/274
f 355/701/376 300/695/370 354/604/279 306/603/278
f 307/702/377 357/703/378 184/607/282 356/606/281
f 309/704/379 310/705/380 359/611/286 358/610/285
f 310/705/380 311/706/381 360/613/288 359/611/286
f 312/707/382 309/704/379 361/617/292 362/616/291
f 313/708/383 312/707/382 362/616/291 363/619/294
f 309/704/379 358/610/285 361/617/292
f 314/709/384 315/710/385 365/622/297 364/621/296
f 315/710/385 316/711/386 366/624/299 365/622/297
f 317/712/387 314/709/384 367/628/303 368/627/302
f 318/713/388 317/712/387 368/627/302 369/630/305
f 314/709/384 364/621/296 367/628/303
f 319/714/389 320/715/390 371/633/308 370/632/307
f 320/715/390 321/716/391 372/635/310 371/633/308
f 322/717/392 319/714/389 373/639/314 374/638/313
f 323/718/393 322/717/392 374/638/313 375/641/316
f 319/714/389 370/632/307 373/639/314
f 324/719/394 325/720/395 377/644/319 376/643/318
f 325/720/395 326/721/396 378/646/321 377/644/319
f 327/722/397 324/719/394 379/650/325 380/649/324
f 328/723/398 327/722/397 380/649/324 381/652/327
f 324/719/394 376/643/318 379/650/325
f 329/724/399 330/725/400 383/655/330 382/654/329
f 330/725/400 331/726/401 384/657/332 383/655/330
f 332/727/402 329/724/399 385/661/336 386/660/335
f 333/728/403 332/727/402 386/660/335 387/663/338
f 329/724/399 382/654/329 385/661/336
f 334/729/404 335/730/405 389/666/341 388/665/340
f 335/730/405 336/731/406 390/668/343 389/666/341
f 337/732/407 334/729/404 391/671/346 392/670/345
f 338/733/408 337/732/407 392/670/345 393/673/348
f 334/729/404 388/665/340 391/671/346
f 394/734/409 338/733/408 393/673/348 339/675/350
f 311/706/381 395/735/410 193/677/352 360/613/288
f 351/698/373 313/708/383 363/619/294 192/596/271
f 316/711/386 396/736/411 191/679/354 366/624/299
f 397/737/412 318/713/388 369/630/305 190/681/356
f 321/716/391 355/701/376 306/603/278 372/635/310
f 349/696/371 323/718/393 375/641/316 301/592/267
f 326/721/396 398/738/413 343/683/358 378/646/321
f 347/694/369 328/723/398 381/652/327 186/588/263
f 331/726/401 399/739/414 185/685/360 384/657/332
f 357/703/378 333/728/403 387/663/338 184/607/282
f 336/731/406 353/699/374 305/599/274 390/668/343
f 399/739/414 307/702/377 400/686/361 185/685/360
f 398/738/413 298/693/368 401/687/362 343/683/358
f 396/736/411 345/740/415 402/688/363 191/679/354
f 345/740/415 397/737/412 190/681/356 403/689/364
f 304/700/375 394/734/409 339/675/350 404/691/366
f 395/735/410 302/697/372 405/692/367 193/677/352
f 307/702/377 356/606/281 400/686/361
f 302/697/372 350/595/270 405/692/367
f 300/695/370 348/591/266 354/604/279
f 304/700/375 404/691/366 352/600/275
f 345/740/415 403/689/364 402/688/363
f 298/693/368 346/587/262 401/687/362
f 317/741/416 318/742/417 427/327/136 426/326/135
f 215/424/211 216/743/418 419/181/70 418/180/69
f 218/744/419 217/395/420 420/397/188
f 320/745/421 319/746/422 428/747/423
f 219/748/424 218/744/419 420/397/188 421/749/425
f 321/750/426 320/745/421 428/747/423 429/751/427
f 220/396/187 221/752/428 421/749/425 420/397/188
f 322/753/429 323/754/430 429/751/427 428/747/423
f 314/329/431 317/741/416 426/326/135
f 223/755/432 222/321/130 410/323/132 411/392/185
f 325/756/433 324/757/434 430/758/435
f 207/342/436 210/330/139 416/333/142
f 326/759/437 325/756/433 430/758/435 431/760/438
f 182/761/439 223/755/432 411/392/185 406/762/440
f 327/763/441 328/764/442 431/760/438 430/758/435
f 196/391/184 340/765/443 406/762/440 411/392/185
f 303/415/203 199/387/180 413/378/175 423/416/204
f 330/766/444 329/318/445 432/320/129
f 201/377/174 341/767/446 423/416/204 413/378/175
f 331/768/447 330/766/444 432/320/129 433/769/448
f 324/757/449 327/763/441 430/758/435
f 342/770/450 204/358/163 415/353/158 409/408/196
f 332/319/128 333/771/451 433/769/448 432/320/129
f 197/389/452 200/376/173 412/379/176
f 206/352/157 189/406/194 409/408/196 415/353/158
f 188/419/207 209/338/147 417/332/141 408/420/208
f 335/772/453 334/773/454 434/774/455
f 211/331/140 187/775/456 408/420/208 417/332/141
f 336/776/457 335/772/453 434/774/455 435/777/458
f 299/426/213 214/178/67 419/181/70 422/427/214
f 337/778/459 338/779/460 435/777/458 434/774/455
f 216/743/418 344/780/461 422/427/214 419/181/70
f 308/403/191 219/748/424 421/749/425 407/404/192
f 338/779/460 394/409/197 439/362/167 435/777/458
f 202/363/462 205/351/156 414/354/159
f 221/752/428 183/410/198 407/404/192 421/749/425
f 395/405/193 311/340/149 425/336/145 438/370/171
f 344/780/461 224/425/212 422/427/214
f 313/335/144 351/368/169 438/370/171 425/336/145
f 187/775/456 225/418/206 408/420/208
f 396/417/205 316/324/133 427/327/136 441/413/201
f 341/767/446 226/414/202 423/416/204
f 318/742/417 397/411/199 441/413/201 427/327/136
f 319/746/463 322/753/429 428/747/423
f 227/407/195 342/770/450 409/408/196
f 355/356/161 321/750/426 429/751/427 437/357/162
f 229/781/464 182/761/439 406/762/440
f 323/754/430 349/375/172 437/357/162 429/751/427
f 309/343/465 312/334/143 424/337/146
f 334/773/466 337/778/459 434/774/455
f 340/765/443 229/781/464 406/762/440
f 398/421/209 326/759/437 431/760/438 436/384/179
f 328/764/442 347/382/177 436/384/179 431/760/438
f 399/428/215 331/768/447 433/769/448 440/346/155
f 333/771/451 357/344/153 440/346/155 433/769/448
f 353/361/166 336/776/457 435/777/458 439/362/167
f 592/782/467 445/783/467 444/784/468 593/785/468
f 451/786/469 586/787/469 585/788/470 452/789/470
f 450/790/471 587/791/471 586/787/469 451/786/469
f 442/792/472 595/793/472 594/794/473 443/795/473
f 453/796/474 584/797/474 595/793/472 442/792/472
f 589/798/475 588/799/476 449/800/476 448/801/475
f 452/789/470 585/788/470 584/797/474 453/796/474
f 449/802/477 450/803/478 462/804/478 461/805/477
f 451/806/479 452/807/480 464/808/480 463/809/479
f 453/810/481 442/811/482 454/812/482 465/813/481
f 442/811/482 443/814/483 455/815/483 454/812/482
f 444/816/484 445/817/485 457/818/485 456/819/484
f 443/814/483 444/816/484 456/819/484 455/815/483
f 447/820/486 448/821/487 460/822/487 459/823/486
f 445/817/485 446/824/488 458/825/488 457/818/485
f 450/803/478 451/806/479 463/809/479 462/804/478
f 446/824/488 447/820/486 459/823/486 458/825/488
f 452/807/480 453/810/481 465/813/481 464/808/480
f 448/821/487 449/802/477 461/805/477 460/822/487
f 463/826/489 464/827/490 477/828/490 476/829/489
f 465/830/491 454/831/492 467/832/492 478/833/491
f 454/831/492 455/834/493 468/835/493 467/832/492
f 456/836/494 457/837/495 470/838/495 469/839/496
f 455/834/493 456/836/494 469/839/496 468/835/493
f 459/840/497 460/841/498 473/842/498 472/843/497
f 457/837/495 458/844/499 471/845/499 470/838/495
f 462/846/500 463/826/489 476/829/489 475/847/500
f 458/844/499 459/840/497 472/843/497 471/845/499
f 464/827/490 465/830/491 478/833/491 477/828/490
f 460/841/498 461/848/501 474/849/501 473/842/498
f 461/848/501 462/846/500 475/847/500 474/849/501
f 466/850/7 467/851/7 468/852/7
f 466/850/7 468/852/7 469/853/7
f 466/850/7 470/854/7 471/855/7
f 466/850/7 471/855/7 472/856/7
f 466/850/7 473/857/7 474/858/7
f 466/850/7 474/858/7 475/859/7
f 466/850/7 476/860/7 477/861/7
f 466/850/7 478/862/7 467/851/7
f 466/850/7 469/853/7 470/854/7
f 466/850/7 472/856/7 473/857/7
f 466/850/7 475/859/7 476/860/7
f 466/850/7 477/861/7 478/862/7
f 512/863/502 514/864/503 484/865/503 483/866/502
f 515/867/504 518/868/505 486/869/505 485/870/504
f 524/871/506 525/872/507 490/873/507 489/874/506
f 514/864/503 515/867/504 485/870/504 484/865/503
f 521/875/508 524/871/506 489/874/506 488/876/508
f 506/877/509 508/878/510 481/879/510 480/880/509
f 525/872/507 503/881/511 479/882/511 490/873/507
f 518/868/505 520/883/512 487/884/512 486/869/505
f 508/878/510 509/885/513 482/886/513 481/879/510
f 509/885/513 512/863/502 483/866/502 482/886/513
f 520/883/512 521/875/508 488/876/508 487/884/512
f 501/887/514 497/888/515 519/889/515 517/890/514
f 496/891/516 495/892/517 523/893/517 522/894/516
f 499/895/518 498/896/519 505/897/519 504/898/518
f 500/899/520 499/895/518 504/898/518 526/900/520
f 502/901/521 492/902/522 510/903/522 507/904/521
f 498/896/519 502/901/521 507/904/521 505/897/519
f 494/905/523 493/906/524 516/907/524 513/908/523
f 492/902/522 491/909/525 511/910/525 510/903/522
f 497/888/515 496/891/516 522/894/516 519/889/515
f 491/909/525 494/905/523 513/908/523 511/910/525
f 495/892/517 500/899/520 526/900/520 523/893/517
f 493/906/524 501/887/514 517/890/514 516/907/524
f 479/911/526 480/912/527 528/913/527 527/914/526
f 551/915/10 540/916/10 539/917/10
f 490/918/528 479/911/526 527/914/526 538/919/528
f 480/912/527 481/920/529 529/921/529 528/913/527
f 482/922/530 483/923/531 531/924/531 530/925/530
f 483/923/531 484/926/532 532/927/532 531/924/531
f 485/928/533 486/929/534 534/930/534 533/931/533
f 486/929/534 487/932/535 535/933/535 534/930/534
f 488/934/536 489/935/537 537/936/537 536/937/536
f 481/920/529 482/922/530 530/925/530 529/921/529
f 484/926/532 485/928/533 533/931/533 532/927/532
f 487/932/535 488/934/536 536/937/536 535/933/535
f 489/935/537 490/918/528 538/919/528 537/936/537
f 504/938/538 505/939/539 506/940/539 503/941/538
f 505/939/539 507/942/540 508/943/540 506/940/539
f 510/944/541 511/945/542 512/946/542 509/947/541
f 511/945/542 513/948/543 514/949/543 512/946/542
f 516/950/544 517/951/545 518/952/545 515/953/544
f 517/951/545 519/954/546 520/955/546 518/952/545
f 522/956/547 523/957/548 524/958/548 521/959/547
f 526/960/549 504/938/538 503/941/538 525/961/549
f 507/942/540 510/944/541 509/947/541 508/943/540
f 513/948/543 516/950/544 515/953/544 514/949/543
f 519/954/546 522/956/547 521/959/547 520/955/546
f 523/957/548 526/960/549 525/961/549 524/958/548
f 527/962/550 528/963/551 539/964/551 540/965/550
f 528/963/551 529/966/552 541/967/552 539/964/551
f 530/968/553 531/969/554 542/970/554 543/971/553
f 531/969/554 532/972/555 544/973/555 542/970/554
f 533/974/556 534/975/557 545/976/557 546/977/556
f 534/975/557 535/978/558 547/979/558 545/976/557
f 536/980/559 537/981/560 548/982/560 549/983/559
f 538/984/561 527/962/550 540/965/550 550/985/561
f 529/966/552 530/968/553 543/971/553 541/967/552
f 532/972/555 533/974/556 546/977/556 544/973/555
f 535/978/558 536/980/559 549/983/559 547/979/558
f 537/981/560 538/984/561 550/985/561 548/982/560
f 503/881/511 506/877/509 480/880/509 479/882/511
f 557/986/562 551/987/562 556/988/562 555/989/562
f 553/990/563 554/991/563 558/992/563 552/993/563
f 551/994/564 553/995/564 552/996/564 556/997/564
f 555/998/10 556/999/10 552/1000/10 558/1001/10
f 554/1002/565 557/1003/565 555/1004/565 558/1005/565
f 551/915/10 539/917/10 541/1006/10 553/1007/10
f 553/1007/10 543/1008/10 542/1009/10
f 553/1007/10 542/1009/10 544/1010/10 554/1011/10
f 554/1011/10 546/1012/10 545/1013/10
f 554/1011/10 545/1013/10 547/1014/10 557/1015/10
f 557/1015/10 549/1016/10 548/1017/10
f 551/915/10 550/1018/10 540/916/10
f 553/1007/10 541/1006/10 543/1008/10
f 554/1011/10 544/1010/10 546/1012/10
f 557/1015/10 547/1014/10 549/1016/10
f 557/1015/10 548/1017/10 550/1018/10 551/915/10
f 571/1019/13 565/1020/13 566/1021/13
f 578/1022/566 565/1023/566 564/1024/567 577/1025/567
f 571/1019/13 568/1026/13 569/1027/13
f 572/1028/568 559/1029/568 570/1030/569 583/1031/569
f 573/1032/570 560/1033/570 559/1029/568 572/1028/568
f 575/1034/571 562/1035/571 561/1036/572 574/1037/572
f 581/1038/573 568/1039/573 567/1040/574 580/1041/574
f 571/1019/13 564/1042/13 565/1020/13
f 571/1019/13 559/1043/13 560/1044/13
f 571/1019/13 562/1045/13 563/1046/13
f 571/1019/13 570/1047/13 559/1043/13
f 576/1048/575 563/1049/575 562/1035/571 575/1034/571
f 590/1050/576 578/1051/576 577/1052/577 589/1053/577
f 588/1054/578 576/1055/578 575/1056/579 587/1057/579
f 593/1058/580 581/1059/580 580/1060/581 592/1061/581
f 595/1062/582 583/1063/582 582/1064/583 594/1065/583
f 586/1066/584 574/1067/584 573/1068/585 585/1069/585
f 585/1069/585 573/1068/585 572/1070/586 584/1071/586
f 589/1053/577 577/1052/577 576/1055/578 588/1054/578
f 587/1057/579 575/1056/579 574/1067/584 586/1066/584
f 591/1072/587 579/1073/587 578/1051/576 590/1050/576
f 594/1065/583 582/1064/583 581/1059/580 593/1058/580
f 592/1061/581 580/1060/581 579/1073/587 591/1072/587
f 584/1071/586 572/1070/586 583/1063/582 595/1062/582
f 590/1074/588 447/1075/588 446/1076/589 591/1077/589
f 589/798/475 448/801/475 447/1075/588 590/1074/588
f 591/1077/589 446/1076/589 445/783/467 592/782/467
f 443/795/473 594/794/473 593/785/468 444/784/468
f 580/1041/574 567/1040/574 566/1078/590 579/1079/590
f 571/1019/13 563/1046/13 564/1042/13
f 571/1019/13 560/1044/13 561/1080/13
f 574/1037/572 561/1036/572 560/1033/570 573/1032/570
f 579/1079/590 566/1078/590 565/1023/566 578/1022/566
f 571/1019/13 567/1081/13 568/1026/13
f 571/1019/13 561/1080/13 562/1045/13
f 582/1082/591 569/1083/591 568/1039/573 581/1038/573
f 571/1019/13 569/1027/13 570/1047/13
f 583/1031/569 570/1030/569 569/1083/591 582/1082/591
f 577/1025/567 564/1024/567 563/1049/575 576/1048/575
f 571/1019/13 566/1021/13 567/1081/13
f 449/800/476 588/799/476 587/791/471 450/790/471
