# Blender v3.4.1 OBJ File: 'MixedBag1_Export.blend'
# www.blender.org
mtllib flax_flower_A.mtl
o flax_flower_A
v 0.007458 0.268112 0.016410
v -0.008037 0.266279 0.005072
v 0.000000 -0.024896 -0.000000
v -0.002118 0.266977 -0.013278
v 0.017031 0.269252 -0.013275
v 0.022948 0.269960 0.005070
v -0.022352 0.516020 0.005070
v -0.006863 0.517904 0.016407
v -0.016436 0.516739 -0.013273
v 0.002691 0.519067 -0.013273
v 0.008560 0.519783 0.005070
v -0.136709 0.794858 0.005070
v -0.121825 0.799543 0.016407
v -0.131024 0.796647 -0.013274
v -0.112626 0.802438 -0.013273
v -0.106941 0.804227 0.005070
v -0.179044 0.785819 -0.013265
v -0.109978 0.837492 -0.044843
v -0.258942 0.836792 -0.105563
v -0.190371 0.888093 -0.136914
v -0.248655 0.815704 -0.079237
v -0.221869 0.798065 -0.049417
v -0.133429 0.864232 -0.089853
v -0.160267 0.881833 -0.119650
v -0.127098 0.794212 -0.019511
v -0.227543 0.860223 -0.131184
v -0.172232 0.822667 -0.071665
v -0.202179 0.842348 -0.104959
v -0.229226 0.819791 -0.029957
v -0.180481 0.796297 0.000738
v -0.134455 0.815938 -0.000051
v -0.111415 0.847969 -0.030841
v -0.167624 0.903558 -0.100190
v -0.197378 0.908785 -0.118381
v -0.234900 0.881948 -0.111724
v -0.265948 0.857483 -0.087030
v -0.256012 0.837430 -0.059778
v -0.140786 0.885957 -0.070393
v -0.179289 0.845019 -0.050525
v -0.209236 0.864699 -0.083819
v -0.237713 0.799008 -0.033211
v -0.266556 0.818332 -0.065690
v -0.193521 0.904570 -0.134359
v -0.153146 0.903181 -0.117543
v -0.123778 0.884249 -0.085304
v -0.098970 0.838844 -0.038089
v -0.271147 0.846493 -0.098866
v -0.240085 0.876911 -0.131309
v -0.120399 0.798256 0.001756
v -0.178135 0.779615 -0.001893
v -0.130987 0.828443 -0.050273
v -0.067242 0.833973 0.015631
v -0.079792 0.935721 -0.108335
v -0.016504 0.941211 -0.042904
v -0.100585 0.907538 -0.104225
v -0.116801 0.871394 -0.085555
v -0.035175 0.878475 -0.001165
v -0.019006 0.914615 -0.019884
v -0.101452 0.805258 -0.012883
v -0.040792 0.940657 -0.082918
v -0.072550 0.865601 -0.045902
v -0.054465 0.905969 -0.066782
v -0.135384 0.888284 -0.068997
v -0.143116 0.834315 -0.039034
v -0.120036 0.822148 0.003675
v -0.079371 0.839846 0.026870
v -0.037590 0.931506 -0.003326
v -0.034203 0.957297 -0.027135
v -0.059376 0.957547 -0.066360
v -0.097490 0.951807 -0.092565
v -0.119169 0.924428 -0.087667
v -0.053758 0.895365 0.015393
v -0.092437 0.882426 -0.028078
v -0.074352 0.922794 -0.048958
v -0.138210 0.878033 -0.089034
v -0.120391 0.917288 -0.109078
v -0.018653 0.955243 -0.033609
v -0.015717 0.926369 -0.000860
v -0.033052 0.887156 0.019684
v -0.068211 0.826960 0.026517
v -0.090299 0.949028 -0.107681
v -0.044731 0.961051 -0.080819
v -0.117011 0.799715 0.002632
v -0.141278 0.820621 -0.049024
v -0.072632 0.840732 -0.006233
v -0.102302 0.792477 0.066077
v 0.011868 0.905639 0.072173
v -0.017588 0.857731 0.143963
v -0.003693 0.895416 0.042225
v -0.030908 0.873126 0.016140
v -0.068900 0.811336 0.108732
v -0.041663 0.833662 0.134763
v -0.094872 0.797008 0.013806
v 0.007123 0.880581 0.111428
v -0.046974 0.833534 0.057834
v -0.016565 0.858451 0.086939
v -0.052372 0.893628 0.021015
v -0.087504 0.850044 -0.006121
v -0.116336 0.817510 0.018680
v -0.117174 0.801789 0.066188
v -0.063128 0.854164 0.139638
v -0.038031 0.877256 0.148605
v -0.014341 0.901083 0.116302
v -0.008574 0.925164 0.076815
v -0.025158 0.915918 0.047099
v -0.090364 0.831838 0.113606
v -0.070153 0.854487 0.062306
v -0.039745 0.879403 0.091411
v -0.036755 0.891799 0.004665
v -0.007313 0.915832 0.033227
v -0.025516 0.867803 0.155081
v -0.056032 0.836596 0.151963
v -0.085699 0.812196 0.123950
v -0.113074 0.785260 0.065371
v 0.007831 0.922038 0.073810
v 0.005392 0.898207 0.122480
v -0.116141 0.798625 0.006158
v -0.079066 0.840571 -0.017512
v -0.084624 0.805703 0.057994
v -0.166706 0.770349 0.036780
v -0.110633 0.788118 0.186504
v -0.192126 0.753019 0.165442
v -0.091881 0.796091 0.157724
v -0.082892 0.800868 0.115129
v -0.187998 0.755598 0.087964
v -0.196927 0.750848 0.130575
v -0.116451 0.780863 0.023672
v -0.150014 0.763018 0.183273
v -0.130850 0.770782 0.096184
v -0.140856 0.765462 0.143767
v -0.094910 0.828437 0.115685
v -0.090499 0.821746 0.053992
v -0.128469 0.808433 0.024228
v -0.172582 0.786392 0.032778
v -0.208944 0.778417 0.131130
v -0.203572 0.779276 0.165971
v -0.162032 0.790587 0.183829
v -0.122079 0.814375 0.187033
v -0.103899 0.823661 0.158279
v -0.200016 0.783167 0.088520
v -0.143233 0.799812 0.095719
v -0.153239 0.794491 0.143303
v -0.073556 0.821281 0.118398
v -0.083593 0.815976 0.164564
v -0.204625 0.763088 0.170948
v -0.218376 0.757924 0.129729
v -0.208963 0.762961 0.083401
v -0.171560 0.771371 0.024778
v -0.112370 0.802823 0.194792
v -0.158985 0.775228 0.197635
v -0.118992 0.796492 0.007462
v -0.077475 0.811894 0.049095
v -0.150390 0.771765 0.053648
v -0.171451 0.798170 -0.031773
v -0.278003 0.745569 0.076658
v -0.298912 0.771784 -0.008149
v -0.243276 0.746826 0.082656
v -0.200912 0.754478 0.074613
v -0.227879 0.788289 -0.034768
v -0.270228 0.780619 -0.026662
v -0.136367 0.779136 0.003081
v -0.295045 0.750436 0.033331
v -0.208263 0.764066 0.016149
v -0.255572 0.755509 0.025167
v -0.204211 0.782803 0.084182
v -0.147962 0.788528 0.058231
v -0.139666 0.807461 0.012651
v -0.169022 0.814933 -0.027189
v -0.273527 0.808944 -0.017092
v -0.302054 0.798761 0.000965
v -0.298344 0.778762 0.042901
v -0.281145 0.772546 0.085771
v -0.246575 0.775152 0.092225
v -0.231178 0.816615 -0.025198
v -0.210682 0.793960 0.025986
v -0.257991 0.785404 0.035005
v -0.197755 0.763933 0.094989
v -0.243814 0.755717 0.103430
v -0.308457 0.785811 -0.007935
v -0.278396 0.799076 -0.036835
v -0.232496 0.807492 -0.045925
v -0.162843 0.804488 -0.039164
v -0.284787 0.756134 0.088072
v -0.310698 0.762066 0.040785
v -0.121624 0.796263 0.004741
v -0.138703 0.774221 0.058747
v -0.118708 0.793981 0.017825
v -0.142737 0.844296 0.047784
v -0.108813 0.801384 0.013301
v -0.132743 0.851773 0.043215
v -0.112320 0.792409 0.029222
v -0.134328 0.838468 0.056455
v -0.102426 0.799812 0.024698
v -0.124433 0.845871 0.051931
v -0.157132 0.878373 0.076026
v -0.166763 0.880625 0.086247
v -0.165570 0.889745 0.076944
v -0.177821 0.911131 0.116776
v -0.172620 0.924339 0.120532
v -0.176367 0.920876 0.106385
v -0.145057 0.887407 0.070505
v -0.153082 0.899088 0.071234
v -0.140405 0.900345 0.074196
v -0.158837 0.934651 0.114230
v -0.148934 0.932743 0.103568
v -0.162738 0.931072 0.100154
v -0.147101 0.871477 0.086506
v -0.143761 0.874953 0.100123
v -0.156483 0.873708 0.097081
v -0.161485 0.917138 0.133056
v -0.166798 0.903983 0.129041
v -0.152956 0.905644 0.132524
v -0.135120 0.880440 0.081028
v -0.130299 0.893297 0.085110
v -0.131444 0.884168 0.094492
v -0.147727 0.927431 0.126766
v -0.139402 0.915784 0.126326
v -0.137988 0.925538 0.115869
v -0.109360 0.806125 0.001940
v -0.129859 0.848304 0.013115
v -0.119839 0.803785 -0.005669
v -0.141073 0.845820 0.004928
v -0.103985 0.813322 -0.007677
v -0.122173 0.850994 0.001693
v -0.114464 0.810982 -0.015285
v -0.133266 0.848518 -0.006362
v -0.143991 0.890318 0.020903
v -0.139411 0.901982 0.027380
v -0.152150 0.898352 0.029691
v -0.149868 0.945173 0.030047
v -0.160654 0.953758 0.024572
v -0.163546 0.940991 0.032449
v -0.157226 0.887750 0.010423
v -0.165581 0.895652 0.019267
v -0.168122 0.896348 0.004782
v -0.175323 0.950599 0.013658
v -0.180693 0.938679 0.006791
v -0.178015 0.937936 0.021547
v -0.134257 0.894387 0.006298
v -0.131244 0.907298 -0.001756
v -0.129429 0.906180 0.012788
v -0.150601 0.958276 0.009346
v -0.139724 0.949728 0.014851
v -0.142159 0.950613 0.000069
v -0.147691 0.891878 -0.004562
v -0.158522 0.900632 -0.010473
v -0.145052 0.904686 -0.012844
v -0.165339 0.955063 -0.001531
v -0.156816 0.947484 -0.010897
v -0.170740 0.943158 -0.008470
v -0.130185 0.796676 -0.000851
v -0.163331 0.847485 0.017785
v -0.129829 0.792059 0.011471
v -0.162403 0.842620 0.031372
v -0.142343 0.791824 -0.002304
v -0.173706 0.837831 0.014437
v -0.141988 0.787207 0.010018
v -0.173268 0.832735 0.027940
v -0.194720 0.880471 0.029479
v -0.202921 0.890967 0.022427
v -0.194916 0.894054 0.034487
v -0.233902 0.920142 0.033524
v -0.240743 0.923450 0.046232
v -0.225902 0.923186 0.045673
v -0.193604 0.874550 0.045874
v -0.193967 0.887965 0.051056
v -0.200660 0.878040 0.057908
v -0.240172 0.916801 0.063599
v -0.232469 0.906132 0.070428
v -0.225213 0.916602 0.063040
v -0.207998 0.868682 0.025097
v -0.223519 0.868768 0.025222
v -0.216454 0.879068 0.017980
v -0.254303 0.911411 0.042067
v -0.247462 0.908103 0.029359
v -0.254772 0.897586 0.036788
v -0.206686 0.862743 0.041774
v -0.213891 0.866095 0.053937
v -0.222266 0.862634 0.042264
v -0.253733 0.904761 0.059434
v -0.254198 0.890938 0.054156
v -0.246144 0.894026 0.066273
v -0.002044 0.373806 0.011707
v -0.012292 0.378093 0.003618
v -0.008383 0.376449 -0.009471
v 0.004294 0.371161 -0.009471
v 0.008207 0.369522 0.003618
v 0.037265 0.545068 0.005070
v 0.051131 0.538525 0.016407
v 0.042494 0.542507 -0.013273
v 0.059694 0.534504 -0.013273
v 0.064981 0.531994 0.005070
v 0.116617 0.679267 0.003493
v 0.124441 0.671888 0.011305
v 0.119575 0.676415 -0.009146
v 0.129355 0.667417 -0.009146
v 0.132329 0.664582 0.003493
v -0.020654 0.681851 0.008030
v -0.016225 0.688702 0.016830
v -0.023530 0.693501 0.008090
v -0.000597 0.707981 0.011721
v 0.002799 0.712305 0.005148
v -0.005703 0.711335 0.005612
v -0.020654 0.681851 -0.008030
v -0.023530 0.693501 -0.008090
v -0.016225 0.688702 -0.016830
v 0.002799 0.712305 -0.005147
v -0.000597 0.707981 -0.011721
v -0.005703 0.711335 -0.005612
v -0.007231 0.673033 0.008030
v 0.004603 0.675021 0.008090
v -0.002702 0.679819 0.016830
v 0.011404 0.706653 0.005148
v 0.008784 0.701818 0.011722
v 0.013891 0.698464 0.005612
v -0.007231 0.673033 -0.008030
v -0.002702 0.679819 -0.016830
v 0.004603 0.675021 -0.008090
v 0.011404 0.706653 -0.005147
v 0.013891 0.698464 -0.005612
v 0.008784 0.701818 -0.011721
v -0.008701 0.700011 0.018115
v -0.017147 0.705559 0.008010
v -0.008701 0.700011 -0.018115
v -0.017147 0.705559 -0.008010
v 0.013135 0.685668 -0.008010
v 0.004688 0.691216 -0.018115
v 0.004688 0.691216 0.018115
v 0.013135 0.685668 0.008010
v -0.048905 0.624547 -0.006999
v -0.048905 0.624547 0.006999
v -0.035793 0.619648 -0.006999
v -0.035793 0.619648 0.006999
v 0.108643 0.673891 0.015340
v 0.120364 0.689684 0.033729
v 0.106055 0.700448 0.016067
v 0.159652 0.734813 0.024650
v 0.168036 0.744917 0.011546
v 0.149608 0.742297 0.012303
v 0.108898 0.674684 -0.017374
v 0.106246 0.701182 -0.016893
v 0.120901 0.691348 -0.034835
v 0.168189 0.745415 -0.009424
v 0.159944 0.735890 -0.023105
v 0.149770 0.742835 -0.010561
v 0.135242 0.654953 0.015083
v 0.161980 0.660935 0.015532
v 0.147354 0.670796 0.033475
v 0.185137 0.732827 0.011383
v 0.178294 0.721631 0.024472
v 0.188553 0.714772 0.011930
v 0.135542 0.655791 -0.017630
v 0.147775 0.672345 -0.035093
v 0.162362 0.661859 -0.017423
v 0.185337 0.733372 -0.009587
v 0.188779 0.715375 -0.010932
v 0.178642 0.722765 -0.023282
v 0.140016 0.716049 0.037105
v 0.123430 0.728455 0.016682
v 0.140559 0.717807 -0.036697
v 0.123627 0.729189 -0.015951
v 0.184036 0.686870 -0.016521
v 0.167212 0.699038 -0.036951
v 0.166745 0.697357 0.036854
v 0.183689 0.685987 0.016108
v 0.061767 0.651256 0.003452
v 0.055108 0.657619 -0.002820
v 0.064258 0.662075 0.002487
v 0.043093 0.675521 0.006601
v 0.042217 0.679537 0.013417
v 0.049489 0.678636 0.010311
v 0.066868 0.651256 0.017467
v 0.069397 0.662075 0.016606
v 0.065798 0.657619 0.026552
v 0.045487 0.679537 0.022400
v 0.050538 0.675521 0.027058
v 0.053054 0.678636 0.020105
v 0.050054 0.643068 0.007716
v 0.039708 0.644914 0.011422
v 0.043307 0.649370 0.001475
v 0.034709 0.674288 0.016150
v 0.034907 0.669799 0.009581
v 0.032391 0.666684 0.016534
v 0.055155 0.643068 0.021730
v 0.053997 0.649370 0.030847
v 0.044847 0.644914 0.025541
v 0.037978 0.674288 0.025133
v 0.035956 0.666684 0.026328
v 0.042352 0.669799 0.030038
v 0.048134 0.668120 -0.001552
v 0.058714 0.673272 0.004584
v 0.059641 0.668120 0.030064
v 0.063802 0.673272 0.018563
v 0.037377 0.654801 0.028181
v 0.047957 0.659953 0.034316
v 0.036450 0.659953 0.002701
v 0.032289 0.654801 0.014202
v 0.091193 0.598043 0.007594
v 0.086747 0.598043 -0.004620
v 0.079751 0.593493 0.011759
v 0.075305 0.593493 -0.000456
v -0.022138 0.351426 0.003452
v -0.029529 0.356922 -0.002820
v -0.020996 0.362469 0.002487
v -0.043654 0.373211 0.006602
v -0.045017 0.377088 0.013417
v -0.037689 0.377089 0.010311
v -0.017075 0.352053 0.017467
v -0.015896 0.363101 0.016606
v -0.018920 0.358236 0.026552
v -0.041772 0.377490 0.022400
v -0.036265 0.374126 0.027058
v -0.034151 0.377527 0.020105
v -0.032755 0.341860 0.007716
v -0.043250 0.342420 0.011422
v -0.040226 0.347284 0.001475
v -0.051823 0.370956 0.016150
v -0.051074 0.366526 0.009581
v -0.053188 0.363125 0.016534
v -0.027693 0.342487 0.021730
v -0.029617 0.348599 0.030848
v -0.038150 0.343052 0.025541
v -0.048578 0.371358 0.025133
v -0.049650 0.363563 0.026328
v -0.043685 0.367441 0.030038
v -0.037741 0.366486 -0.001552
v -0.027875 0.372900 0.004584
v -0.026321 0.367901 0.030064
v -0.022826 0.373525 0.018563
v -0.046779 0.351945 0.028181
v -0.036912 0.358359 0.034316
v -0.048332 0.356944 0.002701
v -0.051828 0.351319 0.014202
v 0.013607 0.302235 0.007594
v 0.009195 0.301688 -0.004620
v 0.002812 0.296313 0.011759
v -0.001600 0.295766 -0.000456
v 0.035491 0.218250 -0.018027
v 0.042882 0.225186 -0.013398
v 0.034349 0.229164 -0.019963
v 0.057007 0.238468 -0.026728
v 0.058370 0.240442 -0.034317
v 0.051042 0.241249 -0.031317
v 0.030429 0.215214 -0.031723
v 0.029249 0.226106 -0.033762
v 0.032273 0.218824 -0.042103
v 0.055125 0.238496 -0.043096
v 0.049618 0.234037 -0.046720
v 0.047504 0.239127 -0.040889
v 0.046109 0.207905 -0.019658
v 0.056603 0.207482 -0.023383
v 0.053579 0.214764 -0.015041
v 0.065176 0.233810 -0.035362
v 0.064428 0.231238 -0.027868
v 0.066541 0.226148 -0.033699
v 0.041046 0.204869 -0.033354
v 0.042970 0.208402 -0.043746
v 0.051503 0.204424 -0.037181
v 0.061931 0.231864 -0.044142
v 0.063003 0.224026 -0.043271
v 0.057038 0.226807 -0.047860
v 0.051094 0.234093 -0.017107
v 0.041228 0.238692 -0.024699
v 0.039674 0.227244 -0.048005
v 0.036179 0.235664 -0.038360
v 0.060132 0.212326 -0.042041
v 0.050265 0.216925 -0.049632
v 0.061685 0.223774 -0.018735
v 0.065181 0.215354 -0.028379
v -0.000254 0.169672 -0.009245
v 0.004158 0.172318 0.002692
v 0.010541 0.162871 -0.011728
v 0.014953 0.165517 0.000209
v 0.000000 -0.016407 0.020184
v -0.019196 -0.016407 0.006237
v -0.011864 -0.016407 -0.016329
v 0.011864 -0.016407 -0.016329
v 0.019196 -0.016407 0.006237
vt 0.428634 0.343579
vt 0.428634 0.380801
vt 0.420819 0.380801
vt 0.420819 0.343579
vt 0.423804 0.380801
vt 0.423804 0.343579
vt 0.433464 0.380801
vt 0.433464 0.343579
vt 0.420819 0.380801
vt 0.423804 0.380801
vt 0.436449 0.380801
vt 0.436449 0.343579
vt 0.420819 0.380801
vt 0.423804 0.380801
vt 0.436449 0.380801
vt 0.428634 0.380801
vt 0.433464 0.380801
vt 0.436449 0.380801
vt 0.428634 0.380801
vt 0.433464 0.380801
vt 0.813179 0.119467
vt 0.813179 0.155148
vt 0.839642 0.151498
vt 0.847291 0.119665
vt 0.813179 0.047926
vt 0.813179 0.072724
vt 0.847310 0.075039
vt 0.839834 0.054494
vt 0.779047 0.075039
vt 0.779066 0.119665
vt 0.786523 0.054494
vt 0.786715 0.151498
vt 0.813179 0.150291
vt 0.847291 0.150400
vt 0.839642 0.166018
vt 0.813179 0.169669
vt 0.813179 0.061089
vt 0.839834 0.067656
vt 0.847310 0.088202
vt 0.813179 0.085887
vt 0.779047 0.088202
vt 0.779066 0.150400
vt 0.786523 0.067656
vt 0.786715 0.166018
vt 0.769410 0.151735
vt 0.769207 0.087790
vt 0.856948 0.151735
vt 0.843137 0.169274
vt 0.843731 0.064904
vt 0.857150 0.087790
vt 0.813179 0.176584
vt 0.783220 0.169274
vt 0.782626 0.064904
vt 0.813179 0.053750
vt 0.843731 0.051741
vt 0.813179 0.040588
vt 0.813179 0.162064
vt 0.843137 0.154754
vt 0.769410 0.137215
vt 0.783220 0.154754
vt 0.856948 0.137215
vt 0.857150 0.074628
vt 0.782626 0.051741
vt 0.769207 0.074628
vt 0.813179 0.119467
vt 0.813179 0.155148
vt 0.839642 0.151498
vt 0.847291 0.119665
vt 0.813179 0.047926
vt 0.813179 0.072724
vt 0.847310 0.075039
vt 0.839834 0.054494
vt 0.779047 0.075039
vt 0.779066 0.119665
vt 0.786523 0.054494
vt 0.786715 0.151498
vt 0.813179 0.150291
vt 0.847291 0.150400
vt 0.839642 0.166018
vt 0.813179 0.169669
vt 0.813179 0.061089
vt 0.839834 0.067656
vt 0.847310 0.088202
vt 0.813179 0.085887
vt 0.779047 0.088202
vt 0.779066 0.150400
vt 0.786523 0.067656
vt 0.786715 0.166018
vt 0.769410 0.151735
vt 0.769207 0.087790
vt 0.856948 0.151735
vt 0.843137 0.169274
vt 0.843731 0.064904
vt 0.857150 0.087790
vt 0.813179 0.176584
vt 0.783220 0.169274
vt 0.782626 0.064904
vt 0.813179 0.053750
vt 0.843731 0.051741
vt 0.813179 0.040588
vt 0.813179 0.162064
vt 0.843137 0.154754
vt 0.769410 0.137215
vt 0.783220 0.154754
vt 0.856948 0.137215
vt 0.857150 0.074628
vt 0.782626 0.051741
vt 0.769207 0.074628
vt 0.813179 0.119467
vt 0.813179 0.155148
vt 0.839642 0.151498
vt 0.847291 0.119665
vt 0.813179 0.047926
vt 0.813179 0.072724
vt 0.847310 0.075039
vt 0.839834 0.054494
vt 0.779047 0.075039
vt 0.779066 0.119665
vt 0.786523 0.054494
vt 0.786715 0.151498
vt 0.813179 0.150291
vt 0.847291 0.150400
vt 0.839642 0.166018
vt 0.813179 0.169669
vt 0.813179 0.061089
vt 0.839834 0.067656
vt 0.847310 0.088202
vt 0.813179 0.085887
vt 0.779047 0.088202
vt 0.779066 0.150400
vt 0.786523 0.067656
vt 0.786715 0.166018
vt 0.769410 0.151735
vt 0.769207 0.087790
vt 0.856948 0.151735
vt 0.843137 0.169274
vt 0.843731 0.064904
vt 0.857150 0.087790
vt 0.813179 0.176584
vt 0.783220 0.169274
vt 0.782626 0.064904
vt 0.813179 0.053750
vt 0.843731 0.051741
vt 0.813179 0.040588
vt 0.813179 0.162064
vt 0.843137 0.154754
vt 0.769410 0.137215
vt 0.783220 0.154754
vt 0.856948 0.137215
vt 0.857150 0.074628
vt 0.782626 0.051741
vt 0.769207 0.074628
vt 0.813179 0.119467
vt 0.813179 0.155148
vt 0.839642 0.151498
vt 0.847291 0.119665
vt 0.813179 0.047926
vt 0.813179 0.072724
vt 0.847310 0.075039
vt 0.839834 0.054494
vt 0.779047 0.075039
vt 0.779066 0.119665
vt 0.786523 0.054494
vt 0.786715 0.151498
vt 0.813179 0.150291
vt 0.847291 0.150400
vt 0.839642 0.166018
vt 0.813179 0.169669
vt 0.813179 0.061089
vt 0.839834 0.067656
vt 0.847310 0.088202
vt 0.813179 0.085887
vt 0.779047 0.088202
vt 0.779066 0.150400
vt 0.786523 0.067656
vt 0.786715 0.166018
vt 0.769410 0.151735
vt 0.769207 0.087790
vt 0.856948 0.151735
vt 0.843137 0.169274
vt 0.843731 0.064904
vt 0.857150 0.087790
vt 0.813179 0.176584
vt 0.783220 0.169274
vt 0.782626 0.064904
vt 0.813179 0.053750
vt 0.843731 0.051741
vt 0.813179 0.040588
vt 0.813179 0.162064
vt 0.843137 0.154754
vt 0.769410 0.137215
vt 0.783220 0.154754
vt 0.856948 0.137215
vt 0.857150 0.074628
vt 0.782626 0.051741
vt 0.769207 0.074628
vt 0.813179 0.119467
vt 0.813179 0.155148
vt 0.839642 0.151498
vt 0.847291 0.119665
vt 0.813179 0.047926
vt 0.813179 0.072724
vt 0.847310 0.075039
vt 0.839834 0.054494
vt 0.779047 0.075039
vt 0.779066 0.119665
vt 0.786523 0.054494
vt 0.786715 0.151498
vt 0.813179 0.150291
vt 0.847291 0.150400
vt 0.839642 0.166018
vt 0.813179 0.169669
vt 0.813179 0.061089
vt 0.839834 0.067656
vt 0.847310 0.088202
vt 0.813179 0.085887
vt 0.779047 0.088202
vt 0.779066 0.150400
vt 0.786523 0.067656
vt 0.786715 0.166018
vt 0.769410 0.151735
vt 0.769207 0.087790
vt 0.856948 0.151735
vt 0.843137 0.169274
vt 0.843731 0.064904
vt 0.857150 0.087790
vt 0.813179 0.176584
vt 0.783220 0.169274
vt 0.782626 0.064904
vt 0.813179 0.053750
vt 0.843731 0.051741
vt 0.813179 0.040588
vt 0.813179 0.162064
vt 0.843137 0.154754
vt 0.769410 0.137215
vt 0.783220 0.154754
vt 0.856948 0.137215
vt 0.857150 0.074628
vt 0.782626 0.051741
vt 0.769207 0.074628
vt 0.421007 0.292328
vt 0.421007 0.326811
vt 0.421007 0.326811
vt 0.421007 0.292328
vt 0.434178 0.326811
vt 0.434178 0.292328
vt 0.434178 0.326811
vt 0.434178 0.292328
vt 0.455646 0.402609
vt 0.455646 0.402609
vt 0.927721 0.624627
vt 0.927721 0.663272
vt 0.911211 0.663272
vt 0.911211 0.624627
vt 0.937011 0.624627
vt 0.937011 0.663272
vt 0.937011 0.663272
vt 0.937011 0.624627
vt 0.927721 0.672562
vt 0.911211 0.672562
vt 0.911211 0.672562
vt 0.927721 0.672562
vt 0.901921 0.624627
vt 0.901921 0.663272
vt 0.901921 0.663272
vt 0.901921 0.624627
vt 0.911211 0.624627
vt 0.911211 0.663272
vt 0.927721 0.663272
vt 0.927721 0.624627
vt 0.911211 0.615336
vt 0.911211 0.615336
vt 0.927721 0.615336
vt 0.927721 0.615336
vt 0.441253 0.406597
vt 0.441253 0.406597
vt 0.421007 0.292328
vt 0.421007 0.326811
vt 0.421007 0.326811
vt 0.421007 0.292328
vt 0.434178 0.326811
vt 0.434178 0.292328
vt 0.434178 0.326811
vt 0.434178 0.292328
vt 0.455646 0.402609
vt 0.455646 0.402609
vt 0.927721 0.624627
vt 0.927721 0.663272
vt 0.911211 0.663272
vt 0.911211 0.624627
vt 0.937011 0.624627
vt 0.937011 0.663272
vt 0.937011 0.663272
vt 0.937011 0.624627
vt 0.927721 0.672562
vt 0.911211 0.672562
vt 0.911211 0.672562
vt 0.927721 0.672562
vt 0.901921 0.624627
vt 0.901921 0.663272
vt 0.901921 0.663272
vt 0.901921 0.624627
vt 0.911211 0.624627
vt 0.911211 0.663272
vt 0.927721 0.663272
vt 0.927721 0.624627
vt 0.911211 0.615336
vt 0.911211 0.615336
vt 0.927721 0.615336
vt 0.927721 0.615336
vt 0.441253 0.406597
vt 0.441253 0.406597
vt 0.421007 0.292328
vt 0.421007 0.326811
vt 0.421007 0.326811
vt 0.421007 0.292328
vt 0.434178 0.326811
vt 0.434178 0.292328
vt 0.434178 0.326811
vt 0.434178 0.292328
vt 0.455646 0.402609
vt 0.455646 0.402609
vt 0.927721 0.624627
vt 0.927721 0.663272
vt 0.911211 0.663272
vt 0.911211 0.624627
vt 0.937011 0.624627
vt 0.937011 0.663272
vt 0.937011 0.663272
vt 0.937011 0.624627
vt 0.927721 0.672562
vt 0.911211 0.672562
vt 0.911211 0.672562
vt 0.927721 0.672562
vt 0.901921 0.624627
vt 0.901921 0.663272
vt 0.901921 0.663272
vt 0.901921 0.624627
vt 0.911211 0.624627
vt 0.911211 0.663272
vt 0.927721 0.663272
vt 0.927721 0.624627
vt 0.911211 0.615336
vt 0.911211 0.615336
vt 0.927721 0.615336
vt 0.927721 0.615336
vt 0.441253 0.406597
vt 0.441253 0.406597
vt 0.423804 0.380801
vt 0.420819 0.380801
vt 0.420819 0.380801
vt 0.423804 0.380801
vt 0.420819 0.380801
vt 0.423804 0.380801
vt 0.428634 0.380801
vt 0.436449 0.380801
vt 0.436449 0.380801
vt 0.428634 0.380801
vt 0.433464 0.380801
vt 0.433464 0.380801
vt 0.436449 0.380801
vt 0.428634 0.380801
vt 0.433464 0.380801
vt 0.462657 0.475901
vt 0.459199 0.487780
vt 0.443009 0.487780
vt 0.439550 0.475901
vt 0.477234 0.475901
vt 0.468011 0.487780
vt 0.468011 0.487780
vt 0.477234 0.475901
vt 0.458529 0.493637
vt 0.443679 0.493637
vt 0.443679 0.493637
vt 0.458529 0.493637
vt 0.424973 0.475901
vt 0.434196 0.487780
vt 0.434196 0.487780
vt 0.424973 0.475901
vt 0.439550 0.475901
vt 0.443009 0.487780
vt 0.459199 0.487780
vt 0.462657 0.475901
vt 0.439521 0.382250
vt 0.439434 0.402340
vt 0.426828 0.402340
vt 0.439521 0.382250
vt 0.426828 0.402340
vt 0.439434 0.402340
vt 0.462687 0.382250
vt 0.475380 0.402340
vt 0.462773 0.402340
vt 0.462687 0.382250
vt 0.462773 0.402340
vt 0.475380 0.402340
vt 0.441781 0.380526
vt 0.441781 0.380526
vt 0.460426 0.380526
vt 0.460426 0.380526
vt 0.462657 0.475901
vt 0.459199 0.487780
vt 0.443009 0.487780
vt 0.439550 0.475901
vt 0.477234 0.475901
vt 0.468011 0.487780
vt 0.468011 0.487780
vt 0.477234 0.475901
vt 0.458529 0.493637
vt 0.443679 0.493637
vt 0.443679 0.493637
vt 0.458529 0.493637
vt 0.424973 0.475901
vt 0.434196 0.487780
vt 0.434196 0.487780
vt 0.424973 0.475901
vt 0.439550 0.475901
vt 0.443009 0.487780
vt 0.459199 0.487780
vt 0.462657 0.475901
vt 0.439521 0.382250
vt 0.439434 0.402340
vt 0.426828 0.402340
vt 0.439521 0.382250
vt 0.426828 0.402340
vt 0.439434 0.402340
vt 0.462687 0.382250
vt 0.475380 0.402340
vt 0.462773 0.402340
vt 0.462687 0.382250
vt 0.462773 0.402340
vt 0.475380 0.402340
vt 0.462657 0.475901
vt 0.459199 0.487780
vt 0.443009 0.487780
vt 0.439550 0.475901
vt 0.477234 0.475901
vt 0.468011 0.487780
vt 0.468011 0.487780
vt 0.477234 0.475901
vt 0.458529 0.493637
vt 0.443679 0.493637
vt 0.443679 0.493637
vt 0.458529 0.493637
vt 0.424973 0.475901
vt 0.434196 0.487780
vt 0.434196 0.487780
vt 0.424973 0.475901
vt 0.439550 0.475901
vt 0.443009 0.487780
vt 0.459199 0.487780
vt 0.462657 0.475901
vt 0.439521 0.382250
vt 0.439434 0.402340
vt 0.426828 0.402340
vt 0.439521 0.382250
vt 0.426828 0.402340
vt 0.439434 0.402340
vt 0.462687 0.382250
vt 0.475380 0.402340
vt 0.462773 0.402340
vt 0.462687 0.382250
vt 0.462773 0.402340
vt 0.475380 0.402340
vt 0.441781 0.363923
vt 0.441781 0.363923
vt 0.460426 0.363923
vt 0.460426 0.363923
vt 0.462657 0.475901
vt 0.459199 0.487780
vt 0.443009 0.487780
vt 0.439550 0.475901
vt 0.477234 0.475901
vt 0.468011 0.487780
vt 0.468011 0.487780
vt 0.477234 0.475901
vt 0.458529 0.493637
vt 0.443679 0.493637
vt 0.443679 0.493637
vt 0.458529 0.493637
vt 0.424973 0.475901
vt 0.434196 0.487780
vt 0.434196 0.487780
vt 0.424973 0.475901
vt 0.439550 0.475901
vt 0.443009 0.487780
vt 0.459199 0.487780
vt 0.462657 0.475901
vt 0.439521 0.382250
vt 0.439434 0.402340
vt 0.426828 0.402340
vt 0.439521 0.382250
vt 0.426828 0.402340
vt 0.439434 0.402340
vt 0.462687 0.382250
vt 0.475380 0.402340
vt 0.462773 0.402340
vt 0.462687 0.382250
vt 0.462773 0.402340
vt 0.475380 0.402340
vt 0.441781 0.355134
vt 0.441781 0.355134
vt 0.460426 0.355134
vt 0.460426 0.355134
vt 0.462657 0.475901
vt 0.459199 0.487780
vt 0.443009 0.487780
vt 0.439550 0.475901
vt 0.477234 0.475901
vt 0.468011 0.487780
vt 0.468011 0.487780
vt 0.477234 0.475901
vt 0.458529 0.493637
vt 0.443679 0.493637
vt 0.443679 0.493637
vt 0.458529 0.493637
vt 0.424973 0.475901
vt 0.434196 0.487780
vt 0.434196 0.487780
vt 0.424973 0.475901
vt 0.439550 0.475901
vt 0.443009 0.487780
vt 0.459199 0.487780
vt 0.462657 0.475901
vt 0.439521 0.382250
vt 0.439434 0.402340
vt 0.426828 0.402340
vt 0.439521 0.382250
vt 0.426828 0.402340
vt 0.439434 0.402340
vt 0.462687 0.382250
vt 0.475380 0.402340
vt 0.462773 0.402340
vt 0.462687 0.382250
vt 0.462773 0.402340
vt 0.475380 0.402340
vt 0.441781 0.363435
vt 0.441781 0.363435
vt 0.460426 0.363435
vt 0.460426 0.363435
vt 0.428634 0.343579
vt 0.423511 0.343579
vt 0.425468 0.343579
vt 0.431801 0.343579
vt 0.433758 0.343579
vn -0.0070 -0.4691 0.8831
vn 0.0158 0.0054 0.9999
vn -0.9496 -0.0063 0.3134
vn -0.8463 -0.4578 0.2724
vn -0.5777 -0.0024 -0.8162
vn -0.5262 -0.4623 -0.7138
vn 0.5981 0.0154 -0.8013
vn 0.5130 -0.4753 -0.7148
vn -0.9198 -0.2140 0.3290
vn -0.5309 -0.1186 -0.8391
vn 0.9523 0.0226 0.3044
vn 0.8343 -0.4789 0.2730
vn -0.8834 -0.3618 0.2979
vn -0.5652 -0.2316 -0.7917
vn 0.9338 0.2056 0.2928
vn 0.0592 0.0195 0.9981
vn 0.6096 0.1395 -0.7804
vn 0.8789 0.3575 0.3158
vn -0.0286 -0.0124 0.9995
vn 0.5286 0.2149 -0.8212
vn 0.2239 -0.7083 -0.6694
vn -0.0792 -0.4406 -0.8942
vn 0.2290 -0.2033 -0.9520
vn 0.4894 -0.3215 -0.8106
vn 0.4298 -0.8137 -0.3914
vn 0.2662 -0.7361 -0.6223
vn 0.5646 -0.4435 -0.6961
vn 0.6258 -0.5235 -0.5782
vn -0.0585 -0.9097 -0.4112
vn -0.2111 -0.8456 -0.4903
vn 0.0622 -0.9452 -0.3205
vn -0.3501 -0.6365 -0.6872
vn -0.2379 0.7178 0.6543
vn -0.0285 0.9144 0.4038
vn -0.2885 0.9343 0.2095
vn -0.5128 0.8268 0.2313
vn 0.0916 0.4273 0.8995
vn 0.2959 0.6807 0.6702
vn 0.0984 0.8324 0.5454
vn -0.2250 0.7091 0.6683
vn -0.4351 0.4333 0.7893
vn -0.5611 0.5159 0.6473
vn -0.2680 0.2588 0.9280
vn -0.6443 0.6681 0.3722
vn -0.8806 -0.4448 0.1637
vn -0.6083 0.0603 0.7914
vn 0.5760 0.6449 -0.5023
vn -0.0332 0.6843 -0.7284
vn 0.5684 0.5767 0.5869
vn 0.4377 0.8428 0.3132
vn -0.5985 0.3638 -0.7137
vn -0.9511 -0.0024 -0.3087
vn -0.2587 -0.0421 0.9650
vn 0.2854 0.1923 0.9389
vn 0.7269 -0.5096 -0.4604
vn 0.5071 -0.8267 -0.2437
vn 0.6923 -0.2445 -0.6789
vn 0.0980 -0.9801 -0.1729
vn -0.2347 -0.9380 -0.2551
vn 0.6299 -0.5334 -0.5645
vn 0.7195 -0.0966 -0.6878
vn 0.9305 -0.0849 -0.3562
vn 0.9101 -0.3627 -0.2006
vn 0.4646 -0.7987 -0.3824
vn 0.6043 -0.5906 -0.5349
vn 0.8304 -0.5268 -0.1815
vn 0.7453 -0.6510 -0.1439
vn 0.2553 -0.5767 -0.7760
vn 0.2635 -0.4188 -0.8690
vn 0.2251 -0.6961 -0.6817
vn 0.3961 -0.1313 -0.9088
vn -0.6218 0.5524 0.5551
vn -0.2871 0.6340 0.7181
vn -0.2284 0.8472 0.4797
vn -0.3580 0.8934 0.2713
vn -0.7199 0.0777 0.6898
vn -0.4010 0.2015 0.8936
vn -0.3640 0.4639 0.8076
vn -0.6293 0.5350 0.5638
vn -0.8564 0.4212 0.2986
vn -0.7786 0.5913 0.2099
vn -0.9215 0.1563 0.3555
vn -0.5569 0.8187 0.1401
vn -0.5802 0.1470 -0.8011
vn -0.9703 0.2364 -0.0507
vn 0.7641 0.2636 0.5887
vn 0.6970 0.7074 0.1172
vn -0.2149 -0.0233 0.9764
vn -0.0049 0.3201 0.9474
vn 0.4017 0.7946 -0.4552
vn -0.1502 0.6339 -0.7587
vn -0.9782 -0.0895 0.1872
vn -0.6902 -0.2279 0.6868
vn 0.6870 -0.7264 -0.0207
vn 0.3665 -0.8873 -0.2800
vn 0.8906 -0.4533 0.0357
vn 0.1066 -0.7768 -0.6207
vn 0.0351 -0.5276 -0.8488
vn 0.7341 -0.6641 -0.1419
vn 0.9244 -0.3536 0.1433
vn 0.7246 -0.5433 0.4240
vn 0.5512 -0.7795 0.2977
vn 0.4735 -0.8099 -0.3462
vn 0.6910 -0.6993 -0.1831
vn 0.4834 -0.8626 0.1490
vn 0.4004 -0.9159 0.0292
vn 0.7510 -0.4273 -0.5033
vn 0.8521 -0.2900 -0.4357
vn 0.6425 -0.5221 -0.5609
vn 0.9734 -0.1387 -0.1823
vn -0.7203 0.6760 0.1555
vn -0.7083 0.5032 0.4950
vn -0.4502 0.6849 0.5729
vn -0.3183 0.8436 0.4324
vn -0.9281 0.3388 -0.1547
vn -0.9556 0.1991 0.2172
vn -0.8382 0.3983 0.3725
vn -0.7330 0.6650 0.1430
vn -0.6090 0.7710 -0.1860
vn -0.4796 0.8753 -0.0626
vn -0.7134 0.5931 -0.3733
vn -0.2973 0.9335 0.2004
vn 0.4675 0.6355 -0.6144
vn -0.3662 0.7731 -0.5179
vn -0.1582 -0.3821 0.9105
vn 0.2727 0.1037 0.9565
vn -0.9670 -0.1036 0.2328
vn -0.8155 0.0423 0.5772
vn 0.6583 0.4729 0.5857
vn 0.6670 0.7451 -0.0045
vn -0.6117 0.4743 -0.6331
vn -0.9406 0.0860 -0.3285
vn 0.2577 -0.9662 -0.0079
vn 0.3304 -0.8420 -0.4264
vn 0.3238 -0.8895 0.3223
vn 0.5278 -0.5268 -0.6662
vn 0.7220 -0.2419 -0.6482
vn 0.3924 -0.9197 0.0143
vn 0.2524 -0.8563 0.4506
vn -0.1042 -0.9449 0.3104
vn -0.0913 -0.9958 -0.0043
vn 0.4443 -0.8318 -0.3328
vn 0.4066 -0.9121 -0.0531
vn 0.0031 -0.9869 -0.1614
vn 0.0677 -0.9521 -0.2981
vn 0.7436 -0.6680 0.0300
vn 0.7413 -0.6372 0.2108
vn 0.7375 -0.6636 -0.1249
vn 0.5840 -0.6485 0.4883
vn -0.3973 0.9177 0.0078
vn -0.7101 0.7028 0.0428
vn -0.6472 0.6717 0.3604
vn -0.4485 0.7462 0.4920
vn -0.2453 0.8496 -0.4669
vn -0.6015 0.6768 -0.4244
vn -0.6688 0.7263 -0.1587
vn -0.3928 0.9195 -0.0125
vn -0.0348 0.9994 0.0052
vn -0.0771 0.9754 0.2064
vn 0.0688 0.9655 -0.2512
vn -0.2244 0.8538 0.4697
vn 0.8146 0.3457 0.4657
vn 0.3692 0.9287 0.0355
vn -0.9164 -0.3998 0.0183
vn -0.7198 -0.2925 0.6295
vn -0.6486 0.4467 -0.6163
vn -0.8739 0.3933 -0.2858
vn -0.1833 -0.1568 0.9705
vn 0.3711 0.1774 0.9115
vn 0.3343 0.8701 -0.3622
vn -0.1196 0.7002 -0.7039
vn 0.0323 -0.8976 -0.4397
vn 0.4487 -0.7535 -0.4805
vn -0.2249 -0.9503 -0.2153
vn 0.7796 -0.5757 -0.2465
vn 0.8768 -0.4758 0.0694
vn 0.0771 -0.9470 -0.3118
vn -0.3679 -0.9101 -0.1906
vn -0.4105 -0.7348 -0.5400
vn -0.1294 -0.7128 -0.6894
vn 0.4172 -0.8341 -0.3607
vn 0.1441 -0.9349 -0.3245
vn 0.0533 -0.7279 -0.6837
vn 0.2070 -0.7097 -0.6734
vn 0.2433 -0.9661 0.0869
vn 0.0842 -0.9806 0.1771
vn 0.3789 -0.9251 0.0236
vn -0.2340 -0.9561 0.1762
vn -0.0991 0.9435 0.3161
vn -0.2899 0.9570 -0.0136
vn -0.5473 0.8258 0.1358
vn -0.5688 0.7358 0.3677
vn 0.3849 0.9043 0.1846
vn 0.1720 0.9744 -0.1445
vn -0.0900 0.9946 -0.0519
vn -0.0788 0.9468 0.3121
vn 0.0727 0.7906 0.6080
vn -0.1275 0.7533 0.6452
vn 0.3440 0.7588 0.5530
vn -0.4388 0.6898 0.5759
vn -0.0185 -0.3219 0.9466
vn 0.2196 0.4881 0.8447
vn -0.4627 0.2349 -0.8548
vn -0.9089 0.0663 -0.4118
vn 0.3003 0.8671 -0.3974
vn -0.0994 0.8880 -0.4490
vn -0.9601 -0.2242 0.1674
vn -0.6290 -0.2846 0.7235
vn 0.5525 0.5509 0.6255
vn 0.6380 0.7659 0.0794
vn 0.3223 -0.6154 -0.7193
vn 0.5579 -0.7441 -0.3676
vn 0.0029 -0.5516 -0.8341
vn 0.5140 -0.8558 0.0584
vn 0.2855 -0.9060 0.3124
vn -0.5395 0.2254 -0.8112
vn -0.5685 0.2893 -0.7701
vn 0.7535 0.5615 -0.3419
vn 0.7578 0.5489 -0.3528
vn 0.7569 0.5516 -0.3505
vn 0.5385 -0.2231 0.8126
vn 0.5775 -0.3104 0.7551
vn -0.7504 -0.5635 0.3455
vn -0.7470 -0.5730 0.3371
vn -0.7461 -0.5755 0.3348
vn 0.9594 -0.2492 -0.1323
vn 0.0165 -0.9541 0.2992
vn -0.3708 -0.8797 0.2976
vn -0.5272 -0.4285 0.7338
vn -0.9513 -0.1290 0.2801
vn -0.7979 -0.5842 -0.1484
vn 0.8777 -0.4227 0.2256
vn 0.7442 0.0328 0.6672
vn 0.2199 -0.3591 0.9070
vn 0.3593 -0.8103 0.4629
vn 0.2811 0.6755 0.6816
vn -0.1591 0.9656 0.2054
vn -0.6897 0.5688 0.4481
vn -0.2557 0.2741 0.9271
vn -0.7299 -0.0525 -0.6816
vn -0.8774 0.4061 -0.2553
vn -0.3606 0.7925 -0.4918
vn -0.2124 0.3342 -0.9183
vn 0.5220 0.4022 -0.7522
vn 0.3788 0.8652 -0.3284
vn 0.8112 0.5720 0.1214
vn 0.9465 0.1049 -0.3053
vn -0.7063 -0.4502 -0.5464
vn 0.1908 0.2201 -0.9566
vn -0.4666 -0.4309 0.7724
vn -0.5008 -0.3752 0.7801
vn -0.5024 -0.3724 0.7803
vn -0.7662 -0.2392 -0.5964
vn -0.7759 -0.2349 -0.5856
vn -0.7741 -0.2357 -0.5875
vn 0.4699 0.4200 -0.7764
vn 0.5221 0.3233 -0.7893
vn 0.5195 0.3284 -0.7888
vn 0.7769 0.2251 0.5881
vn 0.7879 0.1963 0.5836
vn 0.7905 0.1894 0.5825
vn -0.0034 -0.5025 -0.8646
vn 0.9595 -0.2379 -0.1512
vn 0.9679 -0.1019 0.2298
vn 0.7977 0.5351 0.2781
vn 0.4219 0.3979 0.8146
vn 0.5965 -0.2357 0.7673
vn 0.3106 -0.2114 -0.9267
vn 0.1244 0.4500 -0.8843
vn 0.6789 0.5666 -0.4670
vn 0.8580 -0.0914 -0.5055
vn -0.3316 0.8567 -0.3951
vn -0.7012 0.6958 0.1553
vn -0.1502 0.8184 0.5546
vn 0.2246 0.9744 0.0076
vn -0.1331 -0.4437 0.8863
vn -0.3024 0.1990 0.9322
vn -0.8462 0.0723 0.5279
vn -0.6734 -0.5672 0.4742
vn -0.7891 -0.5587 -0.2555
vn -0.9757 0.0831 -0.2026
vn -0.6096 0.2314 -0.7582
vn -0.4169 -0.4193 -0.8065
vn 0.2734 -0.5442 0.7932
vn -0.6574 -0.7480 0.0912
vn 0.8543 0.5003 0.1408
vn 0.8011 0.5762 0.1620
vn 0.8021 0.5748 0.1617
vn 0.0261 -0.3511 0.9360
vn 0.0378 -0.3636 0.9308
vn 0.0363 -0.3620 0.9315
vn -0.8420 -0.5130 -0.1671
vn -0.7730 -0.6051 -0.1906
vn -0.7719 -0.6063 -0.1909
vn -0.0146 0.3346 -0.9423
vn -0.0055 0.3346 -0.9423
vn -0.0041 0.3346 -0.9423
vn -0.0399 -0.9527 0.3012
vn -0.0537 -0.5493 -0.8339
vn -0.0276 -0.1464 -0.9888
vn -0.5024 0.3134 -0.8058
vn -0.0107 0.7604 -0.6493
vn 0.4574 0.3086 -0.8340
vn -0.3571 -0.9330 0.0439
vn -0.8479 -0.4801 0.2249
vn -0.8757 -0.2338 -0.4224
vn -0.3892 -0.6939 -0.6058
vn -0.8368 0.2452 0.4895
vn -0.3421 0.6873 0.6407
vn -0.3614 0.9324 0.0023
vn -0.8584 0.4907 -0.1499
vn 0.8450 0.4866 -0.2216
vn 0.3817 0.9237 -0.0337
vn 0.4005 0.6842 0.6095
vn 0.8694 0.2520 0.4250
vn 0.5055 -0.3020 0.8082
vn 0.0378 0.1360 0.9900
vn -0.4427 -0.3162 0.8391
vn 0.0324 -0.7562 0.6535
vn 0.7717 0.2694 -0.5761
vn 0.8228 -0.1523 0.5475
vn -0.5520 0.1506 -0.8201
vn -0.9105 0.2669 0.3159
vn -0.8741 0.3828 0.2990
vn -0.5599 0.2449 -0.7916
vn -0.8253 0.4913 0.2786
vn -0.5544 0.3428 -0.7584
vn 0.0202 -0.0344 0.9992
vn 0.9000 -0.3176 0.2984
vn 0.8723 -0.3715 0.3179
vn -0.0300 0.0153 0.9994
vn 0.5718 -0.2122 -0.7925
vn 0.5217 -0.2218 -0.8238
vn 0.8432 -0.4250 0.3293
vn -0.0643 0.0737 0.9952
vn 0.4839 -0.2275 -0.8450
vn 0.4251 -0.0218 0.9049
vn 0.5860 0.3686 0.7216
vn 0.1056 0.6842 0.7216
vn -0.1888 0.3815 0.9049
vn 0.8744 -0.3169 -0.3673
vn 0.9489 0.1302 -0.2874
vn 0.9489 0.1302 0.2874
vn 0.8744 -0.3169 0.3673
vn 0.7487 0.5904 -0.3016
vn 0.2445 0.9216 -0.3016
vn 0.2445 0.9216 0.3016
vn 0.7487 0.5904 0.3016
vn -0.6382 0.6766 0.3673
vn -0.2574 0.9226 0.2874
vn -0.2574 0.9226 -0.2874
vn -0.6382 0.6766 -0.3673
vn -0.1888 0.3815 -0.9049
vn 0.1056 0.6842 -0.7216
vn 0.5860 0.3686 -0.7216
vn 0.4251 -0.0218 -0.9049
vn -0.8067 -0.1627 0.5681
vn -0.5016 -0.1448 0.8529
vn -0.9305 0.1369 0.3397
vn -0.8067 -0.1627 -0.5681
vn -0.9305 0.1369 -0.3397
vn -0.5016 -0.1448 -0.8529
vn 0.2071 -0.7631 0.6122
vn 0.4952 -0.7996 0.3397
vn 0.0663 -0.5178 0.8529
vn 0.2071 -0.7631 -0.6122
vn 0.0663 -0.5178 -0.8529
vn 0.4952 -0.7996 -0.3397
vn -0.8969 0.4422 0.0000
vn -0.0076 -0.0147 0.9999
vn 0.8817 -0.4717 0.0000
vn -0.0076 -0.0147 -0.9999
vn 0.4059 -0.0815 0.9103
vn 0.5748 0.2780 0.7697
vn 0.0855 0.6300 0.7719
vn -0.1933 0.3535 0.9153
vn 0.8514 -0.3686 -0.3731
vn 0.9549 0.0356 -0.2949
vn 0.9501 0.0204 0.3112
vn 0.8453 -0.3874 0.3679
vn 0.7819 0.5418 -0.3084
vn 0.2501 0.9195 -0.3033
vn 0.2460 0.9040 0.3496
vn 0.7773 0.5254 0.3460
vn -0.6229 0.6833 0.3808
vn -0.2788 0.9056 0.3196
vn -0.2744 0.9196 -0.2810
vn -0.6181 0.7003 -0.3571
vn -0.1802 0.3964 -0.9002
vn 0.0952 0.6649 -0.7408
vn 0.5836 0.3139 -0.7489
vn 0.4174 -0.0392 -0.9079
vn -0.7976 -0.4953 0.3442
vn -0.4906 -0.1029 0.8653
vn -0.9121 0.2218 0.3447
vn -0.7922 -0.4783 -0.3789
vn -0.9075 0.2370 -0.3469
vn -0.4779 -0.0618 -0.8762
vn -0.2093 -0.9179 0.3370
vn 0.4944 -0.8046 0.3288
vn 0.0702 -0.5092 0.8578
vn -0.2034 -0.9007 -0.3839
vn 0.0810 -0.4702 -0.8788
vn 0.5012 -0.7870 -0.3598
vn -0.7090 -0.0218 -0.7049
vn -0.7975 0.3686 -0.4777
vn -0.3460 0.6842 -0.6420
vn -0.1320 0.3815 -0.9149
vn -0.6961 -0.3169 0.6442
vn -0.7934 0.1302 0.5946
vn -0.9900 0.1302 0.0545
vn -0.9473 -0.3169 -0.0461
vn -0.6004 0.5904 0.5395
vn -0.1266 0.9216 0.3670
vn -0.3329 0.9216 -0.1998
vn -0.8067 0.5904 -0.0274
vn 0.4741 0.6766 -0.5634
vn 0.1435 0.9226 -0.3581
vn 0.3401 0.9226 0.1820
vn 0.7253 0.6766 0.1269
vn 0.4869 0.3815 0.7857
vn 0.1476 0.6842 0.7142
vn -0.3038 0.3686 0.8785
vn -0.0900 -0.0218 0.9957
vn 0.5638 -0.1627 -0.8097
vn 0.1796 -0.1448 -0.9730
vn 0.7582 0.1370 -0.6375
vn 0.9524 -0.1627 0.2579
vn 0.9906 0.1370 0.0010
vn 0.7630 -0.1448 0.6299
vn -0.4040 -0.7631 -0.5045
vn -0.5816 -0.7996 -0.1499
vn -0.3540 -0.5178 -0.7788
vn 0.0148 -0.7631 0.6461
vn 0.2294 -0.5178 0.8242
vn -0.3492 -0.7996 0.4886
vn 0.8428 0.4422 -0.3068
vn -0.3348 -0.0147 -0.9422
vn -0.8286 -0.4717 0.3016
vn 0.3491 -0.0147 0.9370
vn -0.7009 -0.1088 -0.7049
vn -0.8367 0.2678 -0.4777
vn -0.4275 0.6365 -0.6420
vn -0.1779 0.3624 -0.9149
vn -0.6518 -0.4001 0.6442
vn -0.8034 0.0317 0.5946
vn -0.9985 0.0075 0.0545
vn -0.9012 -0.4310 -0.0461
vn -0.6684 0.5121 0.5395
vn -0.2389 0.8990 0.3670
vn -0.4437 0.8736 -0.1998
vn -0.8731 0.4867 -0.0274
vn 0.3873 0.7298 -0.5634
vn 0.0290 0.9332 -0.3581
vn 0.2241 0.9574 0.1820
vn 0.6366 0.7607 0.1269
vn 0.4363 0.4385 0.7857
vn 0.0624 0.6971 0.7142
vn -0.3469 0.3285 0.8785
vn -0.0866 -0.0327 0.9957
vn 0.5795 -0.0921 -0.8097
vn 0.1961 -0.1216 -0.9730
vn 0.7356 0.2291 -0.6375
vn 0.9652 -0.0443 0.2579
vn 0.9662 0.2577 0.0010
vn 0.7751 -0.0499 0.6299
vn -0.3071 -0.8070 -0.5045
vn -0.4788 -0.8650 -0.1499
vn -0.2877 -0.5574 -0.7788
vn 0.1085 -0.7555 0.6461
vn 0.2913 -0.4857 0.8242
vn -0.2482 -0.8364 0.4886
vn 0.7821 0.5425 -0.3068
vn -0.3305 -0.0558 -0.9422
vn -0.7643 -0.5700 0.3016
vn 0.3483 0.0283 0.9370
vn 0.7009 0.0781 0.7090
vn 0.8367 0.3827 0.3917
vn 0.4275 0.7814 0.4546
vn 0.1779 0.5876 0.7893
vn 0.6518 -0.5538 -0.5181
vn 0.8034 -0.1239 -0.5824
vn 0.9985 -0.0069 -0.0546
vn 0.9012 -0.4042 0.1565
vn 0.6684 0.3543 -0.6540
vn 0.2389 0.7728 -0.5880
vn 0.4437 0.8955 -0.0340
vn 0.8731 0.4771 -0.1000
vn -0.3873 0.8511 0.3544
vn -0.0290 0.9942 0.1033
vn -0.2241 0.8772 -0.4245
vn -0.6366 0.7016 -0.3202
vn -0.4363 0.2193 -0.8727
vn -0.0624 0.4876 -0.8708
vn 0.3469 0.0889 -0.9337
vn 0.0866 -0.2903 -0.9530
vn -0.5795 0.1214 0.8059
vn -0.1961 0.1354 0.9712
vn -0.7356 0.3869 0.5561
vn -0.9652 -0.1098 -0.2375
vn -0.9662 0.2486 -0.0679
vn -0.7751 -0.2118 -0.5953
vn 0.3071 -0.6482 0.6968
vn 0.4789 -0.7964 0.3695
vn 0.2877 -0.3359 0.8969
vn -0.1085 -0.8974 -0.4277
vn -0.2913 -0.6831 -0.6697
vn 0.2482 -0.9347 -0.2545
vn -0.7821 0.6035 0.1553
vn 0.3305 0.1909 0.9243
vn 0.7643 -0.6288 -0.1431
vn -0.3483 -0.2161 -0.9121
vn 0.0000 -1.0000 0.0000
usemtl KayKit_Texture_A
s 1
f 474/1/1 1/2/2 2/3/3 475/4/4
f 475/4/4 2/3/3 4/5/5 476/6/6
f 476/6/6 4/5/5 5/7/7 477/8/8
f 4/5/5 2/3/3 7/9/9 9/10/10
f 477/8/8 5/7/7 6/11/11 478/12/12
f 478/12/12 6/11/11 1/2/2 474/1/1
f 9/10/10 7/9/9 12/13/13 14/14/14
f 1/2/2 6/11/11 11/15/15 8/16/16
f 2/3/3 1/2/2 8/16/16 7/9/9
f 5/7/7 4/5/5 9/10/10 10/17/17
f 6/11/11 5/7/7 10/17/17 11/15/15
f 8/16/16 11/15/15 16/18/18 13/19/19
f 10/17/17 9/10/10 14/14/14 15/20/20
f 7/9/9 8/16/16 13/19/19 12/13/13
f 11/15/15 10/17/17 15/20/20 16/18/18
f 28/21/21 26/22/22 20/23/23 24/24/24
f 25/25/25 27/26/26 23/27/27 18/28/28
f 27/26/26 28/21/21 24/24/24 23/27/27
f 22/29/29 21/30/30 28/21/21 27/26/26
f 17/31/31 22/29/29 27/26/26 25/25/25
f 21/30/30 19/32/32 26/22/22 28/21/21
f 40/33/33 33/34/34 34/35/35 35/36/36
f 31/37/37 32/38/38 38/39/39 39/40/40
f 39/40/40 38/39/39 33/34/34 40/33/33
f 29/41/41 39/40/40 40/33/33 37/42/42
f 30/43/43 31/37/37 39/40/40 29/41/41
f 37/42/42 40/33/33 35/36/36 36/44/44
f 42/45/45 41/46/46 29/41/41 37/42/42
f 44/47/47 43/48/48 34/35/35 33/34/34
f 46/49/49 45/50/50 38/39/39 32/38/38
f 48/51/51 47/52/52 36/44/44 35/36/36
f 50/53/53 49/54/54 31/37/37 30/43/43
f 41/46/46 50/53/53 30/43/43 29/41/41
f 45/50/50 44/47/47 33/34/34 38/39/39
f 47/52/52 42/45/45 37/42/42 36/44/44
f 43/48/48 48/51/51 35/36/36 34/35/35
f 49/54/54 46/49/49 32/38/38 31/37/37
f 25/25/25 18/28/28 46/55/55 49/56/56
f 20/23/23 26/22/22 48/57/51 43/58/48
f 19/32/32 21/30/30 42/59/45 47/60/52
f 23/27/27 24/24/24 44/61/47 45/62/57
f 22/29/29 17/31/31 50/63/58 41/64/59
f 17/31/31 25/25/25 49/56/56 50/63/58
f 26/22/22 19/32/32 47/60/52 48/57/51
f 18/28/28 23/27/27 45/62/57 46/55/55
f 24/24/24 20/23/23 43/58/48 44/61/47
f 21/30/30 22/29/29 41/64/59 42/59/45
f 62/65/60 60/66/61 54/67/62 58/68/63
f 59/69/64 61/70/65 57/71/66 52/72/67
f 61/70/65 62/65/60 58/68/63 57/71/66
f 56/73/68 55/74/69 62/65/60 61/70/65
f 51/75/70 56/73/68 61/70/65 59/69/64
f 55/74/69 53/76/71 60/66/61 62/65/60
f 74/77/72 67/78/73 68/79/74 69/80/75
f 65/81/76 66/82/77 72/83/78 73/84/79
f 73/84/79 72/83/78 67/78/73 74/77/72
f 63/85/80 73/84/79 74/77/72 71/86/81
f 64/87/82 65/81/76 73/84/79 63/85/80
f 71/86/81 74/77/72 69/80/75 70/88/83
f 76/89/84 75/90/85 63/85/80 71/86/81
f 78/91/86 77/92/87 68/79/74 67/78/73
f 80/93/88 79/94/89 72/83/78 66/82/77
f 82/95/90 81/96/91 70/88/83 69/80/75
f 84/97/92 83/98/93 65/81/76 64/87/82
f 75/90/85 84/97/92 64/87/82 63/85/80
f 79/94/89 78/91/86 67/78/73 72/83/78
f 81/96/91 76/89/84 71/86/81 70/88/83
f 77/92/87 82/95/90 69/80/75 68/79/74
f 83/98/93 80/93/88 66/82/77 65/81/76
f 59/69/64 52/72/67 80/99/94 83/100/95
f 54/67/62 60/66/61 82/101/90 77/102/87
f 53/76/71 55/74/69 76/103/84 81/104/91
f 57/71/66 58/68/63 78/105/86 79/106/96
f 56/73/68 51/75/70 84/107/97 75/108/98
f 51/75/70 59/69/64 83/100/95 84/107/97
f 60/66/61 53/76/71 81/104/91 82/101/90
f 52/72/67 57/71/66 79/106/96 80/99/94
f 58/68/63 54/67/62 77/102/87 78/105/86
f 55/74/69 56/73/68 75/108/98 76/103/84
f 96/109/99 94/110/100 88/111/101 92/112/102
f 93/113/103 95/114/104 91/115/105 86/116/106
f 95/114/104 96/109/99 92/112/102 91/115/105
f 90/117/107 89/118/108 96/109/99 95/114/104
f 85/119/109 90/117/107 95/114/104 93/113/103
f 89/118/108 87/120/110 94/110/100 96/109/99
f 108/121/111 101/122/112 102/123/113 103/124/114
f 99/125/115 100/126/116 106/127/117 107/128/118
f 107/128/118 106/127/117 101/122/112 108/121/111
f 97/129/119 107/128/118 108/121/111 105/130/120
f 98/131/121 99/125/115 107/128/118 97/129/119
f 105/130/120 108/121/111 103/124/114 104/132/122
f 110/133/123 109/134/124 97/129/119 105/130/120
f 112/135/125 111/136/126 102/123/113 101/122/112
f 114/137/127 113/138/128 106/127/117 100/126/116
f 116/139/129 115/140/130 104/132/122 103/124/114
f 118/141/131 117/142/132 99/125/115 98/131/121
f 109/134/124 118/141/131 98/131/121 97/129/119
f 113/138/128 112/135/125 101/122/112 106/127/117
f 115/140/130 110/133/123 105/130/120 104/132/122
f 111/136/126 116/139/129 103/124/114 102/123/113
f 117/142/132 114/137/127 100/126/116 99/125/115
f 93/113/103 86/116/106 114/143/133 117/144/134
f 88/111/101 94/110/100 116/145/129 111/146/126
f 87/120/110 89/118/108 110/147/123 115/148/130
f 91/115/105 92/112/102 112/149/125 113/150/135
f 90/117/107 85/119/109 118/151/136 109/152/137
f 85/119/109 93/113/103 117/144/134 118/151/136
f 94/110/100 87/120/110 115/148/130 116/145/129
f 86/116/106 91/115/105 113/150/135 114/143/133
f 92/112/102 88/111/101 111/146/126 112/149/125
f 89/118/108 90/117/107 109/152/137 110/147/123
f 130/153/138 128/154/139 122/155/140 126/156/141
f 127/157/142 129/158/143 125/159/144 120/160/145
f 129/158/143 130/153/138 126/156/141 125/159/144
f 124/161/146 123/162/147 130/153/138 129/158/143
f 119/163/148 124/161/146 129/158/143 127/157/142
f 123/162/147 121/164/149 128/154/139 130/153/138
f 142/165/150 135/166/151 136/167/152 137/168/153
f 133/169/154 134/170/155 140/171/156 141/172/157
f 141/172/157 140/171/156 135/166/151 142/165/150
f 131/173/158 141/172/157 142/165/150 139/174/159
f 132/175/160 133/169/154 141/172/157 131/173/158
f 139/174/159 142/165/150 137/168/153 138/176/161
f 144/177/162 143/178/163 131/173/158 139/174/159
f 146/179/164 145/180/165 136/167/152 135/166/151
f 148/181/166 147/182/167 140/171/156 134/170/155
f 150/183/168 149/184/169 138/176/161 137/168/153
f 152/185/170 151/186/171 133/169/154 132/175/160
f 143/178/163 152/185/170 132/175/160 131/173/158
f 147/182/167 146/179/164 135/166/151 140/171/156
f 149/184/169 144/177/162 139/174/159 138/176/161
f 145/180/165 150/183/168 137/168/153 136/167/152
f 151/186/171 148/181/166 134/170/155 133/169/154
f 127/157/142 120/160/145 148/187/172 151/188/173
f 122/155/140 128/154/139 150/189/168 145/190/165
f 121/164/149 123/162/147 144/191/162 149/192/169
f 125/159/144 126/156/141 146/193/164 147/194/174
f 124/161/146 119/163/148 152/195/175 143/196/176
f 119/163/148 127/157/142 151/188/173 152/195/175
f 128/154/139 121/164/149 149/192/169 150/189/168
f 120/160/145 125/159/144 147/194/174 148/187/172
f 126/156/141 122/155/140 145/190/165 146/193/164
f 123/162/147 124/161/146 143/196/176 144/191/162
f 164/197/177 162/198/178 156/199/179 160/200/180
f 161/201/181 163/202/182 159/203/183 154/204/184
f 163/202/182 164/197/177 160/200/180 159/203/183
f 158/205/185 157/206/186 164/197/177 163/202/182
f 153/207/187 158/205/185 163/202/182 161/201/181
f 157/206/186 155/208/188 162/198/178 164/197/177
f 176/209/189 169/210/190 170/211/191 171/212/192
f 167/213/193 168/214/194 174/215/195 175/216/196
f 175/216/196 174/215/195 169/210/190 176/209/189
f 165/217/197 175/216/196 176/209/189 173/218/198
f 166/219/199 167/213/193 175/216/196 165/217/197
f 173/218/198 176/209/189 171/212/192 172/220/200
f 178/221/201 177/222/202 165/217/197 173/218/198
f 180/223/203 179/224/204 170/211/191 169/210/190
f 182/225/205 181/226/206 174/215/195 168/214/194
f 184/227/207 183/228/208 172/220/200 171/212/192
f 186/229/209 185/230/210 167/213/193 166/219/199
f 177/222/202 186/229/209 166/219/199 165/217/197
f 181/226/206 180/223/203 169/210/190 174/215/195
f 183/228/208 178/221/201 173/218/198 172/220/200
f 179/224/204 184/227/207 171/212/192 170/211/191
f 185/230/210 182/225/205 168/214/194 167/213/193
f 161/201/181 154/204/184 182/231/211 185/232/212
f 156/199/179 162/198/178 184/233/207 179/234/204
f 155/208/188 157/206/186 178/235/201 183/236/208
f 159/203/183 160/200/180 180/237/203 181/238/213
f 158/205/185 153/207/187 186/239/214 177/240/215
f 153/207/187 161/201/181 185/232/212 186/239/214
f 162/198/178 155/208/188 183/236/208 184/233/207
f 154/204/184 159/203/183 181/238/213 182/231/211
f 160/200/180 156/199/179 179/234/204 180/237/203
f 157/206/186 158/205/185 177/240/215 178/235/201
f 187/241/216 188/242/217 190/243/217 189/244/216
f 189/244/218 190/243/219 194/245/220 193/246/218
f 193/246/221 194/245/222 192/247/222 191/248/221
f 191/248/223 192/247/224 188/242/225 187/241/223
f 213/249/226 207/250/227 192/247/222 194/245/222
f 209/251/228 211/252/229 198/253/230 196/254/231
f 215/255/232 217/256/233 212/257/234 208/258/235
f 216/259/236 204/260/237 199/261/238 210/262/239
f 197/263/240 200/264/241 206/265/242 202/266/243
f 203/267/244 205/268/245 218/269/246 214/270/247
f 195/271/248 196/254/231 197/263/240
f 198/253/230 199/261/238 200/264/241
f 201/272/249 202/266/243 203/267/244
f 204/260/237 205/268/245 206/265/242
f 207/273/227 208/258/235 209/251/228
f 210/262/239 211/252/229 212/257/234
f 213/274/226 214/270/247 215/255/232
f 216/259/236 217/256/233 218/269/246
f 201/272/249 195/271/248 197/263/240 202/266/243
f 196/254/231 198/253/230 200/264/241 197/263/240
f 199/261/238 204/260/237 206/265/242 200/264/241
f 205/268/245 203/267/244 202/266/243 206/265/242
f 213/274/226 201/272/249 203/267/244 214/270/247
f 204/260/237 216/259/236 218/269/246 205/268/245
f 217/256/233 215/255/232 214/270/247 218/269/246
f 207/273/227 213/274/226 215/255/232 208/258/235
f 216/259/236 210/262/239 212/257/234 217/256/233
f 211/252/229 209/251/228 208/258/235 212/257/234
f 195/271/248 207/273/227 209/251/228 196/254/231
f 210/262/239 199/261/238 198/253/230 211/252/229
f 201/275/249 213/249/226 194/245/220 190/243/219
f 207/250/227 195/276/248 188/242/225 192/247/224
f 195/276/248 201/275/249 190/243/217 188/242/217
f 219/277/250 220/278/251 222/279/252 221/280/250
f 221/280/253 222/279/254 226/281/255 225/282/253
f 225/282/256 226/281/257 224/283/258 223/284/256
f 223/284/259 224/283/260 220/278/261 219/277/259
f 245/285/262 239/286/263 224/283/258 226/281/257
f 241/287/264 243/288/265 230/289/266 228/290/267
f 247/291/268 249/292/269 244/293/270 240/294/271
f 248/295/272 236/296/273 231/297/274 242/298/275
f 229/299/276 232/300/277 238/301/278 234/302/279
f 235/303/280 237/304/281 250/305/282 246/306/283
f 227/307/284 228/290/267 229/299/276
f 230/289/266 231/297/274 232/300/277
f 233/308/285 234/302/279 235/303/280
f 236/296/273 237/304/281 238/301/278
f 239/309/263 240/294/271 241/287/264
f 242/298/275 243/288/265 244/293/270
f 245/310/262 246/306/283 247/291/268
f 248/295/272 249/292/269 250/305/282
f 233/308/285 227/307/284 229/299/276 234/302/279
f 228/290/267 230/289/266 232/300/277 229/299/276
f 231/297/274 236/296/273 238/301/278 232/300/277
f 237/304/281 235/303/280 234/302/279 238/301/278
f 245/310/262 233/308/285 235/303/280 246/306/283
f 236/296/273 248/295/272 250/305/282 237/304/281
f 249/292/269 247/291/268 246/306/283 250/305/282
f 239/309/263 245/310/262 247/291/268 240/294/271
f 248/295/272 242/298/275 244/293/270 249/292/269
f 243/288/265 241/287/264 240/294/271 244/293/270
f 227/307/284 239/309/263 241/287/264 228/290/267
f 242/298/275 231/297/274 230/289/266 243/288/265
f 233/311/285 245/285/262 226/281/255 222/279/254
f 239/286/263 227/312/284 220/278/261 224/283/260
f 227/312/284 233/311/285 222/279/252 220/278/251
f 251/313/286 252/314/287 254/315/288 253/316/286
f 253/316/289 254/315/290 258/317/291 257/318/289
f 257/318/292 258/317/293 256/319/294 255/320/292
f 255/320/295 256/319/296 252/314/297 251/313/295
f 277/321/298 271/322/299 256/319/294 258/317/293
f 273/323/300 275/324/301 262/325/302 260/326/303
f 279/327/304 281/328/305 276/329/306 272/330/307
f 280/331/308 268/332/309 263/333/310 274/334/311
f 261/335/312 264/336/313 270/337/314 266/338/315
f 267/339/316 269/340/317 282/341/318 278/342/319
f 259/343/320 260/326/303 261/335/312
f 262/325/302 263/333/310 264/336/313
f 265/344/321 266/338/315 267/339/316
f 268/332/309 269/340/317 270/337/314
f 271/345/299 272/330/307 273/323/300
f 274/334/311 275/324/301 276/329/306
f 277/346/298 278/342/319 279/327/304
f 280/331/308 281/328/305 282/341/318
f 265/344/321 259/343/320 261/335/312 266/338/315
f 260/326/303 262/325/302 264/336/313 261/335/312
f 263/333/310 268/332/309 270/337/314 264/336/313
f 269/340/317 267/339/316 266/338/315 270/337/314
f 277/346/298 265/344/321 267/339/316 278/342/319
f 268/332/309 280/331/308 282/341/318 269/340/317
f 281/328/305 279/327/304 278/342/319 282/341/318
f 271/345/299 277/346/298 279/327/304 272/330/307
f 280/331/308 274/334/311 276/329/306 281/328/305
f 275/324/301 273/323/300 272/330/307 276/329/306
f 259/343/320 271/345/299 273/323/300 260/326/303
f 274/334/311 263/333/310 262/325/302 275/324/301
f 265/347/321 277/321/298 258/317/291 254/315/290
f 271/322/299 259/348/320 252/314/297 256/319/296
f 259/348/320 265/347/321 254/315/288 252/314/287
f 285/349/322 284/350/323 288/351/324 290/352/325
f 290/352/325 288/351/324 293/353/326 295/354/327
f 283/355/328 287/356/329 292/357/330 289/358/331
f 284/350/323 283/355/328 289/358/331 288/351/324
f 286/359/332 285/349/322 290/352/325 291/360/333
f 287/356/329 286/359/332 291/360/333 292/357/330
f 289/358/331 292/357/330 297/361/334 294/362/335
f 291/360/333 290/352/325 295/354/327 296/363/336
f 288/351/324 289/358/331 294/362/335 293/353/326
f 292/357/330 291/360/333 296/363/336 297/361/334
f 328/364/337 314/365/338 301/366/339 322/367/340
f 326/368/341 320/369/342 315/370/343 329/371/344
f 319/372/345 307/373/346 302/374/347 313/375/348
f 323/376/349 303/377/350 309/378/351 325/379/352
f 324/380/353 308/381/354 321/382/355 327/383/356
f 298/384/357 299/385/358 300/386/359
f 301/366/339 302/374/347 303/377/350
f 304/387/360 305/388/361 306/389/362
f 307/373/346 308/381/354 309/378/351
f 310/390/363 311/391/364 312/392/365
f 313/375/348 314/365/338 315/370/343
f 316/393/366 317/394/367 318/395/368
f 319/372/345 320/369/342 321/382/355
f 304/387/360 298/384/357 300/386/359 305/388/361
f 322/367/340 301/366/339 303/377/350 323/376/349
f 302/374/347 307/373/346 309/378/351 303/377/350
f 324/380/353 306/389/362 305/388/361 325/379/352
f 316/393/366 304/387/360 306/389/362 317/394/367
f 307/373/346 319/372/345 321/382/355 308/381/354
f 326/368/341 318/395/368 317/394/367 327/383/356
f 310/390/363 316/393/366 318/395/368 311/391/364
f 319/372/345 313/375/348 315/370/343 320/369/342
f 328/364/337 312/392/365 311/391/364 329/371/344
f 298/384/357 310/390/363 312/392/365 299/385/358
f 313/375/348 302/374/347 301/366/339 314/365/338
f 298/384/357 304/387/360 330/396/369 331/397/369
f 314/365/338 328/364/337 329/371/344 315/370/343
f 320/369/342 326/368/341 327/383/356 321/382/355
f 308/381/354 324/380/353 325/379/352 309/378/351
f 299/385/358 322/367/340 323/376/349 300/386/359
f 306/389/362 324/380/353 327/383/356 317/394/367
f 300/386/359 323/376/349 325/379/352 305/388/361
f 318/395/368 326/368/341 329/371/344 311/391/364
f 312/392/365 328/364/337 322/367/340 299/385/358
f 310/390/363 298/384/357 331/397/370 333/398/370
f 316/393/366 310/390/363 333/398/371 332/399/371
f 304/387/360 316/393/366 332/399/372 330/396/372
f 364/400/373 350/401/374 337/402/375 358/403/376
f 362/404/377 356/405/378 351/406/379 365/407/380
f 355/408/381 343/409/382 338/410/383 349/411/384
f 359/412/385 339/413/386 345/414/387 361/415/388
f 360/416/389 344/417/390 357/418/391 363/419/392
f 334/420/393 335/421/394 336/422/395
f 337/402/375 338/410/383 339/413/386
f 340/423/396 341/424/397 342/425/398
f 343/409/382 344/417/390 345/414/387
f 346/426/399 347/427/400 348/428/401
f 349/411/384 350/401/374 351/406/379
f 352/429/402 353/430/403 354/431/404
f 355/408/381 356/405/378 357/418/391
f 340/423/396 334/420/393 336/422/395 341/424/397
f 358/403/376 337/402/375 339/413/386 359/412/385
f 338/410/383 343/409/382 345/414/387 339/413/386
f 360/416/389 342/425/398 341/424/397 361/415/388
f 352/429/402 340/423/396 342/425/398 353/430/403
f 343/409/382 355/408/381 357/418/391 344/417/390
f 362/404/377 354/431/404 353/430/403 363/419/392
f 346/426/399 352/429/402 354/431/404 347/427/400
f 355/408/381 349/411/384 351/406/379 356/405/378
f 364/400/373 348/428/401 347/427/400 365/407/380
f 334/420/393 346/426/399 348/428/401 335/421/394
f 349/411/384 338/410/383 337/402/375 350/401/374
f 350/401/374 364/400/373 365/407/380 351/406/379
f 356/405/378 362/404/377 363/419/392 357/418/391
f 344/417/390 360/416/389 361/415/388 345/414/387
f 335/421/394 358/403/376 359/412/385 336/422/395
f 342/425/398 360/416/389 363/419/392 353/430/403
f 336/422/395 359/412/385 361/415/388 341/424/397
f 354/431/404 362/404/377 365/407/380 347/427/400
f 348/428/401 364/400/373 358/403/376 335/421/394
f 340/423/396 352/429/402 346/426/399 334/420/393
f 396/432/405 382/433/406 369/434/407 390/435/408
f 394/436/409 388/437/410 383/438/411 397/439/412
f 387/440/413 375/441/414 370/442/415 381/443/416
f 391/444/417 371/445/418 377/446/419 393/447/420
f 392/448/421 376/449/422 389/450/423 395/451/424
f 366/452/425 367/453/426 368/454/427
f 369/434/407 370/442/415 371/445/418
f 372/455/428 373/456/429 374/457/430
f 375/441/414 376/449/422 377/446/419
f 378/458/431 379/459/432 380/460/433
f 381/443/416 382/433/406 383/438/411
f 384/461/434 385/462/435 386/463/436
f 387/440/413 388/437/410 389/450/423
f 372/455/428 366/452/425 368/454/427 373/456/429
f 390/435/408 369/434/407 371/445/418 391/444/417
f 370/442/415 375/441/414 377/446/419 371/445/418
f 392/448/421 374/457/430 373/456/429 393/447/420
f 384/461/434 372/455/428 374/457/430 385/462/435
f 375/441/414 387/440/413 389/450/423 376/449/422
f 394/436/409 386/463/436 385/462/435 395/451/424
f 378/458/431 384/461/434 386/463/436 379/459/432
f 387/440/413 381/443/416 383/438/411 388/437/410
f 396/432/405 380/460/433 379/459/432 397/439/412
f 366/452/425 378/458/431 380/460/433 367/453/426
f 381/443/416 370/442/415 369/434/407 382/433/406
f 366/452/425 372/455/428 398/464/437 399/465/437
f 382/433/406 396/432/405 397/439/412 383/438/411
f 388/437/410 394/436/409 395/451/424 389/450/423
f 376/449/422 392/448/421 393/447/420 377/446/419
f 367/453/426 390/435/408 391/444/417 368/454/427
f 374/457/430 392/448/421 395/451/424 385/462/435
f 368/454/427 391/444/417 393/447/420 373/456/429
f 386/463/436 394/436/409 397/439/412 379/459/432
f 380/460/433 396/432/405 390/435/408 367/453/426
f 378/458/431 366/452/425 399/465/438 401/466/438
f 384/461/434 378/458/431 401/466/439 400/467/439
f 372/455/428 384/461/434 400/467/440 398/464/440
f 432/468/441 418/469/442 405/470/443 426/471/444
f 430/472/445 424/473/446 419/474/447 433/475/448
f 423/476/449 411/477/450 406/478/451 417/479/452
f 427/480/453 407/481/454 413/482/455 429/483/456
f 428/484/457 412/485/458 425/486/459 431/487/460
f 402/488/461 403/489/462 404/490/463
f 405/470/443 406/478/451 407/481/454
f 408/491/464 409/492/465 410/493/466
f 411/477/450 412/485/458 413/482/455
f 414/494/467 415/495/468 416/496/469
f 417/479/452 418/469/442 419/474/447
f 420/497/470 421/498/471 422/499/472
f 423/476/449 424/473/446 425/486/459
f 408/491/464 402/488/461 404/490/463 409/492/465
f 426/471/444 405/470/443 407/481/454 427/480/453
f 406/478/451 411/477/450 413/482/455 407/481/454
f 428/484/457 410/493/466 409/492/465 429/483/456
f 420/497/470 408/491/464 410/493/466 421/498/471
f 411/477/450 423/476/449 425/486/459 412/485/458
f 430/472/445 422/499/472 421/498/471 431/487/460
f 414/494/467 420/497/470 422/499/472 415/495/468
f 423/476/449 417/479/452 419/474/447 424/473/446
f 432/468/441 416/496/469 415/495/468 433/475/448
f 402/488/461 414/494/467 416/496/469 403/489/462
f 417/479/452 406/478/451 405/470/443 418/469/442
f 402/488/461 408/491/464 434/500/473 435/501/473
f 418/469/442 432/468/441 433/475/448 419/474/447
f 424/473/446 430/472/445 431/487/460 425/486/459
f 412/485/458 428/484/457 429/483/456 413/482/455
f 403/489/462 426/471/444 427/480/453 404/490/463
f 410/493/466 428/484/457 431/487/460 421/498/471
f 404/490/463 427/480/453 429/483/456 409/492/465
f 422/499/472 430/472/445 433/475/448 415/495/468
f 416/496/469 432/468/441 426/471/444 403/489/462
f 414/494/467 402/488/461 435/501/474 437/502/474
f 420/497/470 414/494/467 437/502/475 436/503/475
f 408/491/464 420/497/470 436/503/476 434/500/476
f 468/504/477 454/505/478 441/506/479 462/507/480
f 466/508/481 460/509/482 455/510/483 469/511/484
f 459/512/485 447/513/486 442/514/487 453/515/488
f 463/516/489 443/517/490 449/518/491 465/519/492
f 464/520/493 448/521/494 461/522/495 467/523/496
f 438/524/497 439/525/498 440/526/499
f 441/506/479 442/514/487 443/517/490
f 444/527/500 445/528/501 446/529/502
f 447/513/486 448/521/494 449/518/491
f 450/530/503 451/531/504 452/532/505
f 453/515/488 454/505/478 455/510/483
f 456/533/506 457/534/507 458/535/508
f 459/512/485 460/509/482 461/522/495
f 444/527/500 438/524/497 440/526/499 445/528/501
f 462/507/480 441/506/479 443/517/490 463/516/489
f 442/514/487 447/513/486 449/518/491 443/517/490
f 464/520/493 446/529/502 445/528/501 465/519/492
f 456/533/506 444/527/500 446/529/502 457/534/507
f 447/513/486 459/512/485 461/522/495 448/521/494
f 466/508/481 458/535/508 457/534/507 467/523/496
f 450/530/503 456/533/506 458/535/508 451/531/504
f 459/512/485 453/515/488 455/510/483 460/509/482
f 468/504/477 452/532/505 451/531/504 469/511/484
f 438/524/497 450/530/503 452/532/505 439/525/498
f 453/515/488 442/514/487 441/506/479 454/505/478
f 438/524/497 444/527/500 470/536/509 471/537/509
f 454/505/478 468/504/477 469/511/484 455/510/483
f 460/509/482 466/508/481 467/523/496 461/522/495
f 448/521/494 464/520/493 465/519/492 449/518/491
f 439/525/498 462/507/480 463/516/489 440/526/499
f 446/529/502 464/520/493 467/523/496 457/534/507
f 440/526/499 463/516/489 465/519/492 445/528/501
f 458/535/508 466/508/481 469/511/484 451/531/504
f 452/532/505 468/504/477 462/507/480 439/525/498
f 450/530/503 438/524/497 471/537/510 473/538/510
f 456/533/506 450/530/503 473/538/511 472/539/511
f 444/527/500 456/533/506 472/539/512 470/536/512
f 3/540/513 474/1/1 475/4/4
f 3/541/513 475/4/4 476/6/6
f 3/542/513 476/6/6 477/8/8
f 3/543/513 477/8/8 478/12/12
f 3/544/513 478/12/12 474/1/1
