# Blender v3.4.1 OBJ File: 'MixedBag1_Export.blend'
# www.blender.org
mtllib flax_flower_B.mtl
o flax_flower_B
v 0.009333 0.268112 -0.015421
v 0.008724 0.266279 0.003769
v -0.000000 -0.024896 -0.000000
v -0.009763 0.266977 0.009245
v -0.020573 0.269252 -0.006561
v -0.008772 0.269960 -0.021803
v 0.016805 0.516020 0.015585
v 0.017416 0.517904 -0.003600
v -0.001675 0.516739 0.021060
v -0.012474 0.519067 0.005274
v -0.000649 0.519783 -0.009928
v 0.065278 0.725342 0.086439
v 0.066145 0.729329 0.067629
v 0.046896 0.726865 0.092056
v 0.036405 0.731793 0.076722
v 0.048309 0.733315 0.061634
v 0.009648 0.432208 0.009421
v 0.012632 0.425513 -0.005289
v -0.005307 0.427270 0.014630
v -0.011634 0.417607 0.003055
v -0.000515 0.416489 -0.009215
v -0.059897 0.548077 -0.067966
v -0.056005 0.540277 -0.078000
v -0.071287 0.543199 -0.063157
v -0.074531 0.532500 -0.070340
v -0.065061 0.530664 -0.079483
v 0.018290 0.681851 0.012512
v 0.023052 0.688702 0.003888
v 0.019963 0.693501 0.014852
v 0.010011 0.707981 -0.006126
v 0.002668 0.712305 -0.005217
v 0.007852 0.711335 0.001538
v 0.005035 0.681851 0.021581
v 0.006609 0.693501 0.023988
v -0.004729 0.688702 0.022894
v -0.005829 0.712305 0.000596
v -0.009337 0.707981 0.007111
v -0.001411 0.711335 0.007876
v 0.010710 0.673033 0.001434
v 0.004078 0.675021 -0.008367
v 0.015416 0.679819 -0.007273
v -0.002191 0.706653 -0.012318
v 0.004714 0.701818 -0.013868
v -0.003211 0.698464 -0.014633
v -0.002545 0.673033 0.010502
v -0.012365 0.679819 0.011732
v -0.009276 0.675021 0.000769
v -0.010687 0.706653 -0.006506
v -0.012475 0.698464 -0.008296
v -0.014634 0.701818 -0.000632
v 0.019864 0.700011 -0.003047
v 0.016293 0.705559 0.009630
v -0.010038 0.700011 0.017410
v 0.003071 0.705559 0.018675
v -0.014027 0.685668 -0.006318
v -0.017598 0.691216 0.006359
v 0.012304 0.691216 -0.014098
v -0.000806 0.685668 -0.015363
v 0.021837 0.624547 0.044315
v 0.033390 0.624547 0.036411
v 0.014434 0.619648 0.033493
v 0.025986 0.619648 0.025589
v -0.044813 0.545856 -0.067347
v -0.039074 0.561083 -0.088798
v -0.048408 0.572288 -0.068306
v -0.076591 0.596062 -0.120917
v -0.093915 0.602648 -0.121663
v -0.083087 0.603862 -0.106554
v -0.072123 0.542658 -0.049603
v -0.075876 0.569015 -0.050368
v -0.096313 0.554383 -0.051611
v -0.111414 0.600590 -0.110279
v -0.116398 0.591331 -0.094940
v -0.102161 0.601615 -0.094138
v -0.055006 0.522106 -0.087305
v -0.069896 0.522651 -0.110302
v -0.049478 0.537305 -0.109085
v -0.100484 0.587463 -0.134503
v -0.083751 0.579505 -0.134914
v -0.098049 0.569287 -0.135797
v -0.082348 0.518944 -0.069603
v -0.106636 0.530515 -0.071789
v -0.097499 0.519526 -0.092543
v -0.118017 0.585442 -0.123164
v -0.117169 0.567090 -0.123442
v -0.123599 0.574818 -0.108991
v -0.052095 0.583216 -0.109614
v -0.062859 0.596140 -0.085882
v -0.113683 0.575977 -0.069555
v -0.090060 0.592905 -0.068129
v -0.113340 0.539643 -0.113533
v -0.123936 0.552382 -0.089576
v -0.062402 0.559680 -0.129707
v -0.086034 0.542760 -0.131145
v -0.041637 0.548108 -0.040295
v -0.045279 0.555454 -0.032750
v -0.047177 0.557056 -0.043955
v -0.037419 0.577631 -0.032679
v -0.032844 0.582634 -0.036847
v -0.038746 0.578751 -0.040512
v -0.033090 0.548308 -0.052516
v -0.038567 0.557258 -0.056267
v -0.027367 0.555874 -0.058362
v -0.027366 0.582762 -0.044681
v -0.024944 0.577923 -0.050517
v -0.032773 0.578891 -0.049053
v -0.029603 0.545363 -0.031924
v -0.021956 0.551305 -0.026411
v -0.033155 0.552689 -0.024316
v -0.025130 0.580875 -0.031481
v -0.029009 0.575713 -0.026829
v -0.021180 0.574746 -0.028293
v -0.021056 0.545564 -0.044145
v -0.015243 0.553109 -0.049928
v -0.013345 0.551507 -0.038723
v -0.019652 0.581003 -0.039315
v -0.015207 0.574886 -0.036833
v -0.016534 0.576006 -0.044667
v -0.044096 0.567821 -0.030263
v -0.046291 0.569674 -0.043220
v -0.024816 0.568273 -0.057832
v -0.037766 0.569873 -0.055410
v -0.010618 0.563683 -0.036525
v -0.012813 0.565535 -0.049482
v -0.032093 0.565084 -0.021913
v -0.019143 0.563483 -0.024335
v -0.036192 0.489086 -0.054486
v -0.043641 0.488911 -0.043835
v -0.025552 0.489586 -0.047037
v -0.033001 0.489411 -0.036386
v 0.015349 0.351426 0.016322
v 0.014346 0.356922 0.025964
v 0.013908 0.362469 0.015925
v 0.030097 0.373211 0.032302
v 0.036491 0.377088 0.029578
v 0.029791 0.377089 0.025284
v 0.024058 0.352053 0.004231
v 0.022681 0.363101 0.003744
v 0.032597 0.358236 0.000623
v 0.042074 0.377490 0.021828
v 0.042809 0.374126 0.014653
v 0.035877 0.377527 0.016834
v 0.024863 0.341860 0.022678
v 0.033847 0.342420 0.029246
v 0.023931 0.347284 0.032367
v 0.042590 0.370956 0.033653
v 0.036746 0.366526 0.036744
v 0.043678 0.363125 0.034562
v 0.033571 0.342487 0.010587
v 0.042182 0.348599 0.007026
v 0.042621 0.343052 0.017065
v 0.048172 0.371358 0.025902
v 0.049764 0.363563 0.026112
v 0.049458 0.367441 0.019095
v 0.020029 0.366486 0.032026
v 0.019523 0.372900 0.020418
v 0.039675 0.367901 0.004749
v 0.028209 0.373525 0.008358
v 0.049672 0.351945 0.022696
v 0.049165 0.358359 0.011089
v 0.029519 0.356944 0.038366
v 0.040985 0.351319 0.034757
v -0.001415 0.302235 -0.015518
v -0.009005 0.301688 -0.004980
v 0.008117 0.296313 -0.008960
v 0.000527 0.295766 0.001578
v -0.034918 0.218250 -0.019113
v -0.035271 0.225186 -0.027827
v -0.035871 0.229164 -0.017078
v -0.054248 0.238468 -0.031958
v -0.061280 0.240442 -0.028798
v -0.054668 0.241249 -0.024444
v -0.043363 0.215214 -0.007202
v -0.044380 0.226106 -0.005077
v -0.052971 0.218824 -0.002863
v -0.066694 0.238496 -0.021163
v -0.066576 0.234037 -0.014572
v -0.060570 0.239127 -0.016120
v -0.042259 0.207905 -0.026955
v -0.051259 0.207482 -0.033514
v -0.042667 0.214764 -0.035728
v -0.065987 0.233810 -0.033825
v -0.059379 0.231238 -0.037439
v -0.065385 0.226148 -0.035891
v -0.050705 0.204869 -0.015044
v -0.060368 0.208402 -0.010764
v -0.059767 0.204424 -0.021513
v -0.071400 0.231864 -0.026190
v -0.071287 0.224026 -0.027567
v -0.071707 0.226807 -0.020052
v -0.042969 0.234093 -0.032511
v -0.043664 0.238692 -0.020081
v -0.062022 0.227244 -0.005640
v -0.052088 0.235664 -0.008200
v -0.068650 0.212326 -0.025891
v -0.069345 0.216925 -0.013462
v -0.050292 0.223774 -0.040333
v -0.060226 0.215354 -0.037773
v -0.007487 0.169672 0.005430
v -0.000126 0.172318 -0.004952
v -0.015631 0.162871 -0.002078
v -0.008271 0.165517 -0.012460
v 0.016659 -0.016407 -0.011397
v 0.015987 -0.016407 0.012322
v -0.006778 -0.016407 0.019012
v -0.020176 -0.016407 -0.000572
v -0.005691 -0.016407 -0.019365
v 0.053178 0.686054 0.125175
v -0.009630 0.730136 0.074683
v -0.026476 0.693899 0.230505
v -0.088832 0.737664 0.180375
v 0.001511 0.684324 0.211307
v 0.027360 0.680792 0.176132
v -0.053064 0.737239 0.111477
v -0.078867 0.740738 0.146689
v 0.031439 0.696821 0.078064
v -0.065312 0.709990 0.209910
v -0.013466 0.700930 0.137508
v -0.042311 0.704856 0.176817
v 0.040288 0.707072 0.182994
v 0.063090 0.700531 0.125483
v 0.044366 0.723100 0.084926
v 0.000283 0.744612 0.074991
v -0.065939 0.767017 0.153551
v -0.076520 0.762691 0.186911
v -0.052385 0.736269 0.216772
v -0.014164 0.718926 0.237040
v 0.014439 0.710603 0.218169
v -0.040137 0.763518 0.118339
v 0.000727 0.728403 0.143840
v -0.028119 0.732329 0.183148
v 0.045977 0.685719 0.188118
v 0.017704 0.689703 0.226131
v -0.090814 0.753615 0.185812
v -0.085429 0.762087 0.143220
v -0.057633 0.758439 0.104824
v -0.006716 0.734811 0.062923
v -0.020223 0.704070 0.242562
v -0.067387 0.724291 0.224976
v 0.047898 0.708600 0.067874
v 0.065275 0.684284 0.120799
v -0.006352 0.717755 0.094399
v 0.035735 0.751939 0.020253
v -0.106084 0.802828 0.076602
v -0.064300 0.836766 0.002988
v -0.088178 0.775908 0.090681
v -0.055659 0.747038 0.095871
v -0.001767 0.790811 0.000928
v -0.034317 0.819655 -0.004208
v 0.027438 0.711934 0.053997
v -0.094448 0.820041 0.034653
v -0.029018 0.759672 0.043961
v -0.065356 0.791903 0.038194
v -0.040980 0.766701 0.113269
v 0.005229 0.725931 0.104742
v 0.042117 0.731597 0.071395
v 0.047315 0.760115 0.030596
v -0.019638 0.839318 0.013190
v -0.050320 0.855493 0.019558
v -0.079769 0.839704 0.052051
v -0.092104 0.821555 0.093171
v -0.073499 0.795571 0.108078
v 0.012912 0.810474 0.018326
v -0.012823 0.779585 0.062334
v -0.049162 0.811816 0.056567
v -0.055381 0.749934 0.118368
v -0.090539 0.781389 0.112481
v -0.059616 0.852863 0.005608
v -0.021431 0.837521 -0.009270
v 0.014047 0.806325 -0.003947
v 0.048125 0.749061 0.017640
v -0.106918 0.814443 0.088943
v -0.097865 0.839413 0.041645
v 0.047369 0.710597 0.064694
v -0.000116 0.709879 0.102628
v 0.015027 0.750163 0.031244
v 0.103846 0.727208 0.035912
v 0.044692 0.846116 -0.054859
v 0.132873 0.823326 -0.050225
v 0.024507 0.824701 -0.035429
v 0.014623 0.792216 -0.007771
v 0.128355 0.762823 -0.001794
v 0.138173 0.795324 -0.029456
v 0.052715 0.714102 0.040581
v 0.089621 0.835830 -0.063041
v 0.069233 0.768100 -0.008186
v 0.080237 0.804392 -0.039080
v 0.018237 0.810930 0.015500
v 0.016069 0.757434 0.047180
v 0.056329 0.732816 0.063852
v 0.104888 0.734480 0.051847
v 0.141787 0.814038 -0.006185
v 0.136314 0.841148 -0.028062
v 0.093235 0.854544 -0.039771
v 0.048134 0.863938 -0.032697
v 0.028121 0.843415 -0.012159
v 0.131968 0.781537 0.021477
v 0.072781 0.786928 0.016899
v 0.083784 0.823220 -0.013995
v -0.000178 0.805105 0.003603
v 0.010854 0.840290 -0.026405
v 0.141950 0.835790 -0.043144
v 0.156698 0.802597 -0.018741
v 0.146342 0.767237 0.011303
v 0.108230 0.719173 0.045123
v 0.042124 0.861590 -0.048390
v 0.094685 0.855929 -0.060550
v 0.050709 0.710883 0.062922
v 0.006425 0.745484 0.039773
v 0.087770 0.738491 0.022988
v 0.100576 0.690120 0.100018
v 0.217485 0.763939 0.017797
v 0.230199 0.715916 0.094274
v 0.183840 0.763273 0.007257
v 0.141079 0.753892 0.008435
v 0.157477 0.691954 0.107072
v 0.200229 0.701370 0.105837
v 0.072338 0.700329 0.056357
v 0.232518 0.735537 0.051836
v 0.145508 0.714567 0.053133
v 0.193264 0.725064 0.051785
v 0.136102 0.778636 0.024800
v 0.080630 0.751504 0.032347
v 0.067361 0.725073 0.072722
v 0.093436 0.703134 0.109377
v 0.195252 0.726113 0.122202
v 0.225459 0.739481 0.109860
v 0.227541 0.760281 0.068201
v 0.212746 0.787505 0.033383
v 0.178863 0.788016 0.023621
v 0.152500 0.716697 0.123437
v 0.139238 0.740285 0.070325
v 0.186994 0.750782 0.068977
v 0.135298 0.774988 0.002426
v 0.181762 0.785006 0.001408
v 0.235325 0.725991 0.106929
v 0.202790 0.705579 0.127896
v 0.156424 0.695193 0.129499
v 0.090536 0.686450 0.107391
v 0.220932 0.780356 0.020352
v 0.244165 0.751016 0.059620
v 0.053302 0.709064 0.065006
v 0.075857 0.741894 0.019097
v 0.111348 0.698870 0.081041
v 0.030444 0.691930 0.123980
v 0.173501 0.669864 0.194162
v 0.093178 0.662974 0.236793
v 0.169628 0.676515 0.159748
v 0.148951 0.685029 0.122093
v 0.045354 0.676142 0.177077
v 0.066090 0.667633 0.214701
v 0.059189 0.689649 0.079523
v 0.136763 0.657764 0.220530
v 0.094397 0.673053 0.143177
v 0.117525 0.663547 0.185217
v 0.149730 0.714447 0.128317
v 0.109691 0.716336 0.080741
v 0.059968 0.719068 0.085746
v 0.028787 0.709396 0.123681
v 0.066870 0.697052 0.220924
v 0.093921 0.690992 0.242720
v 0.137543 0.687182 0.226753
v 0.174243 0.697882 0.200089
v 0.170407 0.705934 0.165972
v 0.046133 0.705561 0.183301
v 0.094706 0.704115 0.148779
v 0.117834 0.694609 0.190818
v 0.163824 0.701204 0.116462
v 0.185995 0.691938 0.157484
v 0.091469 0.675203 0.248431
v 0.053147 0.680542 0.227994
v 0.030361 0.689755 0.187298
v 0.019495 0.696115 0.118393
v 0.182400 0.683003 0.200170
v 0.143999 0.669659 0.236085
v 0.051564 0.707652 0.068067
v 0.112229 0.704070 0.069174
v 0.063487 0.710330 0.062103
v 0.081416 0.765284 0.087892
v 0.054490 0.716645 0.054869
v 0.072328 0.771663 0.080586
v 0.072751 0.713427 0.053284
v 0.088990 0.763665 0.076943
v 0.063753 0.719742 0.046050
v 0.079993 0.769981 0.069710
v 0.100346 0.805435 0.101880
v 0.111478 0.810125 0.109388
v 0.099822 0.815539 0.111831
v 0.132749 0.848060 0.119048
v 0.130727 0.862194 0.115622
v 0.119835 0.853707 0.121580
v 0.089365 0.813142 0.093052
v 0.088465 0.823509 0.102701
v 0.087509 0.826948 0.090119
v 0.118193 0.870992 0.105545
v 0.106480 0.866497 0.097929
v 0.107442 0.862405 0.111617
v 0.109487 0.803604 0.088800
v 0.119995 0.811881 0.083346
v 0.120886 0.808421 0.095991
v 0.141548 0.860894 0.100996
v 0.143346 0.846708 0.104594
v 0.142439 0.850819 0.090855
v 0.098592 0.811251 0.080041
v 0.097076 0.825132 0.076849
v 0.108794 0.819743 0.074341
v 0.129037 0.869675 0.090938
v 0.130114 0.859470 0.080946
v 0.117147 0.865097 0.083532
v 0.042764 0.717090 0.058634
v 0.045138 0.758307 0.083528
v 0.039241 0.711250 0.069888
v 0.041321 0.752060 0.095585
v 0.030340 0.721011 0.056778
v 0.031870 0.757624 0.079026
v 0.026817 0.715171 0.068032
v 0.028140 0.751441 0.090940
v 0.042822 0.798823 0.102987
v 0.043929 0.812395 0.099307
v 0.050462 0.808558 0.110416
v 0.035615 0.852600 0.116522
v 0.030718 0.857663 0.129576
v 0.042645 0.848187 0.128415
v 0.037455 0.791507 0.117452
v 0.045239 0.801118 0.125035
v 0.032433 0.796513 0.130650
v 0.025509 0.849505 0.145407
v 0.024329 0.835481 0.149880
v 0.037363 0.840150 0.144068
v 0.025685 0.798527 0.097432
v 0.013520 0.808088 0.098540
v 0.026701 0.812249 0.093535
v 0.012792 0.857603 0.123926
v 0.017680 0.852594 0.110785
v 0.004515 0.848074 0.116395
v 0.020003 0.791116 0.112181
v 0.014669 0.796181 0.125399
v 0.007759 0.800466 0.113677
v 0.007651 0.849401 0.139806
v -0.000754 0.839927 0.132230
v 0.006408 0.835363 0.144327
v 0.048532 0.705266 0.077546
v 0.058307 0.755875 0.114569
v 0.061147 0.705250 0.073785
v 0.072008 0.756120 0.109947
v 0.051855 0.699044 0.088669
v 0.060931 0.744691 0.123518
v 0.064470 0.699028 0.084908
v 0.074754 0.744644 0.119344
v 0.066830 0.787624 0.148176
v 0.059229 0.794179 0.159419
v 0.067230 0.802011 0.149740
v 0.068289 0.822204 0.192078
v 0.080646 0.829012 0.196571
v 0.076385 0.830027 0.182378
v 0.083380 0.787873 0.142595
v 0.084034 0.802147 0.144252
v 0.095120 0.794597 0.147468
v 0.098452 0.828864 0.191178
v 0.106032 0.822022 0.180430
v 0.094141 0.829951 0.176883
v 0.069924 0.773806 0.159751
v 0.074018 0.772408 0.174657
v 0.062363 0.780210 0.171234
v 0.084089 0.815008 0.208327
v 0.071732 0.808199 0.203835
v 0.083689 0.800235 0.207416
v 0.086686 0.774154 0.153919
v 0.098625 0.780779 0.158884
v 0.091191 0.772695 0.168770
v 0.101895 0.814859 0.202935
v 0.101495 0.800089 0.202019
v 0.109534 0.807947 0.192282
vt 0.428634 0.093579
vt 0.428634 0.130801
vt 0.420819 0.130801
vt 0.420819 0.093579
vt 0.423804 0.130801
vt 0.423804 0.093579
vt 0.433464 0.130801
vt 0.433464 0.093579
vt 0.420819 0.130801
vt 0.423804 0.130801
vt 0.436449 0.130801
vt 0.436449 0.093579
vt 0.420819 0.130801
vt 0.423804 0.130801
vt 0.436449 0.130801
vt 0.428634 0.130801
vt 0.433464 0.130801
vt 0.436449 0.130801
vt 0.428634 0.130801
vt 0.433464 0.130801
vt 0.423804 0.130801
vt 0.420819 0.130801
vt 0.420819 0.130801
vt 0.423804 0.130801
vt 0.428634 0.130801
vt 0.436449 0.130801
vt 0.436449 0.130801
vt 0.428634 0.130801
vt 0.433464 0.130801
vt 0.433464 0.130801
vt 0.462657 0.225901
vt 0.459199 0.237780
vt 0.443009 0.237780
vt 0.439550 0.225901
vt 0.477234 0.225901
vt 0.468011 0.237780
vt 0.468011 0.237780
vt 0.477234 0.225901
vt 0.458529 0.243637
vt 0.443679 0.243637
vt 0.443679 0.243637
vt 0.458529 0.243637
vt 0.424973 0.225901
vt 0.434196 0.237780
vt 0.434196 0.237780
vt 0.424973 0.225901
vt 0.439550 0.225901
vt 0.443009 0.237780
vt 0.459199 0.237780
vt 0.462657 0.225901
vt 0.439521 0.132250
vt 0.439434 0.152340
vt 0.426828 0.152340
vt 0.439521 0.132250
vt 0.426828 0.152340
vt 0.439434 0.152340
vt 0.462687 0.132250
vt 0.475380 0.152340
vt 0.462773 0.152340
vt 0.462687 0.132250
vt 0.462773 0.152340
vt 0.475380 0.152340
vt 0.441781 0.130526
vt 0.441781 0.130526
vt 0.460426 0.130526
vt 0.460426 0.130526
vt 0.462657 0.225901
vt 0.459199 0.237780
vt 0.443009 0.237780
vt 0.439550 0.225901
vt 0.477234 0.225901
vt 0.468011 0.237780
vt 0.468011 0.237780
vt 0.477234 0.225901
vt 0.458529 0.243637
vt 0.443679 0.243637
vt 0.443679 0.243637
vt 0.458529 0.243637
vt 0.424973 0.225901
vt 0.434196 0.237780
vt 0.434196 0.237780
vt 0.424973 0.225901
vt 0.439550 0.225901
vt 0.443009 0.237780
vt 0.459199 0.237780
vt 0.462657 0.225901
vt 0.439521 0.132250
vt 0.439434 0.152340
vt 0.426828 0.152340
vt 0.439521 0.132250
vt 0.426828 0.152340
vt 0.439434 0.152340
vt 0.462687 0.132250
vt 0.475380 0.152340
vt 0.462773 0.152340
vt 0.462687 0.132250
vt 0.462773 0.152340
vt 0.475380 0.152340
vt 0.462657 0.225901
vt 0.459199 0.237780
vt 0.443009 0.237780
vt 0.439550 0.225901
vt 0.477234 0.225901
vt 0.468011 0.237780
vt 0.468011 0.237780
vt 0.477234 0.225901
vt 0.458529 0.243637
vt 0.443679 0.243637
vt 0.443679 0.243637
vt 0.458529 0.243637
vt 0.424973 0.225901
vt 0.434196 0.237780
vt 0.434196 0.237780
vt 0.424973 0.225901
vt 0.439550 0.225901
vt 0.443009 0.237780
vt 0.459199 0.237780
vt 0.462657 0.225901
vt 0.439521 0.132250
vt 0.439434 0.152340
vt 0.426828 0.152340
vt 0.439521 0.132250
vt 0.426828 0.152340
vt 0.439434 0.152340
vt 0.462687 0.132250
vt 0.475380 0.152340
vt 0.462773 0.152340
vt 0.462687 0.132250
vt 0.462773 0.152340
vt 0.475380 0.152340
vt 0.441781 0.113923
vt 0.441781 0.113923
vt 0.460426 0.113923
vt 0.460426 0.113923
vt 0.462657 0.225901
vt 0.459199 0.237780
vt 0.443009 0.237780
vt 0.439550 0.225901
vt 0.477234 0.225901
vt 0.468011 0.237780
vt 0.468011 0.237780
vt 0.477234 0.225901
vt 0.458529 0.243637
vt 0.443679 0.243637
vt 0.443679 0.243637
vt 0.458529 0.243637
vt 0.424973 0.225901
vt 0.434196 0.237780
vt 0.434196 0.237780
vt 0.424973 0.225901
vt 0.439550 0.225901
vt 0.443009 0.237780
vt 0.459199 0.237780
vt 0.462657 0.225901
vt 0.439521 0.132250
vt 0.439434 0.152340
vt 0.426828 0.152340
vt 0.439521 0.132250
vt 0.426828 0.152340
vt 0.439434 0.152340
vt 0.462687 0.132250
vt 0.475380 0.152340
vt 0.462773 0.152340
vt 0.462687 0.132250
vt 0.462773 0.152340
vt 0.475380 0.152340
vt 0.441781 0.105134
vt 0.441781 0.105134
vt 0.460426 0.105134
vt 0.460426 0.105134
vt 0.462657 0.225901
vt 0.459199 0.237780
vt 0.443009 0.237780
vt 0.439550 0.225901
vt 0.477234 0.225901
vt 0.468011 0.237780
vt 0.468011 0.237780
vt 0.477234 0.225901
vt 0.458529 0.243637
vt 0.443679 0.243637
vt 0.443679 0.243637
vt 0.458529 0.243637
vt 0.424973 0.225901
vt 0.434196 0.237780
vt 0.434196 0.237780
vt 0.424973 0.225901
vt 0.439550 0.225901
vt 0.443009 0.237780
vt 0.459199 0.237780
vt 0.462657 0.225901
vt 0.439521 0.132250
vt 0.439434 0.152340
vt 0.426828 0.152340
vt 0.439521 0.132250
vt 0.426828 0.152340
vt 0.439434 0.152340
vt 0.462687 0.132250
vt 0.475380 0.152340
vt 0.462773 0.152340
vt 0.462687 0.132250
vt 0.462773 0.152340
vt 0.475380 0.152340
vt 0.441781 0.113435
vt 0.441781 0.113435
vt 0.460426 0.113435
vt 0.460426 0.113435
vt 0.428634 0.093579
vt 0.423511 0.093579
vt 0.425468 0.093579
vt 0.431801 0.093579
vt 0.433758 0.093579
vt 0.313179 0.369467
vt 0.313179 0.405148
vt 0.339642 0.401498
vt 0.347291 0.369665
vt 0.313179 0.297926
vt 0.313179 0.322724
vt 0.347310 0.325039
vt 0.339834 0.304494
vt 0.279047 0.325039
vt 0.279066 0.369665
vt 0.286523 0.304494
vt 0.286715 0.401498
vt 0.313179 0.400291
vt 0.347291 0.400400
vt 0.339642 0.416018
vt 0.313179 0.419669
vt 0.313179 0.311089
vt 0.339834 0.317656
vt 0.347310 0.338202
vt 0.313179 0.335887
vt 0.279047 0.338202
vt 0.279066 0.400400
vt 0.286523 0.317656
vt 0.286715 0.416018
vt 0.269410 0.401735
vt 0.269207 0.337790
vt 0.356948 0.401735
vt 0.343137 0.419274
vt 0.343731 0.314904
vt 0.357150 0.337790
vt 0.313179 0.426584
vt 0.283220 0.419274
vt 0.282626 0.314904
vt 0.313179 0.303750
vt 0.343731 0.301741
vt 0.313179 0.290588
vt 0.313179 0.412064
vt 0.343137 0.404754
vt 0.269410 0.387215
vt 0.283220 0.404754
vt 0.356948 0.387215
vt 0.357150 0.324628
vt 0.282626 0.301741
vt 0.269207 0.324628
vt 0.313179 0.369467
vt 0.313179 0.405148
vt 0.339642 0.401498
vt 0.347291 0.369665
vt 0.313179 0.297926
vt 0.313179 0.322724
vt 0.347310 0.325039
vt 0.339834 0.304494
vt 0.279047 0.325039
vt 0.279066 0.369665
vt 0.286523 0.304494
vt 0.286715 0.401498
vt 0.313179 0.400291
vt 0.347291 0.400400
vt 0.339642 0.416018
vt 0.313179 0.419669
vt 0.313179 0.311089
vt 0.339834 0.317656
vt 0.347310 0.338202
vt 0.313179 0.335887
vt 0.279047 0.338202
vt 0.279066 0.400400
vt 0.286523 0.317656
vt 0.286715 0.416018
vt 0.269410 0.401735
vt 0.269207 0.337790
vt 0.356948 0.401735
vt 0.343137 0.419274
vt 0.343731 0.314904
vt 0.357150 0.337790
vt 0.313179 0.426584
vt 0.283220 0.419274
vt 0.282626 0.314904
vt 0.313179 0.303750
vt 0.343731 0.301741
vt 0.313179 0.290588
vt 0.313179 0.412064
vt 0.343137 0.404754
vt 0.269410 0.387215
vt 0.283220 0.404754
vt 0.356948 0.387215
vt 0.357150 0.324628
vt 0.282626 0.301741
vt 0.269207 0.324628
vt 0.313179 0.369467
vt 0.313179 0.405148
vt 0.339642 0.401498
vt 0.347291 0.369665
vt 0.313179 0.297926
vt 0.313179 0.322724
vt 0.347310 0.325039
vt 0.339834 0.304494
vt 0.279047 0.325039
vt 0.279066 0.369665
vt 0.286523 0.304494
vt 0.286715 0.401498
vt 0.313179 0.400291
vt 0.347291 0.400400
vt 0.339642 0.416018
vt 0.313179 0.419669
vt 0.313179 0.311089
vt 0.339834 0.317656
vt 0.347310 0.338202
vt 0.313179 0.335887
vt 0.279047 0.338202
vt 0.279066 0.400400
vt 0.286523 0.317656
vt 0.286715 0.416018
vt 0.269410 0.401735
vt 0.269207 0.337790
vt 0.356948 0.401735
vt 0.343137 0.419274
vt 0.343731 0.314904
vt 0.357150 0.337790
vt 0.313179 0.426584
vt 0.283220 0.419274
vt 0.282626 0.314904
vt 0.313179 0.303750
vt 0.343731 0.301741
vt 0.313179 0.290588
vt 0.313179 0.412064
vt 0.343137 0.404754
vt 0.269410 0.387215
vt 0.283220 0.404754
vt 0.356948 0.387215
vt 0.357150 0.324628
vt 0.282626 0.301741
vt 0.269207 0.324628
vt 0.313179 0.369467
vt 0.313179 0.405148
vt 0.339642 0.401498
vt 0.347291 0.369665
vt 0.313179 0.297926
vt 0.313179 0.322724
vt 0.347310 0.325039
vt 0.339834 0.304494
vt 0.279047 0.325039
vt 0.279066 0.369665
vt 0.286523 0.304494
vt 0.286715 0.401498
vt 0.313179 0.400291
vt 0.347291 0.400400
vt 0.339642 0.416018
vt 0.313179 0.419669
vt 0.313179 0.311089
vt 0.339834 0.317656
vt 0.347310 0.338202
vt 0.313179 0.335887
vt 0.279047 0.338202
vt 0.279066 0.400400
vt 0.286523 0.317656
vt 0.286715 0.416018
vt 0.269410 0.401735
vt 0.269207 0.337790
vt 0.356948 0.401735
vt 0.343137 0.419274
vt 0.343731 0.314904
vt 0.357150 0.337790
vt 0.313179 0.426584
vt 0.283220 0.419274
vt 0.282626 0.314904
vt 0.313179 0.303750
vt 0.343731 0.301741
vt 0.313179 0.290588
vt 0.313179 0.412064
vt 0.343137 0.404754
vt 0.269410 0.387215
vt 0.283220 0.404754
vt 0.356948 0.387215
vt 0.357150 0.324628
vt 0.282626 0.301741
vt 0.269207 0.324628
vt 0.313179 0.369467
vt 0.313179 0.405148
vt 0.339642 0.401498
vt 0.347291 0.369665
vt 0.313179 0.297926
vt 0.313179 0.322724
vt 0.347310 0.325039
vt 0.339834 0.304494
vt 0.279047 0.325039
vt 0.279066 0.369665
vt 0.286523 0.304494
vt 0.286715 0.401498
vt 0.313179 0.400291
vt 0.347291 0.400400
vt 0.339642 0.416018
vt 0.313179 0.419669
vt 0.313179 0.311089
vt 0.339834 0.317656
vt 0.347310 0.338202
vt 0.313179 0.335887
vt 0.279047 0.338202
vt 0.279066 0.400400
vt 0.286523 0.317656
vt 0.286715 0.416018
vt 0.269410 0.401735
vt 0.269207 0.337790
vt 0.356948 0.401735
vt 0.343137 0.419274
vt 0.343731 0.314904
vt 0.357150 0.337790
vt 0.313179 0.426584
vt 0.283220 0.419274
vt 0.282626 0.314904
vt 0.313179 0.303750
vt 0.343731 0.301741
vt 0.313179 0.290588
vt 0.313179 0.412064
vt 0.343137 0.404754
vt 0.269410 0.387215
vt 0.283220 0.404754
vt 0.356948 0.387215
vt 0.357150 0.324628
vt 0.282626 0.301741
vt 0.269207 0.324628
vt 0.421007 0.042328
vt 0.421007 0.076811
vt 0.421007 0.076811
vt 0.421007 0.042328
vt 0.434178 0.076811
vt 0.434178 0.042328
vt 0.434178 0.076811
vt 0.434178 0.042328
vt 0.455646 0.152609
vt 0.455646 0.152609
vt 0.927721 0.624627
vt 0.927721 0.663272
vt 0.911211 0.663272
vt 0.911211 0.624627
vt 0.937011 0.624627
vt 0.937011 0.663272
vt 0.937011 0.663272
vt 0.937011 0.624627
vt 0.927721 0.672562
vt 0.911211 0.672562
vt 0.911211 0.672562
vt 0.927721 0.672562
vt 0.901921 0.624627
vt 0.901921 0.663272
vt 0.901921 0.663272
vt 0.901921 0.624627
vt 0.911211 0.624627
vt 0.911211 0.663272
vt 0.927721 0.663272
vt 0.927721 0.624627
vt 0.911211 0.615336
vt 0.911211 0.615336
vt 0.927721 0.615336
vt 0.927721 0.615336
vt 0.441253 0.156597
vt 0.441253 0.156597
vt 0.421007 0.042328
vt 0.421007 0.076811
vt 0.421007 0.076811
vt 0.421007 0.042328
vt 0.434178 0.076811
vt 0.434178 0.042328
vt 0.434178 0.076811
vt 0.434178 0.042328
vt 0.455646 0.152609
vt 0.455646 0.152609
vt 0.927721 0.624627
vt 0.927721 0.663272
vt 0.911211 0.663272
vt 0.911211 0.624627
vt 0.937011 0.624627
vt 0.937011 0.663272
vt 0.937011 0.663272
vt 0.937011 0.624627
vt 0.927721 0.672562
vt 0.911211 0.672562
vt 0.911211 0.672562
vt 0.927721 0.672562
vt 0.901921 0.624627
vt 0.901921 0.663272
vt 0.901921 0.663272
vt 0.901921 0.624627
vt 0.911211 0.624627
vt 0.911211 0.663272
vt 0.927721 0.663272
vt 0.927721 0.624627
vt 0.911211 0.615336
vt 0.911211 0.615336
vt 0.927721 0.615336
vt 0.927721 0.615336
vt 0.441253 0.156597
vt 0.441253 0.156597
vt 0.421007 0.042328
vt 0.421007 0.076811
vt 0.421007 0.076811
vt 0.421007 0.042328
vt 0.434178 0.076811
vt 0.434178 0.042328
vt 0.434178 0.076811
vt 0.434178 0.042328
vt 0.455646 0.152609
vt 0.455646 0.152609
vt 0.927721 0.624627
vt 0.927721 0.663272
vt 0.911211 0.663272
vt 0.911211 0.624627
vt 0.937011 0.624627
vt 0.937011 0.663272
vt 0.937011 0.663272
vt 0.937011 0.624627
vt 0.927721 0.672562
vt 0.911211 0.672562
vt 0.911211 0.672562
vt 0.927721 0.672562
vt 0.901921 0.624627
vt 0.901921 0.663272
vt 0.901921 0.663272
vt 0.901921 0.624627
vt 0.911211 0.624627
vt 0.911211 0.663272
vt 0.927721 0.663272
vt 0.927721 0.624627
vt 0.911211 0.615336
vt 0.911211 0.615336
vt 0.927721 0.615336
vt 0.927721 0.615336
vt 0.441253 0.156597
vt 0.441253 0.156597
vn 0.7328 -0.4691 -0.4929
vn 0.8163 0.0054 -0.5776
vn 0.7949 -0.0063 0.6067
vn 0.7027 -0.4578 0.5447
vn -0.3475 -0.0024 0.9377
vn -0.2920 -0.4623 0.8373
vn -0.9990 0.0154 -0.0412
vn -0.8796 -0.4753 -0.0198
vn 0.7907 -0.2141 0.5735
vn -0.3926 -0.1187 0.9120
vn -0.2865 0.0226 -0.9578
vn -0.2458 -0.4789 -0.8428
vn 0.7409 -0.3624 0.5655
vn -0.3203 -0.2361 0.9174
vn -0.2857 0.2058 -0.9360
vn 0.7902 0.0196 -0.6126
vn -0.9882 0.1396 -0.0629
vn -0.2314 0.3570 -0.9050
vn 0.8496 -0.0189 -0.5271
vn -0.9767 0.2110 0.0393
vn -0.4474 0.3088 0.8393
vn 0.5813 0.6634 0.4712
vn 0.5660 0.6650 0.4872
vn -0.4004 0.3426 0.8499
vn 0.8252 0.1487 -0.5449
vn -0.0899 -0.5588 -0.8244
vn -0.0744 -0.5532 -0.8297
vn 0.8471 0.1933 -0.4951
vn -0.8897 -0.4536 0.0522
vn -0.8977 -0.4299 0.0963
vn 0.5068 -0.0218 -0.8618
vn 0.2647 0.3686 -0.8911
vn 0.5360 0.6842 -0.4946
vn 0.8535 0.3815 -0.3551
vn -0.7969 -0.3169 -0.5143
vn -0.7730 0.1302 -0.6209
vn -0.2986 0.1302 -0.9454
vn -0.1906 -0.3169 -0.9291
vn -0.6717 0.5904 -0.4476
vn -0.3870 0.9216 -0.0315
vn 0.1109 0.9216 -0.3721
vn -0.1738 0.5904 -0.7882
vn 0.6635 0.6766 0.3193
vn 0.3825 0.9226 0.0501
vn -0.0919 0.9226 0.3747
vn 0.0572 0.6766 0.7341
vn -0.6402 0.3815 0.6668
vn -0.6552 0.6842 0.3203
vn -0.9264 0.3686 -0.0762
vn -0.9869 -0.0218 0.1601
vn 0.9244 -0.1627 0.3451
vn 0.9871 -0.1448 -0.0676
vn 0.8058 0.1369 0.5762
vn -0.0133 -0.1627 0.9866
vn 0.2450 0.1369 0.9598
vn -0.4207 -0.1448 0.8956
vn 0.3884 -0.7631 -0.5166
vn 0.0008 -0.7996 -0.6006
vn 0.6665 -0.5178 -0.5363
vn -0.6222 -0.7631 0.1748
vn -0.7414 -0.5178 0.4268
vn -0.5600 -0.7996 -0.2169
vn 0.5064 0.4422 0.7403
vn 0.8295 -0.0147 -0.5583
vn -0.4979 -0.4717 -0.7277
vn -0.8209 -0.0147 0.5708
vn 0.5559 -0.0511 -0.8297
vn 0.2762 0.2480 -0.9285
vn 0.4608 0.6881 -0.5605
vn 0.7831 0.4919 -0.3805
vn -0.6772 -0.5728 -0.4618
vn -0.7513 -0.1909 -0.6317
vn -0.2452 -0.1322 -0.9604
vn -0.0582 -0.5011 -0.8634
vn -0.7776 0.3343 -0.5325
vn -0.5737 0.8081 -0.1334
vn -0.0292 0.8721 -0.4884
vn -0.2315 0.3976 -0.8879
vn 0.4980 0.8343 0.2364
vn 0.2207 0.9746 -0.0375
vn -0.2804 0.9155 0.2886
vn -0.1174 0.7615 0.6374
vn -0.7317 0.3136 0.6052
vn -0.8005 0.5390 0.2620
vn -0.9898 0.0993 -0.1023
vn -0.9601 -0.2301 0.1589
vn 0.8057 -0.2816 0.5211
vn 0.9930 0.1013 -0.0603
vn 0.7162 0.4387 0.5427
vn 0.2023 -0.3528 0.9136
vn 0.1396 0.3697 0.9186
vn -0.4601 -0.0699 0.8851
vn 0.5798 -0.8107 0.0809
vn 0.1806 -0.8417 -0.5088
vn 0.7779 -0.4065 -0.4792
vn -0.0221 -0.8815 0.4717
vn -0.6698 -0.5787 0.4652
vn -0.3952 -0.9084 -0.1367
vn -0.1914 0.1318 0.9726
vn -0.0914 0.5564 0.8258
vn -0.5552 0.6622 0.5032
vn -0.7841 0.2669 0.5603
vn 0.9714 0.0499 0.2320
vn 0.8372 0.4901 0.2428
vn 0.5078 0.4824 0.7138
vn 0.5505 0.0401 0.8339
vn 0.5458 0.8375 0.0273
vn 0.0590 0.9485 -0.3113
vn -0.2867 0.9404 0.1830
vn 0.2001 0.8294 0.5216
vn -0.9098 0.3731 -0.1819
vn -0.6567 0.7479 -0.0963
vn -0.3274 0.7556 -0.5673
vn -0.4888 0.3829 -0.7838
vn 0.2530 0.2912 -0.9226
vn 0.2719 0.6816 -0.6794
vn 0.7356 0.5758 -0.3568
vn 0.8457 0.1561 -0.5103
vn -0.8805 -0.4689 0.0698
vn -0.8197 -0.3385 0.4621
vn -0.9397 -0.2372 -0.2465
vn -0.2294 -0.4537 -0.8611
vn -0.5503 -0.2281 -0.8032
vn 0.1579 -0.3156 -0.9357
vn 0.0518 -0.6323 0.7730
vn 0.4367 -0.5511 0.7110
vn -0.2714 -0.4636 0.8435
vn 0.7535 -0.6158 -0.2303
vn 0.7061 -0.4407 -0.5543
vn 0.8261 -0.5420 0.1543
vn -0.8184 0.0619 -0.5713
vn -0.5740 -0.0299 0.8183
vn 0.8165 -0.0950 0.5695
vn 0.5720 -0.0031 -0.8202
vn -0.1860 -0.1088 0.9765
vn 0.0782 0.2678 0.9603
vn -0.2885 0.6365 0.7153
vn -0.6546 0.3624 0.6634
vn 0.8997 -0.4001 0.1742
vn 0.9444 0.0317 0.3273
vn 0.6088 0.0075 0.7933
vn 0.4708 -0.4310 0.7698
vn 0.8227 0.5121 0.2470
vn 0.4378 0.8990 -0.0101
vn 0.0856 0.8736 0.4790
vn 0.4704 0.4867 0.7361
vn -0.6837 0.7298 -0.0015
vn -0.3119 0.9332 0.1782
vn 0.0237 0.9574 -0.2878
vn -0.2547 0.7607 -0.5970
vn 0.4021 0.4385 -0.8038
vn 0.5543 0.6971 -0.4547
vn 0.9209 0.3285 -0.2098
vn 0.8707 -0.0327 -0.4907
vn -0.9955 -0.0921 -0.0211
vn -0.9138 -0.1216 0.3876
vn -0.9415 0.2291 -0.2472
vn -0.3321 -0.0443 -0.9422
vn -0.5448 0.2577 -0.7980
vn 0.0823 -0.0499 -0.9954
vn -0.2430 -0.8070 0.5383
vn 0.1467 -0.8650 0.4798
vn -0.4803 -0.5574 0.6772
vn 0.4720 -0.7555 -0.4544
vn 0.5157 -0.4857 -0.7058
vn 0.5434 -0.8364 -0.0710
vn -0.6948 0.5425 -0.4723
vn -0.5910 -0.0558 0.8047
vn 0.6804 -0.5700 0.4605
vn 0.5767 0.0283 -0.8165
vn 0.1894 0.0781 -0.9788
vn -0.1492 0.3827 -0.9117
vn 0.1338 0.7814 -0.6095
vn 0.5510 0.5876 -0.5925
vn -0.7957 -0.5538 -0.2454
vn -0.9343 -0.1239 -0.3342
vn -0.6088 -0.0069 -0.7933
vn -0.3797 -0.4042 -0.8321
vn -0.9172 0.3543 -0.1824
vn -0.6202 0.7728 0.1348
vn -0.2786 0.8955 -0.3470
vn -0.5756 0.4771 -0.6642
vn 0.5112 0.8511 0.1195
vn 0.1016 0.9942 -0.0344
vn -0.2238 0.8772 0.4247
vn 0.0952 0.7016 0.7062
vn -0.4739 0.2193 0.8529
vn -0.6835 0.4876 0.5432
vn -0.9665 0.0889 0.2409
vn -0.8355 -0.2903 0.4666
vn 0.9923 0.1214 0.0233
vn 0.9123 0.1354 -0.3866
vn 0.8743 0.3869 0.2931
vn 0.3489 -0.1098 0.9307
vn 0.4895 0.2486 0.8358
vn -0.0537 -0.2118 0.9758
vn 0.4017 -0.6482 -0.6469
vn 0.0346 -0.7964 -0.6038
vn 0.5778 -0.3359 -0.7438
vn -0.2917 -0.8974 0.3310
vn -0.3882 -0.6831 0.6186
vn -0.3502 -0.9347 -0.0612
vn 0.5698 0.6035 0.5578
vn 0.5763 0.1909 -0.7946
vn -0.5496 -0.6288 -0.5500
vn -0.5562 -0.2161 0.8025
vn 0.0000 -1.0000 -0.0000
vn -0.4494 -0.8704 -0.2010
vn -0.6600 -0.7280 0.1855
vn -0.8664 -0.4962 -0.0561
vn -0.7675 -0.5322 -0.3573
vn -0.2154 -0.8525 -0.4763
vn -0.4085 -0.8759 -0.2566
vn -0.6442 -0.5991 -0.4755
vn -0.5272 -0.6270 -0.5734
vn -0.0776 -0.9968 -0.0200
vn -0.1305 -0.9793 0.1548
vn -0.0147 -0.9868 -0.1614
vn -0.3398 -0.8658 0.3673
vn 0.4362 0.8727 0.2193
vn 0.0918 0.9901 0.1060
vn -0.0250 0.9160 0.4003
vn 0.0864 0.8012 0.5921
vn 0.6658 0.7185 -0.2009
vn 0.3244 0.8958 -0.3037
vn 0.2140 0.9750 -0.0604
vn 0.4483 0.8706 0.2024
vn 0.6992 0.6345 0.3296
vn 0.5761 0.6502 0.4953
vn 0.8373 0.5359 0.1086
vn 0.2986 0.6889 0.6605
vn 0.5156 -0.4449 0.7323
vn 0.8620 0.2701 0.4289
vn -0.8090 0.4848 -0.3325
vn -0.8707 0.3837 0.3076
vn 0.2103 0.7967 -0.5666
vn -0.0892 0.9377 -0.3358
vn -0.6115 0.0343 0.7905
vn -0.0360 -0.2022 0.9787
vn 0.9624 0.2688 0.0380
vn 0.7250 0.5319 -0.4375
vn -0.4500 -0.5634 -0.6929
vn -0.0963 -0.8061 -0.5840
vn -0.7235 -0.3949 -0.5662
vn 0.1219 -0.9648 -0.2332
vn 0.1195 -0.9866 0.1114
vn -0.5127 -0.6312 -0.5820
vn -0.7846 -0.2573 -0.5640
vn -0.5396 -0.1111 -0.8346
vn -0.3054 -0.3186 -0.8973
vn -0.2209 -0.8320 -0.5089
vn -0.4612 -0.6768 -0.5738
vn -0.2163 -0.4730 -0.8541
vn -0.1213 -0.5842 -0.8025
vn -0.5960 -0.7814 -0.1852
vn -0.7323 -0.6653 -0.1453
vn -0.4647 -0.8632 -0.1974
vn -0.8925 -0.3978 -0.2129
vn 0.4961 0.6464 0.5796
vn 0.5334 0.8117 0.2382
vn 0.2338 0.9340 0.2702
vn 0.0622 0.8925 0.4468
vn 0.7924 0.2404 0.5606
vn 0.8580 0.4575 0.2334
vn 0.6881 0.6763 0.2629
vn 0.5114 0.6324 0.5818
vn 0.3630 0.4123 0.8356
vn 0.2088 0.5481 0.8100
vn 0.5144 0.1784 0.8388
vn 0.0169 0.7579 0.6522
vn -0.6286 -0.1965 0.7525
vn 0.1305 0.1080 0.9856
vn 0.2590 0.5244 -0.8112
vn -0.2931 0.7690 -0.5680
vn 0.9556 0.2946 -0.0031
vn 0.7679 0.6257 -0.1374
vn -0.7675 0.6237 -0.1481
vn -0.8525 0.3147 0.4174
vn 0.4516 -0.1147 0.8848
vn 0.8772 -0.0430 0.4781
vn 0.0300 -0.6177 -0.7858
vn -0.0743 -0.8889 -0.4520
vn -0.0561 -0.3234 -0.9446
vn -0.3532 -0.9290 -0.1107
vn -0.6209 -0.7822 0.0505
vn -0.1125 -0.5968 -0.7944
vn 0.0025 -0.1898 -0.9818
vn 0.3698 -0.2895 -0.8829
vn 0.3728 -0.5705 -0.7318
vn -0.1866 -0.8290 -0.5271
vn -0.1281 -0.6482 -0.7506
vn 0.2801 -0.7062 -0.6502
vn 0.2086 -0.8054 -0.5548
vn -0.5211 -0.4991 -0.6923
vn -0.5281 -0.3377 -0.7791
vn -0.5162 -0.6181 -0.5929
vn -0.3749 -0.0970 -0.9220
vn 0.1177 0.6140 0.7805
vn 0.4789 0.5712 0.6666
vn 0.4268 0.7931 0.4346
vn 0.2148 0.9056 0.3658
vn -0.0074 0.1717 0.9851
vn 0.3833 0.1672 0.9084
vn 0.4330 0.4183 0.7984
vn 0.1129 0.5982 0.7933
vn -0.2530 0.5956 0.7624
vn -0.2060 0.7482 0.6306
vn -0.3419 0.3546 0.8702
vn -0.0308 0.9113 0.4105
vn -0.8806 0.4266 -0.2063
vn -0.6199 0.5066 0.5992
vn 0.9925 -0.0575 -0.1079
vn 0.7720 0.4541 -0.4448
vn 0.4948 -0.1110 0.8619
vn 0.7252 0.1590 0.6699
vn 0.2183 0.7082 -0.6714
vn -0.4084 0.7592 -0.5068
vn -0.5688 0.1639 0.8060
vn -0.0844 -0.1255 0.9885
vn 0.2273 -0.8792 -0.4188
vn -0.2129 -0.9008 -0.3785
vn 0.4882 -0.6871 -0.5381
vn -0.5814 -0.6702 -0.4613
vn -0.7039 -0.3790 -0.6008
vn 0.1982 -0.8149 -0.5447
vn 0.6136 -0.6187 -0.4905
vn 0.6051 -0.7848 -0.1342
vn 0.3298 -0.9398 -0.0895
vn -0.1599 -0.8477 -0.5057
vn 0.1306 -0.8297 -0.5427
vn 0.1590 -0.9765 -0.1456
vn 0.0065 -0.9850 -0.1727
vn 0.0435 -0.5401 -0.8405
vn 0.1999 -0.4492 -0.8708
vn -0.0980 -0.5902 -0.8013
vn 0.4977 -0.3792 -0.7801
vn -0.1761 0.8202 0.5443
vn 0.0036 0.6011 0.7992
vn 0.2875 0.6880 0.6664
vn 0.3333 0.8224 0.4610
vn -0.6283 0.6075 0.4859
vn -0.4437 0.4260 0.7885
vn -0.1986 0.5574 0.8061
vn -0.1964 0.8153 0.5446
vn -0.2976 0.9311 0.2111
vn -0.0951 0.9741 0.2052
vn -0.5482 0.8210 0.1595
vn 0.2215 0.9372 0.2695
vn 0.1078 0.5634 -0.8191
vn -0.3521 0.9151 -0.1962
vn 0.3779 -0.4567 0.8054
vn 0.8527 -0.1260 0.5070
vn -0.5353 0.1403 0.8329
vn -0.1582 0.1826 0.9704
vn 0.9837 0.1711 -0.0561
vn 0.6825 0.5169 -0.5167
vn -0.6886 0.7196 -0.0895
vn -0.8309 0.3985 0.3884
vn -0.1308 -0.9864 -0.0990
vn -0.3205 -0.8253 -0.4649
vn 0.1572 -0.9833 0.0914
vn -0.2474 -0.5460 -0.8004
vn -0.0147 -0.3341 -0.9424
vn -0.0100 -0.9840 -0.1779
vn 0.2041 -0.9513 0.2309
vn -0.1590 -0.9126 0.3768
vn -0.3750 -0.9161 0.1420
vn -0.1778 -0.8622 -0.4743
vn -0.0427 -0.9705 -0.2374
vn -0.4122 -0.9103 -0.0376
vn -0.4483 -0.8747 -0.1842
vn 0.3176 -0.8477 -0.4249
vn 0.4456 -0.8457 -0.2936
vn 0.2120 -0.8181 -0.5346
vn 0.5194 -0.8544 0.0168
vn 0.0207 0.9801 0.1975
vn -0.2356 0.8600 0.4527
vn 0.0082 0.7640 0.6452
vn 0.2539 0.7580 0.6009
vn -0.2122 0.9455 -0.2471
vn -0.4801 0.8764 0.0394
vn -0.3340 0.9015 0.2753
vn 0.0109 0.9837 0.1794
vn 0.2909 0.9551 -0.0564
vn 0.3883 0.9135 0.1215
vn 0.1806 0.9330 -0.3112
vn 0.4251 0.7997 0.4240
vn 0.9707 0.0248 -0.2390
vn 0.5637 0.7690 -0.3015
vn -0.7355 -0.1215 0.6666
vn -0.1626 -0.1695 0.9720
vn -0.7111 0.7013 -0.0499
vn -0.6615 0.6639 0.3488
vn 0.4708 -0.2455 0.8474
vn 0.9127 -0.0772 0.4013
vn 0.2577 0.7844 -0.5641
vn -0.3307 0.8048 -0.4929
vn -0.5494 -0.7913 -0.2684
vn -0.2484 -0.7667 -0.5920
vn -0.5917 -0.8028 0.0741
vn 0.1873 -0.7281 -0.6594
vn 0.4942 -0.7096 -0.5022
vn -0.6728 -0.1229 0.7296
vn -0.6476 -0.0519 0.7602
vn -0.6822 0.4797 -0.5518
vn -0.6892 0.4647 -0.5559
vn -0.6878 0.4678 -0.5551
vn 0.6736 0.1253 -0.7284
vn 0.6381 0.0279 -0.7694
vn 0.6852 -0.4801 0.5477
vn 0.6796 -0.4915 0.5445
vn 0.6781 -0.4945 0.5437
vn -0.2911 -0.1842 -0.9388
vn 0.5665 -0.7854 -0.2495
vn 0.6419 -0.7545 0.1364
vn 0.9406 -0.1980 0.2756
vn 0.5419 -0.1169 0.8322
vn 0.2523 -0.6747 0.6936
vn 0.1113 -0.2305 -0.9667
vn 0.4078 0.3341 -0.8498
vn 0.8846 -0.0001 -0.4664
vn 0.5830 -0.5610 -0.5877
vn 0.3403 0.8936 -0.2928
vn -0.0719 0.9566 0.2825
vn 0.4107 0.6181 0.6703
vn 0.8285 0.5511 0.0997
vn -0.4185 -0.3561 0.8355
vn -0.1334 0.2048 0.9697
vn -0.6035 0.5343 0.5918
vn -0.8890 -0.0262 0.4571
vn -0.9479 0.1665 -0.2715
vn -0.6677 0.7311 -0.1402
vn -0.2766 0.6553 -0.7029
vn -0.5562 0.0851 -0.8267
vn -0.1771 -0.6782 0.7133
vn -0.9927 -0.1065 0.0573
vn 0.9611 -0.1810 0.2088
vn 0.9595 -0.1297 0.2500
vn 0.9593 -0.1271 0.2520
vn -0.2730 -0.5045 0.8191
vn -0.2620 -0.4976 0.8269
vn -0.2640 -0.4989 0.8255
vn -0.9622 0.1697 -0.2132
vn -0.9573 0.0801 -0.2778
vn -0.9578 0.0848 -0.2745
vn 0.2671 0.4894 -0.8301
vn 0.2691 0.4621 -0.8450
vn 0.2696 0.4556 -0.8484
vn -0.6332 -0.7681 0.0953
vn -0.3119 -0.1802 -0.9329
vn -0.0080 0.0792 -0.9968
vn -0.1183 0.6737 -0.7295
vn 0.5121 0.6942 -0.5058
vn 0.6211 0.1036 -0.7769
vn -0.8618 -0.4871 -0.1413
vn -0.9810 0.1266 0.1470
vn -0.7788 0.4340 -0.4528
vn -0.6554 -0.1759 -0.7345
vn -0.5425 0.6305 0.5551
vn 0.1063 0.6343 0.7657
vn 0.2911 0.9407 0.1741
vn -0.3546 0.9340 -0.0432
vn 0.9830 -0.1208 -0.1379
vn 0.8685 0.4782 0.1301
vn 0.6787 0.1670 0.7152
vn 0.7842 -0.4315 0.4460
vn 0.1442 -0.6870 0.7122
vn 0.0407 -0.0881 0.9953
vn -0.6080 -0.1058 0.7868
vn -0.4993 -0.7108 0.4954
vn 0.8243 -0.2070 -0.5270
vn 0.4861 -0.7310 0.4788
vn -0.2477 0.5993 -0.7612
vn -0.2382 0.6723 -0.7010
vn -0.2383 0.6710 -0.7021
vn 0.9586 -0.0016 -0.2849
vn 0.9547 -0.0140 -0.2973
vn 0.9552 -0.0124 -0.2957
vn 0.2244 -0.6190 0.7526
vn 0.2138 -0.7064 0.6748
vn 0.2136 -0.7075 0.6736
vn -0.9621 -0.0148 0.2722
vn -0.9646 -0.0139 0.2635
vn -0.9649 -0.0137 0.2621
vn 0.5825 -0.7890 -0.1954
vn -0.5776 -0.8061 0.1289
vn -0.8516 -0.4811 0.2084
vn -0.7048 -0.0352 0.7085
vn -0.8279 0.4842 0.2829
vn -0.9769 0.0446 -0.2089
vn 0.4230 -0.8906 0.1671
vn 0.5741 -0.4534 0.6817
vn -0.0874 -0.4501 0.8887
vn -0.2374 -0.8951 0.3775
vn 0.5874 0.3159 0.7451
vn 0.4602 0.8293 0.3169
vn -0.1950 0.8355 0.5136
vn -0.0683 0.3220 0.9443
vn -0.5724 0.4604 -0.6785
vn -0.4171 0.8878 -0.1945
vn 0.2409 0.8884 -0.3908
vn 0.0857 0.4673 -0.8799
vn 0.7027 0.0470 -0.7100
vn 0.8532 0.4727 -0.2204
vn 0.9801 -0.0486 0.1923
vn 0.8248 -0.4767 -0.3039
vn -0.8100 0.1279 -0.5723
vn 0.3357 0.1277 -0.9333
usemtl KayKit_Texture_A
s 1
f 203/1/1 1/2/2 2/3/3 204/4/4
f 204/4/4 2/3/3 4/5/5 205/6/6
f 205/6/6 4/5/5 5/7/7 206/8/8
f 4/5/5 2/3/3 7/9/9 9/10/10
f 206/8/8 5/7/7 6/11/11 207/12/12
f 207/12/12 6/11/11 1/2/2 203/1/1
f 9/10/10 7/9/9 12/13/13 14/14/14
f 1/2/2 6/11/11 11/15/15 8/16/16
f 2/3/3 1/2/2 8/16/16 7/9/9
f 5/7/7 4/5/5 9/10/10 10/17/17
f 6/11/11 5/7/7 10/17/17 11/15/15
f 8/16/16 11/15/15 16/18/18 13/19/19
f 10/17/17 9/10/10 14/14/14 15/20/20
f 7/9/9 8/16/16 13/19/19 12/13/13
f 11/15/15 10/17/17 15/20/20 16/18/18
f 19/21/21 17/22/22 22/23/23 24/24/24
f 18/25/25 21/26/26 26/27/27 23/28/28
f 20/29/29 19/21/21 24/24/24 25/30/30
f 17/22/22 18/25/25 23/28/28 22/23/23
f 21/26/26 20/29/29 25/30/30 26/27/27
f 57/31/31 43/32/32 30/33/33 51/34/34
f 55/35/35 49/36/36 44/37/37 58/38/38
f 48/39/39 36/40/40 31/41/41 42/42/42
f 52/43/43 32/44/44 38/45/45 54/46/46
f 53/47/47 37/48/48 50/49/49 56/50/50
f 27/51/51 28/52/52 29/53/53
f 30/33/33 31/41/41 32/44/44
f 33/54/54 34/55/55 35/56/56
f 36/40/40 37/48/48 38/45/45
f 39/57/57 40/58/58 41/59/59
f 42/42/42 43/32/32 44/37/37
f 45/60/60 46/61/61 47/62/62
f 48/39/39 49/36/36 50/49/49
f 33/54/54 27/51/51 29/53/53 34/55/55
f 51/34/34 30/33/33 32/44/44 52/43/43
f 31/41/41 36/40/40 38/45/45 32/44/44
f 53/47/47 35/56/56 34/55/55 54/46/46
f 45/60/60 33/54/54 35/56/56 46/61/61
f 36/40/40 48/39/39 50/49/49 37/48/48
f 55/35/35 47/62/62 46/61/61 56/50/50
f 39/57/57 45/60/60 47/62/62 40/58/58
f 48/39/39 42/42/42 44/37/37 49/36/36
f 57/31/31 41/59/59 40/58/58 58/38/38
f 27/51/51 39/57/57 41/59/59 28/52/52
f 42/42/42 31/41/41 30/33/33 43/32/32
f 27/51/51 33/54/54 59/63/63 60/64/63
f 43/32/32 57/31/31 58/38/38 44/37/37
f 49/36/36 55/35/35 56/50/50 50/49/49
f 37/48/48 53/47/47 54/46/46 38/45/45
f 28/52/52 51/34/34 52/43/43 29/53/53
f 35/56/56 53/47/47 56/50/50 46/61/61
f 29/53/53 52/43/43 54/46/46 34/55/55
f 47/62/62 55/35/35 58/38/38 40/58/58
f 41/59/59 57/31/31 51/34/34 28/52/52
f 39/57/57 27/51/51 60/64/64 62/65/64
f 45/60/60 39/57/57 62/65/65 61/66/65
f 33/54/54 45/60/60 61/66/66 59/63/66
f 93/67/67 79/68/68 66/69/69 87/70/70
f 91/71/71 85/72/72 80/73/73 94/74/74
f 84/75/75 72/76/76 67/77/77 78/78/78
f 88/79/79 68/80/80 74/81/81 90/82/82
f 89/83/83 73/84/84 86/85/85 92/86/86
f 63/87/87 64/88/88 65/89/89
f 66/69/69 67/77/77 68/80/80
f 69/90/90 70/91/91 71/92/92
f 72/76/76 73/84/84 74/81/81
f 75/93/93 76/94/94 77/95/95
f 78/78/78 79/68/68 80/73/73
f 81/96/96 82/97/97 83/98/98
f 84/75/75 85/72/72 86/85/85
f 69/90/90 63/87/87 65/89/89 70/91/91
f 87/70/70 66/69/69 68/80/80 88/79/79
f 67/77/77 72/76/76 74/81/81 68/80/80
f 89/83/83 71/92/92 70/91/91 90/82/82
f 81/96/96 69/90/90 71/92/92 82/97/97
f 72/76/76 84/75/75 86/85/85 73/84/84
f 91/71/71 83/98/98 82/97/97 92/86/86
f 75/93/93 81/96/96 83/98/98 76/94/94
f 84/75/75 78/78/78 80/73/73 85/72/72
f 93/67/67 77/95/95 76/94/94 94/74/74
f 63/87/87 75/93/93 77/95/95 64/88/88
f 78/78/78 67/77/77 66/69/69 79/68/68
f 79/68/68 93/67/67 94/74/74 80/73/73
f 85/72/72 91/71/71 92/86/86 86/85/85
f 73/84/84 89/83/83 90/82/82 74/81/81
f 64/88/88 87/70/70 88/79/79 65/89/89
f 71/92/92 89/83/83 92/86/86 82/97/97
f 65/89/89 88/79/79 90/82/82 70/91/91
f 83/98/98 91/71/71 94/74/74 76/94/94
f 77/95/95 93/67/67 87/70/70 64/88/88
f 69/90/90 81/96/96 75/93/93 63/87/87
f 125/99/99 111/100/100 98/101/101 119/102/102
f 123/103/103 117/104/104 112/105/105 126/106/106
f 116/107/107 104/108/108 99/109/109 110/110/110
f 120/111/111 100/112/112 106/113/113 122/114/114
f 121/115/115 105/116/116 118/117/117 124/118/118
f 95/119/119 96/120/120 97/121/121
f 98/101/101 99/109/109 100/112/112
f 101/122/122 102/123/123 103/124/124
f 104/108/108 105/116/116 106/113/113
f 107/125/125 108/126/126 109/127/127
f 110/110/110 111/100/100 112/105/105
f 113/128/128 114/129/129 115/130/130
f 116/107/107 117/104/104 118/117/117
f 101/122/122 95/119/119 97/121/121 102/123/123
f 119/102/102 98/101/101 100/112/112 120/111/111
f 99/109/109 104/108/108 106/113/113 100/112/112
f 121/115/115 103/124/124 102/123/123 122/114/114
f 113/128/128 101/122/122 103/124/124 114/129/129
f 104/108/108 116/107/107 118/117/117 105/116/116
f 123/103/103 115/130/130 114/129/129 124/118/118
f 107/125/125 113/128/128 115/130/130 108/126/126
f 116/107/107 110/110/110 112/105/105 117/104/104
f 125/99/99 109/127/127 108/126/126 126/106/106
f 95/119/119 107/125/125 109/127/127 96/120/120
f 110/110/110 99/109/109 98/101/101 111/100/100
f 95/119/119 101/122/122 127/131/131 128/132/131
f 111/100/100 125/99/99 126/106/106 112/105/105
f 117/104/104 123/103/103 124/118/118 118/117/117
f 105/116/116 121/115/115 122/114/114 106/113/113
f 96/120/120 119/102/102 120/111/111 97/121/121
f 103/124/124 121/115/115 124/118/118 114/129/129
f 97/121/121 120/111/111 122/114/114 102/123/123
f 115/130/130 123/103/103 126/106/106 108/126/126
f 109/127/127 125/99/99 119/102/102 96/120/120
f 107/125/125 95/119/119 128/132/132 130/133/132
f 113/128/128 107/125/125 130/133/133 129/134/133
f 101/122/122 113/128/128 129/134/134 127/131/134
f 161/135/135 147/136/136 134/137/137 155/138/138
f 159/139/139 153/140/140 148/141/141 162/142/142
f 152/143/143 140/144/144 135/145/145 146/146/146
f 156/147/147 136/148/148 142/149/149 158/150/150
f 157/151/151 141/152/152 154/153/153 160/154/154
f 131/155/155 132/156/156 133/157/157
f 134/137/137 135/145/145 136/148/148
f 137/158/158 138/159/159 139/160/160
f 140/144/144 141/152/152 142/149/149
f 143/161/161 144/162/162 145/163/163
f 146/146/146 147/136/136 148/141/141
f 149/164/164 150/165/165 151/166/166
f 152/143/143 153/140/140 154/153/153
f 137/158/158 131/155/155 133/157/157 138/159/159
f 155/138/138 134/137/137 136/148/148 156/147/147
f 135/145/145 140/144/144 142/149/149 136/148/148
f 157/151/151 139/160/160 138/159/159 158/150/150
f 149/164/164 137/158/158 139/160/160 150/165/165
f 140/144/144 152/143/143 154/153/153 141/152/152
f 159/139/139 151/166/166 150/165/165 160/154/154
f 143/161/161 149/164/164 151/166/166 144/162/162
f 152/143/143 146/146/146 148/141/141 153/140/140
f 161/135/135 145/163/163 144/162/162 162/142/142
f 131/155/155 143/161/161 145/163/163 132/156/156
f 146/146/146 135/145/145 134/137/137 147/136/136
f 131/155/155 137/158/158 163/167/167 164/168/167
f 147/136/136 161/135/135 162/142/142 148/141/141
f 153/140/140 159/139/139 160/154/154 154/153/153
f 141/152/152 157/151/151 158/150/150 142/149/149
f 132/156/156 155/138/138 156/147/147 133/157/157
f 139/160/160 157/151/151 160/154/154 150/165/165
f 133/157/157 156/147/147 158/150/150 138/159/159
f 151/166/166 159/139/139 162/142/142 144/162/162
f 145/163/163 161/135/135 155/138/138 132/156/156
f 143/161/161 131/155/155 164/168/168 166/169/168
f 149/164/164 143/161/161 166/169/169 165/170/169
f 137/158/158 149/164/164 165/170/170 163/167/170
f 197/171/171 183/172/172 170/173/173 191/174/174
f 195/175/175 189/176/176 184/177/177 198/178/178
f 188/179/179 176/180/180 171/181/181 182/182/182
f 192/183/183 172/184/184 178/185/185 194/186/186
f 193/187/187 177/188/188 190/189/189 196/190/190
f 167/191/191 168/192/192 169/193/193
f 170/173/173 171/181/181 172/184/184
f 173/194/194 174/195/195 175/196/196
f 176/180/180 177/188/188 178/185/185
f 179/197/197 180/198/198 181/199/199
f 182/182/182 183/172/172 184/177/177
f 185/200/200 186/201/201 187/202/202
f 188/179/179 189/176/176 190/189/189
f 173/194/194 167/191/191 169/193/193 174/195/195
f 191/174/174 170/173/173 172/184/184 192/183/183
f 171/181/181 176/180/180 178/185/185 172/184/184
f 193/187/187 175/196/196 174/195/195 194/186/186
f 185/200/200 173/194/194 175/196/196 186/201/201
f 176/180/180 188/179/179 190/189/189 177/188/188
f 195/175/175 187/202/202 186/201/201 196/190/190
f 179/197/197 185/200/200 187/202/202 180/198/198
f 188/179/179 182/182/182 184/177/177 189/176/176
f 197/171/171 181/199/199 180/198/198 198/178/178
f 167/191/191 179/197/197 181/199/199 168/192/192
f 182/182/182 171/181/181 170/173/173 183/172/172
f 167/191/191 173/194/194 199/203/203 200/204/203
f 183/172/172 197/171/171 198/178/178 184/177/177
f 189/176/176 195/175/175 196/190/190 190/189/189
f 177/188/188 193/187/187 194/186/186 178/185/185
f 168/192/192 191/174/174 192/183/183 169/193/193
f 175/196/196 193/187/187 196/190/190 186/201/201
f 169/193/193 192/183/183 194/186/186 174/195/195
f 187/202/202 195/175/175 198/178/178 180/198/198
f 181/199/199 197/171/171 191/174/174 168/192/192
f 179/197/197 167/191/191 200/204/204 202/205/204
f 185/200/200 179/197/197 202/205/205 201/206/205
f 173/194/194 185/200/200 201/206/206 199/203/206
f 3/207/207 203/1/1 204/4/4
f 3/208/207 204/4/4 205/6/6
f 3/209/207 205/6/6 206/8/8
f 3/210/207 206/8/8 207/12/12
f 3/211/207 207/12/12 203/1/1
f 219/212/208 217/213/209 211/214/210 215/215/211
f 216/216/212 218/217/213 214/218/214 209/219/215
f 218/217/213 219/212/208 215/215/211 214/218/214
f 213/220/216 212/221/217 219/212/208 218/217/213
f 208/222/218 213/220/216 218/217/213 216/216/212
f 212/221/217 210/223/219 217/213/209 219/212/208
f 231/224/220 224/225/221 225/226/222 226/227/223
f 222/228/224 223/229/225 229/230/226 230/231/227
f 230/231/227 229/230/226 224/225/221 231/224/220
f 220/232/228 230/231/227 231/224/220 228/233/229
f 221/234/230 222/228/224 230/231/227 220/232/228
f 228/233/229 231/224/220 226/227/223 227/235/231
f 233/236/232 232/237/233 220/232/228 228/233/229
f 235/238/234 234/239/235 225/226/222 224/225/221
f 237/240/236 236/241/237 229/230/226 223/229/225
f 239/242/238 238/243/239 227/235/231 226/227/223
f 241/244/240 240/245/241 222/228/224 221/234/230
f 232/237/233 241/244/240 221/234/230 220/232/228
f 236/241/237 235/238/234 224/225/221 229/230/226
f 238/243/239 233/236/232 228/233/229 227/235/231
f 234/239/235 239/242/238 226/227/223 225/226/222
f 240/245/241 237/240/236 223/229/225 222/228/224
f 216/216/212 209/219/215 237/246/242 240/247/243
f 211/214/210 217/213/209 239/248/238 234/249/235
f 210/223/219 212/221/217 233/250/232 238/251/239
f 214/218/214 215/215/211 235/252/234 236/253/244
f 213/220/216 208/222/218 241/254/245 232/255/246
f 208/222/218 216/216/212 240/247/243 241/254/245
f 217/213/209 210/223/219 238/251/239 239/248/238
f 209/219/215 214/218/214 236/253/244 237/246/242
f 215/215/211 211/214/210 234/249/235 235/252/234
f 212/221/217 213/220/216 232/255/246 233/250/232
f 253/256/247 251/257/248 245/258/249 249/259/250
f 250/260/251 252/261/252 248/262/253 243/263/254
f 252/261/252 253/256/247 249/259/250 248/262/253
f 247/264/255 246/265/256 253/256/247 252/261/252
f 242/266/257 247/264/255 252/261/252 250/260/251
f 246/265/256 244/267/258 251/257/248 253/256/247
f 265/268/259 258/269/260 259/270/261 260/271/262
f 256/272/263 257/273/264 263/274/265 264/275/266
f 264/275/266 263/274/265 258/269/260 265/268/259
f 254/276/267 264/275/266 265/268/259 262/277/268
f 255/278/269 256/272/263 264/275/266 254/276/267
f 262/277/268 265/268/259 260/271/262 261/279/270
f 267/280/271 266/281/272 254/276/267 262/277/268
f 269/282/273 268/283/274 259/270/261 258/269/260
f 271/284/275 270/285/276 263/274/265 257/273/264
f 273/286/277 272/287/278 261/279/270 260/271/262
f 275/288/279 274/289/280 256/272/263 255/278/269
f 266/281/272 275/288/279 255/278/269 254/276/267
f 270/285/276 269/282/273 258/269/260 263/274/265
f 272/287/278 267/280/271 262/277/268 261/279/270
f 268/283/274 273/286/277 260/271/262 259/270/261
f 274/289/280 271/284/275 257/273/264 256/272/263
f 250/260/251 243/263/254 271/290/281 274/291/282
f 245/258/249 251/257/248 273/292/277 268/293/274
f 244/267/258 246/265/256 267/294/271 272/295/278
f 248/262/253 249/259/250 269/296/273 270/297/283
f 247/264/255 242/266/257 275/298/284 266/299/285
f 242/266/257 250/260/251 274/291/282 275/298/284
f 251/257/248 244/267/258 272/295/278 273/292/277
f 243/263/254 248/262/253 270/297/283 271/290/281
f 249/259/250 245/258/249 268/293/274 269/296/273
f 246/265/256 247/264/255 266/299/285 267/294/271
f 287/300/286 285/301/287 279/302/288 283/303/289
f 284/304/290 286/305/291 282/306/292 277/307/293
f 286/305/291 287/300/286 283/303/289 282/306/292
f 281/308/294 280/309/295 287/300/286 286/305/291
f 276/310/296 281/308/294 286/305/291 284/304/290
f 280/309/295 278/311/297 285/301/287 287/300/286
f 299/312/298 292/313/299 293/314/300 294/315/301
f 290/316/302 291/317/303 297/318/304 298/319/305
f 298/319/305 297/318/304 292/313/299 299/312/298
f 288/320/306 298/319/305 299/312/298 296/321/307
f 289/322/308 290/316/302 298/319/305 288/320/306
f 296/321/307 299/312/298 294/315/301 295/323/309
f 301/324/310 300/325/311 288/320/306 296/321/307
f 303/326/312 302/327/313 293/314/300 292/313/299
f 305/328/314 304/329/315 297/318/304 291/317/303
f 307/330/316 306/331/317 295/323/309 294/315/301
f 309/332/318 308/333/319 290/316/302 289/322/308
f 300/325/311 309/332/318 289/322/308 288/320/306
f 304/329/315 303/326/312 292/313/299 297/318/304
f 306/331/317 301/324/310 296/321/307 295/323/309
f 302/327/313 307/330/316 294/315/301 293/314/300
f 308/333/319 305/328/314 291/317/303 290/316/302
f 284/304/290 277/307/293 305/334/320 308/335/321
f 279/302/288 285/301/287 307/336/316 302/337/313
f 278/311/297 280/309/295 301/338/310 306/339/317
f 282/306/292 283/303/289 303/340/312 304/341/322
f 281/308/294 276/310/296 309/342/323 300/343/324
f 276/310/296 284/304/290 308/335/321 309/342/323
f 285/301/287 278/311/297 306/339/317 307/336/316
f 277/307/293 282/306/292 304/341/322 305/334/320
f 283/303/289 279/302/288 302/337/313 303/340/312
f 280/309/295 281/308/294 300/343/324 301/338/310
f 321/344/325 319/345/326 313/346/327 317/347/328
f 318/348/329 320/349/330 316/350/331 311/351/332
f 320/349/330 321/344/325 317/347/328 316/350/331
f 315/352/333 314/353/334 321/344/325 320/349/330
f 310/354/335 315/352/333 320/349/330 318/348/329
f 314/353/334 312/355/336 319/345/326 321/344/325
f 333/356/337 326/357/338 327/358/339 328/359/340
f 324/360/341 325/361/342 331/362/343 332/363/344
f 332/363/344 331/362/343 326/357/338 333/356/337
f 322/364/345 332/363/344 333/356/337 330/365/346
f 323/366/347 324/360/341 332/363/344 322/364/345
f 330/365/346 333/356/337 328/359/340 329/367/348
f 335/368/349 334/369/350 322/364/345 330/365/346
f 337/370/351 336/371/352 327/358/339 326/357/338
f 339/372/353 338/373/354 331/362/343 325/361/342
f 341/374/355 340/375/356 329/367/348 328/359/340
f 343/376/357 342/377/358 324/360/341 323/366/347
f 334/369/350 343/376/357 323/366/347 322/364/345
f 338/373/354 337/370/351 326/357/338 331/362/343
f 340/375/356 335/368/349 330/365/346 329/367/348
f 336/371/352 341/374/355 328/359/340 327/358/339
f 342/377/358 339/372/353 325/361/342 324/360/341
f 318/348/329 311/351/332 339/378/359 342/379/360
f 313/346/327 319/345/326 341/380/355 336/381/352
f 312/355/336 314/353/334 335/382/349 340/383/356
f 316/350/331 317/347/328 337/384/351 338/385/361
f 315/352/333 310/354/335 343/386/362 334/387/363
f 310/354/335 318/348/329 342/379/360 343/386/362
f 319/345/326 312/355/336 340/383/356 341/380/355
f 311/351/332 316/350/331 338/385/361 339/378/359
f 317/347/328 313/346/327 336/381/352 337/384/351
f 314/353/334 315/352/333 334/387/363 335/382/349
f 355/388/364 353/389/365 347/390/366 351/391/367
f 352/392/368 354/393/369 350/394/370 345/395/371
f 354/393/369 355/388/364 351/391/367 350/394/370
f 349/396/372 348/397/373 355/388/364 354/393/369
f 344/398/374 349/396/372 354/393/369 352/392/368
f 348/397/373 346/399/375 353/389/365 355/388/364
f 367/400/376 360/401/377 361/402/378 362/403/379
f 358/404/380 359/405/381 365/406/382 366/407/383
f 366/407/383 365/406/382 360/401/377 367/400/376
f 356/408/384 366/407/383 367/400/376 364/409/385
f 357/410/386 358/404/380 366/407/383 356/408/384
f 364/409/385 367/400/376 362/403/379 363/411/387
f 369/412/388 368/413/389 356/408/384 364/409/385
f 371/414/390 370/415/391 361/402/378 360/401/377
f 373/416/392 372/417/393 365/406/382 359/405/381
f 375/418/394 374/419/395 363/411/387 362/403/379
f 377/420/396 376/421/397 358/404/380 357/410/386
f 368/413/389 377/420/396 357/410/386 356/408/384
f 372/417/393 371/414/390 360/401/377 365/406/382
f 374/419/395 369/412/388 364/409/385 363/411/387
f 370/415/391 375/418/394 362/403/379 361/402/378
f 376/421/397 373/416/392 359/405/381 358/404/380
f 352/392/368 345/395/371 373/422/398 376/423/399
f 347/390/366 353/389/365 375/424/394 370/425/391
f 346/399/375 348/397/373 369/426/388 374/427/395
f 350/394/370 351/391/367 371/428/390 372/429/400
f 349/396/372 344/398/374 377/430/401 368/431/402
f 344/398/374 352/392/368 376/423/399 377/430/401
f 353/389/365 346/399/375 374/427/395 375/424/394
f 345/395/371 350/394/370 372/429/400 373/422/398
f 351/391/367 347/390/366 370/425/391 371/428/390
f 348/397/373 349/396/372 368/431/402 369/426/388
f 378/432/403 379/433/404 381/434/404 380/435/403
f 380/435/405 381/434/406 385/436/407 384/437/405
f 384/437/408 385/436/409 383/438/409 382/439/408
f 382/439/410 383/438/411 379/433/412 378/432/410
f 404/440/413 398/441/414 383/438/409 385/436/409
f 400/442/415 402/443/416 389/444/417 387/445/418
f 406/446/419 408/447/420 403/448/421 399/449/422
f 407/450/423 395/451/424 390/452/425 401/453/426
f 388/454/427 391/455/428 397/456/429 393/457/430
f 394/458/431 396/459/432 409/460/433 405/461/434
f 386/462/435 387/445/418 388/454/427
f 389/444/417 390/452/425 391/455/428
f 392/463/436 393/457/430 394/458/431
f 395/451/424 396/459/432 397/456/429
f 398/464/414 399/449/422 400/442/415
f 401/453/426 402/443/416 403/448/421
f 404/465/413 405/461/434 406/446/419
f 407/450/423 408/447/420 409/460/433
f 392/463/436 386/462/435 388/454/427 393/457/430
f 387/445/418 389/444/417 391/455/428 388/454/427
f 390/452/425 395/451/424 397/456/429 391/455/428
f 396/459/432 394/458/431 393/457/430 397/456/429
f 404/465/413 392/463/436 394/458/431 405/461/434
f 395/451/424 407/450/423 409/460/433 396/459/432
f 408/447/420 406/446/419 405/461/434 409/460/433
f 398/464/414 404/465/413 406/446/419 399/449/422
f 407/450/423 401/453/426 403/448/421 408/447/420
f 402/443/416 400/442/415 399/449/422 403/448/421
f 386/462/435 398/464/414 400/442/415 387/445/418
f 401/453/426 390/452/425 389/444/417 402/443/416
f 392/466/436 404/440/413 385/436/407 381/434/406
f 398/441/414 386/467/435 379/433/412 383/438/411
f 386/467/435 392/466/436 381/434/404 379/433/404
f 410/468/437 411/469/438 413/470/439 412/471/437
f 412/471/440 413/470/441 417/472/442 416/473/440
f 416/473/443 417/472/444 415/474/445 414/475/443
f 414/475/446 415/474/447 411/469/448 410/468/446
f 436/476/449 430/477/450 415/474/445 417/472/444
f 432/478/451 434/479/452 421/480/453 419/481/454
f 438/482/455 440/483/456 435/484/457 431/485/458
f 439/486/459 427/487/460 422/488/461 433/489/462
f 420/490/463 423/491/464 429/492/465 425/493/466
f 426/494/467 428/495/468 441/496/469 437/497/470
f 418/498/471 419/481/454 420/490/463
f 421/480/453 422/488/461 423/491/464
f 424/499/472 425/493/466 426/494/467
f 427/487/460 428/495/468 429/492/465
f 430/500/450 431/485/458 432/478/451
f 433/489/462 434/479/452 435/484/457
f 436/501/449 437/497/470 438/482/455
f 439/486/459 440/483/456 441/496/469
f 424/499/472 418/498/471 420/490/463 425/493/466
f 419/481/454 421/480/453 423/491/464 420/490/463
f 422/488/461 427/487/460 429/492/465 423/491/464
f 428/495/468 426/494/467 425/493/466 429/492/465
f 436/501/449 424/499/472 426/494/467 437/497/470
f 427/487/460 439/486/459 441/496/469 428/495/468
f 440/483/456 438/482/455 437/497/470 441/496/469
f 430/500/450 436/501/449 438/482/455 431/485/458
f 439/486/459 433/489/462 435/484/457 440/483/456
f 434/479/452 432/478/451 431/485/458 435/484/457
f 418/498/471 430/500/450 432/478/451 419/481/454
f 433/489/462 422/488/461 421/480/453 434/479/452
f 424/502/472 436/476/449 417/472/442 413/470/441
f 430/477/450 418/503/471 411/469/448 415/474/447
f 418/503/471 424/502/472 413/470/439 411/469/438
f 442/504/473 443/505/474 445/506/475 444/507/473
f 444/507/476 445/506/477 449/508/478 448/509/476
f 448/509/479 449/508/480 447/510/481 446/511/479
f 446/511/482 447/510/483 443/505/484 442/504/482
f 468/512/485 462/513/486 447/510/481 449/508/480
f 464/514/487 466/515/488 453/516/489 451/517/490
f 470/518/491 472/519/492 467/520/493 463/521/494
f 471/522/495 459/523/496 454/524/497 465/525/498
f 452/526/499 455/527/500 461/528/501 457/529/502
f 458/530/503 460/531/504 473/532/505 469/533/506
f 450/534/507 451/517/490 452/526/499
f 453/516/489 454/524/497 455/527/500
f 456/535/508 457/529/502 458/530/503
f 459/523/496 460/531/504 461/528/501
f 462/536/486 463/521/494 464/514/487
f 465/525/498 466/515/488 467/520/493
f 468/537/485 469/533/506 470/518/491
f 471/522/495 472/519/492 473/532/505
f 456/535/508 450/534/507 452/526/499 457/529/502
f 451/517/490 453/516/489 455/527/500 452/526/499
f 454/524/497 459/523/496 461/528/501 455/527/500
f 460/531/504 458/530/503 457/529/502 461/528/501
f 468/537/485 456/535/508 458/530/503 469/533/506
f 459/523/496 471/522/495 473/532/505 460/531/504
f 472/519/492 470/518/491 469/533/506 473/532/505
f 462/536/486 468/537/485 470/518/491 463/521/494
f 471/522/495 465/525/498 467/520/493 472/519/492
f 466/515/488 464/514/487 463/521/494 467/520/493
f 450/534/507 462/536/486 464/514/487 451/517/490
f 465/525/498 454/524/497 453/516/489 466/515/488
f 456/538/508 468/512/485 449/508/478 445/506/477
f 462/513/486 450/539/507 443/505/484 447/510/483
f 450/539/507 456/538/508 445/506/475 443/505/474
