# Blender v3.4.1 OBJ File: 'MixedBag1_Export.blend'
# www.blender.org
mtllib guitar_A.mtl
o guitar_A
v -0.097617 -0.478233 0.013059
v -0.097617 -0.478233 -0.086941
v 0.097616 -0.478233 0.013059
v 0.097616 -0.478233 -0.086941
v -0.000000 -1.025966 -0.086941
v -0.000000 -1.025966 0.013059
v -0.375027 -1.228197 0.013059
v -0.365854 -1.257586 0.013059
v -0.331415 -1.281731 0.013059
v -0.300660 -1.280335 0.013059
v -0.300660 -1.280335 -0.086941
v -0.331415 -1.281731 -0.086941
v -0.365854 -1.257586 -0.086941
v -0.375027 -1.228197 -0.086941
v 0.300660 -1.280335 0.013059
v 0.331415 -1.281731 0.013059
v 0.365854 -1.257586 0.013059
v 0.375027 -1.228197 0.013059
v 0.375027 -1.228197 -0.086941
v 0.365854 -1.257586 -0.086941
v 0.331415 -1.281731 -0.086941
v 0.300660 -1.280335 -0.086941
v -0.118734 -0.448877 -0.019147
v -0.118734 -0.448877 -0.054736
v 0.118733 -0.448877 -0.054736
v 0.118733 -0.448877 -0.019147
v -0.000000 -1.079557 -0.055010
v 0.000000 -1.079557 -0.018873
v -0.308436 -1.347083 -0.054648
v -0.308436 -1.347083 -0.019234
v -0.358337 -1.349345 -0.019189
v -0.358337 -1.349345 -0.054694
v -0.423868 -1.266169 -0.019219
v -0.423868 -1.266169 -0.054663
v -0.408986 -1.313836 -0.054694
v -0.408986 -1.313836 -0.019189
v 0.308436 -1.347083 -0.019234
v 0.308436 -1.347083 -0.054648
v 0.358337 -1.349345 -0.054694
v 0.358337 -1.349345 -0.019189
v 0.423868 -1.266169 -0.054663
v 0.423868 -1.266169 -0.019219
v 0.408986 -1.313836 -0.019189
v 0.408985 -1.313836 -0.054694
v -0.086820 -0.644423 0.027556
v -0.086820 -0.572766 0.027556
v 0.086771 -0.644423 0.027556
v 0.086771 -0.572766 0.027556
v -0.119400 -0.664240 0.000699
v -0.119400 -0.552950 0.000699
v 0.119350 -0.664240 0.000699
v 0.119350 -0.552950 0.000699
v -0.104939 -0.652834 0.027556
v -0.104939 -0.564356 0.027556
v 0.104890 -0.564356 0.027556
v 0.104890 -0.652834 0.027556
v -0.086820 -0.824423 0.027556
v -0.086820 -0.752766 0.027556
v 0.086771 -0.824423 0.027556
v 0.086771 -0.752766 0.027556
v -0.119400 -0.844240 0.000699
v -0.119400 -0.732950 0.000699
v 0.119350 -0.844240 0.000699
v 0.119350 -0.732950 0.000699
v -0.104939 -0.832834 0.027556
v -0.104939 -0.744355 0.027556
v 0.104890 -0.744355 0.027556
v 0.104890 -0.832834 0.027556
v -0.092471 -0.505076 0.023059
v 0.097001 -0.505076 0.023059
v -0.217806 -0.935439 0.023059
v 0.320156 -1.114447 0.023059
v 0.124857 -1.007167 0.023059
v 0.009752 -0.854057 0.023059
v 0.220976 -0.846319 0.023059
v 0.124857 -0.854057 0.023059
v -0.097617 -0.478233 0.003059
v 0.097616 -0.478233 0.003059
v -0.237843 -0.964266 0.003059
v 0.347286 -1.153201 0.003059
v 0.105274 -1.033174 0.003059
v -0.000000 -0.873215 0.003059
v 0.236321 -0.853215 0.003059
v 0.105274 -0.873215 0.003059
v 0.210737 -0.942939 0.031497
v 0.210737 -0.942939 0.074620
v 0.234600 -0.951624 0.031497
v 0.234600 -0.951624 0.074620
v 0.247297 -0.973616 0.031497
v 0.247297 -0.973616 0.074620
v 0.242887 -0.998624 0.031497
v 0.242887 -0.998624 0.074620
v 0.223434 -1.014948 0.031497
v 0.210737 -0.980062 0.083425
v 0.223434 -1.014948 0.074620
v 0.198040 -1.014948 0.031497
v 0.198040 -1.014948 0.074620
v 0.210737 -0.980062 0.022692
v 0.178587 -0.998624 0.031497
v 0.178587 -0.998624 0.074620
v 0.174177 -0.973616 0.031497
v 0.174177 -0.973616 0.074620
v 0.186874 -0.951624 0.031497
v 0.186874 -0.951624 0.074620
v 0.228577 -0.958802 0.022692
v 0.210737 -0.952309 0.022692
v 0.210737 -0.952309 0.083425
v 0.228577 -0.958802 0.083425
v 0.238069 -0.975243 0.022692
v 0.238069 -0.975243 0.083425
v 0.234773 -0.993939 0.022692
v 0.234773 -0.993939 0.083425
v 0.220230 -1.006142 0.022692
v 0.220230 -1.006142 0.083425
v 0.201245 -1.006142 0.022692
v 0.201245 -1.006142 0.083425
v 0.186702 -0.993939 0.022692
v 0.186702 -0.993939 0.083425
v 0.183405 -0.975243 0.022692
v 0.183405 -0.975243 0.083425
v 0.192898 -0.958802 0.022692
v 0.192898 -0.958802 0.083425
v 0.176683 -0.848916 0.031497
v 0.176683 -0.848916 0.074620
v 0.200546 -0.857601 0.031497
v 0.200546 -0.857601 0.074620
v 0.213243 -0.879593 0.031497
v 0.213243 -0.879593 0.074620
v 0.208834 -0.904602 0.031497
v 0.208834 -0.904602 0.074620
v 0.189381 -0.920925 0.031497
v 0.176683 -0.886040 0.083425
v 0.189381 -0.920925 0.074620
v 0.163986 -0.920925 0.031497
v 0.163986 -0.920925 0.074620
v 0.176683 -0.886040 0.022692
v 0.144533 -0.904602 0.031497
v 0.144533 -0.904602 0.074620
v 0.140124 -0.879593 0.031497
v 0.140124 -0.879593 0.074620
v 0.152821 -0.857601 0.031497
v 0.152821 -0.857601 0.074620
v 0.194523 -0.864779 0.022692
v 0.176683 -0.858286 0.022692
v 0.176683 -0.858286 0.083425
v 0.194523 -0.864779 0.083425
v 0.204015 -0.881220 0.022692
v 0.204015 -0.881220 0.083425
v 0.200719 -0.899917 0.022692
v 0.200719 -0.899917 0.083425
v 0.186176 -0.912120 0.022692
v 0.186176 -0.912120 0.083425
v 0.167191 -0.912120 0.022692
v 0.167191 -0.912120 0.083425
v 0.152648 -0.899917 0.022692
v 0.152648 -0.899917 0.083425
v 0.149351 -0.881220 0.022692
v 0.149351 -0.881220 0.083425
v 0.158844 -0.864779 0.022692
v 0.158844 -0.864779 0.083425
v 0.029987 0.478589 -0.023007
v 0.029987 0.483475 0.000849
v 0.043327 0.473833 -0.022033
v 0.043327 0.478718 0.001823
v 0.050424 0.461789 -0.019567
v 0.050424 0.466675 0.004289
v 0.047959 0.448094 -0.016762
v 0.047959 0.452979 0.007094
v 0.037085 0.439154 -0.014931
v 0.029987 0.464132 0.009834
v 0.037085 0.444040 0.008925
v 0.022890 0.439154 -0.014931
v 0.022890 0.444040 0.008925
v 0.012015 0.448094 -0.016762
v 0.012015 0.452979 0.007094
v 0.009550 0.461789 -0.019567
v 0.009550 0.466675 0.004289
v 0.016648 0.473833 -0.022033
v 0.016648 0.478718 0.001823
v 0.029987 0.479331 0.006721
v 0.039960 0.475775 0.007450
v 0.045266 0.466771 0.009294
v 0.043423 0.456532 0.011391
v 0.035294 0.449850 0.012759
v 0.024681 0.449850 0.012759
v 0.016551 0.456532 0.011391
v 0.014709 0.466771 0.009294
v 0.020015 0.475775 0.007450
v 0.039988 0.404133 -0.006371
v 0.039988 0.409018 0.017485
v 0.053327 0.399376 -0.005397
v 0.053327 0.404262 0.018459
v 0.060425 0.387333 -0.002930
v 0.060425 0.392218 0.020926
v 0.057960 0.373637 -0.000125
v 0.057960 0.378523 0.023730
v 0.047085 0.364698 0.001705
v 0.039988 0.389676 0.026471
v 0.047085 0.369584 0.025561
v 0.032890 0.364698 0.001705
v 0.032890 0.369584 0.025561
v 0.022016 0.373637 -0.000125
v 0.022016 0.378523 0.023730
v 0.019551 0.387333 -0.002930
v 0.019551 0.392218 0.020926
v 0.026648 0.399376 -0.005397
v 0.026648 0.404262 0.018459
v 0.039988 0.404875 0.023358
v 0.049960 0.401319 0.024086
v 0.055266 0.392315 0.025930
v 0.053423 0.382076 0.028027
v 0.045294 0.375393 0.029395
v 0.034681 0.375393 0.029395
v 0.026552 0.382076 0.028027
v 0.024709 0.392315 0.025930
v 0.030015 0.401319 0.024086
v 0.049986 0.329649 0.010138
v 0.049986 0.334535 0.033993
v 0.063325 0.324893 0.011112
v 0.063325 0.329779 0.034967
v 0.070423 0.312849 0.013578
v 0.070423 0.317735 0.037434
v 0.067958 0.299154 0.016383
v 0.067958 0.304040 0.040239
v 0.057084 0.290215 0.018214
v 0.049986 0.315192 0.042979
v 0.057084 0.295100 0.042069
v 0.042888 0.290215 0.018214
v 0.042888 0.295100 0.042069
v 0.032014 0.299154 0.016383
v 0.032014 0.304040 0.040239
v 0.029549 0.312849 0.013578
v 0.029549 0.317735 0.037434
v 0.036647 0.324893 0.011112
v 0.036647 0.329779 0.034967
v 0.049986 0.330391 0.039866
v 0.059958 0.326835 0.040594
v 0.065265 0.317832 0.042438
v 0.063422 0.307593 0.044535
v 0.055292 0.300910 0.045904
v 0.044680 0.300910 0.045904
v 0.036550 0.307593 0.044535
v 0.034707 0.317832 0.042438
v 0.040013 0.326835 0.040594
v -0.050014 0.329649 0.010138
v -0.050014 0.334535 0.033993
v -0.036675 0.324893 0.011112
v -0.036675 0.329779 0.034967
v -0.029577 0.312849 0.013578
v -0.029577 0.317735 0.037434
v -0.032042 0.299154 0.016383
v -0.032042 0.304040 0.040239
v -0.042917 0.290215 0.018214
v -0.050014 0.315192 0.042979
v -0.042917 0.295100 0.042069
v -0.057112 0.290215 0.018214
v -0.057112 0.295100 0.042069
v -0.067987 0.299154 0.016383
v -0.067987 0.304040 0.040239
v -0.070452 0.312849 0.013578
v -0.070452 0.317735 0.037434
v -0.063354 0.324893 0.011112
v -0.063354 0.329779 0.034967
v -0.050014 0.330391 0.039866
v -0.040042 0.326835 0.040594
v -0.034736 0.317832 0.042438
v -0.036579 0.307593 0.044535
v -0.044708 0.300910 0.045904
v -0.055321 0.300910 0.045904
v -0.063450 0.307593 0.044535
v -0.065293 0.317832 0.042438
v -0.059987 0.326835 0.040594
v -0.040012 0.404133 -0.006371
v -0.040012 0.409018 0.017485
v -0.026673 0.399376 -0.005397
v -0.026673 0.404262 0.018459
v -0.019575 0.387333 -0.002930
v -0.019575 0.392218 0.020926
v -0.022040 0.373637 -0.000125
v -0.022040 0.378523 0.023730
v -0.032915 0.364698 0.001705
v -0.040012 0.389676 0.026471
v -0.032915 0.369584 0.025561
v -0.047110 0.364698 0.001705
v -0.047110 0.369584 0.025561
v -0.057984 0.373637 -0.000125
v -0.057984 0.378523 0.023730
v -0.060449 0.387333 -0.002930
v -0.060449 0.392218 0.020926
v -0.053352 0.399376 -0.005397
v -0.053352 0.404262 0.018459
v -0.040012 0.404875 0.023358
v -0.030040 0.401319 0.024086
v -0.024734 0.392315 0.025930
v -0.026577 0.382076 0.028027
v -0.034706 0.375393 0.029395
v -0.045319 0.375393 0.029395
v -0.053448 0.382076 0.028027
v -0.055291 0.392315 0.025930
v -0.049985 0.401319 0.024086
v -0.030012 0.478589 -0.023007
v -0.030012 0.483475 0.000849
v -0.016673 0.473833 -0.022033
v -0.016673 0.478718 0.001823
v -0.009575 0.461789 -0.019567
v -0.009575 0.466675 0.004289
v -0.012040 0.448094 -0.016762
v -0.012040 0.452979 0.007094
v -0.022914 0.439154 -0.014931
v -0.030012 0.464132 0.009834
v -0.022914 0.444040 0.008925
v -0.037110 0.439154 -0.014931
v -0.037110 0.444040 0.008925
v -0.047984 0.448094 -0.016762
v -0.047984 0.452979 0.007094
v -0.050449 0.461789 -0.019567
v -0.050449 0.466675 0.004289
v -0.043351 0.473833 -0.022033
v -0.043351 0.478718 0.001823
v -0.030012 0.479331 0.006721
v -0.020040 0.475775 0.007450
v -0.014733 0.466771 0.009294
v -0.016576 0.456532 0.011391
v -0.024706 0.449850 0.012759
v -0.035318 0.449850 0.012759
v -0.043448 0.456532 0.011391
v -0.045291 0.466771 0.009294
v -0.039985 0.475775 0.007450
v -0.089447 -0.971800 0.058489
v -0.089447 -0.925388 0.058489
v -0.113062 -0.985025 0.000699
v -0.113062 -0.912163 0.000699
v 0.089408 -0.971800 0.058489
v 0.089408 -0.925388 0.058489
v 0.113013 -0.985025 0.000699
v 0.113013 -0.912163 0.000699
v 0.069911 -0.364650 -0.051228
v -0.069912 -0.364650 -0.051228
v -0.060418 0.191190 0.032053
v 0.115409 0.362905 -0.006370
v 0.115409 0.379808 -0.008877
v 0.091328 0.378518 -0.010719
v 0.115409 0.398157 -0.021725
v 0.115409 0.406294 -0.036751
v 0.091328 0.396867 -0.023567
v 0.115409 0.356481 -0.015545
v 0.091328 0.365907 -0.028729
v 0.115409 0.364617 -0.030571
v 0.115409 0.399869 -0.045926
v 0.115409 0.382967 -0.043419
v 0.091328 0.384257 -0.041577
v 0.137810 0.362905 -0.006370
v 0.153093 0.375425 -0.015136
v 0.137810 0.379808 -0.008877
v 0.137810 0.406294 -0.036751
v 0.137810 0.398157 -0.021725
v 0.153093 0.393774 -0.027985
v 0.137810 0.356481 -0.015545
v 0.137810 0.364617 -0.030571
v 0.153093 0.369000 -0.024311
v 0.137810 0.399869 -0.045926
v 0.153093 0.387350 -0.037160
v 0.137810 0.382967 -0.043419
v -0.115431 0.362905 -0.006370
v -0.115431 0.379808 -0.008877
v -0.091350 0.378518 -0.010719
v -0.115431 0.398157 -0.021725
v -0.115431 0.406294 -0.036751
v -0.091350 0.396867 -0.023567
v -0.125431 0.356481 -0.015545
v -0.091350 0.365907 -0.028729
v -0.115431 0.364617 -0.030571
v -0.115431 0.399869 -0.045926
v -0.115431 0.382967 -0.043419
v -0.091350 0.384257 -0.041577
v -0.137832 0.362905 -0.006370
v -0.153115 0.375425 -0.015136
v -0.137832 0.379808 -0.008877
v -0.137832 0.406294 -0.036751
v -0.137832 0.398157 -0.021725
v -0.153115 0.393774 -0.027985
v -0.147832 0.356481 -0.015545
v -0.137832 0.364617 -0.030571
v -0.153115 0.369000 -0.024311
v -0.137832 0.399869 -0.045926
v -0.153115 0.387350 -0.037160
v -0.137832 0.382967 -0.043419
v 0.095409 0.437994 -0.020583
v 0.095409 0.454896 -0.023090
v 0.071328 0.453606 -0.024932
v 0.095409 0.473246 -0.035938
v 0.095409 0.481382 -0.050964
v 0.071328 0.471956 -0.037780
v 0.095409 0.431569 -0.029758
v 0.071328 0.440995 -0.042942
v 0.095409 0.439706 -0.044784
v 0.095409 0.474958 -0.060139
v 0.095409 0.458055 -0.057632
v 0.071328 0.459345 -0.055790
v 0.117810 0.437994 -0.020583
v 0.133093 0.450513 -0.029349
v 0.117810 0.454896 -0.023090
v 0.117810 0.481382 -0.050964
v 0.117810 0.473246 -0.035938
v 0.133093 0.468863 -0.042198
v 0.117810 0.431569 -0.029758
v 0.117810 0.439706 -0.044784
v 0.133093 0.444089 -0.038524
v 0.117810 0.474958 -0.060139
v 0.133093 0.462438 -0.051373
v 0.117810 0.458055 -0.057632
v -0.095431 0.437994 -0.020583
v -0.095431 0.454896 -0.023090
v -0.071350 0.453606 -0.024932
v -0.095431 0.473246 -0.035938
v -0.095431 0.481382 -0.050964
v -0.071350 0.471956 -0.037780
v -0.095431 0.431569 -0.029758
v -0.071350 0.440995 -0.042942
v -0.095431 0.439706 -0.044784
v -0.095431 0.474958 -0.060139
v -0.095431 0.458055 -0.057632
v -0.071350 0.459345 -0.055790
v -0.117832 0.437994 -0.020583
v -0.133115 0.450513 -0.029349
v -0.117832 0.454896 -0.023090
v -0.117832 0.481382 -0.050964
v -0.117832 0.473246 -0.035938
v -0.133115 0.468863 -0.042198
v -0.117832 0.431569 -0.029758
v -0.117832 0.439706 -0.044784
v -0.133115 0.444089 -0.038524
v -0.117832 0.474958 -0.060139
v -0.133115 0.462438 -0.051373
v -0.117832 0.458055 -0.057632
v 0.135409 0.287821 0.008672
v 0.135409 0.304724 0.006165
v 0.111328 0.303434 0.004323
v 0.135409 0.323073 -0.006683
v 0.135409 0.331210 -0.021709
v 0.111328 0.321783 -0.008526
v 0.135409 0.281397 -0.000503
v 0.111328 0.290823 -0.013687
v 0.135409 0.289533 -0.015529
v 0.135409 0.324785 -0.030884
v 0.135409 0.307883 -0.028378
v 0.111328 0.309173 -0.026535
v 0.157810 0.287821 0.008672
v 0.173093 0.300341 -0.000095
v 0.157810 0.304724 0.006165
v 0.157810 0.331210 -0.021709
v 0.157810 0.323073 -0.006683
v 0.173093 0.318690 -0.012943
v 0.157810 0.281397 -0.000503
v 0.157810 0.289533 -0.015529
v 0.173093 0.293916 -0.009269
v 0.157810 0.324785 -0.030884
v 0.173093 0.312266 -0.022118
v 0.157810 0.307883 -0.028378
v -0.135431 0.287821 0.008672
v -0.135431 0.304724 0.006165
v -0.111350 0.303434 0.004323
v -0.135431 0.323073 -0.006683
v -0.135431 0.331210 -0.021709
v -0.111350 0.321783 -0.008526
v -0.135431 0.281397 -0.000503
v -0.111350 0.290823 -0.013687
v -0.135431 0.289533 -0.015529
v -0.135431 0.324785 -0.030884
v -0.135431 0.307883 -0.028378
v -0.111350 0.309173 -0.026535
v -0.157832 0.287821 0.008672
v -0.173115 0.300341 -0.000095
v -0.157832 0.304724 0.006165
v -0.157832 0.331210 -0.021709
v -0.157832 0.323073 -0.006683
v -0.173115 0.318690 -0.012943
v -0.157832 0.281397 -0.000503
v -0.157832 0.289533 -0.015529
v -0.173115 0.293916 -0.009269
v -0.157832 0.324785 -0.030884
v -0.173115 0.312266 -0.022118
v -0.157832 0.307883 -0.028378
v 0.068335 -0.488980 0.027989
v -0.068348 -0.488995 0.027989
v 0.069465 -0.399862 0.027989
v 0.068860 -0.447537 0.027989
v -0.069469 -0.399863 0.027989
v -0.068870 -0.447547 0.027989
v 0.068081 -0.259436 -0.044728
v 0.065153 -0.091092 -0.034329
v 0.062225 0.077251 -0.023929
v 0.061127 0.130948 0.031741
v 0.061859 0.105676 0.031428
v 0.062591 0.045434 0.031116
v 0.063323 0.020163 0.030803
v 0.064055 -0.040080 0.030490
v 0.064787 -0.065351 0.030178
v 0.065519 -0.125594 0.029865
v 0.066251 -0.150865 0.029553
v 0.066983 -0.211108 0.029240
v 0.067715 -0.236379 0.028927
v 0.068447 -0.296622 0.028615
v 0.069179 -0.321893 0.028302
v -0.068087 -0.259436 -0.044728
v -0.065165 -0.091092 -0.034329
v -0.062244 0.077251 -0.023929
v -0.061148 0.130948 0.031741
v -0.061879 0.105676 0.031428
v -0.062609 0.045434 0.031116
v -0.063339 0.020163 0.030803
v -0.064070 -0.040080 0.030490
v -0.064800 -0.065351 0.030178
v -0.065530 -0.125594 0.029865
v -0.066261 -0.150865 0.029553
v -0.066991 -0.211108 0.029240
v -0.067721 -0.236379 0.028927
v -0.068452 -0.296622 0.028615
v -0.069182 -0.321893 0.028302
v 0.069911 -0.364650 -0.005678
v 0.069335 -0.379393 0.028236
v -0.069912 -0.364650 -0.005678
v -0.069337 -0.379393 0.028236
v 0.015684 -0.923984 0.042034
v 0.005734 -0.923984 0.041721
v 0.015684 0.178854 0.042034
v 0.005734 0.178854 0.041721
v 0.060628 0.171969 0.031954
v -0.060651 0.171969 0.031954
v 0.051507 0.187384 0.039376
v -0.051538 0.187384 0.039376
v 0.051706 0.175675 0.039276
v -0.051737 0.175675 0.039276
v 0.037147 -0.923984 0.042034
v 0.027198 -0.923984 0.041721
v 0.037147 0.178854 0.042034
v 0.027198 0.178854 0.041721
v 0.058611 -0.923984 0.042034
v 0.048662 -0.923984 0.041721
v 0.058611 0.178854 0.042034
v 0.048662 0.178854 0.041721
v -0.005780 -0.923984 0.042034
v -0.015729 -0.923984 0.041721
v -0.005780 0.178854 0.042034
v -0.015729 0.178854 0.041721
v -0.027244 -0.923984 0.042034
v -0.037193 -0.923984 0.041721
v -0.027244 0.178854 0.042034
v -0.037193 0.178854 0.041721
v -0.048707 -0.923984 0.042034
v -0.058657 -0.923984 0.041721
v -0.048707 0.178854 0.042034
v -0.058657 0.178854 0.041721
v 0.068335 -0.488980 -0.052011
v -0.068348 -0.488995 -0.052011
v 0.060395 0.182465 -0.017430
v 0.060395 0.191190 0.032053
v -0.060418 0.182465 -0.017430
v -0.119280 0.275398 0.022606
v 0.119257 0.256576 -0.023982
v -0.119280 0.256576 -0.023982
v 0.119257 0.275398 0.022606
v -0.084167 0.265187 0.024776
v -0.060418 0.237761 0.030606
v -0.060418 0.218938 -0.015982
v -0.084167 0.246364 -0.021811
v 0.084144 0.246364 -0.021811
v 0.060395 0.218938 -0.015982
v 0.060395 0.237761 0.030606
v 0.084144 0.265187 0.024776
v 0.137058 0.257784 0.002626
v -0.137082 0.257784 0.002626
v 0.086571 0.247104 0.007741
v 0.072085 0.228759 0.009901
v -0.086595 0.247104 0.007741
v -0.072108 0.228759 0.009901
v 0.018180 0.509072 -0.077400
v 0.047319 0.487507 -0.072838
v 0.047226 0.506626 -0.026313
v 0.018180 0.527894 -0.030812
v -0.018204 0.527894 -0.030812
v -0.047249 0.506626 -0.026313
v -0.047342 0.487507 -0.072838
v -0.018204 0.509072 -0.077400
v 0.029465 0.533657 -0.060236
v 0.058474 0.512316 -0.055374
v -0.029488 0.533657 -0.060236
v -0.058497 0.512316 -0.055374
vt 0.790771 0.006291
vt 0.816084 0.046070
vt 0.816084 0.054038
vt 0.791409 0.016216
vt 0.850871 0.018322
vt 0.825829 0.139845
vt 0.824096 0.135480
vt 0.846863 0.023968
vt 0.845493 0.021580
vt 0.843284 0.031634
vt 0.846110 0.035224
vt 0.849650 0.026860
vt 0.840760 0.047466
vt 0.846863 0.055218
vt 0.846110 0.050849
vt 0.843284 0.047259
vt 0.816084 0.085288
vt 0.824096 0.166730
vt 0.808073 0.166730
vt 0.791409 0.047466
vt 0.785305 0.055218
vt 0.786058 0.050849
vt 0.788885 0.047259
vt 0.816084 0.085288
vt 0.808073 0.166730
vt 0.824096 0.166730
vt 0.840760 0.047466
vt 0.843284 0.047259
vt 0.846110 0.050849
vt 0.846863 0.055218
vt 0.781297 0.033947
vt 0.806340 0.155470
vt 0.808073 0.151105
vt 0.785305 0.039593
vt 0.841398 0.006291
vt 0.840760 0.016216
vt 0.791409 0.047466
vt 0.788885 0.047259
vt 0.786058 0.050849
vt 0.785305 0.055218
vt 0.788885 0.016009
vt 0.786675 0.005955
vt 0.786058 0.035224
vt 0.782518 0.026860
vt 0.841398 0.021916
vt 0.840760 0.031841
vt 0.846110 0.019599
vt 0.849650 0.011235
vt 0.786058 0.019599
vt 0.782518 0.011235
vt 0.824096 0.151105
vt 0.825829 0.155470
vt 0.788885 0.031634
vt 0.786675 0.021580
vt 0.786675 0.052830
vt 0.786675 0.052830
vt 0.782518 0.058110
vt 0.782518 0.058110
vt 0.846863 0.039593
vt 0.850871 0.033947
vt 0.850871 0.065197
vt 0.850871 0.065197
vt 0.849650 0.058110
vt 0.849650 0.058110
vt 0.845493 0.005955
vt 0.843284 0.016009
vt 0.841398 0.053166
vt 0.841398 0.053166
vt 0.845493 0.052830
vt 0.845493 0.052830
vt 0.785305 0.023968
vt 0.781297 0.018322
vt 0.781297 0.065197
vt 0.781297 0.065197
vt 0.791409 0.031841
vt 0.790771 0.021916
vt 0.790771 0.053166
vt 0.790771 0.053166
vt 0.816084 0.069663
vt 0.816084 0.061695
vt 0.816084 0.092945
vt 0.816084 0.092945
vt 0.808073 0.135480
vt 0.806340 0.139845
vt 0.806340 0.186720
vt 0.806340 0.186720
vt 0.825829 0.186720
vt 0.825829 0.186720
vt 0.602545 0.903208
vt 0.602545 0.940542
vt 0.597694 0.936715
vt 0.597694 0.907035
vt 0.841616 0.661829
vt 0.841616 0.681921
vt 0.783384 0.681921
vt 0.783384 0.661829
vt 0.522455 0.903208
vt 0.527306 0.907035
vt 0.522455 0.940542
vt 0.527306 0.936715
vt 0.533384 0.911829
vt 0.533384 0.931921
vt 0.591616 0.931921
vt 0.591616 0.911829
vt 0.602545 0.903208
vt 0.602545 0.940542
vt 0.597694 0.936715
vt 0.597694 0.907035
vt 0.841616 0.661829
vt 0.841616 0.681921
vt 0.783384 0.681921
vt 0.783384 0.661829
vt 0.522455 0.903208
vt 0.527306 0.907035
vt 0.522455 0.940542
vt 0.527306 0.936715
vt 0.533384 0.911829
vt 0.533384 0.931921
vt 0.591616 0.931921
vt 0.591616 0.911829
vt 0.199096 0.932355
vt 0.200782 0.876096
vt 0.210479 0.876599
vt 0.191084 0.875593
vt 0.201484 0.834972
vt 0.219586 0.831995
vt 0.183073 0.932355
vt 0.166409 0.813091
vt 0.191084 0.828718
vt 0.191084 0.828718
vt 0.200782 0.829221
vt 0.200782 0.829221
vt 0.219586 0.785120
vt 0.219586 0.785120
vt 0.210479 0.829724
vt 0.210479 0.829724
vt 0.183073 0.885480
vt 0.183073 0.885480
vt 0.166409 0.766216
vt 0.166409 0.766216
vt 0.201484 0.788097
vt 0.201484 0.788097
vt 0.199096 0.885480
vt 0.199096 0.885480
vt 0.787926 0.584247
vt 0.787926 0.599342
vt 0.804372 0.599342
vt 0.804372 0.584247
vt 0.829569 0.584247
vt 0.829569 0.599342
vt 0.826530 0.599342
vt 0.826530 0.584247
vt 0.813123 0.599342
vt 0.813123 0.584247
vt 0.795622 0.599342
vt 0.795622 0.584247
vt 0.782214 0.599342
vt 0.782214 0.584247
vt 0.779176 0.599342
vt 0.779176 0.584247
vt 0.820818 0.584247
vt 0.820818 0.599342
vt 0.804372 0.631122
vt 0.820818 0.631122
vt 0.816667 0.628040
vt 0.804372 0.628040
vt 0.820818 0.646217
vt 0.804372 0.646217
vt 0.804372 0.649299
vt 0.816667 0.649299
vt 0.829569 0.631122
vt 0.823209 0.628040
vt 0.829569 0.646217
vt 0.823209 0.649299
vt 0.826530 0.631122
vt 0.820937 0.628040
vt 0.826530 0.646217
vt 0.820937 0.649299
vt 0.813123 0.631122
vt 0.810914 0.628040
vt 0.813123 0.646217
vt 0.810914 0.649299
vt 0.795622 0.631122
vt 0.797830 0.628040
vt 0.795622 0.646217
vt 0.797830 0.649299
vt 0.782214 0.631122
vt 0.787807 0.628040
vt 0.782214 0.646217
vt 0.787807 0.649299
vt 0.779176 0.631122
vt 0.785535 0.628040
vt 0.779176 0.646217
vt 0.785535 0.649299
vt 0.787926 0.631122
vt 0.792077 0.628040
vt 0.787926 0.646217
vt 0.792077 0.649299
vt 0.804372 0.581165
vt 0.804372 0.581165
vt 0.816667 0.581165
vt 0.814006 0.602424
vt 0.816667 0.602424
vt 0.804372 0.602424
vt 0.814006 0.581165
vt 0.823209 0.581165
vt 0.819132 0.602424
vt 0.823209 0.602424
vt 0.819132 0.581165
vt 0.820937 0.581165
vt 0.817352 0.602424
vt 0.820937 0.602424
vt 0.817352 0.581165
vt 0.810914 0.581165
vt 0.809498 0.602424
vt 0.810914 0.602424
vt 0.809498 0.581165
vt 0.797830 0.581165
vt 0.799246 0.602424
vt 0.797830 0.602424
vt 0.799246 0.581165
vt 0.787807 0.581165
vt 0.791392 0.602424
vt 0.787807 0.602424
vt 0.791393 0.581165
vt 0.785535 0.581165
vt 0.789612 0.602424
vt 0.785535 0.602424
vt 0.789612 0.581165
vt 0.792077 0.581165
vt 0.794738 0.602424
vt 0.792077 0.602424
vt 0.794739 0.581165
vt 0.804372 0.602424
vt 0.787926 0.584247
vt 0.787926 0.599342
vt 0.804372 0.599342
vt 0.804372 0.584247
vt 0.829569 0.584247
vt 0.829569 0.599342
vt 0.826530 0.599342
vt 0.826530 0.584247
vt 0.813123 0.599342
vt 0.813123 0.584247
vt 0.795622 0.599342
vt 0.795622 0.584247
vt 0.782214 0.599342
vt 0.782214 0.584247
vt 0.779176 0.599342
vt 0.779176 0.584247
vt 0.820818 0.584247
vt 0.820818 0.599342
vt 0.804372 0.631122
vt 0.820818 0.631122
vt 0.816667 0.628040
vt 0.804372 0.628040
vt 0.820818 0.646217
vt 0.804372 0.646217
vt 0.804372 0.649299
vt 0.816667 0.649299
vt 0.829569 0.631122
vt 0.823209 0.628040
vt 0.829569 0.646217
vt 0.823209 0.649299
vt 0.826530 0.631122
vt 0.820937 0.628040
vt 0.826530 0.646217
vt 0.820937 0.649299
vt 0.813123 0.631122
vt 0.810914 0.628040
vt 0.813123 0.646217
vt 0.810914 0.649299
vt 0.795622 0.631122
vt 0.797830 0.628040
vt 0.795622 0.646217
vt 0.797830 0.649299
vt 0.782214 0.631122
vt 0.787807 0.628040
vt 0.782214 0.646217
vt 0.787807 0.649299
vt 0.779176 0.631122
vt 0.785535 0.628040
vt 0.779176 0.646217
vt 0.785535 0.649299
vt 0.787926 0.631122
vt 0.792077 0.628040
vt 0.787926 0.646217
vt 0.792077 0.649299
vt 0.804372 0.581165
vt 0.804372 0.581165
vt 0.816667 0.581165
vt 0.814006 0.602424
vt 0.816667 0.602424
vt 0.804372 0.602424
vt 0.814006 0.581165
vt 0.823209 0.581165
vt 0.819132 0.602424
vt 0.823209 0.602424
vt 0.819132 0.581165
vt 0.820937 0.581165
vt 0.817352 0.602424
vt 0.820937 0.602424
vt 0.817352 0.581165
vt 0.810914 0.581165
vt 0.809498 0.602424
vt 0.810914 0.602424
vt 0.809498 0.581165
vt 0.797830 0.581165
vt 0.799246 0.602424
vt 0.797830 0.602424
vt 0.799246 0.581165
vt 0.787807 0.581165
vt 0.791392 0.602424
vt 0.787807 0.602424
vt 0.791393 0.581165
vt 0.785535 0.581165
vt 0.789612 0.602424
vt 0.785535 0.602424
vt 0.789612 0.581165
vt 0.792077 0.581165
vt 0.794738 0.602424
vt 0.792077 0.602424
vt 0.794739 0.581165
vt 0.804372 0.602424
vt 0.787926 0.584247
vt 0.787926 0.599342
vt 0.804372 0.599342
vt 0.804372 0.584247
vt 0.829569 0.584247
vt 0.829569 0.599342
vt 0.826530 0.599342
vt 0.826530 0.584247
vt 0.813123 0.599342
vt 0.813123 0.584247
vt 0.795622 0.599342
vt 0.795622 0.584247
vt 0.782214 0.599342
vt 0.782214 0.584247
vt 0.779176 0.599342
vt 0.779176 0.584247
vt 0.820818 0.584247
vt 0.820818 0.599342
vt 0.820818 0.646217
vt 0.804372 0.646217
vt 0.804372 0.649299
vt 0.816667 0.649299
vt 0.829569 0.646217
vt 0.823209 0.649299
vt 0.826530 0.646217
vt 0.820937 0.649299
vt 0.813123 0.646217
vt 0.810914 0.649299
vt 0.795622 0.646217
vt 0.797830 0.649299
vt 0.782214 0.646217
vt 0.787807 0.649299
vt 0.779176 0.646217
vt 0.785535 0.649299
vt 0.787926 0.646217
vt 0.792077 0.649299
vt 0.814006 0.602424
vt 0.816667 0.602424
vt 0.804372 0.602424
vt 0.819132 0.602424
vt 0.823209 0.602424
vt 0.817352 0.602424
vt 0.820937 0.602424
vt 0.809498 0.602424
vt 0.810914 0.602424
vt 0.799246 0.602424
vt 0.797830 0.602424
vt 0.791392 0.602424
vt 0.787807 0.602424
vt 0.789612 0.602424
vt 0.785535 0.602424
vt 0.794738 0.602424
vt 0.792077 0.602424
vt 0.804372 0.602424
vt 0.787926 0.584247
vt 0.787926 0.599342
vt 0.804372 0.599342
vt 0.804372 0.584247
vt 0.829569 0.584247
vt 0.829569 0.599342
vt 0.826530 0.599342
vt 0.826530 0.584247
vt 0.813123 0.599342
vt 0.813123 0.584247
vt 0.795622 0.599342
vt 0.795622 0.584247
vt 0.782214 0.599342
vt 0.782214 0.584247
vt 0.779176 0.599342
vt 0.779176 0.584247
vt 0.820818 0.584247
vt 0.820818 0.599342
vt 0.820818 0.646217
vt 0.804372 0.646217
vt 0.804372 0.649299
vt 0.816667 0.649299
vt 0.829569 0.646217
vt 0.823209 0.649299
vt 0.826530 0.646217
vt 0.820937 0.649299
vt 0.813123 0.646217
vt 0.810914 0.649299
vt 0.795622 0.646217
vt 0.797830 0.649299
vt 0.782214 0.646217
vt 0.787807 0.649299
vt 0.779176 0.646217
vt 0.785535 0.649299
vt 0.787926 0.646217
vt 0.792077 0.649299
vt 0.814006 0.602424
vt 0.816667 0.602424
vt 0.804372 0.602424
vt 0.819132 0.602424
vt 0.823209 0.602424
vt 0.817352 0.602424
vt 0.820937 0.602424
vt 0.809498 0.602424
vt 0.810914 0.602424
vt 0.799246 0.602424
vt 0.797830 0.602424
vt 0.791392 0.602424
vt 0.787807 0.602424
vt 0.789612 0.602424
vt 0.785535 0.602424
vt 0.794738 0.602424
vt 0.792077 0.602424
vt 0.804372 0.602424
vt 0.787926 0.584247
vt 0.787926 0.599342
vt 0.804372 0.599342
vt 0.804372 0.584247
vt 0.829569 0.584247
vt 0.829569 0.599342
vt 0.826530 0.599342
vt 0.826530 0.584247
vt 0.813123 0.599342
vt 0.813123 0.584247
vt 0.795622 0.599342
vt 0.795622 0.584247
vt 0.782214 0.599342
vt 0.782214 0.584247
vt 0.779176 0.599342
vt 0.779176 0.584247
vt 0.820818 0.584247
vt 0.820818 0.599342
vt 0.820818 0.646217
vt 0.804372 0.646217
vt 0.804372 0.649299
vt 0.816667 0.649299
vt 0.829569 0.646217
vt 0.823209 0.649299
vt 0.826530 0.646217
vt 0.820937 0.649299
vt 0.813123 0.646217
vt 0.810914 0.649299
vt 0.795622 0.646217
vt 0.797830 0.649299
vt 0.782214 0.646217
vt 0.787807 0.649299
vt 0.779176 0.646217
vt 0.785535 0.649299
vt 0.787926 0.646217
vt 0.792077 0.649299
vt 0.814006 0.602424
vt 0.816667 0.602424
vt 0.804372 0.602424
vt 0.819132 0.602424
vt 0.823209 0.602424
vt 0.817352 0.602424
vt 0.820937 0.602424
vt 0.809498 0.602424
vt 0.810914 0.602424
vt 0.799246 0.602424
vt 0.797830 0.602424
vt 0.791392 0.602424
vt 0.787807 0.602424
vt 0.789612 0.602424
vt 0.785535 0.602424
vt 0.794738 0.602424
vt 0.792077 0.602424
vt 0.804372 0.602424
vt 0.787926 0.584247
vt 0.787926 0.599342
vt 0.804372 0.599342
vt 0.804372 0.584247
vt 0.829569 0.584247
vt 0.829569 0.599342
vt 0.826530 0.599342
vt 0.826530 0.584247
vt 0.813123 0.599342
vt 0.813123 0.584247
vt 0.795622 0.599342
vt 0.795622 0.584247
vt 0.782214 0.599342
vt 0.782214 0.584247
vt 0.779176 0.599342
vt 0.779176 0.584247
vt 0.820818 0.584247
vt 0.820818 0.599342
vt 0.820818 0.646217
vt 0.804372 0.646217
vt 0.804372 0.649299
vt 0.816667 0.649299
vt 0.829569 0.646217
vt 0.823209 0.649299
vt 0.826530 0.646217
vt 0.820937 0.649299
vt 0.813123 0.646217
vt 0.810914 0.649299
vt 0.795622 0.646217
vt 0.797830 0.649299
vt 0.782214 0.646217
vt 0.787807 0.649299
vt 0.779176 0.646217
vt 0.785535 0.649299
vt 0.787926 0.646217
vt 0.792077 0.649299
vt 0.814006 0.602424
vt 0.816667 0.602424
vt 0.804372 0.602424
vt 0.819132 0.602424
vt 0.823209 0.602424
vt 0.817352 0.602424
vt 0.820937 0.602424
vt 0.809498 0.602424
vt 0.810914 0.602424
vt 0.799246 0.602424
vt 0.797830 0.602424
vt 0.791392 0.602424
vt 0.787807 0.602424
vt 0.789612 0.602424
vt 0.785535 0.602424
vt 0.794738 0.602424
vt 0.792077 0.602424
vt 0.804372 0.602424
vt 0.787926 0.584247
vt 0.787926 0.599342
vt 0.804372 0.599342
vt 0.804372 0.584247
vt 0.829569 0.584247
vt 0.829569 0.599342
vt 0.826530 0.599342
vt 0.826530 0.584247
vt 0.813123 0.599342
vt 0.813123 0.584247
vt 0.795622 0.599342
vt 0.795622 0.584247
vt 0.782214 0.599342
vt 0.782214 0.584247
vt 0.779176 0.599342
vt 0.779176 0.584247
vt 0.820818 0.584247
vt 0.820818 0.599342
vt 0.820818 0.646217
vt 0.804372 0.646217
vt 0.804372 0.649299
vt 0.816667 0.649299
vt 0.829569 0.646217
vt 0.823209 0.649299
vt 0.826530 0.646217
vt 0.820937 0.649299
vt 0.813123 0.646217
vt 0.810914 0.649299
vt 0.795622 0.646217
vt 0.797830 0.649299
vt 0.782214 0.646217
vt 0.787807 0.649299
vt 0.779176 0.646217
vt 0.785535 0.649299
vt 0.787926 0.646217
vt 0.792077 0.649299
vt 0.814006 0.602424
vt 0.816667 0.602424
vt 0.804372 0.602424
vt 0.819132 0.602424
vt 0.823209 0.602424
vt 0.817352 0.602424
vt 0.820937 0.602424
vt 0.809498 0.602424
vt 0.810914 0.602424
vt 0.799246 0.602424
vt 0.797830 0.602424
vt 0.791392 0.602424
vt 0.787807 0.602424
vt 0.789612 0.602424
vt 0.785535 0.602424
vt 0.794738 0.602424
vt 0.792077 0.602424
vt 0.804372 0.602424
vt 0.787926 0.584247
vt 0.787926 0.599342
vt 0.804372 0.599342
vt 0.804372 0.584247
vt 0.829569 0.584247
vt 0.829569 0.599342
vt 0.826530 0.599342
vt 0.826530 0.584247
vt 0.813123 0.599342
vt 0.813123 0.584247
vt 0.795622 0.599342
vt 0.795622 0.584247
vt 0.782214 0.599342
vt 0.782214 0.584247
vt 0.779176 0.599342
vt 0.779176 0.584247
vt 0.820818 0.584247
vt 0.820818 0.599342
vt 0.820818 0.646217
vt 0.804372 0.646217
vt 0.804372 0.649299
vt 0.816667 0.649299
vt 0.829569 0.646217
vt 0.823209 0.649299
vt 0.826530 0.646217
vt 0.820937 0.649299
vt 0.813123 0.646217
vt 0.810914 0.649299
vt 0.795622 0.646217
vt 0.797830 0.649299
vt 0.782214 0.646217
vt 0.787807 0.649299
vt 0.779176 0.646217
vt 0.785535 0.649299
vt 0.787926 0.646217
vt 0.792077 0.649299
vt 0.814006 0.602424
vt 0.816667 0.602424
vt 0.804372 0.602424
vt 0.819132 0.602424
vt 0.823209 0.602424
vt 0.817352 0.602424
vt 0.820937 0.602424
vt 0.809498 0.602424
vt 0.810914 0.602424
vt 0.799246 0.602424
vt 0.797830 0.602424
vt 0.791392 0.602424
vt 0.787807 0.602424
vt 0.789612 0.602424
vt 0.785535 0.602424
vt 0.794738 0.602424
vt 0.792077 0.602424
vt 0.804372 0.602424
vt 0.939569 0.847398
vt 0.939569 0.847398
vt 0.939500 0.851396
vt 0.698817 0.564169
vt 0.698817 0.568577
vt 0.695592 0.569833
vt 0.695592 0.562913
vt 0.726462 0.562913
vt 0.726462 0.569833
vt 0.723238 0.568577
vt 0.723238 0.564169
vt 0.723238 0.579794
vt 0.723238 0.584202
vt 0.698817 0.584202
vt 0.698817 0.579794
vt 0.695592 0.531663
vt 0.726462 0.531663
vt 0.723238 0.532919
vt 0.698817 0.532919
vt 0.726462 0.616708
vt 0.695592 0.616708
vt 0.698817 0.615452
vt 0.723238 0.615452
vt 0.938737 0.896128
vt 0.938737 0.895364
vt 0.938664 0.899361
vt 0.938687 0.898893
vt 0.698128 0.898008
vt 0.698128 0.898008
vt 0.698128 0.898008
vt 0.698128 0.898008
vt 0.927168 0.898893
vt 0.927190 0.900189
vt 0.927190 0.899361
vt 0.821967 0.631733
vt 0.821967 0.633476
vt 0.819838 0.633476
vt 0.819838 0.631733
vt 0.823421 0.630707
vt 0.823421 0.632450
vt 0.823421 0.633060
vt 0.823421 0.631317
vt 0.821967 0.633639
vt 0.819838 0.633639
vt 0.819838 0.634249
vt 0.821967 0.634249
vt 0.798306 0.632156
vt 0.798306 0.633354
vt 0.817556 0.633354
vt 0.817556 0.632156
vt 0.819838 0.630291
vt 0.819838 0.632034
vt 0.821967 0.632034
vt 0.821967 0.630291
vt 0.819838 0.630128
vt 0.817556 0.631611
vt 0.819838 0.629518
vt 0.817556 0.630413
vt 0.821967 0.630128
vt 0.821967 0.629518
vt 0.793891 0.631733
vt 0.796016 0.631733
vt 0.796016 0.633476
vt 0.793891 0.633476
vt 0.792437 0.630707
vt 0.792437 0.631317
vt 0.792437 0.633060
vt 0.792437 0.632450
vt 0.793891 0.633639
vt 0.793891 0.634249
vt 0.796016 0.634249
vt 0.796016 0.633639
vt 0.798306 0.630413
vt 0.796016 0.630291
vt 0.793891 0.630291
vt 0.793891 0.632034
vt 0.796016 0.632034
vt 0.796016 0.630128
vt 0.798306 0.631611
vt 0.796016 0.629518
vt 0.793891 0.630128
vt 0.793891 0.629518
vt 0.821967 0.637077
vt 0.821967 0.638820
vt 0.819838 0.638820
vt 0.819838 0.637077
vt 0.823421 0.636051
vt 0.823421 0.637793
vt 0.823421 0.638404
vt 0.823421 0.636661
vt 0.821967 0.638983
vt 0.819838 0.638983
vt 0.819838 0.639593
vt 0.821967 0.639593
vt 0.798306 0.637500
vt 0.798306 0.638698
vt 0.817556 0.638698
vt 0.817556 0.637500
vt 0.819838 0.635635
vt 0.819838 0.637377
vt 0.821967 0.637377
vt 0.821967 0.635635
vt 0.819838 0.635472
vt 0.817556 0.636955
vt 0.819838 0.634862
vt 0.817556 0.635757
vt 0.821967 0.635472
vt 0.821967 0.634862
vt 0.793891 0.637077
vt 0.796016 0.637077
vt 0.796016 0.638820
vt 0.793891 0.638820
vt 0.792437 0.636051
vt 0.792437 0.636661
vt 0.792437 0.638404
vt 0.792437 0.637793
vt 0.793891 0.638983
vt 0.793891 0.639593
vt 0.796016 0.639593
vt 0.796016 0.638983
vt 0.798306 0.635757
vt 0.796016 0.635635
vt 0.793891 0.635635
vt 0.793891 0.637377
vt 0.796016 0.637377
vt 0.796016 0.635472
vt 0.798306 0.636955
vt 0.796016 0.634862
vt 0.793891 0.635472
vt 0.793891 0.634862
vt 0.821967 0.626390
vt 0.821967 0.628133
vt 0.819838 0.628133
vt 0.819838 0.626390
vt 0.823421 0.625363
vt 0.823421 0.627106
vt 0.823421 0.627716
vt 0.823421 0.625974
vt 0.821967 0.628295
vt 0.819838 0.628295
vt 0.819838 0.628905
vt 0.821967 0.628905
vt 0.798306 0.626812
vt 0.798306 0.628010
vt 0.817556 0.628010
vt 0.817556 0.626812
vt 0.819838 0.624947
vt 0.819838 0.626690
vt 0.821967 0.626690
vt 0.821967 0.624947
vt 0.819838 0.624785
vt 0.817556 0.626267
vt 0.819838 0.624174
vt 0.817556 0.625069
vt 0.821967 0.624785
vt 0.821967 0.624174
vt 0.793891 0.626390
vt 0.796016 0.626390
vt 0.796016 0.628133
vt 0.793891 0.628133
vt 0.792437 0.625363
vt 0.792437 0.625974
vt 0.792437 0.627716
vt 0.792437 0.627106
vt 0.793891 0.628295
vt 0.793891 0.628905
vt 0.796016 0.628905
vt 0.796016 0.628295
vt 0.798306 0.625069
vt 0.796016 0.624947
vt 0.793891 0.624947
vt 0.793891 0.626690
vt 0.796016 0.626690
vt 0.796016 0.624785
vt 0.798306 0.626267
vt 0.796016 0.624174
vt 0.793891 0.624785
vt 0.793891 0.624174
vt 0.939469 0.870776
vt 0.926389 0.870775
vt 0.926439 0.866839
vt 0.939420 0.866840
vt 0.926343 0.878909
vt 0.939515 0.878909
vt 0.939500 0.882709
vt 0.926358 0.882709
vt 0.939527 0.875304
vt 0.926332 0.875304
vt 0.939515 0.847659
vt 0.939500 0.851459
vt 0.926358 0.851396
vt 0.926358 0.851459
vt 0.926427 0.855520
vt 0.926427 0.855393
vt 0.926500 0.859581
vt 0.926500 0.859389
vt 0.926568 0.863642
vt 0.926568 0.863387
vt 0.926637 0.867703
vt 0.926637 0.867384
vt 0.926706 0.871763
vt 0.926706 0.871381
vt 0.926774 0.875824
vt 0.926774 0.875378
vt 0.926847 0.879885
vt 0.926847 0.879375
vt 0.926916 0.883946
vt 0.926916 0.883372
vt 0.926984 0.888007
vt 0.926984 0.887369
vt 0.927053 0.892068
vt 0.927053 0.891366
vt 0.927122 0.896128
vt 0.801358 0.625873
vt 0.814500 0.625873
vt 0.814431 0.629934
vt 0.801427 0.629934
vt 0.926427 0.886770
vt 0.939431 0.886770
vt 0.939363 0.890831
vt 0.926500 0.890831
vt 0.801500 0.633995
vt 0.814363 0.633995
vt 0.814294 0.638056
vt 0.801568 0.638056
vt 0.926568 0.894892
vt 0.939294 0.894892
vt 0.939225 0.898953
vt 0.926637 0.898953
vt 0.801637 0.642117
vt 0.814225 0.642117
vt 0.814153 0.646177
vt 0.801706 0.646177
vt 0.926706 0.903013
vt 0.939153 0.903013
vt 0.939084 0.907074
vt 0.926774 0.907074
vt 0.801774 0.650238
vt 0.814084 0.650238
vt 0.814012 0.654299
vt 0.801847 0.654299
vt 0.926847 0.911135
vt 0.939012 0.911135
vt 0.938943 0.915196
vt 0.926916 0.915196
vt 0.801916 0.658360
vt 0.813943 0.658360
vt 0.813874 0.662421
vt 0.801984 0.662421
vt 0.926984 0.919257
vt 0.938874 0.919257
vt 0.938805 0.923318
vt 0.927053 0.923318
vt 0.802053 0.666482
vt 0.813805 0.666482
vt 0.813737 0.670542
vt 0.802122 0.670542
vt 0.939569 0.831773
vt 0.926290 0.831773
vt 0.926358 0.835771
vt 0.939500 0.835771
vt 0.939294 0.847762
vt 0.926568 0.847762
vt 0.926637 0.851759
vt 0.939225 0.851759
vt 0.926290 0.847398
vt 0.926290 0.847398
vt 0.939012 0.863750
vt 0.926847 0.863750
vt 0.926916 0.867747
vt 0.938943 0.867747
vt 0.814527 0.618469
vt 0.814515 0.622073
vt 0.801343 0.622073
vt 0.801332 0.618468
vt 0.939431 0.855393
vt 0.939431 0.855520
vt 0.939363 0.859389
vt 0.939363 0.859581
vt 0.939294 0.863387
vt 0.939294 0.863642
vt 0.939225 0.867384
vt 0.939225 0.867703
vt 0.939153 0.871381
vt 0.939153 0.871763
vt 0.939084 0.875378
vt 0.939084 0.875824
vt 0.939012 0.879375
vt 0.939012 0.879885
vt 0.938943 0.883372
vt 0.938943 0.883946
vt 0.938874 0.887369
vt 0.938874 0.888007
vt 0.938805 0.891366
vt 0.938805 0.892068
vt 0.926343 0.847659
vt 0.939527 0.844054
vt 0.926332 0.844054
vt 0.833850 0.592497
vt 0.833850 0.710802
vt 0.844512 0.710169
vt 0.844512 0.593129
vt 0.927122 0.927378
vt 0.938737 0.927378
vt 0.938687 0.930143
vt 0.927168 0.930143
vt 0.938664 0.900189
vt 0.938737 0.879739
vt 0.927122 0.879739
vt 0.927190 0.883736
vt 0.938664 0.883736
vt 0.927122 0.895364
vt 0.698128 0.899303
vt 0.698128 0.899303
vt 0.698128 0.866758
vt 0.698128 0.868053
vt 0.698128 0.868053
vt 0.698128 0.866758
vt 0.698128 0.899303
vt 0.698128 0.899303
vt 0.698128 0.868053
vt 0.698128 0.866758
vt 0.698128 0.866758
vt 0.698128 0.868053
vt 0.833850 0.592497
vt 0.833850 0.710802
vt 0.844512 0.710169
vt 0.844512 0.593129
vt 0.833850 0.592497
vt 0.833850 0.710802
vt 0.844512 0.710169
vt 0.844512 0.593129
vt 0.833850 0.592497
vt 0.833850 0.710802
vt 0.844512 0.710169
vt 0.844512 0.593129
vt 0.833850 0.592497
vt 0.833850 0.710802
vt 0.844512 0.710169
vt 0.844512 0.593129
vt 0.833850 0.592497
vt 0.833850 0.710802
vt 0.844512 0.710169
vt 0.844512 0.593129
vt 0.926439 0.866839
vt 0.939420 0.866840
vt 0.787663 0.069543
vt 0.787663 0.072878
vt 0.804709 0.140033
vt 0.804561 0.136112
vt 0.815349 0.148998
vt 0.816113 0.145663
vt 0.808887 0.145663
vt 0.809650 0.148998
vt 0.837337 0.072878
vt 0.837337 0.069543
vt 0.820439 0.136112
vt 0.820290 0.140033
vt 0.837337 0.076213
vt 0.820417 0.142867
vt 0.794975 0.135095
vt 0.830025 0.135095
vt 0.837337 0.138713
vt 0.787663 0.138713
vt 0.830025 0.065925
vt 0.794975 0.065925
vt 0.830025 0.069260
vt 0.794975 0.069260
vt 0.794975 0.072595
vt 0.787663 0.076213
vt 0.825079 0.043283
vt 0.799921 0.043283
vt 0.799921 0.056207
vt 0.825079 0.056207
vt 0.825079 0.059542
vt 0.799921 0.108875
vt 0.825079 0.108875
vt 0.825079 0.125376
vt 0.799921 0.125376
vt 0.809650 0.142329
vt 0.815349 0.142329
vt 0.830025 0.072595
vt 0.825079 0.062876
vt 0.799921 0.059542
vt 0.799921 0.046375
vt 0.799921 0.062876
vt 0.804582 0.205367
vt 0.820417 0.205367
vt 0.815349 0.211498
vt 0.809650 0.211498
vt 0.804582 0.142867
vt 0.825079 0.046375
vn 0.1437 -0.4497 0.8815
vn 0.3880 -0.4533 0.8025
vn 0.2512 -0.4550 0.8543
vn 0.5343 -0.0370 0.8445
vn 0.6727 0.2500 0.6964
vn 0.6180 0.1185 0.7772
vn 0.1187 -0.3886 -0.9137
vn 0.0635 -0.2411 -0.9684
vn 0.2273 -0.1417 -0.9635
vn 0.3321 -0.2645 -0.9054
vn -0.1550 -0.2807 -0.9472
vn 0.3863 0.0741 -0.9194
vn 0.0000 0.0000 1.0000
vn -0.0000 -0.1440 -0.9896
vn 0.0000 0.0000 -1.0000
vn -0.5343 -0.0370 -0.8445
vn -0.6727 0.2500 -0.6964
vn -0.3862 0.0741 -0.9194
vn -0.3880 -0.4533 0.8025
vn -0.1437 -0.4497 0.8815
vn -0.2512 -0.4550 0.8543
vn 0.1550 -0.2807 -0.9472
vn -0.0635 -0.2411 -0.9684
vn -0.2273 -0.1417 -0.9635
vn -0.1038 -0.3943 0.9131
vn -0.1187 -0.3886 0.9137
vn -0.3321 -0.2645 -0.9054
vn -0.1437 -0.4497 -0.8815
vn 0.3710 -0.2312 0.8994
vn 0.3321 -0.2645 0.9054
vn -0.3710 -0.2312 0.8994
vn -0.3321 -0.2645 0.9054
vn 0.0000 0.7391 -0.6736
vn -0.1187 -0.3886 -0.9137
vn -0.2794 -0.9602 0.0000
vn -0.8074 -0.5900 0.0000
vn 0.5343 -0.0370 -0.8445
vn 0.9996 0.0273 -0.0000
vn 0.8074 -0.5900 0.0000
vn 0.1187 -0.3886 0.9137
vn 0.1038 -0.3943 0.9131
vn -0.3708 -0.9287 0.0000
vn 0.2794 -0.9602 0.0000
vn -0.6180 0.1185 0.7772
vn -0.5343 -0.0370 0.8445
vn -0.9996 0.0273 -0.0000
vn 0.1437 -0.4497 -0.8815
vn 0.3708 -0.9287 0.0000
vn -0.3880 -0.4533 -0.8025
vn -0.6552 -0.7554 0.0000
vn -0.6727 0.2500 0.6964
vn -0.9368 0.3498 0.0000
vn 0.0000 1.0000 0.0000
vn 0.6727 0.2500 -0.6964
vn 0.9368 0.3498 0.0000
vn 0.3880 -0.4533 -0.8025
vn 0.6552 -0.7554 0.0000
vn 0.8805 0.0000 0.4741
vn 0.0000 -0.9204 0.3909
vn 0.0000 0.9204 0.3909
vn -0.8805 0.0000 0.4741
vn -0.0000 0.2850 0.9585
vn -0.3820 -0.1609 0.9100
vn -0.2220 -0.4271 0.8766
vn 0.0000 0.3032 0.9529
vn 0.0915 -0.7233 0.6844
vn 0.1682 -0.7196 0.6737
vn 0.0000 -0.7221 0.6917
vn 0.8042 0.2975 0.5145
vn 0.8113 0.2992 0.5023
vn 0.8172 0.3006 0.4918
vn -0.8269 0.2396 0.5087
vn -0.7145 0.0000 0.6996
vn -0.4632 -0.3545 0.8123
vn -0.2746 -0.5283 0.8035
vn 0.2626 -0.7088 0.6547
vn 0.8239 0.3022 0.4794
vn 0.0000 0.5975 0.8019
vn -0.6428 0.7660 0.0000
vn 0.9848 0.1736 0.0000
vn 0.9155 0.1614 0.3685
vn 0.8051 -0.4648 0.3685
vn 0.8660 -0.5000 0.0000
vn 0.3179 -0.8735 0.3685
vn 0.3420 -0.9397 0.0000
vn -0.3420 -0.9397 0.0000
vn -0.8051 -0.4648 0.3685
vn -0.8051 -0.4648 -0.3685
vn -0.9155 0.1614 0.3685
vn -0.9155 0.1614 -0.3685
vn 0.6428 0.7660 0.0000
vn -0.0000 0.6848 -0.7287
vn 0.4402 0.5246 -0.7287
vn 0.2793 0.3328 -0.9007
vn -0.0000 0.4345 -0.9007
vn 0.4402 0.5246 0.7287
vn -0.0000 0.6848 0.7287
vn -0.0000 0.4345 0.9007
vn 0.2793 0.3328 0.9007
vn 0.6744 0.1189 -0.7287
vn 0.4279 0.0754 -0.9007
vn 0.4279 0.0754 0.9007
vn 0.5930 -0.3424 -0.7287
vn 0.3763 -0.2172 -0.9007
vn 0.3763 -0.2172 0.9007
vn 0.2342 -0.6435 -0.7287
vn 0.1486 -0.4083 -0.9007
vn 0.1486 -0.4083 0.9007
vn -0.2342 -0.6435 -0.7287
vn -0.1486 -0.4083 -0.9007
vn -0.2342 -0.6435 0.7287
vn -0.1486 -0.4083 0.9007
vn -0.3763 -0.2172 -0.9007
vn -0.3763 -0.2172 0.9007
vn -0.4279 0.0754 -0.9007
vn -0.4279 0.0754 0.9007
vn -0.4402 0.5246 -0.7287
vn -0.2793 0.3328 -0.9007
vn -0.4402 0.5246 0.7287
vn -0.2793 0.3328 0.9007
vn -0.5975 0.7121 -0.3685
vn -0.5975 0.7121 0.3685
vn -0.0000 0.9296 0.3685
vn 0.0000 0.9296 -0.3685
vn 0.9155 0.1614 -0.3685
vn -0.3179 -0.8736 0.3685
vn -0.3179 -0.8736 -0.3685
vn 0.5975 0.7121 -0.3685
vn 0.5975 0.7121 0.3685
vn 0.2342 -0.6435 0.7287
vn -0.5930 -0.3424 -0.7287
vn -0.5930 -0.3424 0.7287
vn -0.6744 0.1189 -0.7287
vn -0.6428 0.7505 -0.1537
vn 0.0000 0.9797 -0.2006
vn 0.9848 0.1701 -0.0348
vn 0.8660 -0.4898 0.1003
vn 0.3179 -0.7818 0.5363
vn 0.3420 -0.9206 0.1885
vn -0.3179 -0.7818 0.5363
vn -0.3420 -0.9206 0.1885
vn -0.8660 -0.4898 0.1003
vn -0.9848 0.1701 -0.0348
vn 0.6428 0.7505 -0.1537
vn 0.4402 0.6601 0.6087
vn -0.0000 0.8171 0.5765
vn 0.0000 0.6064 0.7952
vn 0.2793 0.5068 0.8156
vn 0.6744 0.2627 0.6901
vn 0.4279 0.2546 0.8672
vn 0.5930 -0.1892 0.7826
vn 0.3763 -0.0321 0.9259
vn 0.1486 -0.2193 0.9643
vn -0.1486 -0.2193 0.9643
vn -0.5930 -0.1892 0.7826
vn -0.3763 -0.0321 0.9259
vn -0.6744 0.2627 0.6901
vn -0.4279 0.2546 0.8672
vn -0.4402 0.6601 0.6087
vn -0.2793 0.5068 0.8156
vn -0.0000 0.2006 0.9797
vn -0.5975 0.7716 0.2182
vn -0.0000 0.9847 0.1745
vn -0.8051 -0.3814 0.4543
vn -0.9155 0.2321 0.3287
vn 0.5975 0.7716 0.2182
vn 0.8051 -0.3814 0.4543
vn 0.2342 -0.4842 0.8430
vn -0.2342 -0.4842 0.8430
vn 0.9155 0.2321 0.3287
vn 1.0000 0.0024 0.0050
vn 1.0000 0.0020 -0.0000
vn 0.9998 0.0175 0.0010
vn -0.9257 0.0000 0.3783
vn 0.9258 0.0000 0.3781
vn 0.0000 -0.9748 0.2231
vn 0.0000 0.9748 0.2231
vn 0.9998 0.0192 -0.0008
vn 0.9999 0.0171 0.0009
vn 0.9963 -0.0644 -0.0568
vn 0.9999 0.0142 0.0000
vn 0.0000 -0.8923 0.4515
vn -0.9999 0.0142 0.0000
vn -0.9894 -0.0992 0.1062
vn -0.9963 -0.0644 -0.0568
vn 0.2182 0.3668 0.9043
vn 0.2182 0.7243 0.6540
vn -0.0450 0.7447 0.6659
vn -0.0450 0.3711 0.9275
vn 0.9239 -0.3135 0.2195
vn 1.0000 0.0000 0.0000
vn 0.3827 0.7568 -0.5299
vn -0.2946 0.7828 -0.5481
vn 0.2613 0.7907 -0.5536
vn -0.2613 0.7907 -0.5536
vn -0.0450 -0.7447 -0.6659
vn -0.0450 -0.3711 -0.9275
vn 0.2182 -0.3668 -0.9043
vn 0.2182 -0.7243 -0.6540
vn -0.0321 0.1466 0.9887
vn -0.0535 0.5093 0.8589
vn -0.0321 0.8789 0.4759
vn -0.0535 0.6330 0.7723
vn -0.0321 -0.8789 -0.4759
vn -0.0535 -0.6330 -0.7723
vn -0.0321 -0.1466 -0.9887
vn -0.0535 -0.5093 -0.8589
vn 0.1503 0.1450 0.9779
vn 0.4421 0.3841 0.8106
vn 0.1503 0.8694 0.4707
vn 0.4421 0.6303 0.6381
vn 0.1503 -0.8694 -0.4708
vn 0.4421 -0.6303 -0.6381
vn 0.1503 -0.1450 -0.9779
vn 0.4421 -0.3841 -0.8106
vn -0.2946 -0.7828 0.5481
vn -0.2613 -0.7907 0.5536
vn 0.7071 -0.5792 0.4056
vn 0.7071 0.5792 -0.4056
vn 0.0000 -0.8192 0.5736
vn -0.2182 0.3668 0.9043
vn 0.0450 0.3711 0.9275
vn 0.0450 0.7447 0.6659
vn -0.2182 0.7243 0.6540
vn -0.9429 -0.1218 0.3101
vn -0.7969 0.1165 0.5928
vn -1.0000 -0.0000 0.0000
vn -0.3827 0.7568 -0.5299
vn 0.2946 0.7828 -0.5481
vn 0.0519 -0.6256 -0.7784
vn 0.0535 -0.5093 -0.8589
vn 0.0518 -0.7547 -0.6541
vn -0.1877 -0.7041 -0.6849
vn -0.2182 -0.3668 -0.9043
vn 0.0450 -0.3711 -0.9275
vn 0.0321 0.1466 0.9887
vn 0.0535 0.5093 0.8589
vn 0.0535 0.6330 0.7723
vn 0.0321 0.8789 0.4759
vn 0.0181 -0.8842 -0.4667
vn 0.0321 -0.1466 -0.9887
vn -0.3734 0.0314 0.9272
vn -0.1503 0.8694 0.4707
vn -0.4421 0.6303 0.6381
vn -0.2212 -0.7884 -0.5741
vn -0.4462 -0.5680 -0.6916
vn -0.1503 -0.1450 -0.9779
vn -0.4421 -0.3841 -0.8106
vn 0.1487 -0.8349 0.5299
vn 0.2264 -0.8351 0.5014
vn 0.2227 -0.8352 0.5029
vn 0.3470 -0.8234 0.4489
vn -0.7780 -0.2296 0.5848
vn -0.7071 0.5792 -0.4056
vn 0.9239 0.3135 -0.2195
vn 0.0000 0.8191 -0.5736
vn 0.1503 0.8694 0.4708
vn 0.4421 0.6303 0.6382
vn -0.9239 -0.3135 0.2195
vn -0.9239 0.3135 -0.2195
vn 0.0535 -0.6330 -0.7723
vn 0.0450 -0.7447 -0.6659
vn -0.2182 -0.7243 -0.6540
vn 0.0321 -0.8789 -0.4759
vn -0.1503 0.1450 0.9779
vn -0.4421 0.3841 0.8106
vn -0.1503 0.8694 0.4708
vn -0.4421 0.6303 0.6382
vn -0.1503 -0.8694 -0.4708
vn -0.4421 -0.6303 -0.6381
vn 0.2946 -0.7828 0.5481
vn 0.2613 -0.7907 0.5536
vn -0.7071 -0.5792 0.4056
vn 0.1503 -0.8694 -0.4707
vn 0.4421 -0.6303 -0.6382
vn 0.3827 -0.7568 0.5299
vn -0.1503 -0.8694 -0.4707
vn -0.4421 -0.6303 -0.6382
vn -0.3827 -0.7568 0.5299
vn 0.0000 -0.0066 1.0000
vn 0.0000 -0.0067 1.0000
vn 0.0000 -0.0060 1.0000
vn 0.9998 0.0048 0.0191
vn 0.9998 0.0174 0.0064
vn -0.9998 0.0175 0.0010
vn -0.9998 0.0174 0.0064
vn -0.9997 0.0229 0.0066
vn -0.9998 0.0222 -0.0020
vn -0.9998 0.0200 -0.0004
vn -0.9998 0.0193 0.0036
vn -0.9999 0.0171 0.0011
vn -0.9997 0.0230 0.0067
vn -0.9997 0.0226 -0.0034
vn -0.9998 0.0196 -0.0011
vn -0.9998 0.0191 0.0031
vn -0.9999 0.0171 0.0009
vn -0.9997 0.0232 0.0068
vn -0.9997 0.0231 -0.0053
vn -0.9998 0.0191 -0.0008
vn 0.0000 -0.0088 1.0000
vn 0.0000 -0.0087 1.0000
vn -0.0000 0.0339 -0.9994
vn 0.0000 0.0617 -0.9981
vn -1.0000 0.0021 -0.0000
vn -1.0000 0.0025 0.0050
vn 0.9997 0.0229 0.0066
vn 0.9998 0.0222 -0.0020
vn 0.9998 0.0200 -0.0004
vn 0.9999 0.0172 0.0011
vn 0.9998 0.0193 0.0036
vn 0.9997 0.0231 0.0067
vn 0.9997 0.0227 -0.0034
vn 0.9998 0.0197 -0.0011
vn 0.9998 0.0191 0.0031
vn 0.9997 0.0232 0.0068
vn 0.9997 0.0232 -0.0053
vn -0.9998 0.0049 0.0191
vn 1.0000 -0.0081 0.0048
vn -1.0000 -0.0080 0.0048
vn -0.0314 -0.0000 0.9995
vn 0.0000 -0.0052 1.0000
vn 0.9894 -0.0992 0.1062
vn 0.0000 0.0507 -0.9987
vn -0.3712 -0.0018 0.9286
vn 0.3709 -0.0018 0.9287
vn 0.3648 -0.0019 0.9311
vn -0.3651 -0.0019 0.9310
vn 0.6351 0.0039 0.7724
vn 0.0000 0.8873 0.4612
vn -0.6355 0.0039 0.7721
vn 0.0001 -1.0000 0.0000
vn -0.0000 0.0063 -1.0000
vn 0.9999 -0.0127 -0.0000
vn -0.9999 -0.0126 0.0000
vn -0.7970 0.1167 -0.5926
vn -0.5827 0.2921 -0.7584
vn -0.4222 0.0534 -0.9049
vn 0.2363 0.9324 0.2736
vn 0.3086 0.9040 0.2959
vn -0.3086 0.9040 0.2959
vn -0.2363 0.9324 0.2736
vn 0.7970 0.1167 -0.5926
vn 0.4222 0.0534 -0.9049
vn 0.5827 0.2921 -0.7584
vn 0.8405 0.3514 0.4124
vn 0.6921 0.6044 0.3945
vn 0.7136 0.5761 0.3986
vn 0.0000 0.2079 0.9781
vn 0.0000 0.2072 0.9783
vn 0.0000 -0.2079 -0.9781
vn -0.0000 -0.2072 -0.9783
vn 0.5503 -0.7526 0.3616
vn 0.5162 -0.8541 -0.0631
vn 0.2328 -0.9712 -0.0502
vn -0.5503 -0.7526 0.3616
vn -0.4232 -0.5828 0.6937
vn -0.2189 -0.6398 0.7367
vn 0.0000 -0.1076 -0.9942
vn 0.9171 -0.2557 -0.3059
vn 0.9000 -0.3834 0.2075
vn 0.0000 0.0311 0.9995
vn 0.0000 0.1362 0.9907
vn -0.1255 0.2214 -0.9671
vn 0.1255 0.2214 -0.9671
vn 0.4232 -0.5828 0.6937
vn 0.7936 -0.2463 0.5563
vn -0.5162 -0.8541 -0.0631
vn -0.9171 -0.2557 -0.3059
vn -0.9000 -0.3834 0.2075
vn -0.7936 -0.2463 0.5563
vn -0.0000 0.2070 0.9783
vn -0.2328 -0.9712 -0.0502
vn 0.2189 -0.6398 0.7367
vn -0.8405 0.3514 0.4124
vn -0.7136 0.5761 0.3986
vn -0.6921 0.6044 0.3945
vn 0.2358 0.4830 -0.8433
vn -0.2358 0.4830 -0.8433
vn 0.0000 0.7391 0.6736
usemtl KayKit_Texture_A
s 1
f 30/1/1 28/2/2 6/3/2 10/4/3
f 42/5/4 26/6/5 3/7/5 18/8/6
f 39/9/7 21/10/8 20/11/9 44/12/10
f 22/13/11 19/14/12 20/15/9 21/16/8
f 6/17/13 3/18/13 1/19/13
f 10/20/13 7/21/13 8/22/13 9/23/13
f 5/24/14 2/25/15 4/26/15
f 15/27/13 16/28/13 17/29/13 18/30/13
f 34/31/16 24/32/17 2/33/17 14/34/18
f 28/2/19 37/35/20 15/36/21 6/3/19
f 11/37/22 12/38/23 13/39/24 14/40/18
f 30/1/1 10/4/3 9/41/25 31/42/26
f 34/31/16 14/34/18 13/43/24 35/44/27
f 38/45/28 22/46/11 21/10/8 39/9/7
f 42/5/4 18/8/6 17/47/29 43/48/30
f 31/42/26 9/41/25 8/49/31 36/50/32
f 6/17/13 15/27/13 18/30/13 3/18/13
f 4/51/33 2/33/33 24/32/33 25/52/33
f 5/24/14 11/37/22 14/40/18 2/25/15
f 12/53/23 32/54/34 35/44/27 13/43/24
f 32/55/35 31/56/35 36/57/36 35/58/36
f 19/59/12 41/60/37 44/12/10 20/11/9
f 41/61/38 42/62/38 43/63/39 44/64/39
f 15/36/21 37/35/20 40/65/40 16/66/41
f 37/67/42 38/68/42 39/69/43 40/70/43
f 7/71/44 33/72/45 36/50/32 8/49/31
f 33/73/46 34/74/46 35/58/36 36/57/36
f 11/75/22 29/76/47 32/54/34 12/53/23
f 29/77/48 30/78/48 31/56/35 32/55/35
f 5/79/14 22/46/11 38/45/28 27/80/49
f 27/81/50 38/68/42 37/67/42 28/82/50
f 7/71/44 1/83/51 23/84/51 33/72/45
f 33/73/46 23/85/52 24/86/52 34/74/46
f 25/87/53 24/86/53 23/85/53 26/88/53
f 16/66/41 40/65/40 43/48/30 17/47/29
f 40/70/43 39/69/43 44/64/39 43/63/39
f 19/59/12 4/51/54 25/52/54 41/60/37
f 41/61/38 25/87/55 26/88/55 42/62/38
f 11/75/22 5/79/14 27/80/56 29/76/47
f 29/77/48 27/81/57 28/82/57 30/78/48
f 51/89/58 52/90/58 55/91/58 56/92/58
f 47/93/13 48/94/13 46/95/13 45/96/13
f 49/97/59 51/89/59 56/92/59 53/98/59
f 52/90/60 50/99/60 54/100/60 55/91/60
f 53/98/61 54/100/61 50/99/61 49/97/61
f 45/101/13 46/102/13 54/100/13 53/98/13
f 48/103/13 47/104/13 56/92/13 55/91/13
f 47/104/13 45/101/13 53/98/13 56/92/13
f 46/102/13 48/103/13 55/91/13 54/100/13
f 63/105/58 64/106/58 67/107/58 68/108/58
f 59/109/13 60/110/13 58/111/13 57/112/13
f 61/113/59 63/105/59 68/108/59 65/114/59
f 64/106/60 62/115/60 66/116/60 67/107/60
f 65/114/61 66/116/61 62/115/61 61/113/61
f 57/117/13 58/118/13 66/116/13 65/114/13
f 60/119/13 59/120/13 68/108/13 67/107/13
f 59/120/13 57/117/13 65/114/13 68/108/13
f 58/118/13 60/119/13 67/107/13 66/116/13
f 70/121/62 76/122/13 75/123/13
f 74/124/13 76/122/13 70/121/62
f 76/122/13 73/125/63 72/126/64 75/123/13
f 69/127/65 71/128/13 74/124/13 70/121/62
f 74/129/66 82/130/67 84/131/68 76/132/68
f 72/133/69 80/134/69 83/135/70 75/136/71
f 69/137/72 77/138/72 79/139/72 71/140/72
f 76/132/73 84/131/73 81/141/74 73/142/63
f 73/142/63 81/141/74 80/134/75 72/133/64
f 71/140/76 79/139/76 82/130/67 74/129/66
f 75/136/71 83/135/70 78/143/77 70/144/77
f 70/144/62 78/143/78 77/138/78 69/137/65
f 103/145/79 104/146/79 86/147/53 85/148/53
f 89/149/80 90/150/81 92/151/82 91/152/83
f 91/152/83 92/151/82 95/153/84 93/154/85
f 93/154/85 95/153/84 97/155/86 96/156/86
f 96/156/86 97/155/86 100/157/87 99/158/88
f 99/158/88 100/157/87 102/159/89 101/160/90
f 101/160/90 102/159/89 104/146/79 103/145/79
f 87/161/91 88/162/91 90/150/81 89/149/80
f 85/148/53 86/147/53 88/162/91 87/161/91
f 85/163/92 87/164/93 105/165/94 106/166/95
f 88/167/96 86/168/97 107/169/98 108/170/99
f 87/164/93 89/171/100 109/172/101 105/165/94
f 90/173/81 88/167/96 108/170/99 110/174/102
f 89/171/100 91/175/103 111/176/104 109/172/101
f 92/177/82 90/173/81 110/174/102 112/178/105
f 91/175/103 93/179/106 113/180/107 111/176/104
f 95/181/84 92/177/82 112/178/105 114/182/108
f 93/179/106 96/183/109 115/184/110 113/180/107
f 97/185/111 95/181/84 114/182/108 116/186/112
f 96/183/109 99/187/88 117/188/113 115/184/110
f 100/189/87 97/185/111 116/186/112 118/190/114
f 99/187/88 101/191/90 119/192/115 117/188/113
f 102/193/89 100/189/87 118/190/114 120/194/116
f 101/191/90 103/195/117 121/196/118 119/192/115
f 104/197/119 102/193/89 120/194/116 122/198/120
f 103/195/117 85/163/92 106/166/95 121/196/118
f 86/168/97 104/197/119 122/198/120 107/169/98
f 98/199/15 106/200/95 105/201/94
f 94/202/13 108/203/99 107/204/98
f 98/205/15 105/201/94 109/206/101
f 94/207/13 110/208/102 108/203/99
f 98/209/15 109/206/101 111/210/104
f 94/211/13 112/212/105 110/208/102
f 98/213/15 111/210/104 113/214/107
f 94/215/13 114/216/108 112/212/105
f 98/217/15 113/214/107 115/218/110
f 94/219/13 116/220/112 114/216/108
f 98/221/15 115/218/110 117/222/113
f 94/223/13 118/224/114 116/220/112
f 98/225/15 117/222/113 119/226/115
f 94/227/13 120/228/116 118/224/114
f 98/229/15 119/226/115 121/230/118
f 94/231/13 122/232/120 120/228/116
f 98/233/15 121/230/118 106/200/95
f 94/234/13 107/204/98 122/232/120
f 141/235/121 142/236/122 124/237/123 123/238/124
f 127/239/125 128/240/81 130/241/82 129/242/83
f 129/242/83 130/241/82 133/243/85 131/244/85
f 131/244/85 133/243/85 135/245/126 134/246/127
f 134/246/127 135/245/126 138/247/87 137/248/88
f 137/248/88 138/247/87 140/249/89 139/250/90
f 139/250/90 140/249/89 142/236/122 141/235/121
f 125/251/128 126/252/129 128/240/81 127/239/125
f 123/238/124 124/237/123 126/252/129 125/251/128
f 123/253/124 125/254/128 143/255/93 144/256/92
f 126/257/129 124/258/123 145/259/97 146/260/99
f 125/254/128 127/261/125 147/262/101 143/255/93
f 128/263/81 126/257/129 146/260/99 148/264/102
f 127/261/125 129/265/103 149/266/104 147/262/101
f 130/267/82 128/263/81 148/264/102 150/268/105
f 129/265/103 131/269/106 151/270/107 149/266/104
f 133/271/130 130/267/82 150/268/105 152/272/108
f 131/269/106 134/273/127 153/274/110 151/270/107
f 135/275/126 133/271/130 152/272/108 154/276/112
f 134/273/127 137/277/88 155/278/131 153/274/110
f 138/279/87 135/275/126 154/276/112 156/280/132
f 137/277/88 139/281/90 157/282/133 155/278/131
f 140/283/89 138/279/87 156/280/132 158/284/116
f 139/281/90 141/285/121 159/286/117 157/282/133
f 142/287/122 140/283/89 158/284/116 160/288/120
f 141/285/121 123/253/124 144/256/92 159/286/117
f 124/258/123 142/287/122 160/288/120 145/259/97
f 136/289/15 144/290/15 143/291/15
f 132/292/13 146/293/99 145/294/13
f 136/295/15 143/291/15 147/296/101
f 132/297/13 148/298/102 146/293/99
f 136/299/15 147/296/101 149/300/104
f 132/301/13 150/302/105 148/298/102
f 136/303/15 149/300/104 151/304/107
f 132/305/13 152/306/108 150/302/105
f 136/307/15 151/304/107 153/308/110
f 132/309/13 154/310/112 152/306/108
f 136/311/15 153/308/110 155/312/15
f 132/313/13 156/314/13 154/310/112
f 136/315/15 155/312/15 157/316/15
f 132/317/13 158/318/116 156/314/13
f 136/319/15 157/316/15 159/320/15
f 132/321/13 160/322/120 158/318/116
f 136/323/15 159/320/15 144/290/15
f 132/324/13 145/294/13 160/322/120
f 178/325/134 179/326/134 162/327/135 161/328/135
f 165/329/136 166/330/136 168/331/137 167/332/137
f 167/332/137 168/331/137 171/333/138 169/334/139
f 169/334/139 171/333/138 173/335/140 172/336/141
f 172/336/141 173/335/140 175/337/142 174/338/142
f 174/338/142 175/337/142 177/339/143 176/340/143
f 176/340/143 177/339/143 179/326/134 178/325/134
f 163/341/144 164/342/144 166/330/136 165/329/136
f 161/328/135 162/327/135 164/342/144 163/341/144
f 164/343/145 162/344/146 180/345/147 181/346/148
f 166/347/149 164/343/145 181/346/148 182/348/150
f 168/349/151 166/347/149 182/348/150 183/350/152
f 171/351/138 168/349/151 183/350/152 184/352/153
f 173/353/140 171/351/138 184/352/153 185/354/154
f 175/355/155 173/353/140 185/354/154 186/356/156
f 177/357/157 175/355/155 186/356/156 187/358/158
f 179/359/159 177/357/157 187/358/158 188/360/160
f 162/344/146 179/359/159 188/360/160 180/345/147
f 170/361/161 181/362/148 180/363/147
f 170/364/161 182/365/150 181/362/148
f 170/366/161 183/367/152 182/365/150
f 170/368/161 184/369/153 183/367/152
f 170/370/161 185/371/154 184/369/153
f 170/372/161 186/373/156 185/371/154
f 170/374/161 187/375/158 186/373/156
f 170/376/161 188/377/160 187/375/158
f 170/378/161 180/363/147 188/377/160
f 206/379/134 207/380/162 190/381/163 189/382/135
f 193/383/136 194/384/136 196/385/137 195/386/137
f 195/386/137 196/385/137 199/387/138 197/388/139
f 197/388/139 199/387/138 201/389/140 200/390/141
f 200/390/141 201/389/140 203/391/164 202/392/142
f 202/392/142 203/391/164 205/393/165 204/394/143
f 204/394/143 205/393/165 207/380/162 206/379/134
f 191/395/144 192/396/166 194/384/136 193/383/136
f 189/382/135 190/381/163 192/396/166 191/395/144
f 192/397/166 190/398/163 208/399/146 209/400/148
f 194/401/149 192/397/166 209/400/148 210/402/150
f 196/403/151 194/401/149 210/402/150 211/404/152
f 199/405/138 196/403/151 211/404/152 212/406/153
f 201/407/140 199/405/138 212/406/153 213/408/154
f 203/409/164 201/407/140 213/408/154 214/410/156
f 205/411/165 203/409/164 214/410/156 215/412/158
f 207/413/162 205/411/165 215/412/158 216/414/160
f 190/398/163 207/413/162 216/414/160 208/399/146
f 198/415/161 209/416/148 208/417/161
f 198/418/161 210/419/150 209/416/148
f 198/420/161 211/421/152 210/419/150
f 198/422/161 212/423/153 211/421/152
f 198/424/161 213/425/154 212/423/153
f 198/426/161 214/427/156 213/425/154
f 198/428/161 215/429/158 214/427/156
f 198/430/161 216/431/160 215/429/158
f 198/432/161 208/417/161 216/431/160
f 234/433/134 235/434/134 218/435/135 217/436/135
f 221/437/136 222/438/136 224/439/167 223/440/137
f 223/440/137 224/439/167 227/441/138 225/442/139
f 225/442/139 227/441/138 229/443/140 228/444/141
f 228/444/141 229/443/140 231/445/164 230/446/142
f 230/446/142 231/445/164 233/447/165 232/448/143
f 232/448/143 233/447/165 235/434/134 234/433/134
f 219/449/144 220/450/144 222/438/136 221/437/136
f 217/436/135 218/435/135 220/450/144 219/449/144
f 220/451/145 218/452/146 236/453/147 237/454/148
f 222/455/149 220/451/145 237/454/148 238/456/150
f 224/457/167 222/455/149 238/456/150 239/458/152
f 227/459/138 224/457/167 239/458/152 240/460/168
f 229/461/140 227/459/138 240/460/168 241/462/169
f 231/463/164 229/461/140 241/462/169 242/464/155
f 233/465/165 231/463/164 242/464/155 243/466/158
f 235/467/159 233/465/165 243/466/158 244/468/160
f 218/452/146 235/467/159 244/468/160 236/453/147
f 226/469/161 237/470/148 236/471/147
f 226/472/161 238/473/150 237/470/148
f 226/474/161 239/475/152 238/473/150
f 226/476/161 240/477/161 239/475/152
f 226/478/161 241/479/161 240/477/161
f 226/480/161 242/481/161 241/479/161
f 226/482/161 243/483/158 242/481/161
f 226/484/161 244/485/160 243/483/158
f 226/486/161 236/471/147 244/485/160
f 262/487/134 263/488/162 246/489/135 245/490/135
f 249/491/136 250/492/170 252/493/167 251/494/137
f 251/494/137 252/493/167 255/495/138 253/496/139
f 253/496/139 255/495/138 257/497/140 256/498/141
f 256/498/141 257/497/140 259/499/164 258/500/142
f 258/500/142 259/499/164 261/501/165 260/502/143
f 260/502/143 261/501/165 263/488/162 262/487/134
f 247/503/144 248/504/144 250/492/170 249/491/136
f 245/490/135 246/489/135 248/504/144 247/503/144
f 248/505/145 246/506/146 264/507/147 265/508/148
f 250/509/170 248/505/145 265/508/148 266/510/150
f 252/511/167 250/509/170 266/510/150 267/512/151
f 255/513/138 252/511/167 267/512/151 268/514/168
f 257/515/140 255/513/138 268/514/168 269/516/169
f 259/517/164 257/515/140 269/516/169 270/518/155
f 261/519/165 259/517/164 270/518/155 271/520/157
f 263/521/162 261/519/165 271/520/157 272/522/160
f 246/506/146 263/521/162 272/522/160 264/507/147
f 254/523/161 265/524/148 264/525/147
f 254/526/161 266/527/150 265/524/148
f 254/528/161 267/529/161 266/527/150
f 254/530/161 268/531/161 267/529/161
f 254/532/161 269/533/161 268/531/161
f 254/534/161 270/535/161 269/533/161
f 254/536/161 271/537/161 270/535/161
f 254/538/161 272/539/160 271/537/161
f 254/540/161 264/525/147 272/539/160
f 290/541/134 291/542/162 274/543/163 273/544/135
f 277/545/136 278/546/136 280/547/137 279/548/137
f 279/548/137 280/547/137 283/549/138 281/550/139
f 281/550/139 283/549/138 285/551/140 284/552/141
f 284/552/141 285/551/140 287/553/164 286/554/142
f 286/554/142 287/553/164 289/555/165 288/556/143
f 288/556/143 289/555/165 291/542/162 290/541/134
f 275/557/144 276/558/166 278/546/136 277/545/136
f 273/544/135 274/543/163 276/558/166 275/557/144
f 276/559/166 274/560/163 292/561/146 293/562/148
f 278/563/149 276/559/166 293/562/148 294/564/150
f 280/565/151 278/563/149 294/564/150 295/566/152
f 283/567/138 280/565/151 295/566/152 296/568/153
f 285/569/140 283/567/138 296/568/153 297/570/154
f 287/571/164 285/569/140 297/570/154 298/572/156
f 289/573/165 287/571/164 298/572/156 299/574/158
f 291/575/162 289/573/165 299/574/158 300/576/160
f 274/560/163 291/575/162 300/576/160 292/561/146
f 282/577/161 293/578/148 292/579/161
f 282/580/161 294/581/150 293/578/148
f 282/582/161 295/583/152 294/581/150
f 282/584/161 296/585/153 295/583/152
f 282/586/161 297/587/154 296/585/153
f 282/588/161 298/589/156 297/587/154
f 282/590/161 299/591/158 298/589/156
f 282/592/161 300/593/160 299/591/158
f 282/594/161 292/579/161 300/593/160
f 318/595/134 319/596/134 302/597/135 301/598/135
f 305/599/136 306/600/136 308/601/137 307/602/137
f 307/602/137 308/601/137 311/603/138 309/604/139
f 309/604/139 311/603/138 313/605/140 312/606/141
f 312/606/141 313/605/140 315/607/164 314/608/142
f 314/608/142 315/607/164 317/609/143 316/610/143
f 316/610/143 317/609/143 319/596/134 318/595/134
f 303/611/144 304/612/144 306/600/136 305/599/136
f 301/598/135 302/597/135 304/612/144 303/611/144
f 304/613/145 302/614/146 320/615/147 321/616/148
f 306/617/149 304/613/145 321/616/148 322/618/150
f 308/619/151 306/617/149 322/618/150 323/620/152
f 311/621/138 308/619/151 323/620/152 324/622/153
f 313/623/140 311/621/138 324/622/153 325/624/154
f 315/625/164 313/623/140 325/624/154 326/626/156
f 317/627/157 315/625/164 326/626/156 327/628/158
f 319/629/159 317/627/157 327/628/158 328/630/160
f 302/614/146 319/629/159 328/630/160 320/615/147
f 310/631/161 321/632/148 320/633/147
f 310/634/161 322/635/150 321/632/148
f 310/636/161 323/637/152 322/635/150
f 310/638/161 324/639/153 323/637/152
f 310/640/161 325/641/154 324/639/153
f 310/642/161 326/643/156 325/641/154
f 310/644/161 327/645/158 326/643/156
f 310/646/161 328/647/160 327/645/158
f 310/648/161 320/633/147 328/647/160
f 520/649/171 337/650/172 490/651/173
f 329/652/174 330/653/174 332/654/174 331/655/174
f 335/656/175 336/657/175 334/658/175 333/659/175
f 333/660/13 334/661/13 330/662/13 329/663/13
f 331/664/176 335/665/176 333/666/176 329/667/176
f 336/668/177 332/669/177 330/670/177 334/671/177
f 493/672/178 492/673/179 556/674/180 528/675/181
f 529/676/182 528/677/182 532/678/182 533/679/182
f 529/680/183 339/681/184 558/682/185
f 354/683/186 356/684/187 343/685/188 341/686/189
f 360/687/190 362/688/191 357/689/191 353/690/190
f 361/691/192 349/692/193 344/693/193 355/694/192
f 375/695/194 369/696/194 345/697/195 351/698/195
f 348/699/196 350/700/197 363/701/198 359/702/199
f 340/703/200 341/686/189 342/704/201
f 343/685/188 344/693/202 345/697/203
f 346/705/204 347/706/205 348/699/196
f 349/692/206 350/700/197 351/698/207
f 352/707/208 353/690/209 354/683/186
f 355/694/210 356/684/187 357/689/211
f 358/708/212 359/702/199 360/687/213
f 361/691/214 362/688/215 363/701/198
f 346/705/216 340/703/216 342/704/217 347/706/217
f 341/686/189 343/685/188 345/697/203 342/704/201
f 344/693/193 349/692/193 351/698/195 345/697/195
f 350/700/197 348/699/196 347/706/205 351/698/207
f 358/708/212 346/705/204 348/699/196 359/702/199
f 349/692/206 361/691/214 363/701/198 350/700/197
f 362/688/215 360/687/213 359/702/199 363/701/198
f 352/707/218 358/708/218 360/687/190 353/690/190
f 361/691/192 355/694/192 357/689/219 362/688/219
f 356/684/187 354/683/186 353/690/209 357/689/211
f 340/703/200 352/707/208 354/683/186 341/686/189
f 355/694/210 344/693/202 343/685/188 356/684/187
f 346/705/216 358/708/220 352/707/220 340/703/216
f 378/709/221 365/710/222 367/711/223 380/712/224
f 384/713/225 377/714/226 381/715/227 386/716/227
f 385/717/228 379/718/228 368/719/229 373/720/229
f 371/721/230 375/695/231 351/698/207 347/706/205
f 372/722/232 383/723/233 387/724/234 374/725/235
f 364/726/236 366/727/237 365/710/222
f 367/711/223 369/696/238 368/719/239
f 370/728/240 372/722/232 371/721/230
f 373/720/241 375/695/231 374/725/235
f 376/729/242 378/709/221 377/714/226
f 379/718/243 381/715/244 380/712/224
f 382/730/245 384/713/246 383/723/233
f 385/717/247 387/724/234 386/716/248
f 370/728/249 371/721/250 366/727/251 364/726/252
f 365/710/222 366/727/237 369/696/238 367/711/223
f 368/719/229 369/696/194 375/695/194 373/720/229
f 374/725/235 375/695/231 371/721/230 372/722/232
f 382/730/245 383/723/233 372/722/232 370/728/240
f 373/720/241 374/725/235 387/724/234 385/717/247
f 386/716/248 387/724/234 383/723/233 384/713/246
f 376/729/242 377/714/226 384/713/225 382/730/253
f 385/717/228 386/716/254 381/715/254 379/718/228
f 380/712/224 381/715/244 377/714/226 378/709/221
f 364/726/236 365/710/222 378/709/221 376/729/242
f 379/718/243 380/712/224 367/711/223 368/719/239
f 370/728/249 364/726/252 376/729/220 382/730/220
f 369/696/238 366/727/237 342/704/201 345/697/203
f 366/727/251 371/721/250 347/706/217 342/704/217
f 402/731/186 404/732/187 391/733/188 389/734/189
f 408/735/190 410/736/255 405/737/255 401/738/190
f 409/739/256 397/740/193 392/741/193 403/742/256
f 423/743/194 417/744/194 393/745/195 399/746/195
f 396/747/196 398/748/197 411/749/198 407/750/199
f 388/751/200 389/734/189 390/752/201
f 391/733/188 392/741/202 393/745/203
f 394/753/204 395/754/205 396/747/196
f 397/740/206 398/748/197 399/746/207
f 400/755/208 401/738/209 402/731/186
f 403/742/257 404/732/187 405/737/258
f 406/756/212 407/750/199 408/735/213
f 409/739/214 410/736/215 411/749/198
f 394/753/216 388/751/216 390/752/217 395/754/217
f 389/734/189 391/733/188 393/745/203 390/752/201
f 392/741/193 397/740/193 399/746/195 393/745/195
f 398/748/197 396/747/196 395/754/205 399/746/207
f 406/756/212 394/753/204 396/747/196 407/750/199
f 397/740/206 409/739/214 411/749/198 398/748/197
f 410/736/215 408/735/213 407/750/199 411/749/198
f 400/755/218 406/756/218 408/735/190 401/738/190
f 409/739/219 403/742/219 405/737/255 410/736/255
f 404/732/187 402/731/186 401/738/209 405/737/258
f 388/751/200 400/755/208 402/731/186 389/734/189
f 403/742/257 392/741/202 391/733/188 404/732/187
f 394/753/216 406/756/220 400/755/220 388/751/216
f 426/757/221 413/758/222 415/759/223 428/760/224
f 432/761/259 425/762/259 429/763/260 434/764/260
f 433/765/256 427/766/256 416/767/229 421/768/229
f 419/769/261 423/743/231 399/746/207 395/754/205
f 420/770/262 431/771/263 435/772/234 422/773/235
f 412/774/236 414/775/237 413/758/222
f 415/759/223 417/744/238 416/767/239
f 418/776/264 420/770/262 419/769/261
f 421/768/241 423/743/231 422/773/235
f 424/777/265 426/757/221 425/762/266
f 427/766/267 429/763/268 428/760/224
f 430/778/269 432/761/270 431/771/263
f 433/765/247 435/772/234 434/764/248
f 418/776/271 419/769/272 414/775/272 412/774/271
f 413/758/222 414/775/237 417/744/238 415/759/223
f 416/767/229 417/744/194 423/743/194 421/768/229
f 422/773/235 423/743/231 419/769/261 420/770/262
f 430/778/269 431/771/263 420/770/262 418/776/264
f 421/768/241 422/773/235 435/772/234 433/765/247
f 434/764/248 435/772/234 431/771/263 432/761/270
f 424/777/273 425/762/259 432/761/259 430/778/273
f 433/765/254 434/764/260 429/763/260 427/766/254
f 428/760/224 429/763/268 425/762/266 426/757/221
f 412/774/236 413/758/222 426/757/221 424/777/265
f 427/766/267 428/760/224 415/759/223 416/767/239
f 418/776/271 412/774/271 424/777/220 430/778/220
f 417/744/238 414/775/237 390/752/201 393/745/203
f 414/775/272 419/769/272 395/754/217 390/752/217
f 450/779/186 452/780/187 439/781/188 437/782/189
f 456/783/191 458/784/191 453/785/191 449/786/191
f 457/787/192 445/788/193 440/789/193 451/790/192
f 471/791/194 465/792/194 441/793/195 447/794/195
f 444/795/196 446/796/197 459/797/198 455/798/199
f 436/799/200 437/782/189 438/800/201
f 439/781/188 440/789/202 441/793/203
f 442/801/204 443/802/205 444/795/196
f 445/788/206 446/796/197 447/794/207
f 448/803/208 449/786/209 450/779/186
f 451/790/257 452/780/187 453/785/258
f 454/804/274 455/798/199 456/783/275
f 457/787/214 458/784/215 459/797/198
f 442/801/216 436/799/216 438/800/217 443/802/217
f 437/782/189 439/781/188 441/793/203 438/800/201
f 440/789/193 445/788/193 447/794/195 441/793/195
f 446/796/197 444/795/196 443/802/205 447/794/207
f 454/804/274 442/801/204 444/795/196 455/798/199
f 445/788/206 457/787/214 459/797/198 446/796/197
f 458/784/215 456/783/275 455/798/199 459/797/198
f 448/803/276 454/804/276 456/783/218 449/786/218
f 457/787/192 451/790/192 453/785/219 458/784/219
f 452/780/187 450/779/186 449/786/209 453/785/258
f 436/799/200 448/803/208 450/779/186 437/782/189
f 451/790/257 440/789/202 439/781/188 452/780/187
f 442/801/216 454/804/276 448/803/276 436/799/216
f 474/805/221 461/806/222 463/807/223 476/808/224
f 480/809/227 473/810/227 477/811/227 482/812/227
f 481/813/228 475/814/228 464/815/229 469/816/229
f 467/817/261 471/791/231 447/794/207 443/802/205
f 468/818/262 479/819/263 483/820/234 470/821/235
f 460/822/236 462/823/237 461/806/222
f 463/807/223 465/792/238 464/815/239
f 466/824/264 468/818/262 467/817/261
f 469/816/241 471/791/231 470/821/235
f 472/825/265 474/805/221 473/810/266
f 475/814/267 477/811/268 476/808/224
f 478/826/277 480/809/278 479/819/263
f 481/813/247 483/820/234 482/812/248
f 466/824/271 467/817/272 462/823/272 460/822/271
f 461/806/222 462/823/237 465/792/238 463/807/223
f 464/815/229 465/792/194 471/791/194 469/816/229
f 470/821/235 471/791/231 467/817/261 468/818/262
f 478/826/277 479/819/263 468/818/262 466/824/264
f 469/816/241 470/821/235 483/820/234 481/813/247
f 482/812/248 483/820/234 479/819/263 480/809/278
f 472/825/279 473/810/273 480/809/273 478/826/279
f 481/813/228 482/812/254 477/811/254 475/814/228
f 476/808/224 477/811/268 473/810/266 474/805/221
f 460/822/236 461/806/222 474/805/221 472/825/265
f 475/814/267 476/808/224 463/807/223 464/815/239
f 466/824/271 460/822/271 472/825/279 478/826/279
f 465/792/238 462/823/237 438/800/201 441/793/203
f 462/823/272 467/817/272 443/802/217 438/800/217
f 487/827/13 489/828/13 485/829/13 484/830/13
f 523/831/280 521/832/280 504/833/281 519/834/281
f 486/835/282 488/836/282 489/828/13 487/827/13
f 521/837/283 520/649/171 504/838/284
f 505/839/285 519/840/286 518/841/287
f 505/842/285 518/841/287 517/843/288
f 505/844/285 517/843/288 516/845/289
f 505/846/285 516/845/289 515/847/290 506/848/291
f 506/848/291 515/847/290 514/849/292
f 506/850/291 514/849/292 513/851/293
f 506/852/291 513/851/293 512/853/294
f 506/854/291 512/853/294 511/855/295 507/856/296
f 507/856/296 511/855/295 510/857/297
f 507/858/296 510/857/297 509/859/298
f 507/860/296 509/859/298 508/861/299
f 519/862/281 504/863/281 503/864/300 518/865/300
f 518/866/300 503/867/300 502/868/301 517/869/301
f 517/870/301 502/871/301 501/872/300 516/873/300
f 516/874/300 501/875/300 500/876/301 515/877/301
f 515/878/301 500/879/301 499/880/300 514/881/300
f 514/882/300 499/883/300 498/884/301 513/885/301
f 513/886/301 498/887/301 497/888/300 512/889/300
f 512/890/300 497/891/300 496/892/301 511/893/301
f 511/894/301 496/895/301 495/896/300 510/897/300
f 510/898/300 495/899/300 494/900/301 509/901/301
f 509/902/301 494/903/301 493/904/300 508/905/300
f 337/906/302 338/907/302 505/908/303 490/909/303
f 490/910/303 505/911/303 506/912/303 491/913/303
f 338/914/304 522/915/305 505/839/285
f 491/916/303 506/917/303 507/918/303 492/919/303
f 504/838/284 520/649/171 490/651/173
f 486/920/282 521/921/280 523/922/280 488/923/282
f 504/838/284 490/924/173 503/925/306
f 503/925/306 490/926/173 502/927/307
f 502/927/307 490/928/173 501/929/308
f 501/929/308 490/928/173 491/930/309 500/931/310
f 500/931/310 491/932/309 499/933/311
f 499/933/311 491/934/309 498/935/312
f 498/935/312 491/936/309 497/937/313
f 497/937/313 491/936/309 492/938/179 496/939/314
f 496/939/314 492/940/179 495/941/315
f 495/941/315 492/942/179 494/943/316
f 494/943/316 492/673/179 493/672/178
f 522/915/305 523/944/317 519/840/286
f 486/945/318 520/649/171 521/837/283
f 522/915/305 519/840/286 505/839/285
f 522/915/305 488/946/319 523/944/317
f 527/947/320 525/948/320 524/949/320 526/950/320
f 508/951/300 493/952/300 528/953/321 529/954/321
f 557/955/322 528/675/181 556/674/180
f 492/956/303 507/957/303 558/958/323 556/959/323
f 507/960/296 508/861/299 529/680/183 558/682/185
f 533/679/324 532/678/325 530/961/326 531/962/327
f 528/963/328 557/964/328 530/965/326 532/966/325
f 557/967/329 339/968/329 531/962/329 530/961/329
f 339/969/330 529/970/330 533/971/324 531/972/327
f 537/973/320 535/974/320 534/975/320 536/976/320
f 541/977/320 539/978/320 538/979/320 540/980/320
f 545/981/320 543/982/320 542/983/320 544/984/320
f 549/985/320 547/986/320 546/987/320 548/988/320
f 553/989/320 551/990/320 550/991/320 552/992/320
f 484/830/331 485/829/331 555/993/331 554/994/331
f 337/906/302 554/994/332 555/993/332 338/907/302
f 484/830/333 554/994/333 337/906/172 487/827/333
f 520/649/171 486/835/318 487/827/333 337/650/172
f 485/829/334 489/828/334 338/907/304 555/993/334
f 489/828/334 488/946/319 522/915/305 338/907/304
f 561/995/335 572/996/335 588/997/336 583/998/337
f 580/999/338 585/1000/339 587/1001/340 581/1002/341
f 571/1003/342 560/1004/342 578/1005/343 586/1006/344
f 562/1007/345 571/1003/345 586/1006/346 579/1008/347
f 563/1009/348 570/1010/348 562/1011/349 559/1012/349
f 567/1013/350 566/1014/350 561/995/351 560/1004/351
f 573/1015/352 567/1013/353 560/1004/354 571/1003/354
f 575/1016/355 563/1017/356 559/1018/357 572/996/357
f 556/1019/323 558/1020/323 565/1021/358 568/1022/358
f 556/1019/180 568/1022/359 574/1023/360
f 339/1024/361 557/1025/361 569/1026/362 564/1027/362
f 578/1005/343 583/998/337 584/1028/363 577/1029/364
f 570/1010/348 563/1009/348 564/1027/362 569/1026/362
f 566/1014/350 567/1013/350 568/1022/358 565/1021/358
f 573/1015/352 570/1030/365 569/1031/366 574/1023/360
f 575/1016/355 566/1014/367 565/1021/368 576/1032/369
f 339/1033/184 564/1034/370 576/1032/369
f 563/1017/356 575/1016/355 576/1032/369 564/1034/370
f 567/1013/353 573/1015/352 574/1023/360 568/1022/359
f 582/1035/371 579/1036/371 580/1037/371 581/1038/371
f 339/1033/184 576/1032/369 558/1020/185
f 566/1014/367 575/1016/355 572/996/372 561/995/372
f 570/1030/365 573/1015/352 571/1003/373 562/1007/373
f 572/996/374 559/1018/374 582/1039/375 588/997/376
f 559/1012/349 562/1011/349 579/1036/371 582/1035/371
f 569/1031/366 557/1040/322 574/1023/360
f 565/1021/368 558/1020/185 576/1032/369
f 556/1019/180 574/1023/360 557/1040/322
f 586/1006/344 578/1005/343 577/1029/364 585/1000/377
f 588/997/376 582/1039/375 581/1002/341 587/1001/340
f 579/1008/347 586/1006/346 585/1000/339 580/999/338
f 583/998/337 588/997/336 587/1001/378 584/1028/363
f 585/1000/377 577/1029/364 584/1028/363 587/1001/378
f 560/1004/351 561/995/351 583/998/337 578/1005/343
f 22/13/11 5/24/14 4/26/15 19/14/12
f 10/20/13 6/17/13 1/19/13 7/21/13
f 26/6/379 23/84/379 1/83/379 3/7/379
