# Blender v3.4.1 OBJ File: 'MixedBag1_Export.blend'
# www.blender.org
mtllib idol_A.mtl
o idol_A
v 0.059430 0.303174 0.042559
v -0.028484 0.513848 0.010871
v -0.076378 0.391690 0.066070
v -0.075678 0.347005 -0.051185
v 0.075736 0.346991 -0.051154
v -0.040417 0.296630 0.045022
v -0.055350 0.452253 0.059157
v -0.041553 0.495404 0.034939
v -0.000000 0.509383 0.031963
v -0.052233 0.302507 -0.039097
v 0.050542 0.308231 -0.047453
v 0.053609 0.294394 0.000721
v -0.037314 0.510499 -0.020763
v 0.066772 0.327213 0.067116
v 0.000105 0.291956 0.045665
v 0.000000 0.493808 -0.058197
v -0.066452 0.327389 0.067453
v -0.044143 0.489496 -0.047547
v -0.070478 0.412524 -0.055526
v 0.044143 0.489496 -0.047547
v 0.070499 0.412419 -0.055538
v 0.041553 0.495404 0.034939
v 0.055340 0.452229 0.059177
v 0.076409 0.391750 0.066046
v 0.044599 0.374042 0.086609
v 0.000013 0.361696 0.092551
v -0.042483 0.393806 0.083468
v 0.098493 0.359470 -0.025113
v 0.103327 0.353203 0.008848
v 0.099024 0.371164 0.040259
v -0.043695 0.356213 -0.070940
v 0.000034 0.344728 -0.074752
v 0.043671 0.356134 -0.070971
v -0.099024 0.371347 0.040279
v -0.103380 0.353386 0.008630
v -0.098493 0.359470 -0.025114
v -0.095611 0.429340 0.014411
v -0.061932 0.490871 0.012326
v -0.063806 0.487673 -0.023857
v -0.084906 0.433944 -0.030054
v -0.025482 0.482688 -0.060170
v -0.000000 0.414055 -0.076136
v 0.025482 0.482688 -0.060170
v 0.084907 0.433942 -0.030054
v 0.063806 0.487673 -0.023857
v 0.095611 0.429340 0.014411
v 0.061932 0.490871 0.012326
v 0.000028 0.439778 0.077224
v 0.032584 0.290000 -0.016429
v -0.046804 0.291752 0.002226
v -0.008879 0.286898 -0.005534
v 0.037314 0.510499 -0.020763
v 0.028484 0.513848 0.010871
v 0.032917 0.316979 0.075629
v -0.000040 0.312236 0.076821
v -0.037657 0.336047 0.083625
v 0.083598 0.311027 -0.004522
v -0.017691 0.303984 -0.053947
v -0.079613 0.316596 0.040117
v -0.083522 0.310969 -0.004696
v 0.000000 0.518645 -0.013026
v 0.001285 0.247663 -0.019857
v 0.044447 0.278698 -0.035205
v 0.007347 0.238197 0.020420
v -0.007387 0.221586 -0.013281
v 0.056419 0.325498 0.026409
v 0.010399 0.232152 0.042872
v 0.044625 0.227437 0.056974
v 0.007206 0.218053 -0.041370
v 0.053710 0.305231 0.032891
v 0.055258 0.241724 0.001425
v 0.027050 0.207202 0.062912
v 0.061455 0.272946 -0.023515
v 0.067986 0.312795 0.023195
v 0.006179 0.198290 0.038508
v -0.003823 0.199048 -0.015789
v 0.041401 0.243669 0.015576
v 0.055346 0.196299 0.051226
v 0.070452 0.198647 0.025517
v 0.051162 0.198201 -0.027648
v 0.003542 0.281484 -0.020270
v 0.063022 0.209000 0.052988
v 0.026183 0.333644 0.021442
v 0.043652 0.214296 -0.040566
v 0.023305 0.330678 -0.018529
v 0.064878 0.232268 0.031643
v 0.028380 0.317575 0.034584
v 0.059939 0.326594 -0.018703
v 0.019788 0.283797 -0.033467
v 0.010793 0.312633 0.021857
v 0.024101 0.245472 -0.036787
v 0.000126 0.200805 -0.034922
v 0.024824 0.196429 0.056974
v 0.003772 0.247433 0.007857
v 0.057412 0.236101 0.005183
v 0.010640 0.323410 -0.004668
v 0.026166 0.339217 -0.001377
v 0.051950 0.241561 -0.024847
v 0.021454 0.248664 0.018398
v 0.031100 0.204982 -0.046814
v 0.039836 0.237335 0.040772
v 0.070062 0.313298 -0.008557
v 0.061939 0.332208 -0.002982
v -0.055258 0.241724 0.001425
v -0.044447 0.278698 -0.035205
v -0.007347 0.238197 0.020420
v 0.007387 0.221586 -0.013281
v -0.056419 0.325498 0.026409
v -0.010399 0.232152 0.042872
v -0.044625 0.227437 0.056974
v -0.007206 0.218053 -0.041370
v -0.053710 0.305231 0.032891
v -0.027050 0.207202 0.062912
v -0.061455 0.272946 -0.023515
v -0.067986 0.312795 0.023195
v -0.006179 0.198290 0.038508
v 0.003823 0.199048 -0.015789
v -0.041401 0.243669 0.015576
v -0.001285 0.247663 -0.019857
v -0.055346 0.196299 0.051226
v -0.003772 0.247433 0.007857
v -0.070452 0.198647 0.025517
v -0.051162 0.198201 -0.027648
v -0.031100 0.204982 -0.046814
v -0.003542 0.281484 -0.020270
v -0.063022 0.209000 0.052988
v -0.026183 0.333644 0.021442
v -0.043652 0.214296 -0.040566
v -0.023305 0.330678 -0.018529
v -0.064878 0.232268 0.031643
v -0.028380 0.317575 0.034584
v -0.059939 0.326594 -0.018703
v -0.019788 0.283797 -0.033467
v -0.010793 0.312633 0.021857
v -0.024101 0.245472 -0.036787
v -0.000126 0.200805 -0.034922
v -0.024824 0.196429 0.056974
v -0.057412 0.236101 0.005183
v -0.010640 0.323410 -0.004668
v -0.026166 0.339217 -0.001377
v -0.051950 0.241561 -0.024847
v -0.021454 0.248664 0.018398
v -0.039836 0.237335 0.040772
v -0.070062 0.313298 -0.008557
v -0.061939 0.332208 -0.002982
v -0.060245 0.493881 -0.042868
v -0.017134 0.447304 0.007690
v 0.004755 0.447398 0.146481
v -0.062191 0.501523 -0.021529
v -0.049093 0.503663 0.001629
v -0.134352 0.438369 0.049533
v -0.056088 0.452635 -0.048367
v -0.069138 0.478324 -0.043248
v -0.106146 0.394136 0.036207
v -0.018949 0.439530 -0.010183
v -0.038389 0.438431 -0.039973
v -0.054770 0.438062 0.153822
v -0.018024 0.435748 0.154145
v -0.056953 0.499433 0.131637
v -0.067810 0.485198 0.138331
v -0.023916 0.501320 -0.006795
v -0.042581 0.498184 -0.036501
v -0.066368 0.481632 0.106618
v -0.052855 0.425247 0.117304
v -0.049747 0.424770 0.108936
v -0.001248 0.432311 0.108479
v 0.000517 0.485781 0.099769
v -0.006996 0.500408 0.128444
v -0.083619 0.430098 0.015263
v -0.033038 0.461519 0.164228
v -0.031683 0.491860 0.152227
v -0.067420 0.456477 0.149181
v -0.067176 0.442104 0.119805
v 0.006522 0.445835 0.111293
v -0.026562 0.419768 0.124327
v -0.028832 0.486873 0.092879
v -0.061557 0.453449 0.109770
v -0.013356 0.450871 0.068867
v -0.094411 0.470656 0.035757
v -0.111708 0.444506 0.077858
v -0.124810 0.464591 0.033515
v -0.099257 0.405566 0.066143
v -0.018627 0.429620 0.072201
v 0.003298 0.485966 0.137897
v -0.030925 0.459101 -0.049864
v -0.005310 0.463742 -0.014470
v -0.049504 0.437302 0.030046
v -0.125723 0.451960 0.007133
v -0.108341 0.413240 -0.000578
v -0.092769 0.401439 0.013476
v -0.072596 0.411530 0.024422
v -0.073377 0.430188 0.038491
v -0.035349 0.494857 0.015998
v -0.048502 0.475066 0.030528
v -0.034554 0.418669 0.093539
v -0.014531 0.479197 0.082044
v -0.067441 0.472709 0.036976
v -0.058074 0.476485 0.100942
v -0.076802 0.479353 0.058434
v -0.017486 0.459463 0.014488
v 0.060245 0.493881 -0.042868
v 0.017134 0.447304 0.007690
v -0.004755 0.447398 0.146481
v 0.062191 0.501523 -0.021529
v 0.049093 0.503663 0.001629
v 0.134352 0.438369 0.049533
v 0.056088 0.452635 -0.048367
v 0.069138 0.478324 -0.043248
v 0.106146 0.394136 0.036207
v 0.018949 0.439530 -0.010183
v 0.038389 0.438431 -0.039973
v 0.018024 0.435748 0.154145
v 0.056953 0.499433 0.131637
v 0.067810 0.485198 0.138331
v 0.023933 0.501332 -0.006756
v 0.054770 0.438062 0.153822
v 0.042631 0.498199 -0.036508
v 0.066368 0.481632 0.106618
v 0.052855 0.425247 0.117304
v 0.001248 0.432311 0.108479
v -0.000517 0.485781 0.099769
v 0.006996 0.500408 0.128444
v 0.092769 0.401439 0.013476
v 0.083619 0.430098 0.015263
v 0.033038 0.461519 0.164228
v 0.031683 0.491860 0.152227
v 0.067420 0.456477 0.149181
v 0.067176 0.442104 0.119805
v -0.006522 0.445835 0.111293
v 0.026562 0.419768 0.124327
v 0.028832 0.486873 0.092879
v 0.061557 0.453449 0.109770
v 0.013356 0.450871 0.068867
v 0.111708 0.444506 0.077858
v 0.124810 0.464591 0.033515
v 0.099257 0.405566 0.066143
v 0.067441 0.472709 0.036976
v -0.003298 0.485966 0.137897
v 0.030944 0.459075 -0.049872
v 0.005305 0.463713 -0.014443
v 0.049504 0.437302 0.030046
v 0.125723 0.451960 0.007133
v 0.108341 0.413240 -0.000578
v 0.072596 0.411530 0.024422
v 0.094411 0.470656 0.035757
v 0.073377 0.430188 0.038491
v 0.018627 0.429620 0.072201
v 0.058074 0.476485 0.100942
v 0.035349 0.494857 0.015998
v 0.048502 0.475066 0.030528
v 0.034554 0.418669 0.093539
v 0.014531 0.479197 0.082044
v 0.049747 0.424770 0.108936
v 0.076802 0.479353 0.058434
v 0.017486 0.459463 0.014488
v -0.049464 0.513980 0.092511
v -0.084381 0.533093 0.086206
v -0.000000 0.516365 0.108952
v 0.047487 0.537154 0.114105
v 0.000008 0.523913 -0.153254
v 0.000022 0.488212 -0.099301
v 0.042520 0.595011 -0.187030
v 0.056526 0.542517 -0.155325
v 0.057153 0.511444 -0.124699
v 0.101988 0.547540 -0.125318
v 0.121156 0.530202 -0.073081
v 0.143415 0.557054 -0.009726
v 0.131874 0.574519 0.054218
v 0.115047 0.521355 -0.004898
v -0.131874 0.574519 0.054218
v -0.143391 0.557024 -0.009659
v -0.115047 0.521355 -0.004898
v -0.121138 0.530186 -0.073093
v -0.101998 0.547524 -0.125293
v -0.057187 0.511464 -0.124707
v -0.056512 0.542505 -0.155323
v 0.047684 0.492156 -0.094278
v 0.091375 0.498467 -0.023317
v 0.049464 0.513980 0.092511
v -0.091375 0.498467 -0.023317
v -0.047707 0.492152 -0.094241
v -0.165582 0.616768 -0.022519
v -0.047487 0.537154 0.114105
v 0.084381 0.533093 0.086206
v 0.000002 0.584628 0.123978
v -0.055335 0.581360 0.118575
v 0.000002 0.573406 0.134584
v 0.055335 0.581360 0.118575
v 0.072389 0.787050 -0.171929
v 0.041520 0.743432 -0.198116
v 0.036289 0.836631 -0.087246
v 0.047196 0.808901 -0.156635
v 0.082102 0.593692 -0.170213
v 0.099597 0.747344 -0.170842
v 0.114403 0.599334 -0.147204
v 0.134780 0.789833 -0.102513
v 0.143652 0.601605 -0.109298
v 0.000000 0.840402 -0.087633
v 0.150372 0.751371 -0.104063
v 0.158800 0.606124 -0.071187
v 0.110459 0.815783 -0.094859
v 0.161051 0.758275 -0.042855
v 0.109826 0.823373 -0.006451
v 0.143105 0.798788 -0.029747
v 0.165576 0.616713 -0.022552
v 0.042999 0.843773 -0.034897
v 0.124613 0.803161 0.024768
v 0.149871 0.763489 0.018491
v 0.144229 0.648764 0.050830
v 0.115245 0.625612 0.087989
v 0.060043 0.829277 0.054204
v 0.098708 0.772491 0.084374
v 0.083460 0.633930 0.112664
v 0.000000 0.845065 -0.000283
v 0.072878 0.809112 0.078598
v 0.041677 0.773372 0.111476
v 0.041961 0.626808 0.129276
v -0.000000 0.819804 0.087925
v -0.000000 0.774052 0.116856
v -0.000000 0.626781 0.135498
v -0.041677 0.773372 0.111476
v -0.041961 0.626808 0.129276
v -0.098720 0.772476 0.084369
v -0.083460 0.633930 0.112664
v -0.060043 0.829277 0.054204
v -0.072878 0.809112 0.078598
v -0.115254 0.625632 0.087982
v -0.109826 0.823373 -0.006451
v -0.124614 0.803161 0.024768
v -0.144202 0.648823 0.050881
v -0.042999 0.843773 -0.034897
v -0.149868 0.763475 0.018508
v -0.143105 0.798788 -0.029747
v -0.161051 0.758275 -0.042855
v -0.110459 0.815783 -0.094859
v -0.158799 0.606180 -0.071250
v -0.036289 0.836631 -0.087246
v -0.134780 0.789833 -0.102513
v -0.150371 0.751370 -0.104065
v -0.143651 0.601608 -0.109301
v -0.114423 0.599362 -0.147194
v -0.099594 0.747336 -0.170846
v -0.082073 0.593742 -0.170246
v -0.047196 0.808901 -0.156635
v -0.072389 0.787050 -0.171929
v -0.041528 0.743424 -0.198115
v -0.042535 0.595029 -0.187031
v -0.000000 0.793474 -0.183898
v 0.000000 0.743026 -0.203509
v 0.000002 0.596289 -0.193714
v 0.136550 0.601481 -0.060860
v 0.136348 0.606569 -0.008652
v 0.163029 0.657608 -0.038350
v 0.188719 0.634862 -0.025538
v 0.187210 0.635339 -0.043496
v 0.194824 0.589317 -0.039010
v 0.163381 0.547842 -0.030455
v 0.132536 0.544691 -0.027424
v 0.155953 0.640327 -0.059556
v 0.178294 0.590727 -0.055092
v 0.134165 0.559090 -0.051671
v 0.160211 0.653041 -0.013795
v 0.190977 0.604583 -0.011306
v 0.180377 0.572469 -0.009254
v 0.133756 0.554390 -0.004249
v -0.136546 0.601481 -0.060860
v -0.136344 0.606569 -0.008652
v -0.163029 0.657608 -0.038350
v -0.188719 0.634862 -0.025538
v -0.187210 0.635339 -0.043496
v -0.194824 0.589317 -0.039010
v -0.163381 0.547842 -0.030455
v -0.132536 0.544691 -0.027424
v -0.155953 0.640327 -0.059556
v -0.178294 0.590727 -0.055092
v -0.134165 0.559091 -0.051671
v -0.160211 0.653041 -0.013795
v -0.190977 0.604583 -0.011306
v -0.180377 0.572469 -0.009254
v -0.133756 0.554391 -0.004249
v 0.047167 0.640341 0.109675
v 0.052663 0.626312 0.108580
v 0.050220 0.641641 0.123099
v 0.047167 0.659448 0.107825
v 0.052663 0.673006 0.104058
v 0.050220 0.660748 0.121248
v 0.057731 0.661371 0.127683
v 0.055715 0.674306 0.117482
v 0.059796 0.672371 0.123889
v 0.064013 0.679663 0.113260
v 0.066029 0.674809 0.122678
v 0.060960 0.678363 0.099836
v 0.079967 0.678980 0.106201
v 0.088113 0.672909 0.103058
v 0.081988 0.674125 0.115620
v 0.076769 0.677677 0.092751
v 0.084701 0.671602 0.089569
v 0.089793 0.657567 0.088401
v 0.089823 0.638460 0.090257
v 0.093363 0.658876 0.101919
v 0.090248 0.659976 0.113280
v 0.093383 0.639769 0.103773
v 0.088108 0.626216 0.107579
v 0.090254 0.640869 0.115132
v 0.087471 0.629555 0.115676
v 0.082823 0.641581 0.122478
v 0.081988 0.627432 0.120142
v 0.082823 0.660688 0.120628
v 0.066864 0.642264 0.129536
v 0.066029 0.628116 0.127200
v 0.057731 0.642264 0.129533
v 0.066864 0.661371 0.127686
v 0.059796 0.630740 0.127921
v 0.055715 0.627613 0.122004
v 0.064013 0.621544 0.118888
v 0.060960 0.620244 0.105465
v 0.079942 0.620860 0.111825
v 0.076677 0.619556 0.098363
v 0.084692 0.624909 0.094089
v 0.087466 0.671185 0.111643
v -0.047168 0.640341 0.109675
v -0.052664 0.626312 0.108580
v -0.050221 0.641641 0.123099
v -0.047168 0.659448 0.107825
v -0.052664 0.673006 0.104058
v -0.050221 0.660748 0.121248
v -0.057732 0.661371 0.127683
v -0.055716 0.674306 0.117482
v -0.059797 0.672371 0.123889
v -0.064013 0.679663 0.113260
v -0.066029 0.674809 0.122678
v -0.060961 0.678363 0.099836
v -0.079968 0.678980 0.106201
v -0.088114 0.672909 0.103058
v -0.081989 0.674125 0.115620
v -0.076770 0.677677 0.092751
v -0.084702 0.671602 0.089569
v -0.089794 0.657567 0.088401
v -0.089824 0.638460 0.090257
v -0.093364 0.658876 0.101919
v -0.090249 0.659976 0.113280
v -0.093384 0.639769 0.103773
v -0.088109 0.626216 0.107579
v -0.090255 0.640869 0.115132
v -0.087472 0.629555 0.115676
v -0.082824 0.641581 0.122478
v -0.081989 0.627432 0.120142
v -0.082824 0.660688 0.120628
v -0.066864 0.642264 0.129536
v -0.066029 0.628116 0.127200
v -0.057732 0.642264 0.129533
v -0.066864 0.661371 0.127686
v -0.059797 0.630740 0.127921
v -0.055716 0.627613 0.122004
v -0.064013 0.621544 0.118888
v -0.060961 0.620244 0.105465
v -0.079943 0.620860 0.111825
v -0.076678 0.619556 0.098363
v -0.084693 0.624909 0.094089
v -0.087466 0.671185 0.111643
v -0.135971 0.000000 0.135971
v -0.130481 0.023155 0.154680
v -0.154680 0.023155 0.130481
v -0.097174 0.178219 0.121373
v -0.092717 0.201373 0.092717
v -0.121373 0.178219 0.097174
v -0.135971 0.000000 -0.135971
v -0.154680 0.023155 -0.130481
v -0.130481 0.023155 -0.154680
v -0.092717 0.201373 -0.092717
v -0.097174 0.178219 -0.121373
v -0.121373 0.178219 -0.097174
v 0.135971 0.000000 0.135971
v 0.154680 0.023155 0.130481
v 0.130481 0.023155 0.154680
v 0.092717 0.201373 0.092717
v 0.097174 0.178219 0.121373
v 0.121373 0.178219 0.097174
v 0.135971 0.000000 -0.135971
v 0.130481 0.023155 -0.154680
v 0.154680 0.023155 -0.130481
v 0.092717 0.201373 -0.092717
v 0.121373 0.178219 -0.097174
v 0.097174 0.178219 -0.121373
vt 0.285130 0.642736
vt 0.286949 0.644536
vt 0.284285 0.615340
vt 0.293341 0.664969
vt 0.289694 0.627719
vt 0.284302 0.619931
vt 0.295053 0.649691
vt 0.293289 0.666447
vt 0.290942 0.636062
vt 0.282396 0.612993
vt 0.303035 0.663389
vt 0.309753 0.636778
vt 0.298889 0.614146
vt 0.316471 0.663389
vt 0.320617 0.614100
vt 0.289858 0.610540
vt 0.298164 0.665735
vt 0.321342 0.665735
vt 0.328569 0.636020
vt 0.329649 0.610512
vt 0.332557 0.644535
vt 0.334377 0.642736
vt 0.335221 0.615340
vt 0.326164 0.664969
vt 0.326216 0.666447
vt 0.324452 0.649690
vt 0.329812 0.627714
vt 0.334831 0.620093
vt 0.337110 0.612993
vt 0.309753 0.646548
vt 0.320620 0.620868
vt 0.320698 0.667715
vt 0.298785 0.628546
vt 0.298808 0.667716
vt 0.300725 0.673570
vt 0.297191 0.589959
vt 0.313362 0.590223
vt 0.299029 0.591747
vt 0.318489 0.589679
vt 0.307516 0.587989
vt 0.295720 0.594403
vt 0.305012 0.595302
vt 0.323968 0.590547
vt 0.309753 0.676970
vt 0.317295 0.674939
vt 0.318780 0.673569
vt 0.309753 0.667113
vt 0.302211 0.674940
vt 0.309753 0.673028
vt 0.318781 0.599191
vt 0.309753 0.616037
vt 0.307873 0.599266
vt 0.299608 0.606262
vt 0.325423 0.593778
vt 0.327322 0.603317
vt 0.292182 0.603363
vt 0.331372 0.597341
vt 0.323116 0.596275
vt 0.309753 0.609617
vt 0.288544 0.599197
vt 0.288135 0.597346
vt 0.312250 0.551510
vt 0.317212 0.550768
vt 0.317771 0.554349
vt 0.313346 0.564961
vt 0.313788 0.562566
vt 0.320445 0.564285
vt 0.311389 0.553514
vt 0.309284 0.559298
vt 0.311510 0.569819
vt 0.321802 0.561430
vt 0.327320 0.596020
vt 0.321044 0.568841
vt 0.323611 0.567747
vt 0.316551 0.568814
vt 0.318075 0.553921
vt 0.312312 0.558077
vt 0.324846 0.550745
vt 0.316143 0.570511
vt 0.324397 0.593452
vt 0.318099 0.597647
vt 0.322963 0.551618
vt 0.327702 0.552007
vt 0.321504 0.556558
vt 0.326615 0.562749
vt 0.326130 0.554437
vt 0.314445 0.595296
vt 0.317568 0.602626
vt 0.317007 0.601825
vt 0.317491 0.604918
vt 0.325419 0.600436
vt 0.324172 0.563912
vt 0.324941 0.600176
vt 0.312041 0.569698
vt 0.322960 0.567811
vt 0.312091 0.583696
vt 0.315609 0.584396
vt 0.321890 0.582632
vt 0.325640 0.580399
vt 0.309795 0.551761
vt 0.326186 0.602563
vt 0.313627 0.599906
vt 0.328306 0.596357
vt 0.306160 0.564961
vt 0.299061 0.564285
vt 0.305718 0.562566
vt 0.302956 0.568814
vt 0.307996 0.569819
vt 0.307194 0.558077
vt 0.295334 0.563912
vt 0.295895 0.567747
vt 0.296546 0.567811
vt 0.291805 0.552007
vt 0.302294 0.550768
vt 0.294660 0.550745
vt 0.297704 0.561430
vt 0.298462 0.568841
vt 0.292186 0.596020
vt 0.295109 0.593452
vt 0.294565 0.600175
vt 0.303364 0.570511
vt 0.307465 0.569698
vt 0.310222 0.559298
vt 0.309711 0.551761
vt 0.308117 0.553514
vt 0.307256 0.551510
vt 0.301735 0.554349
vt 0.301407 0.597647
vt 0.296544 0.551618
vt 0.301432 0.553921
vt 0.298002 0.556558
vt 0.305061 0.595296
vt 0.301939 0.602626
vt 0.293376 0.554437
vt 0.292891 0.562749
vt 0.302016 0.604918
vt 0.302499 0.601825
vt 0.294088 0.600436
vt 0.307415 0.583696
vt 0.303897 0.584396
vt 0.297616 0.582632
vt 0.293866 0.580399
vt 0.293320 0.602563
vt 0.305879 0.599905
vt 0.291200 0.596357
vt 0.289396 0.643992
vt 0.283591 0.656247
vt 0.287045 0.643768
vt 0.295508 0.643204
vt 0.292972 0.654432
vt 0.296017 0.643567
vt 0.288689 0.638129
vt 0.295334 0.646527
vt 0.309382 0.664949
vt 0.300900 0.666668
vt 0.300498 0.655929
vt 0.309411 0.651198
vt 0.304164 0.647041
vt 0.294877 0.669261
vt 0.307120 0.669303
vt 0.292135 0.664647
vt 0.292266 0.653903
vt 0.295443 0.648157
vt 0.292648 0.663171
vt 0.294467 0.652816
vt 0.300319 0.655235
vt 0.298615 0.648381
vt 0.291951 0.648824
vt 0.294781 0.661199
vt 0.293484 0.667096
vt 0.292727 0.670700
vt 0.297603 0.669307
vt 0.302038 0.669786
vt 0.303553 0.645483
vt 0.310703 0.650605
vt 0.307800 0.644562
vt 0.306303 0.656997
vt 0.303783 0.655214
vt 0.303805 0.650571
vt 0.302121 0.641409
vt 0.301811 0.664281
vt 0.308715 0.664642
vt 0.288433 0.661576
vt 0.299436 0.640121
vt 0.281181 0.631993
vt 0.291385 0.659216
vt 0.291066 0.662570
vt 0.303753 0.661812
vt 0.280308 0.637901
vt 0.273665 0.646802
vt 0.283264 0.635543
vt 0.279660 0.649046
vt 0.276002 0.651888
vt 0.295779 0.671367
vt 0.277420 0.656856
vt 0.303411 0.648163
vt 0.284980 0.634207
vt 0.295777 0.661038
vt 0.299242 0.667522
vt 0.330111 0.643992
vt 0.332462 0.643767
vt 0.335916 0.656247
vt 0.311707 0.644561
vt 0.320071 0.640121
vt 0.323490 0.643567
vt 0.326535 0.654432
vt 0.323999 0.643203
vt 0.315954 0.645483
vt 0.330817 0.638130
vt 0.334526 0.634207
vt 0.312388 0.669302
vt 0.318607 0.666667
vt 0.324630 0.669260
vt 0.310126 0.664948
vt 0.319010 0.655928
vt 0.327371 0.664648
vt 0.324065 0.648158
vt 0.315344 0.647041
vt 0.326859 0.663171
vt 0.327557 0.648823
vt 0.327242 0.653902
vt 0.317468 0.669786
vt 0.326780 0.670700
vt 0.321903 0.669308
vt 0.308804 0.650605
vt 0.313203 0.656997
vt 0.320892 0.648382
vt 0.316096 0.648163
vt 0.310096 0.651199
vt 0.317385 0.641408
vt 0.317695 0.664281
vt 0.319187 0.655235
vt 0.310792 0.664641
vt 0.328121 0.659216
vt 0.326022 0.667097
vt 0.325039 0.652817
vt 0.328440 0.662570
vt 0.315754 0.661811
vt 0.315723 0.655214
vt 0.320265 0.667522
vt 0.339198 0.637901
vt 0.345842 0.646802
vt 0.338326 0.631993
vt 0.336243 0.635543
vt 0.339846 0.649046
vt 0.324173 0.646527
vt 0.343505 0.651889
vt 0.323727 0.671367
vt 0.342086 0.656856
vt 0.324726 0.661199
vt 0.331073 0.661576
vt 0.323729 0.661038
vt 0.315702 0.650571
vt 0.298998 0.584353
vt 0.288731 0.591833
vt 0.279903 0.588124
vt 0.343105 0.588124
vt 0.334278 0.591832
vt 0.324010 0.584353
vt 0.311504 0.616869
vt 0.326841 0.596359
vt 0.311504 0.588922
vt 0.323967 0.575989
vt 0.311504 0.575532
vt 0.334480 0.578598
vt 0.343640 0.591455
vt 0.342878 0.618060
vt 0.339311 0.597475
vt 0.326527 0.583719
vt 0.349889 0.618813
vt 0.355711 0.624973
vt 0.350325 0.601863
vt 0.311504 0.586023
vt 0.288528 0.578598
vt 0.346730 0.608432
vt 0.342961 0.628103
vt 0.272683 0.601863
vt 0.268663 0.620630
vt 0.279368 0.591455
vt 0.299042 0.575989
vt 0.283697 0.597475
vt 0.296482 0.583719
vt 0.273120 0.618813
vt 0.289378 0.615765
vt 0.296168 0.596359
vt 0.300025 0.616280
vt 0.276278 0.608431
vt 0.267279 0.624850
vt 0.326429 0.610550
vt 0.324065 0.592552
vt 0.311505 0.606813
vt 0.311505 0.611192
vt 0.298944 0.592552
vt 0.333850 0.631420
vt 0.311504 0.628585
vt 0.296580 0.610550
vt 0.289158 0.631420
vt 0.280047 0.628102
vt 0.311504 0.693587
vt 0.311504 0.711552
vt 0.324282 0.700427
vt 0.322858 0.675090
vt 0.311504 0.674919
vt 0.330728 0.691004
vt 0.338172 0.676230
vt 0.321407 0.710965
vt 0.339999 0.702836
vt 0.347525 0.693544
vt 0.351802 0.678702
vt 0.323577 0.712986
vt 0.350208 0.696268
vt 0.355373 0.680908
vt 0.341161 0.706079
vt 0.351696 0.683234
vt 0.345561 0.698341
vt 0.327121 0.708236
vt 0.330782 0.700233
vt 0.338000 0.685776
vt 0.311504 0.714282
vt 0.322858 0.686823
vt 0.311504 0.703801
vt 0.311504 0.687088
vt 0.300150 0.686823
vt 0.295887 0.708236
vt 0.292227 0.700233
vt 0.299432 0.712986
vt 0.285008 0.685776
vt 0.277448 0.698341
vt 0.271312 0.683234
vt 0.281847 0.706079
vt 0.272800 0.696268
vt 0.283009 0.702836
vt 0.267635 0.680908
vt 0.275483 0.693544
vt 0.271207 0.678702
vt 0.301601 0.710965
vt 0.292280 0.691004
vt 0.284836 0.676230
vt 0.298726 0.700427
vt 0.300151 0.675090
vt 0.280130 0.618060
vt 0.272179 0.637298
vt 0.300016 0.628542
vt 0.322992 0.628542
vt 0.350829 0.637298
vt 0.354345 0.620630
vt 0.333630 0.615765
vt 0.322983 0.616280
vt 0.355390 0.637590
vt 0.362811 0.630614
vt 0.356396 0.639521
vt 0.360678 0.608207
vt 0.348546 0.601008
vt 0.356443 0.599822
vt 0.348467 0.597139
vt 0.348706 0.602752
vt 0.359321 0.614903
vt 0.364379 0.614051
vt 0.362466 0.630908
vt 0.354378 0.633062
vt 0.349489 0.618505
vt 0.349489 0.620250
vt 0.363665 0.620798
vt 0.260198 0.630613
vt 0.267619 0.637590
vt 0.266613 0.639521
vt 0.274303 0.602752
vt 0.266566 0.599823
vt 0.263688 0.614903
vt 0.262331 0.608208
vt 0.258631 0.614052
vt 0.260544 0.630908
vt 0.268631 0.633061
vt 0.273521 0.618505
vt 0.273521 0.620250
vt 0.259344 0.620797
vt 0.274462 0.601008
vt 0.304916 0.651261
vt 0.314590 0.651261
vt 0.274543 0.597139
vt 0.326193 0.675165
vt 0.327044 0.675687
vt 0.325511 0.681317
vt 0.324660 0.680796
vt 0.325511 0.688986
vt 0.324660 0.688464
vt 0.327044 0.694427
vt 0.326193 0.693905
vt 0.327606 0.689236
vt 0.328182 0.693651
vt 0.327606 0.681567
vt 0.329358 0.696578
vt 0.329920 0.694629
vt 0.328507 0.696056
vt 0.333808 0.696303
vt 0.334372 0.694355
vt 0.332916 0.695780
vt 0.336080 0.693866
vt 0.335128 0.693342
vt 0.335900 0.693175
vt 0.337545 0.688235
vt 0.336549 0.687709
vt 0.336557 0.680041
vt 0.337550 0.680566
vt 0.336676 0.688676
vt 0.336677 0.681008
vt 0.336079 0.675126
vt 0.335126 0.674602
vt 0.335901 0.676466
vt 0.334605 0.681293
vt 0.334372 0.675615
vt 0.334605 0.688962
vt 0.329920 0.675889
vt 0.330154 0.681567
vt 0.330154 0.689236
vt 0.328182 0.676942
vt 0.329358 0.673251
vt 0.328507 0.672730
vt 0.333801 0.672977
vt 0.332891 0.672454
vt 0.296816 0.675165
vt 0.298348 0.680796
vt 0.297497 0.681317
vt 0.295964 0.675687
vt 0.298348 0.688464
vt 0.297497 0.688986
vt 0.295964 0.694427
vt 0.296816 0.693905
vt 0.294826 0.693651
vt 0.295402 0.689236
vt 0.295402 0.681567
vt 0.293650 0.696578
vt 0.293088 0.694629
vt 0.294501 0.696056
vt 0.289200 0.696303
vt 0.288637 0.694355
vt 0.290092 0.695780
vt 0.287880 0.693342
vt 0.286928 0.693866
vt 0.287108 0.693175
vt 0.286460 0.687709
vt 0.285464 0.688235
vt 0.286451 0.680041
vt 0.285458 0.680566
vt 0.286333 0.688676
vt 0.286331 0.681008
vt 0.286929 0.675126
vt 0.287882 0.674602
vt 0.287107 0.676466
vt 0.288404 0.681293
vt 0.288637 0.675615
vt 0.288404 0.688962
vt 0.293088 0.675889
vt 0.292855 0.681567
vt 0.292855 0.689236
vt 0.294826 0.676942
vt 0.293650 0.673251
vt 0.294501 0.672730
vt 0.289207 0.672977
vt 0.290118 0.672454
vt 0.599802 0.372660
vt 0.590280 0.416990
vt 0.534720 0.416990
vt 0.525198 0.372660
vt 0.606720 0.372660
vt 0.597198 0.416990
vt 0.597198 0.416990
vt 0.606720 0.372660
vt 0.589006 0.423610
vt 0.535994 0.423610
vt 0.535994 0.423610
vt 0.589006 0.423610
vt 0.518280 0.372660
vt 0.527802 0.416990
vt 0.527802 0.416990
vt 0.518280 0.372660
vt 0.525198 0.372660
vt 0.534720 0.416990
vt 0.590280 0.416990
vt 0.599802 0.372660
vt 0.523628 0.366041
vt 0.523628 0.366041
vt 0.601372 0.366041
vt 0.601372 0.366041
vn -0.9374 0.3119 0.1552
vn -0.8567 0.2804 -0.4330
vn -0.9112 -0.1186 -0.3944
vn -0.7724 0.5613 -0.2973
vn -0.6553 0.1371 0.7428
vn -0.9087 -0.0215 0.4169
vn -0.5042 0.4374 0.7446
vn -0.7363 0.6374 0.2272
vn -0.5928 0.1447 -0.7922
vn -0.9814 -0.1898 0.0271
vn -0.2515 0.4318 -0.8662
vn -0.0001 0.1054 -0.9944
vn -0.3155 -0.1598 -0.9354
vn 0.2515 0.4318 -0.8662
vn 0.3062 -0.1491 -0.9402
vn -0.6402 -0.2726 -0.7182
vn -0.4665 0.5762 -0.6711
vn 0.4666 0.5762 -0.6711
vn 0.5930 0.1446 -0.7921
vn 0.6557 -0.2572 -0.7098
vn 0.8566 0.2805 -0.4331
vn 0.9374 0.3117 0.1551
vn 0.9117 -0.1185 -0.3935
vn 0.7724 0.5613 -0.2973
vn 0.7363 0.6374 0.2273
vn 0.5015 0.4310 0.7502
vn 0.6642 0.1566 0.7310
vn 0.9089 -0.0721 0.4107
vn 0.9665 -0.2412 0.0882
vn 0.0077 0.3822 0.9241
vn 0.3203 0.0275 0.9469
vn 0.4116 0.6692 0.6188
vn -0.3012 0.1404 0.9432
vn -0.4115 0.6692 0.6188
vn -0.3915 0.8807 -0.2665
vn -0.3044 -0.9525 -0.0078
vn 0.0297 -0.9416 0.3354
vn -0.2808 -0.8800 0.3832
vn 0.1759 -0.9636 -0.2016
vn -0.0389 -0.9945 -0.0977
vn -0.4040 -0.7465 -0.5287
vn -0.0976 -0.7175 -0.6896
vn 0.3463 -0.9378 -0.0235
vn -0.0000 0.9856 -0.1689
vn 0.3033 0.9271 0.2203
vn 0.3915 0.8807 -0.2665
vn -0.0000 0.6247 -0.7808
vn -0.3033 0.9271 0.2203
vn -0.0000 0.8088 0.5881
vn 0.2236 -0.5683 0.7919
vn 0.0042 -0.0558 0.9984
vn -0.0118 -0.6237 0.7816
vn -0.2776 -0.2945 0.9144
vn 0.5017 -0.7917 0.3487
vn 0.6247 -0.4321 0.6504
vn -0.5465 -0.4216 0.7236
vn 0.7484 -0.6570 -0.0914
vn 0.3785 -0.6743 -0.6341
vn 0.0090 -0.2617 -0.9651
vn -0.7041 -0.6215 0.3436
vn -0.7272 -0.6732 -0.1339
vn -0.8890 -0.0097 0.4577
vn -0.3697 -0.3888 0.8439
vn -0.2555 -0.0627 0.9648
vn -0.6505 0.6051 0.4589
vn -0.6225 0.5696 0.5368
vn 0.0769 0.9499 0.3029
vn -0.6089 -0.5846 -0.5361
vn -0.9932 0.0926 -0.0707
vn -0.8975 0.2157 -0.3846
vn 0.2010 0.5594 0.8042
vn 0.8617 0.1205 0.4930
vn 0.3388 -0.3858 0.8581
vn 0.9678 0.0967 0.2325
vn -0.1115 0.1822 -0.9769
vn 0.1213 -0.4283 -0.8954
vn -0.5269 0.1383 -0.8386
vn 0.4823 -0.4328 0.7616
vn -0.1481 -0.0218 0.9887
vn 0.3445 -0.0960 0.9339
vn -0.2531 0.2391 0.9374
vn -0.0180 -0.9994 -0.0301
vn 0.6030 -0.6895 -0.4012
vn 0.0305 -0.9992 -0.0262
vn 0.6064 0.0541 -0.7933
vn 0.9995 0.0324 -0.0065
vn 0.7553 0.6366 0.1556
vn 0.7213 -0.0399 0.6914
vn -0.8333 0.2026 0.5144
vn -0.3118 0.8196 0.4806
vn -0.3473 0.6451 -0.6807
vn -0.2654 0.9621 -0.0622
vn 0.4792 0.5573 -0.6780
vn 0.1276 0.9914 0.0286
vn 0.9324 0.3609 0.0187
vn 0.4178 0.6481 0.6367
vn -0.8825 0.1920 0.4294
vn 0.8069 -0.0086 -0.5906
vn -0.9073 0.1317 -0.3994
vn -0.3587 0.1825 -0.9155
vn 0.2780 0.0811 -0.9572
vn 0.8552 -0.1270 -0.5025
vn -0.0336 -0.9979 -0.0552
vn -0.1046 -0.9945 0.0054
vn 0.5911 0.8050 -0.0511
vn -0.8769 0.4620 -0.1330
vn 0.9630 0.1192 -0.2418
vn 0.6505 0.6051 0.4589
vn -0.0769 0.9499 0.3029
vn 0.6225 0.5696 0.5368
vn 0.1115 0.1822 -0.9769
vn 0.8975 0.2157 -0.3846
vn 0.5269 0.1383 -0.8386
vn -0.9324 0.3609 0.0187
vn -0.9678 0.0967 0.2325
vn -0.8069 -0.0086 -0.5906
vn -0.0305 -0.9992 -0.0262
vn 0.0180 -0.9994 -0.0301
vn 0.0240 -0.9942 -0.1049
vn -0.2010 0.5594 0.8042
vn -0.3388 -0.3858 0.8581
vn -0.8617 0.1205 0.4930
vn -0.3445 -0.0960 0.9339
vn -0.4178 0.6481 0.6367
vn 0.1481 -0.0218 0.9887
vn 0.8825 0.1920 0.4294
vn 0.9932 0.0926 -0.0707
vn 0.9878 -0.1533 -0.0256
vn 0.6089 -0.5846 -0.5361
vn 0.8890 -0.0097 0.4577
vn 0.2555 -0.0627 0.9648
vn 0.2531 0.2391 0.9374
vn -0.6030 -0.6895 -0.4012
vn -0.1213 -0.4283 -0.8954
vn -0.6064 0.0541 -0.7933
vn 0.8333 0.2026 0.5144
vn 0.3118 0.8196 0.4806
vn -0.7213 -0.0399 0.6914
vn -0.7553 0.6366 0.1556
vn 0.2654 0.9621 -0.0622
vn 0.3473 0.6451 -0.6807
vn -0.4792 0.5573 -0.6780
vn -0.1276 0.9914 0.0286
vn -0.9995 0.0324 -0.0065
vn 0.9073 0.1317 -0.3994
vn 0.3587 0.1825 -0.9155
vn -0.2780 0.0811 -0.9572
vn -0.2069 -0.6113 0.7639
vn -0.8552 -0.1270 -0.5025
vn 0.0336 -0.9979 -0.0552
vn 0.1046 -0.9945 0.0054
vn -0.5911 0.8050 -0.0511
vn 0.8769 0.4620 -0.1330
vn -0.9630 0.1192 -0.2418
vn -0.8484 -0.3731 0.3755
vn -0.8345 -0.4088 0.3695
vn -0.8488 -0.3720 0.3757
vn -0.5970 -0.8012 -0.0412
vn -0.7142 -0.2484 -0.6544
vn -0.3565 -0.8949 0.2684
vn 0.6140 -0.7455 -0.2594
vn 0.3125 0.1403 -0.9395
vn 0.6002 -0.0168 -0.7997
vn 0.8032 0.4094 0.4327
vn 0.0151 0.6410 0.7674
vn 0.0115 0.0807 0.9967
vn 0.7964 -0.2795 0.5364
vn 0.2807 -0.6320 0.7223
vn -0.4270 0.8977 0.1092
vn 0.4047 0.9110 0.0799
vn -0.8306 0.3916 0.3958
vn -0.8279 -0.0531 0.5584
vn -0.4609 -0.5774 0.6739
vn -0.7708 0.3538 -0.5299
vn -0.2513 -0.2733 -0.9285
vn 0.4901 -0.0664 -0.8691
vn 0.3154 -0.7196 -0.6186
vn -0.8819 -0.3975 -0.2536
vn -0.5042 0.1292 -0.8539
vn -0.2763 0.6095 -0.7431
vn -0.3485 0.9221 -0.1680
vn 0.3357 0.7480 -0.5725
vn 0.6326 0.7744 0.0148
vn 0.6835 -0.6220 -0.3821
vn 0.9643 -0.1957 -0.1782
vn 0.6812 -0.7260 -0.0944
vn 0.9865 0.0271 -0.1614
vn 0.7447 -0.0155 0.6673
vn 0.7520 -0.4902 0.4406
vn 0.1399 -0.9887 0.0536
vn -0.0039 0.9380 -0.3465
vn 0.7194 0.5187 -0.4619
vn -0.1954 0.9798 -0.0435
vn -0.4495 0.7811 0.4333
vn 0.2554 -0.9504 0.1776
vn -0.3526 -0.9357 0.0052
vn -0.1316 0.9826 0.1309
vn 0.2066 0.7120 -0.6712
vn -0.5242 0.1656 -0.8353
vn 0.5583 0.5955 -0.5776
vn -0.5650 -0.5754 -0.5914
vn -0.9632 -0.0660 0.2604
vn -0.3775 -0.7486 0.5451
vn -0.6960 0.1236 0.7073
vn -0.8729 0.1641 -0.4594
vn -0.0859 0.9643 0.2507
vn -0.7277 0.6801 0.0889
vn 0.6861 -0.7198 -0.1061
vn 0.1246 -0.9308 -0.3435
vn 0.4080 -0.2440 0.8798
vn 0.2745 0.2714 0.9225
vn 0.3761 0.6446 0.6656
vn 0.8484 -0.3731 0.3755
vn 0.8488 -0.3720 0.3757
vn 0.8345 -0.4088 0.3695
vn -0.6812 -0.7260 -0.0944
vn -0.2554 -0.9504 0.1776
vn 0.3565 -0.8949 0.2684
vn 0.7142 -0.2484 -0.6544
vn 0.5970 -0.8012 -0.0412
vn -0.6835 -0.6220 -0.3821
vn -0.6140 -0.7455 -0.2594
vn -0.1246 -0.9308 -0.3435
vn -0.4047 0.9110 0.0799
vn -0.0151 0.6410 0.7674
vn 0.4270 0.8977 0.1092
vn -0.8032 0.4094 0.4327
vn -0.0115 0.0807 0.9967
vn 0.8306 0.3916 0.3958
vn 0.4609 -0.5774 0.6739
vn -0.2807 -0.6320 0.7223
vn 0.7708 0.3538 -0.5299
vn 0.8819 -0.3975 -0.2536
vn 0.8279 -0.0531 0.5584
vn -0.6274 0.7782 0.0271
vn 0.3487 0.9221 -0.1679
vn -0.3201 0.7531 -0.5747
vn -0.9643 -0.1957 -0.1782
vn -0.9880 0.0180 -0.1532
vn -0.3153 -0.7197 -0.6185
vn -0.6859 -0.7199 -0.1061
vn -0.7964 -0.2795 0.5364
vn -0.1399 -0.9887 0.0536
vn 0.0039 0.9380 -0.3465
vn -0.4844 -0.0741 -0.8717
vn -0.7194 0.5187 -0.4619
vn -0.3125 0.1403 -0.9395
vn -0.2066 0.7120 -0.6712
vn 0.1316 0.9826 0.1309
vn 0.2764 0.6092 -0.7432
vn 0.2515 -0.2733 -0.9285
vn 0.5242 0.1656 -0.8353
vn -0.5583 0.5955 -0.5776
vn -0.7445 -0.0155 0.6674
vn -0.3760 0.6444 0.6658
vn 0.5650 -0.5754 -0.5914
vn 0.9632 -0.0660 0.2604
vn 0.3526 -0.9357 0.0052
vn 0.3775 -0.7486 0.5451
vn 0.6960 0.1236 0.7073
vn -0.6002 -0.0168 -0.7997
vn 0.8729 0.1641 -0.4594
vn 0.0862 0.9642 0.2507
vn 0.7277 0.6801 0.0889
vn 0.4495 0.7811 0.4333
vn 0.1954 0.9798 -0.0435
vn 0.5440 0.0657 0.8365
vn -0.4080 -0.2440 0.8798
vn -0.2745 0.2714 0.9225
vn -0.7518 -0.4904 0.4408
vn -0.2623 -0.8586 0.4405
vn -0.6131 -0.5492 0.5679
vn -0.6960 -0.6965 0.1746
vn 0.6961 -0.6964 0.1747
vn 0.6131 -0.5492 0.5679
vn 0.2623 -0.8586 0.4405
vn 0.0006 -0.2782 -0.9605
vn 0.3311 -0.5515 -0.7656
vn 0.0022 -0.6761 -0.7368
vn 0.2451 -0.9345 -0.2580
vn 0.0061 -0.9674 -0.2533
vn 0.3978 -0.9157 0.0573
vn 0.7296 -0.6372 -0.2483
vn 0.6891 -0.2343 -0.6858
vn 0.6235 -0.5424 -0.5631
vn 0.3381 -0.7716 -0.5388
vn 0.8540 -0.2311 -0.4661
vn 0.9857 -0.1529 0.0703
vn 0.8812 -0.4641 0.0899
vn -0.0000 -0.7856 0.6187
vn -0.3978 -0.9157 0.0573
vn 0.8211 -0.3386 0.4595
vn 0.6966 -0.0709 0.7140
vn -0.8746 -0.4725 0.1088
vn -0.9528 -0.2125 -0.2168
vn -0.7246 -0.6416 -0.2517
vn -0.2514 -0.9356 -0.2478
vn -0.6259 -0.5466 -0.5563
vn -0.3475 -0.7659 -0.5409
vn -0.8538 -0.2305 -0.4668
vn -0.4847 -0.2603 -0.8351
vn -0.3271 -0.5547 -0.7651
vn -0.2513 -0.2644 -0.9311
vn -0.8211 -0.3386 0.4596
vn -0.9873 -0.1376 0.0795
vn 0.4012 -0.1838 0.8973
vn 0.3516 -0.4033 0.8448
vn 0.0000 -0.2952 0.9554
vn 0.1108 0.6826 0.7223
vn 0.0000 0.6868 0.7268
vn -0.3516 -0.4033 0.8448
vn 0.5029 -0.0188 0.8641
vn -0.0000 -0.0546 0.9985
vn 0.0000 -0.2636 0.9646
vn -0.4013 -0.1838 0.8973
vn -0.5029 -0.0188 0.8641
vn -0.6990 -0.0655 0.7121
vn -0.0000 0.6418 -0.7669
vn -0.0000 0.9687 -0.2482
vn 0.1755 0.8394 -0.5144
vn 0.2579 0.1428 -0.9556
vn -0.0000 0.1476 -0.9890
vn 0.4099 0.5457 -0.7309
vn 0.6228 0.1598 -0.7659
vn 0.1651 0.9547 -0.2474
vn 0.4766 0.8318 -0.2847
vn 0.7551 0.5312 -0.3842
vn 0.8990 0.1720 -0.4026
vn 0.1653 0.9859 -0.0254
vn 0.7898 0.6130 0.0201
vn 0.9753 0.2189 -0.0297
vn 0.4664 0.8790 0.0989
vn 0.8960 0.2554 0.3632
vn 0.6834 0.6285 0.3716
vn 0.2513 0.9050 0.3433
vn 0.4055 0.6492 0.6435
vn 0.6144 0.3029 0.7285
vn -0.0000 0.9930 0.1184
vn 0.2549 0.3263 0.9103
vn -0.0000 0.7782 0.6280
vn -0.0000 0.3345 0.9424
vn -0.2549 0.3263 0.9102
vn -0.2513 0.9050 0.3433
vn -0.4055 0.6492 0.6435
vn -0.1653 0.9859 -0.0254
vn -0.6179 0.2990 0.7272
vn -0.6834 0.6284 0.3716
vn -0.8952 0.2517 0.3678
vn -0.4664 0.8790 0.0989
vn -0.7898 0.6130 0.0202
vn -0.4766 0.8318 -0.2847
vn -0.9753 0.2190 -0.0297
vn -0.7551 0.5312 -0.3842
vn -0.8990 0.1716 -0.4030
vn -0.1651 0.9547 -0.2474
vn -0.4099 0.5457 -0.7309
vn -0.6220 0.1574 -0.7671
vn -0.1755 0.8394 -0.5144
vn -0.2600 0.1403 -0.9554
vn -0.6944 -0.2267 -0.6829
vn -0.8730 0.0178 0.4874
vn -0.2479 -0.0240 0.9685
vn 0.2479 -0.0240 0.9685
vn 0.8809 0.0017 0.4733
vn 0.9530 -0.2281 -0.1992
vn 0.4928 -0.2741 -0.8258
vn 0.2472 -0.2692 -0.9308
vn 0.4560 0.5323 0.7133
vn 0.8312 0.4731 0.2919
vn 0.5914 0.7780 -0.2118
vn 0.5850 -0.3954 0.7081
vn 0.2019 -0.5507 0.8099
vn 0.4476 -0.8852 -0.1270
vn 0.0976 -0.9944 -0.0406
vn 0.1759 -0.5843 -0.7922
vn 0.4496 -0.2264 -0.8640
vn 0.9175 -0.2661 -0.2955
vn 0.7747 0.4208 -0.4721
vn 0.3784 0.2774 -0.8831
vn 0.1045 -0.1237 -0.9868
vn 0.0597 0.0741 0.9955
vn 0.7071 0.0493 0.7054
vn -0.8312 0.4731 0.2919
vn -0.4560 0.5323 0.7133
vn -0.5914 0.7780 -0.2118
vn -0.1759 -0.5843 -0.7922
vn -0.4476 -0.8852 -0.1270
vn -0.4496 -0.2264 -0.8641
vn -0.5850 -0.3954 0.7081
vn -0.9175 -0.2661 -0.2955
vn -0.7747 0.4208 -0.4721
vn -0.3784 0.2774 -0.8831
vn -0.1045 -0.1237 -0.9868
vn -0.0597 0.0741 0.9955
vn -0.7071 0.0493 0.7054
vn -0.2019 -0.5507 0.8099
vn -0.0240 -0.9942 -0.1049
vn -0.9878 -0.1533 -0.0256
vn 0.2069 -0.6113 0.7639
vn 0.3697 -0.3888 0.8439
vn -0.4823 -0.4328 0.7616
vn 0.8089 0.0456 -0.5862
vn -0.8649 -0.3247 0.3827
vn -0.5440 0.0657 0.8365
vn 0.5042 0.1292 -0.8539
vn -0.8089 0.0456 -0.5862
vn 0.8649 -0.3247 0.3827
vn -0.1108 0.6826 0.7223
vn -0.0976 -0.9944 -0.0406
vn -0.7311 -0.6429 0.2285
vn -0.6435 -0.6014 0.4736
vn -0.8510 -0.1381 0.5067
vn -0.9547 -0.1829 0.2348
vn -0.8510 0.2327 0.4708
vn -0.9547 0.2246 0.1954
vn -0.6435 0.6811 0.3494
vn -0.7311 0.6748 0.1009
vn -0.3606 0.2421 0.9007
vn -0.3252 0.5606 0.7616
vn -0.3606 -0.0648 0.9305
vn -0.1538 0.9650 0.2124
vn 0.0921 0.6800 0.7274
vn -0.2436 0.9691 -0.0385
vn 0.3477 0.9344 0.0780
vn 0.5003 0.6355 0.5881
vn 0.3119 0.9353 -0.1671
vn 0.7969 0.6032 -0.0320
vn 0.7647 0.5932 -0.2518
vn 0.7839 0.4803 0.3935
vn 0.9853 0.1682 -0.0304
vn 0.9506 0.1630 -0.2642
vn 0.9507 -0.2103 -0.2280
vn 0.9853 -0.1706 0.0026
vn 0.8627 0.1754 0.4743
vn 0.8627 -0.0809 0.4993
vn 0.7958 -0.5996 0.0843
vn 0.7629 -0.6327 -0.1331
vn 0.7834 -0.3966 0.4785
vn 0.5533 -0.0403 0.8320
vn 0.5002 -0.5112 0.6989
vn 0.5534 0.1992 0.8088
vn 0.0921 -0.5279 0.8443
vn 0.2107 -0.0334 0.9770
vn 0.2107 0.2203 0.9524
vn -0.3252 -0.4040 0.8550
vn -0.1538 -0.9063 0.3936
vn -0.2433 -0.9586 0.1482
vn 0.3470 -0.9025 0.2553
vn 0.3095 -0.9508 0.0153
vn 0.7311 -0.6429 0.2285
vn 0.9547 -0.1829 0.2348
vn 0.8510 -0.1381 0.5067
vn 0.6435 -0.6014 0.4736
vn 0.9547 0.2246 0.1954
vn 0.8510 0.2327 0.4708
vn 0.6435 0.6811 0.3494
vn 0.7311 0.6748 0.1009
vn 0.3252 0.5606 0.7616
vn 0.3606 0.2421 0.9007
vn 0.3606 -0.0648 0.9305
vn 0.1538 0.9650 0.2124
vn -0.0921 0.6800 0.7274
vn 0.2436 0.9691 -0.0385
vn -0.3477 0.9344 0.0780
vn -0.5003 0.6355 0.5881
vn -0.3119 0.9353 -0.1671
vn -0.7647 0.5932 -0.2518
vn -0.7969 0.6032 -0.0320
vn -0.7839 0.4803 0.3935
vn -0.9506 0.1630 -0.2642
vn -0.9853 0.1682 -0.0304
vn -0.9507 -0.2103 -0.2280
vn -0.9853 -0.1706 0.0026
vn -0.8627 0.1754 0.4743
vn -0.8627 -0.0809 0.4993
vn -0.7958 -0.5996 0.0843
vn -0.7629 -0.6327 -0.1331
vn -0.7834 -0.3966 0.4785
vn -0.5533 -0.0403 0.8320
vn -0.5002 -0.5112 0.6989
vn -0.5534 0.1992 0.8088
vn -0.0921 -0.5279 0.8443
vn -0.2107 -0.0334 0.9770
vn -0.2107 0.2203 0.9524
vn 0.3252 -0.4040 0.8550
vn 0.1538 -0.9063 0.3936
vn 0.2433 -0.9586 0.1482
vn -0.3470 -0.9025 0.2553
vn -0.3095 -0.9508 0.0153
vn 0.0000 0.2100 0.9777
vn 0.9777 0.2100 0.0000
vn 0.0000 1.0000 0.0000
vn -0.9777 0.2100 0.0000
vn 0.0000 0.2100 -0.9777
vn -0.5438 -0.6391 0.5438
vn -0.4661 -0.2767 0.8403
vn -0.8403 -0.2767 0.4661
vn -0.4218 0.6203 0.6613
vn -0.3884 0.8357 0.3884
vn -0.6613 0.6203 0.4218
vn -0.5438 -0.6391 -0.5438
vn -0.8403 -0.2767 -0.4661
vn -0.4661 -0.2767 -0.8403
vn -0.3884 0.8357 -0.3884
vn -0.4218 0.6203 -0.6613
vn -0.6613 0.6203 -0.4218
vn 0.5438 -0.6391 0.5438
vn 0.8403 -0.2767 0.4661
vn 0.4661 -0.2767 0.8403
vn 0.3884 0.8357 0.3884
vn 0.4218 0.6203 0.6613
vn 0.6613 0.6203 0.4218
vn 0.5438 -0.6391 -0.5438
vn 0.4661 -0.2767 -0.8403
vn 0.8403 -0.2767 -0.4661
vn 0.3884 0.8357 -0.3884
vn 0.6613 0.6203 -0.4218
vn 0.4218 0.6203 -0.6613
vn 0.0000 -1.0000 0.0000
usemtl KayKit_Texture_A
s 1
f 37/1/1 40/2/2 36/3/3
f 39/4/4 40/2/2 37/1/1
f 3/5/5 37/1/1 34/6/6
f 7/7/7 38/8/8 37/1/1
f 39/4/4 19/9/9 40/2/2
f 40/2/2 19/9/9 36/3/3
f 34/6/6 37/1/1 35/10/10
f 41/11/11 42/12/12 31/13/13
f 42/12/12 43/14/14 33/15/15
f 19/9/9 31/13/13 4/16/16
f 18/17/17 41/11/11 19/9/9
f 43/14/14 20/18/18 21/19/19
f 33/15/15 21/19/19 5/20/20
f 44/21/21 46/22/22 28/23/23
f 44/21/21 45/24/24 46/22/22
f 21/19/19 44/21/21 28/23/23
f 21/19/19 45/24/24 44/21/21
f 47/25/25 23/26/26 46/22/22
f 46/22/22 24/27/27 30/28/28
f 46/22/22 30/28/28 29/29/29
f 23/26/26 48/30/30 25/31/31
f 22/32/32 48/30/30 23/26/26
f 48/30/30 7/7/7 27/33/33
f 48/30/30 8/34/34 7/7/7
f 23/26/26 25/31/31 24/27/27
f 39/4/4 13/35/35 18/17/17
f 27/33/33 7/7/7 3/5/5
f 50/36/36 15/37/37 6/38/38
f 49/39/39 15/37/37 51/40/40
f 10/41/41 51/40/40 50/36/36
f 49/39/39 51/40/40 58/42/42
f 12/43/43 15/37/37 49/39/39
f 61/44/44 53/45/45 52/46/46
f 13/35/35 61/44/44 16/47/47
f 38/8/8 2/48/48 13/35/35
f 43/14/14 16/47/47 52/46/46
f 18/17/17 13/35/35 41/11/11
f 2/48/48 9/49/49 61/44/44
f 54/50/50 26/51/51 55/52/52
f 26/51/51 56/53/53 55/52/52
f 1/54/54 54/50/50 15/37/37
f 14/55/55 25/31/31 54/50/50
f 27/33/33 17/56/56 56/53/53
f 56/53/53 17/56/56 55/52/52
f 55/52/52 6/38/38 15/37/37
f 57/57/57 30/28/28 1/54/54
f 29/29/29 30/28/28 57/57/57
f 11/58/58 12/43/43 49/39/39
f 5/20/20 57/57/57 11/58/58
f 30/28/28 24/27/27 14/55/55
f 57/57/57 1/54/54 12/43/43
f 32/59/59 11/58/58 58/42/42
f 10/41/41 31/13/13 58/42/42
f 59/60/60 35/10/10 60/61/61
f 3/5/5 34/6/6 17/56/56
f 60/61/61 4/16/16 10/41/41
f 6/38/38 60/61/61 50/36/36
f 53/45/45 47/25/25 52/46/46
f 52/46/46 45/24/24 20/18/18
f 75/62/62 93/63/63 72/64/64
f 64/65/65 67/66/66 101/67/67
f 92/68/68 65/69/69 62/70/70
f 101/67/67 67/66/66 68/71/71
f 74/72/72 77/73/73 71/74/74
f 91/75/75 100/76/76 69/77/77
f 65/69/69 67/66/66 64/65/65
f 72/64/64 93/63/63 78/78/78
f 72/64/64 68/71/71 67/66/66
f 65/69/69 75/62/62 67/66/66
f 99/79/79 70/80/80 87/81/81
f 93/63/82 80/82/83 79/83/84
f 92/68/68 100/76/76 80/82/83
f 91/75/75 84/84/85 100/76/76
f 79/83/86 86/85/87 82/86/88
f 90/87/89 87/81/81 83/88/90
f 101/67/67 68/71/71 86/85/87
f 85/89/91 97/90/92 88/91/93
f 95/92/94 101/67/67 86/85/87
f 95/92/95 71/74/74 77/73/73
f 87/81/81 66/93/96 83/88/90
f 99/79/79 90/87/89 94/94/97
f 95/92/95 79/83/86 98/95/98
f 80/82/83 84/84/85 98/95/98
f 82/86/88 78/78/78 79/83/86
f 81/96/99 91/75/75 62/70/70
f 89/97/100 63/98/101 91/75/75
f 64/65/65 77/73/73 99/79/79
f 98/95/98 63/98/101 73/99/102
f 63/98/101 85/89/91 88/91/93
f 76/100/103 93/63/82 75/62/104
f 83/88/90 66/93/96 103/101/105
f 100/76/76 92/68/68 69/77/77
f 90/87/89 62/70/70 94/94/97
f 72/64/64 78/78/78 82/86/88
f 83/88/90 96/102/106 90/87/89
f 71/74/74 102/103/107 74/72/72
f 74/72/72 102/103/107 103/101/105
f 106/104/108 143/105/109 109/106/110
f 135/107/111 119/108/112 111/109/113
f 138/110/114 104/111/115 141/112/116
f 122/113/117 137/114/118 120/115/119
f 143/105/109 110/116/120 109/106/110
f 118/117/121 115/118/122 104/111/115
f 115/118/122 112/119/123 108/120/124
f 142/121/125 106/104/108 121/122/126
f 107/123/127 117/124/128 136/125/129
f 116/126/130 107/123/127 109/106/110
f 113/127/131 116/126/130 109/106/110
f 112/119/123 142/121/125 131/128/132
f 107/123/127 116/126/130 117/124/128
f 123/129/133 137/114/118 122/113/117
f 124/130/134 136/125/129 123/129/133
f 135/107/111 128/131/135 141/112/116
f 131/128/132 134/132/136 127/133/137
f 126/134/138 110/116/120 130/135/139
f 143/105/109 130/135/139 110/116/120
f 140/136/140 129/137/141 132/138/142
f 138/110/143 130/135/139 143/105/109
f 104/111/115 138/110/114 118/117/121
f 108/120/124 131/128/132 127/133/137
f 134/132/136 142/121/125 121/122/126
f 138/110/143 143/105/109 106/104/108
f 122/113/144 138/110/114 141/112/116
f 128/131/135 123/129/133 141/112/116
f 125/139/145 135/107/111 133/140/146
f 128/131/135 124/130/134 123/129/133
f 133/140/146 135/107/111 105/141/147
f 106/104/108 118/117/121 138/110/148
f 105/141/147 141/112/116 114/142/149
f 129/137/141 105/141/147 132/138/142
f 137/114/118 117/124/150 116/126/151
f 108/120/124 127/133/137 145/143/152
f 136/125/129 124/130/134 111/109/113
f 134/132/136 119/108/112 125/139/145
f 127/133/137 139/144/153 140/136/140
f 144/145/154 104/111/115 115/118/122
f 192/146/155 179/147/156 169/148/157
f 164/149/158 177/150/159 165/151/160
f 191/152/161 169/148/162 187/153/163
f 184/154/164 171/155/165 170/156/166
f 148/157/167 170/156/166 158/158/168
f 159/159/169 171/155/165 168/160/170
f 168/160/170 171/155/165 184/154/164
f 170/156/166 160/161/171 172/162/172
f 171/155/165 159/159/169 160/161/171
f 170/156/166 157/163/173 158/158/168
f 163/164/174 160/161/171 159/159/169
f 152/165/175 185/166/176 156/167/177
f 157/163/173 173/168/178 164/149/158
f 163/164/174 198/169/179 177/150/159
f 146/170/180 149/171/181 162/172/182
f 149/171/181 161/173/183 162/172/182
f 183/174/184 174/175/185 166/176/186
f 186/177/187 200/178/188 147/179/189
f 186/177/187 156/167/177 185/166/176
f 175/180/190 158/158/168 157/163/173
f 175/180/190 165/151/160 166/176/186
f 175/180/190 148/157/167 158/158/168
f 168/160/170 176/181/191 159/159/169
f 185/166/176 161/173/183 186/177/187
f 168/160/170 167/182/192 176/181/191
f 199/183/193 198/169/194 176/181/191
f 183/174/184 195/184/195 154/185/196
f 169/148/162 179/147/197 197/186/198
f 163/164/174 172/162/172 160/161/171
f 146/170/180 152/165/175 153/187/199
f 167/182/192 174/175/185 196/188/200
f 161/173/183 200/178/188 186/177/187
f 184/154/164 174/175/185 167/182/192
f 173/168/178 177/150/159 164/149/158
f 184/154/164 170/156/166 148/157/167
f 189/189/201 154/185/196 151/190/202
f 151/190/202 154/185/196 182/191/203
f 182/191/203 180/192/204 151/190/202
f 187/153/163 169/148/162 197/186/198
f 189/189/201 151/190/202 188/193/205
f 179/147/197 150/194/206 181/195/207
f 181/195/207 188/193/205 151/190/202
f 181/195/207 146/170/180 188/193/205
f 154/185/196 165/151/160 182/191/203
f 189/189/201 152/165/175 156/167/177
f 191/152/161 155/196/208 147/179/189
f 176/181/191 197/186/198 199/183/193
f 181/195/207 180/192/204 198/169/194
f 179/147/197 199/183/193 197/186/198
f 181/195/207 198/169/194 199/183/193
f 183/174/184 191/152/161 187/153/163
f 165/151/160 180/192/204 182/191/203
f 153/187/199 189/189/201 188/193/205
f 156/167/177 191/152/161 190/197/209
f 149/171/181 181/195/207 150/194/206
f 152/165/175 189/189/201 153/187/199
f 192/146/210 147/179/189 200/178/188
f 194/198/211 200/178/188 193/199/212
f 246/200/213 224/201/214 245/202/215
f 220/203/216 251/204/217 253/205/218
f 232/206/219 219/207/220 253/205/218
f 247/208/221 244/209/222 223/210/223
f 222/211/224 226/212/225 213/213/226
f 226/212/225 222/211/224 238/214/227
f 225/215/228 214/216/229 226/212/225
f 216/217/230 225/215/228 212/218/231
f 214/216/229 218/219/232 213/213/226
f 228/220/233 232/206/219 218/219/232
f 216/217/230 228/220/233 227/221/234
f 215/222/235 204/223/236 217/224/237
f 229/225/238 247/208/221 220/203/216
f 240/226/239 211/227/240 210/228/241
f 220/203/216 203/229/242 229/225/238
f 219/207/220 216/217/230 230/230/243
f 253/205/218 230/230/243 220/203/216
f 203/229/242 230/230/243 212/218/231
f 231/231/244 222/211/224 213/213/226
f 240/226/239 217/224/237 239/232/245
f 221/233/246 222/211/224 231/231/244
f 247/208/221 251/204/217 220/203/216
f 224/201/247 237/234/248 245/202/249
f 227/221/234 218/219/232 214/216/229
f 201/235/250 239/232/245 217/224/237
f 207/236/251 201/235/250 208/237/252
f 229/225/238 221/233/246 252/238/253
f 215/222/235 255/239/254 249/240/255
f 229/225/238 238/214/227 221/233/246
f 225/215/228 238/214/227 203/229/242
f 243/241/256 206/242/257 209/243/258
f 206/242/257 236/244/259 209/243/258
f 236/244/259 206/242/257 234/245/260
f 241/246/261 237/234/248 224/201/247
f 243/241/256 242/247/262 206/242/257
f 205/248/263 245/202/249 235/249/264
f 201/235/250 235/249/264 242/247/262
f 209/243/258 253/205/218 251/204/217
f 223/210/223 211/227/240 243/241/256
f 231/231/244 237/234/248 252/238/253
f 234/245/260 235/249/264 248/250/265
f 254/251/266 245/202/249 237/234/248
f 248/250/265 235/249/264 254/251/266
f 234/245/260 232/206/267 253/205/218
f 234/245/260 253/205/218 236/244/259
f 211/227/240 244/209/222 210/228/241
f 235/249/264 204/223/236 205/248/263
f 255/239/254 246/200/268 250/252/269
f 243/241/256 207/236/251 208/237/252
f 246/200/268 202/253/270 244/209/222
f 255/239/254 250/252/269 249/240/255
f 256/254/271 257/255/272 272/256/273
f 269/257/274 284/258/275 279/259/276
f 350/260/277 263/261/278 260/262/279
f 260/262/279 277/263/280 261/264/281
f 277/263/280 278/265/282 261/264/281
f 277/263/280 266/266/283 278/265/282
f 263/261/278 295/267/284 265/268/285
f 265/268/285 266/266/283 264/269/286
f 265/268/285 297/270/287 266/266/283
f 266/266/283 305/271/288 267/272/289
f 266/266/283 267/272/289 269/257/274
f 278/265/282 279/259/276 261/264/281
f 279/259/276 258/273/290 261/264/281
f 258/273/290 256/254/271 261/264/281
f 256/254/271 280/274/291 261/264/281
f 268/275/292 310/276/293 284/258/275
f 271/277/294 336/278/295 273/279/296
f 271/277/294 273/279/296 272/256/273
f 280/274/291 281/280/297 261/264/281
f 273/279/296 281/280/297 280/274/291
f 273/279/296 274/281/298 275/282/299
f 340/283/300 274/281/298 273/279/296
f 274/281/298 343/284/301 276/285/302
f 275/282/299 261/264/281 281/280/297
f 347/286/303 260/262/279 276/285/302
f 271/277/294 272/256/273 270/287/304
f 271/277/294 270/287/304 282/288/305
f 272/256/273 257/255/272 270/287/304
f 278/265/282 269/257/274 279/259/276
f 280/274/291 256/254/271 272/256/273
f 269/257/274 268/275/292 284/258/275
f 284/258/275 288/289/306 259/290/307
f 287/291/308 259/290/307 288/289/306
f 288/289/309 285/292/310 287/291/310
f 287/291/308 283/293/311 258/273/290
f 310/276/293 313/294/312 288/289/306
f 288/289/306 320/295/313 285/292/314
f 320/295/313 286/296/315 285/292/314
f 286/296/315 324/297/316 327/298/317
f 286/296/315 257/255/272 283/293/311
f 284/258/275 310/276/293 288/289/306
f 257/255/272 286/296/315 327/298/317
f 348/299/318 298/300/319 292/301/320
f 348/299/318 290/302/321 349/303/322
f 289/304/323 294/305/324 290/302/321
f 292/301/320 291/306/325 301/307/326
f 289/304/323 301/307/326 296/308/327
f 294/305/324 296/308/327 299/309/328
f 291/306/325 298/300/319 306/310/329
f 301/307/326 304/311/330 296/308/327
f 296/308/327 302/312/331 299/309/328
f 301/307/326 306/310/329 303/313/332
f 302/312/331 304/311/330 308/314/333
f 303/313/332 307/315/334 304/311/330
f 303/313/332 306/310/329 311/316/335
f 307/315/334 311/316/335 315/317/336
f 307/315/334 312/318/337 308/314/333
f 306/310/329 298/300/319 314/319/338
f 315/317/336 316/320/339 312/318/337
f 311/316/335 314/319/338 318/321/340
f 311/316/335 318/321/340 315/317/336
f 316/320/339 318/321/340 319/322/341
f 318/321/340 321/323/342 319/322/341
f 318/321/340 314/319/338 325/324/343
f 318/321/340 325/324/343 326/325/344
f 314/319/338 298/300/319 331/326/345
f 326/325/344 323/327/346 321/323/342
f 323/327/346 329/328/347 332/329/348
f 325/324/343 331/326/345 328/330/349
f 325/324/343 329/328/347 326/325/344
f 329/328/347 328/330/349 333/331/350
f 328/330/349 331/326/345 335/332/351
f 333/331/350 334/333/352 332/329/348
f 334/333/352 338/334/353 339/335/354
f 333/331/350 335/332/351 338/334/353
f 331/326/345 298/300/319 337/336/355
f 335/332/351 345/337/356 338/334/353
f 338/334/353 342/338/357 339/335/354
f 335/332/351 337/336/355 344/339/358
f 342/338/357 345/337/356 346/340/359
f 344/339/358 298/300/319 348/299/318
f 346/340/359 348/299/318 349/303/322
f 346/340/359 350/260/277 347/286/303
f 342/338/357 347/286/303 343/284/301
f 341/341/360 342/338/357 343/284/301
f 339/335/354 341/341/360 340/283/300
f 339/335/354 340/283/300 336/278/295
f 282/288/305 339/335/354 336/278/295
f 330/342/361 332/329/348 282/288/305
f 327/298/317 332/329/348 330/342/361
f 324/297/316 323/327/346 327/298/317
f 321/323/342 324/297/316 322/343/362
f 320/295/313 321/323/342 322/343/362
f 316/320/339 320/295/313 317/344/363
f 313/294/312 316/320/339 317/344/363
f 312/318/337 313/294/312 310/276/293
f 309/345/364 312/318/337 310/276/293
f 308/314/333 309/345/364 305/271/288
f 299/309/328 305/271/288 300/346/365
f 297/270/287 299/309/328 300/346/365
f 294/305/324 297/270/287 295/267/284
f 294/305/324 295/267/284 293/347/366
f 290/302/321 293/347/366 262/348/367
f 350/260/277 290/302/321 262/348/367
f 309/345/364 310/276/293 268/275/292
f 282/288/305 270/287/304 330/342/361
f 362/349/368 354/350/369 353/351/370
f 364/352/371 365/353/372 357/354/373
f 357/354/373 365/353/372 358/355/374
f 357/354/373 361/356/375 360/357/376
f 364/352/371 357/354/373 356/358/377
f 354/350/369 356/358/377 355/359/378
f 359/360/379 355/359/378 360/357/376
f 351/361/380 359/360/379 360/357/376
f 351/361/380 360/357/376 361/356/375
f 352/362/381 363/363/382 362/349/368
f 352/362/381 364/352/371 363/363/382
f 352/362/381 365/353/372 364/352/371
f 369/364/383 377/365/384 368/366/385
f 376/367/386 372/368/387 375/369/388
f 372/368/387 379/370/389 371/371/390
f 375/369/388 371/371/390 370/372/391
f 371/371/390 369/364/383 370/372/391
f 374/373/392 370/372/391 368/366/385
f 366/374/393 375/369/388 374/373/392
f 366/374/393 376/367/386 375/369/388
f 367/375/394 377/365/384 378/376/395
f 367/375/394 378/376/395 379/370/389
f 367/375/394 379/370/389 380/377/396
f 37/1/1 38/8/8 39/4/4
f 3/5/5 7/7/7 37/1/1
f 7/7/7 8/34/34 38/8/8
f 39/4/4 38/8/8 13/35/35
f 39/4/4 18/17/17 19/9/9
f 36/3/3 19/9/9 4/16/16
f 35/10/10 37/1/1 36/3/3
f 41/11/11 16/47/47 42/12/12
f 42/12/12 16/47/47 43/14/14
f 19/9/9 41/11/11 31/13/13
f 53/45/45 61/44/44 9/49/49
f 33/15/15 43/14/14 21/19/19
f 32/59/59 42/12/12 33/15/15
f 31/13/13 42/12/12 32/59/59
f 45/24/24 47/25/25 46/22/22
f 5/20/20 21/19/19 28/23/23
f 21/19/19 20/18/18 45/24/24
f 47/25/25 22/32/32 23/26/26
f 46/22/22 23/26/26 24/27/27
f 28/23/23 46/22/22 29/29/29
f 22/32/32 9/49/49 48/30/30
f 48/30/30 9/49/49 8/34/34
f 2/48/48 8/34/34 9/49/49
f 41/11/11 13/35/35 16/47/47
f 20/18/18 43/14/14 52/46/46
f 26/51/51 48/30/30 27/33/33
f 25/31/31 48/30/30 26/51/51
f 50/36/36 51/40/40 15/37/37
f 10/41/41 58/42/42 51/40/40
f 12/43/43 1/54/54 15/37/37
f 61/44/44 13/35/35 2/48/48
f 52/46/46 16/47/47 61/44/44
f 9/49/49 22/32/32 53/45/45
f 38/8/8 8/34/34 2/48/48
f 54/50/50 25/31/31 26/51/51
f 1/54/54 14/55/55 54/50/50
f 14/55/55 24/27/27 25/31/31
f 26/51/51 27/33/33 56/53/53
f 27/33/33 3/5/5 17/56/56
f 55/52/52 17/56/56 6/38/38
f 15/37/37 54/50/50 55/52/52
f 28/23/23 29/29/29 57/57/57
f 11/58/58 57/57/57 12/43/43
f 5/20/20 28/23/23 57/57/57
f 1/54/54 30/28/28 14/55/55
f 58/42/42 31/13/13 32/59/59
f 32/59/59 33/15/15 11/58/58
f 10/41/41 4/16/16 31/13/13
f 33/15/15 5/20/20 11/58/58
f 58/42/42 11/58/58 49/39/39
f 59/60/60 34/6/6 35/10/10
f 60/61/61 35/10/10 36/3/3
f 6/38/38 17/56/56 59/60/60
f 17/56/56 34/6/6 59/60/60
f 60/61/61 36/3/3 4/16/16
f 50/36/36 60/61/61 10/41/41
f 6/38/38 59/60/60 60/61/61
f 53/45/45 22/32/32 47/25/25
f 52/46/46 47/25/25 45/24/24
f 87/81/81 70/80/80 66/93/96
f 91/75/75 69/77/77 62/70/70
f 95/92/95 98/95/98 71/74/74
f 79/83/84 78/78/397 93/63/82
f 92/68/68 62/70/70 69/77/77
f 74/72/72 70/80/80 77/73/73
f 103/101/105 66/93/96 74/72/72
f 74/72/72 66/93/96 70/80/80
f 71/74/74 98/95/98 73/99/102
f 65/69/69 64/65/65 94/94/97
f 99/79/79 94/94/97 64/65/65
f 71/74/74 73/99/102 102/103/107
f 63/98/101 88/91/93 73/99/102
f 68/71/71 72/64/64 82/86/88
f 88/91/93 102/103/107 73/99/102
f 65/69/69 92/68/68 76/100/398
f 72/64/64 67/66/66 75/62/62
f 97/90/92 103/101/105 88/91/93
f 65/69/69 76/100/398 75/62/62
f 99/79/79 77/73/73 70/80/80
f 94/94/97 62/70/70 65/69/69
f 97/90/92 83/88/90 103/101/105
f 91/75/75 98/95/98 84/84/85
f 99/79/79 87/81/81 90/87/89
f 96/102/106 97/90/92 85/89/91
f 82/86/88 86/85/87 68/71/71
f 79/83/86 80/82/83 98/95/98
f 81/96/99 96/102/106 85/89/91
f 81/96/99 85/89/91 89/97/100
f 95/92/94 64/65/65 101/67/67
f 95/92/95 86/85/87 79/83/86
f 81/96/99 89/97/100 91/75/75
f 84/84/85 80/82/83 100/76/76
f 64/65/65 95/92/399 77/73/73
f 98/95/98 91/75/75 63/98/101
f 63/98/101 89/97/100 85/89/91
f 76/100/103 80/82/83 93/63/82
f 76/100/103 92/68/68 80/82/83
f 90/87/89 81/96/99 62/70/70
f 83/88/90 97/90/92 96/102/106
f 96/102/106 81/96/99 90/87/89
f 88/91/93 103/101/105 102/103/107
f 108/120/124 112/119/123 131/128/132
f 116/126/130 113/127/131 137/114/400
f 111/109/113 119/108/112 136/125/129
f 136/125/129 119/108/112 107/123/127
f 118/117/121 112/119/123 115/118/122
f 115/118/122 108/120/124 145/143/152
f 135/107/111 111/109/113 124/130/134
f 114/142/149 141/112/116 104/111/115
f 121/122/126 106/104/108 107/123/127
f 107/123/127 106/104/108 109/106/110
f 144/145/154 114/142/149 104/111/115
f 114/142/149 132/138/142 105/141/147
f 113/127/131 120/115/401 137/114/400
f 126/134/138 113/127/131 110/116/120
f 114/142/149 144/145/154 132/138/142
f 113/127/131 109/106/110 110/116/120
f 132/138/142 145/143/152 140/136/140
f 112/119/123 118/117/121 142/121/125
f 107/123/127 119/108/112 121/122/126
f 145/143/152 127/133/137 140/136/140
f 135/107/111 124/130/134 128/131/135
f 122/113/144 126/134/138 130/135/139
f 134/132/136 131/128/132 142/121/125
f 129/137/141 140/136/140 139/144/153
f 141/112/116 123/129/133 122/113/144
f 129/137/141 139/144/153 125/139/145
f 133/140/146 129/137/141 125/139/145
f 122/113/144 130/135/139 138/110/114
f 126/134/138 122/113/144 120/115/401
f 125/139/145 119/108/112 135/107/111
f 106/104/108 142/121/125 118/117/121
f 105/141/147 135/107/111 141/112/116
f 129/137/141 133/140/146 105/141/147
f 137/114/118 123/129/133 117/124/150
f 123/129/133 136/125/129 117/124/150
f 134/132/136 121/122/126 119/108/112
f 113/127/131 126/134/138 120/115/401
f 127/133/137 134/132/136 139/144/153
f 134/132/136 125/139/145 139/144/153
f 144/145/154 145/143/152 132/138/142
f 115/118/122 145/143/152 144/145/154
f 181/195/207 151/190/202 180/192/204
f 166/176/186 165/151/160 195/184/195
f 183/174/184 190/197/209 191/152/161
f 170/156/166 171/155/165 160/161/171
f 170/156/166 172/162/172 157/163/173
f 173/168/178 163/164/174 177/150/159
f 157/163/173 172/162/172 173/168/178
f 149/171/181 150/194/206 161/173/183
f 186/177/187 147/179/189 155/196/208
f 183/174/184 178/378/402 174/175/185
f 168/160/170 184/154/164 167/182/192
f 186/177/187 155/196/208 156/167/177
f 166/176/186 174/175/185 148/157/167
f 164/149/158 175/180/190 157/163/173
f 175/180/190 166/176/186 148/157/167
f 164/149/158 165/151/160 175/180/190
f 159/159/169 176/181/191 163/164/174
f 185/166/176 162/172/182 161/173/183
f 163/164/174 176/181/191 198/169/179
f 176/181/191 167/182/192 196/188/200
f 150/194/206 193/199/212 161/173/183
f 183/174/184 166/176/186 195/184/195
f 178/378/402 196/188/200 174/175/185
f 190/197/209 183/174/184 154/185/196
f 163/164/174 173/168/178 172/162/172
f 146/170/180 162/172/182 185/166/176
f 146/170/180 185/166/176 152/165/175
f 161/173/183 193/199/212 200/178/188
f 184/154/164 148/157/167 174/175/185
f 191/152/403 192/146/155 169/148/157
f 189/189/201 190/197/209 154/185/196
f 179/147/197 193/199/212 150/194/206
f 181/195/207 149/171/181 146/170/180
f 154/185/196 195/184/195 165/151/160
f 178/378/402 183/174/184 187/153/163
f 188/193/205 146/170/180 153/187/199
f 190/197/209 189/189/201 156/167/177
f 176/181/191 196/188/200 197/186/198
f 179/147/197 181/195/207 199/183/193
f 187/153/163 197/186/198 196/188/200
f 177/150/404 198/169/194 180/192/204
f 180/192/204 165/151/160 177/150/404
f 196/188/200 178/378/402 187/153/163
f 156/167/177 155/196/208 191/152/161
f 200/178/188 194/198/211 192/146/210
f 194/198/211 179/147/197 192/146/210
f 179/147/197 194/198/211 193/199/212
f 192/146/210 191/152/161 147/179/189
f 234/245/260 206/242/257 235/249/264
f 244/209/222 241/246/261 224/201/247
f 238/214/227 225/215/228 226/212/225
f 203/229/242 212/218/231 225/215/228
f 225/215/228 227/221/234 214/216/229
f 226/212/225 214/216/229 213/213/226
f 216/217/230 227/221/234 225/215/228
f 207/236/251 211/227/240 239/232/245
f 216/217/230 219/207/220 228/220/233
f 218/219/232 232/206/219 248/250/405
f 201/235/250 217/224/237 204/223/236
f 215/222/235 205/248/263 204/223/236
f 210/228/241 202/253/270 240/226/239
f 229/225/238 233/379/406 247/208/221
f 221/233/246 238/214/227 222/211/224
f 240/226/239 202/253/270 255/239/254
f 240/226/239 239/232/245 211/227/240
f 230/230/243 216/217/230 212/218/231
f 203/229/242 220/203/216 230/230/243
f 230/230/243 253/205/218 219/207/220
f 218/219/232 231/231/244 213/213/226
f 240/226/239 215/222/235 217/224/237
f 248/250/405 231/231/244 218/219/232
f 252/238/253 221/233/246 231/231/244
f 215/222/235 249/240/255 205/248/263
f 254/251/266 231/231/244 248/250/265
f 247/208/221 209/243/258 251/204/217
f 229/225/238 252/238/253 233/379/406
f 209/243/258 247/208/221 223/210/223
f 227/221/234 228/220/233 218/219/232
f 207/236/251 239/232/245 201/235/250
f 215/222/235 240/226/239 255/239/254
f 229/225/238 203/229/242 238/214/227
f 228/220/233 219/207/220 232/206/219
f 224/201/214 246/200/213 244/209/407
f 209/243/258 223/210/223 243/241/256
f 205/248/263 249/240/255 245/202/249
f 235/249/264 206/242/257 242/247/262
f 201/235/250 204/223/236 235/249/264
f 209/243/258 236/244/259 253/205/218
f 241/246/261 247/208/221 233/379/406
f 208/237/252 201/235/250 242/247/262
f 243/241/256 211/227/240 207/236/251
f 244/209/222 202/253/270 210/228/241
f 231/231/244 254/251/266 237/234/248
f 254/251/266 235/249/264 245/202/249
f 252/238/253 237/234/248 241/246/261
f 247/208/221 241/246/261 244/209/222
f 234/245/260 248/250/265 232/206/267
f 241/246/261 233/379/406 252/238/253
f 208/237/252 242/247/262 243/241/256
f 211/227/240 223/210/223 244/209/222
f 246/200/268 245/202/249 250/252/269
f 249/240/255 250/252/269 245/202/249
f 246/200/268 255/239/254 202/253/270
f 283/293/311 257/255/272 256/254/271
f 279/259/276 259/290/307 258/273/290
f 258/273/290 283/293/311 256/254/271
f 279/259/276 284/258/275 259/290/307
f 350/260/277 262/348/367 263/261/278
f 260/262/279 263/261/278 264/269/286
f 263/261/278 262/348/367 293/347/366
f 260/262/279 264/269/286 277/263/280
f 277/263/280 264/269/286 266/266/283
f 263/261/278 293/347/366 295/267/284
f 264/269/286 263/261/278 265/268/285
f 265/268/285 295/267/284 297/270/287
f 266/266/283 269/257/274 278/265/282
f 297/270/287 300/346/365 266/266/283
f 266/266/283 300/346/365 305/271/288
f 272/256/273 273/279/296 280/274/291
f 267/272/289 305/271/288 268/275/292
f 271/277/294 282/288/305 336/278/295
f 273/279/296 275/282/299 281/280/297
f 273/279/296 336/278/295 340/283/300
f 340/283/300 341/341/360 274/281/298
f 274/281/298 341/341/360 343/284/301
f 275/282/299 274/281/298 276/285/302
f 275/282/299 260/262/279 261/264/281
f 343/284/301 347/286/303 276/285/302
f 275/282/299 276/285/302 260/262/279
f 347/286/303 350/260/277 260/262/279
f 270/287/304 257/255/272 327/298/317
f 267/272/289 268/275/292 269/257/274
f 287/291/308 258/273/290 259/290/307
f 287/291/308 286/296/315 283/293/311
f 288/289/306 313/294/312 317/344/363
f 288/289/306 317/344/363 320/295/313
f 320/295/313 322/343/362 286/296/315
f 322/343/362 324/297/316 286/296/315
f 286/296/408 287/291/310 285/292/310
f 348/299/318 292/301/320 289/304/323
f 348/299/318 289/304/323 290/302/321
f 292/301/320 298/300/319 291/306/325
f 292/301/320 301/307/326 289/304/323
f 294/305/324 289/304/323 296/308/327
f 301/307/326 291/306/325 306/310/329
f 296/308/327 304/311/330 302/312/331
f 304/311/330 301/307/326 303/313/332
f 308/314/333 304/311/330 307/315/334
f 307/315/334 303/313/332 311/316/335
f 307/315/334 315/317/336 312/318/337
f 311/316/335 306/310/329 314/319/338
f 316/320/339 315/317/336 318/321/340
f 318/321/340 326/325/344 321/323/342
f 314/319/338 331/326/345 325/324/343
f 323/327/346 326/325/344 329/328/347
f 325/324/343 328/330/349 329/328/347
f 329/328/347 333/331/350 332/329/348
f 328/330/349 335/332/351 333/331/350
f 334/333/352 333/331/350 338/334/353
f 331/326/345 337/336/355 335/332/351
f 338/334/353 345/337/356 342/338/357
f 345/337/356 335/332/351 344/339/358
f 337/336/355 298/300/319 344/339/358
f 345/337/356 344/339/358 348/299/318
f 346/340/359 345/337/356 348/299/318
f 346/340/359 349/303/322 350/260/277
f 342/338/357 346/340/359 347/286/303
f 339/335/354 342/338/357 341/341/360
f 282/288/305 334/333/352 339/335/354
f 282/288/305 332/329/348 334/333/352
f 327/298/317 323/327/346 332/329/348
f 321/323/342 323/327/346 324/297/316
f 320/295/313 319/322/341 321/323/342
f 316/320/339 319/322/341 320/295/313
f 313/294/312 312/318/337 316/320/339
f 309/345/364 308/314/333 312/318/337
f 302/312/331 308/314/333 305/271/288
f 299/309/328 302/312/331 305/271/288
f 294/305/324 299/309/328 297/270/287
f 290/302/321 294/305/324 293/347/366
f 350/260/277 349/303/322 290/302/321
f 305/271/288 309/345/364 268/275/292
f 330/342/361 270/287/304 327/298/317
f 362/349/368 363/363/382 354/350/369
f 357/354/373 358/355/374 361/356/375
f 356/358/377 357/354/373 360/357/376
f 363/363/382 364/352/371 356/358/377
f 360/357/376 355/359/378 356/358/377
f 354/350/369 363/363/382 356/358/377
f 359/360/379 353/351/370 355/359/378
f 353/351/370 354/350/369 355/359/378
f 369/364/383 378/376/395 377/365/384
f 379/370/389 372/368/387 380/377/396
f 372/368/387 373/380/409 380/377/396
f 376/367/386 373/380/409 372/368/387
f 375/369/388 372/368/387 371/371/390
f 371/371/390 379/370/389 378/376/395
f 371/371/390 378/376/395 369/364/383
f 374/373/392 375/369/388 370/372/391
f 370/372/391 369/364/383 368/366/385
f 382/381/410 414/382/411 383/383/412 381/384/413
f 383/383/412 386/385/414 384/386/415 381/384/413
f 388/387/416 385/388/417 384/386/415 386/385/414
f 386/385/414 387/389/418 389/390/419 388/387/416
f 411/391/420 387/389/418 386/385/414 383/383/412
f 390/392/421 388/387/416 389/390/419 391/393/422
f 390/392/421 392/394/423 385/388/417 388/387/416
f 393/395/424 390/392/421 391/393/422 395/396/425
f 396/397/426 392/394/423 390/392/421 393/395/424
f 396/397/426 393/395/424 394/398/427 397/399/428
f 393/395/424 395/396/425 420/400/429 394/398/427
f 397/399/428 394/398/427 400/401/430 398/402/431
f 399/403/432 398/402/431 400/401/430 402/404/433
f 401/405/434 404/406/435 402/404/433 400/401/430
f 400/401/430 394/398/427 420/400/429 401/405/434
f 403/407/436 419/408/437 399/403/432 402/404/433
f 402/404/433 404/406/435 405/409/438 403/407/436
f 406/410/439 407/411/440 405/409/438 404/406/435
f 408/412/441 406/410/439 404/406/435 401/405/434
f 410/413/442 407/411/440 406/410/439 409/414/443
f 406/410/439 408/412/441 412/415/444 409/414/443
f 409/414/443 411/391/420 413/416/445 410/413/442
f 409/414/443 412/415/444 387/389/418 411/391/420
f 395/396/425 391/393/422 412/415/444 408/412/441
f 412/415/444 391/393/422 389/390/419 387/389/418
f 383/383/412 414/382/411 413/416/445 411/391/420
f 415/417/446 410/413/442 413/416/445 414/382/411
f 416/418/447 415/417/446 414/382/411 382/381/410
f 415/417/446 417/419/448 407/411/440 410/413/442
f 416/418/447 418/420/449 417/419/448 415/417/446
f 417/419/448 418/420/449 419/408/437 403/407/436
f 417/419/448 403/407/436 405/409/438 407/411/440
f 408/412/441 401/405/434 420/400/429 395/396/425
f 422/421/450 421/422/451 423/423/452 454/424/453
f 423/423/452 421/422/451 424/425/454 426/426/455
f 428/427/456 426/426/455 424/425/454 425/428/457
f 426/426/455 428/427/456 429/429/458 427/430/459
f 451/431/460 423/423/452 426/426/455 427/430/459
f 430/432/461 431/433/462 429/429/458 428/427/456
f 430/432/461 428/427/456 425/428/457 432/434/463
f 433/435/464 435/436/465 431/433/462 430/432/461
f 436/437/466 433/435/464 430/432/461 432/434/463
f 436/437/466 437/438/467 434/439/468 433/435/464
f 433/435/464 434/439/468 460/440/469 435/436/465
f 437/438/467 438/441/470 440/442/471 434/439/468
f 439/443/472 442/444/473 440/442/471 438/441/470
f 441/445/474 440/442/471 442/444/473 444/446/475
f 440/442/471 441/445/474 460/440/469 434/439/468
f 443/447/476 442/444/473 439/443/472 459/448/477
f 442/444/473 443/447/476 445/449/478 444/446/475
f 446/450/479 444/446/475 445/449/478 447/451/480
f 448/452/481 441/445/474 444/446/475 446/450/479
f 450/453/482 449/454/483 446/450/479 447/451/480
f 446/450/479 449/454/483 452/455/484 448/452/481
f 449/454/483 450/453/482 453/456/485 451/431/460
f 449/454/483 451/431/460 427/430/459 452/455/484
f 435/436/465 448/452/481 452/455/484 431/433/462
f 452/455/484 427/430/459 429/429/458 431/433/462
f 423/423/452 451/431/460 453/456/485 454/424/453
f 455/457/486 454/424/453 453/456/485 450/453/482
f 456/458/487 422/421/450 454/424/453 455/457/486
f 455/457/486 450/453/482 447/451/480 457/459/488
f 456/458/487 455/457/486 457/459/488 458/460/489
f 457/459/488 443/447/476 459/448/477 458/460/489
f 457/459/488 447/451/480 445/449/478 443/447/476
f 448/452/481 435/436/465 460/440/469 441/445/474
f 475/461/490 477/462/490 464/463/490 462/464/490
f 481/465/491 483/466/491 478/467/491 474/468/491
f 482/469/492 470/470/492 465/471/492 476/472/492
f 463/473/493 466/474/493 472/475/493 468/476/493
f 469/477/494 471/478/494 484/479/494 480/480/494
f 461/481/495 462/464/496 463/473/497
f 464/463/498 465/471/499 466/474/500
f 467/482/501 468/476/502 469/477/503
f 470/470/504 471/478/505 472/475/506
f 473/483/507 474/468/508 475/461/509
f 476/472/510 477/462/511 478/467/512
f 479/484/513 480/480/514 481/465/515
f 482/469/516 483/466/517 484/479/518
f 467/482/501 461/481/495 463/473/497 468/476/502
f 462/464/496 464/463/498 466/474/500 463/473/497
f 465/471/499 470/470/504 472/475/506 466/474/500
f 471/478/505 469/477/503 468/476/502 472/475/506
f 479/484/513 467/482/501 469/477/503 480/480/514
f 470/470/504 482/469/516 484/479/518 471/478/505
f 483/466/517 481/465/515 480/480/514 484/479/518
f 473/483/507 479/484/513 481/465/515 474/468/508
f 482/469/516 476/472/510 478/467/512 483/466/517
f 477/462/511 475/461/509 474/468/508 478/467/512
f 461/481/495 473/483/507 475/461/509 462/464/496
f 476/472/510 465/471/499 464/463/498 477/462/511
f 467/482/519 479/484/519 473/483/519 461/481/519
