# Blender v3.4.1 OBJ File: 'MixedBag1_Export.blend'
# www.blender.org
mtllib idol_B.mtl
o idol_B
v -0.135971 0.000000 0.135971
v -0.130481 0.023155 0.154680
v -0.154680 0.023155 0.130481
v -0.097174 0.178219 0.121373
v -0.092717 0.201373 0.092717
v -0.121373 0.178219 0.097174
v -0.135971 0.000000 -0.135971
v -0.154680 0.023155 -0.130481
v -0.130481 0.023155 -0.154680
v -0.092717 0.201373 -0.092717
v -0.097174 0.178219 -0.121373
v -0.121373 0.178219 -0.097174
v 0.135971 0.000000 0.135971
v 0.154680 0.023155 0.130481
v 0.130481 0.023155 0.154680
v 0.092717 0.201373 0.092717
v 0.097174 0.178219 0.121373
v 0.121373 0.178219 0.097174
v 0.135971 0.000000 -0.135971
v 0.130481 0.023155 -0.154680
v 0.154680 0.023155 -0.130481
v 0.092717 0.201373 -0.092717
v 0.121373 0.178219 -0.097174
v 0.097174 0.178219 -0.121373
v -0.005140 0.398177 0.023800
v -0.065577 0.209728 0.042052
v -0.027470 0.392731 0.016550
v -0.068486 0.214142 -0.030473
v -0.035633 0.189071 -0.009673
v -0.028525 0.400677 -0.016958
v 0.064120 0.206651 -0.033684
v 0.027641 0.187858 -0.025667
v 0.044036 0.189193 0.015249
v 0.002235 0.397301 -0.049995
v 0.065817 0.233772 0.071782
v 0.042623 0.204670 0.061736
v -0.018246 0.201291 0.059899
v 0.059934 0.387217 -0.038061
v -0.050263 0.233890 0.078326
v -0.069276 0.274542 0.068496
v -0.043678 0.351664 -0.060622
v -0.070798 0.277374 -0.053145
v 0.075228 0.361155 -0.046783
v 0.061917 0.322701 -0.069412
v 0.074543 0.255540 -0.053893
v 0.078143 0.280174 0.060286
v 0.048067 0.281310 0.080542
v 0.006852 0.298768 0.081371
v -0.037387 0.285134 0.082381
v 0.095650 0.258147 -0.027910
v 0.103299 0.264062 0.003411
v 0.093072 0.245647 0.042752
v -0.043009 0.237653 -0.060073
v 0.001129 0.262861 -0.075515
v 0.041404 0.256831 -0.069856
v -0.091698 0.280822 0.039778
v -0.095153 0.294061 0.003378
v -0.093812 0.270255 -0.022852
v -0.061340 0.347977 0.033441
v -0.073168 0.343484 -0.027152
v -0.036929 0.386286 -0.037240
v -0.014310 0.316340 -0.079641
v 0.002633 0.364756 -0.069343
v 0.098252 0.313131 -0.024245
v 0.096947 0.304844 0.021608
v 0.024433 0.388962 0.030986
v -0.017788 0.186817 0.016589
v 0.077043 0.377485 -0.001149
v 0.062101 0.377901 0.024253
v 0.019351 0.223899 0.084880
v 0.000535 0.244564 0.091276
v 0.071470 0.198031 -0.002960
v 0.094393 0.224681 -0.000247
v 0.077133 0.208426 0.039308
v -0.036416 0.200841 -0.037328
v 0.018292 0.206085 -0.052817
v -0.077908 0.229983 0.050381
v -0.094718 0.242241 0.018959
v -0.080765 0.215897 -0.002848
v 0.040919 0.402869 0.000761
v 0.015131 0.410470 -0.013681
v 0.037628 0.379399 -0.059451
v 0.049679 0.191765 0.105617
v 0.084511 0.193488 0.080555
v 0.079153 0.206390 0.169377
v 0.080992 0.222106 0.161946
v 0.073581 0.242682 0.096878
v 0.099688 0.221639 0.175091
v 0.064373 0.158672 0.125399
v 0.077774 0.224431 0.046401
v 0.080290 0.242854 0.069501
v 0.105027 0.208492 0.179158
v 0.057742 0.205967 0.134023
v 0.079672 0.224316 0.132502
v 0.031912 0.232347 0.087611
v 0.097144 0.150860 0.112292
v 0.111432 0.166489 0.110251
v 0.115971 0.226661 0.138907
v 0.129588 0.210566 0.145413
v 0.026287 0.239928 0.058865
v 0.055262 0.250981 0.066984
v 0.053767 0.203077 0.037056
v 0.057308 0.245558 0.041506
v 0.063759 0.186410 0.087458
v 0.044320 0.237981 0.097646
v 0.096133 0.231267 0.156361
v 0.119493 0.223457 0.167788
v 0.121741 0.206016 0.169918
v 0.109327 0.217386 0.117581
v 0.058004 0.178661 0.134960
v 0.072816 0.172662 0.148509
v 0.095272 0.164212 0.097227
v 0.028231 0.201432 0.053178
v 0.025211 0.220673 0.075639
v 0.073967 0.154068 0.108494
v 0.081363 0.149132 0.121819
v 0.113614 0.182679 0.105062
v 0.099268 0.208052 0.087283
v 0.065990 0.211999 0.035117
v 0.039921 0.231932 0.034276
v 0.033220 0.216937 0.038547
v -0.030199 0.192400 0.091808
v -0.023361 0.200072 0.104005
v -0.056257 0.241130 0.032847
v -0.060340 0.202618 0.037103
v -0.035720 0.209981 0.168167
v -0.042156 0.226259 0.155189
v -0.055326 0.242528 0.094710
v -0.037616 0.154219 0.115915
v -0.062199 0.247075 0.060083
v -0.074598 0.234527 0.080026
v -0.046573 0.151165 0.125521
v -0.029756 0.211037 0.130510
v -0.075035 0.220390 0.126108
v -0.048518 0.224905 0.131411
v -0.074961 0.196942 0.087285
v -0.076342 0.208517 0.180185
v -0.019147 0.236467 0.072595
v -0.068104 0.150724 0.119465
v -0.031393 0.237425 0.096672
v -0.077487 0.160110 0.112214
v -0.077961 0.221713 0.173719
v -0.079170 0.226496 0.149042
v -0.090152 0.209812 0.158452
v -0.036649 0.249896 0.062224
v -0.034171 0.200829 0.034920
v -0.024015 0.238743 0.036909
v -0.043985 0.186844 0.084522
v -0.061870 0.231510 0.158292
v -0.057842 0.223380 0.180128
v -0.057560 0.205978 0.183149
v -0.025660 0.174641 0.133201
v -0.055611 0.187854 0.081318
v -0.020055 0.207151 0.041638
v -0.014845 0.224050 0.060729
v -0.060404 0.154464 0.104777
v -0.087590 0.172799 0.120926
v -0.083482 0.205267 0.110038
v -0.070638 0.220951 0.039215
v -0.048589 0.218751 0.025481
v -0.028970 0.410442 -0.036766
v -0.012349 0.379896 0.014998
v -0.073746 0.405665 0.049738
v -0.058382 0.413381 -0.018773
v -0.118585 0.361506 -0.019640
v -0.023696 0.370353 -0.037308
v -0.102928 0.327047 -0.006911
v -0.019484 0.359934 -0.000536
v -0.056219 0.398038 0.117057
v -0.090172 0.409404 0.122695
v -0.024731 0.418681 -0.014356
v -0.095229 0.378213 0.107609
v -0.042652 0.398215 0.089369
v -0.049942 0.426078 0.072913
v -0.072547 0.427727 0.112230
v -0.077448 0.439731 0.079473
v -0.101145 0.435784 0.082200
v -0.005104 0.397030 -0.006081
v -0.079021 0.429035 0.064406
v -0.038390 0.418064 0.008315
v -0.095840 0.406922 0.050637
v -0.117598 0.396852 0.081037
v -0.092438 0.386228 -0.005468
v -0.119049 0.382470 0.001374
v -0.069159 0.367094 -0.000730
v -0.032380 0.388305 -0.044519
v -0.021965 0.394767 0.019781
v -0.102136 0.422336 0.108975
v -0.050519 0.427245 0.094013
v -0.005155 0.373581 -0.024694
v -0.113751 0.377717 0.089580
v -0.123720 0.347939 0.003052
v -0.108125 0.383229 -0.019753
v -0.083478 0.350247 -0.036544
v -0.080538 0.367800 0.006939
v -0.050343 0.381863 0.090632
v -0.115741 0.395193 0.058818
v -0.088986 0.377472 -0.038092
v -0.065970 0.330998 -0.016411
v -0.079144 0.325366 -0.000781
v -0.072174 0.387702 0.016504
v -0.075650 0.356907 0.080325
v -0.057570 0.393067 0.055029
v -0.104196 0.342569 0.055426
v -0.119815 0.344828 0.035634
v -0.129268 0.367885 0.018935
v -0.068240 0.343161 0.007979
v -0.052455 0.378836 0.021613
v -0.063899 0.393991 0.013920
v 0.088705 0.394237 -0.014559
v 0.046275 0.344059 -0.013321
v 0.074643 0.360404 -0.046451
v 0.100442 0.377099 0.006831
v 0.101671 0.282437 -0.026979
v 0.060705 0.346989 -0.037836
v 0.028626 0.248235 0.101534
v 0.066359 0.294922 0.119835
v 0.069532 0.385606 0.012468
v 0.038049 0.241846 0.085394
v 0.074849 0.301940 0.075169
v 0.025990 0.263251 0.081043
v 0.030423 0.294141 0.100772
v 0.137963 0.284668 -0.001943
v 0.046213 0.258092 0.122328
v 0.040415 0.279479 0.120096
v 0.086678 0.275944 0.112907
v 0.069898 0.237901 0.101106
v 0.050960 0.300731 0.098405
v 0.097248 0.288285 0.078653
v 0.050900 0.289376 0.052509
v 0.060332 0.300552 0.064099
v 0.115744 0.324777 0.018875
v 0.132879 0.278199 0.033907
v 0.096391 0.263332 -0.002276
v 0.123553 0.277433 -0.015299
v 0.096262 0.377656 -0.033991
v 0.053163 0.345563 0.009992
v 0.066796 0.248467 0.123312
v 0.092004 0.320057 0.014298
v 0.084860 0.255865 0.112301
v 0.057070 0.388140 -0.010573
v 0.027786 0.282310 0.082208
v 0.059156 0.375749 -0.039003
v 0.040659 0.362289 -0.006476
v 0.097053 0.253440 0.073473
v 0.142977 0.315232 0.009464
v 0.127909 0.324658 -0.028193
v 0.105023 0.273284 0.075140
v 0.073126 0.343629 0.020268
v 0.107675 0.307210 -0.038874
v 0.083556 0.301304 -0.008591
v 0.130927 0.323006 0.016760
v 0.089752 0.289645 -0.021481
v 0.081820 0.246088 0.050805
v 0.050374 0.264766 0.049549
v 0.114579 0.255234 0.031050
v 0.068736 0.376093 0.020723
v 0.117244 0.363577 -0.015376
v -0.019736 0.396077 0.100224
v -0.052898 0.418515 0.096158
v 0.029446 0.393262 0.116939
v 0.074562 0.406907 0.123492
v 0.078702 0.500839 -0.160752
v 0.052529 0.451059 -0.146904
v 0.086223 0.427126 -0.124597
v 0.146431 0.441680 -0.091192
v 0.127418 0.407131 -0.070445
v 0.173771 0.437740 -0.020726
v 0.141740 0.402214 0.003669
v -0.095443 0.467088 0.070379
v -0.107660 0.459989 0.007058
v -0.085069 0.424051 0.006332
v -0.087424 0.440370 -0.059031
v -0.059668 0.442310 -0.101688
v -0.019568 0.457184 -0.138638
v 0.001322 0.419504 -0.120325
v 0.079355 0.391293 -0.083313
v 0.115681 0.384726 -0.007309
v 0.083310 0.387520 0.091238
v -0.060566 0.400507 -0.004431
v -0.037687 0.397712 -0.059785
v 0.001939 0.398834 -0.094555
v 0.158215 0.436051 0.066099
v -0.123416 0.519998 0.002623
v -0.017116 0.415132 0.123270
v 0.109957 0.403633 0.096973
v 0.094639 0.451028 0.128844
v -0.006344 0.452894 0.140787
v -0.028634 0.462135 0.128860
v 0.052991 0.439687 0.147536
v 0.035786 0.692919 -0.137965
v 0.055394 0.712085 -0.112939
v 0.074985 0.728872 -0.038608
v 0.091400 0.699687 -0.124437
v 0.110127 0.647261 -0.146807
v 0.118438 0.503519 -0.145501
v 0.140655 0.681780 -0.109473
v 0.161469 0.642250 -0.111045
v 0.149694 0.493959 -0.119950
v 0.185189 0.674365 -0.052110
v 0.176410 0.493960 -0.087331
v 0.043018 0.730464 0.038613
v 0.156092 0.700151 -0.055699
v 0.196799 0.635984 -0.059542
v 0.191306 0.487358 -0.048248
v 0.206788 0.634152 0.021696
v 0.169060 0.694953 0.033042
v 0.198832 0.491847 0.002296
v 0.099149 0.724552 0.020748
v 0.190776 0.670312 0.042254
v 0.178492 0.495077 0.073898
v 0.139864 0.672998 0.112820
v 0.175043 0.632092 0.096646
v 0.149435 0.490747 0.109998
v 0.110641 0.697568 0.105622
v 0.117875 0.494032 0.133825
v 0.111824 0.636655 0.145972
v 0.078038 0.496179 0.150929
v 0.057844 0.679118 0.144877
v 0.049644 0.641621 0.157490
v 0.036165 0.491872 0.154666
v 0.006338 0.707280 0.110549
v -0.002604 0.501661 0.150899
v -0.012423 0.647839 0.145972
v -0.042680 0.510809 0.135052
v -0.030258 0.687580 0.116142
v -0.075642 0.513156 0.110379
v -0.056605 0.715781 0.032559
v -0.068372 0.692526 0.072082
v -0.075442 0.654638 0.096646
v -0.101006 0.540668 0.076881
v -0.106656 0.661962 0.020774
v -0.085658 0.697556 0.020083
v -0.051732 0.717614 -0.042099
v -0.118531 0.518874 -0.046320
v 0.015867 0.733428 -0.013912
v -0.078092 0.697999 -0.050394
v -0.094866 0.663547 -0.062133
v -0.101467 0.514078 -0.085992
v -0.033262 0.696368 -0.110891
v -0.077369 0.518318 -0.118207
v -0.012559 0.716439 -0.090597
v -0.045532 0.660860 -0.125523
v -0.043810 0.516077 -0.144956
v 0.029322 0.657288 -0.156767
v -0.004983 0.509496 -0.160518
v 0.036653 0.509719 -0.167162
v 0.172194 0.483990 -0.034813
v 0.172033 0.482209 0.010281
v 0.200784 0.530253 -0.017739
v 0.224286 0.505968 -0.015622
v 0.228497 0.484942 0.000011
v 0.220920 0.452328 -0.018220
v 0.163479 0.425401 -0.018871
v 0.163728 0.429065 0.001878
v 0.214356 0.477249 -0.031277
v 0.165870 0.442908 -0.031925
v 0.200249 0.528565 0.005939
v 0.217122 0.509822 0.009544
v 0.218354 0.457194 0.007412
v 0.192729 0.433011 0.005402
v 0.084912 0.507302 0.135763
v 0.089153 0.493115 0.132774
v 0.087905 0.506496 0.149239
v 0.086632 0.526406 0.136524
v 0.093355 0.539801 0.134633
v 0.089624 0.525600 0.150000
v 0.097083 0.524672 0.156460
v 0.096348 0.538995 0.148109
v 0.100162 0.535854 0.154194
v 0.105139 0.544109 0.144653
v 0.106601 0.537865 0.153325
v 0.102146 0.544915 0.131177
v 0.121055 0.542959 0.137567
v 0.128666 0.536663 0.133629
v 0.122521 0.536714 0.146240
v 0.117917 0.543779 0.124065
v 0.125316 0.537504 0.120088
v 0.129155 0.523356 0.117025
v 0.127466 0.504248 0.116270
v 0.132663 0.522499 0.130595
v 0.129520 0.522328 0.142001
v 0.130963 0.503393 0.129838
v 0.124460 0.489977 0.131769
v 0.127806 0.503223 0.141241
v 0.124023 0.492234 0.140244
v 0.120379 0.503598 0.148616
v 0.118319 0.490028 0.144381
v 0.122099 0.522702 0.149377
v 0.104459 0.504749 0.155702
v 0.102399 0.491179 0.151466
v 0.095363 0.505568 0.155699
v 0.106178 0.523853 0.156462
v 0.096416 0.494230 0.152536
v 0.092146 0.492309 0.146250
v 0.099908 0.485999 0.142339
v 0.096916 0.486805 0.128863
v 0.115799 0.484851 0.135248
v 0.112596 0.485677 0.121734
v 0.121105 0.490819 0.118227
v 0.127764 0.533859 0.141901
v -0.009043 0.515759 0.135763
v -0.015749 0.502557 0.132774
v -0.012131 0.515500 0.149239
v -0.007323 0.534863 0.136524
v -0.011547 0.549243 0.134633
v -0.010412 0.534605 0.150000
v -0.017916 0.535023 0.156460
v -0.014635 0.548985 0.148109
v -0.018949 0.546575 0.154194
v -0.022372 0.555586 0.144653
v -0.024925 0.549703 0.153325
v -0.019284 0.555845 0.131177
v -0.038237 0.557297 0.137567
v -0.046851 0.552461 0.133629
v -0.040796 0.551414 0.146240
v -0.035004 0.557543 0.124065
v -0.043404 0.552690 0.120088
v -0.049708 0.539455 0.117025
v -0.051458 0.520353 0.116270
v -0.053312 0.539239 0.130595
v -0.050251 0.538509 0.142001
v -0.055052 0.520136 0.129838
v -0.051048 0.505775 0.131769
v -0.051976 0.519405 0.141241
v -0.050216 0.507917 0.140244
v -0.044601 0.518448 0.148616
v -0.044998 0.504728 0.144381
v -0.042882 0.537552 0.149377
v -0.028731 0.516737 0.155702
v -0.029128 0.503017 0.151466
v -0.019636 0.515919 0.155699
v -0.027011 0.535841 0.156462
v -0.022696 0.504951 0.152536
v -0.018837 0.502299 0.146250
v -0.027602 0.497476 0.142339
v -0.024514 0.497734 0.128863
v -0.043443 0.499184 0.135248
v -0.040143 0.499425 0.121734
v -0.047598 0.506003 0.118227
v -0.046464 0.549541 0.141901
v -0.092933 0.510372 -0.034813
v -0.093139 0.508596 0.010281
v -0.111501 0.561489 -0.017739
v -0.139457 0.542500 -0.015622
v -0.147862 0.522772 0.000011
v -0.147087 0.489299 -0.018220
v -0.096335 0.451237 -0.018871
v -0.095832 0.454874 0.001878
v -0.135585 0.512360 -0.031277
v -0.095110 0.468863 -0.031925
v -0.111321 0.559727 0.005939
v -0.131658 0.544814 0.009544
v -0.143583 0.493539 0.007412
v -0.123421 0.464645 0.005402
vt 0.599802 0.372660
vt 0.590280 0.416990
vt 0.534720 0.416990
vt 0.525198 0.372660
vt 0.606720 0.372660
vt 0.597198 0.416990
vt 0.597198 0.416990
vt 0.606720 0.372660
vt 0.589006 0.423610
vt 0.535994 0.423610
vt 0.535994 0.423610
vt 0.589006 0.423610
vt 0.518280 0.372660
vt 0.527802 0.416990
vt 0.527802 0.416990
vt 0.518280 0.372660
vt 0.525198 0.372660
vt 0.534720 0.416990
vt 0.590280 0.416990
vt 0.599802 0.372660
vt 0.523628 0.366041
vt 0.523628 0.366041
vt 0.601372 0.366041
vt 0.601372 0.366041
vt 0.286549 0.657376
vt 0.272948 0.617646
vt 0.275519 0.606765
vt 0.302476 0.703292
vt 0.282846 0.657648
vt 0.274939 0.598115
vt 0.283983 0.601736
vt 0.302611 0.697424
vt 0.312504 0.700882
vt 0.297790 0.693229
vt 0.295172 0.664831
vt 0.283879 0.603958
vt 0.314759 0.592529
vt 0.339279 0.638688
vt 0.331740 0.587693
vt 0.307841 0.634310
vt 0.314613 0.700423
vt 0.346029 0.586602
vt 0.296132 0.571740
vt 0.355122 0.588636
vt 0.355626 0.633797
vt 0.358477 0.593359
vt 0.346278 0.672006
vt 0.346782 0.684227
vt 0.339549 0.684054
vt 0.355623 0.627010
vt 0.347597 0.606565
vt 0.354034 0.578349
vt 0.325245 0.695227
vt 0.332881 0.606957
vt 0.316856 0.621527
vt 0.298867 0.609886
vt 0.306112 0.531631
vt 0.332082 0.545810
vt 0.306417 0.543235
vt 0.325589 0.532963
vt 0.298654 0.534465
vt 0.287755 0.548578
vt 0.319727 0.710207
vt 0.331472 0.705599
vt 0.339539 0.693830
vt 0.314531 0.671721
vt 0.330110 0.686733
vt 0.313991 0.577429
vt 0.292350 0.569039
vt 0.322556 0.560847
vt 0.342395 0.568644
vt 0.344688 0.540238
vt 0.353842 0.560979
vt 0.346235 0.548755
vt 0.332678 0.532899
vt 0.341101 0.546926
vt 0.298037 0.542266
vt 0.321534 0.547875
vt 0.285099 0.554212
vt 0.273146 0.575577
vt 0.280033 0.565663
vt 0.279226 0.554631
vt 0.306326 0.616695
vt 0.296012 0.597210
vt 0.314779 0.623186
vt 0.303583 0.534235
vt 0.291283 0.576217
vt 0.298384 0.569805
vt 0.299099 0.603419
vt 0.287082 0.627385
vt 0.294663 0.640036
vt 0.321058 0.547526
vt 0.322812 0.564070
vt 0.330179 0.599983
vt 0.313752 0.546110
vt 0.294128 0.646890
vt 0.305626 0.636583
vt 0.314154 0.532240
vt 0.290345 0.633437
vt 0.283126 0.625830
vt 0.316033 0.595378
vt 0.304453 0.615914
vt 0.316347 0.612998
vt 0.325800 0.614294
vt 0.295891 0.560660
vt 0.307100 0.594512
vt 0.308445 0.578219
vt 0.319629 0.597983
vt 0.302546 0.555314
vt 0.320005 0.608068
vt 0.292233 0.593811
vt 0.283117 0.608550
vt 0.307223 0.611716
vt 0.281729 0.592838
vt 0.302973 0.638147
vt 0.280127 0.633720
vt 0.323909 0.618268
vt 0.327213 0.595308
vt 0.279295 0.613429
vt 0.299231 0.651809
vt 0.315841 0.664073
vt 0.326163 0.648140
vt 0.305055 0.631321
vt 0.309860 0.631908
vt 0.322264 0.614002
vt 0.287298 0.624949
vt 0.305379 0.623714
vt 0.322865 0.583974
vt 0.324614 0.567541
vt 0.315370 0.540210
vt 0.311249 0.577110
vt 0.294056 0.536424
vt 0.298046 0.579704
vt 0.321021 0.648060
vt 0.330884 0.646152
vt 0.292825 0.639924
vt 0.296727 0.627807
vt 0.314897 0.610641
vt 0.281496 0.642390
vt 0.280688 0.626147
vt 0.299317 0.656195
vt 0.305503 0.534103
vt 0.298109 0.605970
vt 0.293421 0.660375
vt 0.278335 0.545233
vt 0.289629 0.531878
vt 0.270270 0.567480
vt 0.280992 0.590857
vt 0.316463 0.602013
vt 0.335459 0.631176
vt 0.328416 0.595428
vt 0.330374 0.608567
vt 0.269067 0.610672
vt 0.272858 0.608566
vt 0.278205 0.632310
vt 0.281395 0.609122
vt 0.277904 0.626489
vt 0.295568 0.601981
vt 0.287919 0.649122
vt 0.288432 0.623648
vt 0.284595 0.630601
vt 0.294792 0.584928
vt 0.302071 0.610956
vt 0.286104 0.606528
vt 0.306942 0.633372
vt 0.308719 0.603159
vt 0.303799 0.631088
vt 0.331645 0.645409
vt 0.315322 0.643257
vt 0.306788 0.702770
vt 0.296097 0.711173
vt 0.295633 0.697630
vt 0.299821 0.681052
vt 0.312988 0.669884
vt 0.290262 0.646581
vt 0.297707 0.645714
vt 0.289276 0.667037
vt 0.288565 0.666079
vt 0.325247 0.680816
vt 0.315197 0.685707
vt 0.326837 0.690701
vt 0.334322 0.664977
vt 0.333492 0.639610
vt 0.329462 0.624958
vt 0.318469 0.669742
vt 0.315483 0.700285
vt 0.314149 0.701506
vt 0.314077 0.643337
vt 0.321421 0.688773
vt 0.327803 0.664171
vt 0.323416 0.655935
vt 0.327535 0.634037
vt 0.304341 0.619798
vt 0.298003 0.679052
vt 0.304826 0.706170
vt 0.307429 0.676608
vt 0.313269 0.662678
vt 0.298821 0.653185
vt 0.292599 0.650529
vt 0.310174 0.589553
vt 0.304838 0.583189
vt 0.300630 0.642005
vt 0.288044 0.602828
vt 0.294946 0.602139
vt 0.306847 0.655881
vt 0.310751 0.664193
vt 0.323941 0.588124
vt 0.308684 0.578394
vt 0.314080 0.583849
vt 0.332587 0.605646
vt 0.318155 0.612887
vt 0.354567 0.618853
vt 0.355598 0.643877
vt 0.350064 0.611559
vt 0.340577 0.687285
vt 0.325431 0.698807
vt 0.320368 0.712353
vt 0.287626 0.612945
vt 0.281318 0.623452
vt 0.280549 0.586375
vt 0.304585 0.624029
vt 0.291286 0.594167
vt 0.304011 0.586799
vt 0.326679 0.619900
vt 0.317340 0.594496
vt 0.301114 0.672716
vt 0.300705 0.697449
vt 0.310694 0.684638
vt 0.293447 0.669064
vt 0.289222 0.686330
vt 0.277928 0.597671
vt 0.279255 0.615238
vt 0.294634 0.619220
vt 0.299520 0.630829
vt 0.300289 0.706238
vt 0.306344 0.694420
vt 0.307793 0.705520
vt 0.286978 0.581119
vt 0.293137 0.631101
vt 0.309575 0.632313
vt 0.333564 0.641126
vt 0.345751 0.612045
vt 0.347434 0.651532
vt 0.330496 0.617743
vt 0.317164 0.623293
vt 0.337009 0.592486
vt 0.326265 0.599836
vt 0.347040 0.652645
vt 0.339005 0.653003
vt 0.296993 0.598660
vt 0.316685 0.632516
vt 0.297081 0.672316
vt 0.325000 0.647366
vt 0.310965 0.668831
vt 0.326522 0.699689
vt 0.297450 0.603087
vt 0.289669 0.609861
vt 0.282730 0.611715
vt 0.339400 0.615718
vt 0.344724 0.632759
vt 0.336098 0.615068
vt 0.334586 0.632463
vt 0.325786 0.605153
vt 0.319758 0.600360
vt 0.317629 0.605889
vt 0.309250 0.602798
vt 0.333061 0.605386
vt 0.313029 0.620607
vt 0.320141 0.613116
vt 0.301771 0.610856
vt 0.318726 0.635547
vt 0.318069 0.601415
vt 0.302005 0.603605
vt 0.334497 0.633398
vt 0.333609 0.617315
vt 0.326064 0.599531
vt 0.293020 0.604238
vt 0.329048 0.606797
vt 0.343547 0.631372
vt 0.288697 0.604213
vt 0.277700 0.623167
vt 0.275550 0.641134
vt 0.282542 0.617356
vt 0.288197 0.617713
vt 0.279127 0.639628
vt 0.292069 0.640250
vt 0.297120 0.622509
vt 0.309730 0.638285
vt 0.280678 0.625148
vt 0.274560 0.641731
vt 0.322260 0.620281
vt 0.313050 0.616959
vt 0.297754 0.608400
vt 0.327258 0.633468
vt 0.309377 0.632782
vt 0.300199 0.618794
vt 0.295116 0.623707
vt 0.291885 0.638678
vt 0.284562 0.639437
vt 0.309292 0.694955
vt 0.313642 0.701023
vt 0.322865 0.695060
vt 0.307901 0.683858
vt 0.325606 0.681496
vt 0.318031 0.705767
vt 0.332402 0.691683
vt 0.337222 0.679598
vt 0.335280 0.697595
vt 0.341953 0.689765
vt 0.344552 0.678039
vt 0.310872 0.705971
vt 0.323538 0.704320
vt 0.337677 0.696234
vt 0.342494 0.688560
vt 0.346714 0.676737
vt 0.339808 0.676719
vt 0.325465 0.696903
vt 0.332228 0.688972
vt 0.325970 0.677877
vt 0.314126 0.690914
vt 0.303476 0.699663
vt 0.312369 0.679402
vt 0.298828 0.681298
vt 0.294870 0.693652
vt 0.285006 0.683641
vt 0.289558 0.702307
vt 0.286116 0.695284
vt 0.282504 0.696389
vt 0.278211 0.685376
vt 0.284438 0.697007
vt 0.280777 0.686124
vt 0.304581 0.707155
vt 0.290339 0.703110
vt 0.298743 0.702648
vt 0.294309 0.696496
vt 0.291547 0.685550
vt 0.300545 0.638194
vt 0.284740 0.640934
vt 0.278856 0.647906
vt 0.300362 0.635897
vt 0.318693 0.634143
vt 0.340440 0.633821
vt 0.340229 0.633447
vt 0.327426 0.636413
vt 0.349559 0.611583
vt 0.338211 0.606905
vt 0.347186 0.622605
vt 0.344358 0.603496
vt 0.337669 0.599442
vt 0.350824 0.634652
vt 0.351811 0.625436
vt 0.345840 0.645606
vt 0.349464 0.635465
vt 0.339631 0.625006
vt 0.339595 0.624193
vt 0.345721 0.644880
vt 0.349803 0.614338
vt 0.337785 0.600523
vt 0.298677 0.541087
vt 0.306964 0.529264
vt 0.305949 0.717136
vt 0.321158 0.674150
vt 0.321824 0.673721
vt 0.320881 0.681264
vt 0.320215 0.681692
vt 0.321263 0.691421
vt 0.320597 0.691850
vt 0.322759 0.698542
vt 0.322093 0.698971
vt 0.322922 0.690927
vt 0.323607 0.696873
vt 0.322540 0.680770
vt 0.324714 0.701261
vt 0.325040 0.697941
vt 0.324049 0.701690
vt 0.328255 0.700650
vt 0.328581 0.697330
vt 0.327557 0.701086
vt 0.329948 0.697302
vt 0.329203 0.697749
vt 0.329747 0.695812
vt 0.330837 0.689772
vt 0.330057 0.690227
vt 0.329681 0.680069
vt 0.330459 0.679614
vt 0.330138 0.689681
vt 0.329757 0.679524
vt 0.329012 0.672482
vt 0.328266 0.672929
vt 0.328915 0.673682
vt 0.328105 0.679723
vt 0.327646 0.672508
vt 0.328487 0.689880
vt 0.324105 0.673120
vt 0.324563 0.680335
vt 0.324946 0.690492
vt 0.322774 0.674742
vt 0.323551 0.670366
vt 0.322885 0.670794
vt 0.327086 0.669756
vt 0.326373 0.670195
vt 0.297822 0.679170
vt 0.299314 0.686189
vt 0.298627 0.686051
vt 0.297135 0.679032
vt 0.299697 0.696346
vt 0.299010 0.696208
vt 0.298070 0.703854
vt 0.298757 0.703991
vt 0.297110 0.702573
vt 0.297340 0.696430
vt 0.296958 0.686274
vt 0.296349 0.707363
vt 0.295781 0.704235
vt 0.297036 0.707501
vt 0.292820 0.708273
vt 0.292250 0.705145
vt 0.293539 0.708404
vt 0.291670 0.705823
vt 0.290904 0.705702
vt 0.290990 0.704150
vt 0.290268 0.698787
vt 0.289466 0.698672
vt 0.289879 0.688631
vt 0.289079 0.688516
vt 0.290147 0.698284
vt 0.289763 0.688127
vt 0.289970 0.680880
vt 0.290737 0.681002
vt 0.290155 0.682019
vt 0.291404 0.687618
vt 0.291316 0.680323
vt 0.291786 0.697775
vt 0.294846 0.679414
vt 0.294934 0.686709
vt 0.295317 0.696866
vt 0.296277 0.680442
vt 0.295185 0.676468
vt 0.295872 0.676605
vt 0.291662 0.677376
vt 0.292396 0.677504
vt 0.349559 0.626890
vt 0.347186 0.637913
vt 0.338211 0.622213
vt 0.344358 0.618804
vt 0.337669 0.614749
vt 0.350824 0.649960
vt 0.351811 0.640743
vt 0.345840 0.660914
vt 0.349464 0.650772
vt 0.339631 0.640313
vt 0.339595 0.639500
vt 0.345721 0.660187
vt 0.349803 0.629645
vt 0.337785 0.615830
vn 0.0000 0.2100 0.9777
vn 0.9777 0.2100 0.0000
vn 0.0000 1.0000 0.0000
vn -0.9777 0.2100 0.0000
vn 0.0000 0.2100 -0.9777
vn -0.5438 -0.6391 0.5438
vn -0.4661 -0.2767 0.8403
vn -0.8403 -0.2767 0.4661
vn -0.4218 0.6203 0.6613
vn -0.3884 0.8357 0.3884
vn -0.6613 0.6203 0.4218
vn -0.5438 -0.6391 -0.5438
vn -0.8403 -0.2767 -0.4661
vn -0.4661 -0.2767 -0.8403
vn -0.3884 0.8357 -0.3884
vn -0.4218 0.6203 -0.6613
vn -0.6613 0.6203 -0.4218
vn 0.5438 -0.6391 0.5438
vn 0.8403 -0.2767 0.4661
vn 0.4661 -0.2767 0.8403
vn 0.3884 0.8357 0.3884
vn 0.4218 0.6203 0.6613
vn 0.6613 0.6203 0.4218
vn 0.5438 -0.6391 -0.5438
vn 0.4661 -0.2767 -0.8403
vn 0.8403 -0.2767 -0.4661
vn 0.3884 0.8357 -0.3884
vn 0.6613 0.6203 -0.4218
vn 0.4218 0.6203 -0.6613
vn 0.0000 -1.0000 0.0000
vn -0.6646 0.5488 0.5072
vn -0.9688 0.2476 0.0077
vn -0.8959 0.1574 0.4155
vn -0.5070 0.8599 -0.0600
vn -0.8613 0.4353 -0.2621
vn -0.9227 -0.0514 -0.3820
vn -0.6296 0.1366 0.7649
vn -0.5122 0.7461 0.4254
vn -0.1544 0.7961 0.5852
vn -0.5965 0.6667 -0.4468
vn -0.5380 0.3500 -0.7669
vn -0.6479 -0.0319 -0.7610
vn -0.0361 -0.2024 -0.9786
vn 0.4749 0.0900 -0.8754
vn 0.2614 -0.2477 -0.9329
vn -0.1635 0.0659 -0.9843
vn -0.0943 0.7799 -0.6187
vn 0.6141 -0.2419 -0.7512
vn -0.3518 -0.3429 -0.8710
vn 0.8757 -0.1784 -0.4487
vn 0.9462 0.1479 -0.2879
vn 0.9977 -0.0653 0.0164
vn 0.7466 0.3823 -0.5445
vn 0.8050 0.5793 0.1281
vn 0.5467 0.5773 0.6064
vn 0.9159 0.2289 0.3297
vn 0.6978 0.1842 0.6922
vn 0.8872 -0.1641 0.4311
vn 0.1589 0.6655 0.7293
vn 0.3497 0.2069 0.9137
vn 0.0326 0.3599 0.9324
vn -0.2800 0.2677 0.9219
vn -0.1233 -0.9793 0.1603
vn 0.2430 -0.7902 0.5626
vn -0.1487 -0.8273 0.5417
vn 0.1255 -0.9365 -0.3275
vn -0.2953 -0.9459 -0.1344
vn -0.5472 -0.7609 0.3488
vn 0.0576 0.9971 -0.0501
vn 0.3656 0.9092 0.1991
vn 0.5444 0.7390 -0.3968
vn -0.0667 0.3604 -0.9304
vn 0.2660 0.5352 -0.8017
vn -0.0188 -0.1089 0.9939
vn -0.4178 -0.3513 0.8379
vn 0.1198 -0.4462 0.8869
vn 0.5406 -0.2766 0.7945
vn 0.5616 -0.8192 -0.1162
vn 0.8881 -0.4441 -0.1186
vn 0.6419 -0.6769 0.3601
vn 0.1998 -0.9690 0.1456
vn 0.5211 -0.6292 -0.5767
vn -0.2712 -0.7561 -0.5957
vn 0.0817 -0.6210 -0.7795
vn -0.6349 -0.5854 -0.5042
vn -0.9521 -0.2839 0.1135
vn -0.7672 -0.3965 0.5041
vn -0.7711 -0.6270 -0.1104
vn -0.2404 0.9316 0.2726
vn -0.8321 0.2547 0.4926
vn -0.1340 0.9814 0.1373
vn -0.4129 -0.7797 -0.4707
vn -0.8658 -0.4895 0.1036
vn -0.2907 -0.8379 -0.4620
vn 0.4546 -0.2590 -0.8522
vn -0.4106 0.3144 -0.8559
vn 0.1614 0.7542 -0.6365
vn 0.8141 -0.5224 -0.2535
vn 0.8324 -0.1031 -0.5445
vn 0.9931 0.1016 -0.0586
vn 0.2807 -0.5384 -0.7946
vn -0.0558 0.9982 0.0236
vn 0.6519 0.7319 -0.1983
vn 0.4110 -0.9011 -0.1378
vn -0.4533 0.7407 0.4958
vn -0.8057 0.4054 0.4319
vn 0.8391 0.0191 -0.5436
vn 0.7824 0.1276 -0.6096
vn -0.1238 0.5847 0.8017
vn 0.5994 0.6337 0.4890
vn -0.8762 -0.2548 0.4091
vn -0.6014 -0.0225 0.7987
vn 0.4344 -0.5669 -0.7000
vn 0.1097 -0.1962 0.9744
vn -0.3286 -0.5978 0.7312
vn 0.6940 0.6396 -0.3306
vn 0.0033 -0.6660 -0.7459
vn -0.3063 -0.3592 -0.8816
vn -0.6154 0.6788 0.4007
vn -0.7433 -0.6016 -0.2925
vn 0.1935 0.9340 0.3003
vn -0.8814 0.4417 0.1675
vn -0.8048 0.5727 -0.1560
vn 0.4706 0.8400 -0.2701
vn 0.7079 -0.3068 0.6362
vn -0.9704 -0.0879 0.2252
vn -0.3416 0.6496 -0.6792
vn 0.2400 0.9707 -0.0088
vn 0.6057 0.5243 -0.5986
vn 0.2291 0.9644 0.1320
vn 0.5837 0.8019 0.1274
vn 0.8946 0.3934 0.2119
vn -0.8515 0.0193 -0.5240
vn -0.0586 -0.0805 -0.9950
vn 0.7296 -0.6317 -0.2620
vn 0.8737 -0.3853 0.2969
vn 0.6009 -0.7689 -0.2185
vn 0.3219 -0.7972 -0.5107
vn -0.0959 -0.7798 -0.6187
vn -0.2201 -0.8055 -0.5502
vn 0.4916 0.7827 0.3818
vn 0.8293 0.5350 0.1612
vn -0.0268 0.9964 0.0801
vn 0.1733 0.6222 0.7634
vn 0.8139 0.0829 0.5750
vn -0.8303 0.5569 0.0229
vn -0.5528 0.8313 -0.0582
vn -0.1798 0.9322 0.3141
vn 0.2087 -0.9156 0.3438
vn 0.1712 -0.3023 0.9377
vn -0.5096 0.8535 -0.1088
vn -0.7014 -0.6065 -0.3745
vn -0.3677 -0.9207 0.1309
vn -0.9244 -0.3814 -0.0034
vn -0.7993 -0.4319 -0.4178
vn 0.2946 -0.6793 -0.6721
vn 0.9977 0.0570 -0.0380
vn 0.9845 -0.1724 0.0330
vn 0.7755 -0.4196 -0.4718
vn -0.9678 0.0699 0.2420
vn -0.9707 0.1787 -0.1604
vn -0.5547 0.8260 -0.0998
vn -0.5206 -0.1978 0.8306
vn -0.5759 0.6149 0.5386
vn -0.4716 -0.6579 -0.5872
vn -0.7513 0.6107 -0.2503
vn -0.7855 -0.0734 -0.6145
vn -0.9954 0.0926 -0.0259
vn -0.4059 -0.8675 -0.2876
vn -0.1752 -0.4445 -0.8784
vn -0.8824 -0.4333 -0.1831
vn -0.5147 -0.4638 -0.7211
vn -0.5452 -0.3051 -0.7808
vn -0.4929 -0.5409 -0.6816
vn 0.6863 -0.2305 0.6898
vn -0.1303 -0.0555 0.9899
vn 0.6222 -0.5493 0.5577
vn 0.1841 0.7082 0.6816
vn -0.5610 0.8228 -0.0910
vn -0.6526 0.5002 0.5691
vn -0.2849 0.0738 0.9557
vn 0.5493 -0.1846 0.8150
vn -0.7999 -0.3375 0.4962
vn -0.2898 -0.5672 0.7709
vn -0.7648 0.6108 -0.2049
vn -0.9656 0.1828 0.1852
vn 0.2759 0.6489 -0.7091
vn -0.4072 0.8852 -0.2249
vn 0.4111 0.9074 -0.0872
vn 0.9233 0.3735 0.0890
vn 0.8784 -0.3000 -0.3722
vn 0.6050 -0.7360 0.3037
vn 0.9910 -0.1245 0.0496
vn 0.7214 0.5567 -0.4119
vn 0.7192 0.6294 0.2942
vn 0.7983 -0.5598 0.2223
vn -0.0005 0.8470 0.5316
vn 0.3799 0.3136 0.8703
vn 0.2207 0.0771 -0.9723
vn 0.4184 -0.4428 -0.7930
vn 0.3119 -0.8298 0.4627
vn -0.3170 0.7957 -0.5161
vn 0.0027 0.7020 -0.7121
vn 0.3399 0.6844 -0.6451
vn 0.8837 0.1880 -0.4287
vn 0.8869 0.2635 -0.3796
vn -0.4386 -0.6793 -0.5883
vn -0.5647 0.5974 -0.5695
vn 0.2874 -0.8788 -0.3810
vn 0.2266 -0.9683 0.1052
vn -0.5569 0.6545 0.5114
vn -0.4871 0.7917 0.3687
vn -0.3749 0.2613 -0.8895
vn -0.7552 -0.6139 0.2296
vn -0.2811 -0.8600 0.4258
vn 0.3021 0.8446 -0.4421
vn 0.6303 0.6399 -0.4396
vn -0.4966 0.0047 0.8679
vn -0.4445 0.4192 0.7917
vn 0.6884 -0.6824 0.2460
vn 0.2148 -0.9542 0.2083
vn -0.0272 -0.9697 -0.2428
vn 0.8529 -0.0631 0.5182
vn 0.7394 0.1838 0.6477
vn 0.8716 -0.3948 -0.2905
vn 0.9620 0.2260 0.1534
vn 0.9002 -0.2847 0.3295
vn 0.8287 0.5366 -0.1591
vn 0.4478 0.5626 -0.6950
vn 0.2803 0.9544 -0.1025
vn -0.5172 0.2235 0.8262
vn -0.7449 0.6241 0.2358
vn -0.7766 -0.5518 0.3040
vn 0.1945 0.6485 0.7360
vn -0.3766 -0.2717 0.8856
vn 0.1593 -0.5324 0.8314
vn 0.6630 0.5600 0.4968
vn 0.7543 -0.3690 0.5431
vn -0.6278 -0.2739 -0.7286
vn -0.5108 0.4676 -0.7214
vn -0.0488 0.0969 -0.9941
vn -0.8985 -0.4109 -0.1547
vn -0.9860 0.1293 0.1056
vn -0.9374 -0.1622 -0.3080
vn -0.9001 0.3285 -0.2862
vn -0.7943 0.4478 -0.4105
vn -0.4198 0.9045 -0.0753
vn -0.5803 0.8144 0.0052
vn -0.2476 0.3918 0.8861
vn -0.2291 0.7816 0.5802
vn -0.4755 -0.8509 -0.2233
vn -0.1520 0.9761 0.1554
vn 0.1258 0.9588 0.2547
vn 0.2020 -0.2543 -0.9458
vn 0.5212 -0.6065 -0.6004
vn 0.7503 0.0901 -0.6550
vn -0.1489 -0.6093 -0.7789
vn -0.7093 -0.4730 -0.5226
vn 0.5008 -0.8640 -0.0517
vn -0.1983 -0.8360 -0.5117
vn 0.5362 0.5190 0.6657
vn 0.0979 0.5959 0.7971
vn -0.7187 -0.3720 -0.5875
vn -0.9663 -0.2558 -0.0273
vn -0.7102 -0.3194 0.6273
vn -0.2967 -0.4714 0.8305
vn -0.2678 -0.2453 0.9317
vn 0.5567 0.6117 0.5621
vn -0.3338 -0.8852 0.3241
vn -0.6639 -0.5672 0.4874
vn -0.7636 -0.6426 0.0633
vn 0.8222 -0.5605 -0.0988
vn 0.9697 -0.2350 0.0671
vn 0.7700 -0.5198 0.3700
vn 0.6717 -0.2202 0.7073
vn 0.5553 -0.6593 0.5070
vn 0.2008 -0.9424 0.2673
vn 0.3099 -0.5920 0.7439
vn -0.0648 -0.8447 0.5312
vn 0.6472 -0.7610 0.0440
vn 0.0589 -0.4744 -0.8783
vn 0.2877 -0.6107 -0.7377
vn -0.2094 -0.6743 -0.7081
vn 0.2471 -0.1772 -0.9527
vn 0.1409 -0.9134 -0.3819
vn -0.1859 -0.8811 -0.4348
vn 0.6592 -0.2269 -0.7169
vn 0.6622 -0.5206 -0.5389
vn 0.3012 -0.9530 -0.0342
vn -0.3677 -0.8953 -0.2515
vn 0.5416 -0.7505 -0.3786
vn 0.9291 -0.2603 -0.2628
vn -0.4749 -0.8800 -0.0102
vn -0.9172 -0.3957 0.0466
vn -0.9661 -0.0835 -0.2442
vn -0.7872 -0.5253 -0.3230
vn -0.6096 -0.5162 -0.6016
vn -0.8581 -0.1110 -0.5013
vn -0.5121 -0.0868 -0.8545
vn -0.3588 -0.4205 -0.8333
vn -0.0204 -0.1238 -0.9921
vn -0.8529 -0.3207 0.4120
vn -0.9953 -0.0631 0.0737
vn 0.4120 -0.3472 0.8425
vn 0.1132 -0.4511 0.8853
vn -0.3911 -0.4901 0.7790
vn 0.4942 -0.1979 0.8466
vn -0.0036 -0.2144 0.9767
vn -0.3282 -0.1777 0.9278
vn -0.5087 -0.2128 0.8342
vn -0.5102 -0.1002 0.8542
vn -0.7024 -0.0921 0.7058
vn -0.0648 0.6310 -0.7731
vn 0.0532 0.9028 -0.4268
vn 0.2688 0.7309 -0.6273
vn -0.1054 0.2847 -0.9528
vn 0.3651 0.2337 -0.9011
vn 0.1595 0.9776 -0.1370
vn 0.5546 0.5836 -0.5932
vn 0.7155 0.1884 -0.6727
vn 0.5069 0.8341 -0.2175
vn 0.8085 0.5304 -0.2550
vn 0.9286 0.1451 -0.3414
vn 0.0261 0.9815 0.1895
vn 0.2600 0.9598 0.1061
vn 0.5714 0.8050 0.1593
vn 0.8295 0.4950 0.2587
vn 0.9831 0.1397 0.1185
vn 0.7874 0.1378 0.6009
vn 0.3118 0.8126 0.4924
vn 0.5576 0.5233 0.6445
vn 0.4096 0.1689 0.8965
vn 0.0778 0.5762 0.8136
vn -0.1415 0.8382 0.5268
vn 0.0077 0.1569 0.9876
vn -0.3644 0.2422 0.8992
vn -0.4317 0.6022 0.6716
vn -0.7533 0.2653 0.6018
vn -0.3920 0.9030 0.1756
vn -0.6302 0.6490 0.4262
vn -0.7371 0.6680 0.1023
vn -0.9424 0.3091 0.1277
vn -0.7015 0.6592 -0.2708
vn -0.8702 0.3191 -0.3753
vn -0.0764 0.9964 -0.0368
vn -0.3944 0.9047 -0.1609
vn -0.2059 0.9064 -0.3688
vn -0.4453 0.6476 -0.6183
vn -0.5686 0.2993 -0.7662
vn -0.2646 -0.1239 -0.9564
vn -0.7182 -0.0828 -0.6909
vn -0.8908 0.0135 0.4543
vn -0.2466 -0.1624 0.9554
vn 0.2256 -0.1946 0.9546
vn 0.8719 -0.2051 0.4447
vn 0.8377 -0.2167 -0.5012
vn 0.4830 -0.1798 -0.8570
vn 0.7464 -0.5357 -0.3948
vn 0.2371 -0.4371 -0.8676
vn 0.4939 -0.0170 -0.8693
vn 0.4318 -0.9000 -0.0592
vn 0.2963 -0.8858 -0.3571
vn 0.8339 0.4045 -0.3755
vn 0.9591 -0.0033 0.2830
vn 0.2517 0.2995 -0.9203
vn 0.7233 0.6859 0.0805
vn 0.5602 0.3847 0.7336
vn 0.0949 0.0730 -0.9928
vn -0.0135 -0.0435 0.9990
vn -0.0647 0.1320 0.9891
vn 0.6001 -0.3703 0.7090
vn -0.0475 -0.1183 0.9918
vn -0.1006 -0.1400 0.9850
vn -0.6958 -0.6902 0.1986
vn -0.0554 -0.9649 0.2568
vn 0.0698 0.9866 -0.1475
vn -0.4990 0.8666 -0.0045
vn 0.0916 0.7477 0.6577
vn 0.1124 -0.9788 0.1715
vn 0.7354 0.6745 0.0647
vn -0.7880 -0.5998 0.1391
vn -0.7001 -0.5998 0.3875
vn -0.8660 -0.1285 0.4832
vn -0.9699 -0.1266 0.2078
vn -0.8326 0.2423 0.4980
vn -0.9333 0.2807 0.2240
vn -0.5846 0.6825 0.4386
vn -0.6694 0.7178 0.1916
vn -0.3486 0.1495 0.9253
vn -0.2834 0.4793 0.8306
vn -0.3762 -0.1574 0.9131
vn -0.0701 0.9373 0.3415
vn 0.1432 0.5644 0.8130
vn -0.1561 0.9833 0.0935
vn 0.4283 0.8803 0.2042
vn 0.5476 0.5027 0.6689
vn 0.3957 0.9176 -0.0386
vn 0.8477 0.5281 0.0502
vn 0.8173 0.5508 -0.1689
vn 0.8186 0.3505 0.4551
vn 0.9966 0.0818 -0.0073
vn 0.9645 0.1113 -0.2396
vn 0.9310 -0.2619 -0.2544
vn 0.9662 -0.2570 -0.0206
vn 0.8691 0.0316 0.4937
vn 0.8459 -0.2247 0.4837
vn 0.7383 -0.6744 0.0021
vn 0.7052 -0.6747 -0.2178
vn 0.7392 -0.5263 0.4202
vn 0.5373 -0.2018 0.8189
vn 0.4442 -0.6438 0.6231
vn 0.5590 0.0376 0.8283
vn 0.0346 -0.6433 0.7648
vn 0.1950 -0.1840 0.9634
vn 0.2179 0.0697 0.9735
vn -0.3702 -0.4851 0.7922
vn -0.2385 -0.9337 0.2669
vn -0.3293 -0.9441 0.0167
vn 0.2623 -0.9561 0.1304
vn 0.2237 -0.9680 -0.1139
vn 0.6682 -0.7308 0.1391
vn 0.9317 -0.2978 0.2078
vn 0.8292 -0.2810 0.4832
vn 0.5817 -0.7152 0.3875
vn 0.9684 0.1096 0.2240
vn 0.8625 0.0897 0.4980
vn 0.6971 0.5671 0.4386
vn 0.7868 0.5867 0.1916
vn 0.3644 0.4210 0.8306
vn 0.3697 0.0848 0.9253
vn 0.3421 -0.2221 0.9131
vn 0.2363 0.9097 0.3415
vn -0.0401 0.5809 0.8130
vn 0.3291 0.9396 0.0935
vn -0.2643 0.9426 0.2042
vn -0.4490 0.5924 0.6689
vn -0.2255 0.9735 -0.0386
vn -0.7058 0.6879 -0.1689
vn -0.7398 0.6710 0.0502
vn -0.7428 0.4910 0.4551
vn -0.9291 0.2818 -0.2396
vn -0.9660 0.2584 -0.0073
vn -0.9628 -0.0914 -0.2544
vn -0.9966 -0.0804 -0.0206
vn -0.8494 0.1863 0.4937
vn -0.8725 -0.0701 0.4837
vn -0.8469 -0.5317 0.0021
vn -0.8144 -0.5380 -0.2178
vn -0.8213 -0.3858 0.4202
vn -0.5647 -0.1026 0.8189
vn -0.5521 -0.5541 0.6231
vn -0.5433 0.1368 0.8283
vn -0.1489 -0.6268 0.7648
vn -0.2248 -0.1462 0.9634
vn -0.2019 0.1075 0.9735
vn 0.2776 -0.5434 0.7922
vn 0.0679 -0.9613 0.2669
vn 0.1554 -0.9877 0.0167
vn -0.4288 -0.8939 0.1304
vn -0.3929 -0.9125 -0.1139
vn -0.8399 -0.3725 -0.3948
vn -0.4871 0.0839 -0.8693
vn -0.3211 -0.3796 -0.8676
vn -0.6061 -0.7932 -0.0592
vn -0.4705 -0.8069 -0.3571
vn -0.7340 0.5659 -0.3755
vn -0.9397 0.1921 0.2830
vn -0.1854 0.3445 -0.9203
vn -0.5684 0.8188 0.0805
vn -0.4701 0.4907 0.7336
vn -0.0781 0.0908 -0.9928
vn 0.0043 -0.0454 0.9990
vn 0.0902 0.1161 0.9891
vn -0.6629 -0.2403 0.7090
vn 0.0224 -0.1255 0.9918
vn 0.0700 -0.1576 0.9850
vn -0.3094 -0.9354 0.1715
vn -0.5826 0.8102 0.0647
usemtl KayKit_Texture_A
s 1
f 15/1/1 17/2/1 4/3/1 2/4/1
f 21/5/2 23/6/2 18/7/2 14/8/2
f 22/9/3 10/10/3 5/11/3 16/12/3
f 3/13/4 6/14/4 12/15/4 8/16/4
f 9/17/5 11/18/5 24/19/5 20/20/5
f 1/21/6 2/4/7 3/13/8
f 4/3/9 5/11/10 6/14/11
f 7/22/12 8/16/13 9/17/14
f 10/10/15 11/18/16 12/15/17
f 13/23/18 14/8/19 15/1/20
f 16/12/21 17/2/22 18/7/23
f 19/24/24 20/20/25 21/5/26
f 22/9/27 23/6/28 24/19/29
f 7/22/12 1/21/6 3/13/8 8/16/13
f 2/4/7 4/3/9 6/14/11 3/13/8
f 5/11/10 10/10/15 12/15/17 6/14/11
f 11/18/16 9/17/14 8/16/13 12/15/17
f 19/24/24 7/22/12 9/17/14 20/20/25
f 10/10/15 22/9/27 24/19/29 11/18/16
f 23/6/28 21/5/26 20/20/25 24/19/29
f 13/23/18 19/24/24 21/5/26 14/8/19
f 22/9/27 16/12/21 18/7/23 23/6/28
f 17/2/22 15/1/20 14/8/19 18/7/23
f 1/21/6 13/23/18 15/1/20 2/4/7
f 16/12/21 5/11/10 4/3/9 17/2/22
f 7/22/30 19/24/30 13/23/30 1/21/30
f 59/25/31 57/26/32 56/27/33
f 59/25/31 30/28/34 60/29/35
f 60/29/35 58/30/36 57/26/32
f 59/25/31 56/27/33 40/31/37
f 30/28/34 27/32/38 25/33/39
f 61/34/40 41/35/41 60/29/35
f 60/29/35 42/36/42 58/30/36
f 54/37/43 44/38/44 55/39/45
f 41/35/41 62/40/46 42/36/42
f 34/41/47 61/34/40 30/28/34
f 55/39/45 44/38/44 45/42/48
f 62/40/46 54/37/43 53/43/49
f 50/44/50 64/45/51 51/46/52
f 45/42/48 64/45/51 50/44/50
f 44/38/44 43/47/53 64/45/51
f 68/48/54 69/49/55 65/50/56
f 65/50/56 69/49/55 46/51/57
f 51/46/52 65/50/56 52/52/58
f 69/49/55 66/53/59 47/54/60
f 48/55/61 25/33/39 49/56/62
f 69/49/55 47/54/60 46/51/57
f 25/33/39 27/32/38 59/25/31
f 67/57/63 36/58/64 37/59/65
f 32/60/66 67/57/63 29/61/67
f 29/61/67 67/57/63 26/62/68
f 81/63/69 80/64/70 38/65/71
f 80/64/70 69/49/55 68/48/54
f 63/66/72 82/67/73 44/38/44
f 41/35/41 61/34/40 34/41/47
f 80/64/70 25/33/39 66/53/59
f 71/68/74 39/69/75 70/70/76
f 35/71/77 47/54/60 70/70/76
f 47/54/60 48/55/61 71/68/74
f 48/55/61 49/56/62 71/68/74
f 39/69/75 26/62/68 37/59/65
f 36/58/64 70/70/76 37/59/65
f 72/72/78 73/73/79 74/74/80
f 32/60/66 72/72/78 33/75/81
f 31/76/82 72/72/78 32/60/66
f 31/76/82 50/44/50 73/73/79
f 52/52/58 46/51/57 35/71/77
f 74/74/80 35/71/77 36/58/64
f 33/75/81 74/74/80 36/58/64
f 75/77/83 76/78/84 32/60/66
f 28/79/85 53/43/49 75/77/83
f 53/43/49 54/37/43 76/78/84
f 76/78/84 45/42/48 31/76/82
f 56/27/33 78/80/86 77/81/87
f 40/31/37 77/81/87 39/69/75
f 57/26/32 58/30/36 78/80/86
f 58/30/36 42/36/42 28/79/85
f 26/62/68 79/82/88 29/61/67
f 63/66/72 34/41/47 82/67/73
f 38/65/71 82/67/73 34/41/47
f 64/45/51 43/47/53 68/48/54
f 94/83/89 93/84/90 106/85/91
f 115/86/92 83/87/93 104/88/94
f 119/89/95 120/90/96 103/91/97
f 97/92/98 117/93/99 99/94/100
f 104/88/94 112/95/101 115/86/92
f 103/91/97 101/96/102 91/97/103
f 96/98/104 115/86/92 112/95/101
f 93/84/90 105/99/105 95/100/106
f 91/97/103 118/101/107 90/102/108
f 106/85/91 88/103/109 107/104/110
f 110/105/111 85/106/112 93/84/90
f 118/101/107 84/107/113 90/102/108
f 85/106/112 92/108/114 88/103/109
f 111/109/115 92/108/114 85/106/112
f 109/110/116 118/101/107 91/97/103
f 93/84/90 83/87/93 110/105/111
f 102/111/117 121/112/118 120/90/96
f 93/84/90 94/83/89 105/99/105
f 93/84/90 86/113/119 106/85/91
f 83/87/93 113/114/120 104/88/94
f 101/96/102 105/99/105 87/115/121
f 113/114/120 120/90/96 121/112/122
f 100/116/123 101/96/102 103/91/97
f 99/94/100 98/117/124 107/104/110
f 84/107/113 117/93/99 112/95/101
f 94/83/89 98/117/124 109/110/116
f 97/92/98 112/95/101 117/93/99
f 97/92/98 108/118/125 96/98/104
f 114/119/126 83/87/93 93/84/90
f 106/85/91 107/104/110 98/117/124
f 119/89/95 90/102/108 84/107/113
f 103/91/97 90/102/108 119/89/95
f 110/105/111 111/109/115 85/106/112
f 124/120/127 145/121/128 147/122/129
f 135/123/130 127/124/131 133/125/132
f 159/126/133 124/120/127 160/127/134
f 122/128/135 152/129/136 129/130/137
f 148/131/138 156/132/139 153/133/140
f 140/134/141 133/125/132 138/135/142
f 149/136/143 150/137/144 127/124/131
f 126/138/145 127/124/131 150/137/144
f 131/139/146 134/140/147 128/141/148
f 132/142/149 129/130/137 152/129/136
f 152/129/136 151/143/150 132/142/149
f 130/144/151 128/141/148 145/121/128
f 131/139/146 130/144/151 159/126/133
f 141/145/152 139/146/153 157/147/154
f 140/134/141 135/123/130 133/125/132
f 153/133/140 141/145/152 136/148/155
f 146/149/156 122/128/135 148/131/138
f 155/150/157 123/151/158 154/152/159
f 147/122/129 145/121/128 138/135/142
f 157/147/154 144/153/160 158/154/161
f 122/128/135 154/152/159 123/151/158
f 143/155/162 135/123/130 134/140/147
f 158/154/161 143/155/162 134/140/147
f 157/147/154 137/156/163 144/153/160
f 144/153/160 137/156/163 142/157/164
f 136/148/155 125/158/165 153/133/140
f 132/142/149 156/132/139 129/130/137
f 138/135/142 123/151/158 155/150/157
f 146/149/156 160/127/134 147/122/129
f 147/122/129 155/150/157 154/152/159
f 149/136/143 142/157/164 150/137/144
f 159/126/133 125/158/165 136/148/155
f 158/154/161 136/148/155 157/147/154
f 184/159/166 165/160/167 206/161/168
f 167/162/169 165/160/167 194/163/170
f 165/160/167 192/164/171 206/161/168
f 185/165/172 207/166/173 195/167/174
f 162/168/175 208/169/176 207/166/177
f 175/170/178 177/171/179 188/172/180
f 175/170/178 170/173/181 169/174/182
f 170/173/181 191/175/183 172/176/184
f 177/171/179 197/177/185 182/178/186
f 161/179/187 164/180/188 171/181/189
f 178/182/190 162/168/175 190/183/191
f 168/184/192 190/183/191 162/168/175
f 173/185/193 174/186/194 189/187/195
f 196/188/196 173/185/193 169/174/182
f 178/182/190 180/189/197 187/190/198
f 186/191/199 190/183/191 166/192/200
f 172/176/184 169/174/182 170/173/181
f 169/174/182 172/176/184 202/193/201
f 202/193/201 196/188/196 169/174/182
f 177/171/179 181/194/202 197/177/185
f 179/195/203 163/196/204 181/194/202
f 164/180/188 180/189/197 171/181/189
f 203/197/205 196/188/196 185/165/206
f 195/167/174 183/198/207 185/165/172
f 161/179/187 178/182/190 190/183/191
f 174/186/194 173/185/193 203/197/205
f 192/164/171 165/160/167 167/162/169
f 181/194/202 163/196/204 193/199/208
f 199/200/209 200/201/210 167/162/169
f 183/198/211 164/180/188 193/199/212
f 193/199/208 198/202/213 165/160/167
f 166/192/200 194/163/170 186/191/199
f 206/161/168 192/164/171 205/203/214
f 205/203/214 167/162/169 204/204/215
f 196/188/196 202/193/201 207/166/177
f 182/178/186 197/177/185 206/161/168
f 183/198/216 193/199/208 163/196/204
f 201/205/217 183/198/216 163/196/204
f 196/188/196 207/166/177 185/165/206
f 197/177/185 184/159/166 206/161/168
f 202/193/201 204/204/215 200/201/210
f 208/169/176 195/167/218 207/166/177
f 209/206/219 195/167/218 208/169/176
f 180/189/197 208/169/176 187/190/198
f 209/206/219 180/189/197 183/198/211
f 168/184/192 207/166/177 200/201/210
f 166/192/200 199/200/209 194/163/170
f 164/180/188 161/179/187 198/202/213
f 245/207/220 227/208/221 254/209/222
f 245/207/220 248/210/223 226/211/224
f 223/212/225 246/213/226 233/214/227
f 258/215/228 236/216/229 210/217/230
f 225/218/231 222/219/232 216/220/233
f 222/219/232 225/218/231 217/221/234
f 224/222/235 217/221/234 225/218/231
f 238/223/236 224/222/235 216/220/233
f 226/211/224 229/224/237 217/221/234
f 227/208/221 245/207/220 240/225/238
f 229/224/237 226/211/224 248/210/223
f 215/226/239 243/227/240 212/228/241
f 243/227/240 211/229/242 244/230/243
f 221/231/244 222/219/232 242/232/245
f 230/233/246 222/219/232 231/234/247
f 241/235/248 257/236/249 218/237/250
f 216/220/233 221/231/244 219/238/251
f 241/235/248 218/237/250 210/217/230
f 216/220/233 227/208/221 238/223/236
f 217/221/234 228/239/252 222/219/232
f 231/234/247 228/239/252 220/240/253
f 242/232/245 230/233/246 221/231/244
f 238/223/236 226/211/224 217/221/234
f 250/241/254 223/212/225 235/242/255
f 247/243/256 223/212/225 250/241/254
f 214/244/257 250/241/254 235/242/255
f 245/207/220 233/214/227 248/210/223
f 215/226/239 253/245/258 211/229/242
f 212/228/241 247/243/256 250/241/254
f 256/246/259 234/247/260 235/242/255
f 252/248/261 232/249/262 220/240/253
f 252/248/261 229/224/237 246/213/226
f 246/213/226 248/210/223 233/214/227
f 256/246/259 254/209/222 234/247/260
f 234/247/260 255/250/263 253/245/258
f 253/245/258 255/250/263 251/251/264
f 237/252/265 239/253/266 249/254/267
f 237/252/265 211/229/242 251/251/264
f 251/251/264 211/229/242 253/245/258
f 215/226/239 212/228/241 250/241/254
f 232/249/262 213/255/268 257/236/249
f 259/256/269 260/257/270 272/258/271
f 268/259/272 308/260/273 283/261/274
f 283/261/274 314/262/275 286/263/276
f 279/264/277 262/265/278 261/266/279
f 269/267/280 286/263/276 279/264/277
f 264/268/281 265/269/282 276/270/283
f 263/271/284 265/269/282 264/268/281
f 276/270/283 277/272/285 282/273/286
f 265/269/282 299/274/287 266/275/288
f 277/272/285 278/276/289 281/277/290
f 267/278/291 278/276/289 277/272/285
f 266/275/288 305/279/292 268/259/272
f 268/259/272 269/267/280 267/278/291
f 278/276/289 279/264/277 281/277/290
f 279/264/277 259/256/269 281/277/290
f 261/266/279 259/256/269 279/264/277
f 259/256/269 280/280/293 281/277/290
f 271/281/294 335/282/295 273/283/296
f 273/283/296 281/277/290 280/280/293
f 274/284/297 282/273/286 281/277/290
f 339/285/298 274/284/297 273/283/296
f 274/284/297 344/286/299 275/287/300
f 274/284/297 275/287/300 276/270/283
f 282/273/286 277/272/285 281/277/290
f 275/287/300 347/288/301 264/268/281
f 271/281/294 272/258/271 270/289/302
f 271/281/294 270/289/302 284/290/303
f 272/258/271 260/257/270 270/289/302
f 278/276/289 269/267/280 279/264/277
f 280/280/293 259/256/269 272/258/271
f 269/267/280 283/261/274 286/263/276
f 314/262/275 287/291/304 262/265/278
f 290/292/305 285/293/306 261/266/279
f 314/262/275 316/294/307 287/291/304
f 287/291/304 321/295/308 288/296/309
f 321/295/308 289/297/310 288/296/309
f 289/297/310 325/298/311 327/299/312
f 288/296/309 289/297/310 285/293/306
f 287/291/304 290/292/305 262/265/278
f 286/263/276 314/262/275 262/265/278
f 289/297/310 260/257/270 285/293/306
f 260/257/270 289/297/310 327/299/312
f 291/300/313 292/301/314 294/302/315
f 345/303/316 294/302/315 295/304/317
f 293/305/318 294/302/315 292/301/314
f 297/306/319 298/307/320 295/304/317
f 294/302/315 293/305/318 303/308/321
f 297/306/319 303/308/321 300/309/322
f 298/307/320 300/309/322 304/310/323
f 293/305/318 302/311/324 309/312/325
f 303/308/321 309/312/325 307/313/326
f 300/309/322 307/313/326 310/314/327
f 300/309/322 306/315/328 304/310/323
f 306/315/328 310/314/327 313/316/329
f 307/313/326 309/312/325 315/317/330
f 307/313/326 312/318/331 310/314/327
f 312/318/331 317/319/332 313/316/329
f 315/317/330 319/320/333 312/318/331
f 315/317/330 302/311/324 322/321/334
f 319/320/333 320/322/335 317/319/332
f 320/322/335 319/320/333 324/323/336
f 322/321/334 326/324/337 319/320/333
f 324/323/336 326/324/337 330/325/338
f 322/321/334 302/311/324 328/326/339
f 322/321/334 329/327/340 326/324/337
f 328/326/339 333/328/341 329/327/340
f 329/327/340 332/329/342 330/325/338
f 332/329/342 337/330/343 338/331/344
f 328/326/339 336/332/345 334/333/346
f 333/328/341 334/333/346 337/330/343
f 334/333/346 336/332/345 342/334/347
f 334/333/346 340/335/348 337/330/343
f 338/331/344 340/335/348 343/336/349
f 336/332/345 292/301/314 342/334/347
f 342/334/347 291/300/313 340/335/348
f 336/332/345 302/311/324 293/305/318
f 340/335/348 345/303/316 343/336/349
f 345/303/316 347/288/301 346/337/350
f 344/286/299 345/303/316 346/337/350
f 343/336/349 344/286/299 341/338/351
f 338/331/344 341/338/351 339/285/298
f 335/282/295 338/331/344 339/285/298
f 332/329/342 335/282/295 284/290/303
f 331/339/352 332/329/342 284/290/303
f 327/299/312 330/325/338 331/339/352
f 324/323/336 327/299/312 325/298/311
f 324/323/336 325/298/311 323/340/353
f 320/322/335 323/340/353 321/295/308
f 318/341/354 320/322/335 321/295/308
f 317/319/332 318/341/354 316/294/307
f 314/262/275 317/319/332 316/294/307
f 311/342/355 313/316/329 314/262/275
f 306/315/328 311/342/355 308/260/273
f 304/310/323 308/260/273 305/279/292
f 301/343/356 304/310/323 305/279/292
f 298/307/320 301/343/356 299/274/287
f 296/344/357 298/307/320 299/274/287
f 295/304/317 296/344/357 263/271/284
f 347/288/301 295/304/317 263/271/284
f 284/290/303 270/289/302 331/339/352
f 353/345/358 357/346/359 356/347/360
f 361/348/361 354/349/362 353/345/358
f 351/350/363 352/351/364 353/345/358
f 350/352/365 351/350/363 356/347/360
f 350/352/366 359/353/367 351/350/363
f 348/354/368 350/352/365 356/347/360
f 348/354/368 356/347/360 357/346/359
f 349/355/369 359/353/367 358/356/370
f 349/355/369 360/357/371 359/353/367
f 349/355/369 361/348/372 360/357/371
f 349/355/369 355/358/373 361/348/372
f 59/25/31 60/29/35 57/26/32
f 59/25/31 27/32/38 30/28/34
f 60/29/35 30/28/34 61/34/40
f 60/29/35 41/35/41 42/36/42
f 54/37/43 62/40/46 44/38/44
f 62/40/46 63/66/72 44/38/44
f 42/36/42 62/40/46 53/43/49
f 41/35/41 63/66/72 62/40/46
f 80/64/70 66/53/59 69/49/55
f 51/46/52 64/45/51 65/50/56
f 64/45/51 68/48/54 65/50/56
f 45/42/48 44/38/44 64/45/51
f 52/52/58 65/50/56 46/51/57
f 47/54/60 66/53/59 48/55/61
f 48/55/61 66/53/59 25/33/39
f 49/56/62 25/33/39 59/25/31
f 49/56/62 59/25/31 40/31/37
f 67/57/63 33/75/81 36/58/64
f 32/60/66 33/75/81 67/57/63
f 26/62/68 67/57/63 37/59/65
f 38/65/71 80/64/70 68/48/54
f 34/41/47 81/63/69 38/65/71
f 34/41/47 30/28/34 81/63/69
f 81/63/69 30/28/34 25/33/39
f 80/64/70 81/63/69 25/33/39
f 70/70/76 47/54/60 71/68/74
f 71/68/74 49/56/62 39/69/75
f 36/58/64 35/71/77 70/70/76
f 35/71/77 46/51/57 47/54/60
f 49/56/62 40/31/37 39/69/75
f 70/70/76 39/69/75 37/59/65
f 74/74/80 73/73/79 52/52/58
f 31/76/82 73/73/79 72/72/78
f 31/76/82 45/42/48 50/44/50
f 73/73/79 50/44/50 51/46/52
f 73/73/79 51/46/52 52/52/58
f 74/74/80 52/52/58 35/71/77
f 72/72/78 74/74/80 33/75/81
f 75/77/83 53/43/49 76/78/84
f 29/61/67 28/79/85 75/77/83
f 28/79/85 42/36/42 53/43/49
f 76/78/84 54/37/43 55/39/45
f 76/78/84 55/39/45 45/42/48
f 76/78/84 31/76/82 32/60/66
f 29/61/67 75/77/83 32/60/66
f 77/81/87 78/80/86 26/62/68
f 26/62/68 78/80/86 79/82/88
f 78/80/86 58/30/36 79/82/88
f 26/62/68 39/69/75 77/81/87
f 40/31/37 56/27/33 77/81/87
f 56/27/33 57/26/32 78/80/86
f 79/82/88 58/30/36 28/79/85
f 29/61/67 79/82/88 28/79/85
f 44/38/44 82/67/73 43/47/53
f 38/65/71 43/47/53 82/67/73
f 63/66/72 41/35/41 34/41/47
f 68/48/54 43/47/53 38/65/71
f 110/105/111 89/359/374 111/109/115
f 88/103/109 86/113/119 85/106/112
f 115/86/92 89/359/374 83/87/93
f 109/110/116 117/93/99 118/101/107
f 91/97/103 101/96/102 87/115/121
f 119/89/95 102/111/117 120/90/96
f 89/359/374 110/105/111 83/87/93
f 104/88/94 84/107/113 112/95/101
f 108/118/125 116/360/375 96/98/104
f 91/97/103 87/115/121 109/110/116
f 85/106/112 86/113/119 93/84/90
f 107/104/110 88/103/109 92/108/114
f 86/113/119 88/103/109 106/85/91
f 89/359/374 116/360/375 111/109/115
f 89/359/374 115/86/92 116/360/375
f 103/91/97 91/97/103 90/102/108
f 114/119/126 113/114/120 83/87/93
f 105/99/105 100/116/123 95/100/106
f 113/114/120 100/116/123 120/90/96
f 114/119/126 95/100/106 100/116/123
f 97/92/98 96/98/104 112/95/101
f 84/107/113 118/101/107 117/93/99
f 113/114/120 121/112/118 102/111/117
f 100/116/123 103/91/97 120/90/96
f 113/114/120 102/111/117 104/88/94
f 117/93/99 109/110/116 99/94/100
f 100/116/123 105/99/105 101/96/102
f 94/83/89 106/85/91 98/117/124
f 109/110/116 98/117/124 99/94/100
f 94/83/89 109/110/116 87/115/121
f 97/92/98 99/94/100 108/118/125
f 99/94/100 107/104/110 108/118/125
f 87/115/121 105/99/105 94/83/89
f 96/98/104 116/360/375 115/86/92
f 102/111/117 84/107/113 104/88/94
f 102/111/117 119/89/95 84/107/113
f 92/108/114 111/109/115 108/118/125
f 111/109/115 116/360/375 108/118/125
f 95/100/106 114/119/126 93/84/90
f 107/104/110 92/108/114 108/118/125
f 100/116/123 113/114/120 114/119/126
f 124/120/127 130/144/151 145/121/128
f 148/131/138 122/128/135 129/130/137
f 131/139/146 128/141/148 130/144/151
f 122/128/135 123/151/158 152/129/136
f 139/146/153 132/142/149 151/143/150
f 135/123/130 149/136/143 127/124/131
f 133/125/132 127/124/131 126/138/145
f 131/139/146 159/126/133 158/154/161
f 150/137/144 137/156/163 151/143/150
f 152/129/136 133/125/132 126/138/145
f 159/126/133 136/148/155 158/154/161
f 159/126/133 130/144/151 124/120/127
f 125/158/165 160/127/134 146/149/156
f 126/138/145 150/137/144 151/143/150
f 152/129/136 126/138/145 151/143/150
f 137/156/163 139/146/153 151/143/150
f 153/133/140 156/132/139 141/145/152
f 146/149/156 154/152/159 122/128/135
f 145/121/128 128/141/148 140/134/141
f 147/122/129 138/135/142 155/150/157
f 144/153/160 142/157/164 143/155/162
f 136/148/155 141/145/152 157/147/154
f 160/127/134 124/120/127 147/122/129
f 131/139/146 158/154/161 134/140/147
f 146/149/156 148/131/138 153/133/140
f 140/134/141 138/135/142 145/121/128
f 143/155/162 149/136/143 135/123/130
f 144/153/160 143/155/162 158/154/161
f 157/147/154 139/146/153 137/156/163
f 128/141/148 135/123/130 140/134/141
f 141/145/152 156/132/139 139/146/153
f 125/158/165 146/149/156 153/133/140
f 125/158/165 159/126/133 160/127/134
f 132/142/149 139/146/153 156/132/139
f 150/137/144 142/157/164 137/156/163
f 154/152/159 146/149/156 147/122/129
f 149/136/143 143/155/162 142/157/164
f 152/129/136 123/151/158 133/125/132
f 128/141/148 134/140/147 135/123/130
f 138/135/142 133/125/132 123/151/158
f 148/131/138 129/130/137 156/132/139
f 184/159/166 193/199/208 165/160/167
f 191/175/183 204/204/215 172/176/184
f 204/204/215 191/175/183 205/203/214
f 168/184/192 162/168/175 207/166/177
f 162/168/175 187/190/198 208/169/176
f 189/187/195 176/361/376 175/170/178
f 169/174/182 189/187/195 175/170/178
f 174/186/194 176/361/376 189/187/195
f 175/170/178 176/361/376 177/171/179
f 175/170/178 188/172/180 170/173/181
f 170/173/181 188/172/180 191/175/183
f 178/182/190 187/190/198 162/168/175
f 204/204/215 202/193/201 172/176/184
f 203/197/205 163/196/204 174/186/194
f 178/182/190 171/181/189 180/189/197
f 173/185/193 189/187/195 169/174/182
f 177/171/179 179/195/203 181/194/202
f 177/171/179 176/361/376 179/195/203
f 179/195/203 176/361/376 174/186/194
f 179/195/203 174/186/194 163/196/204
f 182/178/186 191/175/183 188/172/180
f 163/196/204 203/197/205 201/205/217
f 196/188/196 203/197/205 173/185/193
f 177/171/179 182/178/186 188/172/180
f 161/179/187 171/181/189 178/182/190
f 161/179/187 190/183/191 186/191/199
f 194/163/170 199/200/209 167/162/169
f 165/160/167 198/202/213 194/163/170
f 193/199/208 164/180/188 198/202/213
f 191/175/183 182/178/186 206/161/168
f 194/163/170 198/202/213 186/191/199
f 200/201/210 199/200/209 168/184/192
f 204/204/215 167/162/169 200/201/210
f 201/205/217 185/165/206 183/198/216
f 197/177/185 181/194/202 184/159/166
f 184/159/166 181/194/202 193/199/208
f 205/203/214 191/175/183 206/161/168
f 192/164/171 167/162/169 205/203/214
f 207/166/177 202/193/201 200/201/210
f 201/205/217 203/197/205 185/165/206
f 183/198/211 195/167/218 209/206/219
f 180/189/197 209/206/219 208/169/176
f 190/183/191 168/184/192 199/200/209
f 166/192/200 190/183/191 199/200/209
f 198/202/213 161/179/187 186/191/199
f 183/198/211 180/189/197 164/180/188
f 213/255/268 258/215/228 210/217/230
f 235/242/255 234/247/260 214/244/257
f 219/238/251 255/250/263 254/209/222
f 224/222/235 238/223/236 217/221/234
f 238/223/236 227/208/221 240/225/238
f 240/225/238 245/207/220 226/211/224
f 210/217/230 218/237/250 213/255/268
f 244/230/243 241/235/248 243/227/240
f 221/231/244 230/233/246 255/250/263
f 244/230/243 211/229/242 237/252/265
f 243/227/240 215/226/239 211/229/242
f 255/250/263 219/238/251 221/231/244
f 221/231/244 216/220/233 222/219/232
f 230/233/246 242/232/245 222/219/232
f 241/235/248 244/230/243 257/236/249
f 236/216/229 212/228/241 243/227/240
f 254/209/222 227/208/221 219/238/251
f 216/220/233 219/238/251 227/208/221
f 220/240/253 217/221/234 229/224/237
f 220/240/253 228/239/252 217/221/234
f 231/234/247 222/219/232 228/239/252
f 218/237/250 257/236/249 213/255/268
f 252/248/261 220/240/253 229/224/237
f 214/244/257 234/247/260 253/245/258
f 210/217/230 243/227/240 241/235/248
f 236/216/229 243/227/240 210/217/230
f 257/236/249 244/230/243 237/252/265
f 238/223/236 240/225/238 226/211/224
f 216/220/233 224/222/235 225/218/231
f 246/213/226 223/212/225 247/243/256
f 258/215/228 213/255/268 246/213/226
f 256/246/259 245/207/220 254/209/222
f 234/247/260 254/209/222 255/250/263
f 245/207/220 256/246/259 233/214/227
f 212/228/241 236/216/229 247/243/256
f 247/243/256 258/215/228 246/213/226
f 214/244/257 215/226/239 250/241/254
f 233/214/227 256/246/259 223/212/225
f 239/253/377 231/234/247 220/240/253
f 239/253/377 220/240/253 232/249/262
f 251/251/264 255/250/263 230/233/246
f 246/213/226 229/224/237 248/210/223
f 256/246/259 235/242/255 223/212/225
f 251/251/264 230/233/246 239/253/377
f 239/253/377 230/233/246 231/234/247
f 215/226/239 214/244/257 253/245/258
f 252/248/261 246/213/226 213/255/268
f 237/252/265 251/251/264 239/253/266
f 232/249/262 249/254/267 239/253/266
f 257/236/249 237/252/265 249/254/267
f 249/254/267 232/249/262 257/236/249
f 258/215/228 247/243/256 236/216/229
f 232/249/262 252/248/261 213/255/268
f 285/293/306 260/257/270 259/256/269
f 261/266/279 285/293/306 259/256/269
f 279/264/277 286/263/276 262/265/278
f 277/272/285 265/269/282 267/278/291
f 264/268/281 347/288/301 263/271/284
f 263/271/284 296/344/357 265/269/282
f 276/270/283 265/269/282 277/272/285
f 265/269/282 296/344/357 299/274/287
f 265/269/282 266/275/288 267/278/291
f 266/275/288 299/274/287 301/343/356
f 278/276/289 267/278/291 269/267/280
f 266/275/288 301/343/356 305/279/292
f 266/275/288 268/259/272 267/278/291
f 268/259/272 305/279/292 308/260/273
f 268/259/272 283/261/274 269/267/280
f 283/261/274 311/342/355 314/262/275
f 272/258/271 273/283/296 280/280/293
f 283/261/274 308/260/273 311/342/355
f 271/281/294 284/290/303 335/282/295
f 272/258/271 271/281/294 273/283/296
f 273/283/296 274/284/297 281/277/290
f 273/283/296 335/282/295 339/285/298
f 274/284/297 276/270/283 282/273/286
f 339/285/298 341/338/351 274/284/297
f 274/284/297 341/338/351 344/286/299
f 275/287/300 344/286/299 346/337/350
f 275/287/300 264/268/281 276/270/283
f 275/287/300 346/337/350 347/288/301
f 270/289/302 260/257/270 327/299/312
f 290/292/305 261/266/279 262/265/278
f 290/292/378 287/291/378 288/296/378
f 290/292/305 288/296/309 285/293/306
f 287/291/304 316/294/307 318/341/354
f 287/291/304 318/341/354 321/295/308
f 321/295/308 323/340/353 289/297/310
f 323/340/353 325/298/311 289/297/310
f 345/303/316 291/300/313 294/302/315
f 294/302/315 297/306/319 295/304/317
f 294/302/315 303/308/321 297/306/319
f 298/307/320 297/306/319 300/309/322
f 303/308/321 293/305/318 309/312/325
f 300/309/322 303/308/321 307/313/326
f 300/309/322 310/314/327 306/315/328
f 307/313/326 315/317/330 312/318/331
f 310/314/327 312/318/331 313/316/329
f 317/319/332 312/318/331 319/320/333
f 309/312/325 302/311/324 315/317/330
f 315/317/330 322/321/334 319/320/333
f 324/323/336 319/320/333 326/324/337
f 330/325/338 326/324/337 329/327/340
f 322/321/334 328/326/339 329/327/340
f 329/327/340 333/328/341 332/329/342
f 328/326/339 302/311/324 336/332/345
f 332/329/342 333/328/341 337/330/343
f 333/328/341 328/326/339 334/333/346
f 334/333/346 342/334/347 340/335/348
f 338/331/344 337/330/343 340/335/348
f 336/332/345 293/305/318 292/301/314
f 342/334/347 292/301/314 291/300/313
f 340/335/348 291/300/313 345/303/316
f 344/286/299 343/336/349 345/303/316
f 338/331/344 343/336/349 341/338/351
f 332/329/342 338/331/344 335/282/295
f 331/339/352 330/325/338 332/329/342
f 324/323/336 330/325/338 327/299/312
f 320/322/335 324/323/336 323/340/353
f 318/341/354 317/319/332 320/322/335
f 314/262/275 313/316/329 317/319/332
f 306/315/328 313/316/329 311/342/355
f 304/310/323 306/315/328 308/260/273
f 298/307/320 304/310/323 301/343/356
f 296/344/357 295/304/317 298/307/320
f 347/288/301 345/303/316 295/304/317
f 331/339/352 270/289/302 327/299/312
f 359/353/367 360/357/371 352/351/364
f 361/348/361 355/358/379 354/349/362
f 353/345/358 354/349/362 357/346/359
f 360/357/371 361/348/361 353/345/358
f 353/345/358 352/351/364 360/357/371
f 351/350/363 353/345/358 356/347/360
f 359/353/367 352/351/364 351/350/363
f 350/352/366 358/356/380 359/353/367
f 363/362/381 395/363/382 364/364/383 362/365/384
f 364/364/383 367/366/385 365/367/386 362/365/384
f 369/368/387 366/369/388 365/367/386 367/366/385
f 367/366/385 368/370/389 370/371/390 369/368/387
f 392/372/391 368/370/389 367/366/385 364/364/383
f 371/373/392 369/368/387 370/371/390 372/374/393
f 371/373/392 373/375/394 366/369/388 369/368/387
f 374/376/395 371/373/392 372/374/393 376/377/396
f 377/378/397 373/375/394 371/373/392 374/376/395
f 377/378/397 374/376/395 375/379/398 378/380/399
f 374/376/395 376/377/396 401/381/400 375/379/398
f 378/380/399 375/379/398 381/382/401 379/383/402
f 380/384/403 379/383/402 381/382/401 383/385/404
f 382/386/405 385/387/406 383/385/404 381/382/401
f 381/382/401 375/379/398 401/381/400 382/386/405
f 384/388/407 400/389/408 380/384/403 383/385/404
f 383/385/404 385/387/406 386/390/409 384/388/407
f 387/391/410 388/392/411 386/390/409 385/387/406
f 389/393/412 387/391/410 385/387/406 382/386/405
f 391/394/413 388/392/411 387/391/410 390/395/414
f 387/391/410 389/393/412 393/396/415 390/395/414
f 390/395/414 392/372/391 394/397/416 391/394/413
f 390/395/414 393/396/415 368/370/389 392/372/391
f 376/377/396 372/374/393 393/396/415 389/393/412
f 393/396/415 372/374/393 370/371/390 368/370/389
f 364/364/383 395/363/382 394/397/416 392/372/391
f 396/398/417 391/394/413 394/397/416 395/363/382
f 397/399/418 396/398/417 395/363/382 363/362/381
f 396/398/417 398/400/419 388/392/411 391/394/413
f 397/399/418 399/401/420 398/400/419 396/398/417
f 398/400/419 399/401/420 400/389/408 384/388/407
f 398/400/419 384/388/407 386/390/409 388/392/411
f 389/393/412 382/386/405 401/381/400 376/377/396
f 403/402/421 402/403/422 404/404/423 435/405/424
f 404/404/423 402/403/422 405/406/425 407/407/426
f 409/408/427 407/407/426 405/406/425 406/409/428
f 407/407/426 409/408/427 410/410/429 408/411/430
f 432/412/431 404/404/423 407/407/426 408/411/430
f 411/413/432 412/414/433 410/410/429 409/408/427
f 411/413/432 409/408/427 406/409/428 413/415/434
f 414/416/435 416/417/436 412/414/433 411/413/432
f 417/418/437 414/416/435 411/413/432 413/415/434
f 417/418/437 418/419/438 415/420/439 414/416/435
f 414/416/435 415/420/439 441/421/440 416/417/436
f 418/419/438 419/422/441 421/423/442 415/420/439
f 420/424/443 423/425/444 421/423/442 419/422/441
f 422/426/445 421/423/442 423/425/444 425/427/446
f 421/423/442 422/426/445 441/421/440 415/420/439
f 424/428/447 423/425/444 420/424/443 440/429/448
f 423/425/444 424/428/447 426/430/449 425/427/446
f 427/431/450 425/427/446 426/430/449 428/432/451
f 429/433/452 422/426/445 425/427/446 427/431/450
f 431/434/453 430/435/454 427/431/450 428/432/451
f 427/431/450 430/435/454 433/436/455 429/433/452
f 430/435/454 431/434/453 434/437/456 432/412/431
f 430/435/454 432/412/431 408/411/430 433/436/455
f 416/417/436 429/433/452 433/436/455 412/414/433
f 433/436/455 408/411/430 410/410/429 412/414/433
f 404/404/423 432/412/431 434/437/456 435/405/424
f 436/438/457 435/405/424 434/437/456 431/434/453
f 437/439/458 403/402/421 435/405/424 436/438/457
f 436/438/457 431/434/453 428/432/451 438/440/459
f 437/439/458 436/438/457 438/440/459 439/441/460
f 438/440/459 424/428/447 440/429/448 439/441/460
f 438/440/459 428/432/451 426/430/449 424/428/447
f 429/433/452 416/417/436 441/421/440 422/426/445
f 447/442/461 450/443/462 451/444/463
f 455/445/464 447/442/461 448/446/465
f 445/447/466 447/442/461 446/448/467
f 444/449/468 450/443/462 445/447/466
f 444/449/469 445/447/466 453/450/470
f 442/451/471 450/443/462 444/449/468
f 442/451/471 451/444/463 450/443/462
f 443/452/472 452/453/473 453/450/470
f 443/452/472 453/450/470 454/454/474
f 443/452/472 454/454/474 455/445/475
f 443/452/472 455/445/475 449/455/476
f 453/450/470 446/448/467 454/454/474
f 455/445/464 448/446/465 449/455/477
f 447/442/461 451/444/463 448/446/465
f 454/454/474 447/442/461 455/445/464
f 447/442/461 454/454/474 446/448/467
f 445/447/466 450/443/462 447/442/461
f 453/450/470 445/447/466 446/448/467
f 444/449/469 453/450/470 452/453/478
