# Blender v3.4.1 OBJ File: 'MixedBag1_Export.blend'
# www.blender.org
mtllib instantcamera_green.mtl
o instantcamera_green
v -0.218058 0.226124 0.127185
v -0.218058 0.184881 0.237875
v 0.218058 0.226124 0.127185
v 0.218058 0.184881 0.237875
v 0.218058 0.000000 -0.104954
v 0.218058 0.000000 0.104954
v 0.218058 0.000000 0.237875
v -0.218058 0.000000 -0.104954
v -0.218058 0.000000 0.104954
v -0.218058 0.000000 0.237875
v -0.218058 0.300228 -0.123569
v 0.218058 0.300228 -0.123569
v -0.218058 0.432708 -0.079409
v 0.218058 0.432708 -0.079409
v -0.218058 0.432708 0.127185
v 0.218058 0.432708 0.127185
v -0.107959 0.335234 -0.139638
v -0.127698 0.354441 -0.140338
v -0.082696 0.375099 -0.158845
v -0.127698 0.468141 -0.140338
v -0.107959 0.487348 -0.139638
v -0.082696 0.447483 -0.158845
v 0.107959 0.335234 -0.139638
v 0.082696 0.375099 -0.158845
v 0.127698 0.354441 -0.140338
v 0.107959 0.487348 -0.139638
v 0.127698 0.468141 -0.140338
v 0.082696 0.447483 -0.158845
v -0.164793 0.354441 -0.006732
v -0.144860 0.335234 -0.006732
v -0.144860 0.487348 -0.006732
v -0.164793 0.468141 -0.006732
v 0.144860 0.335234 -0.006732
v 0.164793 0.354441 -0.006732
v 0.164793 0.468141 -0.006732
v 0.144860 0.487348 -0.006732
v -0.103353 0.354441 -0.158845
v 0.103353 0.354441 -0.158845
v -0.103353 0.468141 -0.158845
v 0.103353 0.468141 -0.158845
v -0.061881 0.390871 -0.128430
v 0.061881 0.390871 -0.128430
v -0.061881 0.431711 -0.128430
v 0.061881 0.431711 -0.128430
v 0.276722 0.000000 0.104954
v 0.276452 0.000000 -0.104954
v 0.276930 0.300228 -0.123569
v 0.271704 0.112249 -0.044083
v 0.271704 0.112249 0.044083
v 0.278118 0.226124 0.127185
v -0.271704 0.112249 -0.044082
v -0.276452 0.000000 -0.104954
v -0.276722 0.000000 0.104954
v -0.271704 0.112249 0.044082
v -0.278118 0.226124 0.127185
v -0.276930 0.300228 -0.123569
v -0.218058 0.000000 0.301192
v -0.197763 0.053793 0.326067
v -0.300379 0.022231 0.237875
v -0.276878 0.000000 0.237875
v -0.258522 0.000000 0.282544
v -0.274548 0.022231 0.300236
v -0.278164 0.184881 0.237875
v -0.300379 0.161764 0.237875
v -0.197763 0.097457 0.326067
v -0.218058 0.160785 0.302543
v -0.274548 0.138591 0.300236
v -0.259386 0.167882 0.283498
v 0.276878 0.000000 0.237875
v 0.300379 0.022231 0.237875
v 0.197763 0.053793 0.326067
v 0.218058 0.000000 0.301192
v 0.258522 0.000000 0.282544
v 0.274548 0.022231 0.300236
v 0.218058 0.160785 0.302543
v 0.197763 0.097457 0.326067
v 0.300379 0.161764 0.237875
v 0.278164 0.184881 0.237875
v 0.274548 0.138591 0.300236
v 0.259386 0.167882 0.283498
v -0.170286 0.055301 -0.248346
v -0.218058 0.000000 -0.230508
v -0.218058 0.236371 -0.231093
v -0.170286 0.169100 -0.248346
v 0.218058 0.000000 -0.230508
v 0.170286 0.055301 -0.248346
v 0.170286 0.169100 -0.248346
v 0.218058 0.236371 -0.231093
v 0.218058 0.497782 -0.057718
v 0.218058 0.522540 -0.026606
v 0.300379 0.432708 -0.056458
v 0.277192 0.432708 -0.079409
v 0.274068 0.496229 -0.035334
v 0.258486 0.478558 -0.064126
v 0.278070 0.432708 0.127185
v 0.300379 0.432708 0.104954
v 0.218058 0.522540 0.104954
v 0.218058 0.498292 0.127185
v 0.258896 0.479022 0.127185
v 0.274068 0.496229 0.104954
v -0.218058 0.498292 0.127185
v -0.218058 0.522540 0.104954
v -0.300379 0.432708 0.104954
v -0.278070 0.432708 0.127185
v -0.274068 0.496229 0.104954
v -0.258896 0.479022 0.127185
v -0.277192 0.432708 -0.079409
v -0.300379 0.432708 -0.056458
v -0.218058 0.522540 -0.026606
v -0.218058 0.497782 -0.057718
v -0.258486 0.478558 -0.064126
v -0.274068 0.496229 -0.035334
v 0.218058 0.000000 -0.208011
v 0.218058 0.000000 -0.166820
v -0.218058 0.000000 -0.166820
v -0.218058 0.000000 -0.208011
v -0.218058 0.250475 -0.207344
v -0.218058 0.274023 -0.167693
v 0.218058 0.274023 -0.167693
v 0.218058 0.250475 -0.207344
v -0.251127 0.000000 -0.207498
v -0.276187 0.000000 -0.166894
v -0.300379 0.022231 -0.167047
v -0.276248 0.022231 -0.207216
v -0.276466 0.226621 -0.207062
v -0.300379 0.250193 -0.167292
v -0.276692 0.274100 -0.167565
v -0.252425 0.250650 -0.207050
v 0.276248 0.022231 -0.207216
v 0.300379 0.022231 -0.167047
v 0.276187 0.000000 -0.166894
v 0.251127 0.000000 -0.207498
v 0.252425 0.250650 -0.207050
v 0.276692 0.274100 -0.167565
v 0.300379 0.250193 -0.167292
v 0.276466 0.226621 -0.207062
v 0.300379 0.022231 -0.104954
v 0.300379 0.022231 0.104954
v -0.300379 0.022231 0.104954
v -0.300379 0.022231 -0.104954
v 0.300379 0.287164 -0.104954
v 0.300379 0.211268 0.104954
v -0.300379 0.211268 0.104954
v -0.300379 0.287164 -0.104954
v 0.300379 0.063186 -0.065705
v 0.300379 0.063186 0.065705
v -0.300379 0.063186 0.065705
v -0.300379 0.063186 -0.065705
v 0.300379 0.204490 -0.065705
v 0.300379 0.204490 0.065705
v -0.300379 0.204491 0.065705
v -0.300379 0.204491 -0.065705
v 0.218058 0.022231 0.326067
v -0.218058 0.022231 0.326067
v -0.218058 0.129018 0.326067
v 0.218058 0.129018 0.326067
v 0.177515 0.064119 0.292884
v -0.177515 0.064119 0.292884
v -0.177515 0.087130 0.292884
v 0.177515 0.087130 0.292884
v 0.130267 0.359011 0.187617
v 0.081463 0.359011 0.228298
v 0.105388 0.282442 0.187617
v 0.065905 0.311128 0.228298
v 0.040255 0.235120 0.187617
v 0.025173 0.281535 0.228298
v -0.040255 0.235120 0.187617
v -0.025173 0.281535 0.228298
v -0.105388 0.282442 0.187617
v -0.065905 0.311128 0.228298
v -0.130267 0.359011 0.187617
v -0.081463 0.359011 0.228298
v -0.105388 0.435580 0.187617
v -0.065905 0.406893 0.228298
v -0.040255 0.482902 0.187617
v -0.025173 0.436486 0.228298
v 0.040255 0.482902 0.187617
v 0.025173 0.436486 0.228298
v 0.105388 0.435580 0.187617
v 0.065905 0.406893 0.228298
v 0.093560 0.291036 0.228298
v 0.115646 0.359011 0.228298
v 0.035737 0.249025 0.228298
v -0.035737 0.249025 0.228298
v -0.093560 0.291036 0.228298
v -0.115646 0.359011 0.228298
v -0.093560 0.426986 0.228298
v -0.035737 0.468997 0.228298
v 0.035737 0.468997 0.228298
v 0.093560 0.426986 0.228298
v -0.000000 0.359011 0.200114
v 0.056462 0.317989 0.190419
v 0.069791 0.359011 0.190419
v 0.021567 0.292636 0.190419
v -0.021567 0.292636 0.190419
v -0.056462 0.317989 0.190419
v -0.069791 0.359011 0.190419
v -0.056462 0.400033 0.190419
v -0.021567 0.425386 0.190419
v 0.021567 0.425386 0.190419
v 0.056462 0.400033 0.190419
v 0.130267 0.359011 0.113513
v 0.105388 0.282442 0.113513
v 0.040255 0.235120 0.113513
v -0.040255 0.235120 0.113513
v -0.105388 0.282442 0.113513
v -0.130267 0.359011 0.113513
v -0.105388 0.435580 0.113513
v -0.040255 0.482902 0.113513
v 0.040255 0.482902 0.113513
v 0.105388 0.435580 0.113513
v 0.253747 0.299727 0.073519
v 0.200081 0.299727 0.192444
v 0.243498 0.268183 0.073519
v 0.216665 0.248688 0.073519
v 0.183497 0.248688 0.073519
v 0.156664 0.268183 0.073519
v 0.146415 0.299727 0.073519
v 0.156664 0.331271 0.073519
v 0.183497 0.350767 0.073519
v 0.216665 0.350767 0.073519
v 0.243498 0.331271 0.073519
v 0.243498 0.268183 0.178243
v 0.253747 0.299727 0.178243
v 0.216665 0.248688 0.178243
v 0.183497 0.248688 0.178243
v 0.156664 0.268183 0.178243
v 0.146415 0.299727 0.178243
v 0.156664 0.331271 0.178243
v 0.183497 0.350767 0.178243
v 0.216665 0.350767 0.178243
v 0.243498 0.331271 0.178243
v 0.229714 0.278197 0.192444
v 0.236710 0.299727 0.192444
v 0.211400 0.264891 0.192444
v 0.188762 0.264891 0.192444
v 0.170448 0.278197 0.192444
v 0.163452 0.299727 0.192444
v 0.170448 0.321257 0.192444
v 0.188762 0.334563 0.192444
v 0.211400 0.334563 0.192444
v 0.229714 0.321257 0.192444
v -0.253922 0.316370 0.102401
v -0.253922 0.354583 0.102401
v -0.142297 0.316370 0.102401
v -0.142297 0.354583 0.102401
v -0.253922 0.316370 0.147327
v -0.253922 0.354583 0.147327
v -0.142297 0.316370 0.147327
v -0.142297 0.354583 0.147327
v -0.241326 0.402595 0.102401
v -0.253922 0.415191 0.102401
v -0.253922 0.468290 0.102401
v -0.241326 0.480885 0.102401
v -0.142297 0.415191 0.102401
v -0.154892 0.402595 0.102401
v -0.154892 0.480885 0.102401
v -0.142297 0.468290 0.102401
v -0.241326 0.402595 0.166966
v -0.241326 0.415191 0.179562
v -0.253922 0.415191 0.166966
v -0.241326 0.480885 0.166966
v -0.253922 0.468290 0.166966
v -0.241326 0.468290 0.179562
v -0.154892 0.402595 0.166966
v -0.142297 0.415191 0.166966
v -0.154892 0.415191 0.179562
v -0.154892 0.480885 0.166966
v -0.154892 0.468290 0.179562
v -0.142297 0.468290 0.166966
v -0.163675 0.354583 0.167421
v -0.163675 0.316370 0.167421
v -0.232544 0.316370 0.167421
v -0.232544 0.354583 0.167421
v 0.057784 0.473139 0.082350
v 0.057784 0.473139 0.032721
v 0.202757 0.473139 0.082350
v 0.202757 0.473139 0.032721
v 0.057784 0.531486 0.082350
v 0.057784 0.531486 0.032721
v 0.202757 0.531486 0.082350
v 0.202757 0.531486 0.032721
v 0.174992 0.557584 0.032721
v 0.174992 0.557584 0.082350
v 0.085549 0.557584 0.082350
v 0.085549 0.557584 0.032721
v -0.218058 0.022231 -0.248346
v 0.218058 0.022231 -0.248346
v 0.218058 0.202170 -0.248346
v -0.218058 0.202170 -0.248346
vt 0.397838 0.302443
vt 0.406438 0.302443
vt 0.400522 0.302443
vt 0.478806 0.408837
vt 0.478771 0.405017
vt 0.470199 0.405006
vt 0.470199 0.408837
vt 0.470199 0.366753
vt 0.478980 0.366753
vt 0.478973 0.396956
vt 0.470199 0.396956
vt 0.470199 0.302443
vt 0.406438 0.302443
vt 0.470199 0.302443
vt 0.470199 0.302443
vt 0.475034 0.302443
vt 0.470199 0.302443
vt 0.478776 0.302443
vt 0.478799 0.302443
vt 0.470199 0.302443
vt 0.397657 0.366753
vt 0.406438 0.366753
vt 0.406438 0.396956
vt 0.397664 0.396956
vt 0.478698 0.302443
vt 0.478736 0.302443
vt 0.470199 0.302443
vt 0.470199 0.302443
vt 0.476115 0.302443
vt 0.390803 0.421867
vt 0.390839 0.417955
vt 0.387293 0.414376
vt 0.387293 0.419911
vt 0.398179 0.353956
vt 0.398179 0.336944
vt 0.406438 0.336944
vt 0.406438 0.352556
vt 0.482234 0.336944
vt 0.482234 0.364581
vt 0.482234 0.357344
vt 0.482234 0.336944
vt 0.401603 0.302443
vt 0.406438 0.302443
vt 0.406438 0.302443
vt 0.470199 0.406545
vt 0.476169 0.403727
vt 0.406438 0.406470
vt 0.406438 0.396956
vt 0.400527 0.403659
vt 0.470199 0.396956
vt 0.470199 0.406470
vt 0.414225 0.385513
vt 0.414225 0.402137
vt 0.419649 0.402137
vt 0.419649 0.385513
vt 0.459497 0.436195
vt 0.454102 0.436195
vt 0.422535 0.436195
vt 0.417140 0.436195
vt 0.426228 0.352241
vt 0.450409 0.352241
vt 0.447366 0.349935
vt 0.429271 0.349935
vt 0.456988 0.385513
vt 0.456988 0.402137
vt 0.462412 0.402137
vt 0.462412 0.385513
vt 0.470199 0.352556
vt 0.470199 0.336944
vt 0.478458 0.336944
vt 0.478458 0.353956
vt 0.406438 0.391973
vt 0.397650 0.391973
vt 0.400396 0.389488
vt 0.467232 0.316692
vt 0.409405 0.316692
vt 0.412365 0.315182
vt 0.464271 0.315182
vt 0.406438 0.302443
vt 0.397861 0.302443
vt 0.394403 0.375677
vt 0.394403 0.364581
vt 0.394403 0.396956
vt 0.394403 0.396956
vt 0.411273 0.310528
vt 0.411273 0.327166
vt 0.465364 0.327166
vt 0.465364 0.310528
vt 0.399617 0.314418
vt 0.394666 0.314418
vt 0.390905 0.317746
vt 0.399617 0.317746
vt 0.394403 0.336944
vt 0.394403 0.357344
vt 0.394403 0.336944
vt 0.464912 0.412306
vt 0.470057 0.414444
vt 0.473656 0.410847
vt 0.464912 0.407186
vt 0.470199 0.441340
vt 0.470199 0.441340
vt 0.406438 0.441340
vt 0.406438 0.441340
vt 0.400467 0.403727
vt 0.397793 0.396956
vt 0.478806 0.377587
vt 0.470199 0.377587
vt 0.478844 0.396956
vt 0.406438 0.405006
vt 0.406438 0.408837
vt 0.406438 0.377587
vt 0.397831 0.377587
vt 0.398249 0.406243
vt 0.398249 0.406243
vt 0.470199 0.388451
vt 0.476241 0.389488
vt 0.470199 0.391973
vt 0.478987 0.391973
vt 0.470199 0.398003
vt 0.406438 0.398003
vt 0.406438 0.406545
vt 0.469862 0.314418
vt 0.464912 0.314418
vt 0.464912 0.317746
vt 0.473623 0.317746
vt 0.482234 0.375677
vt 0.482234 0.396956
vt 0.482234 0.396956
vt 0.470199 0.399501
vt 0.406438 0.399501
vt 0.406438 0.401563
vt 0.470199 0.401563
vt 0.406438 0.388451
vt 0.406438 0.302443
vt 0.394403 0.336944
vt 0.394403 0.370272
vt 0.394403 0.336944
vt 0.397866 0.405017
vt 0.397831 0.408837
vt 0.476110 0.403659
vt 0.406438 0.302443
vt 0.397901 0.302443
vt 0.397939 0.302443
vt 0.478980 0.398003
vt 0.478388 0.406243
vt 0.478388 0.406243
vt 0.401413 0.401589
vt 0.475224 0.401589
vt 0.397657 0.398003
vt 0.422535 0.367080
vt 0.419649 0.369888
vt 0.423208 0.369888
vt 0.419649 0.433387
vt 0.423208 0.433387
vt 0.454102 0.367080
vt 0.453429 0.369888
vt 0.456988 0.369888
vt 0.456988 0.433387
vt 0.453429 0.433387
vt 0.423208 0.402137
vt 0.423208 0.385513
vt 0.453429 0.385513
vt 0.453429 0.402137
vt 0.459497 0.367080
vt 0.462412 0.369888
vt 0.462412 0.433387
vt 0.417140 0.367080
vt 0.414225 0.369888
vt 0.414225 0.433387
vt 0.426228 0.388534
vt 0.450409 0.388534
vt 0.426228 0.399116
vt 0.450409 0.399116
vt 0.546492 0.825009
vt 0.546492 0.842630
vt 0.546492 0.842630
vt 0.546492 0.825009
vt 0.450409 0.404159
vt 0.426228 0.404159
vt 0.429271 0.406465
vt 0.447366 0.406465
vt 0.450409 0.367866
vt 0.450409 0.357284
vt 0.447366 0.359590
vt 0.447366 0.365560
vt 0.426228 0.357284
vt 0.426228 0.367866
vt 0.429271 0.365560
vt 0.429271 0.359590
vt 0.473695 0.314418
vt 0.473654 0.314418
vt 0.477236 0.317746
vt 0.477236 0.317746
vt 0.390875 0.314418
vt 0.390834 0.314418
vt 0.387293 0.317746
vt 0.387293 0.317746
vt 0.471099 0.402052
vt 0.464912 0.400990
vt 0.464912 0.396234
vt 0.473369 0.397667
vt 0.464912 0.314418
vt 0.470970 0.314418
vt 0.473369 0.317746
vt 0.464912 0.317746
vt 0.473910 0.404598
vt 0.477236 0.401137
vt 0.473718 0.314418
vt 0.477236 0.317746
vt 0.393430 0.402052
vt 0.390618 0.404598
vt 0.387293 0.401137
vt 0.391160 0.397667
vt 0.390811 0.314418
vt 0.393559 0.314418
vt 0.391160 0.317746
vt 0.387293 0.317746
vt 0.399617 0.400990
vt 0.399617 0.396234
vt 0.399617 0.314418
vt 0.399617 0.317746
vt 0.390625 0.410772
vt 0.387293 0.408548
vt 0.477236 0.408548
vt 0.473904 0.410772
vt 0.390915 0.314418
vt 0.387293 0.317746
vt 0.477236 0.317746
vt 0.473614 0.314418
vt 0.477236 0.419911
vt 0.477236 0.414376
vt 0.473690 0.417955
vt 0.473725 0.421867
vt 0.478738 0.366826
vt 0.478706 0.336944
vt 0.470199 0.336944
vt 0.470199 0.363251
vt 0.397931 0.336944
vt 0.397899 0.366826
vt 0.406438 0.363251
vt 0.406438 0.336944
vt 0.394472 0.414444
vt 0.399617 0.412306
vt 0.399617 0.407186
vt 0.390873 0.410847
vt 0.482234 0.336944
vt 0.482234 0.370272
vt 0.482234 0.336944
vt 0.470964 0.448566
vt 0.464912 0.451444
vt 0.464912 0.455151
vt 0.473297 0.451212
vt 0.464912 0.451521
vt 0.471025 0.448636
vt 0.473297 0.451212
vt 0.464912 0.455151
vt 0.473765 0.441702
vt 0.477236 0.441702
vt 0.473896 0.441702
vt 0.477236 0.441702
vt 0.393503 0.448636
vt 0.399617 0.451521
vt 0.399617 0.455151
vt 0.391232 0.451212
vt 0.399617 0.451444
vt 0.393565 0.448566
vt 0.391232 0.451212
vt 0.399617 0.455151
vt 0.390633 0.441702
vt 0.387293 0.441702
vt 0.390764 0.441702
vt 0.387293 0.441702
vt 0.482234 0.342931
vt 0.482234 0.342931
vt 0.394403 0.342931
vt 0.394403 0.342931
vt 0.482234 0.363590
vt 0.482234 0.363590
vt 0.394403 0.363590
vt 0.394403 0.363590
vt 0.478042 0.350104
vt 0.478042 0.350104
vt 0.398595 0.350104
vt 0.398595 0.350104
vt 0.478042 0.318854
vt 0.478042 0.318854
vt 0.482234 0.332340
vt 0.482234 0.332340
vt 0.398595 0.318854
vt 0.398595 0.318854
vt 0.394403 0.332340
vt 0.394403 0.332340
vt 0.467232 0.341558
vt 0.409405 0.341558
vt 0.409405 0.347942
vt 0.467232 0.347942
vt 0.443111 0.861356
vt 0.443111 0.876667
vt 0.443111 0.876667
vt 0.443111 0.861356
vt 0.409405 0.332317
vt 0.409405 0.325933
vt 0.412365 0.327443
vt 0.412365 0.330807
vt 0.409405 0.372808
vt 0.467232 0.372808
vt 0.464271 0.374318
vt 0.412365 0.374318
vt 0.467232 0.325933
vt 0.467232 0.332317
vt 0.464271 0.330807
vt 0.464271 0.327443
vt 0.457364 0.386181
vt 0.455226 0.386181
vt 0.451997 0.376243
vt 0.453726 0.374987
vt 0.443543 0.370101
vt 0.444204 0.368068
vt 0.433094 0.370101
vt 0.432433 0.368068
vt 0.424640 0.376243
vt 0.422910 0.374987
vt 0.421411 0.386181
vt 0.419273 0.386181
vt 0.424640 0.396120
vt 0.422910 0.397376
vt 0.433094 0.402262
vt 0.432433 0.404295
vt 0.443543 0.402262
vt 0.444204 0.404295
vt 0.447954 0.332306
vt 0.450228 0.339306
vt 0.448522 0.339306
vt 0.446573 0.333309
vt 0.451997 0.396120
vt 0.453726 0.397376
vt 0.453726 0.359362
vt 0.444204 0.352443
vt 0.444204 0.352443
vt 0.453726 0.359362
vt 0.450228 0.370556
vt 0.447954 0.363556
vt 0.451997 0.360618
vt 0.455226 0.370556
vt 0.441999 0.359229
vt 0.443543 0.354476
vt 0.434638 0.359229
vt 0.433094 0.354476
vt 0.428683 0.363556
vt 0.424640 0.360618
vt 0.426408 0.370556
vt 0.421411 0.370556
vt 0.428683 0.377557
vt 0.424640 0.380495
vt 0.434638 0.381884
vt 0.433094 0.386637
vt 0.441999 0.381884
vt 0.443543 0.386637
vt 0.447954 0.377557
vt 0.451997 0.380495
vt 0.441999 0.350634
vt 0.434638 0.350634
vt 0.435165 0.349011
vt 0.441471 0.349011
vt 0.426408 0.339306
vt 0.428683 0.332306
vt 0.430064 0.333309
vt 0.428115 0.339306
vt 0.441999 0.327979
vt 0.441471 0.329602
vt 0.447954 0.346307
vt 0.446573 0.345304
vt 0.428683 0.346307
vt 0.430064 0.345304
vt 0.434638 0.327979
vt 0.435165 0.329602
vt 0.075096 0.125000
vt 0.070089 0.068388
vt 0.070089 0.125000
vt 0.070089 0.033399
vt 0.070089 0.033399
vt 0.070089 0.068388
vt 0.070089 0.125000
vt 0.070089 0.181613
vt 0.070089 0.216601
vt 0.070089 0.216601
vt 0.070089 0.181613
vt 0.453726 0.381751
vt 0.457364 0.370556
vt 0.457364 0.370556
vt 0.453726 0.381751
vt 0.444204 0.388670
vt 0.444204 0.388670
vt 0.432433 0.388670
vt 0.432433 0.388670
vt 0.422910 0.381751
vt 0.422910 0.381751
vt 0.419273 0.370556
vt 0.419273 0.370556
vt 0.422910 0.359362
vt 0.422910 0.359362
vt 0.432433 0.352443
vt 0.432433 0.352443
vt 0.165050 0.167768
vt 0.203700 0.167768
vt 0.203700 0.156126
vt 0.165050 0.156126
vt 0.203700 0.148931
vt 0.165050 0.148931
vt 0.203700 0.148931
vt 0.165050 0.148931
vt 0.203700 0.156126
vt 0.165050 0.156126
vt 0.203700 0.167768
vt 0.165050 0.167768
vt 0.203700 0.179410
vt 0.165050 0.179410
vt 0.203700 0.186605
vt 0.165050 0.186605
vt 0.203700 0.186605
vt 0.165050 0.186605
vt 0.203700 0.179410
vt 0.165050 0.179410
vt 0.193316 0.214643
vt 0.193316 0.206697
vt 0.188075 0.203001
vt 0.188075 0.214643
vt 0.193316 0.201786
vt 0.188075 0.195806
vt 0.193316 0.201786
vt 0.188075 0.195806
vt 0.193316 0.206697
vt 0.188075 0.203001
vt 0.193316 0.214643
vt 0.188075 0.214643
vt 0.193316 0.222589
vt 0.188075 0.226285
vt 0.193316 0.227499
vt 0.188075 0.233480
vt 0.193316 0.227499
vt 0.188075 0.233480
vt 0.193316 0.222589
vt 0.188075 0.226285
vt 0.208941 0.167768
vt 0.208941 0.159822
vt 0.208941 0.167768
vt 0.208941 0.154911
vt 0.208941 0.154911
vt 0.208941 0.159822
vt 0.208941 0.167768
vt 0.208941 0.175714
vt 0.208941 0.180624
vt 0.208941 0.180624
vt 0.208941 0.175714
vt 0.188693 0.828054
vt 0.188693 0.842845
vt 0.188693 0.842845
vt 0.188693 0.828054
vt 0.181400 0.846353
vt 0.144020 0.846353
vt 0.144020 0.846353
vt 0.181400 0.846353
vt 0.181400 0.828054
vt 0.181400 0.842845
vt 0.144020 0.842845
vt 0.144020 0.828054
vt 0.144020 0.828054
vt 0.144020 0.842845
vt 0.181400 0.842845
vt 0.181400 0.828054
vt 0.768554 0.597937
vt 0.768554 0.640718
vt 0.818850 0.640718
vt 0.818850 0.597937
vt 0.818850 0.640718
vt 0.818850 0.597937
vt 0.841347 0.597937
vt 0.841347 0.640718
vt 0.768554 0.640718
vt 0.768554 0.597937
vt 0.185320 0.866489
vt 0.192613 0.869574
vt 0.185320 0.869574
vt 0.185320 0.885666
vt 0.185320 0.882580
vt 0.192613 0.882580
vt 0.185320 0.866489
vt 0.185320 0.869574
vt 0.192613 0.869574
vt 0.185320 0.885666
vt 0.192613 0.882580
vt 0.185320 0.882580
vt 0.147940 0.866489
vt 0.147940 0.869574
vt 0.147940 0.885666
vt 0.147940 0.882580
vt 0.147940 0.866489
vt 0.147940 0.869574
vt 0.147940 0.885666
vt 0.147940 0.882580
vt 0.144020 0.824546
vt 0.181400 0.824546
vt 0.181400 0.824546
vt 0.144020 0.824546
vt 0.841347 0.597937
vt 0.841347 0.640718
vt 0.467962 0.402867
vt 0.467962 0.402867
vt 0.467962 0.411398
vt 0.467962 0.411398
vt 0.446766 0.411398
vt 0.446766 0.411398
vt 0.450826 0.415213
vt 0.450826 0.415213
vt 0.446766 0.402867
vt 0.446766 0.402867
vt 0.463903 0.446463
vt 0.463903 0.446463
vt 0.450826 0.446463
vt 0.450826 0.446463
vt 0.463903 0.415213
vt 0.463903 0.415213
vt 0.411273 0.341778
vt 0.465364 0.341778
vt 0.465364 0.358416
vt 0.411273 0.358416
vn 0.0000 -1.0000 0.0000
vn -0.0000 0.6269 -0.7791
vn 0.0000 0.8598 -0.5106
vn -0.0000 0.6275 -0.7786
vn -0.0000 0.0000 1.0000
vn -0.6948 0.4589 -0.5538
vn -0.6141 0.6032 -0.5090
vn -0.6005 0.5906 -0.5391
vn -0.6955 0.4461 -0.5633
vn -0.7583 0.0000 0.6519
vn -0.7198 0.0000 0.6942
vn -0.2128 0.0000 0.9771
vn -0.2227 0.0000 0.9749
vn 1.0000 -0.0000 0.0000
vn 0.9883 -0.0000 0.1526
vn 0.9808 -0.0000 0.1951
vn 0.0000 0.3162 -0.9487
vn -0.8999 -0.3574 -0.2499
vn -0.9636 0.0000 -0.2675
vn -0.7928 0.3375 -0.5076
vn -0.7928 -0.3375 -0.5076
vn 0.4238 0.8981 -0.1177
vn 0.3014 0.8672 -0.3965
vn -0.3014 0.8672 -0.3965
vn -0.4238 0.8981 -0.1177
vn 0.0000 -0.8877 -0.4604
vn 0.7928 -0.3375 -0.5076
vn 0.7928 0.3375 -0.5076
vn 0.9636 0.0000 -0.2675
vn 0.8999 -0.3574 -0.2499
vn 0.2227 0.0000 0.9749
vn 0.2128 0.0000 0.9771
vn 0.7198 0.0000 0.6942
vn 0.7583 0.0000 0.6519
vn -0.0000 0.9371 0.3492
vn 0.0000 -0.9548 0.2971
vn -1.0000 -0.0000 0.0000
vn -0.9808 0.1951 0.0000
vn -0.9876 0.1568 0.0000
vn 0.0000 0.0000 -1.0000
vn -0.2750 -0.5992 -0.7519
vn -0.5378 -0.6019 -0.5903
vn -0.5857 -0.6516 -0.4821
vn -0.2158 -0.6091 -0.7631
vn -0.9808 -0.0000 0.1951
vn -0.9883 -0.0000 0.1526
vn 0.2381 0.4361 -0.8678
vn 0.4703 0.4703 -0.7467
vn 0.4851 0.4839 -0.7284
vn 0.1614 0.4436 -0.8816
vn 0.2178 0.9760 0.0000
vn 0.2271 0.9739 0.0000
vn -0.2271 0.9739 0.0000
vn -0.2178 0.9760 0.0000
vn -0.7579 0.6524 0.0000
vn -0.7233 0.6905 0.0000
vn 0.5378 -0.6019 -0.5903
vn 0.2750 -0.5992 -0.7519
vn 0.2158 -0.6091 -0.7631
vn 0.5857 -0.6516 -0.4821
vn 0.9876 0.1568 0.0000
vn 0.9808 0.1951 0.0000
vn -0.9831 -0.0002 -0.1829
vn -0.9637 -0.0003 -0.2671
vn 0.7233 0.6905 0.0000
vn 0.7579 0.6524 0.0000
vn -0.3014 -0.8672 -0.3965
vn -0.2770 -0.3375 -0.8997
vn -0.2770 0.3375 -0.8997
vn 0.3014 -0.8672 -0.3965
vn 0.2770 -0.3375 -0.8997
vn 0.2770 0.3375 -0.8997
vn 0.6813 -0.7071 -0.1892
vn 0.6813 0.7071 -0.1892
vn -0.6813 -0.7071 -0.1892
vn -0.6813 0.7071 -0.1892
vn 0.0000 0.8877 -0.4604
vn -0.8252 0.0000 -0.5648
vn 0.8252 0.0000 -0.5648
vn 0.6844 -0.7291 -0.0004
vn 0.6807 -0.7326 -0.0009
vn -0.6807 -0.7326 -0.0009
vn -0.6844 -0.7291 -0.0004
vn 0.4814 0.6093 0.6301
vn 0.1440 0.5893 0.7950
vn 0.1124 0.5917 0.7983
vn 0.4218 0.6043 0.6759
vn 0.1611 -0.7365 0.6570
vn 0.4991 -0.7307 0.4658
vn 0.4869 -0.7312 0.4778
vn 0.1311 -0.7397 0.6601
vn 0.6722 0.6456 0.3624
vn 0.6670 0.6405 0.3806
vn 0.6797 -0.7182 0.1491
vn 0.6818 -0.7209 0.1242
vn -0.4814 0.6093 0.6301
vn -0.6722 0.6456 0.3624
vn -0.6670 0.6405 0.3806
vn -0.4218 0.6043 0.6759
vn -0.6797 -0.7182 0.1491
vn -0.4991 -0.7307 0.4658
vn -0.4869 -0.7312 0.4778
vn -0.6818 -0.7209 0.1242
vn -0.1440 0.5893 0.7950
vn -0.1124 0.5917 0.7983
vn -0.1611 -0.7365 0.6570
vn -0.1311 -0.7397 0.6601
vn -0.6979 0.6712 0.2499
vn 0.6979 0.6712 0.2499
vn -0.6585 -0.7214 -0.2144
vn -0.6657 -0.7273 -0.1667
vn 0.6657 -0.7273 -0.1667
vn 0.6585 -0.7214 -0.2144
vn 0.6955 0.4461 -0.5633
vn 0.6005 0.5906 -0.5391
vn 0.6141 0.6032 -0.5090
vn 0.6948 0.4589 -0.5538
vn 0.7668 -0.0003 -0.6419
vn 0.7328 -0.0003 -0.6805
vn 0.3028 0.0000 -0.9530
vn 0.3314 0.0000 -0.9435
vn -0.7328 -0.0003 -0.6805
vn -0.7668 -0.0003 -0.6419
vn -0.3314 0.0000 -0.9435
vn -0.3028 0.0000 -0.9530
vn -0.4703 0.4703 -0.7467
vn -0.2381 0.4361 -0.8678
vn -0.1614 0.4436 -0.8816
vn -0.4851 0.4839 -0.7284
vn 0.9637 -0.0003 -0.2671
vn 0.9831 -0.0002 -0.1829
vn 0.4782 0.6086 -0.6332
vn 0.1463 0.7735 -0.6167
vn 0.1137 0.7770 -0.6192
vn 0.4224 0.6526 -0.6291
vn 0.1674 0.6659 0.7271
vn 0.5142 0.4724 0.7159
vn 0.4989 0.4871 0.7168
vn 0.1359 0.6692 0.7306
vn 0.6603 0.3447 -0.6672
vn 0.6570 0.3579 -0.6635
vn 0.6978 0.1532 0.6998
vn 0.7003 0.1282 0.7022
vn -0.5142 0.4724 0.7159
vn -0.1674 0.6659 0.7271
vn -0.1359 0.6692 0.7306
vn -0.4989 0.4871 0.7168
vn -0.1463 0.7735 -0.6167
vn -0.4782 0.6086 -0.6332
vn -0.4224 0.6526 -0.6291
vn -0.1137 0.7770 -0.6192
vn -0.6978 0.1532 0.6998
vn -0.7003 0.1282 0.7022
vn -0.6603 0.3447 -0.6672
vn -0.6570 0.3579 -0.6635
vn 0.7063 0.0001 0.7079
vn -0.7063 0.0001 0.7079
vn 0.8634 0.5046 0.0000
vn -0.8634 0.5046 0.0000
vn 0.6021 0.0000 0.7985
vn 0.9549 -0.2969 0.0000
vn 0.6021 0.0000 -0.7985
vn -0.6021 0.0000 -0.7984
vn -0.9549 -0.2969 0.0000
vn -0.6021 0.0000 0.7984
vn 0.8536 0.0000 0.5209
vn 0.0000 0.9548 0.2971
vn -0.8536 0.0000 0.5209
vn 0.9861 0.0000 0.1662
vn 0.9411 0.0000 0.3382
vn 0.7613 -0.5531 0.3382
vn 0.7978 -0.5796 0.1662
vn 0.2908 -0.8950 0.3382
vn 0.3047 -0.9378 0.1662
vn -0.2908 -0.8950 0.3382
vn -0.3047 -0.9378 0.1662
vn -0.7613 -0.5531 0.3382
vn -0.7978 -0.5796 0.1662
vn -0.9411 0.0000 0.3382
vn -0.9861 0.0000 0.1662
vn -0.7613 0.5531 0.3382
vn -0.7978 0.5796 0.1662
vn -0.2908 0.8950 0.3382
vn -0.3047 0.9378 0.1662
vn 0.2908 0.8950 0.3382
vn 0.3047 0.9378 0.1662
vn -0.7731 0.5617 0.2945
vn -0.9557 -0.0000 0.2945
vn 0.7613 0.5531 0.3382
vn 0.7978 0.5796 0.1662
vn 0.3090 -0.9511 0.0000
vn 0.8090 -0.5878 0.0000
vn -0.2953 -0.9089 0.2945
vn 0.2953 -0.9089 0.2945
vn 0.9557 -0.0000 0.2945
vn 0.7731 0.5617 0.2945
vn -0.2953 0.9089 0.2945
vn -0.7731 -0.5617 0.2945
vn 0.7731 -0.5617 0.2945
vn 0.2953 0.9089 0.2945
vn 0.1113 -0.0809 0.9905
vn 0.1376 -0.0000 0.9905
vn 0.0425 -0.1309 0.9905
vn -0.0425 -0.1309 0.9905
vn -0.1113 -0.0809 0.9905
vn -0.1376 -0.0000 0.9905
vn -0.1113 0.0809 0.9905
vn -0.0425 0.1309 0.9905
vn 0.0425 0.1309 0.9905
vn 0.1113 0.0809 0.9905
vn 0.8090 0.5878 0.0000
vn 0.3090 0.9511 0.0000
vn -0.3090 0.9511 0.0000
vn -0.8090 0.5878 0.0000
vn -0.8090 -0.5878 0.0000
vn -0.3090 -0.9511 0.0000
vn 0.3977 0.0000 0.9175
vn 0.3218 -0.2338 0.9175
vn 0.5180 -0.3763 0.7681
vn 0.6403 0.0000 0.7681
vn 0.1229 -0.3782 0.9175
vn 0.1979 -0.6089 0.7681
vn -0.1229 -0.3782 0.9175
vn -0.1979 -0.6089 0.7681
vn -0.3218 -0.2338 0.9175
vn -0.5180 -0.3763 0.7681
vn -0.3977 0.0000 0.9175
vn -0.6403 0.0000 0.7681
vn -0.3218 0.2338 0.9175
vn -0.5180 0.3763 0.7681
vn -0.1229 0.3782 0.9175
vn -0.1979 0.6089 0.7681
vn 0.1229 0.3782 0.9175
vn 0.1979 0.6089 0.7681
vn 0.3218 0.2338 0.9175
vn 0.5180 0.3763 0.7681
vn 0.3416 -0.3416 0.8756
vn -0.3416 0.3416 0.8756
vn -0.3416 -0.3416 0.8756
vn 0.3416 0.8756 0.3416
vn 0.3827 0.9239 0.0000
vn -0.3827 0.9239 0.0000
vn -0.3416 0.8756 0.3416
vn -0.8756 -0.3416 0.3416
vn -0.9239 -0.3827 0.0000
vn 0.9239 -0.3827 0.0000
vn 0.8756 0.3416 0.3416
vn 0.8756 -0.3416 0.3416
vn -0.6849 0.0000 0.7286
vn -0.3683 0.0000 0.9297
vn 0.0000 1.0000 0.0000
vn -0.4606 -0.7588 0.4606
vn -0.7588 0.4606 0.4606
vn 0.4606 -0.7588 0.4606
vn 0.4606 0.4606 0.7588
vn 0.7071 -0.7071 0.0000
vn 0.7071 0.7071 0.0000
vn -0.7071 -0.7071 0.0000
vn -0.7071 0.7071 0.0000
vn 0.3683 0.0000 0.9297
vn 0.6849 0.0000 0.7286
vn -0.6849 0.7286 -0.0000
vn -0.3683 0.9297 -0.0000
vn 0.3683 0.9297 0.0000
vn 0.6849 0.7286 0.0000
usemtl KayKit_Texture_A
s 1
f 60/1/1 10/2/1 61/3/1
f 47/4/2 134/5/3 119/6/3 12/7/4
f 3/8/5 50/9/5 95/10/5 16/11/5
f 72/12/1 57/13/1 10/2/1 7/14/1
f 85/15/1 132/16/1 113/17/1
f 45/18/1 69/19/1 7/14/1 6/20/1
f 55/21/5 1/22/5 15/23/5 104/24/5
f 131/25/1 46/26/1 5/27/1 114/28/1
f 69/19/1 73/29/1 7/14/1
f 56/30/6 127/31/7 126/32/8 144/33/9
f 67/34/10 62/35/11 154/36/12 155/37/13
f 138/38/14 142/39/14 77/40/15 70/41/16
f 121/42/1 82/43/1 116/44/1
f 98/45/5 16/11/5 99/46/5
f 110/47/17 13/48/17 111/49/17
f 14/50/17 13/48/17 110/47/17 89/51/17
f 29/52/18 32/53/19 20/54/20 18/55/21
f 36/56/22 26/57/23 21/58/24 31/59/25
f 22/60/26 28/61/26 44/62/26 43/63/26
f 25/64/27 27/65/28 35/66/29 34/67/30
f 73/29/1 72/12/1 7/14/1
f 156/68/31 153/69/32 74/70/33 79/71/34
f 2/72/35 63/73/35 68/74/35
f 76/75/36 65/76/36 159/77/36 160/78/36
f 9/79/1 10/2/1 60/1/1 53/80/1
f 144/81/37 143/82/37 103/83/38 108/84/39
f 81/85/40 84/86/40 87/87/40 86/88/40
f 82/89/41 121/90/42 124/91/43 287/92/44
f 59/93/45 64/94/46 143/82/37 139/95/37
f 88/96/47 133/97/48 136/98/49 289/99/50
f 97/100/51 90/101/52 109/102/53 102/103/54
f 16/11/5 95/10/5 99/46/5
f 104/24/5 15/23/5 106/104/5
f 13/48/17 107/105/17 111/49/17
f 47/106/2 12/107/4 14/50/17 92/108/17
f 12/7/4 119/6/3 118/109/3 11/110/4
f 11/111/4 56/112/2 107/105/17 13/48/17
f 102/103/54 109/102/53 112/113/55 105/114/56
f 75/115/35 80/116/35 4/117/35
f 80/116/35 78/118/35 4/117/35
f 2/72/35 4/117/35 3/119/35 1/120/35
f 15/23/5 101/121/5 106/104/5
f 10/2/1 57/13/1 61/3/1
f 132/122/57 85/123/58 288/124/59 129/125/60
f 142/39/14 141/126/14 91/127/61 96/128/62
f 88/129/3 83/130/3 117/131/3 120/132/3
f 66/133/35 75/115/35 4/117/35 2/72/35
f 79/71/34 74/70/33 70/41/16 77/40/15
f 6/20/1 7/14/1 10/2/1 9/79/1
f 5/27/1 6/20/1 9/79/1 8/134/1
f 82/43/1 85/15/1 113/17/1 116/44/1
f 140/135/37 144/81/37 126/136/63 123/137/64
f 64/94/46 59/93/45 62/35/11 67/34/10
f 11/110/4 118/109/3 127/138/3 56/139/2
f 92/108/17 14/50/17 94/140/17
f 115/141/1 8/134/1 52/142/1 122/143/1
f 4/117/35 78/118/35 50/144/35 3/119/35
f 90/101/52 97/100/51 100/145/65 93/146/66
f 14/50/17 89/51/17 94/140/17
f 12/107/4 11/111/4 13/48/17 14/50/17
f 117/131/3 83/130/3 128/147/3
f 133/148/3 88/129/3 120/132/3
f 93/146/66 100/145/65 96/128/62 91/127/61
f 1/22/5 3/8/5 16/11/5 15/23/5
f 63/73/35 2/72/35 1/120/35 55/149/35
f 8/134/1 9/79/1 53/80/1 52/142/1
f 105/114/56 112/113/55 108/84/39 103/83/38
f 15/23/5 16/11/5 98/45/5 101/121/5
f 66/133/35 2/72/35 68/74/35
f 17/150/67 18/151/21 37/152/68
f 20/153/20 21/58/24 39/154/69
f 23/155/70 38/156/71 25/157/27
f 26/57/23 27/158/28 40/159/72
f 23/155/70 17/150/67 37/152/68 38/156/71
f 18/55/21 20/54/20 39/160/69 37/161/68
f 21/58/24 26/57/23 40/159/72 39/154/69
f 27/65/28 25/64/27 38/162/71 40/163/72
f 33/164/73 23/155/70 25/157/27 34/165/30
f 26/57/23 36/56/22 35/166/74 27/158/28
f 17/150/67 30/167/75 29/168/18 18/151/21
f 31/59/25 21/58/24 20/153/20 32/169/76
f 23/155/70 33/164/1 30/167/1 17/150/67
f 19/170/40 24/171/40 38/162/71 37/161/68
f 22/172/40 19/170/40 37/161/68 39/160/69
f 28/173/40 22/172/40 39/160/69 40/163/72
f 24/171/40 28/173/40 40/163/72 38/162/71
f 41/174/40 43/175/40 44/176/40 42/177/40
f 24/178/77 19/179/77 41/180/77 42/181/77
f 28/182/78 24/183/78 42/184/78 44/185/78
f 19/186/79 22/187/79 43/188/79 41/189/79
f 45/190/80 46/191/81 137/192/81 138/193/80
f 52/194/82 53/195/83 139/196/83 140/197/82
f 80/198/84 75/199/85 156/200/86 79/201/87
f 72/202/88 73/203/89 74/204/90 153/205/91
f 78/206/92 80/198/84 79/201/87 77/207/93
f 73/203/89 69/208/94 70/209/95 74/204/90
f 68/210/96 63/211/97 64/212/98 67/213/99
f 60/214/100 61/215/101 62/216/102 59/217/103
f 66/218/104 68/210/96 67/213/99 155/219/105
f 61/215/101 57/220/106 154/221/107 62/216/102
f 53/195/83 60/214/100 59/217/103 139/196/83
f 63/211/97 55/222/108 143/223/108 64/212/98
f 138/193/80 70/209/95 69/208/94 45/190/80
f 153/205/91 154/221/107 57/220/106 72/202/88
f 75/199/85 66/218/104 155/219/105 156/200/86
f 77/207/93 142/224/109 50/225/109 78/206/92
f 122/226/110 52/194/82 140/197/82 123/227/111
f 130/228/112 137/192/81 46/191/81 131/229/113
f 141/230/114 135/231/115 134/232/116 47/233/117
f 136/234/118 129/235/119 288/236/120 289/237/121
f 124/238/122 125/239/123 290/240/124 287/241/125
f 128/242/126 83/243/127 290/244/128 125/245/129
f 287/92/44 288/124/59 85/123/58 82/89/41
f 130/246/130 135/247/131 141/126/14 137/248/14
f 83/243/127 88/96/47 289/99/50 290/244/128
f 94/249/132 89/250/133 90/251/134 93/252/135
f 98/253/136 99/254/137 100/255/138 97/256/139
f 92/257/140 94/249/132 93/252/135 91/258/141
f 99/254/137 95/259/142 96/260/143 100/255/138
f 106/261/144 101/262/145 102/263/146 105/264/147
f 110/265/148 111/266/149 112/267/150 109/268/151
f 104/269/152 106/261/144 105/264/147 103/270/153
f 111/266/149 107/271/154 108/272/155 112/267/150
f 95/259/142 50/225/156 142/224/156 96/260/143
f 47/233/117 92/257/140 91/258/141 141/230/114
f 144/33/9 108/272/155 107/271/154 56/30/6
f 109/268/151 90/251/134 89/250/133 110/265/148
f 101/262/145 98/253/136 97/256/139 102/263/146
f 103/270/153 143/223/157 55/222/157 104/269/152
f 46/26/1 45/18/1 6/20/1 5/27/1
f 114/28/1 115/141/1 116/44/1 113/17/1
f 120/132/3 117/131/3 118/109/3 119/6/3
f 122/226/110 123/227/111 124/91/43 121/90/42
f 126/32/8 127/31/7 128/242/126 125/245/129
f 134/232/116 135/231/115 136/98/49 133/97/48
f 130/228/112 131/229/113 132/122/57 129/125/60
f 129/235/119 136/234/118 135/247/131 130/246/130
f 113/17/1 132/16/1 131/25/1 114/28/1
f 133/148/3 120/132/3 119/6/3 134/5/3
f 121/42/1 116/44/1 115/141/1 122/143/1
f 125/239/123 124/238/122 123/137/64 126/136/63
f 117/131/3 128/147/3 127/138/3 118/109/3
f 114/28/1 5/27/1 8/134/1 115/141/1
f 145/273/14 146/274/14 138/38/14 137/248/14
f 147/275/37 148/276/37 140/135/37 139/95/37
f 149/277/14 145/273/14 137/248/14 141/126/14
f 150/278/14 149/277/14 141/126/14 142/39/14
f 146/274/14 150/278/14 142/39/14 138/38/14
f 151/279/37 147/275/37 139/95/37 143/82/37
f 152/280/37 151/279/37 143/82/37 144/81/37
f 148/276/37 152/280/37 144/81/37 140/135/37
f 48/281/158 49/282/158 146/274/158 145/273/158
f 54/283/159 51/284/159 148/276/159 147/275/159
f 48/281/160 145/273/160 149/277/160
f 49/285/161 48/286/161 149/287/161 150/288/161
f 49/282/162 150/278/162 146/274/162
f 54/283/163 147/275/163 151/279/163
f 51/289/164 54/290/164 151/291/164 152/292/164
f 51/284/165 152/280/165 148/276/165
f 71/293/5 58/294/5 154/36/12 153/69/32
f 65/295/5 76/296/5 156/68/31 155/37/13
f 58/294/5 65/295/5 155/37/13 154/36/12
f 76/296/5 71/293/5 153/69/32 156/68/31
f 157/297/5 160/298/5 159/299/5 158/300/5
f 65/301/166 58/302/166 158/303/166 159/304/166
f 58/305/167 71/306/167 157/307/167 158/308/167
f 71/309/168 76/310/168 160/311/168 157/312/168
f 161/313/169 182/314/170 181/315/171 163/316/172
f 163/316/172 181/315/171 183/317/173 165/318/174
f 165/318/174 183/317/173 184/319/175 167/320/176
f 167/320/176 184/319/175 185/321/177 169/322/178
f 169/322/178 185/321/177 186/323/179 171/324/180
f 171/324/180 186/323/179 187/325/181 173/326/182
f 173/326/182 187/325/181 188/327/183 175/328/184
f 175/328/184 188/327/183 189/329/185 177/330/186
f 164/331/187 162/332/188 193/333/188 192/334/187
f 177/330/186 189/329/185 190/335/189 179/336/190
f 179/336/190 190/335/189 182/314/170 161/313/169
f 163/337/172 165/338/174 204/339/191 203/340/192
f 162/341/5 164/342/5 181/343/5 182/344/5
f 164/342/5 166/345/5 183/346/5 181/343/5
f 166/345/5 168/347/5 184/348/5 183/346/5
f 168/347/5 170/349/5 185/350/5 184/348/5
f 170/349/5 172/351/5 186/352/5 185/350/5
f 172/351/5 174/353/5 187/354/5 186/352/5
f 174/353/5 176/355/5 188/356/5 187/354/5
f 176/355/5 178/357/5 189/358/5 188/356/5
f 178/357/5 180/359/5 190/360/5 189/358/5
f 180/359/5 162/341/5 182/344/5 190/360/5
f 178/361/193 176/362/194 199/363/194 200/364/193
f 172/365/195 170/366/196 196/367/196 197/368/195
f 166/369/197 164/331/187 192/334/187 194/370/197
f 180/371/198 178/361/193 200/364/193 201/372/198
f 174/373/199 172/365/195 197/368/195 198/374/199
f 168/375/200 166/369/197 194/370/197 195/376/200
f 162/332/188 180/371/198 201/372/198 193/333/188
f 176/362/194 174/373/199 198/374/199 199/363/194
f 170/366/196 168/375/200 195/376/200 196/367/196
f 191/377/5 192/378/201 193/379/202
f 191/377/5 194/380/203 192/378/201
f 191/377/5 195/381/204 194/380/203
f 191/377/5 196/382/205 195/381/204
f 191/377/5 197/383/206 196/382/205
f 191/377/5 198/384/207 197/383/206
f 191/377/5 199/385/208 198/384/207
f 191/377/5 200/386/209 199/385/208
f 191/377/5 201/387/210 200/386/209
f 191/377/5 193/379/202 201/387/210
f 179/388/190 161/389/169 202/390/14 211/391/211
f 177/392/186 179/388/190 211/391/211 210/393/212
f 175/394/184 177/392/186 210/393/212 209/395/213
f 173/396/182 175/394/184 209/395/213 208/397/214
f 171/398/180 173/396/182 208/397/214 207/399/37
f 169/400/178 171/398/180 207/399/37 206/401/215
f 167/402/176 169/400/178 206/401/215 205/403/216
f 161/389/169 163/337/172 203/340/192 202/390/14
f 165/338/174 167/402/176 205/403/216 204/339/191
f 212/404/14 224/405/14 223/406/192 214/407/192
f 214/407/192 223/406/192 225/408/191 215/409/191
f 215/409/191 225/408/191 226/410/216 216/411/216
f 216/411/216 226/410/216 227/412/215 217/413/215
f 217/413/215 227/412/215 228/414/37 218/415/37
f 218/415/37 228/414/37 229/416/214 219/417/214
f 219/417/214 229/416/214 230/418/213 220/419/213
f 220/419/213 230/418/213 231/420/212 221/421/212
f 221/421/212 231/420/212 232/422/211 222/423/211
f 222/423/211 232/422/211 224/405/14 212/404/14
f 234/424/217 233/425/218 223/426/219 224/427/220
f 233/425/218 235/428/221 225/429/222 223/426/219
f 235/428/221 236/430/223 226/431/224 225/429/222
f 236/430/223 237/432/225 227/433/226 226/431/224
f 237/432/225 238/434/227 228/435/228 227/433/226
f 238/434/227 239/436/229 229/437/230 228/435/228
f 239/436/229 240/438/231 230/439/232 229/437/230
f 240/438/231 241/440/233 231/441/234 230/439/232
f 241/440/233 242/442/235 232/443/236 231/441/234
f 242/442/235 234/424/217 224/427/220 232/443/236
f 213/444/5 233/445/218 234/446/217
f 213/444/5 235/447/221 233/445/218
f 213/444/5 236/448/223 235/447/221
f 213/444/5 237/449/225 236/448/223
f 213/444/5 238/450/227 237/449/225
f 213/444/5 239/451/229 238/450/227
f 213/444/5 240/452/231 239/451/229
f 213/444/5 241/453/233 240/452/231
f 213/444/5 242/454/235 241/453/233
f 213/444/5 234/446/217 242/454/235
f 267/455/237 269/456/5 264/457/238 260/458/239
f 268/459/240 257/460/241 254/461/242 262/462/243
f 261/463/244 263/464/37 253/465/37 252/466/245
f 255/467/246 258/468/14 270/469/247 266/470/248
f 245/471/14 246/472/14 250/473/14 249/474/14
f 248/475/249 247/476/249 273/477/250 274/478/250
f 247/476/37 248/475/37 244/479/37 243/480/37
f 245/471/1 249/474/1 247/476/1 243/480/1
f 250/473/251 246/472/251 244/479/251 248/475/251
f 259/481/252 260/482/239 261/483/244
f 262/484/243 263/485/253 264/486/238
f 265/487/254 266/488/248 267/489/237
f 268/490/240 269/491/255 270/492/247
f 265/487/254 256/493/256 255/494/246 266/488/248
f 257/495/241 268/490/240 270/492/247 258/496/257
f 269/491/255 267/489/237 266/488/248 270/492/247
f 259/481/252 265/487/254 267/489/237 260/482/239
f 268/490/240 262/484/243 264/486/238 269/491/255
f 263/485/253 261/483/244 260/482/239 264/486/238
f 251/497/258 259/481/252 261/483/244 252/498/245
f 262/484/243 254/499/242 253/500/259 263/485/253
f 256/501/1 265/502/1 259/503/1 251/504/1
f 272/505/260 271/506/260 274/478/250 273/477/250
f 247/476/1 249/474/1 272/505/1 273/477/1
f 250/473/251 248/475/251 274/478/251 271/506/251
f 249/474/261 250/473/261 271/506/260 272/505/260
f 277/507/14 278/508/14 282/509/14 281/510/14
f 280/511/262 279/512/262 285/513/263 286/514/263
f 279/512/37 280/511/37 276/515/37 275/516/37
f 277/507/5 281/510/5 279/512/5 275/516/5
f 282/509/40 278/508/40 276/515/40 280/511/40
f 284/517/264 283/518/264 286/519/263 285/520/263
f 279/512/5 281/510/5 284/521/5 285/513/5
f 282/509/40 280/511/40 286/514/40 283/522/40
f 281/510/265 282/509/265 283/522/264 284/521/264
f 81/523/40 86/524/40 288/236/120 287/241/125
f 87/525/40 84/526/40 290/240/124 289/237/121
f 84/526/40 81/523/40 287/241/125 290/240/124
f 86/524/40 87/525/40 289/237/121 288/236/120
