# Blender v3.4.1 OBJ File: 'MixedBag1_Export.blend'
# www.blender.org
mtllib instantcamera_picture_A.mtl
o instantcamera_picture_A
v -0.170943 -0.227184 0.014245
v 0.170943 -0.227184 0.014245
v -0.170943 0.200174 0.014245
v 0.170943 0.200174 0.014245
v -0.142065 0.168639 0.014245
v -0.142065 -0.141629 0.014245
v 0.142065 -0.141629 0.014245
v 0.142065 0.168639 0.014245
v -0.142065 0.168639 -0.014245
v -0.142065 -0.141629 -0.014245
v 0.142065 -0.141629 -0.014245
v 0.142065 0.168639 -0.014245
v -0.170943 0.200174 -0.014245
v -0.170943 -0.227184 -0.014245
v 0.170943 -0.227184 -0.014245
v 0.170943 0.200174 -0.014245
vt 0.160663 0.859618
vt 0.160663 0.913293
vt 0.152151 0.921804
vt 0.152151 0.824496
vt 0.214337 0.859618
vt 0.222849 0.824496
vt 0.214337 0.913293
vt 0.222849 0.921804
vt 0.016985 0.841752
vt 0.016985 0.932781
vt 0.108015 0.932781
vt 0.108015 0.841752
vt 0.160663 0.859618
vt 0.152151 0.824496
vt 0.152151 0.921804
vt 0.160663 0.913293
vt 0.214337 0.859618
vt 0.222849 0.824496
vt 0.214337 0.913293
vt 0.222849 0.921804
vt 0.050731 0.009401
vt 0.949269 0.009401
vt 0.949269 0.990599
vt 0.050731 0.990599
vn 0.0000 0.0000 1.0000
vn -0.0000 0.0000 -1.0000
vn 0.0000 1.0000 0.0000
vn 0.0000 -1.0000 0.0000
vn 1.0000 0.0000 0.0000
vn -1.0000 0.0000 0.0000
usemtl KayKit_Texture_A
s 1
f 6/1/1 5/2/1 3/3/1 1/4/1
f 7/5/1 6/1/1 1/4/1 2/6/1
f 8/7/1 7/5/1 2/6/1 4/8/1
f 5/2/1 8/7/1 4/8/1 3/3/1
f 10/9/2 9/10/2 12/11/2 11/12/2
f 10/13/2 14/14/2 13/15/2 9/16/2
f 11/17/2 15/18/2 14/14/2 10/13/2
f 12/19/2 16/20/2 15/18/2 11/17/2
f 9/16/2 13/15/2 16/20/2 12/19/2
f 4/8/3 16/20/3 13/15/3 3/3/3
f 1/4/4 14/14/4 15/18/4 2/6/4
f 2/6/5 15/18/5 16/20/5 4/8/5
f 3/3/6 13/15/6 14/14/6 1/4/6
usemtl CustomTextureHere
f 6/21/1 7/22/1 8/23/1 5/24/1
