# Blender v3.4.1 OBJ File: 'MixedBag1_Export.blend'
# www.blender.org
mtllib instantcamera.mtl
o instantcamera
v -0.218058 0.226124 0.127185
v -0.218058 0.184881 0.237875
v 0.218058 0.226124 0.127185
v 0.218058 0.184881 0.237875
v 0.218058 0.000000 -0.104954
v 0.218058 0.000000 0.104954
v 0.218058 0.000000 0.237875
v -0.218058 0.000000 -0.104954
v -0.218058 0.000000 0.104954
v -0.218058 0.000000 0.237875
v -0.218058 0.300228 -0.123569
v 0.218058 0.300228 -0.123569
v -0.218058 0.432708 -0.079409
v 0.218058 0.432708 -0.079409
v -0.218058 0.432708 0.127185
v 0.218058 0.432708 0.127185
v -0.107959 0.335234 -0.139638
v -0.127698 0.354441 -0.140338
v -0.082696 0.375099 -0.158845
v -0.127698 0.468141 -0.140338
v -0.107959 0.487348 -0.139638
v -0.082696 0.447483 -0.158845
v 0.107959 0.335234 -0.139638
v 0.082696 0.375099 -0.158845
v 0.127698 0.354441 -0.140338
v 0.107959 0.487348 -0.139638
v 0.127698 0.468141 -0.140338
v 0.082696 0.447483 -0.158845
v -0.164793 0.354441 -0.006732
v -0.144860 0.335234 -0.006732
v -0.144860 0.487348 -0.006732
v -0.164793 0.468141 -0.006732
v 0.144860 0.335234 -0.006732
v 0.164794 0.354441 -0.006732
v 0.164794 0.468141 -0.006732
v 0.144860 0.487348 -0.006732
v -0.103353 0.354441 -0.158845
v 0.103353 0.354441 -0.158845
v -0.103353 0.468141 -0.158845
v 0.103353 0.468141 -0.158845
v -0.061881 0.390871 -0.128430
v 0.061881 0.390871 -0.128430
v -0.061881 0.431711 -0.128430
v 0.061881 0.431711 -0.128430
v 0.276722 0.000000 0.104954
v 0.276452 0.000000 -0.104954
v 0.276930 0.300228 -0.123569
v 0.271704 0.112249 -0.044083
v 0.271704 0.112249 0.044083
v 0.278118 0.226124 0.127185
v -0.271704 0.112249 -0.044082
v -0.276452 0.000000 -0.104954
v -0.276722 0.000000 0.104954
v -0.271704 0.112249 0.044082
v -0.278118 0.226124 0.127185
v -0.276929 0.300228 -0.123569
v -0.218058 0.000000 0.301192
v -0.197763 0.053793 0.326067
v -0.300379 0.022231 0.237875
v -0.276878 0.000000 0.237875
v -0.258522 0.000000 0.282544
v -0.274548 0.022231 0.300236
v -0.278164 0.184881 0.237875
v -0.300379 0.161764 0.237875
v -0.197763 0.097457 0.326067
v -0.218058 0.160785 0.302543
v -0.274548 0.138591 0.300236
v -0.259386 0.167882 0.283498
v 0.276878 0.000000 0.237875
v 0.300379 0.022231 0.237875
v 0.197763 0.053793 0.326067
v 0.218058 0.000000 0.301192
v 0.258522 0.000000 0.282544
v 0.274548 0.022231 0.300236
v 0.218058 0.160785 0.302543
v 0.197763 0.097457 0.326067
v 0.300379 0.161764 0.237875
v 0.278164 0.184881 0.237875
v 0.274548 0.138591 0.300236
v 0.259386 0.167882 0.283498
v -0.170286 0.055301 -0.248346
v -0.218058 0.000000 -0.230508
v -0.218058 0.236371 -0.231093
v -0.170286 0.169100 -0.248346
v 0.218058 0.000000 -0.230508
v 0.170286 0.055301 -0.248346
v 0.170286 0.169100 -0.248346
v 0.218058 0.236371 -0.231093
v 0.218058 0.497782 -0.057718
v 0.218058 0.522540 -0.026606
v 0.300379 0.432708 -0.056458
v 0.277192 0.432708 -0.079409
v 0.274068 0.496229 -0.035334
v 0.258486 0.478558 -0.064126
v 0.278070 0.432708 0.127185
v 0.300379 0.432708 0.104954
v 0.218058 0.522540 0.104954
v 0.218058 0.498292 0.127185
v 0.258896 0.479022 0.127185
v 0.274068 0.496229 0.104954
v -0.218058 0.498292 0.127185
v -0.218058 0.522540 0.104954
v -0.300379 0.432708 0.104954
v -0.278070 0.432708 0.127185
v -0.274068 0.496229 0.104954
v -0.258896 0.479022 0.127185
v -0.277192 0.432708 -0.079409
v -0.300379 0.432708 -0.056458
v -0.218058 0.522540 -0.026606
v -0.218058 0.497782 -0.057718
v -0.258486 0.478558 -0.064126
v -0.274068 0.496229 -0.035334
v 0.218058 0.000000 -0.208011
v 0.218058 0.000000 -0.166820
v -0.218058 0.000000 -0.166820
v -0.218058 0.000000 -0.208011
v -0.218058 0.250475 -0.207344
v -0.218058 0.274023 -0.167693
v 0.218058 0.274023 -0.167693
v 0.218058 0.250475 -0.207344
v -0.251127 0.000000 -0.207498
v -0.276187 0.000000 -0.166894
v -0.300379 0.022231 -0.167047
v -0.276248 0.022231 -0.207216
v -0.276466 0.226621 -0.207062
v -0.300379 0.250193 -0.167292
v -0.276692 0.274100 -0.167565
v -0.252425 0.250650 -0.207050
v 0.276248 0.022231 -0.207216
v 0.300379 0.022231 -0.167047
v 0.276188 0.000000 -0.166894
v 0.251127 0.000000 -0.207498
v 0.252425 0.250650 -0.207050
v 0.276692 0.274100 -0.167565
v 0.300379 0.250193 -0.167292
v 0.276466 0.226621 -0.207062
v 0.300379 0.022231 -0.104954
v 0.300379 0.022231 0.104954
v -0.300379 0.022231 0.104954
v -0.300379 0.022231 -0.104954
v 0.300379 0.287164 -0.104954
v 0.300379 0.211268 0.104954
v -0.300379 0.211268 0.104954
v -0.300379 0.287164 -0.104954
v 0.300379 0.063186 -0.065705
v 0.300379 0.063186 0.065705
v -0.300379 0.063186 0.065705
v -0.300379 0.063186 -0.065705
v 0.300379 0.204490 -0.065705
v 0.300379 0.204490 0.065705
v -0.300379 0.204491 0.065705
v -0.300379 0.204491 -0.065705
v 0.218058 0.022231 0.326067
v -0.218058 0.022231 0.326067
v -0.218058 0.129018 0.326067
v 0.218058 0.129018 0.326067
v 0.177515 0.064119 0.292884
v -0.177515 0.064119 0.292884
v -0.177515 0.087130 0.292884
v 0.177515 0.087130 0.292884
v 0.130267 0.359011 0.187617
v 0.081463 0.359011 0.228298
v 0.105388 0.282442 0.187617
v 0.065905 0.311128 0.228298
v 0.040255 0.235120 0.187617
v 0.025173 0.281535 0.228298
v -0.040255 0.235120 0.187617
v -0.025173 0.281535 0.228298
v -0.105388 0.282442 0.187617
v -0.065905 0.311128 0.228298
v -0.130267 0.359011 0.187617
v -0.081462 0.359011 0.228298
v -0.105388 0.435580 0.187617
v -0.065905 0.406893 0.228298
v -0.040255 0.482902 0.187617
v -0.025173 0.436486 0.228298
v 0.040255 0.482902 0.187617
v 0.025173 0.436486 0.228298
v 0.105388 0.435580 0.187617
v 0.065905 0.406893 0.228298
v 0.093560 0.291036 0.228298
v 0.115646 0.359011 0.228298
v 0.035737 0.249025 0.228298
v -0.035737 0.249025 0.228298
v -0.093560 0.291036 0.228298
v -0.115646 0.359011 0.228298
v -0.093560 0.426986 0.228298
v -0.035737 0.468997 0.228298
v 0.035737 0.468997 0.228298
v 0.093560 0.426986 0.228298
v 0.000000 0.359011 0.200114
v 0.056462 0.317989 0.190419
v 0.069791 0.359011 0.190419
v 0.021567 0.292636 0.190419
v -0.021567 0.292636 0.190419
v -0.056462 0.317989 0.190419
v -0.069791 0.359011 0.190419
v -0.056462 0.400033 0.190419
v -0.021567 0.425386 0.190419
v 0.021567 0.425386 0.190419
v 0.056462 0.400033 0.190419
v 0.130267 0.359011 0.113513
v 0.105388 0.282442 0.113513
v 0.040255 0.235120 0.113513
v -0.040255 0.235120 0.113513
v -0.105388 0.282442 0.113513
v -0.130267 0.359011 0.113513
v -0.105388 0.435580 0.113513
v -0.040255 0.482902 0.113513
v 0.040255 0.482902 0.113513
v 0.105388 0.435580 0.113513
v 0.253747 0.299727 0.073519
v 0.200081 0.299727 0.192444
v 0.243498 0.268183 0.073519
v 0.216665 0.248688 0.073519
v 0.183497 0.248688 0.073519
v 0.156664 0.268183 0.073519
v 0.146415 0.299727 0.073519
v 0.156664 0.331271 0.073519
v 0.183497 0.350767 0.073519
v 0.216665 0.350767 0.073519
v 0.243498 0.331271 0.073519
v 0.243498 0.268183 0.178243
v 0.253747 0.299727 0.178243
v 0.216665 0.248688 0.178243
v 0.183497 0.248688 0.178243
v 0.156664 0.268183 0.178243
v 0.146415 0.299727 0.178243
v 0.156664 0.331271 0.178243
v 0.183497 0.350767 0.178243
v 0.216665 0.350767 0.178243
v 0.243498 0.331271 0.178243
v 0.229714 0.278197 0.192444
v 0.236710 0.299727 0.192444
v 0.211400 0.264891 0.192444
v 0.188762 0.264891 0.192444
v 0.170448 0.278197 0.192444
v 0.163452 0.299727 0.192444
v 0.170448 0.321257 0.192444
v 0.188762 0.334563 0.192444
v 0.211400 0.334563 0.192444
v 0.229714 0.321257 0.192444
v -0.253922 0.316370 0.102401
v -0.253922 0.354583 0.102401
v -0.142297 0.316370 0.102401
v -0.142297 0.354583 0.102401
v -0.253922 0.316370 0.147327
v -0.253922 0.354583 0.147327
v -0.142297 0.316370 0.147327
v -0.142297 0.354583 0.147327
v -0.241326 0.402595 0.102401
v -0.253922 0.415191 0.102401
v -0.253922 0.468290 0.102401
v -0.241326 0.480885 0.102401
v -0.142297 0.415191 0.102401
v -0.154892 0.402595 0.102401
v -0.154892 0.480885 0.102401
v -0.142297 0.468290 0.102401
v -0.241326 0.402595 0.166966
v -0.241326 0.415191 0.179562
v -0.253922 0.415191 0.166966
v -0.241326 0.480885 0.166966
v -0.253922 0.468290 0.166966
v -0.241326 0.468290 0.179562
v -0.154892 0.402595 0.166966
v -0.142297 0.415191 0.166966
v -0.154892 0.415191 0.179562
v -0.154892 0.480885 0.166966
v -0.154892 0.468290 0.179562
v -0.142297 0.468290 0.166966
v -0.163675 0.354583 0.167421
v -0.163675 0.316370 0.167421
v -0.232543 0.316370 0.167421
v -0.232543 0.354583 0.167421
v 0.057784 0.473139 0.082350
v 0.057784 0.473139 0.032721
v 0.202757 0.473139 0.082350
v 0.202757 0.473139 0.032721
v 0.057784 0.531486 0.082350
v 0.057784 0.531486 0.032721
v 0.202757 0.531486 0.082350
v 0.202757 0.531486 0.032721
v 0.174992 0.557584 0.032721
v 0.174992 0.557584 0.082350
v 0.085549 0.557584 0.082350
v 0.085549 0.557584 0.032721
v -0.218058 0.022231 -0.248346
v 0.218058 0.022231 -0.248346
v 0.218058 0.202170 -0.248346
v -0.218058 0.202170 -0.248346
vt 0.397838 0.802443
vt 0.406438 0.802443
vt 0.400522 0.802443
vt 0.353806 0.908837
vt 0.353771 0.905017
vt 0.345199 0.905006
vt 0.345199 0.908837
vt 0.345199 0.866753
vt 0.353980 0.866753
vt 0.353973 0.896956
vt 0.345199 0.896956
vt 0.470199 0.802443
vt 0.406438 0.802443
vt 0.470199 0.802443
vt 0.470199 0.802443
vt 0.475034 0.802443
vt 0.470199 0.802443
vt 0.478776 0.802443
vt 0.478799 0.802443
vt 0.470199 0.802443
vt 0.272657 0.866753
vt 0.281438 0.866753
vt 0.281438 0.896956
vt 0.272664 0.896956
vt 0.478698 0.802443
vt 0.478736 0.802443
vt 0.470199 0.802443
vt 0.470199 0.802443
vt 0.476115 0.802443
vt 0.265803 0.921867
vt 0.265839 0.917955
vt 0.262293 0.914376
vt 0.262293 0.919911
vt 0.398179 0.853956
vt 0.398179 0.836944
vt 0.406438 0.836944
vt 0.406438 0.852556
vt 0.482234 0.836944
vt 0.482234 0.864581
vt 0.482234 0.857344
vt 0.482234 0.836944
vt 0.401603 0.802443
vt 0.406438 0.802443
vt 0.406438 0.802443
vt 0.345199 0.906545
vt 0.351169 0.903727
vt 0.281438 0.906470
vt 0.281438 0.896956
vt 0.275527 0.903659
vt 0.345199 0.896956
vt 0.345199 0.906470
vt 0.414225 0.885513
vt 0.414225 0.902137
vt 0.419649 0.902137
vt 0.419649 0.885513
vt 0.459497 0.936195
vt 0.454102 0.936195
vt 0.422535 0.936195
vt 0.417140 0.936195
vt 0.426228 0.852241
vt 0.450409 0.852241
vt 0.447366 0.849935
vt 0.429271 0.849935
vt 0.456988 0.885513
vt 0.456988 0.902137
vt 0.462412 0.902137
vt 0.462412 0.885513
vt 0.470199 0.852556
vt 0.470199 0.836944
vt 0.478458 0.836944
vt 0.478458 0.853956
vt 0.281438 0.891973
vt 0.272650 0.891973
vt 0.275396 0.889488
vt 0.467232 0.816692
vt 0.409405 0.816692
vt 0.412365 0.815182
vt 0.464271 0.815182
vt 0.406438 0.802443
vt 0.397861 0.802443
vt 0.269403 0.875677
vt 0.269403 0.864581
vt 0.269403 0.896956
vt 0.269403 0.896956
vt 0.411273 0.810528
vt 0.411273 0.827166
vt 0.465364 0.827166
vt 0.465364 0.810528
vt 0.399617 0.814418
vt 0.394666 0.814418
vt 0.390905 0.817746
vt 0.399617 0.817746
vt 0.394403 0.836944
vt 0.394403 0.857344
vt 0.394403 0.864581
vt 0.394403 0.836944
vt 0.339912 0.912306
vt 0.345057 0.914444
vt 0.348656 0.910847
vt 0.339912 0.907186
vt 0.345199 0.941340
vt 0.345199 0.941340
vt 0.281438 0.941340
vt 0.281438 0.941340
vt 0.275467 0.903727
vt 0.272793 0.896956
vt 0.353806 0.877587
vt 0.345199 0.877587
vt 0.353844 0.896956
vt 0.281438 0.905006
vt 0.281438 0.908837
vt 0.281438 0.877587
vt 0.272831 0.877587
vt 0.273249 0.906243
vt 0.273249 0.906243
vt 0.345199 0.888451
vt 0.351241 0.889488
vt 0.345199 0.891973
vt 0.353987 0.891973
vt 0.345199 0.898003
vt 0.281438 0.898003
vt 0.281438 0.906545
vt 0.469862 0.814418
vt 0.464912 0.814418
vt 0.464912 0.817746
vt 0.473623 0.817746
vt 0.357234 0.864581
vt 0.357234 0.875677
vt 0.357234 0.896956
vt 0.357234 0.896956
vt 0.345199 0.899501
vt 0.281438 0.899501
vt 0.281438 0.901563
vt 0.345199 0.901563
vt 0.281438 0.888451
vt 0.406438 0.802443
vt 0.394403 0.836944
vt 0.394403 0.875677
vt 0.394403 0.870272
vt 0.394403 0.836944
vt 0.272866 0.905017
vt 0.272831 0.908837
vt 0.351110 0.903659
vt 0.406438 0.802443
vt 0.397901 0.802443
vt 0.397939 0.802443
vt 0.353980 0.898003
vt 0.353388 0.906243
vt 0.353388 0.906243
vt 0.276413 0.901589
vt 0.350224 0.901589
vt 0.272657 0.898003
vt 0.422535 0.867080
vt 0.419649 0.869888
vt 0.423208 0.869888
vt 0.419649 0.933387
vt 0.423208 0.933387
vt 0.454102 0.867080
vt 0.453429 0.869888
vt 0.456988 0.869888
vt 0.456988 0.933387
vt 0.453429 0.933387
vt 0.423208 0.902137
vt 0.423208 0.885513
vt 0.453429 0.885513
vt 0.453429 0.902137
vt 0.459497 0.867080
vt 0.462412 0.869888
vt 0.462412 0.933387
vt 0.417140 0.867080
vt 0.414225 0.869888
vt 0.414225 0.933387
vt 0.426228 0.888534
vt 0.450409 0.888534
vt 0.426228 0.899116
vt 0.450409 0.899116
vt 0.546492 0.825009
vt 0.546492 0.842630
vt 0.546492 0.842630
vt 0.546492 0.825009
vt 0.450409 0.904159
vt 0.426228 0.904159
vt 0.429271 0.906465
vt 0.447366 0.906465
vt 0.450409 0.867866
vt 0.450409 0.857284
vt 0.447366 0.859590
vt 0.447366 0.865560
vt 0.426228 0.857284
vt 0.426228 0.867866
vt 0.429271 0.865560
vt 0.429271 0.859590
vt 0.473695 0.814418
vt 0.473654 0.814418
vt 0.477236 0.817746
vt 0.477236 0.817746
vt 0.390875 0.814418
vt 0.390834 0.814418
vt 0.387293 0.817746
vt 0.387293 0.817746
vt 0.346099 0.902052
vt 0.339912 0.900990
vt 0.339912 0.896234
vt 0.348369 0.897667
vt 0.464912 0.814418
vt 0.470970 0.814418
vt 0.473369 0.817746
vt 0.464912 0.817746
vt 0.348910 0.904598
vt 0.352236 0.901137
vt 0.473718 0.814418
vt 0.477236 0.817746
vt 0.268430 0.902052
vt 0.265618 0.904598
vt 0.262293 0.901137
vt 0.266160 0.897667
vt 0.390811 0.814418
vt 0.393559 0.814418
vt 0.391160 0.817746
vt 0.387293 0.817746
vt 0.274617 0.900990
vt 0.274617 0.896234
vt 0.399617 0.814418
vt 0.399617 0.817746
vt 0.265625 0.910772
vt 0.262293 0.908548
vt 0.352236 0.908548
vt 0.348904 0.910772
vt 0.390915 0.814418
vt 0.387293 0.817746
vt 0.477236 0.817746
vt 0.473614 0.814418
vt 0.352236 0.919911
vt 0.352236 0.914376
vt 0.348690 0.917955
vt 0.348725 0.921867
vt 0.478738 0.866826
vt 0.478706 0.836944
vt 0.470199 0.836944
vt 0.470199 0.863251
vt 0.397931 0.836944
vt 0.397899 0.866826
vt 0.406438 0.863251
vt 0.406438 0.836944
vt 0.269472 0.914444
vt 0.274617 0.912306
vt 0.274617 0.907186
vt 0.265873 0.910847
vt 0.482234 0.836944
vt 0.482234 0.870272
vt 0.482234 0.875677
vt 0.482234 0.836944
vt 0.345964 0.948566
vt 0.339912 0.951444
vt 0.339912 0.955151
vt 0.348297 0.951212
vt 0.339912 0.951521
vt 0.346025 0.948636
vt 0.348297 0.951212
vt 0.339912 0.955151
vt 0.348765 0.941702
vt 0.352236 0.941702
vt 0.348896 0.941702
vt 0.352236 0.941702
vt 0.268503 0.948636
vt 0.274617 0.951521
vt 0.274617 0.955151
vt 0.266232 0.951212
vt 0.274617 0.951444
vt 0.268565 0.948566
vt 0.266232 0.951212
vt 0.274617 0.955151
vt 0.265633 0.941702
vt 0.262293 0.941702
vt 0.265764 0.941702
vt 0.262293 0.941702
vt 0.482234 0.842931
vt 0.482234 0.842931
vt 0.394403 0.842931
vt 0.394403 0.842931
vt 0.482234 0.863590
vt 0.482234 0.863590
vt 0.394403 0.863590
vt 0.394403 0.863590
vt 0.478042 0.850104
vt 0.478042 0.850104
vt 0.398595 0.850104
vt 0.398595 0.850104
vt 0.478042 0.818854
vt 0.478042 0.818854
vt 0.482234 0.832340
vt 0.482234 0.832340
vt 0.398595 0.818854
vt 0.398595 0.818854
vt 0.394403 0.832340
vt 0.394403 0.832340
vt 0.467232 0.841558
vt 0.409405 0.841558
vt 0.409405 0.847942
vt 0.467232 0.847942
vt 0.568111 0.783231
vt 0.568111 0.798542
vt 0.568111 0.798542
vt 0.568111 0.783231
vt 0.409405 0.832317
vt 0.409405 0.825933
vt 0.412365 0.827443
vt 0.412365 0.830807
vt 0.409405 0.872808
vt 0.467232 0.872808
vt 0.464271 0.874318
vt 0.412365 0.874318
vt 0.467232 0.825933
vt 0.467232 0.832317
vt 0.464271 0.830807
vt 0.464271 0.827443
vt 0.332364 0.886181
vt 0.330226 0.886181
vt 0.326997 0.876243
vt 0.328726 0.874987
vt 0.318543 0.870101
vt 0.319204 0.868068
vt 0.308094 0.870101
vt 0.307433 0.868068
vt 0.299640 0.876243
vt 0.297910 0.874987
vt 0.296411 0.886181
vt 0.294273 0.886181
vt 0.299640 0.896120
vt 0.297910 0.897376
vt 0.308094 0.902262
vt 0.307433 0.904295
vt 0.318543 0.902262
vt 0.319204 0.904295
vt 0.322954 0.832306
vt 0.325228 0.839306
vt 0.323522 0.839306
vt 0.321573 0.833309
vt 0.326997 0.896120
vt 0.328726 0.897376
vt 0.328726 0.859362
vt 0.319204 0.852443
vt 0.319204 0.852443
vt 0.328726 0.859362
vt 0.325228 0.870556
vt 0.322954 0.863556
vt 0.326997 0.860618
vt 0.330226 0.870556
vt 0.316999 0.859229
vt 0.318543 0.854476
vt 0.309638 0.859229
vt 0.308094 0.854476
vt 0.303683 0.863556
vt 0.299640 0.860618
vt 0.301408 0.870556
vt 0.296411 0.870556
vt 0.303683 0.877557
vt 0.299640 0.880495
vt 0.309638 0.881884
vt 0.308094 0.886637
vt 0.316999 0.881884
vt 0.318543 0.886637
vt 0.322954 0.877557
vt 0.326997 0.880495
vt 0.316999 0.850634
vt 0.309638 0.850634
vt 0.310165 0.849011
vt 0.316471 0.849011
vt 0.301408 0.839306
vt 0.303683 0.832306
vt 0.305064 0.833309
vt 0.303115 0.839306
vt 0.316999 0.827979
vt 0.316471 0.829602
vt 0.322954 0.846307
vt 0.321573 0.845304
vt 0.303683 0.846307
vt 0.305064 0.845304
vt 0.309638 0.827979
vt 0.310165 0.829602
vt 0.075096 0.125000
vt 0.070089 0.068388
vt 0.070089 0.125000
vt 0.070089 0.033399
vt 0.070089 0.033399
vt 0.070089 0.068388
vt 0.070089 0.125000
vt 0.070089 0.181613
vt 0.070089 0.216601
vt 0.070089 0.216601
vt 0.070089 0.181613
vt 0.328726 0.881751
vt 0.332364 0.870556
vt 0.332364 0.870556
vt 0.328726 0.881751
vt 0.319204 0.888670
vt 0.319204 0.888670
vt 0.307433 0.888670
vt 0.307433 0.888670
vt 0.297910 0.881751
vt 0.297910 0.881751
vt 0.294273 0.870556
vt 0.294273 0.870556
vt 0.297910 0.859362
vt 0.297910 0.859362
vt 0.307433 0.852443
vt 0.307433 0.852443
vt 0.165050 0.167768
vt 0.203700 0.167768
vt 0.203700 0.156126
vt 0.165050 0.156126
vt 0.203700 0.148931
vt 0.165050 0.148931
vt 0.203700 0.148931
vt 0.165050 0.148931
vt 0.203700 0.156126
vt 0.165050 0.156126
vt 0.203700 0.167768
vt 0.165050 0.167768
vt 0.203700 0.179410
vt 0.165050 0.179410
vt 0.203700 0.186605
vt 0.165050 0.186605
vt 0.203700 0.186605
vt 0.165050 0.186605
vt 0.203700 0.179410
vt 0.165050 0.179410
vt 0.193316 0.214643
vt 0.193316 0.206697
vt 0.188075 0.203001
vt 0.188075 0.214643
vt 0.193316 0.201786
vt 0.188075 0.195806
vt 0.193316 0.201786
vt 0.188075 0.195806
vt 0.193316 0.206697
vt 0.188075 0.203001
vt 0.193316 0.214643
vt 0.188075 0.214643
vt 0.193316 0.222589
vt 0.188075 0.226285
vt 0.193316 0.227499
vt 0.188075 0.233480
vt 0.193316 0.227499
vt 0.188075 0.233480
vt 0.193316 0.222589
vt 0.188075 0.226285
vt 0.208941 0.167768
vt 0.208941 0.159822
vt 0.208941 0.167768
vt 0.208941 0.154911
vt 0.208941 0.154911
vt 0.208941 0.159822
vt 0.208941 0.167768
vt 0.208941 0.175714
vt 0.208941 0.180624
vt 0.208941 0.180624
vt 0.208941 0.175714
vt 0.188693 0.828054
vt 0.188693 0.842845
vt 0.188693 0.842845
vt 0.188693 0.828054
vt 0.181400 0.846353
vt 0.144020 0.846353
vt 0.144020 0.846353
vt 0.181400 0.846353
vt 0.181400 0.828054
vt 0.181400 0.842845
vt 0.144020 0.842845
vt 0.144020 0.828054
vt 0.144020 0.828054
vt 0.144020 0.842845
vt 0.181400 0.842845
vt 0.181400 0.828054
vt 0.393554 0.847937
vt 0.393554 0.890718
vt 0.443850 0.890718
vt 0.443850 0.847937
vt 0.443850 0.890718
vt 0.443850 0.847937
vt 0.466347 0.847937
vt 0.466347 0.890718
vt 0.393554 0.890718
vt 0.393554 0.847937
vt 0.185320 0.866489
vt 0.192613 0.869574
vt 0.185320 0.869574
vt 0.185320 0.885666
vt 0.185320 0.882580
vt 0.192613 0.882580
vt 0.185320 0.866489
vt 0.185320 0.869574
vt 0.192613 0.869574
vt 0.185320 0.885666
vt 0.192613 0.882580
vt 0.185320 0.882580
vt 0.147940 0.866489
vt 0.147940 0.869574
vt 0.147940 0.885666
vt 0.147940 0.882580
vt 0.147940 0.866489
vt 0.147940 0.869574
vt 0.147940 0.885666
vt 0.147940 0.882580
vt 0.144020 0.824546
vt 0.181400 0.824546
vt 0.181400 0.824546
vt 0.144020 0.824546
vt 0.466347 0.847937
vt 0.466347 0.890718
vt 0.467962 0.902867
vt 0.467962 0.902867
vt 0.467962 0.911398
vt 0.467962 0.911398
vt 0.446766 0.911398
vt 0.446766 0.911398
vt 0.450826 0.915213
vt 0.450826 0.915213
vt 0.446766 0.902867
vt 0.446766 0.902867
vt 0.463903 0.946463
vt 0.463903 0.946463
vt 0.450826 0.946463
vt 0.450826 0.946463
vt 0.463903 0.915213
vt 0.463903 0.915213
vt 0.411273 0.841778
vt 0.465364 0.841778
vt 0.465364 0.858416
vt 0.411273 0.858416
vn 0.0000 -1.0000 0.0000
vn -0.0000 0.6269 -0.7791
vn 0.0000 0.8598 -0.5106
vn -0.0000 0.6275 -0.7786
vn -0.0000 0.0000 1.0000
vn -0.6948 0.4589 -0.5538
vn -0.6141 0.6032 -0.5090
vn -0.6005 0.5906 -0.5391
vn -0.6955 0.4461 -0.5633
vn -0.7583 0.0000 0.6519
vn -0.7198 0.0000 0.6942
vn -0.2128 0.0000 0.9771
vn -0.2227 0.0000 0.9749
vn 1.0000 -0.0000 0.0000
vn 0.9883 -0.0000 0.1526
vn 0.9808 -0.0000 0.1951
vn 0.0000 0.3162 -0.9487
vn -0.8999 -0.3574 -0.2499
vn -0.9636 0.0000 -0.2675
vn -0.7928 0.3375 -0.5076
vn -0.7928 -0.3375 -0.5076
vn 0.4238 0.8981 -0.1177
vn 0.3014 0.8672 -0.3965
vn -0.3014 0.8672 -0.3965
vn -0.4238 0.8981 -0.1177
vn 0.0000 -0.8877 -0.4604
vn 0.7928 -0.3375 -0.5076
vn 0.7928 0.3375 -0.5076
vn 0.9636 0.0000 -0.2675
vn 0.8999 -0.3574 -0.2499
vn 0.2227 0.0000 0.9749
vn 0.2128 0.0000 0.9771
vn 0.7198 0.0000 0.6942
vn 0.7583 0.0000 0.6519
vn -0.0000 0.9371 0.3492
vn 0.0000 -0.9548 0.2971
vn -1.0000 -0.0000 0.0000
vn -0.9808 0.1951 0.0000
vn -0.9876 0.1568 0.0000
vn 0.0000 0.0000 -1.0000
vn -0.2750 -0.5992 -0.7519
vn -0.5378 -0.6019 -0.5903
vn -0.5857 -0.6516 -0.4821
vn -0.2158 -0.6091 -0.7631
vn -0.9808 -0.0000 0.1951
vn -0.9883 -0.0000 0.1526
vn 0.2381 0.4361 -0.8678
vn 0.4703 0.4703 -0.7467
vn 0.4851 0.4839 -0.7284
vn 0.1614 0.4436 -0.8816
vn 0.2178 0.9760 0.0000
vn 0.2271 0.9739 0.0000
vn -0.2271 0.9739 0.0000
vn -0.2178 0.9760 0.0000
vn -0.7579 0.6524 0.0000
vn -0.7233 0.6905 0.0000
vn 0.5378 -0.6019 -0.5903
vn 0.2750 -0.5992 -0.7519
vn 0.2158 -0.6091 -0.7631
vn 0.5857 -0.6516 -0.4821
vn 0.9876 0.1568 0.0000
vn 0.9808 0.1951 0.0000
vn -0.9831 -0.0002 -0.1829
vn -0.9637 -0.0003 -0.2671
vn 0.7233 0.6905 0.0000
vn 0.7579 0.6524 0.0000
vn -0.3014 -0.8672 -0.3965
vn -0.2770 -0.3375 -0.8997
vn -0.2770 0.3375 -0.8997
vn 0.3014 -0.8672 -0.3965
vn 0.2770 -0.3375 -0.8997
vn 0.2770 0.3375 -0.8997
vn 0.6813 -0.7071 -0.1892
vn 0.6813 0.7071 -0.1892
vn -0.6813 -0.7071 -0.1892
vn -0.6813 0.7071 -0.1892
vn 0.0000 0.8877 -0.4604
vn -0.8252 0.0000 -0.5648
vn 0.8252 0.0000 -0.5648
vn 0.6844 -0.7291 -0.0004
vn 0.6807 -0.7326 -0.0009
vn -0.6807 -0.7326 -0.0009
vn -0.6844 -0.7291 -0.0004
vn 0.4814 0.6093 0.6301
vn 0.1440 0.5893 0.7950
vn 0.1124 0.5917 0.7983
vn 0.4218 0.6043 0.6759
vn 0.1611 -0.7365 0.6570
vn 0.4991 -0.7307 0.4658
vn 0.4869 -0.7312 0.4778
vn 0.1311 -0.7397 0.6601
vn 0.6722 0.6456 0.3624
vn 0.6670 0.6405 0.3806
vn 0.6797 -0.7182 0.1491
vn 0.6818 -0.7209 0.1242
vn -0.4814 0.6093 0.6301
vn -0.6722 0.6456 0.3624
vn -0.6670 0.6405 0.3806
vn -0.4218 0.6043 0.6759
vn -0.6797 -0.7182 0.1491
vn -0.4991 -0.7307 0.4658
vn -0.4869 -0.7312 0.4778
vn -0.6818 -0.7209 0.1242
vn -0.1440 0.5893 0.7950
vn -0.1124 0.5917 0.7983
vn -0.1611 -0.7365 0.6570
vn -0.1311 -0.7397 0.6601
vn -0.6979 0.6712 0.2499
vn 0.6979 0.6712 0.2499
vn -0.6585 -0.7214 -0.2144
vn -0.6657 -0.7273 -0.1667
vn 0.6657 -0.7273 -0.1667
vn 0.6585 -0.7214 -0.2144
vn 0.6955 0.4461 -0.5633
vn 0.6005 0.5906 -0.5391
vn 0.6141 0.6032 -0.5090
vn 0.6948 0.4589 -0.5538
vn 0.7668 -0.0003 -0.6419
vn 0.7328 -0.0003 -0.6805
vn 0.3028 0.0000 -0.9530
vn 0.3314 0.0000 -0.9435
vn -0.7328 -0.0003 -0.6805
vn -0.7668 -0.0003 -0.6419
vn -0.3314 0.0000 -0.9435
vn -0.3028 0.0000 -0.9530
vn -0.4703 0.4703 -0.7467
vn -0.2381 0.4361 -0.8678
vn -0.1614 0.4436 -0.8816
vn -0.4851 0.4839 -0.7284
vn 0.9637 -0.0003 -0.2671
vn 0.9831 -0.0002 -0.1829
vn 0.4782 0.6086 -0.6332
vn 0.1463 0.7735 -0.6167
vn 0.1137 0.7770 -0.6192
vn 0.4224 0.6526 -0.6291
vn 0.1674 0.6659 0.7271
vn 0.5142 0.4724 0.7159
vn 0.4989 0.4871 0.7168
vn 0.1359 0.6692 0.7306
vn 0.6603 0.3447 -0.6672
vn 0.6570 0.3579 -0.6635
vn 0.6978 0.1532 0.6998
vn 0.7003 0.1282 0.7022
vn -0.5142 0.4724 0.7159
vn -0.1674 0.6659 0.7271
vn -0.1359 0.6692 0.7306
vn -0.4989 0.4871 0.7168
vn -0.1463 0.7735 -0.6167
vn -0.4782 0.6086 -0.6332
vn -0.4224 0.6526 -0.6291
vn -0.1137 0.7770 -0.6192
vn -0.6978 0.1532 0.6998
vn -0.7003 0.1282 0.7022
vn -0.6603 0.3447 -0.6672
vn -0.6570 0.3579 -0.6635
vn 0.7063 0.0001 0.7079
vn -0.7063 0.0001 0.7079
vn 0.8634 0.5046 0.0000
vn -0.8634 0.5046 0.0000
vn 0.6021 0.0000 0.7985
vn 0.9549 -0.2969 0.0000
vn 0.6021 0.0000 -0.7985
vn -0.6021 0.0000 -0.7984
vn -0.9549 -0.2969 0.0000
vn -0.6021 0.0000 0.7984
vn 0.8536 0.0000 0.5209
vn 0.0000 0.9548 0.2971
vn -0.8536 0.0000 0.5209
vn 0.9861 -0.0000 0.1662
vn 0.9411 0.0000 0.3382
vn 0.7613 -0.5531 0.3382
vn 0.7978 -0.5796 0.1662
vn 0.2908 -0.8950 0.3382
vn 0.3047 -0.9378 0.1662
vn -0.2908 -0.8950 0.3382
vn -0.3047 -0.9378 0.1662
vn -0.7613 -0.5531 0.3382
vn -0.7978 -0.5796 0.1662
vn -0.9411 0.0000 0.3382
vn -0.9861 0.0000 0.1662
vn -0.7613 0.5531 0.3382
vn -0.7978 0.5796 0.1662
vn -0.2908 0.8950 0.3382
vn -0.3047 0.9378 0.1662
vn 0.2908 0.8950 0.3382
vn 0.3047 0.9378 0.1662
vn -0.7731 0.5617 0.2945
vn -0.9557 -0.0000 0.2945
vn 0.7613 0.5531 0.3382
vn 0.7978 0.5796 0.1662
vn 0.3090 -0.9511 0.0000
vn 0.8090 -0.5878 0.0000
vn -0.2953 -0.9089 0.2945
vn 0.2953 -0.9089 0.2945
vn 0.9557 -0.0000 0.2945
vn 0.7731 0.5617 0.2945
vn -0.2953 0.9089 0.2945
vn -0.7731 -0.5617 0.2945
vn 0.7731 -0.5617 0.2945
vn 0.2953 0.9089 0.2945
vn 0.1113 -0.0809 0.9905
vn 0.1376 -0.0000 0.9905
vn 0.0425 -0.1309 0.9905
vn -0.0425 -0.1309 0.9905
vn -0.1113 -0.0809 0.9905
vn -0.1376 -0.0000 0.9905
vn -0.1113 0.0809 0.9905
vn -0.0425 0.1309 0.9905
vn 0.0425 0.1309 0.9905
vn 0.1113 0.0809 0.9905
vn 0.8090 0.5878 0.0000
vn 0.3090 0.9511 0.0000
vn -0.3090 0.9511 0.0000
vn -0.8090 0.5878 0.0000
vn -0.8090 -0.5878 0.0000
vn -0.3090 -0.9511 0.0000
vn 0.3977 0.0000 0.9175
vn 0.3218 -0.2338 0.9175
vn 0.5180 -0.3763 0.7681
vn 0.6403 0.0000 0.7681
vn 0.1229 -0.3782 0.9175
vn 0.1979 -0.6089 0.7681
vn -0.1229 -0.3782 0.9175
vn -0.1979 -0.6089 0.7681
vn -0.3218 -0.2338 0.9175
vn -0.5180 -0.3763 0.7681
vn -0.3977 0.0000 0.9175
vn -0.6403 0.0000 0.7681
vn -0.3218 0.2338 0.9175
vn -0.5180 0.3763 0.7681
vn -0.1229 0.3782 0.9175
vn -0.1979 0.6089 0.7681
vn 0.1229 0.3782 0.9175
vn 0.1979 0.6089 0.7681
vn 0.3218 0.2338 0.9175
vn 0.5180 0.3763 0.7681
vn 0.3416 -0.3416 0.8756
vn -0.3416 0.3416 0.8756
vn -0.3416 -0.3416 0.8756
vn 0.3416 0.8756 0.3416
vn 0.3827 0.9239 0.0000
vn -0.3827 0.9239 0.0000
vn -0.3416 0.8756 0.3416
vn -0.8756 -0.3416 0.3416
vn -0.9239 -0.3827 0.0000
vn 0.9239 -0.3827 0.0000
vn 0.8756 0.3416 0.3416
vn 0.8756 -0.3416 0.3416
vn -0.6849 0.0000 0.7286
vn -0.3683 0.0000 0.9297
vn 0.0000 1.0000 0.0000
vn -0.4606 -0.7588 0.4606
vn -0.7588 0.4606 0.4606
vn 0.4606 -0.7588 0.4606
vn 0.4606 0.4606 0.7588
vn 0.7071 -0.7071 0.0000
vn 0.7071 0.7071 0.0000
vn -0.7071 -0.7071 0.0000
vn -0.7071 0.7071 0.0000
vn 0.3683 0.0000 0.9297
vn 0.6849 0.0000 0.7286
vn -0.6849 0.7286 -0.0000
vn -0.3683 0.9297 -0.0000
vn 0.3683 0.9297 0.0000
vn 0.6849 0.7286 0.0000
usemtl KayKit_Texture_A
s 1
f 60/1/1 10/2/1 61/3/1
f 47/4/2 134/5/3 119/6/3 12/7/4
f 3/8/5 50/9/5 95/10/5 16/11/5
f 72/12/1 57/13/1 10/2/1 7/14/1
f 85/15/1 132/16/1 113/17/1
f 45/18/1 69/19/1 7/14/1 6/20/1
f 55/21/5 1/22/5 15/23/5 104/24/5
f 131/25/1 46/26/1 5/27/1 114/28/1
f 69/19/1 73/29/1 7/14/1
f 56/30/6 127/31/7 126/32/8 144/33/9
f 67/34/10 62/35/11 154/36/12 155/37/13
f 138/38/14 142/39/14 77/40/15 70/41/16
f 121/42/1 82/43/1 116/44/1
f 98/45/5 16/11/5 99/46/5
f 110/47/17 13/48/17 111/49/17
f 14/50/17 13/48/17 110/47/17 89/51/17
f 29/52/18 32/53/19 20/54/20 18/55/21
f 36/56/22 26/57/23 21/58/24 31/59/25
f 22/60/26 28/61/26 44/62/26 43/63/26
f 25/64/27 27/65/28 35/66/29 34/67/30
f 73/29/1 72/12/1 7/14/1
f 156/68/31 153/69/32 74/70/33 79/71/34
f 2/72/35 63/73/35 68/74/35
f 76/75/36 65/76/36 159/77/36 160/78/36
f 9/79/1 10/2/1 60/1/1 53/80/1
f 144/81/37 143/82/37 103/83/38 108/84/39
f 81/85/40 84/86/40 87/87/40 86/88/40
f 82/89/41 121/90/42 124/91/43 287/92/44
f 59/93/45 64/94/46 143/95/37 139/96/37
f 88/97/47 133/98/48 136/99/49 289/100/50
f 97/101/51 90/102/52 109/103/53 102/104/54
f 16/11/5 95/10/5 99/46/5
f 104/24/5 15/23/5 106/105/5
f 13/48/17 107/106/17 111/49/17
f 47/107/2 12/108/4 14/50/17 92/109/17
f 12/7/4 119/6/3 118/110/3 11/111/4
f 11/112/4 56/113/2 107/106/17 13/48/17
f 102/104/54 109/103/53 112/114/55 105/115/56
f 75/116/35 80/117/35 4/118/35
f 80/117/35 78/119/35 4/118/35
f 2/72/35 4/118/35 3/120/35 1/121/35
f 15/23/5 101/122/5 106/105/5
f 10/2/1 57/13/1 61/3/1
f 132/123/57 85/124/58 288/125/59 129/126/60
f 142/127/14 141/128/14 91/129/61 96/130/62
f 88/131/3 83/132/3 117/133/3 120/134/3
f 66/135/35 75/116/35 4/118/35 2/72/35
f 79/71/34 74/70/33 70/41/16 77/40/15
f 6/20/1 7/14/1 10/2/1 9/79/1
f 5/27/1 6/20/1 9/79/1 8/136/1
f 82/43/1 85/15/1 113/17/1 116/44/1
f 140/137/37 144/138/37 126/139/63 123/140/64
f 64/94/46 59/93/45 62/35/11 67/34/10
f 11/111/4 118/110/3 127/141/3 56/142/2
f 92/109/17 14/50/17 94/143/17
f 115/144/1 8/136/1 52/145/1 122/146/1
f 4/118/35 78/119/35 50/147/35 3/120/35
f 90/102/52 97/101/51 100/148/65 93/149/66
f 14/50/17 89/51/17 94/143/17
f 12/108/4 11/112/4 13/48/17 14/50/17
f 117/133/3 83/132/3 128/150/3
f 133/151/3 88/131/3 120/134/3
f 93/149/66 100/148/65 96/130/62 91/129/61
f 1/22/5 3/8/5 16/11/5 15/23/5
f 63/73/35 2/72/35 1/121/35 55/152/35
f 8/136/1 9/79/1 53/80/1 52/145/1
f 105/115/56 112/114/55 108/84/39 103/83/38
f 15/23/5 16/11/5 98/45/5 101/122/5
f 66/135/35 2/72/35 68/74/35
f 17/153/67 18/154/21 37/155/68
f 20/156/20 21/58/24 39/157/69
f 23/158/70 38/159/71 25/160/27
f 26/57/23 27/161/28 40/162/72
f 23/158/70 17/153/67 37/155/68 38/159/71
f 18/55/21 20/54/20 39/163/69 37/164/68
f 21/58/24 26/57/23 40/162/72 39/157/69
f 27/65/28 25/64/27 38/165/71 40/166/72
f 33/167/73 23/158/70 25/160/27 34/168/30
f 26/57/23 36/56/22 35/169/74 27/161/28
f 17/153/67 30/170/75 29/171/18 18/154/21
f 31/59/25 21/58/24 20/156/20 32/172/76
f 23/158/70 33/167/1 30/170/1 17/153/67
f 19/173/40 24/174/40 38/165/71 37/164/68
f 22/175/40 19/173/40 37/164/68 39/163/69
f 28/176/40 22/175/40 39/163/69 40/166/72
f 24/174/40 28/176/40 40/166/72 38/165/71
f 41/177/40 43/178/40 44/179/40 42/180/40
f 24/181/77 19/182/77 41/183/77 42/184/77
f 28/185/78 24/186/78 42/187/78 44/188/78
f 19/189/79 22/190/79 43/191/79 41/192/79
f 45/193/80 46/194/81 137/195/81 138/196/80
f 52/197/82 53/198/83 139/199/83 140/200/82
f 80/201/84 75/202/85 156/203/86 79/204/87
f 72/205/88 73/206/89 74/207/90 153/208/91
f 78/209/92 80/201/84 79/204/87 77/210/93
f 73/206/89 69/211/94 70/212/95 74/207/90
f 68/213/96 63/214/97 64/215/98 67/216/99
f 60/217/100 61/218/101 62/219/102 59/220/103
f 66/221/104 68/213/96 67/216/99 155/222/105
f 61/218/101 57/223/106 154/224/107 62/219/102
f 53/198/83 60/217/100 59/220/103 139/199/83
f 63/214/97 55/225/108 143/226/108 64/215/98
f 138/196/80 70/212/95 69/211/94 45/193/80
f 153/208/91 154/224/107 57/223/106 72/205/88
f 75/202/85 66/221/104 155/222/105 156/203/86
f 77/210/93 142/227/109 50/228/109 78/209/92
f 122/229/110 52/197/82 140/200/82 123/230/111
f 130/231/112 137/195/81 46/194/81 131/232/113
f 141/233/114 135/234/115 134/235/116 47/236/117
f 136/237/118 129/238/119 288/239/120 289/240/121
f 124/241/122 125/242/123 290/243/124 287/244/125
f 128/245/126 83/246/127 290/247/128 125/248/129
f 287/92/44 288/125/59 85/124/58 82/89/41
f 130/249/130 135/250/131 141/251/14 137/252/14
f 83/246/127 88/97/47 289/100/50 290/247/128
f 94/253/132 89/254/133 90/255/134 93/256/135
f 98/257/136 99/258/137 100/259/138 97/260/139
f 92/261/140 94/253/132 93/256/135 91/262/141
f 99/258/137 95/263/142 96/264/143 100/259/138
f 106/265/144 101/266/145 102/267/146 105/268/147
f 110/269/148 111/270/149 112/271/150 109/272/151
f 104/273/152 106/265/144 105/268/147 103/274/153
f 111/270/149 107/275/154 108/276/155 112/271/150
f 95/263/142 50/228/156 142/227/156 96/264/143
f 47/236/117 92/261/140 91/262/141 141/233/114
f 144/33/9 108/276/155 107/275/154 56/30/6
f 109/272/151 90/255/134 89/254/133 110/269/148
f 101/266/145 98/257/136 97/260/139 102/267/146
f 103/274/153 143/226/157 55/225/157 104/273/152
f 46/26/1 45/18/1 6/20/1 5/27/1
f 114/28/1 115/144/1 116/44/1 113/17/1
f 120/134/3 117/133/3 118/110/3 119/6/3
f 122/229/110 123/230/111 124/91/43 121/90/42
f 126/32/8 127/31/7 128/245/126 125/248/129
f 134/235/116 135/234/115 136/99/49 133/98/48
f 130/231/112 131/232/113 132/123/57 129/126/60
f 129/238/119 136/237/118 135/250/131 130/249/130
f 113/17/1 132/16/1 131/25/1 114/28/1
f 133/151/3 120/134/3 119/6/3 134/5/3
f 121/42/1 116/44/1 115/144/1 122/146/1
f 125/242/123 124/241/122 123/140/64 126/139/63
f 117/133/3 128/150/3 127/141/3 118/110/3
f 114/28/1 5/27/1 8/136/1 115/144/1
f 145/277/14 146/278/14 138/38/14 137/252/14
f 147/279/37 148/280/37 140/137/37 139/96/37
f 149/281/14 145/277/14 137/252/14 141/251/14
f 150/282/14 149/281/14 141/251/14 142/39/14
f 146/278/14 150/282/14 142/39/14 138/38/14
f 151/283/37 147/279/37 139/96/37 143/95/37
f 152/284/37 151/283/37 143/95/37 144/138/37
f 148/280/37 152/284/37 144/138/37 140/137/37
f 48/285/158 49/286/158 146/278/158 145/277/158
f 54/287/159 51/288/159 148/280/159 147/279/159
f 48/285/160 145/277/160 149/281/160
f 49/289/161 48/290/161 149/291/161 150/292/161
f 49/286/162 150/282/162 146/278/162
f 54/287/163 147/279/163 151/283/163
f 51/293/164 54/294/164 151/295/164 152/296/164
f 51/288/165 152/284/165 148/280/165
f 71/297/5 58/298/5 154/36/12 153/69/32
f 65/299/5 76/300/5 156/68/31 155/37/13
f 58/298/5 65/299/5 155/37/13 154/36/12
f 76/300/5 71/297/5 153/69/32 156/68/31
f 157/301/5 160/302/5 159/303/5 158/304/5
f 65/305/166 58/306/166 158/307/166 159/308/166
f 58/309/167 71/310/167 157/311/167 158/312/167
f 71/313/168 76/314/168 160/315/168 157/316/168
f 161/317/169 182/318/170 181/319/171 163/320/172
f 163/320/172 181/319/171 183/321/173 165/322/174
f 165/322/174 183/321/173 184/323/175 167/324/176
f 167/324/176 184/323/175 185/325/177 169/326/178
f 169/326/178 185/325/177 186/327/179 171/328/180
f 171/328/180 186/327/179 187/329/181 173/330/182
f 173/330/182 187/329/181 188/331/183 175/332/184
f 175/332/184 188/331/183 189/333/185 177/334/186
f 164/335/187 162/336/188 193/337/188 192/338/187
f 177/334/186 189/333/185 190/339/189 179/340/190
f 179/340/190 190/339/189 182/318/170 161/317/169
f 163/341/172 165/342/174 204/343/191 203/344/192
f 162/345/5 164/346/5 181/347/5 182/348/5
f 164/346/5 166/349/5 183/350/5 181/347/5
f 166/349/5 168/351/5 184/352/5 183/350/5
f 168/351/5 170/353/5 185/354/5 184/352/5
f 170/353/5 172/355/5 186/356/5 185/354/5
f 172/355/5 174/357/5 187/358/5 186/356/5
f 174/357/5 176/359/5 188/360/5 187/358/5
f 176/359/5 178/361/5 189/362/5 188/360/5
f 178/361/5 180/363/5 190/364/5 189/362/5
f 180/363/5 162/345/5 182/348/5 190/364/5
f 178/365/193 176/366/194 199/367/194 200/368/193
f 172/369/195 170/370/196 196/371/196 197/372/195
f 166/373/197 164/335/187 192/338/187 194/374/197
f 180/375/198 178/365/193 200/368/193 201/376/198
f 174/377/199 172/369/195 197/372/195 198/378/199
f 168/379/200 166/373/197 194/374/197 195/380/200
f 162/336/188 180/375/198 201/376/198 193/337/188
f 176/366/194 174/377/199 198/378/199 199/367/194
f 170/370/196 168/379/200 195/380/200 196/371/196
f 191/381/5 192/382/201 193/383/202
f 191/381/5 194/384/203 192/382/201
f 191/381/5 195/385/204 194/384/203
f 191/381/5 196/386/205 195/385/204
f 191/381/5 197/387/206 196/386/205
f 191/381/5 198/388/207 197/387/206
f 191/381/5 199/389/208 198/388/207
f 191/381/5 200/390/209 199/389/208
f 191/381/5 201/391/210 200/390/209
f 191/381/5 193/383/202 201/391/210
f 179/392/190 161/393/169 202/394/14 211/395/211
f 177/396/186 179/392/190 211/395/211 210/397/212
f 175/398/184 177/396/186 210/397/212 209/399/213
f 173/400/182 175/398/184 209/399/213 208/401/214
f 171/402/180 173/400/182 208/401/214 207/403/37
f 169/404/178 171/402/180 207/403/37 206/405/215
f 167/406/176 169/404/178 206/405/215 205/407/216
f 161/393/169 163/341/172 203/344/192 202/394/14
f 165/342/174 167/406/176 205/407/216 204/343/191
f 212/408/14 224/409/14 223/410/192 214/411/192
f 214/411/192 223/410/192 225/412/191 215/413/191
f 215/413/191 225/412/191 226/414/216 216/415/216
f 216/415/216 226/414/216 227/416/215 217/417/215
f 217/417/215 227/416/215 228/418/37 218/419/37
f 218/419/37 228/418/37 229/420/214 219/421/214
f 219/421/214 229/420/214 230/422/213 220/423/213
f 220/423/213 230/422/213 231/424/212 221/425/212
f 221/425/212 231/424/212 232/426/211 222/427/211
f 222/427/211 232/426/211 224/409/14 212/408/14
f 234/428/217 233/429/218 223/430/219 224/431/220
f 233/429/218 235/432/221 225/433/222 223/430/219
f 235/432/221 236/434/223 226/435/224 225/433/222
f 236/434/223 237/436/225 227/437/226 226/435/224
f 237/436/225 238/438/227 228/439/228 227/437/226
f 238/438/227 239/440/229 229/441/230 228/439/228
f 239/440/229 240/442/231 230/443/232 229/441/230
f 240/442/231 241/444/233 231/445/234 230/443/232
f 241/444/233 242/446/235 232/447/236 231/445/234
f 242/446/235 234/428/217 224/431/220 232/447/236
f 213/448/5 233/449/218 234/450/217
f 213/448/5 235/451/221 233/449/218
f 213/448/5 236/452/223 235/451/221
f 213/448/5 237/453/225 236/452/223
f 213/448/5 238/454/227 237/453/225
f 213/448/5 239/455/229 238/454/227
f 213/448/5 240/456/231 239/455/229
f 213/448/5 241/457/233 240/456/231
f 213/448/5 242/458/235 241/457/233
f 213/448/5 234/450/217 242/458/235
f 267/459/237 269/460/5 264/461/238 260/462/239
f 268/463/240 257/464/241 254/465/242 262/466/243
f 261/467/244 263/468/37 253/469/37 252/470/245
f 255/471/246 258/472/14 270/473/247 266/474/248
f 245/475/14 246/476/14 250/477/14 249/478/14
f 248/479/249 247/480/249 273/481/250 274/482/250
f 247/480/37 248/479/37 244/483/37 243/484/37
f 245/475/1 249/478/1 247/480/1 243/484/1
f 250/477/251 246/476/251 244/483/251 248/479/251
f 259/485/252 260/486/239 261/487/244
f 262/488/243 263/489/253 264/490/238
f 265/491/254 266/492/248 267/493/237
f 268/494/240 269/495/255 270/496/247
f 265/491/254 256/497/256 255/498/246 266/492/248
f 257/499/241 268/494/240 270/496/247 258/500/257
f 269/495/255 267/493/237 266/492/248 270/496/247
f 259/485/252 265/491/254 267/493/237 260/486/239
f 268/494/240 262/488/243 264/490/238 269/495/255
f 263/489/253 261/487/244 260/486/239 264/490/238
f 251/501/258 259/485/252 261/487/244 252/502/245
f 262/488/243 254/503/242 253/504/259 263/489/253
f 256/505/1 265/506/1 259/507/1 251/508/1
f 272/509/260 271/510/260 274/482/250 273/481/250
f 247/480/1 249/478/1 272/509/1 273/481/1
f 250/477/251 248/479/251 274/482/251 271/510/251
f 249/478/261 250/477/261 271/510/260 272/509/260
f 277/511/14 278/512/14 282/513/14 281/514/14
f 280/515/262 279/516/262 285/517/263 286/518/263
f 279/516/37 280/515/37 276/519/37 275/520/37
f 277/511/5 281/514/5 279/516/5 275/520/5
f 282/513/40 278/512/40 276/519/40 280/515/40
f 284/521/264 283/522/264 286/523/263 285/524/263
f 279/516/5 281/514/5 284/525/5 285/517/5
f 282/513/40 280/515/40 286/518/40 283/526/40
f 281/514/265 282/513/265 283/526/264 284/525/264
f 81/527/40 86/528/40 288/239/120 287/244/125
f 87/529/40 84/530/40 290/243/124 289/240/121
f 84/530/40 81/527/40 287/244/125 290/243/124
f 86/528/40 87/529/40 289/240/121 288/239/120
