# Blender v3.4.1 OBJ File: 'MixedBag1_Export.blend'
# www.blender.org
mtllib instantcamera_picture_B.mtl
o instantcamera_picture_B
v -0.170943 -0.227184 0.014245
v 0.170943 -0.227184 0.014245
v -0.170943 0.200174 0.014245
v 0.170943 0.200174 0.014245
v -0.142065 0.168639 0.014245
v -0.142065 -0.141629 0.014245
v 0.142065 -0.141629 0.014245
v 0.142065 0.168639 0.014245
v -0.142065 0.168639 -0.014245
v -0.142065 -0.141629 -0.014245
v 0.142065 -0.141629 -0.014245
v 0.142065 0.168639 -0.014245
v -0.170943 0.200174 -0.014245
v -0.170943 -0.227184 -0.014245
v 0.170943 -0.227184 -0.014245
v 0.170943 0.200174 -0.014245
vt 0.016985 0.841752
vt 0.108015 0.841752
vt 0.108015 0.932781
vt 0.016985 0.932781
vt 0.160663 0.859618
vt 0.160663 0.913293
vt 0.152151 0.921804
vt 0.152151 0.824496
vt 0.214337 0.859618
vt 0.222849 0.824496
vt 0.214337 0.913293
vt 0.222849 0.921804
vt 0.016985 0.841752
vt 0.016985 0.932781
vt 0.108015 0.932781
vt 0.108015 0.841752
vt 0.160663 0.859618
vt 0.152151 0.824496
vt 0.152151 0.921804
vt 0.160663 0.913293
vt 0.214337 0.859618
vt 0.222849 0.824496
vt 0.214337 0.913293
vt 0.222849 0.921804
vn 0.0000 0.0000 1.0000
vn -0.0000 0.0000 -1.0000
vn 0.0000 1.0000 0.0000
vn 0.0000 -1.0000 0.0000
vn 1.0000 0.0000 0.0000
vn -1.0000 0.0000 0.0000
usemtl KayKit_Texture_A
s 1
f 6/1/1 7/2/1 8/3/1 5/4/1
f 6/5/1 5/6/1 3/7/1 1/8/1
f 7/9/1 6/5/1 1/8/1 2/10/1
f 8/11/1 7/9/1 2/10/1 4/12/1
f 5/6/1 8/11/1 4/12/1 3/7/1
f 10/13/2 9/14/2 12/15/2 11/16/2
f 10/17/2 14/18/2 13/19/2 9/20/2
f 11/21/2 15/22/2 14/18/2 10/17/2
f 12/23/2 16/24/2 15/22/2 11/21/2
f 9/20/2 13/19/2 16/24/2 12/23/2
f 4/12/3 16/24/3 13/19/3 3/7/3
f 1/8/4 14/18/4 15/22/4 2/10/4
f 2/10/5 15/22/5 16/24/5 4/12/5
f 3/7/6 13/19/6 14/18/6 1/8/6
