# Blender v3.4.1 OBJ File: 'MixedBag1_Export.blend'
# www.blender.org
mtllib mining_helmet.mtl
o mining_helmet
v -0.317517 0.478399 0.316799
v -0.316663 0.477545 -0.315945
v 0.317517 0.478399 0.316799
v 0.316663 0.477545 -0.315945
v -0.360546 0.283985 0.360544
v -0.377528 0.537691 0.125183
v -0.377453 0.537617 -0.125161
v -0.358521 0.283396 -0.358519
v -0.125562 0.538126 -0.375568
v 0.125563 0.538126 -0.375568
v 0.358521 0.283396 -0.358519
v 0.377453 0.537617 -0.125161
v 0.377528 0.537691 0.125183
v 0.360546 0.283985 0.360544
v 0.126900 0.538613 0.376066
v -0.126900 0.538613 0.376066
v 0.145463 0.662287 -0.138295
v 0.145463 0.662287 0.138295
v -0.145463 0.662287 -0.138295
v -0.145463 0.662287 0.138295
v 0.133913 0.301323 0.484236
v -0.133913 0.301323 0.484236
v 0.479457 0.300194 -0.132738
v 0.479799 0.300276 0.132822
v -0.119577 0.301831 -0.487652
v 0.119577 0.301831 -0.487652
v -0.479799 0.300276 0.132822
v -0.479457 0.300194 -0.132738
v -0.343176 0.399573 0.343059
v -0.349574 0.509852 -0.239849
v 0.349946 0.510224 0.240085
v -0.241783 0.510773 0.349052
v -0.368682 0.136616 0.369092
v -0.349946 0.510224 0.240085
v -0.387216 0.547380 -0.000000
v -0.341691 0.398651 -0.341573
v -0.366544 0.135489 -0.366544
v 0.341691 0.398651 -0.341573
v 0.366544 0.135489 -0.366544
v 0.349574 0.509852 -0.239849
v 0.387216 0.547380 0.000000
v 0.343176 0.399573 0.343059
v 0.368682 0.136616 0.369093
v 0.241783 0.510773 0.349052
v -0.000000 0.548260 0.385350
v 0.134621 0.615524 0.267465
v 0.134621 0.615524 -0.267465
v 0.149727 0.677953 0.000000
v -0.134621 0.615524 0.267465
v -0.134621 0.615524 -0.267465
v -0.149727 0.677953 0.000000
v -0.257789 0.290578 0.437229
v 0.257789 0.290578 0.437229
v -0.000000 0.305627 0.500055
v 0.136363 0.137847 0.497068
v -0.136363 0.137847 0.497068
v 0.129028 0.431014 0.449281
v -0.129028 0.431014 0.449281
v 0.434776 0.289983 0.256454
v 0.433561 0.289684 -0.255794
v 0.494903 0.304414 0.000000
v 0.491785 0.135602 -0.135158
v 0.492251 0.135715 0.135475
v 0.446348 0.429303 -0.128015
v 0.446570 0.429423 0.128072
v 0.255798 0.289676 -0.433561
v -0.255798 0.289676 -0.433561
v -0.132027 0.137902 -0.490687
v 0.132027 0.137902 -0.490687
v -0.122085 0.431072 -0.449606
v 0.122085 0.431072 -0.449606
v -0.433561 0.289684 -0.255794
v -0.434776 0.289983 0.256454
v -0.494903 0.304414 -0.000000
v -0.492251 0.135715 0.135475
v -0.491785 0.135602 -0.135158
v -0.446570 0.429424 0.128072
v -0.446348 0.429303 -0.128015
v -0.407161 0.410846 -0.246494
v 0.246681 0.410815 -0.406987
v 0.408011 0.411305 0.246959
v -0.248038 0.412166 0.409470
v -0.000000 0.628261 0.273515
v -0.262822 0.137319 0.448394
v 0.262822 0.137319 0.448394
v -0.000000 0.138032 0.513451
v 0.248038 0.412166 0.409470
v -0.000000 0.438322 0.462502
v 0.445738 0.136167 0.261931
v 0.444256 0.135564 -0.260779
v 0.507786 0.135584 0.000026
v 0.407161 0.410846 -0.246494
v 0.459459 0.436529 0.000000
v 0.260779 0.135564 -0.444256
v -0.260779 0.135564 -0.444256
v 0.000000 0.141201 -0.503549
v -0.246681 0.410815 -0.406987
v -0.444256 0.135564 -0.260779
v -0.445738 0.136167 0.261931
v -0.507786 0.135584 0.000026
v -0.408011 0.411305 0.246959
v -0.459459 0.436529 -0.000000
v -0.328991 0.059901 0.328636
v -0.329833 0.062454 -0.329931
v 0.329833 0.062454 -0.329931
v 0.328992 0.059901 0.328636
v 0.120562 0.057748 0.441099
v -0.120562 0.057748 0.441099
v 0.443223 0.062426 -0.121104
v 0.443010 0.062094 0.120723
v -0.121007 0.062461 -0.443324
v 0.121007 0.062461 -0.443324
v -0.443010 0.062094 0.120723
v -0.443222 0.062426 -0.121104
v -0.233219 0.058614 0.398636
v 0.233220 0.058614 0.398636
v 0.000000 0.057449 0.455300
v 0.399817 0.061206 0.233360
v 0.400396 0.062441 -0.234095
v 0.457517 0.062408 -0.000115
v 0.233998 0.062458 -0.400495
v -0.233997 0.062458 -0.400495
v 0.000000 0.062462 -0.457646
v -0.400395 0.062441 -0.234095
v -0.399816 0.061206 0.233360
v -0.457516 0.062408 -0.000115
v -0.108315 0.592569 -0.406690
v -0.000000 0.602111 -0.415895
v 0.108315 0.592569 -0.406690
v 0.123849 0.724631 0.142276
v 0.106861 0.672522 0.249480
v 0.114696 0.674588 -0.290060
v 0.123853 0.724656 -0.151993
v 0.127459 0.741343 -0.004913
v -0.123850 0.724631 0.142276
v -0.106862 0.672522 0.249480
v -0.114697 0.674588 -0.290060
v -0.123854 0.724656 -0.151993
v -0.127460 0.741343 -0.004913
v -0.000000 0.740413 -0.155385
v -0.000000 0.740387 0.145663
v -0.000001 0.307142 -0.505280
v -0.107737 0.458120 -0.497123
v 0.107736 0.458120 -0.497123
v -0.000000 0.684164 0.253896
v -0.000000 0.687326 -0.296376
v -0.000000 0.758225 -0.004913
v -0.000000 0.464954 -0.508832
v -0.154182 -0.000556 0.659001
v -0.158198 0.022024 0.687081
v -0.307133 0.021469 0.620618
v -0.298705 -0.001113 0.594125
v -0.435001 0.020498 0.509527
v -0.421831 -0.002036 0.486549
v 0.421831 -0.002036 0.486549
v 0.435001 0.020498 0.509527
v 0.307133 0.021469 0.620618
v 0.298705 -0.001113 0.594125
v 0.158198 0.022024 0.687081
v 0.154182 -0.000556 0.659001
v -0.000000 0.022198 0.709087
v -0.000000 -0.000381 0.680575
v 0.564976 -0.003229 0.175397
v 0.585191 0.018686 0.184933
v 0.528922 0.019355 0.359229
v 0.511710 -0.002907 0.341939
v 0.419057 -0.001835 -0.419040
v 0.435370 0.019788 -0.435356
v 0.529633 0.019559 -0.307137
v 0.509648 -0.002098 -0.296252
v 0.585884 0.019240 -0.158103
v 0.564191 -0.002462 -0.152788
v 0.604186 0.018805 0.000268
v 0.582397 -0.002954 0.000297
v 0.152771 -0.001658 -0.563981
v 0.158307 0.019942 -0.586594
v 0.307327 0.019893 -0.529934
v 0.296227 -0.001715 -0.509546
v -0.419057 -0.001835 -0.419040
v -0.435370 0.019788 -0.435356
v -0.307327 0.019893 -0.529933
v -0.296227 -0.001715 -0.509546
v -0.158307 0.019942 -0.586594
v -0.152771 -0.001658 -0.563981
v -0.000000 0.019959 -0.605382
v 0.000000 -0.001639 -0.582078
v -0.564191 -0.002462 -0.152788
v -0.585884 0.019240 -0.158103
v -0.529633 0.019559 -0.307137
v -0.509648 -0.002098 -0.296252
v -0.528922 0.019355 0.359229
v -0.511710 -0.002907 0.341939
v -0.585191 0.018686 0.184933
v -0.564976 -0.003229 0.175397
v -0.604186 0.018805 0.000268
v -0.582397 -0.002954 0.000297
v 0.192675 0.521717 -0.359650
v 0.284618 0.491265 -0.329617
v 0.226277 0.487679 -0.325193
v -0.284618 0.491265 -0.329617
v -0.192675 0.521717 -0.359650
v -0.226277 0.487678 -0.325193
v 0.226964 0.632645 -0.133240
v 0.314139 0.585313 -0.128319
v 0.256844 0.584396 -0.123477
v 0.314143 0.585360 0.128329
v 0.226936 0.632655 0.133242
v 0.256861 0.584394 0.123504
v -0.314139 0.585313 -0.128319
v -0.226964 0.632645 -0.133240
v -0.256844 0.584396 -0.123477
v -0.226936 0.632655 0.133242
v -0.314144 0.585360 0.128329
v -0.256861 0.584394 0.123504
v -0.207821 0.592413 0.258024
v -0.296501 0.548278 0.246756
v -0.239321 0.547760 0.239066
v 0.296501 0.548278 0.246756
v 0.207821 0.592413 0.258024
v 0.239321 0.547760 0.239066
v 0.207832 0.592324 -0.257978
v 0.296376 0.547997 -0.246607
v 0.239399 0.548160 -0.237807
v 0.234254 0.645974 0.000000
v 0.321021 0.597820 0.000000
v 0.263580 0.596507 0.000002
v -0.296376 0.547997 -0.246607
v -0.207832 0.592324 -0.257978
v -0.239399 0.548160 -0.237807
v -0.321021 0.597820 -0.000000
v -0.234254 0.645974 -0.000000
v -0.263580 0.596507 0.000002
v -0.424186 0.193006 0.262466
v -0.372069 0.373798 0.207367
v 0.423025 0.125981 -0.234954
v 0.371050 0.314567 -0.233553
v 0.220826 0.302073 -0.407132
v 0.251757 0.112524 -0.429607
v 0.372069 0.373798 0.207367
v 0.424186 0.193006 0.262466
v -0.130949 0.239846 0.482021
v -0.251758 0.228333 0.436859
v -0.351924 0.212379 0.362963
v 0.351924 0.212379 0.362963
v 0.251758 0.228333 0.436859
v 0.130949 0.239846 0.482021
v -0.000000 0.246063 0.497246
v -0.371050 0.314567 -0.233553
v -0.423025 0.125981 -0.234954
v -0.410127 0.325547 -0.123575
v -0.467575 0.137628 -0.114310
v 0.467893 0.172337 0.143037
v 0.349975 0.117590 -0.343614
v 0.467575 0.137628 -0.114310
v 0.482593 0.153143 0.014337
v -0.251757 0.112524 -0.429607
v -0.220826 0.302073 -0.407132
v -0.000000 0.420952 0.413302
v 0.162175 0.111452 -0.469223
v -0.349975 0.117590 -0.343614
v -0.162175 0.111452 -0.469222
v -0.000000 0.305331 -0.447689
v 0.142250 0.301265 -0.441348
v -0.410406 0.356042 0.102612
v -0.423300 0.339386 -0.010275
v -0.467893 0.172337 0.143037
v -0.482593 0.153143 0.014337
v -0.306975 0.306681 -0.331268
v 0.306975 0.306681 -0.331268
v 0.308686 0.390452 0.295517
v 0.423300 0.339386 -0.010275
v 0.410406 0.356042 0.102612
v -0.308686 0.390452 0.295517
v 0.410127 0.325547 -0.123575
v -0.000000 0.114918 -0.477504
v -0.220826 0.404291 0.360334
v -0.114860 0.414641 0.399948
v -0.142250 0.301265 -0.441348
v 0.114860 0.414641 0.399948
v 0.220826 0.404291 0.360334
v -0.394279 0.245181 0.400616
v -0.375557 0.216257 0.385908
v -0.372773 0.115493 -0.364224
v -0.391904 0.139576 -0.385043
v 0.372773 0.115493 -0.364224
v 0.391904 0.139576 -0.385043
v 0.375558 0.216257 0.385908
v 0.394279 0.245181 0.400616
v 0.145009 0.274958 0.535638
v 0.138819 0.245301 0.513974
v -0.138819 0.245301 0.513974
v -0.145009 0.274958 0.535638
v 0.525225 0.161878 -0.131517
v 0.499952 0.136801 -0.122026
v 0.500258 0.173565 0.150579
v 0.525612 0.200250 0.153019
v -0.170730 0.131446 -0.529806
v -0.166754 0.108532 -0.499793
v 0.166754 0.108532 -0.499793
v 0.170730 0.131445 -0.529806
v -0.525612 0.200250 0.153019
v -0.500258 0.173565 0.150579
v -0.499952 0.136801 -0.122026
v -0.525225 0.161878 -0.131517
v -0.000000 0.268308 -0.557906
v -0.000000 0.296614 -0.535549
v -0.515885 0.339325 -0.010723
v -0.541886 0.313592 -0.007380
v -0.476649 0.358284 0.268204
v -0.453700 0.381598 0.252146
v -0.475232 0.283932 -0.283377
v -0.452017 0.310596 -0.275020
v -0.280254 0.262931 0.484919
v -0.267682 0.233248 0.465655
v 0.280254 0.262931 0.484919
v 0.267682 0.233248 0.465655
v 0.000000 0.281301 0.552538
v -0.000000 0.251552 0.530152
v -0.265037 0.294976 -0.480985
v -0.278452 0.267234 -0.499934
v 0.278452 0.267234 -0.499934
v 0.265037 0.294976 -0.480985
v 0.476649 0.223420 0.286376
v 0.453535 0.195533 0.277783
v 0.475231 0.149085 -0.264872
v 0.452128 0.124428 -0.249664
v 0.541886 0.178849 0.010792
v 0.515878 0.153137 0.014294
v 0.541886 0.313592 -0.007380
v 0.515885 0.339325 -0.010723
v 0.475231 0.283932 -0.283377
v 0.452017 0.310596 -0.275020
v 0.278452 0.133524 -0.481799
v 0.265942 0.109977 -0.455501
v -0.278452 0.133524 -0.481799
v -0.265942 0.109977 -0.455501
v 0.476649 0.358284 0.268204
v 0.453700 0.381598 0.252146
v 0.000000 0.415293 0.534365
v 0.000000 0.436626 0.505107
v -0.475232 0.149085 -0.264872
v -0.452128 0.124428 -0.249664
v -0.476649 0.223420 0.286376
v -0.453535 0.195533 0.277783
v -0.541886 0.178849 0.010792
v -0.515878 0.153137 0.014294
v 0.280254 0.396548 0.466746
v 0.267211 0.418204 0.440684
v -0.280254 0.396548 0.466746
v -0.267211 0.418204 0.440684
v -0.525225 0.296621 -0.149689
v -0.499978 0.323029 -0.146669
v -0.525612 0.334992 0.134846
v -0.500349 0.359673 0.125069
v 0.164148 0.293233 -0.526002
v 0.170730 0.265152 -0.547978
v -0.170730 0.265152 -0.547978
v -0.164148 0.293233 -0.526002
v 0.500349 0.359673 0.125069
v 0.525612 0.334992 0.134846
v 0.525225 0.296621 -0.149689
v 0.499978 0.323029 -0.146669
v -0.138396 0.429990 0.488981
v -0.145009 0.408652 0.517465
v 0.145009 0.408652 0.517465
v 0.138396 0.429990 0.488981
v 0.375477 0.401738 0.360642
v 0.394279 0.379425 0.382443
v 0.372480 0.301014 -0.389704
v 0.391904 0.273838 -0.403508
v -0.372480 0.301014 -0.389704
v -0.391904 0.273838 -0.403508
v -0.000000 0.134291 -0.539733
v -0.000000 0.111612 -0.509529
v -0.375477 0.401738 0.360642
v -0.394279 0.379425 0.382443
v -0.000000 0.441917 0.609915
v -0.000000 0.497640 0.624910
v 0.032951 0.435362 0.609915
v 0.046600 0.468314 0.583500
v -0.054276 0.486844 0.624910
v 0.060886 0.416697 0.609915
v 0.086106 0.441917 0.583500
v -0.100288 0.456099 0.624910
v 0.079551 0.388762 0.609915
v 0.112503 0.402411 0.583500
v -0.131033 0.410087 0.624910
v 0.086106 0.355811 0.609915
v 0.121772 0.355811 0.583500
v -0.141829 0.355811 0.624910
v 0.079551 0.322860 0.609915
v 0.112503 0.309211 0.583500
v -0.131033 0.301536 0.624910
v 0.060886 0.294925 0.609915
v 0.086106 0.269705 0.583500
v -0.100288 0.255523 0.624910
v 0.032951 0.276260 0.609915
v 0.046600 0.243308 0.583500
v -0.000000 0.355811 0.620857
v -0.054276 0.224778 0.624910
v -0.000000 0.269705 0.609915
v -0.000000 0.234039 0.583500
v -0.000000 0.213982 0.624910
v -0.032951 0.276260 0.609915
v -0.046600 0.243308 0.583500
v 0.054275 0.224778 0.624910
v -0.060886 0.294925 0.609915
v -0.086106 0.269705 0.583500
v 0.100288 0.255523 0.624910
v -0.079552 0.322860 0.609915
v -0.112503 0.309211 0.583500
v 0.131033 0.301536 0.624910
v -0.086106 0.355811 0.609915
v -0.121772 0.355811 0.583500
v 0.141829 0.355811 0.624910
v -0.079551 0.388762 0.609915
v -0.112503 0.402411 0.583500
v 0.131033 0.410087 0.624910
v -0.060886 0.416697 0.609915
v -0.086106 0.441917 0.583500
v 0.100288 0.456099 0.624910
v -0.032951 0.435362 0.609915
v -0.046600 0.468314 0.583500
v 0.054275 0.486844 0.624910
v -0.000000 0.477583 0.583500
v 0.084457 0.559708 0.505138
v 0.156056 0.511867 0.505138
v 0.203897 0.440268 0.505138
v 0.220696 0.355811 0.505138
v 0.203897 0.271354 0.505138
v 0.156056 0.199755 0.505138
v 0.084457 0.151914 0.505138
v -0.000000 0.135115 0.505138
v -0.084457 0.151914 0.505138
v -0.156056 0.199755 0.505138
v -0.203897 0.271354 0.505138
v -0.220697 0.355811 0.505138
v -0.203897 0.440268 0.505138
v -0.156056 0.511867 0.505138
v -0.084457 0.559708 0.505138
v 0.000000 0.576508 0.505138
v 0.063207 0.508406 0.407015
v 0.116791 0.472602 0.407015
v 0.152595 0.419018 0.407015
v 0.165168 0.355811 0.407015
v 0.152595 0.292604 0.407015
v 0.116791 0.239020 0.407015
v 0.063207 0.203216 0.407015
v -0.000000 0.190643 0.407015
v -0.063207 0.203216 0.407015
v -0.116791 0.239020 0.407015
v -0.152595 0.292604 0.407015
v -0.165168 0.355811 0.407015
v -0.152595 0.419018 0.407015
v -0.116791 0.472602 0.407015
v -0.063207 0.508406 0.407015
v -0.000000 0.520979 0.407015
v 0.084415 0.559607 0.597717
v 0.075335 0.537686 0.624910
v 0.139201 0.495012 0.624910
v 0.155978 0.511790 0.597717
v 0.181875 0.431146 0.624910
v 0.203796 0.440226 0.597717
v 0.196860 0.355811 0.624910
v 0.220587 0.355811 0.597717
v 0.181875 0.280476 0.624910
v 0.203796 0.271396 0.597717
v 0.139201 0.216610 0.624910
v 0.155978 0.199833 0.597717
v 0.075335 0.173936 0.624910
v 0.084415 0.152015 0.597717
v -0.000000 0.158951 0.624910
v -0.000000 0.135224 0.597717
v -0.075335 0.173936 0.624910
v -0.084415 0.152015 0.597717
v -0.139202 0.216610 0.624910
v -0.155979 0.199833 0.597717
v -0.181876 0.280476 0.624910
v -0.203796 0.271396 0.597717
v -0.196861 0.355811 0.624910
v -0.220587 0.355811 0.597717
v -0.181875 0.431146 0.624910
v -0.203796 0.440226 0.597717
v -0.139201 0.495013 0.624910
v -0.155979 0.511790 0.597717
v -0.075335 0.537687 0.624910
v -0.084415 0.559607 0.597717
v 0.000000 0.552672 0.624910
v 0.000000 0.576398 0.597717
v -0.155658 0.078402 0.678438
v -0.152984 0.099066 0.657197
v -0.296776 0.099726 0.593248
v -0.302359 0.078890 0.613379
v -0.419922 0.100805 0.486772
v -0.428721 0.079685 0.504431
v 0.428721 0.079685 0.504431
v 0.419922 0.100805 0.486772
v 0.296776 0.099726 0.593248
v 0.302359 0.078890 0.613379
v 0.152984 0.099066 0.657197
v 0.155658 0.078402 0.678438
v -0.000000 0.098851 0.678422
v -0.000000 0.078244 0.699971
v 0.578261 0.081148 0.183594
v 0.564077 0.103003 0.176220
v 0.510288 0.102056 0.342906
v 0.522122 0.080554 0.356275
v 0.429799 0.080981 -0.429790
v 0.418183 0.103458 -0.418177
v 0.508654 0.103437 -0.295732
v 0.522865 0.081044 -0.303449
v 0.563233 0.103412 -0.152578
v 0.578615 0.081139 -0.156329
v 0.581610 0.103381 0.000281
v 0.597006 0.081266 0.000316
v 0.156406 0.080860 -0.578858
v 0.152066 0.103606 -0.562969
v 0.295622 0.103444 -0.508430
v 0.303520 0.080911 -0.522965
v -0.429799 0.080981 -0.429790
v -0.418183 0.103458 -0.418177
v -0.295622 0.103444 -0.508430
v -0.303520 0.080911 -0.522965
v -0.152066 0.103606 -0.562969
v -0.156406 0.080860 -0.578858
v 0.000000 0.103857 -0.581098
v 0.000000 0.080843 -0.597407
v -0.578615 0.081139 -0.156329
v -0.563233 0.103412 -0.152578
v -0.508654 0.103437 -0.295732
v -0.522865 0.081044 -0.303449
v -0.510288 0.102056 0.342906
v -0.522122 0.080554 0.356275
v -0.564077 0.103003 0.176220
v -0.578261 0.081148 0.183593
v -0.581610 0.103381 0.000281
v -0.597006 0.081266 0.000316
v -0.239616 0.232186 0.239181
v -0.240229 0.234045 -0.240476
v 0.240228 0.234045 -0.240476
v 0.239616 0.232186 0.239181
v 0.087809 0.230618 0.321091
v -0.087809 0.230618 0.321091
v 0.322814 0.234025 -0.088381
v 0.322659 0.233783 0.087750
v -0.088134 0.234050 -0.323064
v 0.088133 0.234050 -0.323064
v -0.322659 0.233783 0.087750
v -0.322814 0.234025 -0.088381
v -0.169862 0.231248 0.290164
v 0.169861 0.231248 0.290164
v -0.000000 0.230400 0.331434
v 0.291200 0.233136 0.169788
v 0.291622 0.234036 -0.170675
v 0.333225 0.234012 -0.000260
v 0.170428 0.234048 -0.291871
v -0.170429 0.234048 -0.291870
v -0.000000 0.234051 -0.333495
v -0.291622 0.234036 -0.170675
v -0.291200 0.233136 0.169788
v -0.333225 0.234012 -0.000260
v -0.000001 0.392144 -0.000649
vt 0.344878 0.634095
vt 0.344878 0.653755
vt 0.344878 0.650945
vt 0.344878 0.632495
vt 0.344878 0.670249
vt 0.344878 0.666021
vt 0.344878 0.661102
vt 0.344878 0.649088
vt 0.344878 0.631537
vt 0.344878 0.634344
vt 0.344878 0.654025
vt 0.344878 0.650940
vt 0.344878 0.632493
vt 0.344878 0.661102
vt 0.344878 0.663191
vt 0.344878 0.671830
vt 0.344878 0.666021
vt 0.344878 0.670326
vt 0.344878 0.667828
vt 0.344878 0.649088
vt 0.344878 0.631537
vt 0.344878 0.634107
vt 0.344878 0.653774
vt 0.344878 0.651015
vt 0.344878 0.632540
vt 0.344878 0.670260
vt 0.344878 0.666078
vt 0.344878 0.661232
vt 0.344878 0.649228
vt 0.344878 0.631627
vt 0.344878 0.634267
vt 0.344878 0.654016
vt 0.344878 0.651146
vt 0.344878 0.632631
vt 0.344878 0.670401
vt 0.344878 0.666161
vt 0.344878 0.661232
vt 0.344878 0.649228
vt 0.344878 0.631627
vt 0.344878 0.671873
vt 0.344878 0.666078
vt 0.344878 0.691619
vt 0.344878 0.686749
vt 0.344878 0.684721
vt 0.344878 0.689234
vt 0.344878 0.682113
vt 0.344878 0.678593
vt 0.344878 0.666161
vt 0.344878 0.678593
vt 0.344878 0.682113
vt 0.344878 0.670401
vt 0.344878 0.677512
vt 0.344878 0.671736
vt 0.344878 0.679417
vt 0.344878 0.671736
vt 0.344878 0.679417
vt 0.344878 0.677519
vt 0.344878 0.671873
vt 0.313629 0.642359
vt 0.313629 0.635238
vt 0.313629 0.644232
vt 0.313629 0.651856
vt 0.344878 0.684052
vt 0.344878 0.671870
vt 0.344878 0.663191
vt 0.344878 0.650940
vt 0.344878 0.670249
vt 0.344878 0.677512
vt 0.344878 0.678580
vt 0.344878 0.682113
vt 0.344878 0.689234
vt 0.344878 0.684720
vt 0.344878 0.686749
vt 0.344878 0.691619
vt 0.344878 0.689234
vt 0.344878 0.684721
vt 0.313629 0.637177
vt 0.313629 0.635238
vt 0.313629 0.643917
vt 0.313629 0.645690
vt 0.313629 0.642359
vt 0.313629 0.644744
vt 0.313629 0.654397
vt 0.313629 0.651856
vt 0.313629 0.623451
vt 0.313629 0.631742
vt 0.313629 0.635238
vt 0.313629 0.644232
vt 0.344878 0.609884
vt 0.344878 0.635153
vt 0.344878 0.609381
vt 0.313629 0.635238
vt 0.313629 0.643917
vt 0.313629 0.623451
vt 0.313629 0.631742
vt 0.344878 0.667828
vt 0.344878 0.670326
vt 0.344878 0.654025
vt 0.344878 0.689234
vt 0.344878 0.684720
vt 0.344878 0.671830
vt 0.344878 0.670260
vt 0.344878 0.677519
vt 0.344878 0.682113
vt 0.344878 0.678580
vt 0.344878 0.609373
vt 0.344878 0.609293
vt 0.344878 0.609186
vt 0.344878 0.609186
vt 0.344878 0.632631
vt 0.344878 0.609293
vt 0.344878 0.634267
vt 0.344878 0.609373
vt 0.344878 0.634922
vt 0.344878 0.609401
vt 0.344878 0.651146
vt 0.344878 0.654016
vt 0.344878 0.655129
vt 0.344878 0.609048
vt 0.344878 0.609117
vt 0.344878 0.609014
vt 0.344878 0.632495
vt 0.344878 0.609025
vt 0.344878 0.634095
vt 0.344878 0.609031
vt 0.344878 0.634737
vt 0.344878 0.609029
vt 0.344878 0.650945
vt 0.344878 0.653755
vt 0.344878 0.654856
vt 0.344878 0.609025
vt 0.344878 0.609014
vt 0.344878 0.632493
vt 0.344878 0.609025
vt 0.344878 0.634344
vt 0.344878 0.609381
vt 0.313629 0.642359
vt 0.313629 0.651852
vt 0.313629 0.607150
vt 0.313629 0.587469
vt 0.313629 0.611268
vt 0.313629 0.642359
vt 0.313629 0.651852
vt 0.313629 0.587469
vt 0.313629 0.607150
vt 0.313629 0.611268
vt 0.313629 0.644744
vt 0.313629 0.654397
vt 0.344878 0.609031
vt 0.344878 0.609025
vt 0.344878 0.632540
vt 0.344878 0.609117
vt 0.344878 0.634107
vt 0.344878 0.609048
vt 0.344878 0.634737
vt 0.344878 0.609029
vt 0.344878 0.651015
vt 0.344878 0.653774
vt 0.344878 0.654856
vt 0.360503 0.651004
vt 0.360503 0.651000
vt 0.360503 0.655904
vt 0.360503 0.655906
vt 0.344878 0.597928
vt 0.344878 0.597928
vt 0.344878 0.588133
vt 0.344878 0.588130
vt 0.313629 0.616339
vt 0.313629 0.616328
vt 0.313629 0.607036
vt 0.313629 0.607020
vt 0.313629 0.616320
vt 0.313629 0.616318
vt 0.313629 0.607046
vt 0.313629 0.607044
vt 0.344878 0.597927
vt 0.344878 0.597928
vt 0.344878 0.588121
vt 0.344878 0.588103
vt 0.360503 0.651008
vt 0.360503 0.651011
vt 0.360503 0.655889
vt 0.360503 0.655900
vt 0.344878 0.597862
vt 0.344878 0.597703
vt 0.344878 0.587939
vt 0.344878 0.587890
vt 0.360503 0.651011
vt 0.360503 0.651008
vt 0.360503 0.655900
vt 0.360503 0.655889
vt 0.344878 0.597919
vt 0.344878 0.597922
vt 0.344878 0.588007
vt 0.344878 0.587932
vt 0.360503 0.651009
vt 0.360503 0.651034
vt 0.360503 0.656256
vt 0.360503 0.655900
vt 0.313629 0.616339
vt 0.313629 0.616348
vt 0.313629 0.606985
vt 0.313629 0.607020
vt 0.344878 0.597925
vt 0.344878 0.588063
vt 0.360503 0.651000
vt 0.360503 0.651004
vt 0.360503 0.655906
vt 0.360503 0.655904
vt 0.344878 0.597919
vt 0.344878 0.587932
vt 0.313629 0.615946
vt 0.313629 0.616020
vt 0.313629 0.607276
vt 0.313629 0.607361
vt 0.344878 0.597083
vt 0.344878 0.597238
vt 0.344878 0.588213
vt 0.344878 0.588297
vt 0.344878 0.597469
vt 0.344878 0.588072
vt 0.360503 0.651072
vt 0.360503 0.656759
vt 0.344878 0.597862
vt 0.344878 0.587890
vt 0.344878 0.597928
vt 0.344878 0.597928
vt 0.344878 0.588121
vt 0.344878 0.588130
vt 0.360503 0.651034
vt 0.360503 0.651009
vt 0.360503 0.655900
vt 0.360503 0.656256
vt 0.360503 0.650798
vt 0.360503 0.650942
vt 0.360503 0.655923
vt 0.360503 0.655992
vt 0.313629 0.616141
vt 0.313629 0.616020
vt 0.313629 0.607276
vt 0.313629 0.607129
vt 0.313629 0.616382
vt 0.313629 0.616364
vt 0.313629 0.606853
vt 0.313629 0.606871
vt 0.313629 0.616274
vt 0.313629 0.606954
vt 0.313629 0.616363
vt 0.313629 0.616348
vt 0.313629 0.606985
vt 0.313629 0.606937
vt 0.313629 0.616364
vt 0.313629 0.616382
vt 0.313629 0.606871
vt 0.313629 0.606853
vt 0.313629 0.615946
vt 0.313629 0.615922
vt 0.313629 0.607387
vt 0.313629 0.607361
vt 0.313629 0.616320
vt 0.313629 0.607044
vt 0.313629 0.616363
vt 0.313629 0.606937
vt 0.313629 0.616328
vt 0.313629 0.607036
vt 0.360503 0.650607
vt 0.360503 0.650443
vt 0.360503 0.656168
vt 0.360503 0.656061
vt 0.344878 0.597238
vt 0.344878 0.597083
vt 0.344878 0.588297
vt 0.344878 0.588213
vt 0.360503 0.650443
vt 0.360503 0.650607
vt 0.360503 0.656061
vt 0.360503 0.656168
vt 0.360503 0.650343
vt 0.360503 0.650310
vt 0.360503 0.656276
vt 0.360503 0.656248
vt 0.360503 0.650798
vt 0.360503 0.655992
vt 0.344878 0.597029
vt 0.344878 0.588324
vt 0.344878 0.597927
vt 0.344878 0.597925
vt 0.344878 0.588063
vt 0.344878 0.588103
vt 0.344878 0.597469
vt 0.344878 0.588072
vt 0.313629 0.616141
vt 0.313629 0.616274
vt 0.313629 0.606954
vt 0.313629 0.607129
vt 0.360503 0.650942
vt 0.360503 0.655923
vt 0.344878 0.597703
vt 0.344878 0.587939
vt 0.344878 0.597922
vt 0.344878 0.588007
vt 0.360503 0.650343
vt 0.360503 0.656248
vt 0.344878 0.698727
vt 0.344878 0.701127
vt 0.344878 0.692565
vt 0.344878 0.690792
vt 0.344878 0.698727
vt 0.344878 0.690792
vt 0.344878 0.678617
vt 0.344878 0.680070
vt 0.344878 0.693046
vt 0.344878 0.691107
vt 0.344878 0.678617
vt 0.344878 0.691107
vt 0.344878 0.698731
vt 0.344878 0.701130
vt 0.344878 0.698731
vt 0.344878 0.703843
vt 0.344878 0.701272
vt 0.344878 0.701272
vt 0.344878 0.658143
vt 0.344878 0.659184
vt 0.344878 0.658143
vt 0.344878 0.591736
vt 0.344878 0.591651
vt 0.344878 0.591504
vt 0.344878 0.591504
vt 0.344878 0.591651
vt 0.344878 0.591736
vt 0.344878 0.591762
vt 0.344878 0.591228
vt 0.344878 0.591329
vt 0.344878 0.591395
vt 0.344878 0.591360
vt 0.344878 0.591312
vt 0.344878 0.591246
vt 0.344878 0.591419
vt 0.344878 0.591411
vt 0.344878 0.591395
vt 0.344878 0.591411
vt 0.344878 0.591419
vt 0.344878 0.591421
vt 0.344878 0.591312
vt 0.344878 0.591360
vt 0.344878 0.591329
vt 0.344878 0.591228
vt 0.344878 0.591246
vt 0.313629 0.620953
vt 0.313629 0.615770
vt 0.313629 0.604065
vt 0.282378 0.693895
vt 0.282378 0.694441
vt 0.282378 0.682190
vt 0.282378 0.694441
vt 0.282378 0.693895
vt 0.282378 0.682190
vt 0.313629 0.615770
vt 0.313629 0.620953
vt 0.313629 0.604065
vt 0.313629 0.631718
vt 0.313629 0.624919
vt 0.313629 0.619286
vt 0.282378 0.703044
vt 0.282378 0.703123
vt 0.282378 0.697411
vt 0.282378 0.703123
vt 0.282378 0.703044
vt 0.282378 0.697411
vt 0.313629 0.624919
vt 0.313629 0.631718
vt 0.313629 0.619286
vt 0.282378 0.708769
vt 0.282378 0.708622
vt 0.313629 0.630497
vt 0.313629 0.637846
vt 0.313629 0.637846
vt 0.313629 0.630497
vt 0.282378 0.708622
vt 0.282378 0.708769
vt 0.313629 0.631705
vt 0.313629 0.624980
vt 0.282378 0.703105
vt 0.282378 0.703080
vt 0.282378 0.708762
vt 0.282378 0.708623
vt 0.313629 0.630498
vt 0.313629 0.637845
vt 0.313629 0.639874
vt 0.313629 0.632342
vt 0.282378 0.710467
vt 0.282378 0.710667
vt 0.282378 0.703080
vt 0.282378 0.703105
vt 0.313629 0.624980
vt 0.313629 0.631705
vt 0.313629 0.637845
vt 0.313629 0.630498
vt 0.282378 0.708623
vt 0.282378 0.708762
vt 0.282378 0.710667
vt 0.282378 0.710467
vt 0.313629 0.632342
vt 0.313629 0.639874
vt 0.529264 0.320998
vt 0.525649 0.323640
vt 0.525649 0.351472
vt 0.529264 0.348852
vt 0.526325 0.290585
vt 0.528732 0.290586
vt 0.529795 0.294551
vt 0.527454 0.294804
vt 0.527476 0.287210
vt 0.529818 0.287381
vt 0.597993 0.320998
vt 0.591968 0.319034
vt 0.591968 0.346766
vt 0.597993 0.348852
vt 0.553590 0.309622
vt 0.554159 0.308495
vt 0.563629 0.309779
vt 0.563629 0.310913
vt 0.544398 0.281670
vt 0.545424 0.282196
vt 0.538321 0.283242
vt 0.536673 0.282809
vt 0.530833 0.299342
vt 0.532955 0.298820
vt 0.538180 0.302822
vt 0.536471 0.303623
vt 0.533039 0.284975
vt 0.530935 0.284655
vt 0.590786 0.303623
vt 0.589077 0.302822
vt 0.594302 0.298820
vt 0.596424 0.299342
vt 0.575687 0.281371
vt 0.575356 0.281974
vt 0.563629 0.282690
vt 0.563629 0.282007
vt 0.583894 0.344513
vt 0.592139 0.340847
vt 0.592139 0.368576
vt 0.583894 0.372113
vt 0.575974 0.317354
vt 0.563629 0.317942
vt 0.563629 0.345624
vt 0.575974 0.344972
vt 0.590585 0.282809
vt 0.588936 0.283242
vt 0.581834 0.282196
vt 0.582859 0.281670
vt 0.599803 0.294804
vt 0.597463 0.294551
vt 0.598526 0.290586
vt 0.600933 0.290585
vt 0.543493 0.317784
vt 0.535289 0.319034
vt 0.535289 0.346766
vt 0.543493 0.345402
vt 0.551901 0.281974
vt 0.551570 0.281371
vt 0.573098 0.308495
vt 0.573667 0.309622
vt 0.598096 0.336352
vt 0.601636 0.331566
vt 0.601636 0.359398
vt 0.598096 0.364209
vt 0.543363 0.344513
vt 0.553143 0.346998
vt 0.553143 0.374613
vt 0.543363 0.372113
vt 0.597440 0.287381
vt 0.599781 0.287210
vt 0.551283 0.317354
vt 0.551283 0.344972
vt 0.544272 0.307132
vt 0.545424 0.306117
vt 0.544464 0.351133
vt 0.547660 0.352599
vt 0.553342 0.352432
vt 0.551759 0.350773
vt 0.583764 0.317784
vt 0.583764 0.345402
vt 0.574114 0.346998
vt 0.574114 0.374613
vt 0.575498 0.350773
vt 0.573915 0.352432
vt 0.579597 0.352599
vt 0.582794 0.351133
vt 0.527448 0.364496
vt 0.533952 0.363746
vt 0.533019 0.360306
vt 0.526324 0.360293
vt 0.582985 0.307132
vt 0.581834 0.306117
vt 0.530821 0.369025
vt 0.536724 0.367414
vt 0.563629 0.348308
vt 0.563629 0.375985
vt 0.590780 0.373185
vt 0.585950 0.370854
vt 0.579597 0.373713
vt 0.582951 0.376586
vt 0.530943 0.354359
vt 0.536797 0.355179
vt 0.541431 0.353550
vt 0.536694 0.352380
vt 0.594218 0.284975
vt 0.596323 0.284655
vt 0.599783 0.356927
vt 0.593286 0.357447
vt 0.594238 0.360306
vt 0.600933 0.360293
vt 0.599810 0.364496
vt 0.593306 0.363746
vt 0.590533 0.367414
vt 0.596436 0.369025
vt 0.536477 0.373185
vt 0.541307 0.370854
vt 0.563629 0.353271
vt 0.563629 0.351471
vt 0.533972 0.357447
vt 0.527475 0.356927
vt 0.602813 0.327146
vt 0.602813 0.354978
vt 0.596315 0.354359
vt 0.590460 0.355179
vt 0.524444 0.327146
vt 0.524444 0.354978
vt 0.563629 0.380392
vt 0.563629 0.377154
vt 0.555323 0.375850
vt 0.553621 0.379021
vt 0.544306 0.376586
vt 0.547660 0.373713
vt 0.585826 0.353550
vt 0.590563 0.352380
vt 0.529162 0.336352
vt 0.535118 0.340847
vt 0.535118 0.368576
vt 0.529162 0.364209
vt 0.601608 0.323640
vt 0.601608 0.351472
vt 0.525621 0.331566
vt 0.525621 0.359398
vt 0.573636 0.379021
vt 0.571934 0.375850
vt 0.553143 0.315748
vt 0.543363 0.313263
vt 0.535118 0.309597
vt 0.592139 0.309597
vt 0.583894 0.313263
vt 0.574114 0.315748
vt 0.563629 0.317058
vt 0.601636 0.300316
vt 0.598096 0.305102
vt 0.591968 0.287784
vt 0.597993 0.289748
vt 0.601608 0.292390
vt 0.602813 0.295896
vt 0.575974 0.286104
vt 0.583764 0.286534
vt 0.535289 0.287784
vt 0.543493 0.286534
vt 0.551283 0.286104
vt 0.563629 0.382721
vt 0.575498 0.382023
vt 0.575974 0.376222
vt 0.563629 0.376874
vt 0.527448 0.395746
vt 0.526324 0.391543
vt 0.524444 0.386228
vt 0.525621 0.390648
vt 0.525649 0.292390
vt 0.529264 0.289748
vt 0.529162 0.305102
vt 0.525621 0.300316
vt 0.524444 0.295896
vt 0.530943 0.385609
vt 0.536694 0.383630
vt 0.535289 0.378016
vt 0.529264 0.380102
vt 0.544464 0.382383
vt 0.543493 0.376652
vt 0.582794 0.382383
vt 0.590563 0.383630
vt 0.591968 0.378016
vt 0.583764 0.376652
vt 0.600933 0.391543
vt 0.599810 0.395746
vt 0.601636 0.390648
vt 0.602813 0.386228
vt 0.530821 0.400275
vt 0.529162 0.395459
vt 0.599783 0.388177
vt 0.601608 0.382722
vt 0.596315 0.385609
vt 0.597993 0.380102
vt 0.596436 0.400275
vt 0.590780 0.404435
vt 0.592139 0.399826
vt 0.598096 0.395459
vt 0.563629 0.411642
vt 0.553621 0.410271
vt 0.553143 0.405863
vt 0.563629 0.407235
vt 0.573636 0.410271
vt 0.574114 0.405863
vt 0.551759 0.382023
vt 0.551283 0.376222
vt 0.582951 0.407836
vt 0.583894 0.403363
vt 0.527475 0.388177
vt 0.525649 0.382722
vt 0.544306 0.407836
vt 0.536477 0.404435
vt 0.535118 0.399826
vt 0.543363 0.403363
vt 0.563629 0.286692
vt 0.805493 0.576449
vt 0.807402 0.584609
vt 0.806377 0.587539
vt 0.804153 0.578035
vt 0.806377 0.634414
vt 0.809704 0.640764
vt 0.808181 0.651266
vt 0.803563 0.642452
vt 0.810259 0.590062
vt 0.809704 0.593889
vt 0.798892 0.596262
vt 0.797678 0.613699
vt 0.797670 0.582449
vt 0.798885 0.565003
vt 0.819733 0.571603
vt 0.813629 0.568135
vt 0.813629 0.536862
vt 0.819736 0.540332
vt 0.802350 0.581480
vt 0.802344 0.550214
vt 0.816998 0.590062
vt 0.819855 0.584609
vt 0.820881 0.587539
vt 0.817553 0.593889
vt 0.807402 0.549038
vt 0.805493 0.557198
vt 0.804153 0.555613
vt 0.806377 0.546108
vt 0.824908 0.581480
vt 0.824913 0.550214
vt 0.813629 0.642994
vt 0.817553 0.640764
vt 0.819076 0.651266
vt 0.813629 0.654362
vt 0.821764 0.576449
vt 0.822434 0.566824
vt 0.823885 0.566824
vt 0.823104 0.578035
vt 0.828366 0.596262
vt 0.828373 0.565003
vt 0.813629 0.591976
vt 0.813629 0.596119
vt 0.823104 0.602488
vt 0.820881 0.592983
vt 0.823694 0.584945
vt 0.826780 0.598137
vt 0.829580 0.613699
vt 0.829587 0.582449
vt 0.821764 0.557198
vt 0.823104 0.555613
vt 0.828366 0.631135
vt 0.828373 0.599894
vt 0.816998 0.543585
vt 0.813629 0.541671
vt 0.813629 0.537528
vt 0.817553 0.539758
vt 0.813629 0.659263
vt 0.819733 0.655794
vt 0.819736 0.624565
vt 0.813629 0.628035
vt 0.804823 0.566824
vt 0.803373 0.566824
vt 0.807525 0.655794
vt 0.807521 0.624565
vt 0.819855 0.549038
vt 0.820881 0.546108
vt 0.802350 0.645917
vt 0.802344 0.614683
vt 0.810259 0.543585
vt 0.809704 0.539758
vt 0.798892 0.631135
vt 0.798885 0.599894
vt 0.804153 0.624910
vt 0.800477 0.629260
vt 0.807525 0.571603
vt 0.807521 0.540332
vt 0.803373 0.613699
vt 0.799393 0.613699
vt 0.804153 0.602488
vt 0.800477 0.598137
vt 0.813629 0.584403
vt 0.809704 0.586633
vt 0.808181 0.576131
vt 0.813629 0.573035
vt 0.806377 0.592983
vt 0.803563 0.584945
vt 0.817553 0.586633
vt 0.819076 0.576131
vt 0.823885 0.613699
vt 0.827864 0.613699
vt 0.823104 0.624910
vt 0.826780 0.629260
vt 0.820881 0.634414
vt 0.823694 0.642452
vt 0.824908 0.645917
vt 0.824913 0.614683
vt 0.825572 0.582449
vt 0.824663 0.595504
vt 0.801685 0.582449
vt 0.802594 0.569393
vt 0.824663 0.569393
vt 0.802594 0.595504
vt 0.822074 0.558324
vt 0.805183 0.606573
vt 0.818199 0.550929
vt 0.809058 0.613968
vt 0.813629 0.548332
vt 0.813629 0.616565
vt 0.809058 0.550929
vt 0.822074 0.606573
vt 0.818199 0.613968
vt 0.805183 0.558324
vt 0.819076 0.682516
vt 0.823694 0.673702
vt 0.824908 0.677167
vt 0.819733 0.687044
vt 0.826780 0.660510
vt 0.828366 0.662385
vt 0.829580 0.644949
vt 0.827864 0.644949
vt 0.828366 0.627512
vt 0.826780 0.629387
vt 0.823694 0.616195
vt 0.824908 0.612730
vt 0.819076 0.607381
vt 0.819733 0.602853
vt 0.813629 0.599385
vt 0.813629 0.604285
vt 0.807525 0.602853
vt 0.808181 0.607381
vt 0.803563 0.616195
vt 0.802350 0.612730
vt 0.798892 0.627512
vt 0.800477 0.629387
vt 0.797678 0.644949
vt 0.799393 0.644949
vt 0.800477 0.660510
vt 0.798892 0.662385
vt 0.803563 0.673702
vt 0.802350 0.677167
vt 0.807525 0.687044
vt 0.808181 0.682516
vt 0.813629 0.690513
vt 0.813629 0.685612
vt 0.313629 0.662895
vt 0.313629 0.662821
vt 0.313629 0.665278
vt 0.313629 0.665353
vt 0.313629 0.663016
vt 0.313629 0.665479
vt 0.313629 0.662895
vt 0.313629 0.663016
vt 0.313629 0.665479
vt 0.313629 0.665359
vt 0.313629 0.662821
vt 0.313629 0.665278
vt 0.313629 0.662797
vt 0.313629 0.665251
vt 0.313629 0.663149
vt 0.313629 0.663239
vt 0.313629 0.665708
vt 0.313629 0.665620
vt 0.313629 0.663223
vt 0.313629 0.663214
vt 0.313629 0.665679
vt 0.313629 0.665689
vt 0.313629 0.663238
vt 0.313629 0.665705
vt 0.313629 0.663257
vt 0.313629 0.665726
vt 0.313629 0.663203
vt 0.313629 0.663195
vt 0.313629 0.665659
vt 0.313629 0.665667
vt 0.313629 0.663203
vt 0.313629 0.663214
vt 0.313629 0.665678
vt 0.313629 0.665667
vt 0.313629 0.663195
vt 0.313629 0.665659
vt 0.313629 0.663193
vt 0.313629 0.665657
vt 0.313629 0.663223
vt 0.313629 0.663238
vt 0.313629 0.665705
vt 0.313629 0.665689
vt 0.313629 0.663149
vt 0.313629 0.665615
vt 0.313629 0.663239
vt 0.313629 0.665708
vt 0.313629 0.663257
vt 0.313629 0.665726
vt 0.328344 0.529887
vt 0.328344 0.529728
vt 0.328344 0.529728
vt 0.328344 0.529887
vt 0.328344 0.529728
vt 0.328344 0.529887
vt 0.328344 0.529887
vt 0.328344 0.529728
vt 0.328344 0.529951
vt 0.328344 0.529952
vt 0.328344 0.529952
vt 0.328344 0.529951
vt 0.328344 0.529493
vt 0.328344 0.529493
vt 0.328344 0.529943
vt 0.328344 0.529943
vt 0.328344 0.529107
vt 0.328344 0.529263
vt 0.328344 0.529263
vt 0.328344 0.529107
vt 0.328344 0.529953
vt 0.328344 0.529953
vt 0.328344 0.529951
vt 0.328344 0.529949
vt 0.328344 0.529949
vt 0.328344 0.529951
vt 0.328344 0.529946
vt 0.328344 0.529946
vt 0.328344 0.529493
vt 0.328344 0.529493
vt 0.328344 0.529953
vt 0.328344 0.529953
vt 0.328344 0.529946
vt 0.328344 0.529946
vt 0.328344 0.529263
vt 0.328344 0.529263
vt 0.328344 0.529953
vt 0.328344 0.529953
vt 0.328344 0.529943
vt 0.328344 0.529943
vt 0.328344 0.529107
vt 0.328344 0.529107
vt 0.328344 0.529949
vt 0.328344 0.529949
vt 0.328344 0.529054
vt 0.328344 0.529054
vt 0.328344 0.529952
vt 0.328344 0.529952
vt 0.328344 0.529263
vt 0.328344 0.529953
vt 0.328344 0.529949
vt 0.328344 0.529493
vt 0.328344 0.529107
vt 0.328344 0.529728
vt 0.926233 0.528807
vt 0.929489 0.556981
vt 0.922825 0.572940
vt 0.916809 0.551377
vt 0.937349 0.734375
vt 0.918372 0.596825
vt 0.910511 0.585155
vt 0.916809 0.625000
vt 0.908300 0.625000
vt 0.918372 0.653174
vt 0.910511 0.664845
vt 0.922825 0.677059
vt 0.916809 0.698623
vt 0.929489 0.693019
vt 0.926233 0.721193
vt 0.937349 0.698623
vt 0.937349 0.729119
vt 0.945210 0.693019
vt 0.948466 0.721193
vt 0.951874 0.677059
vt 0.957890 0.698623
vt 0.956326 0.653174
vt 0.964187 0.664845
vt 0.957890 0.625000
vt 0.966398 0.625000
vt 0.956326 0.596825
vt 0.964187 0.585155
vt 0.951874 0.572940
vt 0.957890 0.551377
vt 0.945210 0.556981
vt 0.948466 0.528807
vt 0.937349 0.551377
vt 0.937349 0.520881
vn -0.9583 0.1621 -0.2355
vn -0.8923 0.3900 -0.2273
vn -0.8234 0.3464 -0.4495
vn -0.8689 0.1486 -0.4722
vn -0.7189 0.6601 -0.2179
vn -0.6749 0.6038 -0.4241
vn -0.6081 0.5174 -0.6020
vn -0.6723 0.3136 -0.6705
vn -0.7000 0.1408 -0.7001
vn 0.2416 0.0694 -0.9679
vn 0.3554 0.3814 -0.8534
vn 0.4584 0.3302 -0.8251
vn 0.4768 0.1460 -0.8668
vn 0.6081 0.5174 -0.6020
vn 0.5423 0.5358 -0.6472
vn 0.5594 0.7138 -0.4214
vn 0.6749 0.6038 -0.4241
vn 0.3327 0.6423 -0.6904
vn 0.3334 0.6340 -0.6978
vn 0.6723 0.3136 -0.6705
vn 0.7000 0.1408 -0.7001
vn 0.9593 0.1632 0.2303
vn 0.8927 0.3914 0.2235
vn 0.8258 0.3503 0.4420
vn 0.8729 0.1514 0.4638
vn 0.7184 0.6615 0.2155
vn 0.6737 0.6089 0.4188
vn 0.6046 0.5299 0.5947
vn 0.6753 0.3235 0.6628
vn 0.7069 0.1453 0.6923
vn -0.2389 0.1697 0.9561
vn -0.2280 0.4084 0.8839
vn -0.4526 0.3597 0.8159
vn -0.4786 0.1548 0.8642
vn -0.2136 0.6801 0.7013
vn -0.4215 0.6008 0.6792
vn -0.6046 0.5299 0.5947
vn -0.6753 0.3235 0.6628
vn -0.7068 0.1453 0.6923
vn -0.5520 0.7143 0.4302
vn -0.6737 0.6089 0.4188
vn -0.3510 0.9364 -0.0000
vn -0.3431 0.9125 0.2230
vn -0.3425 0.9107 0.2311
vn -0.2530 0.8265 0.5029
vn -0.3261 0.8246 0.4623
vn 0.4215 0.6008 0.6792
vn 0.3261 0.8246 0.4623
vn 0.2530 0.8265 0.5029
vn 0.2136 0.6801 0.7013
vn -0.5941 0.7745 -0.2170
vn -0.7334 0.6798 -0.0005
vn -0.6055 0.7959 -0.0003
vn 0.7334 0.6798 -0.0005
vn 0.6055 0.7959 -0.0003
vn 0.5933 0.7757 0.2152
vn 0.5520 0.7143 0.4302
vn 0.9477 0.2974 -0.1162
vn 0.9512 0.2404 -0.1937
vn 0.9508 0.2441 -0.1911
vn 0.9477 0.2973 -0.1163
vn -0.0000 0.8130 0.5823
vn 0.0000 0.7017 0.7125
vn -0.5423 0.5358 -0.6472
vn -0.4584 0.3302 -0.8251
vn 0.7189 0.6601 -0.2179
vn 0.5941 0.7745 -0.2170
vn 0.3280 0.8293 -0.4524
vn 0.3274 0.8238 -0.4628
vn 0.3427 0.9105 -0.2313
vn 0.3433 0.9123 -0.2232
vn 0.3510 0.9364 -0.0000
vn 0.3425 0.9107 0.2311
vn 0.3431 0.9125 0.2230
vn 0.0000 0.3324 0.9431
vn 0.0742 0.3315 0.9405
vn 0.1019 0.6220 0.7764
vn -0.0000 0.6668 0.7452
vn -0.9477 0.2974 -0.1162
vn -0.9455 0.3257 0.0032
vn -0.9456 0.3253 -0.0027
vn -0.9477 0.2973 -0.1163
vn 0.9584 0.1730 -0.2272
vn 0.9572 0.1839 -0.2237
vn -0.9512 0.2404 -0.1937
vn -0.9508 0.2440 -0.1910
vn -0.0000 0.0085 -1.0000
vn -0.0000 -0.0147 -0.9999
vn 0.2475 0.0359 -0.9682
vn -0.0742 0.3315 0.9405
vn -0.1019 0.6220 0.7764
vn -0.9584 0.1730 -0.2272
vn -0.9572 0.1839 -0.2237
vn -0.3334 0.6340 -0.6978
vn -0.3327 0.6423 -0.6904
vn -0.3554 0.3814 -0.8534
vn -0.3427 0.9105 -0.2313
vn -0.3433 0.9123 -0.2232
vn -0.5594 0.7138 -0.4214
vn -0.7184 0.6615 0.2155
vn -0.5933 0.7757 0.2152
vn -0.3274 0.8238 -0.4628
vn -0.3280 0.8293 -0.4524
vn -0.2408 0.0797 0.9673
vn -0.4833 0.0795 0.8718
vn -0.7124 0.0794 0.6973
vn 0.7124 0.0794 0.6973
vn 0.4786 0.1548 0.8642
vn 0.4833 0.0795 0.8718
vn 0.2389 0.1697 0.9561
vn 0.2408 0.0797 0.9673
vn 0.0000 0.1756 0.9845
vn 0.0000 0.0799 0.9968
vn 0.4526 0.3597 0.8159
vn 0.2280 0.4084 0.8839
vn 0.0000 0.4255 0.9049
vn 0.9698 0.0774 0.2312
vn 0.8805 0.0787 0.4674
vn 0.7051 0.0761 -0.7051
vn 0.8689 0.1486 -0.4722
vn 0.8760 0.0761 -0.4762
vn 0.9583 0.1621 -0.2355
vn 0.9685 0.0762 -0.2369
vn 0.9859 0.1676 -0.0014
vn 0.9971 0.0765 -0.0016
vn 0.8234 0.3464 -0.4495
vn 0.8923 0.3900 -0.2273
vn 0.9142 0.4053 -0.0009
vn 0.4785 0.0682 -0.8754
vn -0.7051 0.0761 -0.7051
vn -0.4768 0.1460 -0.8668
vn -0.4785 0.0682 -0.8754
vn -0.2416 0.0694 -0.9679
vn -0.2475 0.0359 -0.9682
vn 0.8785 0.3950 0.2686
vn 0.9134 0.3672 0.1756
vn 0.9200 0.3603 0.1543
vn 0.9636 0.0995 -0.2480
vn 0.9643 0.0574 -0.2585
vn 0.9632 0.1100 -0.2453
vn -0.9134 0.3671 0.1756
vn -0.8785 0.3950 0.2686
vn -0.9200 0.3603 0.1543
vn -0.9643 0.0574 -0.2585
vn -0.9636 0.0995 -0.2480
vn -0.9632 0.1100 -0.2453
vn 0.9455 0.3257 0.0032
vn 0.9456 0.3253 -0.0027
vn -0.9685 0.0762 -0.2369
vn -0.8760 0.0761 -0.4762
vn -0.8729 0.1514 0.4638
vn -0.8805 0.0787 0.4674
vn -0.9593 0.1632 0.2303
vn -0.9698 0.0774 0.2312
vn -0.9859 0.1676 -0.0014
vn -0.9971 0.0765 -0.0016
vn -0.8258 0.3503 0.4420
vn -0.8927 0.3914 0.2235
vn -0.9142 0.4053 -0.0009
vn -0.3894 0.9161 -0.0956
vn -0.3987 0.9171 -0.0020
vn -0.3988 0.9171 -0.0025
vn -0.3894 0.9161 -0.0957
vn -0.1083 -0.8894 0.4442
vn 0.0000 -0.8889 0.4580
vn -0.1094 -0.8894 0.4439
vn -0.7020 0.1273 -0.7007
vn -0.4751 0.1288 -0.8704
vn -0.2363 0.1295 -0.9630
vn -0.0000 0.1297 -0.9915
vn -0.3216 -0.8909 0.3208
vn -0.2173 -0.8904 0.4000
vn -0.2186 -0.8904 0.3993
vn -0.3217 -0.8909 0.3207
vn 0.3525 0.9159 -0.1922
vn 0.2838 0.9158 -0.2841
vn 0.3524 0.9159 -0.1923
vn 0.4337 -0.8964 -0.0918
vn 0.3614 -0.9170 -0.1688
vn 0.3437 -0.9216 -0.1805
vn 0.4272 -0.8984 -0.1021
vn -0.2838 0.9158 -0.2841
vn -0.3525 0.9159 -0.1922
vn -0.3524 0.9159 -0.1923
vn -0.4609 -0.8875 0.0011
vn -0.4481 -0.8875 0.1077
vn -0.4478 -0.8875 0.1086
vn -0.4609 -0.8875 0.0005
vn 0.1957 0.9140 -0.3554
vn 0.1050 0.9088 -0.4039
vn 0.1027 0.9086 -0.4049
vn 0.1955 0.9140 -0.3556
vn 0.7020 0.1273 -0.7007
vn 0.8718 0.1241 -0.4738
vn 0.8719 0.1241 -0.4738
vn -0.4021 -0.8895 0.2170
vn -0.4015 -0.8895 0.2181
vn 0.3987 0.9171 -0.0020
vn 0.3894 0.9161 -0.0956
vn 0.3894 0.9161 -0.0957
vn 0.3988 0.9171 -0.0025
vn 0.4609 -0.8875 0.0011
vn 0.4609 -0.8875 0.0005
vn -0.2714 0.1562 0.9497
vn -0.5306 0.1478 0.8346
vn -0.5311 0.1478 0.8343
vn -0.2716 0.1562 0.9496
vn -0.0696 -0.9656 -0.2507
vn -0.1531 -0.9573 -0.2452
vn -0.1411 -0.9588 -0.2464
vn -0.0648 -0.9659 -0.2508
vn -0.2574 -0.9407 -0.2212
vn -0.2374 -0.9444 -0.2274
vn -0.0000 0.9052 -0.4251
vn -0.4337 -0.8964 -0.0918
vn -0.4273 -0.8984 -0.1021
vn 0.1083 -0.8894 0.4442
vn 0.2173 -0.8904 0.4000
vn 0.2186 -0.8904 0.3993
vn 0.1094 -0.8894 0.4439
vn -0.1050 0.9088 -0.4039
vn -0.1957 0.9140 -0.3554
vn -0.1955 0.9140 -0.3556
vn -0.1027 0.9086 -0.4049
vn 0.2940 0.9425 0.1591
vn 0.3679 0.9256 0.0895
vn 0.3765 0.9233 0.0758
vn 0.3161 0.9378 0.1435
vn 0.7523 0.1350 0.6448
vn 0.5306 0.1478 0.8346
vn 0.5311 0.1478 0.8343
vn 0.7528 0.1350 0.6442
vn 0.9933 0.1152 -0.0067
vn 0.9720 0.1148 0.2049
vn 0.9721 0.1147 0.2047
vn 0.9933 0.1152 -0.0066
vn 0.8994 0.1220 0.4198
vn 0.8996 0.1219 0.4193
vn -0.9647 0.1196 -0.2346
vn -0.8718 0.1241 -0.4738
vn -0.8719 0.1241 -0.4738
vn -0.9647 0.1196 -0.2345
vn -0.9720 0.1148 0.2049
vn -0.9933 0.1152 -0.0067
vn -0.9933 0.1152 -0.0066
vn -0.9721 0.1147 0.2047
vn 0.2714 0.1562 0.9497
vn 0.0000 0.1590 0.9873
vn 0.2716 0.1562 0.9496
vn 0.2363 0.1295 -0.9630
vn 0.9647 0.1196 -0.2346
vn 0.9647 0.1196 -0.2345
vn 0.4751 0.1288 -0.8704
vn -0.2040 0.9580 0.2017
vn -0.1241 0.9671 0.2219
vn -0.1389 0.9657 0.2193
vn -0.2282 0.9543 0.1929
vn 0.1531 -0.9573 -0.2452
vn 0.0696 -0.9656 -0.2507
vn 0.0648 -0.9659 -0.2508
vn 0.1411 -0.9588 -0.2464
vn 0.1241 0.9671 0.2219
vn 0.2040 0.9580 0.2017
vn 0.2282 0.9543 0.1929
vn 0.1389 0.9657 0.2193
vn -0.0583 0.9715 0.2298
vn 0.0000 0.9728 0.2317
vn -0.0647 0.9712 0.2293
vn -0.2940 0.9425 0.1591
vn -0.3161 0.9378 0.1435
vn -0.0000 -0.9679 -0.2512
vn 0.3216 -0.8909 0.3208
vn 0.4021 -0.8895 0.2170
vn 0.4015 -0.8895 0.2181
vn 0.3217 -0.8909 0.3207
vn 0.2574 -0.9407 -0.2212
vn 0.2374 -0.9444 -0.2274
vn -0.7523 0.1350 0.6448
vn -0.8994 0.1220 0.4198
vn -0.8996 0.1219 0.4193
vn -0.7528 0.1350 0.6442
vn -0.3679 0.9256 0.0895
vn -0.3765 0.9233 0.0758
vn -0.3614 -0.9170 -0.1688
vn -0.3437 -0.9216 -0.1805
vn 0.4481 -0.8875 0.1077
vn 0.4478 -0.8875 0.1086
vn 0.0583 0.9715 0.2298
vn 0.0647 0.9712 0.2293
vn 0.1270 0.9513 0.2810
vn -0.0000 0.9569 0.2903
vn -0.1270 0.9513 0.2810
vn 0.1232 0.6944 -0.7089
vn -0.0000 0.6984 -0.7157
vn -0.0000 0.8832 -0.4690
vn 0.1241 0.8782 -0.4620
vn -0.1232 0.6944 -0.7089
vn -0.1241 0.8782 -0.4620
vn -0.1283 0.9646 -0.2303
vn 0.0000 0.9720 -0.2350
vn 0.1283 0.9646 -0.2303
vn 0.0000 1.0000 0.0000
vn 0.1303 0.9915 0.0000
vn -0.1303 0.9915 0.0000
vn -0.1303 0.2601 -0.9568
vn -0.0000 0.2808 -0.9598
vn 0.1303 0.2601 -0.9568
vn -0.1654 -0.7805 0.6029
vn -0.3326 -0.7675 0.5481
vn -0.3551 -0.7649 0.5374
vn -0.1774 -0.7798 0.6003
vn -0.5202 -0.7406 0.4253
vn -0.4944 -0.7452 0.4475
vn 0.4944 -0.7452 0.4475
vn 0.3326 -0.7675 0.5481
vn 0.3551 -0.7649 0.5374
vn 0.5202 -0.7406 0.4253
vn 0.1774 -0.7798 0.6003
vn 0.1654 -0.7805 0.6029
vn 0.0000 -0.7846 0.6200
vn 0.6930 -0.7044 0.1537
vn 0.6227 -0.7195 0.3075
vn 0.6382 -0.7161 0.2827
vn 0.6969 -0.7038 0.1379
vn 0.4836 -0.7293 -0.4841
vn 0.6054 -0.7239 -0.3308
vn 0.6055 -0.7239 -0.3306
vn 0.4837 -0.7292 -0.4840
vn 0.6774 -0.7165 -0.1666
vn 0.6773 -0.7166 -0.1669
vn 0.7074 -0.7068 -0.0063
vn 0.7073 -0.7069 -0.0066
vn 0.1620 -0.7328 -0.6609
vn 0.3262 -0.7316 -0.5986
vn 0.3263 -0.7316 -0.5985
vn -0.4836 -0.7293 -0.4841
vn -0.3262 -0.7316 -0.5986
vn -0.3263 -0.7316 -0.5985
vn -0.4837 -0.7292 -0.4840
vn -0.1620 -0.7328 -0.6609
vn -0.0000 -0.7332 -0.6800
vn -0.6773 -0.7166 -0.1669
vn -0.6054 -0.7239 -0.3308
vn -0.6055 -0.7239 -0.3306
vn -0.6774 -0.7165 -0.1666
vn -0.6227 -0.7195 0.3075
vn -0.6382 -0.7161 0.2827
vn -0.6969 -0.7038 0.1379
vn -0.6930 -0.7044 0.1537
vn -0.7074 -0.7068 -0.0063
vn -0.7073 -0.7069 -0.0066
vn 0.8193 0.4533 -0.3512
vn 0.8188 0.4581 -0.3459
vn 0.8099 0.5146 -0.2815
vn -0.0926 0.7750 -0.6252
vn -0.0922 0.7809 -0.6178
vn -0.0965 0.7132 -0.6943
vn 0.0922 0.7809 -0.6178
vn 0.0926 0.7750 -0.6252
vn 0.0965 0.7132 -0.6943
vn -0.8188 0.4581 -0.3459
vn -0.8193 0.4532 -0.3512
vn -0.8099 0.5146 -0.2815
vn -0.8398 0.4944 0.2243
vn -0.8398 0.4955 0.2220
vn -0.8372 0.5238 0.1574
vn 0.0479 0.9508 0.3062
vn 0.0476 0.9511 0.3051
vn 0.0515 0.9462 0.3194
vn -0.0476 0.9511 0.3051
vn -0.0479 0.9508 0.3062
vn -0.0515 0.9462 0.3194
vn 0.8398 0.4955 0.2220
vn 0.8398 0.4944 0.2243
vn 0.8372 0.5238 0.1574
vn 0.0342 0.9803 0.1947
vn 0.0345 0.9798 0.1972
vn -0.8509 0.4915 0.1856
vn -0.8504 0.4902 0.1911
vn 0.8504 0.4902 0.1911
vn 0.8509 0.4915 0.1856
vn -0.0345 0.9798 0.1972
vn -0.0342 0.9803 0.1947
vn 0.8321 0.4356 -0.3433
vn 0.8326 0.4376 -0.3394
vn -0.0656 0.9005 -0.4300
vn -0.0658 0.9000 -0.4310
vn -0.0325 0.9802 -0.1956
vn -0.0328 0.9796 -0.1980
vn 0.8512 0.4909 -0.1857
vn 0.8507 0.4897 -0.1913
vn 0.8595 0.5112 0.0000
vn -0.0237 0.9997 -0.0001
vn 0.0658 0.9000 -0.4310
vn 0.0656 0.9005 -0.4300
vn -0.8326 0.4376 -0.3394
vn -0.8321 0.4356 -0.3433
vn -0.8507 0.4897 -0.1913
vn -0.8512 0.4909 -0.1857
vn 0.0328 0.9796 -0.1980
vn 0.0325 0.9802 -0.1956
vn 0.0237 0.9997 -0.0001
vn -0.8595 0.5112 0.0000
vn -0.8171 -0.4254 -0.3891
vn -0.8997 -0.4004 -0.1740
vn -0.9040 0.3419 -0.2567
vn -0.8849 -0.0632 -0.4615
vn -0.0015 -0.9910 0.1336
vn 0.0006 -0.9873 0.1587
vn -0.3927 -0.8890 0.2357
vn -0.3931 -0.9195 0.0052
vn 0.0008 -0.9941 0.1083
vn 0.8171 -0.4254 -0.3891
vn 0.6793 -0.4478 -0.5813
vn 0.7390 -0.0914 -0.6675
vn 0.8849 -0.0632 -0.4615
vn -0.0737 -0.8401 0.5374
vn 0.0260 -0.9844 0.1738
vn 0.0000 -0.9855 0.1694
vn -0.0000 -0.8380 0.5457
vn -0.1977 -0.9454 -0.2592
vn 0.0230 -0.9961 0.0854
vn 0.0162 -0.9963 0.0843
vn -0.2872 -0.9385 -0.1917
vn -0.3532 -0.8699 0.3442
vn 0.0072 -0.9845 0.1750
vn 0.0161 -0.9832 0.1817
vn -0.2782 -0.8521 0.4434
vn 0.0075 -0.9958 0.0914
vn -0.3528 -0.9301 -0.1020
vn 0.2782 -0.8521 0.4434
vn -0.0161 -0.9832 0.1817
vn -0.0072 -0.9845 0.1750
vn 0.3532 -0.8699 0.3442
vn 0.0766 -0.9503 -0.3016
vn -0.0255 -0.9954 0.0923
vn -0.0000 -0.9953 0.0972
vn -0.0000 -0.9585 -0.2850
vn 0.4387 -0.2528 0.8623
vn 0.6565 -0.2751 0.7024
vn 0.7143 0.0939 0.6935
vn 0.4817 0.1180 0.8684
vn 0.2055 -0.4866 -0.8491
vn -0.0000 -0.1345 -0.9909
vn 0.2309 -0.1309 -0.9641
vn 0.2872 -0.9385 -0.1917
vn -0.0162 -0.9963 0.0843
vn -0.0230 -0.9961 0.0854
vn 0.1977 -0.9454 -0.2592
vn 0.3927 -0.8890 0.2357
vn -0.0006 -0.9873 0.1587
vn 0.0015 -0.9910 0.1336
vn -0.4825 -0.4683 -0.7402
vn -0.6793 -0.4478 -0.5813
vn -0.7390 -0.0914 -0.6675
vn -0.5294 -0.1144 -0.8406
vn 0.0255 -0.9954 0.0923
vn -0.0766 -0.9503 -0.3016
vn -0.0260 -0.9844 0.1738
vn 0.0737 -0.8401 0.5374
vn 0.8165 -0.3075 0.4886
vn 0.9008 -0.3415 0.2682
vn 0.9051 0.3973 0.1513
vn 0.8844 0.0624 0.4625
vn -0.4387 -0.2528 0.8623
vn -0.2133 -0.2435 0.9462
vn -0.2387 0.1307 0.9622
vn -0.4817 0.1180 0.8684
vn -0.0008 -0.9941 0.1083
vn 0.3931 -0.9195 0.0052
vn -0.2055 -0.4866 -0.8491
vn -0.2309 -0.1309 -0.9641
vn -0.1751 -0.8425 0.5094
vn 0.0234 -0.9833 0.1805
vn -0.0200 0.9963 -0.0839
vn -0.0199 0.9963 -0.0839
vn -0.0263 0.9957 -0.0892
vn -0.0262 0.9957 -0.0891
vn 0.4825 -0.4683 -0.7402
vn 0.5294 -0.1144 -0.8406
vn 0.2133 -0.2435 0.9462
vn 0.2387 0.1307 0.9622
vn 0.0262 0.9957 -0.0891
vn 0.0263 0.9957 -0.0892
vn 0.0199 0.9963 -0.0839
vn 0.0200 0.9963 -0.0839
vn 0.0006 0.9874 -0.1581
vn 0.0006 0.9875 -0.1579
vn 0.0015 0.9910 -0.1337
vn 0.0015 0.9910 -0.1336
vn 0.1751 -0.8425 0.5094
vn -0.0234 -0.9833 0.1805
vn -0.0034 0.9847 -0.1741
vn -0.0033 0.9848 -0.1739
vn 0.0000 -0.2355 0.9719
vn 0.0000 0.1345 0.9909
vn 0.0115 0.9834 -0.1813
vn 0.0209 0.9831 -0.1817
vn -0.0037 0.9957 -0.0922
vn -0.0037 0.9957 -0.0923
vn -0.0115 0.9964 -0.0845
vn -0.0075 -0.9958 0.0914
vn 0.3528 -0.9301 -0.1020
vn -0.0003 0.9941 -0.1088
vn -0.0004 0.9940 -0.1091
vn -0.0015 0.9910 -0.1337
vn -0.0015 0.9910 -0.1336
vn -0.0006 0.9874 -0.1581
vn -0.0006 0.9875 -0.1579
vn 0.0033 0.9848 -0.1739
vn 0.0034 0.9847 -0.1741
vn -0.0115 0.9834 -0.1813
vn -0.0000 0.9957 -0.0930
vn 0.0004 0.9940 -0.1091
vn 0.0003 0.9941 -0.1088
vn 0.9265 -0.3732 0.0489
vn 0.9287 0.3674 -0.0510
vn 0.0037 0.9957 -0.0922
vn 0.0037 0.9957 -0.0923
vn -0.9265 -0.3732 0.0489
vn -0.9287 0.3674 -0.0510
vn 0.0000 0.9849 -0.1729
vn -0.0277 0.9839 -0.1765
vn -0.0277 0.9839 -0.1766
vn -0.0209 0.9831 -0.1817
vn 0.0115 0.9964 -0.0845
vn -0.8165 -0.3075 0.4886
vn -0.6565 -0.2751 0.7024
vn -0.7143 0.0939 0.6935
vn -0.8844 0.0624 0.4625
vn 0.8997 -0.4004 -0.1740
vn 0.9040 0.3419 -0.2567
vn -0.9008 -0.3415 0.2682
vn -0.9051 0.3973 0.1513
vn 0.0277 0.9839 -0.1766
vn 0.0277 0.9839 -0.1765
vn 0.7069 -0.7011 0.0935
vn -0.0000 0.6222 -0.7828
vn 0.1808 0.6317 -0.7539
vn 0.1862 0.6319 -0.7524
vn -0.6881 0.7241 0.0462
vn -0.7059 0.7019 -0.0956
vn -0.7069 -0.7011 0.0935
vn -0.6302 0.6699 -0.3924
vn -0.5336 0.6534 -0.5370
vn -0.5362 0.6538 -0.5339
vn -0.6319 0.6703 -0.3892
vn -0.3917 0.6404 -0.6607
vn -0.3929 0.6405 -0.6599
vn 0.3917 0.6404 -0.6607
vn 0.5336 0.6534 -0.5370
vn 0.5362 0.6538 -0.5339
vn 0.3929 0.6405 -0.6599
vn 0.7059 0.7019 -0.0956
vn 0.6881 0.7241 0.0462
vn -0.6278 0.7525 0.1992
vn -0.6282 0.7523 0.1985
vn 0.6873 0.6855 -0.2405
vn 0.6302 0.6699 -0.3924
vn 0.6319 0.6703 -0.3892
vn 0.6278 0.7525 0.1992
vn 0.5124 0.7805 0.3582
vn 0.5144 0.7801 0.3561
vn 0.6282 0.7523 0.1985
vn 0.0000 0.8100 0.5864
vn -0.1881 0.8063 0.5608
vn -0.1915 0.8062 0.5598
vn 0.1881 0.8063 0.5608
vn 0.1915 0.8062 0.5598
vn -0.1808 0.6317 -0.7539
vn -0.1862 0.6319 -0.7524
vn 0.3554 0.7984 0.4860
vn 0.3591 0.7981 0.4838
vn -0.6873 0.6855 -0.2405
vn -0.3554 0.7984 0.4860
vn -0.5124 0.7805 0.3582
vn -0.5144 0.7801 0.3561
vn -0.3591 0.7981 0.4838
vn -0.0000 -0.7979 -0.6028
vn 0.8315 -0.3444 0.4359
vn 0.6364 -0.6364 0.4359
vn -0.0000 0.0000 1.0000
vn 0.3444 -0.8315 0.4359
vn -0.8695 -0.3602 0.3381
vn -0.9411 0.0000 0.3381
vn -0.9691 0.0000 -0.2466
vn -0.8953 -0.3709 -0.2466
vn 0.3602 -0.8695 0.3381
vn -0.0000 -0.9411 0.3381
vn -0.0000 -0.9691 -0.2466
vn 0.3709 -0.8953 -0.2466
vn -0.6655 -0.6655 0.3381
vn -0.6853 -0.6853 -0.2466
vn -0.3444 -0.8315 0.4359
vn -0.6364 -0.6364 0.4359
vn 0.6364 0.6364 0.4359
vn 0.8315 0.3444 0.4359
vn 0.6655 -0.6655 0.3381
vn 0.6853 -0.6853 -0.2466
vn -0.8315 -0.3444 0.4359
vn -0.9000 0.0000 0.4359
vn 0.8695 -0.3602 0.3381
vn 0.8953 -0.3709 -0.2466
vn -0.0000 -0.9000 0.4359
vn 0.9411 -0.0000 0.3381
vn 0.9691 -0.0000 -0.2466
vn -0.8315 0.3444 0.4359
vn 0.8695 0.3602 0.3381
vn 0.8953 0.3709 -0.2466
vn -0.3444 0.8315 0.4359
vn 0.0000 0.9000 0.4359
vn 0.0000 0.9411 0.3381
vn 0.3602 0.8695 0.3381
vn 0.3709 0.8953 -0.2466
vn 0.0000 0.9691 -0.2466
vn 0.9000 -0.0000 0.4359
vn -0.3602 0.8695 0.3381
vn -0.3709 0.8953 -0.2466
vn -0.6364 0.6364 0.4359
vn -0.6655 0.6655 0.3381
vn -0.6853 0.6853 -0.2466
vn 0.3444 0.8315 0.4359
vn -0.8695 0.3602 0.3381
vn -0.8953 0.3709 -0.2466
vn -0.3602 -0.8695 0.3381
vn -0.3709 -0.8953 -0.2466
vn 0.6655 0.6655 0.3381
vn 0.6853 0.6853 -0.2466
vn 0.8703 -0.0000 -0.4925
vn 0.8041 0.3331 -0.4925
vn -0.8703 0.0000 -0.4925
vn -0.8041 -0.3331 -0.4925
vn 0.8041 -0.3331 -0.4925
vn -0.8041 0.3331 -0.4925
vn 0.6154 -0.6154 -0.4925
vn -0.6154 0.6154 -0.4925
vn 0.3331 -0.8041 -0.4925
vn -0.3331 0.8041 -0.4925
vn -0.0000 -0.8703 -0.4925
vn 0.0000 0.8703 -0.4925
vn -0.3331 -0.8041 -0.4925
vn 0.6154 0.6154 -0.4925
vn 0.3331 0.8041 -0.4925
vn -0.6154 -0.6154 -0.4925
vn 0.2884 0.6961 0.6574
vn 0.5328 0.5328 0.6574
vn 0.6961 0.2884 0.6574
vn 0.7535 -0.0000 0.6574
vn 0.6961 -0.2884 0.6574
vn 0.5328 -0.5328 0.6574
vn 0.2884 -0.6961 0.6574
vn -0.0000 -0.7535 0.6574
vn -0.2884 -0.6961 0.6574
vn -0.5328 -0.5328 0.6574
vn -0.6961 -0.2884 0.6574
vn -0.7535 0.0000 0.6574
vn -0.6961 0.2884 0.6574
vn -0.5328 0.5328 0.6574
vn -0.2884 0.6961 0.6574
vn 0.0000 0.7535 0.6574
vn -0.3717 0.6946 0.6160
vn -0.1838 0.7160 0.6735
vn -0.1974 0.7149 0.6708
vn -0.3979 0.6902 0.6044
vn -0.5575 0.6569 0.5077
vn -0.5885 0.6486 0.4826
vn 0.3717 0.6946 0.6160
vn 0.5575 0.6569 0.5077
vn 0.5885 0.6486 0.4826
vn 0.3979 0.6902 0.6044
vn 0.1838 0.7160 0.6735
vn 0.1974 0.7149 0.6708
vn -0.0000 0.7227 0.6911
vn 0.7093 0.6107 0.3521
vn 0.7964 0.5781 0.1777
vn 0.8014 0.5762 0.1603
vn 0.7280 0.6040 0.3244
vn 0.7120 0.5850 -0.3883
vn 0.5710 0.5897 -0.5712
vn 0.7119 0.5851 -0.3884
vn 0.7920 0.5788 -0.1943
vn 0.7920 0.5788 -0.1944
vn 0.8205 0.5716 -0.0063
vn 0.8205 0.5716 -0.0071
vn 0.3863 0.5903 -0.7088
vn 0.1942 0.5856 -0.7870
vn 0.1923 0.5855 -0.7875
vn 0.3864 0.5903 -0.7087
vn -0.3863 0.5903 -0.7088
vn -0.5710 0.5897 -0.5712
vn -0.3864 0.5903 -0.7087
vn -0.1942 0.5856 -0.7870
vn -0.1923 0.5855 -0.7875
vn -0.0000 0.5816 -0.8135
vn -0.7120 0.5851 -0.3883
vn -0.7920 0.5788 -0.1943
vn -0.7920 0.5788 -0.1944
vn -0.7119 0.5851 -0.3884
vn -0.7093 0.6107 0.3521
vn -0.7280 0.6040 0.3244
vn -0.7964 0.5781 0.1777
vn -0.8014 0.5762 0.1603
vn -0.8205 0.5716 -0.0063
vn -0.8205 0.5716 -0.0071
vn -0.7842 -0.5879 -0.1985
vn -0.7037 -0.5906 -0.3949
vn -0.5652 -0.7612 -0.3182
vn -0.6294 -0.7605 -0.1595
vn 0.7037 -0.5906 -0.3949
vn 0.7842 -0.5879 -0.1985
vn 0.6294 -0.7605 -0.1595
vn 0.5652 -0.7612 -0.3182
vn 0.5690 -0.5937 0.5689
vn 0.3866 -0.5913 0.7077
vn 0.3094 -0.7620 0.5690
vn 0.4574 -0.7626 0.4573
vn -0.5627 -0.5917 -0.5773
vn -0.4517 -0.7603 -0.4669
vn 0.8099 -0.5866 -0.0016
vn 0.6499 -0.7600 -0.0016
vn 0.1900 -0.5839 -0.7893
vn 0.3807 -0.5881 -0.7136
vn 0.3040 -0.7582 -0.5768
vn 0.1512 -0.7559 -0.6370
vn 0.1933 -0.5877 0.7857
vn 0.1542 -0.7604 0.6309
vn -0.5690 -0.5937 0.5689
vn -0.7077 -0.5914 0.3864
vn -0.5689 -0.7621 0.3092
vn -0.4574 -0.7626 0.4573
vn 0.7855 -0.5880 0.1930
vn 0.6307 -0.7606 0.1540
vn 0.5627 -0.5917 -0.5773
vn 0.4517 -0.7603 -0.4669
vn 0.0000 -0.5862 0.8102
vn 0.0000 -0.7597 0.6503
vn -0.7855 -0.5880 0.1930
vn -0.6307 -0.7606 0.1540
vn -0.3807 -0.5881 -0.7136
vn -0.3040 -0.7582 -0.5768
vn -0.1933 -0.5877 0.7857
vn -0.1542 -0.7604 0.6309
vn -0.8099 -0.5866 -0.0016
vn -0.6499 -0.7600 -0.0016
vn -0.1900 -0.5839 -0.7893
vn -0.1512 -0.7559 -0.6370
vn 0.7077 -0.5914 0.3864
vn 0.5689 -0.7621 0.3092
vn -0.0000 -0.5823 -0.8130
vn 0.0000 -0.7549 -0.6558
vn -0.3866 -0.5913 0.7077
vn -0.3094 -0.7620 0.5690
vn 0.0000 -1.0000 -0.0042
vn 0.2278 0.5499 0.8036
vn 0.1528 0.3689 0.9168
vn 0.2823 0.2823 0.9168
vn 0.4208 0.4208 0.8036
vn 0.3689 0.1528 0.9168
vn 0.5499 0.2278 0.8036
vn 0.3993 -0.0000 0.9168
vn 0.5952 -0.0000 0.8036
vn 0.3689 -0.1528 0.9168
vn 0.5499 -0.2278 0.8036
vn 0.2823 -0.2823 0.9168
vn 0.4208 -0.4208 0.8036
vn 0.1528 -0.3689 0.9168
vn 0.2278 -0.5499 0.8036
vn 0.0000 -0.3993 0.9168
vn 0.0000 -0.5952 0.8036
vn -0.1528 -0.3689 0.9168
vn -0.2278 -0.5499 0.8036
vn -0.2823 -0.2823 0.9168
vn -0.4208 -0.4208 0.8036
vn -0.3689 -0.1528 0.9168
vn -0.5499 -0.2278 0.8036
vn -0.3993 0.0000 0.9168
vn -0.5952 0.0000 0.8036
vn -0.3689 0.1528 0.9168
vn -0.5499 0.2278 0.8036
vn -0.2823 0.2823 0.9168
vn -0.4208 0.4208 0.8036
vn -0.1528 0.3689 0.9168
vn -0.2278 0.5499 0.8036
vn 0.0000 0.3993 0.9168
vn -0.0000 0.5952 0.8036
usemtl KayKit_Texture_A
s 1
f 28/1/1 78/2/2 79/3/3 72/4/4
f 78/2/2 7/5/5 30/6/6 79/3/3
f 79/3/3 30/6/6 2/7/7 36/8/8
f 72/4/4 79/3/3 36/8/8 8/9/9
f 26/10/10 71/11/11 80/12/12 66/13/13
f 4/14/14 198/15/15 222/16/16 40/17/17
f 71/11/11 10/18/18 197/19/19 80/12/12
f 66/13/13 80/12/12 38/20/20 11/21/21
f 24/22/22 65/23/23 81/24/24 59/25/25
f 65/23/23 13/26/26 31/27/27 81/24/24
f 81/24/24 31/27/27 3/28/28 42/29/29
f 59/25/25 81/24/24 42/29/29 14/30/30
f 22/31/31 58/32/32 82/33/33 52/34/34
f 58/32/32 16/35/35 32/36/36 82/33/33
f 82/33/33 32/36/36 1/37/37 29/38/38
f 52/34/34 82/33/33 29/38/38 5/39/39
f 32/36/36 216/40/40 34/41/41 1/37/37
f 51/42/42 231/43/42 212/44/43 20/45/44
f 49/46/45 215/47/46 32/36/36 16/35/35
f 44/48/47 219/49/48 46/50/49 15/51/50
f 209/52/51 7/5/5 35/53/52 230/54/53
f 41/55/54 225/56/55 206/57/56 13/26/26
f 31/27/27 218/58/57 44/48/47 3/28/28
f 17/59/58 47/60/59 132/61/60 133/62/61
f 83/63/62 49/46/45 16/35/35 45/64/63
f 46/50/49 83/63/62 45/64/63 15/51/50
f 36/8/8 2/7/7 200/65/64 97/66/65
f 80/12/12 198/15/15 4/14/14 38/20/20
f 12/67/66 204/68/67 225/56/55 41/55/54
f 221/69/68 47/70/69 17/71/70 203/72/71
f 224/73/72 48/74/72 18/75/73 207/76/74
f 40/17/17 222/16/16 204/68/67 12/67/66
f 207/76/74 18/75/73 46/50/49 219/49/48
f 13/26/26 206/57/56 218/58/57 31/27/27
f 83/77/75 46/78/76 131/79/77 145/80/78
f 19/81/79 51/82/80 139/83/81 138/84/82
f 47/60/59 10/85/83 129/86/84 132/61/60
f 50/87/85 19/81/79 138/84/82 137/88/86
f 96/89/87 142/90/88 26/10/10 69/91/89
f 49/92/90 83/77/75 145/80/78 136/93/91
f 9/94/92 50/87/85 137/88/86 127/95/93
f 203/72/71 17/71/70 48/74/72 224/73/72
f 97/66/65 201/96/94 9/97/95 70/98/96
f 19/99/97 210/100/98 231/43/42 51/42/42
f 227/101/99 30/6/6 7/5/5 209/52/51
f 230/54/53 35/53/52 6/102/100 213/103/101
f 50/104/102 228/105/103 210/100/98 19/99/97
f 213/103/101 6/102/100 34/41/41 216/40/40
f 20/45/44 212/44/43 215/47/46 49/46/45
f 56/106/104 22/31/31 52/34/34 84/107/105
f 84/107/105 52/34/34 5/39/39 33/108/106
f 43/109/107 14/30/30 53/110/108 85/111/109
f 85/111/109 53/110/108 21/112/110 55/113/111
f 55/113/111 21/112/110 54/114/112 86/115/113
f 86/115/113 54/114/112 22/31/31 56/106/104
f 14/30/30 42/29/29 87/116/114 53/110/108
f 42/29/29 3/28/28 44/48/47 87/116/114
f 87/116/114 44/48/47 15/51/50 57/117/115
f 53/110/108 87/116/114 57/117/115 21/112/110
f 21/112/110 57/117/115 88/118/116 54/114/112
f 57/117/115 15/51/50 45/64/63 88/118/116
f 88/118/116 45/64/63 16/35/35 58/32/32
f 54/114/112 88/118/116 58/32/32 22/31/31
f 63/119/117 24/22/22 59/25/25 89/120/118
f 89/120/118 59/25/25 14/30/30 43/109/107
f 39/121/119 11/21/21 60/122/120 90/123/121
f 90/123/121 60/122/120 23/124/122 62/125/123
f 62/125/123 23/124/122 61/126/124 91/127/125
f 91/127/125 61/126/124 24/22/22 63/119/117
f 11/21/21 38/20/20 92/128/126 60/122/120
f 38/20/20 4/14/14 40/17/17 92/128/126
f 92/128/126 40/17/17 12/67/66 64/129/127
f 60/122/120 92/128/126 64/129/127 23/124/122
f 23/124/122 64/129/127 93/130/128 61/126/124
f 64/129/127 12/67/66 41/55/54 93/130/128
f 93/130/128 41/55/54 13/26/26 65/23/23
f 61/126/124 93/130/128 65/23/23 24/22/22
f 69/91/89 26/10/10 66/13/13 94/131/129
f 94/131/129 66/13/13 11/21/21 39/121/119
f 37/132/130 8/9/9 67/133/131 95/134/132
f 95/134/132 67/133/131 25/135/133 68/136/134
f 46/78/135 18/137/136 130/138/137 131/79/135
f 71/139/138 26/140/139 144/141/140
f 8/9/9 36/8/8 97/66/65 67/133/131
f 200/65/64 2/7/7 30/6/6 227/101/99
f 9/97/95 201/96/94 228/105/103 50/104/102
f 67/133/131 97/66/65 70/98/96 25/135/133
f 10/85/83 71/139/138 144/141/140 129/86/84
f 20/142/141 49/92/142 136/93/142 135/143/143
f 25/144/144 70/145/145 143/146/146
f 18/137/136 48/147/147 134/148/148 130/138/137
f 76/149/149 28/1/1 72/4/4 98/150/150
f 98/150/150 72/4/4 8/9/9 37/132/130
f 33/108/106 5/39/39 73/151/151 99/152/152
f 99/152/152 73/151/151 27/153/153 75/154/154
f 75/154/154 27/153/153 74/155/155 100/156/156
f 100/156/156 74/155/155 28/1/1 76/149/149
f 5/39/39 29/38/38 101/157/157 73/151/151
f 29/38/38 1/37/37 34/41/41 101/157/157
f 101/157/157 34/41/41 6/102/100 77/158/158
f 73/151/151 101/157/157 77/158/158 27/153/153
f 27/153/153 77/158/158 102/159/159 74/155/155
f 77/158/158 6/102/100 35/53/52 102/159/159
f 102/159/159 35/53/52 7/5/5 78/2/2
f 74/155/155 102/159/159 78/2/2 28/1/1
f 529/160/160 536/161/161 100/162/162 76/163/163
f 112/164/164 123/165/165 186/166/165 175/167/166
f 520/168/167 523/169/168 181/170/168 180/171/167
f 525/172/169 527/173/170 185/174/170 183/175/169
f 105/176/171 121/177/172 178/178/173 167/179/174
f 510/180/175 509/181/176 39/182/176 90/183/177
f 121/177/172 112/164/164 175/167/166 178/178/173
f 113/184/178 125/185/179 192/186/180 194/187/181
f 521/188/182 530/189/183 98/190/184 37/191/182
f 120/192/185 109/193/186 172/194/187 174/195/188
f 518/196/189 517/197/190 69/198/191 94/199/192
f 508/200/193 511/201/194 169/202/195 168/203/193
f 109/193/186 119/204/196 170/205/197 172/194/187
f 514/206/198 512/207/199 62/208/200 91/209/201
f 126/210/202 113/184/178 194/187/181 196/211/203
f 490/212/204 493/213/205 151/214/206 150/215/207
f 107/216/208 116/217/209 158/218/210 160/219/211
f 116/217/209 106/220/212 155/221/213 158/218/210
f 517/197/190 526/222/214 96/223/214 69/198/191
f 110/224/215 120/192/185 174/195/188 163/225/216
f 509/181/176 518/196/189 94/199/192 39/182/176
f 111/226/217 122/227/218 182/228/219 184/229/220
f 524/230/221 522/231/222 95/232/223 68/233/224
f 506/234/225 505/235/226 63/236/227 89/237/228
f 496/238/229 499/239/230 157/240/231 156/241/232
f 515/242/233 504/243/234 164/244/235 173/245/236
f 507/246/237 496/238/229 156/241/232 165/247/238
f 528/248/239 531/249/240 189/250/241 188/251/242
f 530/189/183 529/160/160 76/163/163 98/190/184
f 526/222/214 524/230/221 68/233/224 96/223/214
f 535/252/243 537/253/244 195/254/245 193/255/246
f 501/256/247 503/257/248 161/258/248 159/259/249
f 527/173/170 516/260/250 176/261/250 185/174/170
f 511/201/194 513/262/251 171/263/252 169/202/195
f 522/231/222 521/188/182 37/191/182 95/232/223
f 519/264/253 508/200/193 168/203/193 177/265/253
f 537/253/244 528/248/239 188/251/242 195/254/245
f 504/243/234 507/246/237 165/247/238 164/244/235
f 523/169/168 525/172/169 183/175/169 181/170/168
f 512/207/199 510/180/175 90/183/177 62/208/200
f 494/266/254 492/267/255 84/268/256 33/269/257
f 115/270/258 108/271/259 149/272/260 152/273/261
f 531/249/240 520/168/167 180/171/167 189/250/241
f 498/274/262 497/275/263 43/276/264 85/277/265
f 513/262/251 515/242/233 173/245/236 171/263/252
f 491/278/266 502/279/267 86/280/267 56/281/268
f 532/282/269 494/266/254 33/269/257 99/283/270
f 119/204/196 105/176/171 167/179/174 170/205/197
f 108/271/259 117/284/271 162/285/271 149/272/260
f 104/286/272 124/287/273 190/288/274 179/289/275
f 516/260/250 519/264/253 177/265/253 176/261/250
f 125/185/179 103/290/276 154/291/277 192/186/180
f 495/292/278 533/293/279 191/294/280 153/295/281
f 534/296/282 532/282/269 99/283/270 75/297/283
f 123/165/165 111/226/217 184/229/220 186/166/165
f 106/220/212 118/298/284 166/299/285 155/221/213
f 497/275/263 506/234/225 89/237/228 43/276/264
f 536/161/161 534/296/282 75/297/283 100/162/162
f 124/287/273 114/300/286 187/301/287 190/288/274
f 505/235/226 514/206/198 91/209/201 63/236/227
f 117/284/271 107/216/208 160/219/211 162/285/271
f 122/227/218 104/286/272 179/289/275 182/228/219
f 118/298/284 110/224/215 163/225/216 166/299/285
f 500/302/288 498/274/262 85/277/265 55/303/289
f 533/293/279 535/252/243 193/255/246 191/294/280
f 114/300/286 126/210/202 196/211/203 187/301/287
f 499/239/230 501/256/247 159/259/249 157/240/231
f 103/290/276 115/270/258 152/273/261 154/291/277
f 502/279/267 500/302/288 55/303/289 86/280/267
f 130/304/290 141/305/291 145/306/78 131/307/77
f 141/305/291 135/308/292 136/309/91 145/306/78
f 129/310/293 128/311/294 146/312/295 132/313/296
f 128/311/294 127/314/297 137/315/298 146/312/295
f 146/312/295 137/315/298 138/316/299 140/317/300
f 132/313/296 146/312/295 140/317/300 133/318/301
f 133/318/301 140/317/300 147/319/302 134/320/303
f 140/317/300 138/316/299 139/321/304 147/319/302
f 147/319/302 139/321/304 135/308/292 141/305/291
f 134/320/303 147/319/302 141/305/291 130/304/290
f 25/135/133 143/322/305 148/323/306 142/90/88
f 143/322/305 127/314/297 128/311/294 148/323/306
f 148/323/306 128/311/294 129/310/293 144/324/307
f 142/90/88 148/323/306 144/324/307 26/10/10
f 51/82/80 20/142/141 135/143/143 139/83/81
f 48/147/147 17/59/58 133/62/61 134/148/148
f 70/145/145 9/94/92 127/95/93 143/146/146
f 68/136/134 25/135/133 142/90/88 96/89/87
f 493/213/205 495/292/278 153/295/281 151/214/206
f 150/325/308 151/326/309 152/273/310 149/272/311
f 154/291/312 152/273/310 151/326/309 153/327/313
f 156/328/314 157/329/315 158/218/316 155/221/317
f 160/219/318 158/218/316 157/329/315 159/330/319
f 159/330/319 161/331/320 162/285/320 160/219/318
f 149/272/311 162/285/320 161/331/320 150/325/308
f 164/332/321 165/333/322 166/299/323 163/225/324
f 155/221/317 166/299/323 165/333/322 156/328/314
f 168/334/325 169/335/326 170/205/327 167/179/328
f 172/194/329 170/205/327 169/335/326 171/336/330
f 171/336/330 173/337/331 174/195/332 172/194/329
f 163/225/324 174/195/332 173/337/331 164/332/321
f 176/338/333 177/339/334 178/178/335 175/167/333
f 167/179/328 178/178/335 177/339/334 168/334/325
f 180/340/336 181/341/337 182/228/338 179/289/339
f 184/229/340 182/228/338 181/341/337 183/342/340
f 183/342/340 185/343/341 186/166/341 184/229/340
f 175/167/333 186/166/341 185/343/341 176/338/333
f 188/344/342 189/345/343 190/288/344 187/301/345
f 179/289/339 190/288/344 189/345/343 180/340/336
f 153/327/313 191/346/346 192/186/347 154/291/312
f 194/187/348 192/186/347 191/346/346 193/347/349
f 193/347/349 195/348/350 196/211/351 194/187/348
f 187/301/345 196/211/351 195/348/350 188/344/342
f 503/257/248 490/212/204 150/215/207 161/258/248
f 197/349/352 199/350/353 80/351/354
f 199/352/355 198/353/356 80/354/357
f 200/355/358 202/356/359 97/357/360
f 202/358/361 201/359/362 97/360/363
f 215/361/364 217/362/365 32/363/366
f 217/364/367 216/365/368 32/366/369
f 218/367/370 220/368/371 44/369/372
f 220/370/373 219/371/374 44/372/375
f 213/373/376 216/365/368 217/364/367 214/374/377
f 214/375/378 217/362/365 215/361/364 212/376/379
f 207/377/380 219/371/374 220/370/373 208/378/381
f 208/379/382 220/368/371 218/367/370 206/380/383
f 197/349/352 221/381/384 223/382/385 199/350/353
f 199/352/355 223/383/386 222/384/387 198/353/356
f 204/385/388 222/384/387 223/383/386 205/386/389
f 205/387/390 223/382/385 221/381/384 203/388/391
f 203/388/391 224/389/392 226/390/392 205/387/390
f 205/386/389 226/391/393 225/392/393 204/385/388
f 206/380/383 225/392/393 226/391/393 208/379/382
f 208/378/381 226/390/392 224/389/392 207/377/380
f 200/355/358 227/393/394 229/394/395 202/356/359
f 202/358/361 229/395/396 228/396/397 201/359/362
f 210/397/398 228/396/397 229/395/396 211/398/399
f 211/399/400 229/394/395 227/393/394 209/400/401
f 209/400/401 230/401/402 232/402/402 211/399/400
f 211/398/399 232/403/403 231/404/403 210/397/398
f 212/376/379 231/404/403 232/403/403 214/375/378
f 214/374/377 232/402/402 230/401/402 213/373/376
f 197/19/19 10/18/18 47/70/69 221/69/68
f 341/405/404 304/406/405 351/407/406 311/408/407
f 346/409/408 267/410/408 266/411/409 302/412/410
f 303/413/411 251/414/412 267/410/408 346/409/408
f 325/415/413 286/416/414 370/417/415 331/418/416
f 291/419/417 241/420/418 247/421/419 318/422/420
f 336/423/421 256/424/422 260/425/423 283/426/424
f 344/427/425 233/428/426 243/429/427 282/430/428
f 283/426/424 260/425/423 249/431/429 342/432/430
f 287/433/431 244/434/432 240/435/433 324/436/434
f 299/437/435 259/438/436 275/439/437 374/440/438
f 315/441/439 288/442/440 368/443/441 347/444/442
f 300/445/443 373/446/444 305/447/444 356/448/445
f 285/449/446 253/450/447 238/451/448 334/452/449
f 295/453/450 252/454/451 255/455/452 328/456/452
f 335/457/453 284/458/454 372/459/455 320/460/456
f 374/440/438 275/439/437 261/461/457 298/462/458
f 318/422/420 247/421/419 246/463/459 290/464/460
f 323/465/461 296/466/462 360/467/463 337/468/464
f 313/469/465 292/470/466 364/471/467 349/472/468
f 328/456/452 255/455/452 254/473/469 294/474/470
f 373/446/444 297/475/471 357/476/472 305/447/444
f 324/436/434 240/435/433 252/454/451 295/453/450
f 314/477/473 242/478/474 241/420/418 291/419/417
f 342/432/430 249/431/429 251/414/412 303/413/411
f 319/479/475 257/480/476 278/481/477 358/482/478
f 333/483/479 300/445/443 356/448/445 321/484/480
f 289/485/481 315/441/439 347/444/442 365/486/482
f 355/487/483 263/488/484 237/489/485 322/490/486
f 354/491/487 264/492/488 265/493/489 307/494/490
f 316/495/491 245/496/492 244/434/432 287/433/431
f 310/497/493 234/498/494 264/492/488 354/491/487
f 317/499/495 289/485/481 365/486/482 339/500/496
f 367/501/497 270/502/497 280/503/498 348/504/498
f 284/458/454 341/405/404 311/408/407 372/459/455
f 312/505/499 248/506/500 268/507/501 371/508/501
f 294/474/470 254/473/469 235/509/502 326/510/503
f 362/511/504 274/512/505 271/513/506 330/514/507
f 297/475/471 335/457/453 320/460/456 357/476/472
f 359/515/508 272/516/509 239/517/510 338/518/511
f 375/519/512 273/520/512 234/498/494 310/497/493
f 358/482/478 278/481/477 262/521/513 306/522/513
f 307/494/490 265/493/489 250/523/514 352/524/515
f 296/466/462 327/525/516 329/526/517 360/467/463
f 332/527/518 236/528/519 274/512/505 362/511/504
f 371/508/501 268/507/501 257/480/476 319/479/475
f 304/406/405 345/529/520 308/530/521 351/407/406
f 340/531/522 258/532/522 277/533/523 363/534/524
f 290/464/460 246/463/459 245/496/492 316/495/491
f 350/535/525 276/536/525 273/520/512 375/519/512
f 326/510/503 235/509/502 253/450/447 285/449/446
f 286/416/414 333/483/479 321/484/480 370/417/415
f 322/490/486 237/489/485 269/537/526 369/538/526
f 343/539/527 281/540/528 376/541/529 309/542/530
f 293/543/531 325/415/413 331/418/416 361/544/532
f 369/538/526 269/537/526 236/528/519 332/527/518
f 330/514/507 271/513/506 272/516/509 359/515/508
f 301/545/533 343/539/527 309/542/530 353/546/534
f 366/547/535 279/548/536 258/532/522 340/531/522
f 327/525/516 293/543/531 361/544/532 329/526/517
f 363/534/524 277/533/523 276/536/525 350/535/525
f 345/529/520 301/545/533 353/546/534 308/530/521
f 298/462/458 261/461/457 256/424/422 336/423/421
f 334/452/449 238/451/448 259/438/436 299/437/435
f 292/470/466 317/499/495 339/500/496 364/471/467
f 306/522/513 262/521/513 263/488/484 355/487/483
f 338/518/511 239/517/510 270/502/497 367/501/497
f 302/412/410 266/411/409 233/428/426 344/427/425
f 281/540/528 313/469/465 349/472/468 376/541/529
f 352/524/515 250/523/514 248/506/500 312/505/499
f 348/504/498 280/503/498 279/548/536 366/547/535
f 288/442/440 323/465/461 337/468/464 368/443/441
f 292/549/466 313/550/465 314/477/473 291/419/417
f 313/550/465 281/551/528 282/430/428 314/477/473
f 288/552/440 315/553/439 316/495/491 287/433/431
f 315/553/439 289/554/481 290/464/460 316/495/491
f 289/554/481 317/555/495 318/422/420 290/464/460
f 317/555/495 292/549/466 291/419/417 318/422/420
f 296/556/462 323/557/461 324/436/434 295/453/450
f 323/557/461 288/552/440 287/433/431 324/436/434
f 286/558/414 325/559/413 326/510/503 285/449/446
f 325/559/413 293/560/531 294/474/470 326/510/503
f 293/560/531 327/561/516 328/456/537 294/474/470
f 327/561/516 296/556/462 295/453/450 328/456/537
f 300/562/443 333/563/479 334/452/449 299/437/435
f 333/563/479 286/558/414 285/449/446 334/452/449
f 284/564/454 335/565/453 336/423/421 283/426/424
f 335/565/453 297/566/471 298/462/458 336/423/421
f 306/567/538 355/568/539 356/569/540 305/570/538
f 354/571/541 307/572/542 308/573/521 353/574/534
f 304/575/405 341/576/404 342/432/430 303/413/411
f 341/576/404 284/564/454 283/426/424 342/432/430
f 281/551/528 343/577/527 344/427/425 282/430/428
f 343/577/527 301/578/533 302/412/410 344/427/425
f 301/578/533 345/579/520 346/409/543 302/412/410
f 345/579/520 304/575/405 303/413/411 346/409/543
f 312/580/544 371/581/545 372/582/546 311/583/547
f 371/581/545 319/584/548 320/585/549 372/582/546
f 322/586/550 369/587/551 370/588/552 321/589/553
f 330/590/554 359/591/555 360/592/463 329/593/517
f 310/594/556 354/571/541 353/574/534 309/595/557
f 362/596/558 330/590/554 329/593/517 361/597/532
f 332/598/559 362/596/558 361/597/532 331/599/560
f 369/587/551 332/598/559 331/599/560 370/588/552
f 338/600/561 367/601/562 368/602/563 337/603/564
f 359/591/555 338/600/561 337/603/564 360/592/463
f 340/604/565 363/605/566 364/606/567 339/607/565
f 366/608/568 340/604/565 339/607/565 365/609/569
f 358/610/570 306/567/538 305/570/538 357/611/571
f 348/612/572 366/608/568 365/609/569 347/613/573
f 352/614/574 312/580/544 311/583/547 351/615/406
f 367/601/562 348/612/572 347/613/573 368/602/563
f 319/584/548 358/610/570 357/611/571 320/585/549
f 355/568/539 322/586/550 321/589/553 356/569/540
f 350/616/575 375/617/576 376/618/577 349/619/578
f 297/566/471 373/620/579 374/440/438 298/462/458
f 373/620/579 300/562/443 299/437/435 374/440/438
f 307/572/542 352/614/574 351/615/406 308/573/521
f 375/617/576 310/594/556 309/595/557 376/618/577
f 363/605/566 350/616/575 349/619/578 364/606/567
f 282/430/428 243/429/427 242/478/474 314/477/473
f 417/621/580 420/622/581 384/623/581 387/624/580
f 384/625/582 381/626/582 486/627/582 484/628/582
f 420/622/581 423/629/583 381/630/583 384/623/581
f 479/631/584 481/632/585 437/633/586 436/634/587
f 471/635/588 473/636/589 433/637/590 432/638/591
f 477/639/592 479/631/584 436/634/587 435/640/593
f 380/641/594 383/642/595 421/643/595 424/644/594
f 408/645/596 411/646/597 393/647/597 396/648/596
f 469/649/598 471/635/588 432/638/591 431/650/599
f 378/651/582 424/652/582 459/653/582 488/654/582
f 386/655/600 389/656/601 415/657/601 418/658/600
f 467/659/602 469/649/598 431/650/599 430/660/603
f 423/629/583 425/661/604 378/662/604 381/630/583
f 412/663/582 409/664/582 468/665/582 466/666/582
f 383/642/595 386/655/600 418/658/600 421/643/595
f 465/667/605 467/659/602 430/660/603 429/668/606
f 389/656/601 392/669/607 412/670/607 415/657/601
f 463/671/608 465/667/605 429/668/606 428/672/609
f 398/673/610 402/674/611 403/675/611 406/676/610
f 489/677/612 458/678/613 426/679/614 441/680/615
f 414/681/616 417/621/580 387/624/580 390/682/616
f 487/683/617 489/677/612 441/680/615 440/684/618
f 392/669/607 395/685/619 409/686/619 412/670/607
f 485/687/620 487/683/617 440/684/618 439/688/621
f 425/661/604 380/641/594 424/644/594 378/662/604
f 402/674/611 405/689/622 400/690/622 403/675/611
f 483/691/623 485/687/620 439/688/621 438/692/624
f 387/693/582 384/625/582 484/628/582 482/694/582
f 395/685/619 398/673/610 406/676/610 409/686/619
f 405/689/622 408/645/596 396/648/596 400/690/622
f 481/632/585 483/691/623 438/692/624 437/633/586
f 475/695/625 477/639/592 435/640/593 434/696/626
f 411/646/597 414/681/616 390/682/616 393/647/597
f 390/697/582 387/693/582 482/694/582 480/698/582
f 393/699/582 390/697/582 480/698/582 478/700/582
f 403/701/582 400/702/582 474/703/582 472/704/582
f 396/705/582 393/699/582 478/700/582 476/706/582
f 473/636/589 475/695/625 434/696/626 433/637/590
f 400/702/582 396/705/582 476/706/582 474/703/582
f 406/707/582 403/701/582 472/704/582 470/708/582
f 409/664/582 406/707/582 470/708/582 468/665/582
f 415/709/582 412/663/582 466/666/582 464/710/582
f 418/711/582 415/709/582 464/710/582 462/712/582
f 424/652/582 421/713/582 460/714/582 459/653/582
f 421/713/582 418/711/582 462/712/582 460/714/582
f 461/715/627 463/671/608 428/672/609 427/716/628
f 381/626/582 378/651/582 488/654/582 486/627/582
f 428/672/609 429/668/606 445/717/629 444/718/630
f 436/634/587 437/633/586 453/719/631 452/720/632
f 429/668/606 430/660/603 446/721/633 445/717/629
f 437/633/586 438/692/624 454/722/634 453/719/631
f 430/660/603 431/650/599 447/723/635 446/721/633
f 438/692/624 439/688/621 455/724/636 454/722/634
f 431/650/599 432/638/591 448/725/637 447/723/635
f 439/688/621 440/684/618 456/726/638 455/724/636
f 432/638/591 433/637/590 449/727/639 448/725/637
f 440/684/618 441/680/615 457/728/640 456/726/638
f 433/637/590 434/696/626 450/729/641 449/727/639
f 426/679/614 427/716/628 443/730/642 442/731/643
f 441/680/615 426/679/614 442/731/643 457/728/640
f 434/696/626 435/640/593 451/732/644 450/729/641
f 427/716/628 428/672/609 444/718/630 443/730/642
f 435/640/593 436/634/587 452/720/632 451/732/644
f 459/733/645 460/734/646 461/735/627 458/736/613
f 460/734/646 462/737/647 463/738/608 461/735/627
f 465/739/605 463/738/608 462/737/647 464/740/648
f 467/741/602 465/739/605 464/740/648 466/742/649
f 466/742/649 468/743/650 469/744/598 467/741/602
f 468/743/650 470/745/651 471/746/588 469/744/598
f 473/747/589 471/746/588 470/745/651 472/748/652
f 475/749/625 473/747/589 472/748/652 474/750/653
f 474/750/653 476/751/654 477/752/592 475/749/625
f 479/753/584 477/752/592 476/751/654 478/754/655
f 481/755/585 479/753/584 478/754/655 480/756/656
f 480/756/656 482/757/657 483/758/623 481/755/585
f 482/757/657 484/759/658 485/760/620 483/758/623
f 487/761/617 485/760/620 484/759/658 486/762/659
f 489/763/612 487/761/617 486/762/659 488/764/660
f 458/736/613 489/763/612 488/764/660 459/733/645
f 458/678/613 461/715/627 427/716/628 426/679/614
f 493/765/661 490/766/662 491/767/663 492/768/664
f 495/769/665 493/765/661 492/768/664 494/770/666
f 499/771/667 496/772/668 497/773/669 498/774/670
f 501/775/671 499/771/667 498/774/670 500/776/672
f 503/777/673 501/775/671 500/776/672 502/778/673
f 490/766/662 503/777/673 502/778/673 491/767/663
f 507/779/674 504/780/675 505/781/676 506/782/677
f 496/772/668 507/779/674 506/782/677 497/773/669
f 511/783/678 508/784/679 509/785/679 510/786/680
f 513/787/681 511/783/678 510/786/680 512/788/682
f 515/789/683 513/787/681 512/788/682 514/790/684
f 504/780/675 515/789/683 514/790/684 505/781/676
f 519/791/685 516/792/686 517/793/687 518/794/688
f 508/784/679 519/791/685 518/794/688 509/785/679
f 523/795/689 520/796/690 521/797/690 522/798/691
f 525/799/692 523/795/689 522/798/691 524/800/693
f 527/801/694 525/799/692 524/800/693 526/802/694
f 516/792/686 527/801/694 526/802/694 517/793/687
f 531/803/695 528/804/696 529/805/697 530/806/698
f 520/796/690 531/803/695 530/806/698 521/797/690
f 533/807/699 495/769/665 494/770/666 532/808/700
f 535/809/701 533/807/699 532/808/700 534/810/702
f 537/811/703 535/809/701 534/810/702 536/812/704
f 528/804/696 537/811/703 536/812/704 529/805/697
f 56/281/268 84/268/256 492/267/255 491/278/266
f 110/813/705 118/814/706 553/815/707 545/816/708
f 125/817/709 113/818/710 548/819/711 560/820/712
f 104/821/713 122/822/714 557/823/715 539/824/716
f 118/814/706 106/825/717 541/826/718 553/815/707
f 113/818/710 126/827/719 561/828/720 548/819/711
f 108/829/721 115/830/722 550/831/723 543/832/724
f 122/822/714 111/833/725 546/834/726 557/823/715
f 105/835/727 119/836/728 554/837/729 540/838/730
f 126/827/719 114/839/731 549/840/732 561/828/720
f 115/830/722 103/841/733 538/842/734 550/831/723
f 111/833/725 123/843/735 558/844/736 546/834/726
f 119/836/728 109/845/737 544/846/738 554/837/729
f 106/825/717 116/847/739 551/848/740 541/826/718
f 123/843/735 112/849/741 547/850/742 558/844/736
f 109/845/737 120/851/743 555/852/744 544/846/738
f 116/847/739 107/853/745 542/854/746 551/848/740
f 114/839/731 124/855/747 559/856/748 549/840/732
f 120/851/743 110/813/705 545/816/708 555/852/744
f 107/853/745 117/857/749 552/858/750 542/854/746
f 124/855/747 104/821/713 539/824/716 559/856/748
f 112/849/741 121/859/751 556/860/752 547/850/742
f 117/857/749 108/829/721 543/832/724 552/858/750
f 103/841/733 125/817/709 560/820/712 538/842/734
f 121/859/751 105/835/727 540/838/730 556/860/752
f 550/831/723 538/842/734 562/861/753
f 546/834/726 558/844/736 562/862/753
f 554/837/729 544/846/738 562/863/753
f 541/826/718 551/848/740 562/864/753
f 558/844/736 547/850/742 562/862/753
f 544/846/738 555/852/744 562/863/753
f 551/848/740 542/854/746 562/861/753
f 549/840/732 559/856/748 562/863/753
f 555/852/744 545/816/708 562/863/753
f 542/854/746 552/858/750 562/865/753
f 559/856/748 539/824/716 562/863/753
f 547/850/742 556/860/752 562/862/753
f 552/858/750 543/832/724 562/865/753
f 538/842/734 560/820/712 562/864/753
f 556/860/752 540/838/730 562/862/753
f 545/816/708 553/815/707 562/863/753
f 560/820/712 548/819/711 562/866/753
f 539/824/716 557/823/715 562/862/753
f 553/815/707 541/826/718 562/866/753
f 548/819/711 561/828/720 562/863/753
f 543/832/724 550/831/723 562/865/753
f 557/823/715 546/834/726 562/862/753
f 540/838/730 554/837/729 562/862/753
f 561/828/720 549/840/732 562/863/753
usemtl KayKit_Texture_A_Glow
f 380/867/754 379/868/755 382/869/756 383/870/757
f 382/869/756 399/871/582 385/872/758
f 383/870/757 382/869/756 385/872/758 386/873/759
f 385/872/758 388/874/760 389/875/761 386/873/759
f 385/872/758 399/871/582 388/874/760
f 388/874/760 399/871/582 391/876/762
f 388/874/760 391/876/762 392/877/763 389/875/761
f 392/877/763 391/876/762 394/878/764 395/879/765
f 391/876/762 399/871/582 394/878/764
f 395/879/765 394/878/764 397/880/766 398/881/767
f 394/878/764 399/871/582 397/880/766
f 397/880/766 401/882/768 402/883/769 398/881/767
f 397/880/766 399/871/582 401/882/768
f 401/882/768 404/884/770 405/885/771 402/883/769
f 399/871/582 404/884/770 401/882/768
f 405/885/771 404/884/770 407/886/772 408/887/773
f 404/884/770 399/871/582 407/886/772
f 408/887/773 407/886/772 410/888/774 411/889/775
f 407/886/772 399/871/582 410/888/774
f 410/888/774 413/890/776 414/891/777 411/889/775
f 410/888/774 399/871/582 413/890/776
f 414/891/777 413/890/776 416/892/778 417/893/779
f 413/890/776 399/871/582 416/892/778
f 416/892/778 399/871/582 419/894/780
f 417/893/779 416/892/778 419/894/780 420/895/781
f 419/894/780 422/896/782 423/897/783 420/895/781
f 419/894/780 399/871/582 422/896/782
f 422/896/782 399/871/582 377/898/784
f 422/896/782 377/898/784 425/899/785 423/897/783
f 379/868/755 399/871/582 382/869/756
f 399/871/582 379/868/755 377/898/784
f 377/898/784 379/868/755 380/867/754 425/899/785
