# Blender v3.4.1 OBJ File: 'MixedBag1_Export.blend'
# www.blender.org
mtllib puzzlecube_center.mtl
o puzzlecube_center
v -0.128680 -0.152178 0.128680
v -0.128680 -0.128680 0.152178
v -0.152178 -0.128680 0.128680
v -0.128680 0.128680 0.152178
v -0.128680 0.152178 0.128680
v -0.152178 0.128680 0.128680
v -0.128680 -0.152178 -0.128680
v -0.152178 -0.128680 -0.128680
v -0.128680 -0.128680 -0.152178
v -0.128680 0.152178 -0.128680
v -0.128680 0.128680 -0.152178
v -0.152178 0.128680 -0.128680
v 0.128680 -0.152178 0.128680
v 0.152178 -0.128680 0.128680
v 0.128680 -0.128680 0.152178
v 0.128680 0.152178 0.128680
v 0.128680 0.128680 0.152178
v 0.152178 0.128680 0.128680
v 0.128680 -0.152178 -0.128680
v 0.128680 -0.128680 -0.152178
v 0.152178 -0.128680 -0.128680
v 0.128680 0.152178 -0.128680
v 0.152178 0.128680 -0.128680
v 0.128680 0.128680 -0.152178
vt 0.828305 0.634857
vt 0.828305 0.682560
vt 0.780602 0.682560
vt 0.780602 0.634857
vt 0.832660 0.634857
vt 0.832660 0.682560
vt 0.832660 0.682560
vt 0.832660 0.634857
vt 0.828305 0.686916
vt 0.780602 0.686916
vt 0.780602 0.686916
vt 0.828305 0.686916
vt 0.776246 0.634857
vt 0.776246 0.682560
vt 0.776246 0.682560
vt 0.776246 0.634857
vt 0.780602 0.634857
vt 0.780602 0.682560
vt 0.828305 0.682560
vt 0.828305 0.634857
vt 0.780602 0.630502
vt 0.780602 0.630501
vt 0.828305 0.630501
vt 0.828305 0.630501
vn 0.0000 0.0000 1.0000
vn 0.8756 -0.3416 -0.3416
vn 0.8756 0.3416 -0.3416
vn 0.8756 0.3416 0.3416
vn 0.8756 -0.3416 0.3416
vn 0.3416 0.8756 -0.3416
vn -0.3416 0.8756 -0.3416
vn -0.3416 0.8756 0.3416
vn 0.3416 0.8756 0.3416
vn -0.8756 -0.3416 0.3416
vn -0.8756 0.3416 0.3416
vn -0.8756 0.3416 -0.3416
vn -0.8756 -0.3416 -0.3416
vn 0.0000 0.0000 -1.0000
vn -0.3416 -0.8756 0.3416
vn -0.4606 -0.4606 0.7588
vn -0.4606 0.4606 0.7588
vn -0.3416 -0.8756 -0.3416
vn -0.4606 -0.4606 -0.7588
vn -0.4606 0.4606 -0.7588
vn 0.3416 -0.8756 0.3416
vn 0.4606 -0.4606 0.7588
vn 0.4606 0.4606 0.7588
vn 0.3416 -0.8756 -0.3416
vn 0.4606 -0.4606 -0.7588
vn 0.4606 0.4606 -0.7588
usemtl KayKit_Texture_A
s 1
f 15/1/1 17/2/1 4/3/1 2/4/1
f 21/5/2 23/6/3 18/7/4 14/8/5
f 22/9/6 10/10/7 5/11/8 16/12/9
f 3/13/10 6/14/11 12/15/12 8/16/13
f 9/17/14 11/18/14 24/19/14 20/20/14
f 1/21/15 2/4/16 3/13/10
f 4/3/17 5/11/8 6/14/11
f 7/22/18 8/16/13 9/17/19
f 10/10/7 11/18/20 12/15/12
f 13/23/21 14/8/5 15/1/22
f 16/12/9 17/2/23 18/7/4
f 19/24/24 20/20/25 21/5/2
f 22/9/6 23/6/3 24/19/26
f 7/22/18 1/21/15 3/13/10 8/16/13
f 2/4/16 4/3/17 6/14/11 3/13/10
f 5/11/8 10/10/7 12/15/12 6/14/11
f 11/18/20 9/17/19 8/16/13 12/15/12
f 19/24/24 7/22/18 9/17/19 20/20/25
f 10/10/7 22/9/6 24/19/26 11/18/20
f 23/6/3 21/5/2 20/20/25 24/19/26
f 13/23/21 19/24/24 21/5/2 14/8/5
f 22/9/6 16/12/9 18/7/4 23/6/3
f 17/2/23 15/1/22 14/8/5 18/7/4
f 1/21/15 13/23/21 15/1/22 2/4/16
f 16/12/9 5/11/8 4/3/17 17/2/23
f 7/22/18 19/24/24 13/23/21 1/21/15
