# Blender v3.4.1 OBJ File: 'MixedBag1_Export.blend'
# www.blender.org
mtllib puzzlecube_incomplete.mtl
o puzzlecube_incomplete
v 0.066667 -0.066667 0.200000
v -0.066667 -0.066667 0.200000
v 0.066667 0.066667 0.200000
v -0.066667 0.066667 0.200000
v 0.059270 -0.059270 0.212413
v 0.059270 0.059270 0.212413
v -0.059270 0.059270 0.212413
v -0.059270 -0.059270 0.212413
v 0.200000 0.200000 0.200000
v 0.066667 0.200000 0.200000
v 0.212413 0.074063 0.074063
v 0.212413 0.192604 0.074063
v 0.212413 0.192604 0.192604
v 0.212413 0.074063 0.192604
v 0.192604 0.212413 0.074063
v 0.074063 0.212413 0.074063
v 0.074063 0.212413 0.192604
v 0.192604 0.212413 0.192604
v 0.192604 0.074063 0.212413
v 0.192604 0.192604 0.212413
v 0.074063 0.192604 0.212413
v 0.074063 0.074063 0.212413
v -0.200000 -0.200000 0.200000
v -0.200000 -0.200000 0.066667
v -0.200000 -0.066667 0.200000
v -0.074063 -0.074063 0.212413
v -0.192604 -0.074063 0.212413
v -0.192604 -0.192604 0.212413
v -0.074063 -0.192604 0.212413
v -0.212413 -0.074063 0.192604
v -0.212413 -0.074063 0.074063
v -0.212413 -0.192604 0.074063
v -0.212413 -0.192604 0.192604
v -0.074063 -0.212413 0.192604
v -0.192604 -0.212413 0.192604
v -0.192604 -0.212413 0.074063
v -0.074063 -0.212413 0.074063
v -0.200000 0.200000 0.200000
v -0.200000 0.200000 0.066667
v -0.066667 0.200000 0.200000
v -0.074063 0.074063 0.212413
v -0.074063 0.192604 0.212413
v -0.192604 0.192604 0.212413
v -0.192604 0.074063 0.212413
v -0.074063 0.212413 0.192604
v -0.074063 0.212413 0.074063
v -0.192604 0.212413 0.074063
v -0.192604 0.212413 0.192604
v -0.212413 0.074063 0.192604
v -0.212413 0.192604 0.192604
v -0.212413 0.192604 0.074063
v -0.212413 0.074063 0.074063
v -0.200000 0.200000 -0.200000
v -0.200000 0.066667 -0.200000
v -0.074063 0.212413 -0.074063
v -0.074063 0.212413 -0.192604
v -0.192604 0.212413 -0.192604
v -0.192604 0.212413 -0.074063
v -0.074063 0.192604 -0.212413
v -0.074063 0.074063 -0.212413
v -0.192604 0.074063 -0.212413
v -0.192604 0.192604 -0.212413
v -0.212413 0.192604 -0.074063
v -0.212413 0.192604 -0.192604
v -0.212413 0.074063 -0.192604
v -0.212413 0.074063 -0.074063
v 0.200000 0.200000 -0.200000
v 0.200000 0.200000 -0.066667
v 0.066667 0.200000 -0.200000
v 0.074063 0.212413 -0.074063
v 0.192604 0.212413 -0.074063
v 0.192604 0.212413 -0.192604
v 0.074063 0.212413 -0.192604
v 0.212413 0.192604 -0.074063
v 0.212413 0.074063 -0.074063
v 0.212413 0.074063 -0.192604
v 0.212413 0.192604 -0.192604
v 0.074063 0.192604 -0.212413
v 0.192604 0.192604 -0.212413
v 0.192604 0.074063 -0.212413
v 0.074063 0.074063 -0.212413
v 0.200000 -0.200000 0.200000
v 0.066667 -0.200000 0.200000
v 0.074063 -0.074063 0.212413
v 0.074063 -0.192604 0.212413
v 0.192604 -0.192604 0.212413
v 0.192604 -0.074063 0.212413
v 0.074063 -0.212413 0.192604
v 0.074063 -0.212413 0.074063
v 0.192604 -0.212413 0.074063
v 0.192604 -0.212413 0.192604
v 0.212413 -0.074063 0.192604
v 0.212413 -0.192604 0.192604
v 0.212413 -0.192604 0.074063
v 0.212413 -0.074063 0.074063
v -0.200000 -0.200000 -0.200000
v -0.200000 -0.200000 -0.066667
v -0.066667 -0.200000 -0.200000
v -0.066667 -0.200000 -0.066667
v -0.074063 -0.074063 -0.212413
v -0.074063 -0.192604 -0.212413
v -0.192604 -0.192604 -0.212413
v -0.192604 -0.074063 -0.212413
v -0.074063 -0.212413 -0.192604
v -0.074063 -0.212413 -0.074063
v -0.192604 -0.212413 -0.074063
v -0.192604 -0.212413 -0.192604
v -0.212413 -0.074063 -0.192604
v -0.212413 -0.192604 -0.192604
v -0.212413 -0.192604 -0.074063
v -0.212413 -0.074063 -0.074063
v 0.200000 -0.200000 -0.200000
v 0.074063 -0.074063 -0.212413
v 0.192604 -0.074063 -0.212413
v 0.192604 -0.192603 -0.212413
v 0.074063 -0.192604 -0.212413
v 0.212413 -0.074063 -0.192604
v 0.212413 -0.074063 -0.074063
v 0.212413 -0.192604 -0.074063
v 0.212413 -0.192603 -0.192604
v 0.074063 -0.212413 -0.192604
v 0.192604 -0.212413 -0.192604
v 0.192604 -0.212413 -0.074063
v 0.074063 -0.212413 -0.074063
v -0.200000 0.066667 0.200000
v -0.074063 -0.059270 0.212413
v -0.074063 0.059270 0.212413
v -0.192604 0.059270 0.212413
v -0.192604 -0.059270 0.212413
v -0.212413 -0.059270 0.074063
v -0.212413 -0.059270 0.192604
v -0.212413 0.059270 0.192604
v -0.212413 0.059270 0.074063
v 0.200000 0.066667 0.200000
v 0.200000 -0.066667 0.200000
v 0.074063 0.059270 0.212413
v 0.074063 -0.059270 0.212413
v 0.192604 -0.059270 0.212413
v 0.192604 0.059270 0.212413
v 0.212413 0.059270 0.074063
v 0.212413 0.059270 0.192604
v 0.212413 -0.059270 0.192604
v 0.212413 -0.059270 0.074063
v 0.200000 0.200000 0.066667
v 0.066667 0.200000 -0.066667
v 0.212413 0.074063 0.059270
v 0.212413 0.074063 -0.059270
v 0.212413 0.192604 -0.059270
v 0.212413 0.192604 0.059270
v 0.074063 0.212413 0.059270
v 0.192604 0.212413 0.059270
v 0.192604 0.212413 -0.059270
v 0.074063 0.212413 -0.059270
v -0.200000 -0.066667 -0.200000
v -0.066667 0.066667 -0.200000
v -0.200000 0.066667 -0.066666
v -0.200000 -0.066667 -0.066666
v -0.074063 0.059270 -0.212413
v -0.074063 -0.059270 -0.212413
v -0.192604 -0.059270 -0.212413
v -0.192604 0.059270 -0.212413
v -0.212413 0.059270 -0.074063
v -0.212413 0.059270 -0.192604
v -0.212413 -0.059270 -0.192603
v -0.212413 -0.059270 -0.074063
v -0.066666 -0.200000 0.200000
v -0.066667 -0.200000 0.066667
v 0.059271 -0.074063 0.212413
v -0.059270 -0.074063 0.212413
v -0.059270 -0.192604 0.212413
v 0.059271 -0.192604 0.212413
v 0.059270 -0.212413 0.074063
v 0.059271 -0.212413 0.192604
v -0.059270 -0.212413 0.192604
v -0.059270 -0.212413 0.074063
v -0.212413 -0.074063 0.059270
v -0.212413 -0.074063 -0.059270
v -0.212413 -0.192604 -0.059270
v -0.212413 -0.192604 0.059270
v -0.074063 -0.212413 0.059270
v -0.192604 -0.212413 0.059270
v -0.192604 -0.212413 -0.059270
v -0.074063 -0.212413 -0.059270
v -0.066667 0.200000 0.066667
v -0.059270 0.074063 0.212413
v 0.059271 0.074063 0.212413
v 0.059271 0.192604 0.212413
v -0.059270 0.192604 0.212413
v -0.059270 0.212413 0.074063
v -0.059270 0.212413 0.192604
v 0.059271 0.212413 0.192604
v 0.059270 0.212413 0.074063
v -0.066667 0.200000 -0.200000
v 0.059270 0.074063 -0.212413
v -0.059270 0.074063 -0.212413
v -0.059270 0.192604 -0.212413
v 0.059270 0.192604 -0.212413
v 0.059271 0.212413 -0.074063
v 0.059270 0.212413 -0.192604
v -0.059270 0.212413 -0.192604
v -0.059270 0.212413 -0.074063
v 0.200000 -0.066667 -0.200000
v 0.200000 0.066667 -0.200000
v 0.066667 0.066667 -0.200000
v 0.200000 0.066667 -0.066666
v 0.074063 -0.059270 -0.212413
v 0.074063 0.059270 -0.212413
v 0.192604 0.059270 -0.212413
v 0.192604 -0.059270 -0.212413
v 0.212413 -0.059270 -0.074063
v 0.212413 -0.059270 -0.192604
v 0.212413 0.059270 -0.192604
v 0.212413 0.059270 -0.074063
v 0.066667 -0.200000 -0.200000
v -0.066667 -0.066667 -0.200000
v 0.066667 -0.066667 -0.200000
v -0.059270 -0.074063 -0.212413
v 0.059270 -0.074063 -0.212413
v 0.059270 -0.192604 -0.212413
v -0.059270 -0.192604 -0.212413
v -0.059270 -0.212413 -0.074063
v -0.059270 -0.212413 -0.192604
v 0.059270 -0.212413 -0.192604
v 0.059270 -0.212413 -0.074063
v -0.200000 0.200000 -0.066667
v -0.212413 0.074063 -0.059270
v -0.212413 0.074063 0.059270
v -0.212413 0.192604 0.059270
v -0.212413 0.192604 -0.059270
v -0.074063 0.212413 -0.059270
v -0.192604 0.212413 -0.059270
v -0.192604 0.212413 0.059270
v -0.074063 0.212413 0.059270
v 0.200000 -0.200000 -0.066666
v 0.200000 -0.200000 0.066667
v 0.200000 -0.066667 0.066667
v 0.066667 -0.200000 -0.066666
v 0.066667 -0.200000 0.066667
v 0.212413 -0.074063 -0.059270
v 0.212413 -0.074063 0.059271
v 0.212413 -0.192604 0.059271
v 0.212413 -0.192604 -0.059270
v 0.074063 -0.212413 -0.059270
v 0.192604 -0.212413 -0.059270
v 0.192604 -0.212413 0.059271
v 0.074063 -0.212413 0.059271
v 0.200000 0.066667 0.066667
v 0.200000 -0.066667 -0.066666
v 0.212413 -0.059270 0.059271
v 0.212413 -0.059270 -0.059270
v 0.212413 0.059270 -0.059270
v 0.212413 0.059270 0.059271
v -0.059271 -0.059270 -0.212413
v -0.059271 0.059270 -0.212413
v 0.059270 0.059270 -0.212413
v 0.059270 -0.059270 -0.212413
v -0.200000 -0.066667 0.066667
v -0.200000 0.066667 0.066667
v -0.212413 -0.059270 -0.059270
v -0.212413 -0.059270 0.059271
v -0.212413 0.059270 0.059271
v -0.212413 0.059270 -0.059270
v 0.066667 0.200000 0.066667
v -0.066667 0.200000 -0.066667
v 0.059270 0.212413 -0.059270
v -0.059270 0.212413 -0.059270
v -0.059270 0.212413 0.059270
v 0.059270 0.212413 0.059270
v 0.059270 -0.212413 0.059270
v -0.059270 -0.212413 0.059270
v -0.059270 -0.212413 -0.059270
v 0.059270 -0.212413 -0.059270
vt 0.203892 0.140868
vt 0.185679 0.140868
vt 0.185679 0.140868
vt 0.203892 0.140868
vt 0.580439 0.890867
vt 0.559132 0.890867
vt 0.560679 0.890868
vt 0.578892 0.890868
vt 0.559132 0.890867
vt 0.560679 0.890868
vt 0.580439 0.890867
vt 0.578892 0.890868
vt 0.226746 0.871107
vt 0.226746 0.889320
vt 0.226746 0.889320
vt 0.226746 0.871107
vt 0.225199 0.140867
vt 0.206986 0.140868
vt 0.206986 0.140868
vt 0.225199 0.140867
vt 0.100199 0.121107
vt 0.100199 0.139320
vt 0.081986 0.139320
vt 0.081986 0.121107
vt 0.601746 0.869560
vt 0.601746 0.890867
vt 0.601746 0.889320
vt 0.601746 0.871107
vt 0.601746 0.890867
vt 0.601746 0.889320
vt 0.601746 0.869560
vt 0.601746 0.871107
vt 0.580439 0.890867
vt 0.581986 0.890868
vt 0.600199 0.890867
vt 0.580439 0.890867
vt 0.581986 0.890868
vt 0.600199 0.890867
vt 0.600199 0.889320
vt 0.600199 0.871107
vt 0.581986 0.889320
vt 0.580439 0.869560
vt 0.581986 0.871107
vt 0.476746 0.121107
vt 0.476746 0.139320
vt 0.476746 0.139320
vt 0.476746 0.121107
vt 0.225199 0.140867
vt 0.206986 0.140868
vt 0.206986 0.140868
vt 0.225199 0.140867
vt 0.225199 0.871107
vt 0.225199 0.889320
vt 0.206986 0.889320
vt 0.206986 0.871107
vt 0.601746 0.869560
vt 0.601746 0.890867
vt 0.601746 0.889320
vt 0.601746 0.871107
vt 0.601746 0.890867
vt 0.601746 0.889320
vt 0.601746 0.869560
vt 0.601746 0.871107
vt 0.580439 0.890867
vt 0.581986 0.890868
vt 0.600199 0.890867
vt 0.580439 0.890867
vt 0.581986 0.890868
vt 0.600199 0.890867
vt 0.600199 0.889320
vt 0.600199 0.871107
vt 0.581986 0.889320
vt 0.580439 0.869560
vt 0.581986 0.871107
vt 0.351746 0.121107
vt 0.351746 0.139320
vt 0.351746 0.139320
vt 0.351746 0.121107
vt 0.225199 0.140867
vt 0.206986 0.140868
vt 0.206986 0.140868
vt 0.225199 0.140867
vt 0.475199 0.121107
vt 0.475199 0.139320
vt 0.456986 0.139320
vt 0.456986 0.121107
vt 0.601746 0.869560
vt 0.601746 0.890867
vt 0.601746 0.889320
vt 0.601746 0.871107
vt 0.601746 0.890867
vt 0.601746 0.889320
vt 0.601746 0.869560
vt 0.601746 0.871107
vt 0.580439 0.890867
vt 0.581986 0.890868
vt 0.600199 0.890867
vt 0.580439 0.890867
vt 0.581986 0.890868
vt 0.600199 0.890867
vt 0.600199 0.889320
vt 0.600199 0.871107
vt 0.581986 0.889320
vt 0.580439 0.869560
vt 0.581986 0.871107
vt 0.101746 0.121107
vt 0.101746 0.139320
vt 0.101746 0.139320
vt 0.101746 0.121107
vt 0.225199 0.140867
vt 0.206986 0.140868
vt 0.206986 0.140868
vt 0.225199 0.140867
vt 0.350199 0.121107
vt 0.350199 0.139320
vt 0.331986 0.139320
vt 0.331986 0.121107
vt 0.601746 0.869560
vt 0.601746 0.890867
vt 0.601746 0.889320
vt 0.601746 0.871107
vt 0.601746 0.890867
vt 0.601746 0.889320
vt 0.601746 0.869560
vt 0.601746 0.871107
vt 0.580439 0.890867
vt 0.581986 0.890868
vt 0.600199 0.890867
vt 0.580439 0.890867
vt 0.581986 0.890868
vt 0.600199 0.890867
vt 0.600199 0.889320
vt 0.600199 0.871107
vt 0.581986 0.889320
vt 0.580439 0.869560
vt 0.581986 0.871107
vt 0.351746 0.121107
vt 0.351746 0.139320
vt 0.351746 0.139320
vt 0.351746 0.121107
vt 0.225199 0.640867
vt 0.206986 0.640868
vt 0.206986 0.640868
vt 0.225199 0.640867
vt 0.100199 0.121107
vt 0.100199 0.139320
vt 0.081986 0.139320
vt 0.081986 0.121107
vt 0.601746 0.869560
vt 0.601746 0.890867
vt 0.601746 0.889320
vt 0.601746 0.871107
vt 0.601746 0.890867
vt 0.601746 0.889320
vt 0.601746 0.869560
vt 0.601746 0.871107
vt 0.580439 0.890867
vt 0.581986 0.890868
vt 0.600199 0.890867
vt 0.580439 0.890867
vt 0.581986 0.890868
vt 0.600199 0.890867
vt 0.600199 0.889320
vt 0.600199 0.871107
vt 0.581986 0.889320
vt 0.580439 0.869560
vt 0.581986 0.871107
vt 0.476746 0.121107
vt 0.476746 0.139320
vt 0.476746 0.139320
vt 0.476746 0.121107
vt 0.225199 0.640867
vt 0.206986 0.640868
vt 0.206986 0.640868
vt 0.225199 0.640867
vt 0.350199 0.121107
vt 0.350199 0.139320
vt 0.331986 0.139320
vt 0.331986 0.121107
vt 0.601746 0.869560
vt 0.601746 0.890867
vt 0.601746 0.889320
vt 0.601746 0.871107
vt 0.601746 0.890867
vt 0.601746 0.889320
vt 0.601746 0.869560
vt 0.601746 0.871107
vt 0.580439 0.890867
vt 0.581986 0.890868
vt 0.600199 0.890867
vt 0.580439 0.890867
vt 0.581986 0.890868
vt 0.600199 0.890867
vt 0.600199 0.889320
vt 0.600199 0.871107
vt 0.581986 0.889320
vt 0.580439 0.869560
vt 0.581986 0.871107
vt 0.226746 0.871107
vt 0.226746 0.889320
vt 0.226746 0.889320
vt 0.226746 0.871107
vt 0.225199 0.640867
vt 0.206986 0.640868
vt 0.206986 0.640868
vt 0.225199 0.640867
vt 0.475199 0.121107
vt 0.475199 0.139320
vt 0.456986 0.139320
vt 0.456986 0.121107
vt 0.601746 0.869560
vt 0.601746 0.890867
vt 0.601746 0.889320
vt 0.601746 0.871107
vt 0.601746 0.890867
vt 0.601746 0.889320
vt 0.601746 0.869560
vt 0.601746 0.871107
vt 0.580439 0.890867
vt 0.581986 0.890868
vt 0.600199 0.890867
vt 0.580439 0.890867
vt 0.581986 0.890868
vt 0.600199 0.890867
vt 0.600199 0.889320
vt 0.600199 0.871107
vt 0.581986 0.889320
vt 0.580439 0.869560
vt 0.581986 0.871107
vt 0.101746 0.121107
vt 0.101746 0.139320
vt 0.101746 0.139320
vt 0.101746 0.121107
vt 0.225199 0.640867
vt 0.206986 0.640868
vt 0.206986 0.640868
vt 0.225199 0.640867
vt 0.225199 0.871107
vt 0.225199 0.889320
vt 0.206986 0.889320
vt 0.206986 0.871107
vt 0.601746 0.869560
vt 0.601746 0.890867
vt 0.601746 0.889320
vt 0.601746 0.871107
vt 0.601746 0.890867
vt 0.601746 0.889320
vt 0.601746 0.869560
vt 0.601746 0.871107
vt 0.580439 0.890867
vt 0.581986 0.890868
vt 0.600199 0.890867
vt 0.580439 0.890867
vt 0.581986 0.890868
vt 0.600199 0.890867
vt 0.600199 0.889320
vt 0.600199 0.871107
vt 0.581986 0.889320
vt 0.580439 0.869560
vt 0.581986 0.871107
vt 0.203892 0.140868
vt 0.185679 0.140868
vt 0.185679 0.140868
vt 0.203892 0.140867
vt 0.078892 0.121107
vt 0.078892 0.139320
vt 0.060679 0.139320
vt 0.060679 0.121107
vt 0.559132 0.890867
vt 0.560679 0.890868
vt 0.560679 0.890868
vt 0.580439 0.890867
vt 0.578892 0.890867
vt 0.578892 0.890868
vt 0.580439 0.869560
vt 0.578892 0.889320
vt 0.578892 0.871107
vt 0.560679 0.889320
vt 0.559132 0.869560
vt 0.560679 0.871107
vt 0.203892 0.140868
vt 0.185679 0.140868
vt 0.185679 0.140868
vt 0.203892 0.140867
vt 0.203892 0.871107
vt 0.203892 0.889320
vt 0.185679 0.889320
vt 0.185679 0.871107
vt 0.559132 0.890867
vt 0.559132 0.890867
vt 0.560679 0.890868
vt 0.560679 0.890868
vt 0.580439 0.890867
vt 0.578892 0.890867
vt 0.580439 0.890867
vt 0.578892 0.890868
vt 0.580439 0.869560
vt 0.578892 0.889320
vt 0.578892 0.871107
vt 0.560679 0.889320
vt 0.559132 0.869560
vt 0.560679 0.871107
vt 0.203892 0.140868
vt 0.185679 0.140868
vt 0.185679 0.140868
vt 0.203892 0.140867
vt 0.453892 0.121107
vt 0.453892 0.139320
vt 0.435679 0.139320
vt 0.435679 0.121107
vt 0.559132 0.890867
vt 0.559132 0.890867
vt 0.560679 0.890868
vt 0.560679 0.890868
vt 0.580439 0.890867
vt 0.578892 0.890867
vt 0.580439 0.890867
vt 0.578892 0.890868
vt 0.580439 0.869560
vt 0.578892 0.889320
vt 0.578892 0.871107
vt 0.560679 0.889320
vt 0.559132 0.869560
vt 0.560679 0.871107
vt 0.203892 0.140868
vt 0.185679 0.140868
vt 0.185679 0.140868
vt 0.203892 0.140867
vt 0.328892 0.121107
vt 0.328892 0.139320
vt 0.310679 0.139320
vt 0.310679 0.121107
vt 0.559132 0.890867
vt 0.559132 0.890867
vt 0.560679 0.890868
vt 0.560679 0.890868
vt 0.578892 0.890867
vt 0.578892 0.890868
vt 0.578892 0.889320
vt 0.578892 0.871107
vt 0.560679 0.889320
vt 0.559132 0.869560
vt 0.560679 0.871107
vt 0.203892 0.640868
vt 0.185679 0.640868
vt 0.185679 0.640868
vt 0.203892 0.640867
vt 0.078892 0.121107
vt 0.078892 0.139320
vt 0.060679 0.139320
vt 0.060679 0.121107
vt 0.559132 0.890867
vt 0.559132 0.890867
vt 0.560679 0.890868
vt 0.560679 0.890868
vt 0.580439 0.890867
vt 0.578892 0.890867
vt 0.578892 0.890868
vt 0.580439 0.869560
vt 0.578892 0.889320
vt 0.578892 0.871107
vt 0.560679 0.889320
vt 0.559132 0.869560
vt 0.560679 0.871107
vt 0.203892 0.640868
vt 0.185679 0.640868
vt 0.185679 0.640868
vt 0.203892 0.640867
vt 0.328892 0.121107
vt 0.328892 0.139320
vt 0.310679 0.139320
vt 0.310679 0.121107
vt 0.559132 0.890867
vt 0.559132 0.890867
vt 0.560679 0.890868
vt 0.560679 0.890868
vt 0.578892 0.890867
vt 0.578892 0.890868
vt 0.578892 0.889320
vt 0.578892 0.871107
vt 0.560679 0.889320
vt 0.559132 0.869560
vt 0.560679 0.871107
vt 0.203892 0.640868
vt 0.185679 0.640868
vt 0.185679 0.640868
vt 0.203892 0.640867
vt 0.453892 0.121107
vt 0.453892 0.139320
vt 0.435679 0.139320
vt 0.435679 0.121107
vt 0.559132 0.890867
vt 0.560679 0.890868
vt 0.560679 0.890868
vt 0.580439 0.890867
vt 0.578892 0.890867
vt 0.580439 0.890867
vt 0.578892 0.890868
vt 0.580439 0.869560
vt 0.578892 0.889320
vt 0.578892 0.871107
vt 0.560679 0.889320
vt 0.559132 0.869560
vt 0.560679 0.871107
vt 0.203892 0.640868
vt 0.185679 0.640868
vt 0.185679 0.640868
vt 0.203892 0.640867
vt 0.203892 0.871107
vt 0.203892 0.889320
vt 0.185679 0.889320
vt 0.185679 0.871107
vt 0.559132 0.890867
vt 0.559132 0.890867
vt 0.560679 0.890868
vt 0.560679 0.890868
vt 0.580439 0.890867
vt 0.578892 0.890867
vt 0.580439 0.890867
vt 0.578892 0.890868
vt 0.580439 0.869560
vt 0.578892 0.889320
vt 0.578892 0.871107
vt 0.560679 0.889320
vt 0.559132 0.869560
vt 0.560679 0.871107
vt 0.203892 0.890868
vt 0.185679 0.890868
vt 0.185679 0.890868
vt 0.203892 0.890867
vt 0.078892 0.121107
vt 0.078892 0.139320
vt 0.060679 0.139320
vt 0.060679 0.121107
vt 0.559132 0.890867
vt 0.559132 0.890867
vt 0.560679 0.890868
vt 0.560679 0.890868
vt 0.580439 0.890867
vt 0.578892 0.890867
vt 0.580439 0.890867
vt 0.578892 0.890868
vt 0.580439 0.869560
vt 0.578892 0.889320
vt 0.578892 0.871107
vt 0.560679 0.889320
vt 0.559132 0.869560
vt 0.560679 0.871107
vt 0.328892 0.140868
vt 0.310679 0.140868
vt 0.310679 0.140868
vt 0.328892 0.140867
vt 0.078892 0.121107
vt 0.078892 0.139320
vt 0.060679 0.139320
vt 0.060679 0.121107
vt 0.559132 0.890867
vt 0.559132 0.890867
vt 0.560679 0.890868
vt 0.560679 0.890868
vt 0.580439 0.890867
vt 0.578892 0.890867
vt 0.580439 0.890867
vt 0.578892 0.890868
vt 0.580439 0.869560
vt 0.578892 0.889320
vt 0.578892 0.871107
vt 0.560679 0.889320
vt 0.559132 0.869560
vt 0.560679 0.871107
vt 0.328892 0.140868
vt 0.310679 0.140868
vt 0.310679 0.140868
vt 0.328892 0.140867
vt 0.453892 0.121107
vt 0.453892 0.139320
vt 0.435679 0.139320
vt 0.435679 0.121107
vt 0.559132 0.890867
vt 0.559132 0.890867
vt 0.560679 0.890868
vt 0.560679 0.890868
vt 0.580439 0.890867
vt 0.578892 0.890867
vt 0.580439 0.890867
vt 0.578892 0.890868
vt 0.580439 0.869560
vt 0.578892 0.889320
vt 0.578892 0.871107
vt 0.560679 0.889320
vt 0.559132 0.869560
vt 0.560679 0.871107
vt 0.203892 0.890868
vt 0.185679 0.890868
vt 0.185679 0.890868
vt 0.203892 0.890867
vt 0.453892 0.121107
vt 0.453892 0.139320
vt 0.435679 0.139320
vt 0.435679 0.121107
vt 0.559132 0.890867
vt 0.559132 0.890867
vt 0.560679 0.890868
vt 0.560679 0.890868
vt 0.578892 0.890867
vt 0.578892 0.890868
vt 0.578892 0.889320
vt 0.578892 0.871107
vt 0.560679 0.889320
vt 0.559132 0.869560
vt 0.560679 0.871107
vt 0.203892 0.890868
vt 0.185679 0.890868
vt 0.185679 0.890868
vt 0.203892 0.890868
vt 0.580439 0.890867
vt 0.559132 0.890867
vt 0.560679 0.890868
vt 0.578892 0.890868
vt 0.560679 0.890868
vt 0.578892 0.890868
vt 0.203892 0.640868
vt 0.185679 0.640868
vt 0.185679 0.640868
vt 0.203892 0.640868
vt 0.560679 0.890868
vt 0.578892 0.890868
vt 0.560679 0.890868
vt 0.578892 0.890868
vt 0.328892 0.140868
vt 0.310679 0.140868
vt 0.310679 0.140868
vt 0.328892 0.140868
vt 0.580439 0.890867
vt 0.559132 0.890867
vt 0.560679 0.890868
vt 0.578892 0.890868
vt 0.560679 0.890868
vt 0.578892 0.890868
vt 0.453892 0.140868
vt 0.435679 0.140868
vt 0.435679 0.140868
vt 0.453892 0.140868
vt 0.580439 0.890867
vt 0.559132 0.890867
vt 0.560679 0.890868
vt 0.578892 0.890868
vt 0.559132 0.890867
vt 0.560679 0.890868
vt 0.578892 0.890868
vt 0.078892 0.140868
vt 0.060679 0.140868
vt 0.060679 0.140868
vt 0.078892 0.140868
vt 0.559132 0.890867
vt 0.560679 0.890868
vt 0.578892 0.890868
vt 0.559132 0.890867
vt 0.560679 0.890868
vt 0.580439 0.890867
vt 0.578892 0.890868
vn -0.0000 -0.0000 1.0000
vn 0.8591 0.0000 0.5119
vn -0.0000 0.8591 0.5119
vn -0.8591 -0.0000 0.5119
vn -0.0000 -0.8591 0.5119
vn 1.0000 -0.0000 -0.0000
vn 0.0000 1.0000 0.0000
vn 0.5119 -0.0000 -0.8591
vn 0.7071 0.7071 -0.0000
vn 0.5119 0.8591 -0.0000
vn 0.7071 -0.0000 0.7071
vn 0.5119 -0.0000 0.8591
vn 0.5119 -0.8591 0.0000
vn 0.0000 0.5119 -0.8591
vn -0.8591 0.5119 0.0000
vn 0.0000 0.7071 0.7071
vn 0.0000 0.5119 0.8591
vn 0.8591 0.5119 -0.0000
vn -1.0000 -0.0000 -0.0000
vn 0.0000 -1.0000 0.0000
vn -0.7071 -0.0000 0.7071
vn -0.0000 -0.7071 0.7071
vn 0.8590 0.0000 0.5119
vn -0.5119 0.8591 -0.0000
vn -0.5119 0.0000 -0.8591
vn -0.7071 -0.7071 -0.0000
vn -0.5119 -0.8591 -0.0000
vn -0.5119 0.0000 0.8591
vn -0.0000 -0.5119 0.8591
vn -0.8591 -0.5119 -0.0000
vn 0.0000 -0.5119 -0.8591
vn 0.8591 -0.5119 0.0000
vn -0.7071 0.7071 0.0000
vn 0.0000 -0.0000 -1.0000
vn -0.0000 0.7071 -0.7071
vn 0.8591 -0.0000 -0.5119
vn -0.0000 -0.8591 -0.5119
vn -0.7071 0.0000 -0.7071
vn -0.8591 0.0000 -0.5119
vn -0.0000 0.8591 -0.5119
vn 0.7071 -0.0000 -0.7071
vn 0.7071 -0.7071 -0.0000
vn 0.5118 -0.0000 -0.8591
vn -0.0000 -0.7071 -0.7071
vn -0.0000 -0.5119 0.8590
vn -0.8590 -0.5119 -0.0000
usemtl KayKit_Texture_A
s 1
f 5/1/1 6/2/1 7/3/1 8/4/1
f 1/5/2 3/6/2 6/7/2 5/8/2
f 3/6/3 4/9/3 7/10/3 6/7/3
f 4/9/4 2/11/4 8/12/4 7/10/4
f 2/11/5 1/5/5 5/8/5 8/12/5
f 11/13/6 12/14/6 13/15/6 14/16/6
f 15/17/7 16/18/7 17/19/7 18/20/7
f 19/21/1 20/22/1 21/23/1 22/24/1
f 247/25/8 144/26/8 12/27/8 11/28/8
f 144/26/9 9/29/9 13/30/10 12/27/10
f 9/29/11 134/31/11 14/32/12 13/30/12
f 134/31/13 247/25/13 11/28/13 14/32/13
f 144/26/14 263/33/14 16/34/14 15/35/14
f 263/33/15 10/36/15 17/37/15 16/34/15
f 10/36/16 9/29/16 18/38/17 17/37/17
f 9/29/9 144/26/9 15/35/18 18/38/18
f 134/31/11 9/29/11 20/39/2 19/40/2
f 9/29/16 10/36/16 21/41/3 20/39/3
f 10/36/4 3/42/4 22/43/4 21/41/4
f 3/42/5 134/31/5 19/40/5 22/43/5
f 26/44/1 27/45/1 28/46/1 29/47/1
f 30/48/19 31/49/19 32/50/19 33/51/19
f 34/52/20 35/53/20 36/54/20 37/55/20
f 2/56/3 25/57/3 27/58/3 26/59/3
f 25/57/21 23/60/21 28/61/4 27/58/4
f 23/60/22 166/62/22 29/63/5 28/61/5
f 166/62/23 2/56/23 26/59/23 29/63/23
f 25/57/24 257/64/24 31/65/24 30/66/24
f 257/64/25 24/67/25 32/68/25 31/65/25
f 24/67/26 23/60/26 33/69/27 32/68/27
f 23/60/21 25/57/21 30/66/28 33/69/28
f 166/62/22 23/60/22 35/70/29 34/71/29
f 23/60/26 24/67/26 36/72/30 35/70/30
f 24/67/31 167/73/31 37/74/31 36/72/31
f 167/73/32 166/62/32 34/71/32 37/74/32
f 41/75/1 42/76/1 43/77/1 44/78/1
f 45/79/7 46/80/7 47/81/7 48/82/7
f 49/83/19 50/84/19 51/85/19 52/86/19
f 4/87/2 40/88/2 42/89/2 41/90/2
f 40/88/16 38/91/16 43/92/3 42/89/3
f 38/91/21 125/93/21 44/94/4 43/92/4
f 125/93/5 4/87/5 41/90/5 44/94/5
f 40/88/18 184/95/18 46/96/18 45/97/18
f 184/95/14 39/98/14 47/99/14 46/96/14
f 39/98/33 38/91/33 48/100/15 47/99/15
f 38/91/16 40/88/16 45/97/17 48/100/17
f 125/93/21 38/91/21 50/101/28 49/102/28
f 38/91/33 39/98/33 51/103/24 50/101/24
f 39/98/25 258/104/25 52/105/25 51/103/25
f 258/104/27 125/93/27 49/102/27 52/105/27
f 55/106/7 56/107/7 57/108/7 58/109/7
f 59/110/34 60/111/34 61/112/34 62/113/34
f 63/114/19 64/115/19 65/116/19 66/117/19
f 264/118/18 193/119/18 56/120/18 55/121/18
f 193/119/35 53/122/35 57/123/14 56/120/14
f 53/122/33 225/124/33 58/125/15 57/123/15
f 225/124/17 264/118/17 55/121/17 58/125/17
f 193/119/36 155/126/36 60/127/36 59/128/36
f 155/126/37 54/129/37 61/130/37 60/127/37
f 54/129/38 53/122/38 62/131/39 61/130/39
f 53/122/35 193/119/35 59/128/40 62/131/40
f 225/124/33 53/122/33 64/132/24 63/133/24
f 53/122/38 54/129/38 65/134/25 64/132/25
f 54/129/27 156/135/27 66/136/27 65/134/27
f 156/135/28 225/124/28 63/133/28 66/136/28
f 70/137/7 71/138/7 72/139/7 73/140/7
f 74/141/6 75/142/6 76/143/6 77/144/6
f 78/145/34 79/146/34 80/147/34 81/148/34
f 145/149/17 68/150/17 71/151/17 70/152/17
f 68/150/9 67/153/9 72/154/18 71/151/18
f 67/153/35 69/155/35 73/156/14 72/154/14
f 69/155/15 145/149/15 70/152/15 73/156/15
f 68/150/12 205/157/12 75/158/12 74/159/12
f 205/157/13 203/160/13 76/161/13 75/158/13
f 203/160/41 67/153/41 77/162/8 76/161/8
f 67/153/9 68/150/9 74/159/10 77/162/10
f 69/155/35 67/153/35 79/163/40 78/164/40
f 67/153/41 203/160/41 80/165/36 79/163/36
f 203/160/37 204/166/37 81/167/37 80/165/37
f 204/166/39 69/155/39 78/164/39 81/167/39
f 84/168/1 85/169/1 86/170/1 87/171/1
f 88/172/20 89/173/20 90/174/20 91/175/20
f 92/176/6 93/177/6 94/178/6 95/179/6
f 1/180/4 83/181/4 85/182/4 84/183/4
f 83/181/22 82/184/22 86/185/5 85/182/5
f 82/184/11 135/186/11 87/187/2 86/185/2
f 135/186/3 1/180/3 84/183/3 87/187/3
f 83/181/30 238/188/30 89/189/30 88/190/30
f 238/188/31 235/191/31 90/192/31 89/189/31
f 235/191/42 82/184/42 91/193/32 90/192/32
f 82/184/22 83/181/22 88/190/29 91/193/29
f 135/186/11 82/184/11 93/194/12 92/195/12
f 82/184/42 235/191/42 94/196/13 93/194/13
f 235/191/43 236/197/43 95/198/43 94/196/43
f 236/197/10 135/186/10 92/195/10 95/198/10
f 100/199/34 101/200/34 102/201/34 103/202/34
f 104/203/20 105/204/20 106/205/20 107/206/20
f 108/207/19 109/208/19 110/209/19 111/210/19
f 215/211/36 98/212/36 101/213/36 100/214/36
f 98/212/44 96/215/44 102/216/37 101/213/37
f 96/215/38 154/217/38 103/218/39 102/216/39
f 154/217/40 215/211/40 100/214/40 103/218/40
f 98/212/32 99/219/32 105/220/32 104/221/32
f 99/219/29 97/222/29 106/223/29 105/220/29
f 97/222/26 96/215/26 107/224/30 106/223/30
f 96/215/44 98/212/44 104/221/31 107/224/31
f 154/217/38 96/215/38 109/225/25 108/226/25
f 96/215/26 97/222/26 110/227/27 109/225/27
f 97/222/28 157/228/28 111/229/28 110/227/28
f 157/228/24 154/217/24 108/226/24 111/229/24
f 113/230/34 114/231/34 115/232/34 116/233/34
f 117/234/6 118/235/6 119/236/6 120/237/6
f 121/238/20 122/239/20 123/240/20 124/241/20
f 216/242/40 202/243/40 114/244/40 113/245/40
f 202/243/41 112/246/41 115/247/36 114/244/36
f 112/246/44 214/248/44 116/249/37 115/247/37
f 214/248/39 216/242/39 113/245/39 116/249/39
f 202/243/10 248/250/10 118/251/10 117/252/10
f 248/250/12 234/253/12 119/254/12 118/251/12
f 234/253/42 112/246/42 120/255/13 119/254/13
f 112/246/41 202/243/41 117/252/8 120/255/8
f 214/248/44 112/246/44 122/256/31 121/257/31
f 112/246/42 234/253/42 123/258/32 122/256/32
f 234/253/45 237/259/45 124/260/45 123/258/45
f 237/259/46 214/248/46 121/257/46 124/260/46
f 126/261/1 127/262/1 128/263/1 129/264/1
f 130/265/19 131/266/19 132/267/19 133/268/19
f 4/9/3 125/269/3 128/270/3 127/271/3
f 125/269/21 25/272/21 129/273/4 128/270/4
f 25/272/5 2/11/5 126/274/5 129/273/5
f 257/275/27 25/272/27 131/276/27 130/277/27
f 25/272/21 125/269/21 132/278/28 131/276/28
f 125/269/24 258/279/24 133/280/24 132/278/24
f 258/279/25 257/275/25 130/277/25 133/280/25
f 127/271/2 126/274/2 2/11/2 4/9/2
f 136/281/1 137/282/1 138/283/1 139/284/1
f 140/285/6 141/286/6 142/287/6 143/288/6
f 1/289/5 135/290/5 138/291/5 137/292/5
f 135/290/11 134/293/11 139/294/2 138/291/2
f 134/293/3 3/295/3 136/296/3 139/294/3
f 247/297/10 134/293/10 141/298/10 140/299/10
f 134/293/11 135/290/11 142/300/12 141/298/12
f 135/290/13 236/301/13 143/302/13 142/300/13
f 236/301/8 247/297/8 140/299/8 143/302/8
f 137/292/4 136/296/4 3/295/4 1/289/4
f 146/303/6 147/304/6 148/305/6 149/306/6
f 150/307/7 151/308/7 152/309/7 153/310/7
f 205/311/8 68/312/8 148/313/8 147/314/8
f 68/312/9 144/315/9 149/316/10 148/313/10
f 144/315/12 247/317/12 146/318/12 149/316/12
f 263/319/17 144/315/17 151/320/17 150/321/17
f 144/315/9 68/312/9 152/322/18 151/320/18
f 68/312/14 145/323/14 153/324/14 152/322/14
f 145/323/15 263/319/15 150/321/15 153/324/15
f 147/314/13 146/318/13 247/317/13 205/311/13
f 158/325/34 159/326/34 160/327/34 161/328/34
f 162/329/19 163/330/19 164/331/19 165/332/19
f 215/333/37 154/334/37 160/335/37 159/336/37
f 154/334/38 54/129/38 161/337/39 160/335/39
f 54/129/40 155/126/40 158/338/40 161/337/40
f 156/135/24 54/129/24 163/339/24 162/340/24
f 54/129/38 154/334/38 164/341/25 163/339/25
f 154/334/27 157/342/27 165/343/27 164/341/27
f 157/342/28 156/135/28 162/340/28 165/343/28
f 159/336/36 158/338/36 155/126/36 215/333/36
f 168/344/1 169/345/1 170/346/1 171/347/1
f 172/348/20 173/349/20 174/350/20 175/351/20
f 2/352/4 166/353/4 170/354/4 169/355/4
f 166/353/22 83/356/22 171/357/5 170/354/5
f 83/356/2 1/5/2 168/358/2 171/357/2
f 238/359/32 83/356/32 173/360/32 172/361/32
f 83/356/22 166/353/22 174/362/29 173/360/29
f 166/353/30 167/363/30 175/364/30 174/362/30
f 167/363/31 238/359/31 172/361/31 175/364/31
f 169/355/3 168/358/3 1/5/3 2/352/3
f 176/365/19 177/366/19 178/367/19 179/368/19
f 180/369/20 181/370/20 182/371/20 183/372/20
f 157/373/25 97/374/25 178/375/25 177/376/25
f 97/374/26 24/67/26 179/377/27 178/375/27
f 24/67/28 257/64/28 176/378/28 179/377/28
f 167/73/29 24/67/29 181/379/29 180/380/29
f 24/67/26 97/374/26 182/381/30 181/379/30
f 97/374/31 99/382/31 183/383/31 182/381/31
f 99/382/32 167/73/32 180/380/32 183/383/32
f 177/376/24 176/378/24 257/64/24 157/373/24
f 185/384/1 186/385/1 187/386/1 188/387/1
f 189/388/7 190/389/7 191/390/7 192/391/7
f 3/6/2 10/392/2 187/393/2 186/394/2
f 10/392/16 40/395/16 188/396/3 187/393/3
f 40/395/4 4/397/4 185/398/4 188/396/4
f 184/399/15 40/395/15 190/400/15 189/401/15
f 40/395/16 10/392/16 191/402/17 190/400/17
f 10/392/18 263/403/18 192/404/18 191/402/18
f 263/403/14 184/399/14 189/401/14 192/404/14
f 186/394/5 185/398/5 4/397/5 3/6/5
f 194/405/34 195/406/34 196/407/34 197/408/34
f 198/409/7 199/410/7 200/411/7 201/412/7
f 155/413/39 193/414/39 196/415/39 195/416/39
f 193/414/35 69/417/35 197/418/40 196/415/40
f 69/417/36 204/419/36 194/420/36 197/418/36
f 145/421/18 69/417/18 199/422/18 198/423/18
f 69/417/35 193/414/35 200/424/14 199/422/14
f 193/414/15 264/425/15 201/426/15 200/424/15
f 264/425/17 145/421/17 198/423/17 201/426/17
f 195/416/37 194/420/37 204/419/37 155/413/37
f 206/427/34 207/428/34 208/429/34 209/430/34
f 210/431/6 211/432/6 212/433/6 213/434/6
f 204/435/40 203/436/40 208/437/40 207/438/40
f 203/436/41 202/439/41 209/440/36 208/437/36
f 202/439/37 216/441/37 206/442/37 209/440/37
f 248/443/13 202/439/13 211/444/13 210/445/13
f 202/439/41 203/436/41 212/446/8 211/444/8
f 203/436/10 205/447/10 213/448/10 212/446/10
f 205/447/12 248/443/12 210/445/12 213/448/12
f 207/438/39 206/442/39 216/441/39 204/435/39
f 217/449/34 218/450/34 219/451/34 220/452/34
f 221/453/20 222/454/20 223/455/20 224/456/20
f 216/457/36 214/458/36 219/459/36 218/460/36
f 214/458/44 98/461/44 220/462/37 219/459/37
f 98/461/39 215/463/39 217/464/39 220/462/39
f 99/465/30 98/461/30 222/466/30 221/467/30
f 98/461/44 214/458/44 223/468/31 222/466/31
f 214/458/32 237/469/32 224/470/32 223/468/32
f 237/469/29 99/465/29 221/467/29 224/470/29
f 218/460/40 217/464/40 215/463/40 216/457/40
f 226/471/19 227/472/19 228/473/19 229/474/19
f 230/475/7 231/476/7 232/477/7 233/478/7
f 258/479/28 39/480/28 228/481/28 227/482/28
f 39/480/33 225/483/33 229/484/24 228/481/24
f 225/483/25 156/485/25 226/486/25 229/484/25
f 264/487/14 225/483/14 231/488/14 230/489/14
f 225/483/33 39/480/33 232/490/15 231/488/15
f 39/480/17 184/491/17 233/492/17 232/490/17
f 184/491/18 264/487/18 230/489/18 233/492/18
f 227/482/27 226/486/27 156/485/27 258/479/27
f 239/493/6 240/494/6 241/495/6 242/496/6
f 243/497/20 244/498/20 245/499/20 246/500/20
f 236/501/12 235/502/12 241/503/12 240/504/12
f 235/502/42 234/253/42 242/505/13 241/503/13
f 234/253/8 248/250/8 239/506/8 242/505/8
f 237/259/31 234/253/31 244/507/31 243/508/31
f 234/253/42 235/502/42 245/509/32 244/507/32
f 235/502/29 238/510/29 246/511/29 245/509/29
f 238/510/30 237/259/30 243/508/30 246/511/30
f 240/504/10 239/506/10 248/250/10 236/501/10
f 249/512/6 250/513/6 251/514/6 252/515/6
f 236/516/13 248/517/13 250/518/13 249/519/13
f 248/517/8 205/311/8 251/520/8 250/518/8
f 205/311/10 247/317/10 252/521/10 251/520/10
f 247/317/12 236/516/12 249/519/12 252/521/12
f 253/522/34 254/523/34 255/524/34 256/525/34
f 215/463/39 155/413/39 254/526/39 253/527/39
f 155/413/40 204/435/40 255/528/40 254/526/40
f 204/435/36 216/441/36 256/529/36 255/528/36
f 216/441/37 215/463/37 253/527/37 256/529/37
f 259/530/19 260/531/19 261/532/19 262/533/19
f 157/534/27 257/535/27 260/536/27 259/537/27
f 257/535/28 258/479/28 261/538/28 260/536/28
f 258/479/24 156/485/24 262/539/24 261/538/24
f 156/485/25 157/534/25 259/537/25 262/539/25
f 265/540/7 266/541/7 267/542/7 268/543/7
f 145/544/14 264/545/14 266/546/14 265/547/14
f 264/545/15 184/548/15 267/549/15 266/546/15
f 184/548/17 263/33/17 268/550/17 267/549/17
f 263/33/18 145/544/18 265/547/18 268/550/18
f 269/551/20 270/552/20 271/553/20 272/554/20
f 238/188/45 167/555/45 270/556/45 269/557/45
f 167/555/30 99/558/30 271/559/30 270/556/30
f 99/558/31 237/560/31 272/561/31 271/559/31
f 237/560/32 238/188/32 269/557/32 272/561/32
