# Blender v3.4.1 OBJ File: 'MixedBag1_Export.blend'
# www.blender.org
mtllib puzzlecube_center_puzzlecube_V.mtl
o puzzlecube_V
v -0.066667 -0.199999 -0.066667
v -0.066667 -0.199999 0.066667
v 0.066667 -0.199999 -0.066667
v 0.066667 -0.199999 0.066667
v -0.059270 -0.212412 -0.059270
v 0.059270 -0.212412 -0.059270
v 0.059270 -0.212412 0.059270
v -0.059270 -0.212412 0.059270
v -0.066667 -0.066666 -0.066667
v -0.066667 -0.066666 0.066667
v 0.066667 -0.066666 -0.066667
v 0.066667 -0.066666 0.066667
vt 0.203892 0.640868
vt 0.185679 0.640868
vt 0.185679 0.640868
vt 0.203892 0.640868
vt 0.580439 0.890867
vt 0.559132 0.890867
vt 0.560679 0.890868
vt 0.578892 0.890868
vt 0.559132 0.890867
vt 0.560679 0.890868
vt 0.580439 0.890867
vt 0.578892 0.890868
vt 0.580439 0.890867
vt 0.559132 0.890867
vt 0.580439 0.890867
vt 0.559132 0.890867
vn 0.0000 -1.0000 -0.0000
vn -0.0000 -0.2181 -0.9759
vn -0.0000 -0.5119 -0.8591
vn 0.9759 -0.2181 -0.0000
vn 0.8591 -0.5119 -0.0000
vn 0.0000 -0.2181 0.9759
vn 0.0000 -0.5119 0.8591
vn -0.9759 -0.2181 0.0000
vn -0.8591 -0.5119 -0.0000
vn -0.0000 0.0000 -1.0000
vn -1.0000 -0.0000 0.0000
vn 0.0000 -0.0000 1.0000
vn 1.0000 0.0000 -0.0000
vn -0.0000 1.0000 0.0000
usemtl KayKit_Texture_A
s 1
f 5/1/1 6/2/1 7/3/1 8/4/1
f 1/5/2 3/6/2 6/7/3 5/8/3
f 3/6/4 4/9/4 7/10/5 6/7/5
f 4/9/6 2/11/6 8/12/7 7/10/7
f 2/11/8 1/5/8 5/8/9 8/12/9
f 3/6/2 1/5/2 9/13/10 11/14/10
f 1/5/8 2/11/8 10/15/11 9/13/11
f 2/11/6 4/9/6 12/16/12 10/15/12
f 4/9/4 3/6/4 11/14/13 12/16/13
f 10/15/14 12/16/14 11/14/14 9/13/14
