# Blender v3.4.1 OBJ File: 'MixedBag1_Export.blend'
# www.blender.org
mtllib puzzlecube_center_puzzlecube_R.mtl
o puzzlecube_R
v -0.200000 -0.199999 -0.200000
v -0.200000 -0.199999 -0.066667
v -0.066667 -0.199999 -0.200000
v -0.066667 -0.199999 -0.066667
v -0.200000 -0.066666 -0.200000
v -0.200000 -0.066666 -0.066667
v -0.066667 -0.066666 -0.200000
v -0.074063 -0.074062 -0.212413
v -0.074063 -0.192603 -0.212413
v -0.192604 -0.192603 -0.212413
v -0.192604 -0.074062 -0.212413
v -0.074063 -0.212412 -0.192604
v -0.074063 -0.212412 -0.074063
v -0.192604 -0.212412 -0.074063
v -0.192604 -0.212412 -0.192604
v -0.212413 -0.074062 -0.192604
v -0.212413 -0.192603 -0.192604
v -0.212413 -0.192603 -0.074063
v -0.212413 -0.074062 -0.074063
v -0.066667 -0.066666 -0.066667
vt 0.476746 0.121107
vt 0.476746 0.139320
vt 0.476746 0.139320
vt 0.476746 0.121107
vt 0.225199 0.640867
vt 0.206986 0.640868
vt 0.206986 0.640868
vt 0.225199 0.640867
vt 0.350199 0.121107
vt 0.350199 0.139320
vt 0.331986 0.139320
vt 0.331986 0.121107
vt 0.601746 0.869560
vt 0.601746 0.890867
vt 0.601746 0.889320
vt 0.601746 0.871107
vt 0.601746 0.890867
vt 0.601746 0.889320
vt 0.601746 0.869560
vt 0.601746 0.871107
vt 0.580439 0.890867
vt 0.581986 0.890868
vt 0.600199 0.890867
vt 0.580439 0.890867
vt 0.581986 0.890868
vt 0.600199 0.890867
vt 0.600199 0.889320
vt 0.600199 0.871107
vt 0.581986 0.889320
vt 0.580439 0.869560
vt 0.581986 0.871107
vt 0.580383 0.861500
vn 0.0000 0.0000 -1.0000
vn -0.0000 -1.0000 -0.0000
vn -1.0000 0.0000 -0.0000
vn 0.9759 -0.0000 -0.2181
vn 0.9746 -0.1584 -0.1584
vn 0.8591 -0.0000 -0.5119
vn -0.0000 -0.7071 -0.7071
vn -0.0000 -0.8591 -0.5119
vn -0.7071 0.0000 -0.7071
vn -0.8591 0.0000 -0.5119
vn -0.1584 0.9746 -0.1584
vn 0.0000 0.9759 -0.2181
vn 0.0000 0.8591 -0.5119
vn 0.9759 -0.2181 -0.0000
vn 0.8591 -0.5119 -0.0000
vn -0.0000 -0.2181 0.9759
vn -0.1584 -0.1584 0.9746
vn -0.0000 -0.5119 0.8591
vn -0.7071 -0.7071 -0.0000
vn -0.8591 -0.5119 -0.0000
vn -0.0000 -0.5119 -0.8591
vn -0.5119 0.0000 -0.8591
vn -0.5119 -0.8591 -0.0000
vn -0.2181 -0.0000 0.9759
vn -0.5119 -0.0000 0.8591
vn -0.2181 0.9759 0.0000
vn -0.5119 0.8591 0.0000
vn 0.0000 1.0000 0.0000
vn 0.0000 -0.0000 1.0000
vn 1.0000 -0.0000 0.0000
usemtl KayKit_Texture_A
s 1
f 8/1/1 9/2/1 10/3/1 11/4/1
f 12/5/2 13/6/2 14/7/2 15/8/2
f 16/9/3 17/10/3 18/11/3 19/12/3
f 7/13/4 3/14/5 9/15/6 8/16/6
f 3/14/7 1/17/7 10/18/8 9/15/8
f 1/17/9 5/19/9 11/20/10 10/18/10
f 5/19/11 7/13/12 8/16/13 11/20/13
f 3/14/5 4/21/14 13/22/15 12/23/15
f 4/21/16 2/24/17 14/25/18 13/22/18
f 2/24/19 1/17/19 15/26/20 14/25/20
f 1/17/7 3/14/7 12/23/21 15/26/21
f 5/19/9 1/17/9 17/27/22 16/28/22
f 1/17/19 2/24/19 18/29/23 17/27/23
f 2/24/17 6/30/24 19/31/25 18/29/25
f 6/30/26 5/19/11 16/28/27 19/31/27
f 5/19/11 6/30/26 20/32/28 7/13/12
f 2/24/17 4/21/16 20/32/29 6/30/24
f 3/14/5 7/13/4 20/32/30 4/21/14
