# Blender v3.4.1 OBJ File: 'MixedBag1_Export.blend'
# www.blender.org
mtllib puzzlecube_center_puzzlecube_O.mtl
o puzzlecube_O
v -0.200000 0.066667 0.200000
v -0.200000 -0.066666 0.200000
v -0.200000 0.066667 0.066667
v -0.200000 -0.066666 0.066667
v -0.066667 0.066667 0.200000
v -0.066667 -0.066666 0.200000
v -0.212413 0.059271 0.074063
v -0.212413 -0.059270 0.074063
v -0.212413 -0.059270 0.192604
v -0.212413 0.059271 0.192604
v -0.074063 0.059271 0.212413
v -0.192604 0.059271 0.212413
v -0.192604 -0.059270 0.212413
v -0.074063 -0.059270 0.212413
v -0.066667 0.066667 0.066667
v -0.066667 -0.066666 0.066667
vt 0.328892 0.140868
vt 0.310679 0.140868
vt 0.310679 0.140868
vt 0.328892 0.140867
vt 0.078892 0.121107
vt 0.078892 0.139320
vt 0.060679 0.139320
vt 0.060679 0.121107
vt 0.559132 0.890867
vt 0.559132 0.890867
vt 0.560679 0.890868
vt 0.560679 0.890868
vt 0.580439 0.890867
vt 0.578892 0.890867
vt 0.580439 0.890867
vt 0.578892 0.890868
vt 0.580439 0.869560
vt 0.578892 0.889320
vt 0.578892 0.871107
vt 0.560679 0.889320
vt 0.559132 0.869560
vt 0.560679 0.871107
vt 0.580439 0.890867
vt 0.559132 0.890867
vn -1.0000 0.0000 -0.0000
vn -0.0000 0.0000 1.0000
vn -0.2181 -0.9759 -0.0000
vn -0.1584 -0.9746 0.1584
vn -0.5119 -0.8591 -0.0000
vn -0.7071 0.0000 0.7071
vn -0.5119 0.0000 0.8591
vn -0.1584 0.9746 0.1584
vn -0.2181 0.9759 0.0000
vn -0.5119 0.8591 -0.0000
vn 0.0000 0.9759 0.2181
vn 0.0000 0.8591 0.5119
vn -0.8591 0.0000 0.5119
vn -0.0000 -0.9759 0.2181
vn -0.0000 -0.8591 0.5119
vn 0.9759 -0.0000 0.2181
vn 0.8591 -0.0000 0.5119
vn -0.5119 0.0000 -0.8591
vn -0.2181 0.0000 -0.9759
vn 0.0000 -0.0000 -1.0000
vn 1.0000 -0.0000 0.0000
vn -0.0000 -1.0000 0.0000
vn 0.0000 1.0000 0.0000
usemtl KayKit_Texture_A
s 1
f 7/1/1 8/2/1 9/3/1 10/4/1
f 11/5/2 12/6/2 13/7/2 14/8/2
f 4/9/3 2/10/4 9/11/5 8/12/5
f 2/10/6 1/13/6 10/14/7 9/11/7
f 1/13/8 3/15/9 7/16/10 10/14/10
f 5/17/11 1/13/8 12/18/12 11/19/12
f 1/13/6 2/10/6 13/20/13 12/18/13
f 2/10/4 6/21/14 14/22/15 13/20/15
f 6/21/16 5/17/16 11/19/17 14/22/17
f 8/12/18 7/16/18 3/15/19 4/9/19
f 4/9/19 3/15/19 15/23/20 16/24/20
f 6/21/16 16/24/21 15/23/21 5/17/16
f 4/9/3 16/24/22 6/21/14 2/10/4
f 3/15/9 1/13/8 5/17/11 15/23/23
