# Blender v3.4.1 OBJ File: 'MixedBag1_Export.blend'
# www.blender.org
mtllib rollerskate_A.mtl
o rollerskate_A
v 0.075579 0.146575 0.192750
v 0.075579 0.200000 0.193753
v -0.075579 0.146575 0.192750
v -0.075579 0.200000 0.193753
v 0.075579 0.146575 -0.192750
v 0.075579 0.200000 -0.192750
v -0.075579 0.146575 -0.192750
v -0.075579 0.200000 -0.192750
v -0.075579 0.146575 -0.038550
v -0.075579 0.146575 0.038550
v -0.075579 0.200000 0.038550
v -0.075579 0.200000 -0.038550
v 0.075579 0.146575 0.038550
v 0.075579 0.146575 -0.038550
v 0.075579 0.200000 -0.038550
v 0.075579 0.200000 0.038550
v -0.095051 0.146575 -0.090185
v -0.091461 0.146575 -0.160305
v -0.091461 0.146575 0.160305
v -0.095051 0.146575 0.090185
v -0.095051 0.200000 0.090185
v -0.091461 0.200000 0.160305
v -0.091461 0.200000 -0.160305
v -0.095051 0.200000 -0.090185
v 0.095051 0.146575 0.090185
v 0.091461 0.146575 0.160305
v 0.091461 0.146575 -0.160305
v 0.095051 0.146575 -0.090185
v 0.095051 0.200000 -0.090185
v 0.091461 0.200000 -0.160305
v 0.091461 0.200000 0.160305
v 0.095051 0.200000 0.090185
v 0.025000 0.075000 -0.125000
v 0.040000 0.075000 -0.200000
v 0.135000 0.075000 -0.159313
v 0.120000 0.075000 -0.200000
v 0.040000 0.037500 -0.189952
v 0.135000 0.057844 -0.154716
v 0.120000 0.037500 -0.189952
v 0.040000 0.010048 -0.162500
v 0.135000 0.045284 -0.142156
v 0.120000 0.010048 -0.162500
v 0.040000 0.000000 -0.125000
v 0.135000 0.040687 -0.125000
v 0.120000 0.000000 -0.125000
v 0.040000 0.010048 -0.087500
v 0.135000 0.045284 -0.107844
v 0.120000 0.010048 -0.087500
v 0.040000 0.037500 -0.060048
v 0.135000 0.057844 -0.095284
v 0.120000 0.037500 -0.060048
v 0.040000 0.075000 -0.050000
v 0.135000 0.075000 -0.090687
v 0.120000 0.075000 -0.050000
v 0.040000 0.112500 -0.060048
v 0.135000 0.092156 -0.095284
v 0.120000 0.112500 -0.060048
v 0.040000 0.139952 -0.087500
v 0.135000 0.104716 -0.107844
v 0.120000 0.139952 -0.087500
v 0.040000 0.150000 -0.125000
v 0.135000 0.109313 -0.125000
v 0.120000 0.150000 -0.125000
v 0.040000 0.139952 -0.162500
v 0.135000 0.104716 -0.142156
v 0.120000 0.139952 -0.162500
v 0.040000 0.112500 -0.189952
v 0.135000 0.092156 -0.154716
v 0.120000 0.112500 -0.189952
v 0.135000 0.075000 -0.184471
v 0.135000 0.045265 -0.176503
v 0.135000 0.023497 -0.154735
v 0.135000 0.015529 -0.125000
v 0.135000 0.023497 -0.095265
v 0.135000 0.045265 -0.073497
v 0.135000 0.075000 -0.065529
v 0.135000 0.104735 -0.073497
v 0.135000 0.126503 -0.095265
v 0.135000 0.134471 -0.125000
v 0.135000 0.126503 -0.154735
v 0.135000 0.104735 -0.176503
v 0.105000 0.075000 -0.125000
v 0.105000 0.075000 -0.151195
v 0.105000 0.061903 -0.147685
v 0.105000 0.052315 -0.138097
v 0.105000 0.048805 -0.125000
v 0.105000 0.052315 -0.111903
v 0.105000 0.061903 -0.102315
v 0.105000 0.075000 -0.098805
v 0.105000 0.088097 -0.102315
v 0.105000 0.097685 -0.111903
v 0.105000 0.101195 -0.125000
v 0.105000 0.097685 -0.138097
v 0.105000 0.088097 -0.147685
v 0.025000 0.045265 -0.176503
v 0.025000 0.075000 -0.184471
v 0.025000 0.023497 -0.154735
v 0.025000 0.015529 -0.125000
v 0.025000 0.023497 -0.095265
v 0.025000 0.045265 -0.073497
v 0.025000 0.075000 -0.065529
v 0.025000 0.104735 -0.073497
v 0.025000 0.126503 -0.095265
v 0.025000 0.134471 -0.125000
v 0.025000 0.126503 -0.154735
v 0.025000 0.104735 -0.176503
v -0.025000 0.075000 -0.125000
v -0.040000 0.075000 -0.200000
v -0.135000 0.075000 -0.159313
v -0.120000 0.075000 -0.200000
v -0.040000 0.037500 -0.189952
v -0.135000 0.057844 -0.154716
v -0.120000 0.037500 -0.189952
v -0.040000 0.010048 -0.162500
v -0.135000 0.045284 -0.142156
v -0.120000 0.010048 -0.162500
v -0.040000 0.000000 -0.125000
v -0.135000 0.040687 -0.125000
v -0.120000 0.000000 -0.125000
v -0.040000 0.010048 -0.087500
v -0.135000 0.045284 -0.107844
v -0.120000 0.010048 -0.087500
v -0.040000 0.037500 -0.060048
v -0.135000 0.057844 -0.095284
v -0.120000 0.037500 -0.060048
v -0.040000 0.075000 -0.050000
v -0.135000 0.075000 -0.090687
v -0.120000 0.075000 -0.050000
v -0.040000 0.112500 -0.060048
v -0.135000 0.092156 -0.095284
v -0.120000 0.112500 -0.060048
v -0.040000 0.139952 -0.087500
v -0.135000 0.104716 -0.107844
v -0.120000 0.139952 -0.087500
v -0.040000 0.150000 -0.125000
v -0.135000 0.109313 -0.125000
v -0.120000 0.150000 -0.125000
v -0.040000 0.139952 -0.162500
v -0.135000 0.104716 -0.142156
v -0.120000 0.139952 -0.162500
v -0.040000 0.112500 -0.189952
v -0.135000 0.092156 -0.154716
v -0.120000 0.112500 -0.189952
v -0.135000 0.075000 -0.184471
v -0.135000 0.045265 -0.176503
v -0.135000 0.023497 -0.154735
v -0.135000 0.015529 -0.125000
v -0.135000 0.023497 -0.095265
v -0.135000 0.045265 -0.073497
v -0.135000 0.075000 -0.065529
v -0.135000 0.104735 -0.073497
v -0.135000 0.126503 -0.095265
v -0.135000 0.134471 -0.125000
v -0.135000 0.126503 -0.154735
v -0.135000 0.104735 -0.176503
v -0.105000 0.075000 -0.125000
v -0.105000 0.075000 -0.151195
v -0.105000 0.061903 -0.147685
v -0.105000 0.052315 -0.138097
v -0.105000 0.048805 -0.125000
v -0.105000 0.052315 -0.111903
v -0.105000 0.061903 -0.102315
v -0.105000 0.075000 -0.098805
v -0.105000 0.088097 -0.102315
v -0.105000 0.097685 -0.111903
v -0.105000 0.101195 -0.125000
v -0.105000 0.097685 -0.138097
v -0.105000 0.088097 -0.147685
v -0.025000 0.045265 -0.176503
v -0.025000 0.075000 -0.184471
v -0.025000 0.023497 -0.154735
v -0.025000 0.015529 -0.125000
v -0.025000 0.023497 -0.095265
v -0.025000 0.045265 -0.073497
v -0.025000 0.075000 -0.065529
v -0.025000 0.104735 -0.073497
v -0.025000 0.126503 -0.095265
v -0.025000 0.134471 -0.125000
v -0.025000 0.126503 -0.154735
v -0.025000 0.104735 -0.176503
v 0.025000 0.075000 0.125000
v 0.040000 0.075000 0.050000
v 0.135000 0.075000 0.090687
v 0.120000 0.075000 0.050000
v 0.040000 0.037500 0.060048
v 0.135000 0.057844 0.095284
v 0.120000 0.037500 0.060048
v 0.040000 0.010048 0.087500
v 0.135000 0.045284 0.107844
v 0.120000 0.010048 0.087500
v 0.040000 0.000000 0.125000
v 0.135000 0.040687 0.125000
v 0.120000 0.000000 0.125000
v 0.040000 0.010048 0.162500
v 0.135000 0.045284 0.142156
v 0.120000 0.010048 0.162500
v 0.040000 0.037500 0.189952
v 0.135000 0.057844 0.154716
v 0.120000 0.037500 0.189952
v 0.040000 0.075000 0.200000
v 0.135000 0.075000 0.159313
v 0.120000 0.075000 0.200000
v 0.040000 0.112500 0.189952
v 0.135000 0.092156 0.154716
v 0.120000 0.112500 0.189952
v 0.040000 0.139952 0.162500
v 0.135000 0.104716 0.142156
v 0.120000 0.139952 0.162500
v 0.040000 0.150000 0.125000
v 0.135000 0.109313 0.125000
v 0.120000 0.150000 0.125000
v 0.040000 0.139952 0.087500
v 0.135000 0.104716 0.107844
v 0.120000 0.139952 0.087500
v 0.040000 0.112500 0.060048
v 0.135000 0.092156 0.095284
v 0.120000 0.112500 0.060048
v 0.135000 0.075000 0.065529
v 0.135000 0.045265 0.073497
v 0.135000 0.023497 0.095265
v 0.135000 0.015529 0.125000
v 0.135000 0.023497 0.154735
v 0.135000 0.045265 0.176503
v 0.135000 0.075000 0.184471
v 0.135000 0.104735 0.176503
v 0.135000 0.126503 0.154735
v 0.135000 0.134471 0.125000
v 0.135000 0.126503 0.095265
v 0.135000 0.104735 0.073497
v 0.105000 0.075000 0.125000
v 0.105000 0.075000 0.098805
v 0.105000 0.061903 0.102315
v 0.105000 0.052315 0.111903
v 0.105000 0.048805 0.125000
v 0.105000 0.052315 0.138097
v 0.105000 0.061903 0.147685
v 0.105000 0.075000 0.151195
v 0.105000 0.088097 0.147685
v 0.105000 0.097685 0.138097
v 0.105000 0.101195 0.125000
v 0.105000 0.097685 0.111903
v 0.105000 0.088097 0.102315
v 0.025000 0.045265 0.073497
v 0.025000 0.075000 0.065529
v 0.025000 0.023497 0.095265
v 0.025000 0.015529 0.125000
v 0.025000 0.023497 0.154735
v 0.025000 0.045265 0.176503
v 0.025000 0.075000 0.184471
v 0.025000 0.104735 0.176503
v 0.025000 0.126503 0.154735
v 0.025000 0.134471 0.125000
v 0.025000 0.126503 0.095265
v 0.025000 0.104735 0.073497
v -0.025000 0.075000 0.125000
v -0.040000 0.075000 0.050000
v -0.135000 0.075000 0.090687
v -0.120000 0.075000 0.050000
v -0.040000 0.037500 0.060048
v -0.135000 0.057844 0.095284
v -0.120000 0.037500 0.060048
v -0.040000 0.010048 0.087500
v -0.135000 0.045284 0.107844
v -0.120000 0.010048 0.087500
v -0.040000 0.000000 0.125000
v -0.135000 0.040687 0.125000
v -0.120000 0.000000 0.125000
v -0.040000 0.010048 0.162500
v -0.135000 0.045284 0.142156
v -0.120000 0.010048 0.162500
v -0.040000 0.037500 0.189952
v -0.135000 0.057844 0.154716
v -0.120000 0.037500 0.189952
v -0.040000 0.075000 0.200000
v -0.135000 0.075000 0.159313
v -0.120000 0.075000 0.200000
v -0.040000 0.112500 0.189952
v -0.135000 0.092156 0.154716
v -0.120000 0.112500 0.189952
v -0.040000 0.139952 0.162500
v -0.135000 0.104716 0.142156
v -0.120000 0.139952 0.162500
v -0.040000 0.150000 0.125000
v -0.135000 0.109313 0.125000
v -0.120000 0.150000 0.125000
v -0.040000 0.139952 0.087500
v -0.135000 0.104716 0.107844
v -0.120000 0.139952 0.087500
v -0.040000 0.112500 0.060048
v -0.135000 0.092156 0.095284
v -0.120000 0.112500 0.060048
v -0.135000 0.075000 0.065529
v -0.135000 0.045265 0.073497
v -0.135000 0.023497 0.095265
v -0.135000 0.015529 0.125000
v -0.135000 0.023497 0.154735
v -0.135000 0.045265 0.176503
v -0.135000 0.075000 0.184471
v -0.135000 0.104735 0.176503
v -0.135000 0.126503 0.154735
v -0.135000 0.134471 0.125000
v -0.135000 0.126503 0.095265
v -0.135000 0.104735 0.073497
v -0.105000 0.075000 0.125000
v -0.105000 0.075000 0.098805
v -0.105000 0.061903 0.102315
v -0.105000 0.052315 0.111903
v -0.105000 0.048805 0.125000
v -0.105000 0.052315 0.138097
v -0.105000 0.061903 0.147685
v -0.105000 0.075000 0.151195
v -0.105000 0.088097 0.147685
v -0.105000 0.097685 0.138097
v -0.105000 0.101195 0.125000
v -0.105000 0.097685 0.111903
v -0.105000 0.088097 0.102315
v -0.025000 0.045265 0.073497
v -0.025000 0.075000 0.065529
v -0.025000 0.023497 0.095265
v -0.025000 0.015529 0.125000
v -0.025000 0.023497 0.154735
v -0.025000 0.045265 0.176503
v -0.025000 0.075000 0.184471
v -0.025000 0.104735 0.176503
v -0.025000 0.126503 0.154735
v -0.025000 0.134471 0.125000
v -0.025000 0.126503 0.095265
v -0.025000 0.104735 0.073497
v -0.032750 0.056575 0.143425
v -0.032750 0.093425 0.143425
v -0.032750 0.056575 0.106575
v -0.032750 0.093425 0.106575
v 0.032750 0.056575 0.143425
v 0.032750 0.093425 0.143425
v 0.032750 0.056575 0.106575
v 0.032750 0.093425 0.106575
v -0.032750 0.056575 -0.106575
v -0.032750 0.093425 -0.106575
v -0.032750 0.056575 -0.143425
v -0.032750 0.093425 -0.143425
v 0.032750 0.056575 -0.106575
v 0.032750 0.093425 -0.106575
v 0.032750 0.056575 -0.143425
v 0.032750 0.093425 -0.143425
v 0.026998 0.116575 0.056915
v 0.044822 0.153425 0.087517
v -0.026998 0.116575 0.056915
v -0.044822 0.153425 0.087517
v 0.026998 0.116575 -0.056915
v 0.044822 0.153425 -0.087517
v -0.026998 0.116575 -0.056915
v -0.044822 0.153425 -0.087517
v -0.013042 0.072650 0.122401
v 0.013042 0.072650 0.122401
v 0.021653 0.090452 0.137185
v -0.021653 0.090452 0.137185
v -0.021653 0.090452 -0.137185
v -0.013042 0.072650 -0.122401
v 0.013042 0.072650 -0.122401
v 0.021653 0.090452 -0.137185
v 0.027761 0.126102 0.140163
v -0.000000 0.093208 0.272163
v -0.000000 0.052535 0.220532
v 0.031415 0.059456 0.225323
v 0.054412 0.078365 0.238412
v 0.062829 0.104195 0.256292
v 0.054412 0.130024 0.274172
v 0.031415 0.148933 0.287262
v -0.000000 0.155854 0.292053
v -0.031415 0.148933 0.287262
v -0.054412 0.130024 0.274172
v -0.062829 0.104195 0.256292
v -0.054412 0.078365 0.238412
v -0.031415 0.059456 0.225323
v 0.025935 0.058347 0.243599
v 0.000000 0.052633 0.239643
v 0.044922 0.073958 0.254405
v 0.051871 0.095282 0.269167
v 0.044922 0.116607 0.283929
v 0.025936 0.132218 0.294735
v -0.000000 0.137932 0.298690
v -0.025935 0.132218 0.294735
v -0.044922 0.116607 0.283929
v -0.051871 0.095282 0.269167
v -0.044922 0.073958 0.254405
v -0.025936 0.058347 0.243599
v 0.019365 0.109602 0.189552
v -0.000000 0.105335 0.186599
v 0.033541 0.121257 0.197620
v 0.038730 0.137180 0.208642
v 0.033541 0.153102 0.219664
v 0.019365 0.164758 0.227733
v -0.000000 0.169024 0.230686
v -0.019365 0.164758 0.227733
v -0.033541 0.153102 0.219664
v -0.038730 0.137180 0.208642
v -0.033541 0.121257 0.197620
v -0.019365 0.109602 0.189552
v 0.027761 0.097644 0.181274
v -0.000000 0.091528 0.177040
v 0.048084 0.114354 0.192841
v 0.055523 0.137180 0.208642
v 0.048084 0.160006 0.224443
v 0.027761 0.176715 0.236010
v -0.000000 0.182831 0.240244
v -0.027761 0.176715 0.236010
v -0.048084 0.160005 0.224443
v -0.055523 0.137180 0.208642
v -0.048084 0.114354 0.192841
v -0.027761 0.097644 0.181274
v -0.000000 0.119986 0.135930
v 0.048084 0.142812 0.151730
v 0.055523 0.165638 0.167531
v 0.048084 0.188464 0.183332
v 0.027761 0.205174 0.194899
v -0.000000 0.211290 0.199133
v -0.027761 0.205174 0.194899
v -0.048084 0.188464 0.183332
v -0.055523 0.165638 0.167531
v -0.048084 0.142812 0.151730
v -0.027761 0.126102 0.140163
v -0.000000 0.165638 0.167531
v -0.000000 0.209477 0.216121
v -0.063701 0.157101 0.179865
v 0.055167 0.130913 0.161736
v 0.031850 0.202460 0.211264
v -0.055167 0.183289 0.197993
v -0.031850 0.202460 0.211264
v 0.031850 0.111742 0.148466
v -0.000000 0.104724 0.143608
v -0.031850 0.111742 0.148466
v -0.055167 0.130913 0.161736
v 0.055167 0.183289 0.197993
v 0.063701 0.157101 0.179865
v 0.085822 0.173288 0.193252
v -0.085822 0.173288 0.193252
v -0.085822 0.173288 -0.192750
v 0.085822 0.173288 -0.192750
v 0.085822 0.173288 -0.038550
v 0.085822 0.173288 0.038550
v -0.085822 0.173288 0.038550
v -0.085822 0.173288 -0.038550
v 0.107933 0.173288 -0.090185
v 0.103857 0.173288 -0.160305
v 0.103857 0.173288 0.160305
v 0.107933 0.173288 0.090185
v -0.107933 0.173288 0.090185
v -0.103857 0.173288 0.160305
v -0.103857 0.173288 -0.160305
v -0.107933 0.173288 -0.090185
vt 0.774898 0.603846
vt 0.774898 0.646154
vt 0.850102 0.646154
vt 0.850102 0.603846
vt 0.850102 0.603846
vt 0.850102 0.646154
vt 0.774898 0.646154
vt 0.774898 0.603846
vt 0.774898 0.603846
vt 0.774898 0.646154
vt 0.850102 0.646154
vt 0.850102 0.603846
vt 0.850102 0.603846
vt 0.850102 0.646154
vt 0.774898 0.646154
vt 0.774898 0.603846
vt 0.795670 0.597122
vt 0.787647 0.617450
vt 0.833539 0.617450
vt 0.825515 0.597122
vt 0.825515 0.597122
vt 0.833539 0.617450
vt 0.787647 0.617450
vt 0.795670 0.597122
vt 0.774624 0.582711
vt 0.778500 0.572891
vt 0.778500 0.572891
vt 0.774624 0.582711
vt 0.846561 0.582711
vt 0.846561 0.582711
vt 0.842685 0.572891
vt 0.842685 0.572891
vt 0.774898 0.656250
vt 0.774898 0.677404
vt 0.782171 0.677404
vt 0.782171 0.656250
vt 0.804980 0.656250
vt 0.804980 0.677404
vt 0.796063 0.677404
vt 0.796063 0.656250
vt 0.820020 0.656250
vt 0.820020 0.677404
vt 0.828937 0.677404
vt 0.828937 0.656250
vt 0.804980 0.646154
vt 0.796063 0.646154
vt 0.796063 0.646154
vt 0.804980 0.646154
vt 0.774898 0.656250
vt 0.774898 0.677404
vt 0.850102 0.656250
vt 0.850102 0.677404
vt 0.850102 0.677404
vt 0.850102 0.656250
vt 0.828937 0.646154
vt 0.820020 0.646154
vt 0.820020 0.646154
vt 0.828937 0.646154
vt 0.782171 0.656250
vt 0.782171 0.677404
vt 0.850102 0.646154
vt 0.842829 0.646154
vt 0.842829 0.646154
vt 0.850102 0.646154
vt 0.796063 0.656250
vt 0.796063 0.677404
vt 0.804980 0.677404
vt 0.804980 0.656250
vt 0.774898 0.603846
vt 0.782171 0.603846
vt 0.782171 0.603846
vt 0.774898 0.603846
vt 0.804980 0.603846
vt 0.820020 0.603846
vt 0.820020 0.603846
vt 0.804980 0.603846
vt 0.842829 0.656250
vt 0.842829 0.677404
vt 0.828937 0.656250
vt 0.828937 0.677404
vt 0.820020 0.677404
vt 0.820020 0.656250
vt 0.842829 0.677404
vt 0.842829 0.656250
vt 0.796063 0.603846
vt 0.796063 0.603846
vt 0.782171 0.646154
vt 0.774898 0.646154
vt 0.774898 0.646154
vt 0.782171 0.646154
vt 0.828937 0.603846
vt 0.828937 0.603846
vt 0.842829 0.603846
vt 0.842829 0.603846
vt 0.828937 0.625000
vt 0.842829 0.625000
vt 0.782171 0.625000
vt 0.796063 0.625000
vt 0.796063 0.625000
vt 0.782171 0.625000
vt 0.842829 0.625000
vt 0.828937 0.625000
vt 0.850102 0.603846
vt 0.850102 0.603846
vt 0.797111 0.116714
vt 0.835187 0.116714
vt 0.835187 0.089826
vt 0.797111 0.089826
vt 0.797111 0.043254
vt 0.835187 0.043254
vt 0.835187 0.036049
vt 0.797111 0.036049
vt 0.835187 0.043254
vt 0.797111 0.043254
vt 0.835187 0.062937
vt 0.797111 0.062937
vt 0.835187 0.089826
vt 0.797111 0.089826
vt 0.835187 0.116714
vt 0.797111 0.116714
vt 0.835187 0.136397
vt 0.797111 0.136397
vt 0.835187 0.143602
vt 0.797111 0.143602
vt 0.835187 0.136397
vt 0.797111 0.136397
vt 0.797111 0.062937
vt 0.835187 0.062937
vt 0.839946 0.065223
vt 0.839946 0.068519
vt 0.830427 0.073560
vt 0.830427 0.071043
vt 0.797111 0.136701
vt 0.797111 0.109812
vt 0.792352 0.115380
vt 0.792352 0.136701
vt 0.835187 0.109812
vt 0.835187 0.136701
vt 0.839946 0.136701
vt 0.839946 0.115380
vt 0.797111 0.090129
vt 0.792352 0.099772
vt 0.835187 0.090129
vt 0.839946 0.099772
vt 0.797111 0.082924
vt 0.792352 0.094059
vt 0.835187 0.082924
vt 0.839946 0.094059
vt 0.797111 0.090129
vt 0.792352 0.099772
vt 0.835187 0.090129
vt 0.839946 0.099772
vt 0.797111 0.109812
vt 0.792352 0.115380
vt 0.835187 0.109812
vt 0.839946 0.115380
vt 0.797111 0.136701
vt 0.792352 0.136701
vt 0.835187 0.136701
vt 0.839946 0.136701
vt 0.797111 0.163589
vt 0.792352 0.158021
vt 0.835187 0.163589
vt 0.839946 0.158021
vt 0.797111 0.183272
vt 0.792352 0.173629
vt 0.835187 0.183272
vt 0.839946 0.173629
vt 0.797111 0.190477
vt 0.792352 0.179342
vt 0.835187 0.190477
vt 0.839946 0.179342
vt 0.797111 0.183272
vt 0.792352 0.173629
vt 0.835187 0.183272
vt 0.839946 0.173629
vt 0.797111 0.163589
vt 0.792352 0.158021
vt 0.835187 0.163589
vt 0.839946 0.158021
vt 0.839946 0.089826
vt 0.839946 0.077524
vt 0.839946 0.068505
vt 0.839946 0.089826
vt 0.839946 0.052897
vt 0.839946 0.047184
vt 0.839946 0.068519
vt 0.839946 0.052897
vt 0.839946 0.077524
vt 0.839946 0.068505
vt 0.839946 0.089826
vt 0.839946 0.089826
vt 0.839946 0.102127
vt 0.839946 0.111146
vt 0.839946 0.111132
vt 0.839946 0.126754
vt 0.839946 0.114428
vt 0.839946 0.132467
vt 0.839946 0.111132
vt 0.839946 0.126754
vt 0.839946 0.102127
vt 0.839946 0.111146
vt 0.830427 0.108608
vt 0.830427 0.106091
vt 0.830427 0.089826
vt 0.830427 0.099217
vt 0.830427 0.073560
vt 0.830427 0.099217
vt 0.830427 0.089826
vt 0.830427 0.080434
vt 0.830427 0.106091
vt 0.830427 0.080434
vt 0.814802 0.589826
vt 0.814802 0.580434
vt 0.814802 0.589826
vt 0.814802 0.573560
vt 0.814802 0.571043
vt 0.814802 0.573560
vt 0.814802 0.580434
vt 0.814802 0.589826
vt 0.814802 0.599217
vt 0.814802 0.606091
vt 0.814802 0.608608
vt 0.814802 0.606091
vt 0.814802 0.599217
vt 0.792352 0.089826
vt 0.792352 0.089826
vt 0.792352 0.068505
vt 0.792352 0.052897
vt 0.792352 0.047184
vt 0.792352 0.052897
vt 0.792352 0.068505
vt 0.792352 0.089826
vt 0.792352 0.111146
vt 0.792352 0.126754
vt 0.792352 0.132467
vt 0.792352 0.126754
vt 0.792352 0.111146
vt 0.797111 0.116714
vt 0.797111 0.089826
vt 0.835187 0.089826
vt 0.835187 0.116714
vt 0.797111 0.043254
vt 0.797111 0.036049
vt 0.835187 0.036049
vt 0.835187 0.043254
vt 0.797111 0.043254
vt 0.835187 0.043254
vt 0.797111 0.062937
vt 0.835187 0.062937
vt 0.797111 0.089826
vt 0.835187 0.089826
vt 0.797111 0.116714
vt 0.835187 0.116714
vt 0.797111 0.136397
vt 0.835187 0.136397
vt 0.797111 0.143602
vt 0.835187 0.143602
vt 0.797111 0.136397
vt 0.835187 0.136397
vt 0.797111 0.062937
vt 0.835187 0.062937
vt 0.839946 0.065223
vt 0.830427 0.071043
vt 0.830427 0.073560
vt 0.839946 0.068519
vt 0.797111 0.136701
vt 0.792352 0.136701
vt 0.792352 0.115380
vt 0.797111 0.109812
vt 0.835187 0.109812
vt 0.839946 0.115380
vt 0.839946 0.136701
vt 0.835187 0.136701
vt 0.792352 0.099772
vt 0.797111 0.090129
vt 0.835187 0.090129
vt 0.839946 0.099772
vt 0.792352 0.094059
vt 0.797111 0.082924
vt 0.835187 0.082924
vt 0.839946 0.094059
vt 0.792352 0.099772
vt 0.797111 0.090129
vt 0.835187 0.090129
vt 0.839946 0.099772
vt 0.792352 0.115380
vt 0.797111 0.109812
vt 0.835187 0.109812
vt 0.839946 0.115380
vt 0.792352 0.136701
vt 0.797111 0.136701
vt 0.835187 0.136701
vt 0.839946 0.136701
vt 0.792352 0.158021
vt 0.797111 0.163589
vt 0.835187 0.163589
vt 0.839946 0.158021
vt 0.792352 0.173629
vt 0.797111 0.183272
vt 0.835187 0.183272
vt 0.839946 0.173629
vt 0.792352 0.179342
vt 0.797111 0.190477
vt 0.835187 0.190477
vt 0.839946 0.179342
vt 0.792352 0.173629
vt 0.797111 0.183272
vt 0.835187 0.183272
vt 0.839946 0.173629
vt 0.792352 0.158021
vt 0.797111 0.163589
vt 0.835187 0.163589
vt 0.839946 0.158021
vt 0.839946 0.089826
vt 0.839946 0.089826
vt 0.839946 0.068505
vt 0.839946 0.077524
vt 0.839946 0.052897
vt 0.839946 0.047184
vt 0.839946 0.052897
vt 0.839946 0.068519
vt 0.839946 0.068505
vt 0.839946 0.077524
vt 0.839946 0.089826
vt 0.839946 0.089826
vt 0.839946 0.111146
vt 0.839946 0.102127
vt 0.839946 0.126754
vt 0.839946 0.111132
vt 0.839946 0.132467
vt 0.839946 0.114428
vt 0.839946 0.126754
vt 0.839946 0.111132
vt 0.839946 0.111146
vt 0.839946 0.102127
vt 0.830427 0.106091
vt 0.830427 0.108608
vt 0.830427 0.099217
vt 0.830427 0.089826
vt 0.830427 0.073560
vt 0.830427 0.099217
vt 0.830427 0.080434
vt 0.830427 0.089826
vt 0.830427 0.106091
vt 0.830427 0.080434
vt 0.814802 0.589826
vt 0.814802 0.589826
vt 0.814802 0.580434
vt 0.814802 0.573560
vt 0.814802 0.571043
vt 0.814802 0.573560
vt 0.814802 0.580434
vt 0.814802 0.589826
vt 0.814802 0.599217
vt 0.814802 0.606091
vt 0.814802 0.608608
vt 0.814802 0.606091
vt 0.814802 0.599217
vt 0.792352 0.089826
vt 0.792352 0.068505
vt 0.792352 0.089826
vt 0.792352 0.052897
vt 0.792352 0.047184
vt 0.792352 0.052897
vt 0.792352 0.068505
vt 0.792352 0.089826
vt 0.792352 0.111146
vt 0.792352 0.126754
vt 0.792352 0.132467
vt 0.792352 0.126754
vt 0.792352 0.111146
vt 0.797111 0.116714
vt 0.835187 0.116714
vt 0.835187 0.089826
vt 0.797111 0.089826
vt 0.797111 0.043254
vt 0.835187 0.043254
vt 0.835187 0.036049
vt 0.797111 0.036049
vt 0.835187 0.043254
vt 0.797111 0.043254
vt 0.835187 0.062937
vt 0.797111 0.062937
vt 0.835187 0.089826
vt 0.797111 0.089826
vt 0.835187 0.116714
vt 0.797111 0.116714
vt 0.835187 0.136397
vt 0.797111 0.136397
vt 0.835187 0.143602
vt 0.797111 0.143602
vt 0.835187 0.136397
vt 0.797111 0.136397
vt 0.797111 0.062937
vt 0.835187 0.062937
vt 0.839946 0.065223
vt 0.839946 0.068519
vt 0.830427 0.073560
vt 0.830427 0.071043
vt 0.797111 0.136701
vt 0.797111 0.109812
vt 0.792352 0.115380
vt 0.792352 0.136701
vt 0.835187 0.109812
vt 0.835187 0.136701
vt 0.839946 0.136701
vt 0.839946 0.115380
vt 0.797111 0.090129
vt 0.792352 0.099772
vt 0.835187 0.090129
vt 0.839946 0.099772
vt 0.797111 0.082924
vt 0.792352 0.094059
vt 0.835187 0.082924
vt 0.839946 0.094059
vt 0.797111 0.090129
vt 0.792352 0.099772
vt 0.835187 0.090129
vt 0.839946 0.099772
vt 0.797111 0.109812
vt 0.792352 0.115380
vt 0.835187 0.109812
vt 0.839946 0.115380
vt 0.797111 0.136701
vt 0.792352 0.136701
vt 0.835187 0.136701
vt 0.839946 0.136701
vt 0.797111 0.163589
vt 0.792352 0.158021
vt 0.835187 0.163589
vt 0.839946 0.158021
vt 0.797111 0.183272
vt 0.792352 0.173629
vt 0.835187 0.183272
vt 0.839946 0.173629
vt 0.797111 0.190477
vt 0.792352 0.179342
vt 0.835187 0.190477
vt 0.839946 0.179342
vt 0.797111 0.183272
vt 0.792352 0.173629
vt 0.835187 0.183272
vt 0.839946 0.173629
vt 0.797111 0.163589
vt 0.792352 0.158021
vt 0.835187 0.163589
vt 0.839946 0.158021
vt 0.839946 0.089826
vt 0.839946 0.077524
vt 0.839946 0.068505
vt 0.839946 0.089826
vt 0.839946 0.052897
vt 0.839946 0.047184
vt 0.839946 0.068519
vt 0.839946 0.052897
vt 0.839946 0.077524
vt 0.839946 0.068505
vt 0.839946 0.089826
vt 0.839946 0.089826
vt 0.839946 0.102127
vt 0.839946 0.111146
vt 0.839946 0.111132
vt 0.839946 0.126754
vt 0.839946 0.114428
vt 0.839946 0.132467
vt 0.839946 0.111132
vt 0.839946 0.126754
vt 0.839946 0.102127
vt 0.839946 0.111146
vt 0.830427 0.108608
vt 0.830427 0.106091
vt 0.830427 0.089826
vt 0.830427 0.099217
vt 0.830427 0.073560
vt 0.830427 0.099217
vt 0.830427 0.089826
vt 0.830427 0.080434
vt 0.830427 0.106091
vt 0.830427 0.080434
vt 0.814802 0.589826
vt 0.814802 0.580434
vt 0.814802 0.589826
vt 0.814802 0.573560
vt 0.814802 0.571043
vt 0.814802 0.573560
vt 0.814802 0.580434
vt 0.814802 0.589826
vt 0.814802 0.599217
vt 0.814802 0.606091
vt 0.814802 0.608608
vt 0.814802 0.606091
vt 0.814802 0.599217
vt 0.792352 0.089826
vt 0.792352 0.089826
vt 0.792352 0.068505
vt 0.792352 0.052897
vt 0.792352 0.047184
vt 0.792352 0.052897
vt 0.792352 0.068505
vt 0.792352 0.089826
vt 0.792352 0.111146
vt 0.792352 0.126754
vt 0.792352 0.132467
vt 0.792352 0.126754
vt 0.792352 0.111146
vt 0.797111 0.116714
vt 0.797111 0.089826
vt 0.835187 0.089826
vt 0.835187 0.116714
vt 0.797111 0.043254
vt 0.797111 0.036049
vt 0.835187 0.036049
vt 0.835187 0.043254
vt 0.797111 0.043254
vt 0.835187 0.043254
vt 0.797111 0.062937
vt 0.835187 0.062937
vt 0.797111 0.089826
vt 0.835187 0.089826
vt 0.797111 0.116714
vt 0.835187 0.116714
vt 0.797111 0.136397
vt 0.835187 0.136397
vt 0.797111 0.143602
vt 0.835187 0.143602
vt 0.797111 0.136397
vt 0.835187 0.136397
vt 0.797111 0.062937
vt 0.835187 0.062937
vt 0.839946 0.065223
vt 0.830427 0.071043
vt 0.830427 0.073560
vt 0.839946 0.068519
vt 0.797111 0.136701
vt 0.792352 0.136701
vt 0.792352 0.115380
vt 0.797111 0.109812
vt 0.835187 0.109812
vt 0.839946 0.115380
vt 0.839946 0.136701
vt 0.835187 0.136701
vt 0.792352 0.099772
vt 0.797111 0.090129
vt 0.835187 0.090129
vt 0.839946 0.099772
vt 0.792352 0.094059
vt 0.797111 0.082924
vt 0.835187 0.082924
vt 0.839946 0.094059
vt 0.792352 0.099772
vt 0.797111 0.090129
vt 0.835187 0.090129
vt 0.839946 0.099772
vt 0.792352 0.115380
vt 0.797111 0.109812
vt 0.835187 0.109812
vt 0.839946 0.115380
vt 0.792352 0.136701
vt 0.797111 0.136701
vt 0.835187 0.136701
vt 0.839946 0.136701
vt 0.792352 0.158021
vt 0.797111 0.163589
vt 0.835187 0.163589
vt 0.839946 0.158021
vt 0.792352 0.173629
vt 0.797111 0.183272
vt 0.835187 0.183272
vt 0.839946 0.173629
vt 0.792352 0.179342
vt 0.797111 0.190477
vt 0.835187 0.190477
vt 0.839946 0.179342
vt 0.792352 0.173629
vt 0.797111 0.183272
vt 0.835187 0.183272
vt 0.839946 0.173629
vt 0.792352 0.158021
vt 0.797111 0.163589
vt 0.835187 0.163589
vt 0.839946 0.158021
vt 0.839946 0.089826
vt 0.839946 0.089826
vt 0.839946 0.068505
vt 0.839946 0.077524
vt 0.839946 0.052897
vt 0.839946 0.047184
vt 0.839946 0.052897
vt 0.839946 0.068519
vt 0.839946 0.068505
vt 0.839946 0.077524
vt 0.839946 0.089826
vt 0.839946 0.089826
vt 0.839946 0.111146
vt 0.839946 0.102127
vt 0.839946 0.126754
vt 0.839946 0.111132
vt 0.839946 0.132467
vt 0.839946 0.114428
vt 0.839946 0.126754
vt 0.839946 0.111132
vt 0.839946 0.111146
vt 0.839946 0.102127
vt 0.830427 0.106091
vt 0.830427 0.108608
vt 0.830427 0.099217
vt 0.830427 0.089826
vt 0.830427 0.073560
vt 0.830427 0.099217
vt 0.830427 0.080434
vt 0.830427 0.089826
vt 0.830427 0.106091
vt 0.830427 0.080434
vt 0.814802 0.589826
vt 0.814802 0.589826
vt 0.814802 0.580434
vt 0.814802 0.573560
vt 0.814802 0.571043
vt 0.814802 0.573560
vt 0.814802 0.580434
vt 0.814802 0.589826
vt 0.814802 0.599217
vt 0.814802 0.606091
vt 0.814802 0.608608
vt 0.814802 0.606091
vt 0.814802 0.599217
vt 0.792352 0.089826
vt 0.792352 0.068505
vt 0.792352 0.089826
vt 0.792352 0.052897
vt 0.792352 0.047184
vt 0.792352 0.052897
vt 0.792352 0.068505
vt 0.792352 0.089826
vt 0.792352 0.111146
vt 0.792352 0.126754
vt 0.792352 0.132467
vt 0.792352 0.126754
vt 0.792352 0.111146
vt 0.342978 0.096385
vt 0.332253 0.165393
vt 0.334910 0.165401
vt 0.347288 0.096399
vt 0.331203 0.096350
vt 0.324995 0.165371
vt 0.315080 0.165341
vt 0.315118 0.096301
vt 0.305165 0.165311
vt 0.299034 0.096252
vt 0.297906 0.165289
vt 0.287259 0.096216
vt 0.295249 0.165281
vt 0.282949 0.096203
vt 0.297906 0.165289
vt 0.287259 0.096216
vt 0.305165 0.165311
vt 0.299034 0.096252
vt 0.315080 0.165341
vt 0.315118 0.096301
vt 0.324995 0.165371
vt 0.331203 0.096350
vt 0.342978 0.096385
vt 0.332253 0.165393
vt 0.347288 0.190149
vt 0.342978 0.190135
vt 0.338130 0.171466
vt 0.341688 0.171477
vt 0.331203 0.190100
vt 0.328408 0.171437
vt 0.315118 0.190051
vt 0.315129 0.171397
vt 0.299034 0.190002
vt 0.301849 0.171356
vt 0.287259 0.189966
vt 0.292128 0.171327
vt 0.282949 0.189953
vt 0.288570 0.171316
vt 0.287259 0.189966
vt 0.292128 0.171327
vt 0.299034 0.190002
vt 0.301849 0.171356
vt 0.315118 0.190051
vt 0.315129 0.171397
vt 0.331203 0.190100
vt 0.328408 0.171437
vt 0.342978 0.190135
vt 0.338130 0.171466
vt 0.315129 0.124522
vt 0.341688 0.124602
vt 0.338130 0.124591
vt 0.328408 0.124562
vt 0.315129 0.124522
vt 0.301849 0.124481
vt 0.292128 0.124452
vt 0.288570 0.124441
vt 0.292128 0.124452
vt 0.301849 0.124481
vt 0.315129 0.124522
vt 0.328408 0.124562
vt 0.338130 0.124591
vt 0.795249 0.634031
vt 0.797906 0.634039
vt 0.797906 0.634039
vt 0.795249 0.634031
vt 0.815080 0.634091
vt 0.805165 0.634061
vt 0.805165 0.634061
vt 0.815080 0.634091
vt 0.824995 0.634121
vt 0.832253 0.634143
vt 0.832253 0.634143
vt 0.824995 0.634121
vt 0.834910 0.634151
vt 0.832253 0.634143
vt 0.832253 0.634143
vt 0.834910 0.634151
vt 0.805165 0.634061
vt 0.805165 0.634061
vt 0.797906 0.634039
vt 0.797906 0.634039
vt 0.824995 0.634121
vt 0.824995 0.634121
vt 0.815080 0.634091
vt 0.815080 0.634091
vt 0.797906 0.634039
vt 0.795249 0.634031
vt 0.795249 0.634031
vt 0.797906 0.634039
vt 0.824995 0.634121
vt 0.815080 0.634091
vt 0.815080 0.634091
vt 0.824995 0.634121
vt 0.815080 0.634091
vt 0.824995 0.634121
vt 0.824995 0.634121
vt 0.815080 0.634091
vt 0.797906 0.634039
vt 0.797906 0.634039
vt 0.805165 0.634061
vt 0.805165 0.634061
vt 0.832253 0.634143
vt 0.832253 0.634143
vt 0.834910 0.634151
vt 0.832253 0.634143
vt 0.832253 0.634143
vt 0.834910 0.634151
vt 0.805165 0.634061
vt 0.805165 0.634061
vt 0.815080 0.634091
vt 0.805165 0.665311
vt 0.815080 0.665341
vt 0.815080 0.665341
vt 0.805165 0.665311
vt 0.832253 0.665393
vt 0.824995 0.665371
vt 0.824995 0.665371
vt 0.832253 0.665393
vt 0.832253 0.665393
vt 0.834910 0.665401
vt 0.834910 0.665401
vt 0.832253 0.665393
vt 0.805165 0.665311
vt 0.797906 0.665289
vt 0.797906 0.665289
vt 0.805165 0.665311
vt 0.797906 0.665289
vt 0.797906 0.665289
vt 0.824995 0.665371
vt 0.824995 0.665371
vt 0.815080 0.665341
vt 0.815080 0.665341
vt 0.795249 0.665281
vt 0.795249 0.665281
vt 0.804980 0.625000
vt 0.820020 0.625000
vt 0.850102 0.625000
vt 0.820020 0.625000
vt 0.804980 0.625000
vt 0.850102 0.625000
vt 0.774898 0.625000
vt 0.774898 0.625000
vn 0.0000 0.0000 -1.0000
vn -0.0000 0.0000 1.0000
vn 0.0000 -1.0000 0.0000
vn 0.0000 1.0000 0.0000
vn -0.9002 -0.4354 0.0000
vn 0.9002 -0.4354 -0.0000
vn 0.9186 -0.3898 -0.0657
vn -0.9186 -0.3898 -0.0657
vn 0.0000 0.6193 -0.7852
vn -0.9186 -0.3898 0.0657
vn 0.0000 0.6193 0.7852
vn 0.0000 -0.8305 -0.5571
vn 0.9186 -0.3898 0.0657
vn 0.0000 -0.8305 0.5571
vn -0.8891 0.0001 0.4576
vn -0.8344 0.3496 0.4262
vn -0.8834 0.3935 0.2543
vn -0.9684 -0.0016 0.2495
vn 0.9802 0.0000 -0.1978
vn 0.9132 0.3709 -0.1687
vn 0.8993 0.4071 -0.1597
vn 0.9879 0.0000 -0.1553
vn -0.9802 0.0000 0.1978
vn -0.9132 0.3709 0.1687
vn -0.8993 0.4071 0.1597
vn -0.9879 0.0000 0.1553
vn 0.0000 -0.0188 0.9998
vn 0.9684 -0.0016 0.2495
vn 0.8834 0.3935 0.2543
vn 0.8344 0.3496 0.4262
vn 0.8891 0.0001 0.4576
vn -0.9879 -0.0000 -0.1553
vn -0.8993 0.4071 -0.1597
vn -0.9132 0.3709 -0.1687
vn -0.9802 -0.0000 -0.1978
vn -0.9677 -0.0000 -0.2522
vn -0.8815 0.3949 -0.2587
vn -0.8297 0.3516 -0.4336
vn -0.8862 -0.0000 -0.4632
vn 0.9879 -0.0000 0.1553
vn 0.8993 0.4071 0.1597
vn 0.9132 0.3709 0.1687
vn 0.9802 -0.0000 0.1978
vn 0.8862 -0.0000 -0.4632
vn 0.8297 0.3516 -0.4336
vn 0.8815 0.3949 -0.2587
vn 0.9677 -0.0000 -0.2522
vn 0.8993 -0.4071 0.1597
vn 0.8815 -0.3949 -0.2587
vn 0.8812 -0.3969 0.2568
vn 0.8993 -0.4071 -0.1597
vn -0.8993 -0.4071 -0.1597
vn -0.8812 -0.3969 0.2568
vn -0.8815 -0.3949 -0.2587
vn -0.8993 -0.4071 0.1597
vn -0.0000 0.5000 -0.8660
vn -0.3692 0.0000 -0.9293
vn -0.3692 -0.8048 -0.4647
vn -0.0000 -0.8660 -0.5000
vn -0.3692 -0.9293 -0.0000
vn -0.0000 -0.8660 0.5000
vn -0.3692 -0.8048 0.4647
vn 0.3692 -0.4647 0.8048
vn 0.0000 -0.5000 0.8660
vn 0.3692 -0.0000 0.9293
vn 0.3692 0.4647 0.8048
vn 0.0000 0.5000 0.8660
vn 0.3692 0.8048 0.4647
vn -0.3692 0.8048 0.4647
vn 0.3692 0.9293 -0.0000
vn -0.3692 0.9293 0.0000
vn 0.3692 0.8048 -0.4647
vn -0.3692 0.8048 -0.4647
vn -0.3692 -0.4647 -0.8048
vn -0.0000 -0.5000 -0.8660
vn 0.2612 0.9653 -0.0000
vn 0.2612 0.8360 0.4826
vn -0.7193 -0.3474 -0.6017
vn -0.9049 0.0000 -0.4257
vn 0.7193 -0.3474 -0.6017
vn 0.7193 -0.0000 -0.6947
vn 0.9049 -0.0000 -0.4257
vn 0.9049 -0.2129 -0.3687
vn -0.7193 -0.6017 -0.3474
vn 0.7193 -0.6017 -0.3474
vn 0.9049 -0.3687 -0.2129
vn -0.7193 -0.6947 -0.0000
vn 0.7193 -0.6947 -0.0000
vn 0.9049 -0.4257 -0.0000
vn -0.7193 -0.6017 0.3474
vn 0.7193 -0.6017 0.3474
vn 0.9049 -0.3687 0.2129
vn -0.7193 -0.3474 0.6017
vn -0.9049 -0.2129 0.3687
vn 0.9049 -0.2129 0.3687
vn -0.7193 0.0000 0.6947
vn -0.9049 0.0000 0.4257
vn 0.9049 -0.0000 0.4257
vn -0.7193 0.3474 0.6017
vn -0.9049 0.2129 0.3687
vn 0.9049 0.2129 0.3687
vn -0.9049 0.3687 0.2129
vn 0.9049 0.3687 0.2129
vn -0.7193 0.6947 0.0000
vn 0.9049 0.4257 0.0000
vn -0.9049 0.3687 -0.2129
vn 0.9049 0.3687 -0.2129
vn -0.7193 0.3474 -0.6017
vn -0.9049 0.2129 -0.3687
vn 0.7193 0.3474 -0.6017
vn 0.9049 0.2129 -0.3687
vn 1.0000 -0.0000 -0.0000
vn 0.2612 -0.8360 0.4826
vn 0.2612 -0.9653 0.0000
vn 0.2612 -0.4826 -0.8360
vn 0.2612 0.0000 -0.9653
vn 0.2612 0.8360 -0.4826
vn 0.2612 -0.4826 0.8360
vn 0.2612 0.4826 0.8360
vn 0.2612 -0.0000 0.9653
vn 0.2612 -0.8360 -0.4826
vn 0.2612 0.4826 -0.8360
vn -1.0000 0.0000 0.0000
vn 0.3692 0.4647 -0.8048
vn 0.3692 0.0000 -0.9293
vn -0.3692 0.4647 -0.8048
vn 0.3692 -0.8048 -0.4647
vn 0.3692 -0.9293 -0.0000
vn 0.3692 -0.8048 0.4647
vn -0.3692 -0.4647 0.8048
vn -0.3692 -0.0000 0.9293
vn -0.3692 0.4647 0.8048
vn -0.0000 0.8660 0.5000
vn 0.0000 0.8660 -0.5000
vn 0.3692 -0.4647 -0.8048
vn -0.2612 0.9653 -0.0000
vn -0.2612 0.8360 0.4826
vn -0.7193 0.0000 -0.6947
vn -0.9049 -0.3687 -0.2129
vn -0.9049 -0.4257 -0.0000
vn -0.9049 -0.3687 0.2129
vn 0.7193 -0.3474 0.6017
vn 0.7193 0.6017 0.3474
vn -0.7193 0.6017 0.3474
vn 0.7193 0.6947 0.0000
vn -0.9049 0.4257 -0.0000
vn 0.7193 0.6017 -0.3474
vn -0.7193 0.6017 -0.3474
vn -0.2612 -0.8360 0.4826
vn -0.2612 -0.9653 -0.0000
vn -0.2612 -0.4826 -0.8360
vn -0.2612 0.0000 -0.9653
vn -0.2612 0.8360 -0.4826
vn -0.2612 -0.4826 0.8360
vn -0.2612 0.4826 0.8360
vn -0.2612 -0.0000 0.9653
vn -0.2612 -0.8360 -0.4826
vn -0.2612 0.4826 -0.8360
vn -0.9049 -0.2129 -0.3687
vn 0.7193 0.0000 0.6947
vn -0.4617 -0.4389 -0.7708
vn 0.0000 -0.5406 -0.8412
vn 0.7996 -0.1611 -0.5785
vn 0.9233 0.2185 -0.3157
vn 0.7996 0.5981 -0.0529
vn 0.4617 0.8760 0.1394
vn -0.0000 0.9777 0.2098
vn -0.4617 0.8760 0.1394
vn -0.7996 0.5981 -0.0529
vn -0.9233 0.2185 -0.3157
vn -0.7996 -0.1611 -0.5785
vn 0.4617 -0.4389 -0.7708
vn 0.0000 -1.0000 0.0051
vn 0.4096 -0.9097 0.0676
vn 0.7095 -0.6632 0.2383
vn 0.8193 -0.3263 0.4714
vn 0.7095 0.0105 0.7046
vn 0.4096 0.2570 0.8753
vn -0.0000 0.3473 0.9378
vn -0.4096 0.2570 0.8753
vn -0.7095 0.0105 0.7046
vn -0.8193 -0.3263 0.4714
vn -0.7095 -0.6632 0.2383
vn -0.4096 -0.9097 0.0676
vn -0.0000 -0.5692 0.8222
vn -0.0000 -0.6254 0.7803
vn 0.0350 -0.6177 0.7857
vn 0.0607 -0.5966 0.8003
vn 0.0701 -0.5678 0.8202
vn 0.0607 -0.5390 0.8401
vn 0.0350 -0.5179 0.8547
vn -0.0000 -0.5101 0.8601
vn -0.0350 -0.5179 0.8547
vn -0.0607 -0.5390 0.8401
vn -0.0701 -0.5678 0.8202
vn -0.0607 -0.5966 0.8003
vn -0.0350 -0.6177 0.7857
vn -0.4959 0.7787 0.3843
vn -0.0000 0.8879 0.4600
vn -0.0000 0.9944 0.1061
vn -0.4390 0.8976 0.0392
vn -0.8590 -0.3354 -0.3869
vn -0.9919 0.0724 -0.1046
vn -0.8780 0.2725 -0.3936
vn -0.7604 -0.0885 -0.6434
vn 0.9919 0.0724 -0.1046
vn 0.8590 -0.3354 -0.3869
vn 0.7604 -0.0885 -0.6434
vn 0.8780 0.2725 -0.3936
vn 0.4959 0.7787 0.3843
vn 0.4390 0.8976 0.0392
vn -0.8590 0.4802 0.1777
vn -0.7604 0.6334 -0.1437
vn 0.4959 -0.6339 -0.5935
vn 0.4390 -0.3527 -0.8264
vn 0.0000 -0.7432 -0.6691
vn -0.4959 -0.6339 -0.5935
vn -0.4390 -0.3527 -0.8264
vn 0.0000 -0.4494 -0.8933
vn 0.8590 0.4802 0.1777
vn 0.7604 0.6334 -0.1437
vn -0.0000 0.5692 -0.8222
vn 0.8433 0.2708 0.4642
vn 0.9738 -0.1295 0.1871
vn -0.4869 -0.8229 -0.2929
vn -0.8433 -0.5298 -0.0900
vn 0.4869 -0.8229 -0.2929
vn 0.0000 -0.9302 -0.3672
vn -0.8433 0.2708 0.4642
vn -0.4869 0.5639 0.6671
vn 0.4869 0.5639 0.6671
vn 0.8433 -0.5298 -0.0900
vn -0.9738 -0.1295 0.1871
vn -0.0000 0.6711 0.7413
vn -0.9132 -0.3709 -0.1687
vn -0.9132 -0.3709 0.1687
vn 0.8297 -0.3516 -0.4336
vn 0.9132 -0.3709 0.1687
vn 0.9132 -0.3709 -0.1687
vn -0.8297 -0.3516 -0.4336
vn 0.8297 -0.3556 0.4303
vn -0.8297 -0.3556 0.4303
usemtl KayKit_Texture_A
s off
f 331/1/1 332/2/1 336/3/1 335/4/1
f 333/5/2 334/6/2 330/7/2 329/8/2
f 331/1/3 335/4/3 333/5/3 329/8/3
f 336/3/4 332/2/4 330/7/4 334/6/4
f 339/9/1 340/10/1 344/11/1 343/12/1
f 341/13/2 342/14/2 338/15/2 337/16/2
f 339/9/3 343/12/3 341/13/3 337/16/3
f 344/11/4 340/10/4 338/15/4 342/14/4
f 347/17/5 348/18/5 352/19/5 351/20/5
f 349/21/6 350/22/6 346/23/6 345/24/6
f 347/17/3 351/20/3 349/21/3 345/24/3
f 345/24/7 346/23/7 355/25/7 354/26/7
f 348/18/8 347/17/8 353/27/8 356/28/8
f 352/19/9 350/22/9 360/29/9 357/30/9
f 351/20/10 352/19/10 357/30/10 358/31/10
f 346/23/11 348/18/11 356/28/11 355/25/11
f 347/17/12 345/24/12 354/26/12 353/27/12
f 350/22/13 349/21/13 359/32/13 360/29/13
f 349/21/14 351/20/14 358/31/14 359/32/14
s 1
f 436/33/15 4/34/16 22/35/17 448/36/18
f 440/37/19 16/38/20 32/39/21 446/40/22
f 442/41/23 12/42/24 24/43/25 450/44/26
f 11/45/4 21/46/4 32/47/4 16/48/4
f 436/33/27 435/49/27 2/50/27 4/34/27
f 437/51/1 8/52/1 6/53/1 438/54/1
f 24/55/4 12/56/4 15/57/4 29/58/4
f 445/59/28 31/60/29 2/50/30 435/49/31
f 12/56/4 11/45/4 16/48/4 15/57/4
f 8/61/4 23/62/4 30/63/4 6/64/4
f 447/65/32 21/66/33 11/67/34 441/68/35
f 3/69/3 19/70/3 26/71/3 1/72/3
f 10/73/3 9/74/3 14/75/3 13/76/3
f 449/77/36 23/78/37 8/52/38 437/51/39
f 443/79/40 29/80/41 15/81/42 439/82/43
f 439/82/43 15/81/42 16/38/20 440/37/19
f 438/54/44 6/53/45 30/83/46 444/84/47
f 20/85/3 10/73/3 13/76/3 25/86/3
f 22/87/4 4/88/4 2/89/4 31/90/4
f 441/68/35 11/67/34 12/42/24 442/41/23
f 9/74/3 17/91/3 28/92/3 14/75/3
f 24/55/4 29/58/4 30/63/4 23/62/4
f 22/87/4 31/90/4 32/47/4 21/46/4
f 20/85/3 25/86/3 26/71/3 19/70/3
f 18/93/3 27/94/3 28/92/3 17/91/3
f 443/95/40 28/92/48 27/94/49 444/96/47
f 445/97/28 26/71/50 25/86/51 446/98/22
f 447/99/32 20/85/52 19/70/53 448/100/18
f 449/101/36 18/93/54 17/91/55 450/102/26
f 18/93/3 7/103/3 5/104/3 27/94/3
f 67/105/56 69/106/56 36/107/1 34/108/57
f 40/109/58 42/110/59 45/111/3 43/112/60
f 43/112/60 45/111/3 48/113/61 46/114/62
f 46/114/62 48/113/61 51/115/63 49/116/64
f 49/116/64 51/115/63 54/117/65 52/118/2
f 52/118/2 54/117/65 57/119/66 55/120/67
f 55/120/67 57/119/66 60/121/68 58/122/69
f 58/122/69 60/121/68 63/123/70 61/124/71
f 61/124/71 63/123/70 66/125/72 64/126/73
f 64/126/73 66/125/72 69/106/56 67/105/56
f 37/127/74 39/128/75 42/110/59 40/109/58
f 44/129/76 41/130/77 85/131/77 86/132/76
f 34/108/57 36/107/1 39/128/75 37/127/74
f 34/133/57 37/134/74 95/135/78 96/136/79
f 39/137/80 36/138/81 70/139/82 71/140/83
f 37/134/74 40/141/58 97/142/84 95/135/78
f 42/143/85 39/137/80 71/140/83 72/144/86
f 40/141/58 43/145/60 98/146/87 97/142/84
f 45/147/88 42/143/85 72/144/86 73/148/89
f 43/145/60 46/149/62 99/150/90 98/146/87
f 48/151/91 45/147/88 73/148/89 74/152/92
f 46/149/62 49/153/93 100/154/94 99/150/90
f 51/155/63 48/151/91 74/152/92 75/156/95
f 49/153/93 52/157/96 101/158/97 100/154/94
f 54/159/65 51/155/63 75/156/95 76/160/98
f 52/157/96 55/161/99 102/162/100 101/158/97
f 57/163/66 54/159/65 76/160/98 77/164/101
f 55/161/99 58/165/69 103/166/102 102/162/100
f 60/167/68 57/163/66 77/164/101 78/168/103
f 58/165/69 61/169/71 104/170/104 103/166/102
f 63/171/70 60/167/68 78/168/103 79/172/105
f 61/169/71 64/173/73 105/174/106 104/170/104
f 66/175/72 63/171/70 79/172/105 80/176/107
f 64/173/73 67/177/108 106/178/109 105/174/106
f 69/179/110 66/175/72 80/176/107 81/180/111
f 67/177/108 34/133/57 96/136/79 106/178/109
f 36/138/81 69/179/110 81/180/111 70/139/82
f 35/181/112 38/182/112 71/183/83 70/184/82
f 38/182/112 41/130/112 72/185/86 71/183/83
f 41/130/112 44/129/112 73/186/89 72/185/86
f 44/129/112 47/187/112 74/188/92 73/186/89
f 47/187/112 50/189/112 75/190/95 74/188/92
f 50/189/112 53/191/112 76/192/98 75/190/95
f 53/191/112 56/193/112 77/194/101 76/192/98
f 56/193/112 59/195/112 78/196/103 77/194/101
f 59/195/112 62/197/112 79/198/105 78/196/103
f 62/197/112 65/199/112 80/200/107 79/198/105
f 65/199/112 68/201/112 81/202/111 80/200/107
f 68/201/112 35/181/112 70/184/82 81/202/111
f 65/199/113 62/197/114 92/203/114 93/204/113
f 56/193/115 53/191/116 89/205/116 90/206/115
f 47/187/117 44/129/76 86/132/76 87/207/117
f 68/201/118 65/199/113 93/204/113 94/208/118
f 38/182/119 35/181/120 83/209/120 84/210/119
f 59/195/121 56/193/115 90/206/115 91/211/121
f 50/189/122 47/187/117 87/207/117 88/212/122
f 35/181/120 68/201/118 94/208/118 83/209/120
f 41/130/77 38/182/119 84/210/119 85/131/77
f 62/197/114 59/195/121 91/211/121 92/203/114
f 53/191/116 50/189/122 88/212/122 89/205/116
f 82/213/112 84/214/112 83/215/112
f 82/213/112 85/216/112 84/214/112
f 82/213/112 86/217/112 85/216/112
f 82/213/112 87/218/112 86/217/112
f 82/213/112 88/219/112 87/218/112
f 82/213/112 89/220/112 88/219/112
f 82/213/112 90/221/112 89/220/112
f 82/213/112 91/222/112 90/221/112
f 82/213/112 92/223/112 91/222/112
f 82/213/112 93/224/112 92/223/112
f 82/213/112 94/225/112 93/224/112
f 82/213/112 83/215/112 94/225/112
f 33/226/123 96/227/79 95/228/123
f 33/226/123 95/228/123 97/229/123
f 33/226/123 97/229/123 98/230/123
f 33/226/123 98/230/123 99/231/123
f 33/226/123 99/231/123 100/232/94
f 33/226/123 100/232/94 101/233/97
f 33/226/123 101/233/97 102/234/100
f 33/226/123 102/234/100 103/235/102
f 33/226/123 103/235/102 104/236/123
f 33/226/123 104/236/123 105/237/106
f 33/226/123 105/237/106 106/238/109
f 33/226/123 106/238/109 96/227/79
f 141/239/124 108/240/125 110/241/57 143/242/126
f 114/243/127 117/244/128 119/245/3 116/246/59
f 117/244/128 120/247/129 122/248/62 119/245/3
f 120/247/129 123/249/63 125/250/130 122/248/62
f 123/249/63 126/251/65 128/252/131 125/250/130
f 126/251/65 129/253/66 131/254/132 128/252/131
f 129/253/66 132/255/68 134/256/133 131/254/132
f 132/255/68 135/257/70 137/258/4 134/256/133
f 135/257/70 138/259/72 140/260/134 137/258/4
f 138/259/72 141/239/124 143/242/126 140/260/134
f 111/261/135 114/243/127 116/246/59 113/262/74
f 118/263/136 160/264/136 159/265/137 115/266/137
f 108/240/125 111/261/135 113/262/74 110/241/57
f 108/267/125 170/268/82 169/269/83 111/270/135
f 113/271/74 145/272/78 144/273/138 110/274/57
f 111/270/135 169/269/83 171/275/86 114/276/127
f 116/277/84 146/278/139 145/272/78 113/271/74
f 114/276/127 171/275/86 172/279/89 117/280/128
f 119/281/87 147/282/140 146/278/139 116/277/84
f 117/280/128 172/279/89 173/283/92 120/284/129
f 122/285/62 148/286/141 147/282/140 119/281/87
f 120/284/129 173/283/92 174/287/142 123/288/63
f 125/289/130 149/290/93 148/286/141 122/285/62
f 123/288/63 174/287/142 175/291/98 126/292/65
f 128/293/131 150/294/96 149/290/93 125/289/130
f 126/292/65 175/291/98 176/295/101 129/296/66
f 131/297/132 151/298/100 150/294/96 128/293/131
f 129/296/66 176/295/101 177/299/143 132/300/68
f 134/301/144 152/302/102 151/298/100 131/297/132
f 132/300/68 177/299/143 178/303/145 135/304/70
f 137/305/104 153/306/146 152/302/102 134/301/144
f 135/304/70 178/303/145 179/307/147 138/308/72
f 140/309/148 154/310/106 153/306/146 137/305/104
f 138/308/72 179/307/147 180/311/111 141/312/124
f 143/313/126 155/314/109 154/310/106 140/309/148
f 141/312/124 180/311/111 170/268/82 108/267/125
f 110/274/57 144/273/138 155/314/109 143/313/126
f 109/315/123 144/316/123 145/317/123 112/318/123
f 112/318/123 145/317/123 146/319/139 115/266/123
f 115/266/123 146/319/139 147/320/140 118/263/123
f 118/263/123 147/320/140 148/321/141 121/322/123
f 121/322/123 148/321/141 149/323/123 124/324/123
f 124/324/123 149/323/123 150/325/123 127/326/123
f 127/326/123 150/325/123 151/327/100 130/328/123
f 130/328/123 151/327/100 152/329/102 133/330/123
f 133/330/123 152/329/102 153/331/146 136/332/123
f 136/332/123 153/331/146 154/333/106 139/334/123
f 139/334/123 154/333/106 155/335/109 142/336/123
f 142/336/123 155/335/109 144/316/123 109/315/123
f 139/334/149 167/337/149 166/338/150 136/332/150
f 130/328/151 164/339/151 163/340/152 127/326/152
f 121/322/153 161/341/153 160/264/136 118/263/136
f 142/336/154 168/342/154 167/337/149 139/334/149
f 112/318/155 158/343/155 157/344/156 109/315/156
f 133/330/157 165/345/157 164/339/151 130/328/151
f 124/324/158 162/346/158 161/341/153 121/322/153
f 109/315/156 157/344/156 168/342/154 142/336/154
f 115/266/137 159/265/137 158/343/155 112/318/155
f 136/332/150 166/338/150 165/345/157 133/330/157
f 127/326/152 163/340/152 162/346/158 124/324/158
f 156/347/123 157/348/123 158/349/123
f 156/347/123 158/349/123 159/350/123
f 156/347/123 159/350/123 160/351/123
f 156/347/123 160/351/123 161/352/123
f 156/347/123 161/352/123 162/353/123
f 156/347/123 162/353/123 163/354/123
f 156/347/123 163/354/123 164/355/123
f 156/347/123 164/355/123 165/356/123
f 156/347/123 165/356/123 166/357/123
f 156/347/123 166/357/123 167/358/123
f 156/347/123 167/358/123 168/359/123
f 156/347/123 168/359/123 157/348/123
f 107/360/112 169/361/83 170/362/82
f 107/360/112 171/363/86 169/361/83
f 107/360/112 172/364/89 171/363/86
f 107/360/112 173/365/92 172/364/89
f 107/360/112 174/366/112 173/365/92
f 107/360/112 175/367/98 174/366/112
f 107/360/112 176/368/101 175/367/98
f 107/360/112 177/369/112 176/368/101
f 107/360/112 178/370/112 177/369/112
f 107/360/112 179/371/112 178/370/112
f 107/360/112 180/372/111 179/371/112
f 107/360/112 170/362/82 180/372/111
f 215/373/126 217/374/56 184/375/1 182/376/57
f 188/377/58 190/378/59 193/379/3 191/380/60
f 191/380/60 193/379/3 196/381/61 194/382/62
f 194/382/62 196/381/61 199/383/63 197/384/130
f 197/384/130 199/383/63 202/385/65 200/386/131
f 200/386/131 202/385/65 205/387/66 203/388/132
f 203/388/132 205/387/66 208/389/133 206/390/69
f 206/390/69 208/389/133 211/391/4 209/392/71
f 209/392/71 211/391/4 214/393/134 212/394/73
f 212/394/73 214/393/134 217/374/56 215/373/126
f 185/395/74 187/396/75 190/378/59 188/377/58
f 192/397/76 189/398/77 233/399/77 234/400/76
f 182/376/57 184/375/1 187/396/75 185/395/74
f 182/401/57 185/402/74 243/403/159 244/404/79
f 187/405/80 184/406/81 218/407/82 219/408/83
f 185/402/74 188/409/58 245/410/139 243/403/159
f 190/411/85 187/405/80 219/408/83 220/412/86
f 188/409/58 191/413/60 246/414/140 245/410/139
f 193/415/88 190/411/85 220/412/86 221/416/89
f 191/413/60 194/417/62 247/418/141 246/414/140
f 196/419/91 193/415/88 221/416/89 222/420/92
f 194/417/62 197/421/130 248/422/93 247/418/141
f 199/423/63 196/419/91 222/420/92 223/424/142
f 197/421/130 200/425/131 249/426/96 248/422/93
f 202/427/65 199/423/63 223/424/142 224/428/160
f 200/425/131 203/429/132 250/430/100 249/426/96
f 205/431/66 202/427/65 224/428/160 225/432/101
f 203/429/132 206/433/69 251/434/102 250/430/100
f 208/435/143 205/431/66 225/432/101 226/436/103
f 206/433/69 209/437/71 252/438/146 251/434/102
f 211/439/145 208/435/143 226/436/103 227/440/105
f 209/437/71 212/441/73 253/442/106 252/438/146
f 214/443/147 211/439/145 227/440/105 228/444/107
f 212/441/73 215/445/126 254/446/109 253/442/106
f 217/447/110 214/443/147 228/444/107 229/448/111
f 215/445/126 182/401/57 244/404/79 254/446/109
f 184/406/81 217/447/110 229/448/111 218/407/82
f 183/449/112 186/450/112 219/451/83 218/452/82
f 186/450/112 189/398/112 220/453/86 219/451/83
f 189/398/112 192/397/112 221/454/89 220/453/86
f 192/397/112 195/455/112 222/456/92 221/454/89
f 195/455/112 198/457/112 223/458/112 222/456/92
f 198/457/112 201/459/112 224/460/112 223/458/112
f 201/459/112 204/461/112 225/462/101 224/460/112
f 204/461/112 207/463/112 226/464/103 225/462/101
f 207/463/112 210/465/112 227/466/105 226/464/103
f 210/465/112 213/467/112 228/468/107 227/466/105
f 213/467/112 216/469/112 229/470/111 228/468/107
f 216/469/112 183/449/112 218/452/82 229/470/111
f 213/467/113 210/465/114 240/471/114 241/472/113
f 204/461/115 201/459/116 237/473/116 238/474/115
f 195/455/117 192/397/76 234/400/76 235/475/117
f 216/469/118 213/467/113 241/472/113 242/476/118
f 186/450/119 183/449/120 231/477/120 232/478/119
f 207/463/121 204/461/115 238/474/115 239/479/121
f 198/457/122 195/455/117 235/475/117 236/480/122
f 183/449/120 216/469/118 242/476/118 231/477/120
f 189/398/77 186/450/119 232/478/119 233/399/77
f 210/465/114 207/463/121 239/479/121 240/471/114
f 201/459/116 198/457/122 236/480/122 237/473/116
f 230/481/112 232/482/112 231/483/112
f 230/481/112 233/484/112 232/482/112
f 230/481/112 234/485/112 233/484/112
f 230/481/112 235/486/112 234/485/112
f 230/481/112 236/487/112 235/486/112
f 230/481/112 237/488/112 236/487/112
f 230/481/112 238/489/112 237/488/112
f 230/481/112 239/490/112 238/489/112
f 230/481/112 240/491/112 239/490/112
f 230/481/112 241/492/112 240/491/112
f 230/481/112 242/493/112 241/492/112
f 230/481/112 231/483/112 242/493/112
f 181/494/123 244/495/79 243/496/159
f 181/494/123 243/496/159 245/497/139
f 181/494/123 245/497/139 246/498/140
f 181/494/123 246/498/140 247/499/141
f 181/494/123 247/499/141 248/500/123
f 181/494/123 248/500/123 249/501/123
f 181/494/123 249/501/123 250/502/100
f 181/494/123 250/502/100 251/503/102
f 181/494/123 251/503/102 252/504/146
f 181/494/123 252/504/146 253/505/106
f 181/494/123 253/505/106 254/506/109
f 181/494/123 254/506/109 244/495/79
f 289/507/124 256/508/125 258/509/57 291/510/126
f 262/511/127 265/512/128 267/513/60 264/514/58
f 265/512/128 268/515/129 270/516/62 267/513/60
f 268/515/129 271/517/63 273/518/130 270/516/62
f 271/517/63 274/519/65 276/520/131 273/518/130
f 274/519/65 277/521/66 279/522/132 276/520/131
f 277/521/66 280/523/68 282/524/69 279/522/132
f 280/523/68 283/525/70 285/526/71 282/524/69
f 283/525/70 286/527/72 288/528/73 285/526/71
f 286/527/72 289/507/124 291/510/126 288/528/73
f 259/529/135 262/511/127 264/514/58 261/530/74
f 266/531/136 308/532/136 307/533/137 263/534/137
f 256/508/125 259/529/135 261/530/74 258/509/57
f 256/535/125 318/536/82 317/537/83 259/538/135
f 261/539/74 293/540/159 292/541/79 258/542/57
f 259/538/135 317/537/83 319/543/86 262/544/127
f 264/545/58 294/546/139 293/540/159 261/539/74
f 262/544/127 319/543/86 320/547/89 265/548/128
f 267/549/60 295/550/140 294/546/139 264/545/58
f 265/548/128 320/547/89 321/551/92 268/552/129
f 270/553/62 296/554/141 295/550/140 267/549/60
f 268/552/129 321/551/92 322/555/142 271/556/63
f 273/557/130 297/558/93 296/554/141 270/553/62
f 271/556/63 322/555/142 323/559/160 274/560/65
f 276/561/131 298/562/97 297/558/93 273/557/130
f 274/560/65 323/559/160 324/563/101 277/564/66
f 279/565/132 299/566/100 298/562/97 276/561/131
f 277/564/66 324/563/101 325/567/103 280/568/68
f 282/569/69 300/570/102 299/566/100 279/565/132
f 280/568/68 325/567/103 326/571/145 283/572/70
f 285/573/71 301/574/146 300/570/102 282/569/69
f 283/572/70 326/571/145 327/575/107 286/576/72
f 288/577/73 302/578/106 301/574/146 285/573/71
f 286/576/72 327/575/107 328/579/111 289/580/124
f 291/581/126 303/582/109 302/578/106 288/577/73
f 289/580/124 328/579/111 318/536/82 256/535/125
f 258/542/57 292/541/79 303/582/109 291/581/126
f 257/583/123 292/584/79 293/585/159 260/586/123
f 260/586/123 293/585/159 294/587/139 263/534/123
f 263/534/123 294/587/139 295/588/140 266/531/123
f 266/531/123 295/588/140 296/589/141 269/590/123
f 269/590/123 296/589/141 297/591/123 272/592/123
f 272/592/123 297/591/123 298/593/97 275/594/123
f 275/594/123 298/593/97 299/595/100 278/596/123
f 278/596/123 299/595/100 300/597/102 281/598/123
f 281/598/123 300/597/102 301/599/146 284/600/123
f 284/600/123 301/599/146 302/601/106 287/602/123
f 287/602/123 302/601/106 303/603/109 290/604/123
f 290/604/123 303/603/109 292/584/79 257/583/123
f 287/602/149 315/605/149 314/606/150 284/600/150
f 278/596/151 312/607/151 311/608/152 275/594/152
f 269/590/153 309/609/153 308/532/136 266/531/136
f 290/604/154 316/610/154 315/605/149 287/602/149
f 260/586/155 306/611/155 305/612/156 257/583/156
f 281/598/157 313/613/157 312/607/151 278/596/151
f 272/592/158 310/614/158 309/609/153 269/590/153
f 257/583/156 305/612/156 316/610/154 290/604/154
f 263/534/137 307/533/137 306/611/155 260/586/155
f 284/600/150 314/606/150 313/613/157 281/598/157
f 275/594/152 311/608/152 310/614/158 272/592/158
f 304/615/123 305/616/123 306/617/123
f 304/615/123 306/617/123 307/618/123
f 304/615/123 307/618/123 308/619/123
f 304/615/123 308/619/123 309/620/123
f 304/615/123 309/620/123 310/621/123
f 304/615/123 310/621/123 311/622/123
f 304/615/123 311/622/123 312/623/123
f 304/615/123 312/623/123 313/624/123
f 304/615/123 313/624/123 314/625/123
f 304/615/123 314/625/123 315/626/123
f 304/615/123 315/626/123 316/627/123
f 304/615/123 316/627/123 305/616/123
f 255/628/112 317/629/83 318/630/82
f 255/628/112 319/631/86 317/629/83
f 255/628/112 320/632/89 319/631/86
f 255/628/112 321/633/92 320/632/89
f 255/628/112 322/634/112 321/633/92
f 255/628/112 323/635/112 322/634/112
f 255/628/112 324/636/101 323/635/112
f 255/628/112 325/637/103 324/636/101
f 255/628/112 326/638/112 325/637/103
f 255/628/112 327/639/107 326/638/112
f 255/628/112 328/640/111 327/639/107
f 255/628/112 318/630/82 328/640/111
f 374/641/161 398/642/161 388/643/162 363/644/162
f 365/645/163 389/646/163 390/647/164 366/648/164
f 366/648/164 390/647/164 391/649/165 367/650/165
f 367/650/165 391/649/165 392/651/166 368/652/166
f 368/652/166 392/651/166 393/653/167 369/654/167
f 369/654/167 393/653/167 394/655/168 370/656/168
f 370/656/168 394/655/168 395/657/169 371/658/169
f 371/658/169 395/657/169 396/659/170 372/660/170
f 372/660/170 396/659/170 397/661/171 373/662/171
f 373/662/171 397/661/171 398/642/161 374/641/161
f 364/663/172 387/664/172 389/646/163 365/645/163
f 363/644/162 388/643/162 387/664/172 364/663/172
f 363/665/173 364/666/174 375/667/174 376/668/173
f 364/666/174 365/669/175 377/670/175 375/667/174
f 365/669/175 366/671/176 378/672/176 377/670/175
f 366/671/176 367/673/177 379/674/177 378/672/176
f 367/673/177 368/675/178 380/676/178 379/674/177
f 368/675/178 369/677/179 381/678/179 380/676/178
f 369/677/179 370/679/180 382/680/180 381/678/179
f 370/679/180 371/681/181 383/682/181 382/680/180
f 371/681/181 372/683/182 384/684/182 383/682/181
f 372/683/182 373/685/183 385/686/183 384/684/182
f 373/685/183 374/687/184 386/688/184 385/686/183
f 374/687/184 363/665/173 376/668/173 386/688/184
f 362/689/185 376/690/186 375/691/187
f 362/689/185 375/691/187 377/692/188
f 362/689/185 377/692/188 378/693/189
f 362/689/185 378/693/189 379/694/190
f 362/689/185 379/694/190 380/695/191
f 362/689/185 380/695/191 381/696/192
f 362/689/185 381/696/192 382/697/193
f 362/689/185 382/697/193 383/698/194
f 362/689/185 383/698/194 384/699/195
f 362/689/185 384/699/195 385/700/196
f 362/689/185 385/700/196 386/701/197
f 362/689/185 386/701/197 376/690/186
f 393/702/185 392/703/185 404/704/185 405/705/185
f 396/706/185 395/707/185 407/708/185 408/709/185
f 389/710/185 387/711/185 399/712/185 401/713/185
f 388/714/185 398/715/185 410/716/185 400/717/185
f 392/703/185 391/718/185 403/719/185 404/704/185
f 395/707/185 394/720/185 406/721/185 407/708/185
f 387/711/185 388/714/185 400/717/185 399/712/185
f 398/715/185 397/722/185 409/723/185 410/716/185
f 391/718/185 390/724/185 402/725/185 403/719/185
f 394/720/185 393/702/185 405/705/185 406/721/185
f 397/722/185 396/706/185 408/709/185 409/723/185
f 390/724/185 389/710/185 401/713/185 402/725/185
f 428/726/198 423/727/199 416/728/200 417/729/201
f 432/730/202 424/731/203 419/732/204 420/733/205
f 434/734/206 425/735/207 412/736/208 413/737/209
f 423/727/199 426/738/210 415/739/211 416/728/200
f 424/731/203 427/740/212 418/741/213 419/732/204
f 425/735/207 429/742/214 361/743/215 412/736/208
f 430/744/216 431/745/217 421/746/218 411/747/219
f 426/738/210 433/748/220 414/749/221 415/739/211
f 427/740/212 428/726/198 417/729/201 418/741/213
f 429/742/214 430/744/216 411/747/219 361/743/215
f 431/745/217 432/730/202 420/733/205 421/746/218
f 433/748/220 434/734/206 413/737/209 414/749/221
f 422/750/222 361/743/222 411/747/222
f 422/750/222 412/736/222 361/743/222
f 422/750/222 413/737/222 412/736/222
f 422/750/222 414/749/222 413/737/222
f 422/750/222 415/739/222 414/749/222
f 422/750/222 416/728/222 415/739/222
f 422/750/222 417/729/222 416/728/222
f 422/750/222 418/741/222 417/729/222
f 422/750/222 419/732/222 418/741/222
f 422/750/222 420/733/222 419/732/222
f 422/750/222 421/746/222 420/733/222
f 422/750/222 411/747/222 421/746/222
f 403/751/223 402/752/224 434/753/206 433/754/220
f 410/755/225 409/756/226 432/757/202 431/758/217
f 399/759/227 400/760/228 430/761/216 429/762/214
f 407/763/229 406/764/230 428/765/198 427/766/212
f 404/767/231 403/751/223 433/754/220 426/768/210
f 400/760/228 410/755/225 431/758/217 430/761/216
f 401/769/232 399/759/227 429/762/214 425/770/207
f 408/771/233 407/763/229 427/766/212 424/772/203
f 405/773/234 404/767/231 426/768/210 423/774/199
f 402/752/224 401/769/232 425/770/207 434/753/206
f 409/756/226 408/771/233 424/772/203 432/757/202
f 406/764/230 405/773/234 423/774/199 428/765/198
f 23/78/37 449/77/36 450/44/26 24/43/25
f 21/66/33 447/65/32 448/36/18 22/35/17
f 31/60/29 445/59/28 446/40/22 32/39/21
f 29/80/41 443/79/40 444/84/47 30/83/46
f 10/73/235 441/775/35 442/776/23 9/74/236
f 5/104/237 438/777/44 444/96/47 27/94/49
f 14/75/238 439/778/43 440/779/19 13/76/239
f 28/92/48 443/95/40 439/778/43 14/75/238
f 18/93/54 449/101/36 437/780/39 7/103/240
f 20/85/52 447/99/32 441/775/35 10/73/235
f 26/71/50 445/97/28 435/781/31 1/72/241
f 7/103/1 437/780/1 438/777/1 5/104/1
f 3/69/27 1/72/27 435/781/27 436/782/27
f 9/74/236 442/776/23 450/102/26 17/91/55
f 13/76/239 440/779/19 446/98/22 25/86/51
f 3/69/242 436/782/15 448/100/18 19/70/53
