# Blender v3.4.1 OBJ File: 'MixedBag1_Export.blend'
# www.blender.org
mtllib taco.mtl
o taco
v 0.166878 0.168122 0.437160
v 0.149844 0.113237 0.456203
v 0.090602 0.060320 0.474948
v 0.000073 0.040952 0.481903
v -0.090457 0.060320 0.474948
v -0.149702 0.113237 0.456203
v -0.166739 0.168122 0.437160
v -0.195830 0.283522 0.361561
v 0.195963 0.283522 0.361561
v -0.121945 0.374181 0.241711
v 0.122073 0.374181 0.241711
v 0.209447 0.086775 0.465530
v 0.226839 0.159681 0.440062
v 0.128665 0.014486 0.491489
v 0.000074 -0.011974 0.501167
v -0.128518 0.014486 0.491489
v -0.209304 0.086775 0.465530
v -0.226700 0.159681 0.440062
v -0.145123 0.283523 0.361561
v -0.164557 0.374181 0.241711
v 0.164685 0.374181 0.241711
v 0.145255 0.283522 0.361561
v 0.209447 0.086774 -0.465530
v 0.128666 0.014486 -0.491489
v 0.000075 -0.011974 -0.501167
v -0.128518 0.014486 -0.491489
v -0.209303 0.086774 -0.465530
v -0.164557 0.374181 -0.241711
v 0.164685 0.374181 -0.241712
v -0.166739 0.168122 -0.437160
v -0.195830 0.283522 -0.361561
v 0.195963 0.283522 -0.361561
v -0.226699 0.159681 -0.440062
v 0.226839 0.159681 -0.440063
v 0.149844 0.113237 -0.456203
v 0.090602 0.060320 -0.474948
v 0.000073 0.040951 -0.481903
v -0.090457 0.060320 -0.474948
v -0.149702 0.113237 -0.456203
v -0.121945 0.374181 -0.241711
v 0.122073 0.374181 -0.241712
v -0.145122 0.283522 -0.361561
v 0.145255 0.283522 -0.361561
v 0.166878 0.168122 -0.437160
v -0.165531 0.086775 -0.108530
v -0.165531 0.086775 0.108530
v 0.000073 0.040952 -0.112396
v 0.000073 0.040952 0.112396
v 0.071477 0.060320 -0.110762
v 0.071477 0.060320 0.110762
v 0.106757 0.434603 -0.081354
v 0.106757 0.434603 0.081354
v 0.144021 0.434603 0.081354
v 0.144021 0.434603 -0.081354
v -0.180690 0.159681 -0.102535
v -0.180690 0.159681 0.102535
v 0.118866 0.113237 -0.106356
v 0.118866 0.113237 0.106356
v 0.180829 0.159681 -0.102535
v 0.180829 0.159681 0.102535
v -0.112360 0.374181 -0.085866
v -0.112360 0.374181 0.085866
v 0.151752 0.374181 -0.085866
v 0.151752 0.374181 0.085866
v 0.163731 0.283522 0.092758
v 0.163731 0.283522 -0.092758
v 0.133156 0.168122 -0.101859
v 0.133156 0.168122 0.101859
v 0.165673 0.086775 -0.108530
v 0.165673 0.086775 0.108530
v -0.121234 0.283522 -0.092758
v -0.121234 0.283522 0.092758
v -0.163599 0.283522 -0.092758
v -0.163599 0.283522 0.092758
v -0.151625 0.374181 0.085866
v -0.151625 0.374181 -0.085866
v 0.121366 0.283522 -0.092758
v 0.121366 0.283522 0.092758
v 0.112487 0.374181 0.085866
v 0.112488 0.374181 -0.085866
v 0.101015 0.014486 -0.114619
v 0.101015 0.014486 0.114619
v -0.133017 0.168122 -0.101859
v -0.133017 0.168122 0.101859
v -0.143897 0.434603 -0.081354
v -0.143897 0.434603 0.081354
v -0.106633 0.434603 0.081354
v -0.106633 0.434603 -0.081354
v 0.000074 -0.011974 -0.116889
v 0.000074 -0.011974 0.116888
v -0.100869 0.014486 0.114619
v -0.100869 0.014486 -0.114619
v -0.118725 0.113237 -0.106356
v -0.118725 0.113237 0.106356
v -0.071333 0.060320 0.110762
v -0.071333 0.060320 -0.110762
v 0.198342 0.165476 0.448044
v 0.180881 0.100006 0.471486
v 0.110206 0.037403 0.494329
v 0.000074 0.014489 0.502826
v -0.110060 0.037403 0.494329
v -0.180738 0.100006 0.471486
v -0.198203 0.165476 0.448044
v -0.171055 0.289086 0.367472
v -0.142815 0.382817 0.244053
v 0.142942 0.382817 0.244053
v 0.171187 0.289086 0.367472
v 0.110206 0.037403 -0.494329
v 0.180881 0.100006 -0.471486
v 0.000074 0.014489 -0.502826
v -0.110060 0.037403 -0.494329
v -0.180738 0.100006 -0.471486
v -0.142815 0.382817 -0.244053
v 0.142942 0.382817 -0.244053
v -0.171055 0.289086 -0.367472
v 0.171188 0.289086 -0.367472
v -0.198203 0.165476 -0.448045
v 0.198342 0.165476 -0.448045
v -0.124195 0.444366 -0.081944
v -0.124195 0.444366 0.081944
v 0.124318 0.444366 -0.081944
v 0.124318 0.444366 0.081944
v -0.094192 0.336616 -0.026380
v -0.098356 0.361073 -0.026122
v -0.087441 0.338660 -0.046802
v -0.091330 0.363162 -0.046560
v 0.033212 0.372774 0.037909
v 0.029898 0.397751 0.037723
v 0.040551 0.374818 0.017994
v 0.037401 0.399840 0.017805
v -0.007502 0.377197 -0.005423
v -0.047199 0.366147 -0.024987
v -0.052361 0.393044 -0.024611
v -0.010728 0.404795 -0.004291
v -0.055680 0.363815 -0.002178
v -0.016177 0.374864 0.017211
v -0.018876 0.402557 0.016909
v -0.060499 0.390807 -0.003234
v -0.105552 0.332775 0.236971
v -0.107138 0.357562 0.231767
v -0.114721 0.329554 0.218372
v -0.116410 0.354271 0.213160
v 0.030928 0.354768 0.147444
v 0.028008 0.379872 0.142830
v 0.020691 0.351548 0.128960
v 0.017772 0.376582 0.124340
v -0.027707 0.358576 0.155681
v -0.067819 0.351854 0.182663
v -0.070742 0.379200 0.178489
v -0.029199 0.386348 0.150455
v -0.056990 0.355529 0.203571
v -0.016183 0.362250 0.176549
v -0.018461 0.389872 0.170004
v -0.060643 0.382724 0.198078
v -0.108860 0.314298 -0.210947
v -0.112249 0.337073 -0.216204
v -0.120418 0.302621 -0.230705
v -0.123921 0.325156 -0.236094
v 0.037534 0.304345 -0.286508
v 0.034751 0.327139 -0.291401
v 0.028720 0.292605 -0.306974
v 0.025708 0.315157 -0.312017
v -0.029215 0.308812 -0.284786
v -0.074185 0.311845 -0.261725
v -0.078297 0.337209 -0.266074
v -0.031160 0.334041 -0.290080
v -0.062233 0.325184 -0.239101
v -0.017869 0.322172 -0.261917
v -0.020262 0.346839 -0.268489
v -0.066517 0.349984 -0.244729
v -0.032733 0.360648 -0.090589
v -0.029365 0.385151 -0.093027
v -0.025661 0.354199 -0.110546
v -0.022072 0.378560 -0.113030
v 0.094701 0.339368 -0.021999
v 0.098784 0.363563 -0.024959
v 0.101270 0.332918 -0.041932
v 0.105417 0.356973 -0.044937
v 0.062780 0.354365 -0.069106
v 0.024509 0.360869 -0.089803
v 0.027141 0.388012 -0.092396
v 0.067412 0.381096 -0.070918
v 0.015833 0.368227 -0.067303
v 0.054686 0.361724 -0.046615
v 0.059774 0.388154 -0.049803
v 0.018972 0.395070 -0.071272
v -0.020086 0.308545 0.313984
v -0.015767 0.332130 0.315153
v -0.032539 0.317371 0.294546
v -0.028394 0.341149 0.295604
v 0.112008 0.308531 0.212172
v 0.116364 0.332116 0.213888
v 0.098161 0.317357 0.193479
v 0.102018 0.341134 0.195104
v 0.057790 0.332140 0.228387
v 0.018217 0.332144 0.258894
v 0.021920 0.358066 0.261520
v 0.062805 0.358062 0.229781
v 0.033136 0.322074 0.280564
v 0.072845 0.322070 0.249799
v 0.077290 0.348403 0.249942
v 0.036067 0.348408 0.281941
v -0.024852 0.353124 -0.135446
v -0.021079 0.378096 -0.131892
v -0.033351 0.355320 -0.155154
v -0.029549 0.380340 -0.151605
v 0.116353 0.317473 -0.211330
v 0.119707 0.341932 -0.207327
v 0.109505 0.319669 -0.231511
v 0.112609 0.344176 -0.227524
v 0.059561 0.346990 -0.203369
v 0.016620 0.357885 -0.180304
v 0.019757 0.385475 -0.174999
v 0.064126 0.373889 -0.198981
v 0.026069 0.355380 -0.157916
v 0.068166 0.344485 -0.180818
v 0.072174 0.371486 -0.177845
v 0.028536 0.383072 -0.154028
v -0.040278 0.295349 0.117385
v -0.040578 0.307193 0.127002
v -0.051341 0.301675 0.122397
v -0.058126 0.359583 0.129480
v -0.064411 0.368011 0.121388
v -0.068425 0.354064 0.125126
v -0.051412 0.289164 0.083667
v -0.062718 0.295110 0.086814
v -0.058408 0.297243 0.073213
v -0.079845 0.358924 0.074799
v -0.078674 0.347540 0.067199
v -0.082749 0.345407 0.080232
v -0.011801 0.309331 0.101125
v -0.005999 0.324168 0.096440
v -0.010409 0.322035 0.109783
v -0.024986 0.388552 0.098805
v -0.020119 0.379153 0.107675
v -0.015930 0.381287 0.094959
v -0.024177 0.303145 0.067724
v -0.030090 0.312084 0.056535
v -0.019228 0.317602 0.061397
v -0.042192 0.379465 0.052879
v -0.032629 0.372629 0.050907
v -0.043104 0.367111 0.046236
v -0.003459 0.305996 -0.221496
v -0.005602 0.321496 -0.213132
v -0.010276 0.318280 -0.226752
v 0.002435 0.377251 -0.216176
v 0.007574 0.383326 -0.225240
v -0.001985 0.374035 -0.229211
v 0.011365 0.288609 -0.255346
v 0.005135 0.299823 -0.262482
v 0.018160 0.293524 -0.267234
v 0.028807 0.357781 -0.272667
v 0.030709 0.343397 -0.279453
v 0.018079 0.349696 -0.274743
v 0.027542 0.300362 -0.204469
v 0.038924 0.309215 -0.199626
v 0.026725 0.315515 -0.195266
v 0.049413 0.375047 -0.201942
v 0.042532 0.369364 -0.193794
v 0.054084 0.363064 -0.198022
v 0.042811 0.282975 -0.238206
v 0.051427 0.287542 -0.249177
v 0.055321 0.290758 -0.235164
v 0.072097 0.349503 -0.249135
v 0.076025 0.338726 -0.243257
v 0.072673 0.335510 -0.256775
v -0.067156 0.313945 -0.093138
v -0.066028 0.327827 -0.083395
v -0.076052 0.324318 -0.090305
v -0.073903 0.384641 -0.082367
v -0.077632 0.392696 -0.091180
v -0.083704 0.381146 -0.088997
v -0.076797 0.303446 -0.129152
v -0.086801 0.313131 -0.128222
v -0.081909 0.310904 -0.140926
v -0.091361 0.377053 -0.141439
v -0.092144 0.363950 -0.149460
v -0.097036 0.366243 -0.137176
v -0.038064 0.316246 -0.103228
v -0.029408 0.327968 -0.106414
v -0.035375 0.330214 -0.093982
v -0.035659 0.395731 -0.105200
v -0.033878 0.387551 -0.095774
v -0.027933 0.385232 -0.107725
v -0.047292 0.305820 -0.139389
v -0.050266 0.313415 -0.151762
v -0.039062 0.316904 -0.144582
v -0.048314 0.380244 -0.155773
v -0.039868 0.370527 -0.156300
v -0.050750 0.367057 -0.163264
v 0.036547 0.306493 0.175044
v 0.040468 0.318989 0.182561
v 0.031698 0.322440 0.171310
v 0.056276 0.372906 0.171198
v 0.058631 0.381273 0.159883
v 0.047902 0.376356 0.160446
v 0.034800 0.298750 0.138816
v 0.030051 0.314219 0.133342
v 0.037580 0.306531 0.124754
v 0.056059 0.369896 0.109749
v 0.052862 0.357828 0.104189
v 0.045758 0.365516 0.112497
v 0.066973 0.286139 0.180665
v 0.080150 0.289694 0.180282
v 0.072763 0.297383 0.188655
v 0.101292 0.351370 0.167694
v 0.097751 0.344414 0.178922
v 0.105024 0.336725 0.170877
v 0.063989 0.278395 0.143832
v 0.067710 0.284924 0.129818
v 0.076331 0.281474 0.141283
v 0.095978 0.339993 0.116288
v 0.099245 0.325886 0.121316
v 0.090915 0.329336 0.110302
v 0.028885 0.242395 0.384486
v 0.031203 0.251384 0.395115
v 0.019211 0.256210 0.383690
v 0.039392 0.307083 0.391645
v 0.040183 0.319647 0.380319
v 0.027821 0.311909 0.380642
v 0.026796 0.248895 0.343558
v 0.017404 0.263109 0.340713
v 0.027768 0.261840 0.329828
v 0.036638 0.329195 0.323800
v 0.034877 0.319737 0.316081
v 0.025125 0.321006 0.326446
v 0.070888 0.231258 0.385327
v 0.086229 0.238293 0.385096
v 0.075890 0.239562 0.396144
v 0.098456 0.303285 0.381892
v 0.095928 0.291493 0.393230
v 0.105662 0.290224 0.382664
v 0.067078 0.237758 0.344051
v 0.069546 0.250018 0.330264
v 0.081513 0.245192 0.341526
v 0.091612 0.312833 0.324643
v 0.098621 0.299322 0.327544
v 0.087061 0.304148 0.316740
v -0.070999 0.248023 -0.328915
v -0.067124 0.264631 -0.321294
v -0.082169 0.259328 -0.325485
v -0.075068 0.320687 -0.327520
v -0.081806 0.325921 -0.337057
v -0.089665 0.315433 -0.331531
v -0.091731 0.226888 -0.362020
v -0.104436 0.236956 -0.360360
v -0.100351 0.230750 -0.374168
v -0.111416 0.295666 -0.383200
v -0.114474 0.280444 -0.389128
v -0.118403 0.286480 -0.375809
v -0.034456 0.246399 -0.346118
v -0.023740 0.256789 -0.352950
v -0.028853 0.262939 -0.339405
v -0.030163 0.324021 -0.360962
v -0.025944 0.318791 -0.350463
v -0.020890 0.312825 -0.363463
v -0.054104 0.225319 -0.379264
v -0.060272 0.229155 -0.392345
v -0.044195 0.234514 -0.387892
v -0.057799 0.293888 -0.407173
v -0.047070 0.284025 -0.407830
v -0.062798 0.278701 -0.412160
v 0.069209 0.447526 0.000044
v 0.106637 0.442153 0.000044
v 0.080358 0.426524 -0.144090
v 0.118495 0.418733 -0.145072
v 0.094292 0.368144 -0.280040
v 0.144792 0.357436 -0.282601
v 0.110888 0.282791 -0.393001
v 0.162943 0.269353 -0.397355
v 0.111700 0.184778 -0.447152
v 0.168402 0.169244 -0.452659
v 0.085649 0.088656 -0.430597
v 0.139806 0.072213 -0.436006
v 0.085657 0.088656 0.430712
v 0.139819 0.072213 0.436122
v 0.111710 0.184778 0.447262
v 0.168416 0.169244 0.452770
v 0.110898 0.282791 0.393102
v 0.162958 0.269353 0.397458
v 0.094300 0.368144 0.280134
v 0.144805 0.357436 0.282696
v 0.080362 0.426524 0.144180
v 0.117353 0.418920 0.134624
v 0.076686 0.468123 -0.038159
v 0.094746 0.465547 -0.038234
v 0.101130 0.451517 -0.108200
v 0.082892 0.454706 -0.107910
v 0.091392 0.462309 -0.185889
v 0.110601 0.458547 -0.186510
v 0.127353 0.420518 -0.270254
v 0.105823 0.425099 -0.269176
v 0.117984 0.361727 -0.335136
v 0.141683 0.356506 -0.336472
v 0.152180 0.301213 -0.395630
v 0.126452 0.307250 -0.393827
v 0.126632 0.334689 0.400902
v 0.152372 0.328652 0.402938
v 0.139796 0.383945 0.331101
v 0.116449 0.389166 0.329620
v 0.106619 0.397660 0.268869
v 0.128163 0.393079 0.269833
v 0.112927 0.431108 0.201844
v 0.093229 0.434870 0.201263
v 0.082728 0.482145 0.120292
v 0.100874 0.478956 0.120636
v 0.094503 0.492986 0.033498
v 0.076506 0.495562 0.033421
v 0.072370 0.088656 0.000057
v 0.072215 0.184778 0.001507
v 0.074412 0.282791 0.001709
v 0.068475 0.368144 0.001695
v -0.069086 0.447526 -0.000044
v -0.106514 0.442153 -0.000044
v -0.080234 0.426524 0.144090
v -0.118370 0.418734 0.145072
v -0.094164 0.368144 0.280039
v -0.144664 0.357436 0.282600
v -0.110755 0.282791 0.393001
v -0.162810 0.269353 0.397355
v -0.111562 0.184778 0.447152
v -0.168263 0.169244 0.452659
v -0.085506 0.088657 0.430597
v -0.139662 0.072213 0.436006
v -0.085514 0.088656 -0.430712
v -0.139675 0.072213 -0.436122
v -0.111572 0.184778 -0.447262
v -0.168277 0.169244 -0.452770
v -0.110765 0.282791 -0.393102
v -0.162824 0.269353 -0.397458
v -0.094172 0.368144 -0.280134
v -0.144677 0.357436 -0.282696
v -0.080237 0.426524 -0.144180
v -0.117228 0.418920 -0.134624
v -0.076564 0.468123 0.038159
v -0.094624 0.465547 0.038234
v -0.101007 0.451517 0.108200
v -0.082769 0.454706 0.107910
v -0.091269 0.462309 0.185888
v -0.110478 0.458547 0.186510
v -0.127228 0.420519 0.270253
v -0.105698 0.425099 0.269176
v -0.117856 0.361727 0.335135
v -0.141554 0.356506 0.336472
v -0.152049 0.301213 0.395630
v -0.126321 0.307250 0.393827
v -0.126501 0.334689 -0.400903
v -0.152241 0.328652 -0.402938
v -0.139669 0.383945 -0.331102
v -0.116322 0.389166 -0.329620
v -0.106493 0.397660 -0.268870
v -0.128036 0.393079 -0.269833
v -0.112803 0.431108 -0.201844
v -0.093105 0.434870 -0.201263
v -0.082607 0.482145 -0.120292
v -0.100752 0.478956 -0.120636
v -0.094383 0.492986 -0.033498
v -0.076385 0.495562 -0.033421
v -0.072228 0.088656 -0.000057
v -0.072077 0.184778 -0.001507
v -0.074280 0.282791 -0.001709
v -0.068347 0.368144 -0.001696
v -0.090231 0.077607 0.486168
v -0.080398 0.211795 0.438113
v 0.090237 0.078511 0.485831
v 0.079591 0.221917 0.439879
v -0.124285 0.062749 0.332478
v -0.102683 0.281564 0.283761
v 0.124189 0.062748 0.332479
v 0.102923 0.276182 0.281113
v -0.115042 0.063639 0.437637
v -0.100245 0.143097 0.470334
v 0.097356 0.249213 0.382090
v 0.099040 0.149777 0.472386
v 0.000043 0.066711 0.498665
v 0.006111 0.229313 0.443566
v -0.098887 0.245111 0.379336
v 0.115032 0.063979 0.437524
v -0.006348 0.312138 0.276681
v -0.000049 0.025768 0.341944
v 0.154976 0.181550 0.303477
v -0.155082 0.181202 0.303561
v 0.144675 0.157573 0.408675
v 0.004472 0.145564 0.491686
v 0.000012 0.033605 0.449273
v -0.001133 0.280206 0.372852
v -0.144984 0.154187 0.409778
v 0.090128 0.077561 -0.490837
v 0.080909 0.216672 -0.437307
v -0.090159 0.078511 -0.485831
v -0.079394 0.217774 -0.441671
v 0.124189 0.062749 -0.332478
v 0.102818 0.274776 -0.281450
v -0.124285 0.062748 -0.332479
v -0.102449 0.281417 -0.279863
v 0.115066 0.063639 -0.437637
v 0.100436 0.140345 -0.474708
v -0.098127 0.246399 -0.379368
v -0.098945 0.149777 -0.472386
v 0.003595 0.066798 -0.502153
v -0.000624 0.229106 -0.443606
v 0.098410 0.241911 -0.384400
v -0.115008 0.063979 -0.437524
v -0.004340 0.312055 -0.272948
v -0.000049 0.025768 -0.341944
v -0.155046 0.181550 -0.303477
v 0.155011 0.181202 -0.303561
v -0.144635 0.157573 -0.408675
v -0.000830 0.142779 -0.494650
v 0.000012 0.033604 -0.449273
v 0.003252 0.276303 -0.375070
v 0.145024 0.154187 -0.409778
v -0.102117 0.323531 0.140769
v -0.103465 0.336280 -0.000000
v -0.101909 0.324526 -0.141398
v -0.151169 0.217782 -0.151109
v -0.145652 0.231859 -0.000000
v -0.151169 0.217780 0.151109
v -0.129265 0.068388 -0.169728
v -0.134928 0.070325 -0.000000
v -0.129265 0.068388 0.169728
v -0.000131 0.025138 -0.175320
v -0.000187 0.025138 -0.000000
v -0.000131 0.025138 0.175320
v 0.129024 0.068388 -0.169728
v 0.134583 0.070325 0.000000
v 0.129024 0.068388 0.169728
v 0.150933 0.217780 -0.151109
v 0.145343 0.231859 0.000000
v 0.150933 0.217782 0.151109
v 0.101557 0.319321 -0.139071
v 0.102960 0.342135 0.002493
v 0.101868 0.325706 0.136340
v -0.004558 0.355543 -0.137753
v 0.004640 0.373360 0.002427
v 0.000897 0.358284 0.134740
v 0.076642 0.175151 0.491589
v 0.068782 0.205730 0.475640
v 0.039332 0.208496 0.478155
v 0.041969 0.174161 0.498686
v -0.043888 0.315531 0.310485
v -0.086722 0.302370 0.313962
v -0.085372 0.288085 0.352921
v -0.043694 0.304220 0.348611
v -0.076527 0.175151 -0.491589
v -0.068671 0.205730 -0.475640
v -0.039216 0.208496 -0.478155
v -0.041847 0.174161 -0.498686
v -0.043122 0.337616 -0.246593
v -0.086178 0.324801 -0.249259
v -0.086068 0.350712 -0.174835
v -0.043338 0.363534 -0.172945
v 0.087415 0.377007 0.035031
v 0.045474 0.389887 0.034646
v 0.044401 0.381182 0.101341
v 0.086139 0.368310 0.102462
v 0.075509 0.264044 0.403435
v 0.033878 0.275189 0.400949
v 0.032763 0.257236 0.426506
v 0.069493 0.251010 0.425476
v 0.036890 0.081560 -0.518562
v 0.037649 0.114502 -0.514190
v 0.082063 0.115784 -0.505389
v 0.077142 0.086107 -0.511764
v 0.035153 0.272004 -0.401938
v 0.078158 0.256441 -0.405857
v 0.072280 0.244562 -0.427283
v 0.034165 0.254428 -0.427172
v -0.037106 0.357537 0.169299
v -0.086341 0.342758 0.171429
v -0.086326 0.315104 0.251320
v -0.036803 0.329891 0.248233
vt 0.278642 0.627239
vt 0.278642 0.627239
vt 0.277047 0.589699
vt 0.277047 0.589699
vt 0.340687 0.627239
vt 0.340687 0.627239
vt 0.342281 0.589699
vt 0.342281 0.589699
vt 0.338725 0.567599
vt 0.338725 0.567599
vt 0.326908 0.545686
vt 0.326908 0.545686
vt 0.309664 0.537666
vt 0.309664 0.537666
vt 0.292421 0.545686
vt 0.292421 0.545686
vt 0.309664 0.522459
vt 0.309664 0.522459
vt 0.297258 0.528330
vt 0.297258 0.528330
vt 0.339520 0.654720
vt 0.338742 0.673036
vt 0.339520 0.654720
vt 0.287537 0.623470
vt 0.288113 0.641786
vt 0.287537 0.623470
vt 0.309664 0.522459
vt 0.297258 0.528330
vt 0.297258 0.528330
vt 0.309664 0.522459
vt 0.280604 0.567599
vt 0.280604 0.567599
vt 0.338725 0.567599
vt 0.342281 0.589699
vt 0.342281 0.589699
vt 0.338725 0.567599
vt 0.331792 0.623470
vt 0.331792 0.623470
vt 0.332657 0.595989
vt 0.332657 0.595989
vt 0.278642 0.627239
vt 0.277047 0.589699
vt 0.277047 0.589699
vt 0.278642 0.627239
vt 0.338017 0.638331
vt 0.334703 0.618485
vt 0.338725 0.614474
vt 0.342281 0.636574
vt 0.288608 0.544371
vt 0.288608 0.544371
vt 0.324469 0.599508
vt 0.326908 0.592562
vt 0.309664 0.592562
vt 0.309664 0.584541
vt 0.294860 0.599508
vt 0.292421 0.592562
vt 0.284626 0.618485
vt 0.280604 0.614474
vt 0.281312 0.638331
vt 0.277047 0.636574
vt 0.322071 0.528330
vt 0.322071 0.528330
vt 0.279809 0.654720
vt 0.280587 0.673036
vt 0.279809 0.654720
vt 0.280604 0.567599
vt 0.292421 0.545686
vt 0.292421 0.545687
vt 0.280604 0.567599
vt 0.330721 0.544371
vt 0.322071 0.528330
vt 0.322071 0.528330
vt 0.330721 0.544371
vt 0.309664 0.537666
vt 0.309664 0.537666
vt 0.326908 0.545686
vt 0.326908 0.545687
vt 0.335559 0.704213
vt 0.334869 0.722870
vt 0.338742 0.719911
vt 0.339520 0.701595
vt 0.282698 0.675801
vt 0.283770 0.704213
vt 0.279809 0.701595
vt 0.278642 0.674114
vt 0.335559 0.704213
vt 0.336631 0.675801
vt 0.340687 0.674114
vt 0.339520 0.701595
vt 0.331216 0.641786
vt 0.279809 0.654720
vt 0.279809 0.654720
vt 0.280587 0.673036
vt 0.334869 0.722870
vt 0.331216 0.673036
vt 0.331792 0.654720
vt 0.339520 0.654720
vt 0.339520 0.654720
vt 0.338742 0.673036
vt 0.286672 0.595989
vt 0.286672 0.595989
vt 0.333758 0.561008
vt 0.333758 0.561008
vt 0.340687 0.627239
vt 0.340687 0.627239
vt 0.287537 0.623470
vt 0.287537 0.623470
vt 0.288113 0.641786
vt 0.332657 0.595989
vt 0.332657 0.595989
vt 0.285570 0.561008
vt 0.285570 0.561008
vt 0.286672 0.595989
vt 0.286672 0.595989
vt 0.333758 0.561008
vt 0.333758 0.561008
vt 0.330721 0.544371
vt 0.330721 0.544371
vt 0.331792 0.623470
vt 0.331216 0.641786
vt 0.331792 0.623470
vt 0.288608 0.544371
vt 0.288608 0.544371
vt 0.285570 0.561008
vt 0.285570 0.561008
vt 0.284459 0.722870
vt 0.280587 0.719911
vt 0.324469 0.599508
vt 0.334703 0.618485
vt 0.338725 0.614474
vt 0.326908 0.592561
vt 0.309664 0.592562
vt 0.309664 0.584541
vt 0.294860 0.599508
vt 0.292421 0.592561
vt 0.284626 0.618485
vt 0.280604 0.614474
vt 0.283770 0.704213
vt 0.282698 0.675801
vt 0.278642 0.674114
vt 0.279809 0.701595
vt 0.336631 0.675801
vt 0.340687 0.674114
vt 0.281312 0.638331
vt 0.277047 0.636574
vt 0.338017 0.638331
vt 0.342281 0.636574
vt 0.284459 0.722870
vt 0.280587 0.719911
vt 0.331216 0.673036
vt 0.338742 0.719911
vt 0.288113 0.673036
vt 0.288113 0.673036
vt 0.287537 0.654720
vt 0.285570 0.592258
vt 0.288608 0.575621
vt 0.330721 0.575621
vt 0.333758 0.592258
vt 0.332657 0.627239
vt 0.286672 0.627239
vt 0.331792 0.654720
vt 0.297258 0.559580
vt 0.309664 0.553709
vt 0.322071 0.559580
vt 0.287537 0.654720
vt 0.332657 0.627239
vt 0.333758 0.592258
vt 0.285570 0.592258
vt 0.286672 0.627239
vt 0.288608 0.575621
vt 0.297258 0.559580
vt 0.309664 0.553709
vt 0.322071 0.559580
vt 0.330721 0.575621
vt 0.268031 0.144596
vt 0.267500 0.167564
vt 0.267500 0.167564
vt 0.268031 0.144596
vt 0.316189 0.158326
vt 0.316903 0.183667
vt 0.342333 0.167564
vt 0.341801 0.144596
vt 0.342333 0.167564
vt 0.341801 0.144596
vt 0.293644 0.158326
vt 0.292930 0.183667
vt 0.316189 0.158326
vt 0.292930 0.183667
vt 0.316903 0.183667
vt 0.293644 0.158326
vt 0.268031 0.050846
vt 0.267500 0.073814
vt 0.267500 0.073814
vt 0.268031 0.050846
vt 0.316189 0.064576
vt 0.316903 0.089917
vt 0.342333 0.073814
vt 0.341801 0.050846
vt 0.342333 0.073814
vt 0.341801 0.050846
vt 0.293644 0.064576
vt 0.292930 0.089917
vt 0.316189 0.064576
vt 0.292930 0.089917
vt 0.316903 0.089917
vt 0.293644 0.064576
vt 0.268031 0.050846
vt 0.267500 0.073814
vt 0.267500 0.073814
vt 0.268031 0.050846
vt 0.316189 0.064576
vt 0.316903 0.089917
vt 0.342333 0.073814
vt 0.341801 0.050846
vt 0.342333 0.073814
vt 0.341801 0.050846
vt 0.293644 0.064576
vt 0.292930 0.089917
vt 0.316189 0.064576
vt 0.292930 0.089917
vt 0.316903 0.089917
vt 0.293644 0.064576
vt 0.268031 0.050846
vt 0.267500 0.073814
vt 0.267500 0.073814
vt 0.268031 0.050846
vt 0.316189 0.064576
vt 0.316903 0.089917
vt 0.342333 0.073814
vt 0.341801 0.050846
vt 0.342333 0.073814
vt 0.341801 0.050846
vt 0.293644 0.064576
vt 0.292930 0.089917
vt 0.316189 0.064576
vt 0.292930 0.089917
vt 0.316903 0.089917
vt 0.293644 0.064576
vt 0.268031 0.144596
vt 0.267500 0.167564
vt 0.267500 0.167564
vt 0.268031 0.144596
vt 0.316189 0.158326
vt 0.316903 0.183667
vt 0.342333 0.167564
vt 0.341801 0.144596
vt 0.342333 0.167564
vt 0.341801 0.144596
vt 0.293644 0.158326
vt 0.292930 0.183667
vt 0.316189 0.158326
vt 0.292930 0.183667
vt 0.316903 0.183667
vt 0.293644 0.158326
vt 0.268031 0.144596
vt 0.267500 0.167564
vt 0.267500 0.167564
vt 0.268031 0.144596
vt 0.316189 0.158326
vt 0.316903 0.183667
vt 0.342333 0.167564
vt 0.341801 0.144596
vt 0.342333 0.167564
vt 0.341801 0.144596
vt 0.293644 0.158326
vt 0.292930 0.183667
vt 0.316189 0.158326
vt 0.292930 0.183667
vt 0.316903 0.183667
vt 0.293644 0.158326
vt 0.207372 0.105337
vt 0.208330 0.135613
vt 0.178364 0.135613
vt 0.179323 0.105337
vt 0.214344 0.105337
vt 0.214344 0.135613
vt 0.214344 0.135613
vt 0.214344 0.105337
vt 0.208675 0.220812
vt 0.178019 0.220812
vt 0.178020 0.220812
vt 0.208675 0.220812
vt 0.172351 0.105337
vt 0.172351 0.135613
vt 0.172351 0.135613
vt 0.172351 0.105337
vt 0.179323 0.105337
vt 0.178364 0.135613
vt 0.208330 0.135613
vt 0.207372 0.105337
vt 0.179722 0.098773
vt 0.178906 0.099479
vt 0.172351 0.104636
vt 0.178020 0.141471
vt 0.172351 0.134913
vt 0.172351 0.098773
vt 0.172351 0.104636
vt 0.172351 0.104636
vt 0.177989 0.140765
vt 0.172351 0.134913
vt 0.172351 0.134913
vt 0.214344 0.098773
vt 0.214344 0.099479
vt 0.214344 0.104636
vt 0.214344 0.140765
vt 0.214344 0.134913
vt 0.214344 0.141471
vt 0.206972 0.098773
vt 0.214344 0.104636
vt 0.214344 0.104636
vt 0.208705 0.140765
vt 0.214344 0.134913
vt 0.207951 0.141471
vt 0.172351 0.099479
vt 0.172351 0.099479
vt 0.172351 0.141471
vt 0.172351 0.141471
vt 0.206952 0.099479
vt 0.179743 0.099479
vt 0.178019 0.141471
vt 0.208675 0.141471
vt 0.214344 0.099479
vt 0.214344 0.099479
vt 0.214344 0.141471
vt 0.214344 0.141471
vt 0.179743 0.099479
vt 0.206952 0.099479
vt 0.208675 0.141471
vt 0.179743 0.178820
vt 0.206952 0.178820
vt 0.206952 0.178820
vt 0.179743 0.178820
vt 0.207372 0.105337
vt 0.208330 0.135613
vt 0.178364 0.135613
vt 0.179323 0.105337
vt 0.214344 0.105337
vt 0.214344 0.135613
vt 0.214344 0.135613
vt 0.214344 0.105337
vt 0.208675 0.220812
vt 0.178019 0.220812
vt 0.178020 0.220812
vt 0.208675 0.220812
vt 0.172351 0.105337
vt 0.172351 0.135613
vt 0.172351 0.135613
vt 0.172351 0.105337
vt 0.179323 0.105337
vt 0.178364 0.135613
vt 0.208330 0.135613
vt 0.207372 0.105337
vt 0.179722 0.098773
vt 0.178906 0.099479
vt 0.172351 0.104636
vt 0.178020 0.141471
vt 0.172351 0.134913
vt 0.172351 0.098773
vt 0.172351 0.104636
vt 0.172351 0.104636
vt 0.177989 0.140765
vt 0.172351 0.134913
vt 0.172351 0.134913
vt 0.214344 0.098773
vt 0.214344 0.099479
vt 0.214344 0.104636
vt 0.214344 0.140765
vt 0.214344 0.134913
vt 0.214344 0.141471
vt 0.206972 0.098773
vt 0.214344 0.104636
vt 0.214344 0.104636
vt 0.208705 0.140765
vt 0.214344 0.134913
vt 0.207951 0.141471
vt 0.172351 0.099479
vt 0.172351 0.099479
vt 0.172351 0.141471
vt 0.172351 0.141471
vt 0.206952 0.099479
vt 0.179743 0.099479
vt 0.178019 0.141471
vt 0.208675 0.141471
vt 0.214344 0.099479
vt 0.214344 0.099479
vt 0.214344 0.141471
vt 0.214344 0.141471
vt 0.179743 0.099479
vt 0.206952 0.099479
vt 0.208675 0.141471
vt 0.179743 0.178820
vt 0.206952 0.178820
vt 0.206952 0.178820
vt 0.179743 0.178820
vt 0.207372 0.105337
vt 0.208330 0.135613
vt 0.178364 0.135613
vt 0.179323 0.105337
vt 0.214344 0.105337
vt 0.214344 0.135613
vt 0.214344 0.135613
vt 0.214344 0.105337
vt 0.208675 0.220812
vt 0.178019 0.220812
vt 0.178020 0.220812
vt 0.208675 0.220812
vt 0.172351 0.105337
vt 0.172351 0.135613
vt 0.172351 0.135613
vt 0.172351 0.105337
vt 0.179323 0.105337
vt 0.178364 0.135613
vt 0.208330 0.135613
vt 0.207372 0.105337
vt 0.179722 0.098773
vt 0.178906 0.099479
vt 0.172351 0.104636
vt 0.178020 0.141471
vt 0.172351 0.134913
vt 0.172351 0.098773
vt 0.172351 0.104636
vt 0.172351 0.104636
vt 0.177989 0.140765
vt 0.172351 0.134913
vt 0.172351 0.134913
vt 0.214344 0.098773
vt 0.214344 0.099479
vt 0.214344 0.104636
vt 0.214344 0.140765
vt 0.214344 0.134913
vt 0.214344 0.141471
vt 0.206972 0.098773
vt 0.214344 0.104636
vt 0.214344 0.104636
vt 0.208705 0.140765
vt 0.214344 0.134913
vt 0.207951 0.141471
vt 0.172351 0.099479
vt 0.172351 0.099479
vt 0.172351 0.141471
vt 0.172351 0.141471
vt 0.206952 0.099479
vt 0.179743 0.099479
vt 0.178019 0.141471
vt 0.208675 0.141471
vt 0.214344 0.099479
vt 0.214344 0.099479
vt 0.214344 0.141471
vt 0.214344 0.141471
vt 0.179743 0.099479
vt 0.206952 0.099479
vt 0.208675 0.141471
vt 0.179743 0.178820
vt 0.206952 0.178820
vt 0.206952 0.178820
vt 0.179743 0.178820
vt 0.207372 0.105337
vt 0.208330 0.135613
vt 0.178364 0.135613
vt 0.179323 0.105337
vt 0.214344 0.105337
vt 0.214344 0.135613
vt 0.214344 0.135613
vt 0.214344 0.105337
vt 0.208675 0.220812
vt 0.178019 0.220812
vt 0.178020 0.220812
vt 0.208675 0.220812
vt 0.172351 0.105337
vt 0.172351 0.135613
vt 0.172351 0.135613
vt 0.172351 0.105337
vt 0.179323 0.105337
vt 0.178364 0.135613
vt 0.208330 0.135613
vt 0.207372 0.105337
vt 0.179722 0.098773
vt 0.178906 0.099479
vt 0.172351 0.104636
vt 0.178020 0.141471
vt 0.172351 0.134913
vt 0.172351 0.098773
vt 0.172351 0.104636
vt 0.172351 0.104636
vt 0.177989 0.140765
vt 0.172351 0.134913
vt 0.172351 0.134913
vt 0.214344 0.098773
vt 0.214344 0.099479
vt 0.214344 0.104636
vt 0.214344 0.140765
vt 0.214344 0.134913
vt 0.214344 0.141471
vt 0.206972 0.098773
vt 0.214344 0.104636
vt 0.214344 0.104636
vt 0.208705 0.140765
vt 0.214344 0.134913
vt 0.207951 0.141471
vt 0.172351 0.099479
vt 0.172351 0.099479
vt 0.172351 0.141471
vt 0.172351 0.141471
vt 0.206952 0.099479
vt 0.179743 0.099479
vt 0.178019 0.141471
vt 0.208675 0.141471
vt 0.214344 0.099479
vt 0.214344 0.099479
vt 0.214344 0.141471
vt 0.214344 0.141471
vt 0.179743 0.099479
vt 0.206952 0.099479
vt 0.208675 0.141471
vt 0.179743 0.178820
vt 0.206952 0.178820
vt 0.206952 0.178820
vt 0.179743 0.178820
vt 0.207372 0.105337
vt 0.208330 0.135613
vt 0.178364 0.135613
vt 0.179323 0.105337
vt 0.214344 0.105337
vt 0.214344 0.135613
vt 0.214344 0.135613
vt 0.214344 0.105337
vt 0.208675 0.220812
vt 0.178019 0.220812
vt 0.178020 0.220812
vt 0.208675 0.220812
vt 0.172351 0.105337
vt 0.172351 0.135613
vt 0.172351 0.135613
vt 0.172351 0.105337
vt 0.179323 0.105337
vt 0.178364 0.135613
vt 0.208330 0.135613
vt 0.207372 0.105337
vt 0.179722 0.098773
vt 0.178906 0.099479
vt 0.172351 0.104636
vt 0.178020 0.141471
vt 0.172351 0.134913
vt 0.172351 0.098773
vt 0.172351 0.104636
vt 0.172351 0.104636
vt 0.177989 0.140765
vt 0.172351 0.134913
vt 0.172351 0.134913
vt 0.214344 0.098773
vt 0.214344 0.099479
vt 0.214344 0.104636
vt 0.214344 0.140765
vt 0.214344 0.134913
vt 0.214344 0.141471
vt 0.206972 0.098773
vt 0.214344 0.104636
vt 0.214344 0.104636
vt 0.208705 0.140765
vt 0.214344 0.134913
vt 0.207951 0.141471
vt 0.172351 0.099479
vt 0.172351 0.099479
vt 0.172351 0.141471
vt 0.172351 0.141471
vt 0.206952 0.099479
vt 0.179743 0.099479
vt 0.178019 0.141471
vt 0.208675 0.141471
vt 0.214344 0.099479
vt 0.214344 0.099479
vt 0.214344 0.141471
vt 0.214344 0.141471
vt 0.179743 0.099479
vt 0.206952 0.099479
vt 0.208675 0.141471
vt 0.179743 0.178820
vt 0.206952 0.178820
vt 0.206952 0.178820
vt 0.179743 0.178820
vt 0.207372 0.105337
vt 0.208330 0.135613
vt 0.178364 0.135613
vt 0.179323 0.105337
vt 0.214344 0.105337
vt 0.214344 0.135613
vt 0.214344 0.135613
vt 0.214344 0.105337
vt 0.208675 0.220812
vt 0.178019 0.220812
vt 0.178020 0.220812
vt 0.208675 0.220812
vt 0.172351 0.105337
vt 0.172351 0.135613
vt 0.172351 0.135613
vt 0.172351 0.105337
vt 0.179323 0.105337
vt 0.178364 0.135613
vt 0.208330 0.135613
vt 0.207372 0.105337
vt 0.179722 0.098773
vt 0.178906 0.099479
vt 0.172351 0.104636
vt 0.178020 0.141471
vt 0.172351 0.134913
vt 0.172351 0.098773
vt 0.172351 0.104636
vt 0.172351 0.104636
vt 0.177989 0.140765
vt 0.172351 0.134913
vt 0.172351 0.134913
vt 0.214344 0.098773
vt 0.214344 0.099479
vt 0.214344 0.104636
vt 0.214344 0.140765
vt 0.214344 0.134913
vt 0.214344 0.141471
vt 0.206972 0.098773
vt 0.214344 0.104636
vt 0.214344 0.104636
vt 0.208705 0.140765
vt 0.214344 0.134913
vt 0.207951 0.141471
vt 0.172351 0.099479
vt 0.172351 0.099479
vt 0.172351 0.141471
vt 0.172351 0.141471
vt 0.206952 0.099479
vt 0.179743 0.099479
vt 0.178019 0.141471
vt 0.208675 0.141471
vt 0.214344 0.099479
vt 0.214344 0.099479
vt 0.214344 0.141471
vt 0.214344 0.141471
vt 0.179743 0.099479
vt 0.206952 0.099479
vt 0.208675 0.141471
vt 0.179743 0.178820
vt 0.206952 0.178820
vt 0.206952 0.178820
vt 0.179743 0.178820
vt 0.446488 0.424938
vt 0.450777 0.424266
vt 0.452300 0.420607
vt 0.447987 0.421438
vt 0.449204 0.423421
vt 0.453550 0.422440
vt 0.454948 0.412523
vt 0.450543 0.413717
vt 0.451160 0.397190
vt 0.455621 0.395828
vt 0.455753 0.381408
vt 0.451212 0.382983
vt 0.448305 0.376604
vt 0.457385 0.373099
vt 0.456406 0.346992
vt 0.447134 0.351043
vt 0.451461 0.321687
vt 0.442746 0.325975
vt 0.459719 0.382366
vt 0.460398 0.367140
vt 0.456371 0.367140
vt 0.442746 0.325975
vt 0.451461 0.321687
vt 0.456406 0.346992
vt 0.447134 0.351043
vt 0.457385 0.373100
vt 0.448305 0.376604
vt 0.451212 0.390139
vt 0.455753 0.388564
vt 0.455621 0.402984
vt 0.451160 0.404346
vt 0.450543 0.406561
vt 0.454948 0.405367
vt 0.453550 0.415284
vt 0.449204 0.416265
vt 0.447987 0.428594
vt 0.452300 0.427763
vt 0.450777 0.431422
vt 0.446488 0.432093
vt 0.469193 0.315269
vt 0.469193 0.315269
vt 0.464248 0.289964
vt 0.464248 0.289964
vt 0.455897 0.319320
vt 0.459922 0.319320
vt 0.455533 0.294252
vt 0.455533 0.294252
vt 0.444307 0.419566
vt 0.452935 0.418165
vt 0.465722 0.386442
vt 0.468408 0.380334
vt 0.465087 0.388884
vt 0.463564 0.392543
vt 0.455621 0.412057
vt 0.446932 0.414089
vt 0.457094 0.387843
vt 0.459276 0.393214
vt 0.460774 0.389715
vt 0.470457 0.364348
vt 0.467735 0.380799
vt 0.466337 0.390717
vt 0.457670 0.396071
vt 0.447610 0.398864
vt 0.461992 0.391698
vt 0.463330 0.381994
vt 0.470173 0.341376
vt 0.468540 0.349685
vt 0.468408 0.364105
vt 0.461093 0.344881
vt 0.463947 0.365467
vt 0.464000 0.351260
vt 0.470173 0.341376
vt 0.470457 0.364348
vt 0.468408 0.371261
vt 0.468540 0.356841
vt 0.457670 0.396071
vt 0.447610 0.398864
vt 0.460398 0.367140
vt 0.461093 0.344881
vt 0.464000 0.358416
vt 0.463947 0.372623
vt 0.468279 0.380383
vt 0.466337 0.383561
vt 0.467735 0.373644
vt 0.455492 0.412106
vt 0.446932 0.414089
vt 0.459719 0.382366
vt 0.463330 0.374838
vt 0.461992 0.384542
vt 0.463564 0.399699
vt 0.465087 0.396040
vt 0.460774 0.396871
vt 0.459276 0.400370
vt 0.457066 0.344881
vt 0.459922 0.319320
vt 0.455533 0.294252
vt 0.410716 0.424938
vt 0.406426 0.424266
vt 0.404905 0.420607
vt 0.409217 0.421438
vt 0.408000 0.423421
vt 0.403654 0.422440
vt 0.402256 0.412523
vt 0.406662 0.413717
vt 0.406044 0.397190
vt 0.401582 0.395829
vt 0.401451 0.381408
vt 0.405991 0.382983
vt 0.408899 0.376604
vt 0.399819 0.373100
vt 0.400798 0.346992
vt 0.410069 0.351043
vt 0.405743 0.321687
vt 0.414458 0.325975
vt 0.423059 0.382366
vt 0.422381 0.367140
vt 0.426407 0.367140
vt 0.414458 0.325975
vt 0.405743 0.321687
vt 0.400798 0.346992
vt 0.410069 0.351043
vt 0.399819 0.373099
vt 0.408899 0.376604
vt 0.405991 0.390139
vt 0.401451 0.388564
vt 0.401582 0.402984
vt 0.406044 0.404346
vt 0.406662 0.406561
vt 0.402256 0.405367
vt 0.403654 0.415284
vt 0.408000 0.416265
vt 0.409217 0.428594
vt 0.404905 0.427763
vt 0.406426 0.431422
vt 0.410716 0.432093
vt 0.413586 0.315269
vt 0.413586 0.315269
vt 0.418530 0.289963
vt 0.418530 0.289964
vt 0.426882 0.319320
vt 0.422856 0.319320
vt 0.427245 0.294252
vt 0.427245 0.294252
vt 0.412896 0.419566
vt 0.404270 0.418165
vt 0.417057 0.386442
vt 0.414371 0.380334
vt 0.417692 0.388884
vt 0.419214 0.392543
vt 0.401583 0.412057
vt 0.410272 0.414089
vt 0.425684 0.387843
vt 0.423503 0.393214
vt 0.422004 0.389715
vt 0.412321 0.364348
vt 0.415043 0.380800
vt 0.416441 0.390717
vt 0.399534 0.396071
vt 0.409594 0.398864
vt 0.420787 0.391698
vt 0.419449 0.381994
vt 0.412606 0.341376
vt 0.414239 0.349685
vt 0.414370 0.364105
vt 0.421686 0.344881
vt 0.418832 0.365467
vt 0.418778 0.351260
vt 0.412606 0.341376
vt 0.412321 0.364348
vt 0.414370 0.371261
vt 0.414239 0.356841
vt 0.399534 0.396071
vt 0.409594 0.398864
vt 0.422381 0.367140
vt 0.421686 0.344881
vt 0.418778 0.358416
vt 0.418832 0.372623
vt 0.414499 0.380383
vt 0.416441 0.383561
vt 0.415043 0.373644
vt 0.401712 0.412106
vt 0.410272 0.414089
vt 0.423059 0.382366
vt 0.419449 0.374838
vt 0.420787 0.384542
vt 0.419214 0.399698
vt 0.417692 0.396040
vt 0.422004 0.396871
vt 0.423503 0.400370
vt 0.425713 0.344881
vt 0.422856 0.319320
vt 0.427245 0.294252
vt 0.585236 0.277415
vt 0.592488 0.335412
vt 0.587868 0.330014
vt 0.581848 0.308942
vt 0.583308 0.356717
vt 0.580281 0.350645
vt 0.576261 0.313250
vt 0.578997 0.328258
vt 0.577211 0.312214
vt 0.563382 0.327310
vt 0.562666 0.309557
vt 0.575160 0.333971
vt 0.574060 0.340855
vt 0.569142 0.341478
vt 0.569446 0.333748
vt 0.563687 0.346165
vt 0.548919 0.310971
vt 0.546114 0.326754
vt 0.548114 0.280760
vt 0.540060 0.308665
vt 0.562648 0.300339
vt 0.562660 0.302104
vt 0.543471 0.277616
vt 0.561410 0.364812
vt 0.562454 0.326373
vt 0.554131 0.334326
vt 0.545703 0.362613
vt 0.546622 0.359396
vt 0.554470 0.363029
vt 0.544738 0.349721
vt 0.576099 0.353984
vt 0.568669 0.356493
vt 0.568322 0.352451
vt 0.574741 0.351050
vt 0.537437 0.329251
vt 0.542067 0.357928
vt 0.532810 0.304083
vt 0.540060 0.308665
vt 0.532811 0.335412
vt 0.537456 0.298764
vt 0.543473 0.308942
vt 0.542043 0.357895
vt 0.544870 0.350011
vt 0.549117 0.343567
vt 0.546336 0.328258
vt 0.548119 0.312214
vt 0.562525 0.295433
vt 0.563230 0.278327
vt 0.550177 0.333971
vt 0.551275 0.340855
vt 0.556194 0.341478
vt 0.555892 0.333748
vt 0.562554 0.346118
vt 0.576505 0.343319
vt 0.579172 0.326135
vt 0.568469 0.312900
vt 0.568639 0.320317
vt 0.575795 0.320605
vt 0.574890 0.313924
vt 0.585236 0.308665
vt 0.562648 0.300339
vt 0.562660 0.270854
vt 0.581851 0.308866
vt 0.577137 0.312000
vt 0.561804 0.333543
vt 0.563242 0.356744
vt 0.583270 0.356400
vt 0.580388 0.349001
vt 0.568886 0.324526
vt 0.576513 0.352272
vt 0.575185 0.349598
vt 0.568558 0.351819
vt 0.587886 0.329251
vt 0.592491 0.335333
vt 0.538973 0.367377
vt 0.528259 0.343568
vt 0.536392 0.309935
vt 0.562629 0.300197
vt 0.588868 0.309935
vt 0.597006 0.343569
vt 0.586375 0.367866
vt 0.562850 0.375201
vt 0.554523 0.375033
vt 0.543346 0.340455
vt 0.544751 0.365479
vt 0.555127 0.368809
vt 0.553762 0.370548
vt 0.544724 0.367663
vt 0.543419 0.373496
vt 0.553116 0.345133
vt 0.561667 0.374584
vt 0.539047 0.336351
vt 0.537383 0.338997
vt 0.563670 0.378595
vt 0.586277 0.366429
vt 0.587802 0.340315
vt 0.583761 0.379416
vt 0.573177 0.382316
vt 0.572863 0.380356
vt 0.583139 0.377458
vt 0.597006 0.343568
vt 0.599261 0.346738
vt 0.588868 0.278685
vt 0.590711 0.279121
vt 0.562629 0.268947
vt 0.562619 0.300197
vt 0.536392 0.309935
vt 0.534529 0.310371
vt 0.528260 0.343569
vt 0.525986 0.346738
vn -0.9814 0.1486 -0.1215
vn -0.9879 0.1440 -0.0575
vn -0.9971 -0.0415 -0.0644
vn -0.9858 -0.1093 -0.1274
vn 0.9814 0.1487 0.1215
vn 0.9879 0.1440 0.0575
vn 0.9971 -0.0414 0.0644
vn 0.9858 -0.1092 0.1274
vn 0.8407 -0.5330 0.0954
vn 0.8764 -0.4789 0.0508
vn 0.4947 -0.8688 0.0199
vn 0.4628 -0.8857 0.0375
vn 0.0000 -1.0000 0.0043
vn 0.0000 -1.0000 0.0084
vn -0.4947 -0.8688 0.0199
vn -0.4628 -0.8857 0.0375
vn -0.0000 1.0000 0.0062
vn -0.0000 1.0000 0.0032
vn 0.5002 0.8658 0.0145
vn 0.4652 0.8848 0.0269
vn 0.9825 0.1560 0.1016
vn 0.9917 0.1244 0.0334
vn 0.9898 0.1345 0.0464
vn 0.9903 -0.1165 -0.0759
vn 0.9954 -0.0925 -0.0249
vn 0.9944 -0.1002 -0.0346
vn -0.0000 1.0000 -0.0062
vn 0.4652 0.8848 -0.0269
vn 0.5002 0.8658 -0.0145
vn -0.0000 1.0000 -0.0032
vn -0.8764 -0.4789 0.0508
vn -0.8407 -0.5330 0.0954
vn 0.8764 -0.4789 -0.0508
vn 0.9971 -0.0414 -0.0644
vn 0.9858 -0.1092 -0.1274
vn 0.8407 -0.5330 -0.0954
vn -0.9944 -0.1002 -0.0346
vn -0.9903 -0.1166 -0.0759
vn -0.9896 -0.1114 -0.0906
vn -0.9933 -0.1074 -0.0429
vn -0.9814 0.1486 0.1215
vn -0.9858 -0.1093 0.1274
vn -0.9971 -0.0415 0.0644
vn -0.9879 0.1440 0.0575
vn 0.0634 0.4414 0.8951
vn 0.0654 0.2927 0.9540
vn 0.2794 0.1740 0.9443
vn 0.3177 0.4066 0.8566
vn 0.8657 0.4992 0.0364
vn 0.8313 0.5516 0.0684
vn 0.0339 0.2521 0.9671
vn 0.1787 0.0223 0.9837
vn -0.0000 0.2512 0.9679
vn 0.0000 -0.0581 0.9983
vn -0.0339 0.2521 0.9671
vn -0.1787 0.0223 0.9837
vn -0.0654 0.2927 0.9540
vn -0.2794 0.1740 0.9443
vn -0.0634 0.4414 0.8951
vn -0.3177 0.4066 0.8566
vn -0.4652 0.8848 -0.0269
vn -0.5003 0.8658 -0.0145
vn -0.9825 0.1560 -0.1016
vn -0.9917 0.1243 -0.0334
vn -0.9898 0.1345 -0.0464
vn -0.8764 -0.4789 -0.0508
vn -0.4947 -0.8688 -0.0199
vn -0.4628 -0.8857 -0.0375
vn -0.8407 -0.5330 -0.0954
vn -0.8657 0.4992 0.0364
vn -0.5003 0.8658 0.0145
vn -0.4652 0.8848 0.0269
vn -0.8313 0.5516 0.0684
vn 0.0000 -1.0000 -0.0084
vn 0.0000 -1.0000 -0.0043
vn 0.4947 -0.8688 -0.0199
vn 0.4628 -0.8857 -0.0375
vn -0.0089 0.8789 -0.4769
vn 0.4307 0.8929 -0.1313
vn 0.4281 0.8912 -0.1501
vn 0.3670 0.8306 -0.4188
vn -0.0171 0.6853 0.7280
vn 0.0089 0.8789 0.4769
vn -0.3670 0.8306 0.4188
vn -0.3294 0.6721 0.6632
vn -0.0089 0.8789 0.4769
vn 0.0171 0.6853 0.7280
vn 0.3294 0.6721 0.6632
vn 0.3670 0.8306 0.4188
vn -0.9954 -0.0925 -0.0249
vn -0.9825 0.1560 0.1016
vn -0.9898 0.1345 0.0464
vn -0.9917 0.1243 0.0334
vn -0.4636 0.8673 0.1813
vn -0.4630 0.8669 0.1846
vn -0.3805 0.7841 0.4902
vn 0.9825 0.1560 -0.1016
vn 0.9898 0.1345 -0.0464
vn 0.9917 0.1244 -0.0334
vn 0.9896 -0.1113 -0.0906
vn 0.9933 -0.1073 -0.0429
vn -0.9834 0.1557 0.0932
vn -0.9953 0.0848 0.0473
vn 0.9879 0.1440 -0.0575
vn 0.9814 0.1487 -0.1215
vn 0.9903 -0.1165 0.0759
vn 0.9944 -0.1002 0.0346
vn 0.9954 -0.0925 0.0249
vn -0.9896 -0.1114 0.0906
vn -0.9933 -0.1074 0.0429
vn 0.9834 0.1557 0.0932
vn 0.9953 0.0848 0.0473
vn 0.9933 -0.1073 0.0429
vn 0.9896 -0.1113 0.0906
vn -0.9834 0.1557 -0.0932
vn -0.9953 0.0848 -0.0473
vn -0.8313 0.5516 -0.0684
vn -0.8657 0.4992 -0.0364
vn -0.9903 -0.1166 0.0759
vn -0.9954 -0.0925 0.0249
vn -0.9944 -0.1002 0.0346
vn 0.8313 0.5516 -0.0684
vn 0.8657 0.4992 -0.0364
vn 0.9834 0.1557 -0.0932
vn 0.9953 0.0848 -0.0473
vn -0.4307 0.8929 0.1313
vn -0.4281 0.8912 0.1501
vn 0.0339 0.2521 -0.9671
vn 0.0654 0.2927 -0.9540
vn 0.2794 0.1740 -0.9443
vn 0.1787 0.0223 -0.9837
vn -0.0000 0.2512 -0.9679
vn 0.0000 -0.0581 -0.9983
vn -0.0339 0.2521 -0.9671
vn -0.1787 0.0223 -0.9837
vn -0.0654 0.2927 -0.9540
vn -0.2794 0.1740 -0.9443
vn 0.0089 0.8789 -0.4769
vn -0.0171 0.6853 -0.7280
vn -0.3294 0.6721 -0.6632
vn -0.3670 0.8306 -0.4188
vn 0.0171 0.6853 -0.7280
vn 0.3294 0.6721 -0.6632
vn -0.0634 0.4414 -0.8951
vn -0.3177 0.4066 -0.8566
vn 0.0634 0.4414 -0.8951
vn 0.3177 0.4066 -0.8566
vn -0.4307 0.8929 -0.1313
vn -0.4281 0.8912 -0.1501
vn -0.4636 0.8673 -0.1813
vn -0.4630 0.8669 -0.1846
vn 0.4307 0.8929 0.1313
vn 0.4281 0.8912 0.1501
vn 0.4630 0.8669 -0.1846
vn 0.4636 0.8673 -0.1813
vn 0.4636 0.8673 0.1813
vn 0.4630 0.8669 0.1846
vn 0.3805 0.7841 -0.4902
vn 0.2693 0.4432 -0.8550
vn 0.2337 0.4572 -0.8581
vn -0.2337 0.4572 -0.8581
vn -0.2694 0.4432 -0.8550
vn -0.3037 0.6219 -0.7218
vn 0.3037 0.6219 -0.7218
vn -0.3805 0.7841 -0.4902
vn 0.1294 0.5723 -0.8098
vn 0.0000 0.6157 -0.7880
vn -0.1294 0.5723 -0.8098
vn 0.3805 0.7841 0.4902
vn -0.3037 0.6219 0.7218
vn -0.2694 0.4432 0.8550
vn 0.2693 0.4432 0.8550
vn 0.3037 0.6219 0.7218
vn 0.2337 0.4572 0.8581
vn 0.1294 0.5723 0.8098
vn 0.0000 0.6157 0.7880
vn -0.1294 0.5723 0.8098
vn -0.2337 0.4572 0.8581
vn -0.9322 -0.1500 -0.3295
vn 0.4246 0.0790 -0.9019
vn 0.4310 0.0684 -0.8998
vn 0.9258 0.1224 0.3577
vn -0.4608 -0.0561 0.8857
vn -0.4524 -0.0508 0.8903
vn -0.4846 -0.0711 0.8718
vn 0.1424 -0.9887 -0.0478
vn 0.0006 -0.9948 -0.1021
vn 0.1313 -0.9900 -0.0522
vn -0.4300 0.9005 -0.0646
vn -0.5640 0.8170 -0.1200
vn -0.4164 0.9073 -0.0592
vn 0.0459 0.9915 0.1218
vn -0.1208 0.9910 0.0580
vn -0.1088 0.9921 0.0627
vn 0.5273 -0.8438 0.1003
vn 0.4082 -0.9113 0.0542
vn 0.3937 -0.9180 0.0487
vn -0.3914 -0.0362 0.9195
vn -0.4107 -0.0364 0.9111
vn -0.4106 -0.0364 0.9111
vn 0.4328 0.0870 -0.8973
vn 0.4242 0.0884 -0.9013
vn 0.4265 0.0880 -0.9002
vn -0.8978 0.0330 0.4392
vn -0.5151 -0.1911 -0.8356
vn -0.5143 -0.1915 -0.8359
vn -0.5015 -0.1989 -0.8420
vn 0.8739 0.0122 -0.4860
vn 0.4953 0.2289 0.8380
vn 0.4996 0.2312 0.8349
vn 0.4846 0.2229 0.8459
vn 0.0812 -0.9881 0.1303
vn -0.0367 -0.9807 0.1921
vn 0.0894 -0.9880 0.1259
vn -0.3210 0.9471 -0.0042
vn -0.4399 0.8958 0.0633
vn -0.3338 0.9426 0.0029
vn 0.0809 0.9724 -0.2188
vn -0.0605 0.9874 -0.1460
vn -0.0706 0.9876 -0.1405
vn 0.4007 -0.9152 -0.0431
vn 0.2983 -0.9544 0.0131
vn 0.3090 -0.9510 0.0074
vn 0.5327 0.2252 0.8158
vn 0.5215 0.2309 0.8214
vn 0.5208 0.2312 0.8218
vn -0.5283 -0.1958 -0.8262
vn -0.5279 -0.1886 -0.8281
vn -0.5280 -0.1906 -0.8276
vn -0.8599 -0.0109 0.5103
vn -0.4312 -0.2268 -0.8733
vn -0.4356 -0.2254 -0.8715
vn -0.4102 -0.2333 -0.8817
vn 0.9111 0.0264 -0.4112
vn 0.4537 0.2691 0.8495
vn 0.4538 0.2692 0.8495
vn 0.4529 0.2676 0.8504
vn 0.0578 -0.8755 0.4798
vn -0.0439 -0.8555 0.5160
vn 0.0649 -0.8765 0.4770
vn -0.2952 0.8837 -0.3632
vn -0.4163 0.8647 -0.2811
vn -0.2913 0.8840 -0.3657
vn 0.0777 0.8433 -0.5318
vn -0.0407 0.8703 -0.4909
vn -0.0487 0.8716 -0.4878
vn 0.3822 -0.8729 0.3032
vn 0.2741 -0.8863 0.3731
vn 0.2745 -0.8863 0.3729
vn 0.4541 0.2557 0.8535
vn 0.4544 0.2640 0.8508
vn 0.4543 0.2626 0.8513
vn -0.4954 -0.2480 -0.8325
vn -0.4754 -0.2334 -0.8483
vn -0.4757 -0.2336 -0.8480
vn -0.9265 0.0952 -0.3641
vn 0.4749 -0.1514 -0.8669
vn 0.4697 -0.1473 -0.8705
vn 0.4939 -0.1663 -0.8534
vn 0.9311 -0.1160 0.3459
vn -0.4377 0.1755 0.8818
vn -0.4375 0.1761 0.8818
vn -0.4401 0.1659 0.8825
vn -0.3959 -0.9052 0.1547
vn -0.5304 -0.8429 0.0910
vn -0.4107 -0.8997 0.1481
vn 0.1083 0.9546 -0.2774
vn -0.0441 0.9431 -0.3296
vn 0.1246 0.9544 -0.2713
vn 0.5679 0.8196 -0.0750
vn 0.4189 0.8957 -0.1491
vn 0.4328 0.8901 -0.1427
vn -0.0006 -0.9510 0.3091
vn -0.1307 -0.9559 0.2630
vn -0.1448 -0.9553 0.2577
vn -0.4393 0.1863 0.8788
vn -0.4369 0.1859 0.8801
vn -0.4374 0.1860 0.8798
vn 0.3997 -0.1376 -0.9063
vn 0.4266 -0.1353 -0.8942
vn 0.4251 -0.1354 -0.8950
vn -0.8098 0.1177 0.5748
vn -0.6090 0.1593 -0.7770
vn -0.6088 0.1594 -0.7772
vn -0.6140 0.1566 -0.7736
vn 0.7748 -0.0902 -0.6258
vn 0.5804 -0.1161 0.8060
vn 0.5865 -0.1144 0.8018
vn 0.5561 -0.1227 0.8220
vn -0.3266 -0.9236 -0.2008
vn -0.4255 -0.8975 -0.1162
vn -0.3223 -0.9243 -0.2043
vn 0.1122 0.9269 0.3581
vn -0.0107 0.9031 0.4292
vn 0.1028 0.9258 0.3638
vn 0.4553 0.8860 0.0879
vn 0.3435 0.9199 0.1891
vn 0.3417 0.9203 0.1907
vn -0.0210 -0.9136 -0.4060
vn -0.1256 -0.9304 -0.3444
vn -0.1182 -0.9296 -0.3490
vn 0.6493 -0.1423 0.7471
vn 0.6293 -0.1249 0.7671
vn 0.6296 -0.1252 0.7668
vn -0.5932 0.1523 -0.7905
vn -0.5992 0.1578 -0.7849
vn -0.5980 0.1567 -0.7860
vn -0.9121 0.0811 0.4018
vn -0.4063 0.2097 -0.8893
vn -0.4103 0.2117 -0.8871
vn -0.3966 0.2050 -0.8948
vn 0.9405 -0.0698 -0.3325
vn 0.4250 -0.1687 0.8893
vn 0.4239 -0.1692 0.8898
vn 0.4098 -0.1751 0.8952
vn -0.3607 -0.9321 0.0320
vn -0.4529 -0.8891 0.0659
vn -0.3467 -0.9376 0.0269
vn 0.1162 0.9910 0.0672
vn -0.0411 0.9906 0.1306
vn 0.1047 0.9919 0.0720
vn 0.4877 0.8693 -0.0810
vn 0.3837 0.9226 -0.0401
vn 0.3679 0.9292 -0.0341
vn -0.0041 -0.9940 -0.1093
vn -0.1346 -0.9893 -0.0563
vn -0.1253 -0.9903 -0.0601
vn 0.4426 -0.1823 0.8780
vn 0.4404 -0.1707 0.8814
vn 0.4410 -0.1741 0.8805
vn -0.4427 0.2053 -0.8728
vn -0.4315 0.2105 -0.8772
vn -0.4306 0.2110 -0.8775
vn 0.7741 -0.1110 0.6233
vn 0.5744 0.4719 0.6689
vn -0.0539 0.2827 0.9577
vn 0.2089 -0.3000 0.9308
vn 0.7721 -0.1860 -0.6076
vn 0.5978 0.3969 -0.6965
vn 0.8562 0.5135 -0.0569
vn 0.9968 -0.0736 -0.0324
vn -0.4731 0.8810 -0.0062
vn -0.8191 0.5346 -0.2081
vn -0.5292 0.6977 0.4829
vn -0.8878 -0.3081 0.3418
vn -0.7577 0.0273 0.6521
vn -0.9953 -0.0958 0.0125
vn -0.7503 -0.6598 0.0415
vn -0.4755 -0.6155 -0.6285
vn -0.7576 -0.0543 -0.6505
vn -0.5575 0.1380 -0.8187
vn 0.1204 -0.4257 -0.8968
vn 0.1932 -0.8682 0.4570
vn -0.2743 -0.6141 0.7401
vn -0.3034 -0.9292 -0.2111
vn 0.7660 -0.6179 0.1774
vn 0.4632 0.8531 0.2401
vn 0.5162 -0.7489 -0.4156
vn 0.3832 0.7092 -0.5917
vn 0.3503 0.1215 -0.9287
vn -0.6164 0.4002 -0.6782
vn 0.4515 -0.8923 0.0063
vn -0.1838 -0.2270 0.9564
vn -0.4658 0.1139 0.8775
vn -0.6273 0.5459 0.5554
vn -0.7565 -0.1076 0.6451
vn 0.7359 -0.6150 0.2832
vn 0.9921 -0.0325 0.1212
vn 0.7234 0.1355 0.6770
vn 0.4608 -0.4338 0.7743
vn 0.7470 0.5840 -0.3177
vn 0.0852 0.7143 -0.6946
vn 0.3459 0.8833 -0.3164
vn -0.9911 -0.1306 -0.0239
vn -0.8554 0.4746 -0.2075
vn -0.5580 0.2979 -0.7746
vn -0.7608 -0.3056 -0.5726
vn 0.4066 -0.3142 -0.8579
vn 0.1257 0.0773 -0.9891
vn 0.7856 -0.0650 -0.6153
vn -0.6854 -0.6410 0.3454
vn -0.4578 0.8886 0.0293
vn -0.4585 -0.8718 -0.1724
vn -0.3015 -0.6465 -0.7008
vn -0.1251 -0.7509 0.6484
vn 0.7496 0.4551 0.4806
vn 0.4061 0.1417 0.9028
vn 0.1170 -0.9820 0.1484
vn 0.5358 -0.8218 -0.1939
vn -0.1130 0.8554 0.5055
vn 0.6205 -0.2427 0.7457
vn 0.3197 0.0242 0.9472
vn -0.0563 -0.2846 0.9570
vn 0.8123 -0.3782 -0.4439
vn 0.7681 0.2142 -0.6035
vn 0.9513 0.3077 0.0154
vn 0.9520 -0.2746 0.1354
vn 0.1803 0.7578 -0.6271
vn -0.6091 0.6938 -0.3842
vn -0.1547 0.9547 -0.2543
vn -0.7050 -0.3662 0.6073
vn -0.8341 0.1888 0.5183
vn -0.9928 0.1019 -0.0624
vn -0.8854 -0.4594 0.0710
vn -0.2987 -0.2050 -0.9321
vn -0.6692 0.0845 -0.7382
vn 0.0853 0.1266 -0.9883
vn -0.1392 -0.8007 0.5826
vn -0.5929 0.1541 0.7904
vn -0.7981 0.4908 0.3495
vn -0.5049 -0.8565 -0.1068
vn -0.6300 -0.6703 -0.3921
vn 0.5422 -0.7503 0.3782
vn 0.7931 0.6059 -0.0626
vn 0.8912 0.2222 0.3954
vn 0.4318 -0.8180 -0.3801
vn 0.3557 -0.6220 -0.6976
vn 0.1556 0.7607 0.6301
vn 0.1585 -0.9586 0.2365
vn 0.1183 -0.2491 0.9612
vn 0.4836 0.2945 0.8242
vn -0.1690 0.5877 0.7912
vn -0.4835 0.0406 0.8744
vn 0.5630 -0.8029 -0.1958
vn 0.8943 -0.2626 -0.3623
vn 0.9501 -0.0824 0.3009
vn 0.8867 -0.4623 0.0034
vn 0.7501 0.3998 -0.5268
vn 0.5970 0.7717 -0.2193
vn 0.7789 0.6002 0.1818
vn -0.9353 0.0971 0.3403
vn -0.7094 0.6658 0.2309
vn -0.7486 0.4938 -0.4424
vn -0.9643 -0.0667 -0.2563
vn -0.5508 -0.4120 -0.7259
vn -0.1034 -0.3485 -0.9316
vn 0.0446 -0.7100 -0.7028
vn -0.7427 -0.4702 0.4768
vn -0.1566 0.9360 0.3152
vn -0.7624 -0.6323 -0.1377
vn -0.4463 0.7601 -0.4722
vn -0.6766 0.1478 -0.7214
vn 0.0002 -0.7684 0.6399
vn 0.4265 -0.6645 0.6137
vn -0.1983 -0.9758 -0.0925
vn 0.6222 -0.0957 -0.7770
vn 0.3732 0.3088 -0.8748
vn -0.5766 -0.7909 0.2050
vn -0.0091 0.0616 0.9981
vn 0.4334 0.2193 0.8741
vn -0.2360 0.3927 0.8889
vn -0.4044 -0.2756 0.8721
vn 0.6491 -0.6238 -0.4354
vn 0.9001 0.0051 -0.4357
vn 0.9242 -0.3441 -0.1659
vn 0.7395 -0.6334 0.2280
vn 0.2724 0.9527 0.1350
vn -0.1150 0.8900 0.4413
vn 0.5783 0.7248 0.3744
vn -0.9142 -0.1875 0.3592
vn -0.7656 0.4810 0.4273
vn -0.9858 0.1525 0.0708
vn -0.9259 -0.2272 -0.3018
vn -0.4278 -0.3872 -0.8167
vn -0.4985 0.0713 -0.8640
vn 0.3589 0.0895 -0.9291
vn 0.1541 -0.5263 -0.8362
vn -0.5337 -0.8015 0.2697
vn -0.5236 -0.7732 -0.3576
vn -0.5530 0.5862 -0.5921
vn -0.7077 0.1591 -0.6884
vn 0.0603 -0.9722 0.2265
vn 0.3251 -0.6581 0.6792
vn 0.8561 0.2302 0.4626
vn 0.0480 -0.9152 -0.4000
vn 0.6487 0.4970 -0.5764
vn -0.5322 0.8294 0.1697
vn 0.1903 0.6017 -0.7757
vn 0.6844 -0.1552 0.7124
vn 0.6724 0.5275 0.5192
vn 0.0337 0.5463 0.8369
vn 0.1249 -0.1303 0.9836
vn 0.6846 -0.5414 -0.4880
vn 0.5886 0.0903 -0.8033
vn 0.8886 -0.1269 -0.4408
vn 0.0327 0.6144 -0.7883
vn -0.6036 0.6600 -0.4474
vn -0.1782 0.8705 -0.4587
vn 0.3494 0.9111 -0.2189
vn -0.5014 -0.2530 0.8274
vn -0.6826 0.3717 0.6292
vn -0.9844 0.1580 0.0775
vn -0.8090 -0.4687 0.3547
vn -0.3928 -0.3621 -0.8453
vn -0.7500 -0.0292 -0.6607
vn -0.0862 -0.0415 -0.9954
vn 0.0073 -0.7105 -0.7037
vn 0.0049 -0.6653 0.7466
vn -0.3472 0.8400 0.4168
vn -0.2433 -0.9251 0.2916
vn -0.6313 -0.7707 -0.0863
vn 0.5291 -0.7054 0.4717
vn 0.8609 -0.4012 0.3130
vn 0.8852 0.4396 -0.1524
vn 0.2981 -0.9545 -0.0082
vn 0.1460 0.9707 0.1909
vn 0.1462 0.9716 0.1862
vn 0.1476 0.8814 -0.4488
vn 0.1496 0.9060 -0.3959
vn 0.1706 0.9099 -0.3780
vn 0.1873 0.9388 -0.2890
vn 0.1736 0.9001 -0.3995
vn 0.1254 0.7360 -0.6653
vn -0.0110 0.2657 -0.9640
vn 0.0075 0.3340 -0.9425
vn -0.0550 0.1525 -0.9868
vn -0.0370 0.2126 -0.9764
vn -0.1345 -0.1308 -0.9822
vn -0.9915 0.0523 -0.1189
vn -0.9852 0.0490 -0.1645
vn -0.9994 -0.0347 0.0009
vn -0.1345 -0.1308 0.9823
vn -0.0550 0.1526 0.9868
vn -0.0370 0.2127 0.9764
vn -0.0113 0.2700 0.9628
vn -0.0378 0.1716 0.9844
vn 0.1405 0.7963 0.5884
vn 0.1042 0.6697 0.7353
vn 0.0810 0.5758 0.8135
vn 0.1725 0.9701 0.1705
vn 0.1731 0.9804 0.0941
vn 0.1543 0.9776 0.1430
vn 0.9902 -0.1393 -0.0000
vn 0.9592 -0.2827 -0.0000
vn -0.9968 0.0804 0.0005
vn -0.9936 0.0866 -0.0727
vn -0.9899 0.1287 -0.0594
vn -0.9917 0.1285 -0.0005
vn 0.1243 0.8632 0.4893
vn 0.9183 0.3958 -0.0068
vn 0.9271 0.3742 0.0188
vn 0.8870 0.4618 -0.0052
vn 0.1368 0.7740 -0.6182
vn -0.9986 0.0535 0.0050
vn -0.9745 0.1954 -0.1105
vn 0.1651 0.7270 0.6665
vn 0.9690 0.2469 0.0030
vn 0.9636 0.2576 0.0719
vn -0.0094 0.1894 -0.9819
vn -0.9655 0.1687 -0.1985
vn 0.2085 0.9777 -0.0265
vn 0.9901 0.1387 -0.0197
vn 0.9536 0.2898 -0.0818
vn -0.0734 0.0222 -0.9971
vn -0.9717 0.1260 -0.1997
vn -0.8071 0.3946 -0.4393
vn -0.1094 -0.1129 0.9876
vn 0.9931 0.1168 -0.0044
vn 0.9681 0.2506 -0.0034
vn 0.9819 0.1889 -0.0166
vn 0.2114 0.8642 -0.4566
vn -0.9822 0.0690 0.1745
vn -0.9846 0.0753 0.1577
vn -0.9211 0.2339 0.3114
vn 0.0282 0.3488 0.9368
vn 0.9302 0.3669 -0.0067
vn 0.9165 0.4001 0.0032
vn 0.1675 0.9708 -0.1717
vn -0.9927 0.0459 0.1115
vn -0.9191 0.2946 0.2617
vn 0.2177 0.3276 0.9194
vn 0.9664 0.2550 -0.0316
vn 0.0816 0.5609 -0.8239
vn -0.9926 0.0845 0.0873
vn -0.9998 -0.0194 0.0005
vn -0.9936 0.0861 0.0731
vn -0.9900 0.1278 0.0596
vn -0.1460 0.9707 -0.1909
vn -0.1462 0.9716 -0.1862
vn -0.1476 0.8814 0.4488
vn -0.1496 0.9060 0.3959
vn -0.1706 0.9099 0.3780
vn -0.1873 0.9388 0.2890
vn -0.1736 0.9001 0.3995
vn -0.1254 0.7360 0.6653
vn 0.0110 0.2657 0.9640
vn -0.0075 0.3340 0.9425
vn 0.0550 0.1525 0.9868
vn 0.0370 0.2126 0.9764
vn 0.1345 -0.1308 0.9822
vn 0.9915 0.0524 0.1189
vn 0.9852 0.0491 0.1645
vn 0.9994 -0.0346 -0.0009
vn 0.1345 -0.1308 -0.9823
vn 0.0550 0.1526 -0.9868
vn 0.0370 0.2127 -0.9764
vn 0.0113 0.2700 -0.9628
vn 0.0378 0.1716 -0.9844
vn -0.1405 0.7963 -0.5884
vn -0.1042 0.6697 -0.7353
vn -0.0810 0.5758 -0.8135
vn -0.1725 0.9701 -0.1705
vn -0.1731 0.9804 -0.0941
vn -0.1543 0.9776 -0.1430
vn -0.9902 -0.1394 0.0000
vn -0.9592 -0.2827 0.0000
vn 0.9968 0.0805 -0.0005
vn 0.9936 0.0867 0.0727
vn 0.9899 0.1287 0.0594
vn 0.9917 0.1285 0.0005
vn -0.1243 0.8632 -0.4893
vn -0.9183 0.3958 0.0068
vn -0.9272 0.3742 -0.0188
vn -0.8870 0.4617 0.0052
vn -0.1368 0.7740 0.6182
vn 0.9986 0.0536 -0.0050
vn 0.9745 0.1955 0.1105
vn -0.1651 0.7270 -0.6665
vn -0.9691 0.2468 -0.0030
vn -0.9636 0.2575 -0.0719
vn 0.0094 0.1894 0.9819
vn 0.9655 0.1688 0.1985
vn -0.2085 0.9777 0.0265
vn -0.9901 0.1387 0.0197
vn -0.9536 0.2897 0.0818
vn 0.0734 0.0222 0.9971
vn 0.9717 0.1260 0.1997
vn 0.8071 0.3946 0.4392
vn 0.1094 -0.1129 -0.9876
vn -0.9931 0.1168 0.0044
vn -0.9681 0.2506 0.0034
vn -0.9819 0.1888 0.0166
vn -0.2114 0.8642 0.4566
vn 0.9822 0.0691 -0.1745
vn 0.9846 0.0754 -0.1577
vn 0.9210 0.2339 -0.3114
vn -0.0282 0.3488 -0.9368
vn -0.9303 0.3669 0.0067
vn -0.9165 0.4000 -0.0032
vn -0.1675 0.9708 0.1717
vn 0.9927 0.0460 -0.1115
vn 0.9191 0.2947 -0.2617
vn -0.2177 0.3276 -0.9194
vn -0.9664 0.2549 0.0316
vn -0.0816 0.5609 0.8239
vn 0.9926 0.0846 -0.0873
vn 0.9998 -0.0193 -0.0005
vn 0.9936 0.0862 -0.0731
vn 0.9900 0.1278 -0.0596
vn 0.9722 -0.2326 0.0259
vn 0.9860 0.1407 0.0899
vn 0.9368 0.1378 0.3216
vn 0.9270 -0.1494 0.3439
vn 0.6281 0.7427 0.2321
vn 0.6632 0.6975 0.2714
vn 0.7447 0.4624 0.4813
vn 0.8248 0.2282 0.5173
vn 0.8434 -0.0597 0.5339
vn 0.1601 0.1192 0.9799
vn 0.1817 -0.1177 0.9763
vn -0.1054 0.2143 0.9711
vn -0.0083 0.1359 0.9907
vn 0.1418 0.5023 0.8530
vn 0.1336 0.7309 0.6693
vn -0.1272 0.6784 0.7236
vn -0.2287 0.4896 0.8414
vn -0.1841 0.6714 0.7179
vn -0.4009 0.6073 0.6859
vn -0.5521 0.2509 0.7952
vn -0.1629 0.1479 0.9755
vn -0.2888 -0.9572 0.0182
vn 0.0004 -0.9997 0.0233
vn 0.0019 -0.9604 0.2785
vn -0.2607 -0.9405 0.2178
vn 0.2894 -0.9570 0.0186
vn 0.2641 -0.9388 0.2211
vn 0.2314 -0.8501 0.4731
vn 0.0034 -0.8754 0.4833
vn -0.2253 -0.8545 0.4680
vn 0.2101 0.9046 0.3708
vn 0.3059 0.9344 0.1826
vn -0.0684 0.9976 0.0061
vn -0.3160 0.9435 -0.0995
vn -0.2078 0.7288 0.6525
vn -0.0125 0.8543 0.5196
vn -0.2443 0.7217 0.6476
vn -0.6214 0.6188 0.4806
vn 0.5334 0.6567 0.5331
vn -0.1652 0.8004 0.5763
vn -0.0732 0.7024 0.7080
vn 0.4010 0.6135 0.6803
vn -0.8407 -0.0647 0.5377
vn -0.9307 0.1392 0.3383
vn -0.9256 -0.1552 0.3453
vn -0.8743 0.4597 0.1555
vn -0.9860 0.1371 0.0947
vn -0.9713 -0.2368 0.0227
vn -0.9723 -0.2322 -0.0270
vn -0.9857 0.1394 -0.0943
vn -0.9348 0.1422 -0.3255
vn -0.9268 -0.1489 -0.3448
vn -0.6721 0.6668 -0.3221
vn -0.5620 0.7301 -0.3887
vn -0.4908 0.7148 -0.4981
vn -0.8257 0.2354 -0.5127
vn -0.8431 -0.0593 -0.5345
vn -0.1842 0.1222 -0.9753
vn -0.2063 -0.1030 -0.9730
vn -0.2679 0.0013 -0.9634
vn -0.3076 0.1043 -0.9458
vn -0.1418 0.5023 -0.8530
vn -0.1456 0.7501 -0.6451
vn 0.0894 0.7004 -0.7082
vn 0.1981 0.4943 -0.8464
vn 0.2484 0.5389 -0.8049
vn 0.0037 0.7015 -0.7126
vn 0.4741 0.4878 -0.7330
vn 0.6342 0.3229 -0.7025
vn -0.1856 0.1180 -0.9755
vn -0.0628 0.3691 -0.9273
vn 0.1597 0.5214 -0.8382
vn 0.1690 0.1518 -0.9739
vn 0.2888 -0.9572 -0.0179
vn -0.0004 -0.9997 -0.0233
vn -0.0071 -0.9634 -0.2681
vn 0.2597 -0.9437 -0.2049
vn -0.2894 -0.9570 -0.0189
vn -0.2652 -0.9390 -0.2189
vn -0.2347 -0.8521 -0.4678
vn 0.0357 -0.8864 -0.4615
vn 0.2082 -0.8737 -0.4397
vn 0.1259 0.9068 -0.4024
vn -0.0381 0.9350 -0.3526
vn 0.6237 0.7456 -0.2349
vn 0.6753 0.6828 -0.2788
vn -0.1220 0.8244 -0.5527
vn 0.5808 0.6222 -0.5250
vn 0.4384 0.5657 -0.6984
vn -0.0166 0.6974 -0.7165
vn 0.8583 -0.0478 -0.5110
vn 0.9361 0.1401 -0.3225
vn 0.9315 -0.1636 -0.3249
vn 0.9845 0.1482 -0.0935
vn 0.9712 -0.2372 -0.0216
vn -0.8917 0.4451 0.0822
vn -0.9861 0.1631 0.0329
vn -0.9877 -0.1553 -0.0148
vn -0.3100 -0.9507 -0.0047
vn -0.0000 -1.0000 -0.0055
vn 0.3099 -0.9507 -0.0050
vn 0.9877 -0.1553 -0.0154
vn 0.9858 0.1637 0.0374
vn 0.9110 0.4077 0.0614
vn 0.2599 0.8372 0.4812
vn 0.2590 0.8584 0.4428
vn -0.0954 0.9938 0.0568
vn -0.5408 0.8407 0.0282
vn -0.5210 0.7503 0.4070
vn -0.0358 0.8918 0.4511
vn 0.0346 0.8583 -0.5119
vn -0.1895 0.7580 -0.6241
vn -0.2557 0.9124 -0.3195
vn 0.1526 0.9360 -0.3174
vn 0.0915 0.9897 -0.1105
vn -0.3108 0.9368 0.1606
vn -0.3164 0.9486 0.0001
vn -0.1118 0.9864 -0.1206
vn -0.3220 0.9420 -0.0947
vn -0.3504 0.9366 -0.0047
vn 0.6459 0.7464 -0.1601
vn 0.2882 0.8865 -0.3619
vn 0.2896 0.9485 0.1281
vn -0.1312 0.9843 0.1179
vn -0.0081 0.9280 0.3725
vn 0.2498 0.8284 0.5014
vn 0.9845 0.1709 -0.0385
vn 0.9212 0.3889 0.0114
vn 0.9863 0.1648 -0.0030
vn 0.9877 -0.1556 0.0156
vn 0.9945 -0.1048 0.0000
vn 0.3099 -0.9507 0.0050
vn -0.0000 -1.0000 0.0055
vn 0.3177 -0.9482 -0.0000
vn -0.0001 -1.0000 0.0000
vn -0.3100 -0.9507 0.0047
vn -0.3178 -0.9482 0.0000
vn -0.9878 -0.1551 0.0146
vn -0.9860 0.1634 -0.0338
vn -0.9945 -0.1046 -0.0000
vn -0.9858 0.1677 0.0002
vn -0.9046 0.4192 -0.0774
vn -0.9171 0.3987 0.0004
vn 0.8085 0.4128 0.4194
vn 0.1104 0.7212 0.6838
vn 0.1946 -0.4719 0.8599
vn -0.3006 0.8542 -0.4243
vn -0.8960 0.4031 0.1863
vn -0.8145 0.4173 -0.4031
vn -0.2195 -0.4304 -0.8755
vn -0.9022 0.4111 -0.1305
vn -0.2765 0.8202 0.5009
vn 0.2277 0.7174 -0.6584
vn 0.9254 0.3746 0.0576
vn 0.2980 0.9180 -0.2616
vn 0.8566 -0.0156 -0.5157
vn 0.1704 -0.8749 -0.4534
vn 0.3501 0.8957 0.2741
vn -0.1815 0.7310 0.6578
usemtl KayKit_Texture_A
s 1
f 8/1/1 74/2/2 56/3/3 18/4/4
f 32/5/5 66/6/6 59/7/7 34/8/8
f 23/9/9 69/10/10 81/11/11 24/12/12
f 24/12/12 81/11/11 89/13/13 25/14/14
f 25/14/14 89/13/13 92/15/15 26/16/16
f 4/17/17 48/18/18 95/19/19 5/20/20
f 29/21/21 54/22/22 63/23/23
f 40/24/24 88/25/25 61/26/26
f 37/27/27 38/28/28 96/29/29 47/30/30
f 26/16/16 92/15/15 45/31/31 27/32/32
f 70/33/33 60/34/34 13/35/35 12/36/36
f 80/37/37 41/38/38 43/39/39 77/40/40
f 31/41/41 33/42/42 55/43/43 73/44/44
f 32/5/5 29/21/21 63/23/23 66/6/6
f 97/45/45 98/46/46 12/47/47 13/48/48
f 5/20/20 95/19/19 94/49/49 6/50/50
f 98/46/46 99/51/51 14/52/52 12/47/47
f 99/51/51 100/53/53 15/54/54 14/52/52
f 100/53/53 101/55/55 16/56/56 15/54/54
f 27/32/32 45/31/31 55/43/43 33/42/42
f 101/55/55 102/57/57 17/58/58 16/56/56
f 102/57/57 103/59/59 18/60/60 17/58/58
f 36/61/61 37/27/27 47/30/30 49/62/62
f 20/63/63 86/64/64 75/65/65
f 46/66/66 91/67/67 16/68/68 17/69/69
f 58/70/70 50/71/71 3/72/72 2/73/73
f 15/74/74 90/75/75 82/76/76 14/77/77
f 114/78/78 121/79/79 54/80/80 29/81/81
f 104/82/82 105/83/83 20/84/84 8/85/85
f 106/86/86 107/87/87 9/88/88 21/89/89
f 41/38/38 80/37/37 51/90/90
f 28/91/91 31/41/41 73/44/44 76/92/92
f 28/91/91 76/92/92 85/93/93
f 34/8/8 59/7/7 69/10/10 23/9/9
f 103/59/59 104/82/82 8/85/85 18/60/60
f 107/87/87 97/45/45 13/48/48 9/88/88
f 106/86/86 122/94/94 52/95/95 11/96/96
f 21/97/97 64/98/98 53/99/99
f 42/100/100 40/24/24 61/26/26 71/101/101
f 1/102/102 68/103/103 58/70/70 2/73/73
f 60/34/34 65/104/104 9/105/105 13/35/35
f 10/106/106 62/107/107 87/108/108
f 9/105/105 65/104/104 64/98/98 21/97/97
f 22/109/109 78/110/110 68/103/103 1/102/102
f 14/77/77 82/76/76 70/33/33 12/36/36
f 7/111/111 84/112/112 72/113/113 19/114/114
f 20/63/63 75/65/65 74/2/2 8/1/1
f 43/39/39 44/115/115 67/116/116 77/40/40
f 44/115/115 35/117/117 57/118/118 67/116/116
f 36/61/61 49/62/62 57/118/118 35/117/117
f 11/119/119 52/120/120 79/121/121
f 3/72/72 50/71/71 48/18/18 4/17/17
f 96/29/29 38/28/28 39/122/122 93/123/123
f 39/122/122 30/124/124 83/125/125 93/123/123
f 42/100/100 71/101/101 83/125/125 30/124/124
f 6/50/50 94/49/49 84/112/112 7/111/111
f 19/114/114 72/113/113 62/107/107 10/106/106
f 105/83/83 120/126/126 86/127/127 20/84/84
f 11/119/119 79/121/121 78/110/110 22/109/109
f 16/68/68 91/67/67 90/75/75 15/74/74
f 108/128/128 109/129/129 23/130/130 24/131/131
f 110/132/132 108/128/128 24/131/131 25/133/133
f 111/134/134 110/132/132 25/133/133 26/135/135
f 112/136/136 111/134/134 26/135/135 27/137/137
f 113/138/138 115/139/139 31/140/140 28/141/141
f 116/142/142 114/78/78 29/81/81 32/143/143
f 115/139/139 117/144/144 33/145/145 31/140/140
f 118/146/146 116/142/142 32/143/143 34/147/147
f 109/129/129 118/146/146 34/147/147 23/130/130
f 117/144/144 112/136/136 27/137/137 33/145/145
f 119/148/148 113/138/138 28/141/141 85/149/149
f 96/29/29 93/123/123 94/49/49 95/19/19
f 92/15/15 89/13/13 90/75/75 91/67/67
f 119/148/148 85/149/149 86/127/127 120/126/126
f 93/123/123 83/125/125 84/112/112 94/49/49
f 89/13/13 81/11/11 82/76/76 90/75/75
f 80/37/37 77/40/40 78/110/110 79/121/121
f 76/92/92 73/44/44 74/2/2 75/65/65
f 83/125/125 71/101/101 72/113/113 84/112/112
f 81/11/11 69/10/10 70/33/33 82/76/76
f 77/40/40 67/116/116 68/103/103 78/110/110
f 66/6/6 63/23/23 64/98/98 65/104/104
f 71/101/101 61/26/26 62/107/107 72/113/113
f 69/10/10 59/7/7 60/34/34 70/33/33
f 67/116/116 57/118/118 58/70/70 68/103/103
f 73/44/44 55/43/43 56/3/3 74/2/2
f 121/79/150 51/150/151 52/95/95 122/94/94
f 61/26/26 88/25/25 87/108/108 62/107/107
f 63/23/23 54/22/22 53/99/99 64/98/98
f 57/118/118 49/62/62 50/71/71 58/70/70
f 59/7/7 66/6/6 65/104/104 60/34/34
f 51/90/90 80/37/37 79/121/121 52/120/120
f 49/62/62 47/30/30 48/18/18 50/71/71
f 55/43/43 45/31/31 46/66/66 56/3/3
f 85/93/93 76/92/92 75/65/65 86/64/64
f 47/30/30 96/29/29 95/19/19 48/18/18
f 45/31/31 92/15/15 91/67/67 46/66/66
f 56/3/3 46/66/66 17/69/69 18/4/4
f 54/80/80 121/79/79 122/94/152 53/151/153
f 88/152/154 119/148/155 120/126/156 87/153/157
f 88/152/154 40/154/158 113/138/138 119/148/155
f 30/155/159 39/156/160 112/136/136 117/144/144
f 35/157/161 44/158/162 118/146/146 109/129/129
f 44/158/162 43/159/163 116/142/142 118/146/146
f 42/160/164 30/155/159 117/144/144 115/139/139
f 43/159/163 41/161/165 114/78/78 116/142/142
f 40/154/158 42/160/164 115/139/139 113/138/138
f 39/156/160 38/162/166 111/134/134 112/136/136
f 38/162/166 37/163/167 110/132/132 111/134/134
f 37/163/167 36/164/168 108/128/128 110/132/132
f 36/164/168 35/157/161 109/129/129 108/128/128
f 10/165/169 87/153/157 120/126/156 105/83/83
f 21/89/89 53/151/153 122/94/152 106/86/86
f 22/166/170 1/167/171 97/45/45 107/87/87
f 7/168/172 19/169/173 104/82/82 103/59/59
f 11/96/96 22/166/170 107/87/87 106/86/86
f 19/169/173 10/165/169 105/83/83 104/82/82
f 41/161/165 51/150/151 121/79/150 114/78/78
f 6/170/174 7/168/172 103/59/59 102/57/57
f 5/171/175 6/170/174 102/57/57 101/55/55
f 4/172/176 5/171/175 101/55/55 100/53/53
f 3/173/177 4/172/176 100/53/53 99/51/51
f 2/174/178 3/173/177 99/51/51 98/46/46
f 1/167/171 2/174/178 98/46/46 97/45/45
f 123/175/179 124/176/179 126/177/179 125/178/179
f 131/179/180 134/180/180 130/181/181 129/182/181
f 129/182/182 130/181/182 128/183/182 127/184/182
f 135/185/183 138/186/184 124/176/185 123/175/185
f 131/179/186 129/182/187 127/184/187 136/187/188
f 133/188/189 126/177/190 124/176/190 138/186/191
f 130/181/192 134/180/193 137/189/194 128/183/192
f 134/180/193 133/188/189 138/186/191 137/189/194
f 125/178/195 132/190/196 135/185/197 123/175/195
f 132/190/196 131/179/186 136/187/188 135/185/197
f 127/184/198 128/183/198 137/189/199 136/187/200
f 136/187/200 137/189/199 138/186/184 135/185/183
f 125/178/201 126/177/201 133/188/202 132/190/203
f 132/190/203 133/188/202 134/180/180 131/179/180
f 139/191/204 140/192/204 142/193/204 141/194/204
f 147/195/205 150/196/206 146/197/207 145/198/207
f 145/198/208 146/197/208 144/199/208 143/200/208
f 151/201/209 154/202/210 140/192/211 139/191/211
f 147/195/212 145/198/213 143/200/213 152/203/214
f 149/204/215 142/193/216 140/192/216 154/202/217
f 146/197/218 150/196/219 153/205/220 144/199/218
f 150/196/219 149/204/215 154/202/217 153/205/220
f 141/194/221 148/206/222 151/201/223 139/191/221
f 148/206/222 147/195/212 152/203/214 151/201/223
f 143/200/224 144/199/224 153/205/225 152/203/226
f 152/203/226 153/205/225 154/202/210 151/201/209
f 141/194/227 142/193/227 149/204/228 148/206/229
f 148/206/229 149/204/228 150/196/206 147/195/205
f 155/207/230 156/208/230 158/209/230 157/210/230
f 163/211/231 166/212/232 162/213/233 161/214/233
f 161/214/234 162/213/234 160/215/234 159/216/234
f 167/217/235 170/218/236 156/208/237 155/207/237
f 163/211/238 161/214/239 159/216/239 168/219/240
f 165/220/241 158/209/242 156/208/242 170/218/243
f 162/213/244 166/212/245 169/221/246 160/215/244
f 166/212/245 165/220/241 170/218/243 169/221/246
f 157/210/247 164/222/248 167/217/249 155/207/247
f 164/222/248 163/211/238 168/219/240 167/217/249
f 159/216/250 160/215/250 169/221/251 168/219/252
f 168/219/252 169/221/251 170/218/236 167/217/235
f 157/210/253 158/209/253 165/220/254 164/222/255
f 164/222/255 165/220/254 166/212/232 163/211/231
f 171/223/256 172/224/256 174/225/256 173/226/256
f 179/227/257 182/228/258 178/229/259 177/230/259
f 177/230/260 178/229/260 176/231/260 175/232/260
f 183/233/261 186/234/262 172/224/263 171/223/263
f 179/227/264 177/230/265 175/232/265 184/235/266
f 181/236/267 174/225/268 172/224/268 186/234/269
f 178/229/270 182/228/271 185/237/272 176/231/270
f 182/228/271 181/236/267 186/234/269 185/237/272
f 173/226/273 180/238/274 183/233/275 171/223/273
f 180/238/274 179/227/264 184/235/266 183/233/275
f 175/232/276 176/231/276 185/237/277 184/235/278
f 184/235/278 185/237/277 186/234/262 183/233/261
f 173/226/279 174/225/279 181/236/280 180/238/281
f 180/238/281 181/236/280 182/228/258 179/227/257
f 187/239/282 188/240/282 190/241/282 189/242/282
f 195/243/283 198/244/284 194/245/285 193/246/285
f 193/246/286 194/245/286 192/247/286 191/248/286
f 199/249/287 202/250/288 188/240/289 187/239/289
f 195/243/290 193/246/291 191/248/291 200/251/292
f 197/252/293 190/241/294 188/240/294 202/250/295
f 194/245/296 198/244/297 201/253/298 192/247/296
f 198/244/297 197/252/293 202/250/295 201/253/298
f 189/242/299 196/254/300 199/249/301 187/239/299
f 196/254/300 195/243/290 200/251/292 199/249/301
f 191/248/302 192/247/302 201/253/303 200/251/304
f 200/251/304 201/253/303 202/250/288 199/249/287
f 189/242/305 190/241/305 197/252/306 196/254/307
f 196/254/307 197/252/306 198/244/284 195/243/283
f 203/255/308 204/256/308 206/257/308 205/258/308
f 211/259/309 214/260/310 210/261/311 209/262/311
f 209/262/312 210/261/312 208/263/312 207/264/312
f 215/265/313 218/266/314 204/256/315 203/255/315
f 211/259/316 209/262/317 207/264/317 216/267/318
f 213/268/319 206/257/320 204/256/320 218/266/321
f 210/261/322 214/260/323 217/269/324 208/263/322
f 214/260/323 213/268/319 218/266/321 217/269/324
f 205/258/325 212/270/326 215/265/327 203/255/325
f 212/270/326 211/259/316 216/267/318 215/265/327
f 207/264/328 208/263/328 217/269/329 216/267/330
f 216/267/330 217/269/329 218/266/314 215/265/313
f 205/258/331 206/257/331 213/268/332 212/270/333
f 212/270/333 213/268/332 214/260/310 211/259/309
f 233/271/334 235/272/335 222/273/336 220/274/337
f 239/275/338 241/276/339 236/277/340 232/278/341
f 240/279/342 228/280/343 223/281/344 234/282/342
f 221/283/345 224/284/346 230/285/347 226/286/348
f 227/287/349 229/288/350 242/289/351 238/290/352
f 219/291/353 220/292/337 221/293/354
f 222/273/336 223/294/344 224/295/346
f 225/296/355 226/297/348 227/298/349
f 228/299/343 229/300/350 230/301/347
f 231/302/356 232/303/341 233/304/334
f 234/305/357 235/306/335 236/307/340
f 237/308/358 238/309/352 239/310/338
f 240/311/359 241/312/339 242/313/360
f 225/314/355 219/315/353 221/283/354 226/286/348
f 220/274/337 222/273/336 224/284/346 221/283/354
f 223/316/344 228/317/343 230/285/347 224/284/346
f 229/288/350 227/287/349 226/286/348 230/285/347
f 237/318/358 225/319/355 227/287/349 238/290/352
f 228/320/343 240/321/361 242/289/351 229/288/350
f 241/276/339 239/275/338 238/290/352 242/289/360
f 231/322/356 237/323/358 239/275/338 232/278/341
f 240/324/359 234/325/357 236/277/340 241/276/339
f 235/272/335 233/271/334 232/278/341 236/277/340
f 219/326/353 231/327/356 233/271/334 220/274/337
f 234/328/357 223/294/344 222/273/336 235/272/335
f 225/329/362 237/330/358 231/331/356 219/332/353
f 257/333/363 259/334/364 246/335/365 244/336/366
f 263/337/367 265/338/368 260/339/369 256/340/370
f 264/341/371 252/342/372 247/343/373 258/344/373
f 245/345/374 248/346/375 254/347/376 250/348/377
f 251/349/378 253/350/379 266/351/380 262/352/378
f 243/353/381 244/354/366 245/355/374
f 246/335/365 247/356/382 248/357/375
f 249/358/383 250/359/377 251/360/384
f 252/361/372 253/362/379 254/363/376
f 255/364/385 256/365/370 257/366/363
f 258/367/386 259/368/387 260/369/369
f 261/370/388 262/371/389 263/372/367
f 264/373/371 265/374/368 266/375/380
f 249/376/383 243/377/381 245/345/374 250/348/377
f 244/336/366 246/335/365 248/346/375 245/345/374
f 247/378/382 252/379/372 254/347/376 248/346/375
f 253/350/379 251/349/384 250/348/377 254/347/376
f 261/380/388 249/381/383 251/349/384 262/352/389
f 252/382/372 264/383/371 266/351/380 253/350/379
f 265/338/368 263/337/367 262/352/389 266/351/380
f 255/384/385 261/385/388 263/337/367 256/340/370
f 264/386/371 258/387/386 260/339/369 265/338/368
f 259/334/387 257/333/363 256/340/370 260/339/369
f 243/388/381 255/389/385 257/333/363 244/336/366
f 258/390/390 247/356/382 246/335/365 259/334/390
f 249/391/383 261/392/388 255/393/385 243/394/381
f 281/395/391 283/396/392 270/397/392 268/398/393
f 287/399/394 289/400/395 284/401/396 280/402/397
f 288/403/398 276/404/399 271/405/400 282/406/400
f 269/407/401 272/408/402 278/409/403 274/410/404
f 275/411/405 277/412/406 290/413/407 286/414/405
f 267/415/408 268/416/393 269/417/401
f 270/397/409 271/418/410 272/419/402
f 273/420/411 274/421/404 275/422/412
f 276/423/399 277/424/406 278/425/403
f 279/426/413 280/427/397 281/428/391
f 282/429/414 283/430/415 284/431/396
f 285/432/416 286/433/417 287/434/394
f 288/435/398 289/436/395 290/437/407
f 273/438/411 267/439/408 269/407/401 274/410/404
f 268/398/393 270/397/409 272/408/402 269/407/401
f 271/440/410 276/441/399 278/409/403 272/408/402
f 277/412/406 275/411/412 274/410/404 278/409/403
f 285/442/416 273/443/411 275/411/412 286/414/417
f 276/444/399 288/445/398 290/413/407 277/412/406
f 289/400/395 287/399/394 286/414/417 290/413/407
f 279/446/413 285/447/416 287/399/394 280/402/397
f 288/448/398 282/449/414 284/401/396 289/400/395
f 283/396/415 281/395/391 280/402/397 284/401/396
f 267/450/408 279/451/413 281/395/391 268/398/393
f 282/452/418 271/418/418 270/397/418 283/396/418
f 273/453/419 285/454/419 279/455/413 267/456/408
f 305/457/420 307/458/421 294/459/422 292/460/423
f 311/461/424 313/462/425 308/463/426 304/464/427
f 312/465/428 300/466/429 295/467/429 306/468/430
f 293/469/431 296/470/432 302/471/433 298/472/434
f 299/473/435 301/474/436 314/475/436 310/476/437
f 291/477/438 292/478/423 293/479/431
f 294/459/422 295/480/439 296/481/432
f 297/482/440 298/483/434 299/484/435
f 300/485/441 301/486/442 302/487/433
f 303/488/443 304/489/444 305/490/420
f 306/491/430 307/492/421 308/493/426
f 309/494/445 310/495/437 311/496/424
f 312/497/428 313/498/425 314/499/446
f 297/500/440 291/501/438 293/469/431 298/472/434
f 292/460/423 294/459/422 296/470/432 293/469/431
f 295/502/439 300/503/441 302/471/433 296/470/432
f 301/474/442 299/473/435 298/472/434 302/471/433
f 309/504/445 297/505/440 299/473/435 310/476/437
f 300/506/447 312/507/428 314/475/446 301/474/447
f 313/462/425 311/461/424 310/476/437 314/475/446
f 303/508/443 309/509/445 311/461/424 304/464/444
f 312/510/428 306/511/430 308/463/426 313/462/425
f 307/458/421 305/457/420 304/464/444 308/463/426
f 291/512/438 303/513/443 305/457/420 292/460/423
f 306/514/430 295/480/439 294/459/422 307/458/421
f 297/515/440 309/516/445 303/517/448 291/518/438
f 329/519/449 331/520/450 318/521/451 316/522/452
f 335/523/453 337/524/454 332/525/455 328/526/456
f 336/527/457 324/528/457 319/529/458 330/530/459
f 317/531/460 320/532/461 326/533/462 322/534/463
f 323/535/464 325/536/465 338/537/466 334/538/467
f 315/539/468 316/540/452 317/541/460
f 318/521/451 319/542/458 320/543/461
f 321/544/469 322/545/463 323/546/464
f 324/547/470 325/548/465 326/549/471
f 327/550/472 328/551/456 329/552/473
f 330/553/459 331/554/450 332/555/474
f 333/556/475 334/557/467 335/558/453
f 336/559/476 337/560/454 338/561/466
f 321/562/469 315/563/468 317/531/460 322/534/463
f 316/522/452 318/521/451 320/532/461 317/531/460
f 319/564/458 324/565/477 326/533/477 320/532/461
f 325/536/465 323/535/464 322/534/463 326/533/471
f 333/566/475 321/567/469 323/535/464 334/538/467
f 324/568/478 336/569/476 338/537/466 325/536/478
f 337/524/454 335/523/453 334/538/467 338/537/466
f 327/570/472 333/571/475 335/523/453 328/526/456
f 336/572/476 330/573/459 332/525/474 337/524/454
f 331/520/450 329/519/473 328/526/456 332/525/474
f 315/574/468 327/575/472 329/519/473 316/522/452
f 330/576/459 319/542/458 318/521/451 331/520/450
f 321/577/469 333/578/475 327/579/472 315/580/468
f 353/581/479 355/582/480 342/583/481 340/584/482
f 359/585/483 361/586/484 356/587/485 352/588/485
f 360/589/486 348/590/487 343/591/488 354/592/489
f 341/593/490 344/594/491 350/595/492 346/596/493
f 347/597/494 349/598/495 362/599/496 358/600/497
f 339/601/498 340/602/482 341/603/490
f 342/583/481 343/604/499 344/605/491
f 345/606/500 346/607/493 347/608/501
f 348/609/487 349/610/495 350/611/492
f 351/612/502 352/613/503 353/614/479
f 354/615/489 355/616/480 356/617/504
f 357/618/505 358/619/497 359/620/483
f 360/621/486 361/622/484 362/623/496
f 345/624/500 339/625/498 341/593/490 346/596/493
f 340/584/482 342/583/481 344/594/491 341/593/490
f 343/626/499 348/627/487 350/595/492 344/594/491
f 349/598/495 347/597/501 346/596/493 350/595/492
f 357/628/505 345/629/500 347/597/501 358/600/497
f 348/630/487 360/631/486 362/599/496 349/598/495
f 361/586/484 359/585/483 358/600/497 362/599/496
f 351/632/502 357/633/505 359/585/483 352/588/503
f 360/634/486 354/635/489 356/587/504 361/586/484
f 355/582/480 353/581/479 352/588/503 356/587/504
f 339/636/498 351/637/502 353/581/479 340/584/482
f 354/638/489 343/604/499 342/583/481 355/582/480
f 345/639/500 357/640/505 351/641/502 339/642/498
f 385/643/506 386/644/507 387/645/508 388/646/509
f 389/647/510 390/648/510 391/649/510 392/650/510
f 393/651/511 394/652/512 395/653/513 396/654/513
f 369/655/514 370/656/515 372/657/516 371/658/517
f 371/658/517 372/657/516 374/659/518 373/660/518
f 365/661/519 367/662/520 412/663/521
f 375/664/522 376/665/522 378/666/523 377/667/524
f 377/667/524 378/666/523 380/668/525 379/669/526
f 397/670/527 398/671/527 399/672/527 400/673/527
f 401/674/528 402/675/529 403/676/530 404/677/531
f 405/678/532 406/679/532 407/680/532 408/681/532
f 372/682/533 378/683/533 376/684/534 374/685/534
f 410/686/535 371/687/536 373/688/537 409/689/538
f 363/690/539 364/691/539 386/644/507 385/643/506
f 364/692/540 366/693/541 387/694/542 386/695/542
f 366/696/543 365/697/543 388/646/509 387/645/508
f 365/661/519 363/698/544 385/699/545 388/700/545
f 365/697/546 366/696/546 390/648/546 389/647/546
f 366/693/541 368/701/547 391/702/548 390/703/548
f 368/704/549 367/705/549 392/650/549 391/649/549
f 367/662/520 365/661/519 389/706/550 392/707/550
f 367/705/551 368/704/551 394/652/512 393/651/511
f 368/701/547 370/708/552 395/709/553 394/710/553
f 370/656/515 369/655/514 396/654/554 395/653/554
f 369/711/555 367/662/520 393/712/556 396/713/556
f 379/669/526 380/668/525 398/671/557 397/670/557
f 380/714/558 382/715/559 399/716/560 398/717/560
f 382/718/561 381/719/561 400/673/561 399/672/561
f 381/720/562 379/721/563 397/722/564 400/723/564
f 381/719/565 382/718/565 402/675/529 401/674/528
f 382/715/559 384/724/566 403/725/567 402/726/567
f 384/727/568 383/728/568 404/677/531 403/676/530
f 383/729/569 381/720/562 401/730/570 404/731/570
f 383/728/571 384/727/571 406/679/571 405/678/571
f 384/724/566 364/692/540 407/732/572 406/733/572
f 364/691/573 363/690/573 408/681/573 407/680/573
f 363/698/544 383/729/569 405/734/574 408/735/574
f 368/701/547 382/715/559 380/714/558 370/708/552
f 370/708/552 380/714/558 378/683/533 372/682/533
f 412/663/521 367/662/520 369/711/555 411/736/575
f 411/736/575 369/711/555 371/687/536 410/686/535
f 412/663/521 381/720/562 383/729/569
f 366/693/541 364/692/540 384/724/566
f 368/701/547 366/693/541 384/724/566 382/715/559
f 381/720/562 412/663/521 411/736/575 379/721/563
f 379/721/563 411/736/575 410/686/535 377/737/576
f 377/737/576 410/686/535 409/689/538 375/738/577
f 365/661/519 412/663/521 363/698/544
f 412/663/521 383/729/569 363/698/544
f 435/739/578 436/740/579 437/741/580 438/742/581
f 439/743/582 440/744/582 441/745/582 442/746/582
f 443/747/583 444/748/584 445/749/585 446/750/585
f 419/751/586 420/752/587 422/753/588 421/754/589
f 421/754/589 422/753/588 424/755/590 423/756/590
f 415/757/591 417/758/592 462/759/593
f 425/760/594 426/761/594 428/762/595 427/763/596
f 427/763/596 428/762/595 430/764/597 429/765/598
f 447/766/599 448/767/599 449/768/599 450/769/599
f 451/770/600 452/771/601 453/772/602 454/773/603
f 455/774/604 456/775/604 457/776/604 458/777/604
f 422/778/605 428/779/605 426/780/606 424/781/606
f 460/782/607 421/783/608 423/784/609 459/785/610
f 413/786/611 414/787/611 436/740/579 435/739/578
f 414/788/612 416/789/613 437/790/614 436/791/614
f 416/792/615 415/793/615 438/742/581 437/741/580
f 415/757/591 413/794/616 435/795/617 438/796/617
f 415/793/618 416/792/618 440/744/618 439/743/618
f 416/789/613 418/797/619 441/798/620 440/799/620
f 418/800/621 417/801/621 442/746/621 441/745/621
f 417/758/592 415/757/591 439/802/622 442/803/622
f 417/801/623 418/800/623 444/748/584 443/747/583
f 418/797/619 420/804/624 445/805/625 444/806/625
f 420/752/587 419/751/586 446/750/626 445/749/626
f 419/807/627 417/758/592 443/808/628 446/809/628
f 429/765/598 430/764/597 448/767/629 447/766/629
f 430/810/630 432/811/631 449/812/632 448/813/632
f 432/814/633 431/815/633 450/769/633 449/768/633
f 431/816/634 429/817/635 447/818/636 450/819/636
f 431/815/637 432/814/637 452/771/601 451/770/600
f 432/811/631 434/820/638 453/821/639 452/822/639
f 434/823/640 433/824/640 454/773/603 453/772/602
f 433/825/641 431/816/634 451/826/642 454/827/642
f 433/824/643 434/823/643 456/775/643 455/774/643
f 434/820/638 414/788/612 457/828/644 456/829/644
f 414/787/645 413/786/645 458/777/645 457/776/645
f 413/794/616 433/825/641 455/830/646 458/831/646
f 418/797/619 432/811/631 430/810/630 420/804/624
f 420/804/624 430/810/630 428/779/605 422/778/605
f 462/759/593 417/758/592 419/807/627 461/832/647
f 461/832/647 419/807/627 421/783/608 460/782/607
f 462/759/593 431/816/634 433/825/641
f 416/789/613 414/788/612 434/820/638
f 418/797/619 416/789/613 434/820/638 432/811/631
f 431/816/634 462/759/593 461/832/647 429/817/635
f 429/817/635 461/832/647 460/782/607 427/833/648
f 427/833/648 460/782/607 459/785/610 425/834/649
f 415/757/591 462/759/593 413/794/616
f 462/759/593 433/825/641 413/794/616
f 469/835/650 481/836/651 483/837/652 478/838/653
f 481/836/651 470/839/654 473/840/655 483/837/652
f 483/837/652 473/840/655 466/841/656 474/842/657
f 478/838/653 483/837/652 474/842/657 465/843/658
f 465/843/659 474/842/660 484/844/661 475/845/662
f 537/846/663 538/847/664 539/848/665 540/849/666
f 484/844/661 476/850/667 464/851/668 472/852/669
f 475/845/662 484/844/661 472/852/669 463/853/670
f 467/854/671 480/855/672 485/856/673 471/857/674
f 480/855/672 469/835/675 478/838/676 485/856/673
f 485/856/673 478/838/676 465/843/677 475/845/678
f 471/857/674 485/856/673 475/845/678 463/853/679
f 470/839/654 479/858/680 486/859/681 473/840/655
f 541/860/682 542/861/683 543/862/684 544/863/685
f 486/859/686 477/864/687 464/851/668 476/850/667
f 557/865/688 558/866/689 559/867/690 560/868/691
f 463/853/692 472/852/669 487/869/693 471/857/694
f 472/852/669 464/851/668 477/864/687 487/869/693
f 487/869/693 477/864/687 468/870/695 482/871/696
f 471/857/694 487/869/693 482/871/696 467/854/697
f 494/872/698 506/873/699 508/874/700 503/875/701
f 506/873/699 495/876/702 498/877/703 508/874/700
f 508/874/700 498/877/703 491/878/704 499/879/705
f 503/875/701 508/874/700 499/879/705 490/880/706
f 490/880/707 499/879/708 509/881/709 500/882/710
f 545/883/711 546/884/712 547/885/713 548/886/714
f 509/881/715 501/887/716 489/888/717 497/889/718
f 561/890/719 562/891/720 563/892/721 564/893/722
f 492/894/723 505/895/724 510/896/725 496/897/726
f 505/895/724 494/872/727 503/875/728 510/896/725
f 510/896/725 503/875/728 490/880/729 500/882/730
f 496/897/726 510/896/725 500/882/730 488/898/731
f 495/876/702 504/899/732 511/900/733 498/877/703
f 504/899/732 493/901/734 502/902/735 511/900/733
f 565/903/736 566/904/737 567/905/738 568/906/739
f 498/877/703 511/900/733 501/887/716 491/878/704
f 488/898/740 497/889/718 512/907/741 496/897/742
f 497/889/718 489/888/717 502/902/735 512/907/741
f 512/907/741 502/902/735 493/901/734 507/908/743
f 496/897/742 512/907/741 507/908/743 492/894/744
f 513/909/745 518/910/746 482/871/696 468/870/695
f 518/910/746 521/911/747 467/854/697 482/871/696
f 521/911/748 524/912/749 480/855/672 467/854/671
f 524/912/749 527/913/750 469/835/675 480/855/672
f 527/913/751 530/914/752 481/836/651 469/835/650
f 530/914/752 533/915/753 470/839/654 481/836/651
f 533/915/754 536/916/755 479/858/680 470/839/654
f 569/917/756 570/918/757 571/919/758 572/920/759
f 549/921/760 550/922/761 551/923/762 552/924/763
f 534/925/764 515/926/765 514/927/766 535/928/767
f 535/928/767 514/927/766 513/909/768 536/916/769
f 493/901/734 504/899/732 534/925/764 531/929/770
f 531/929/770 534/925/764 535/928/767 532/930/771
f 553/931/772 554/932/773 555/933/774 556/934/775
f 507/908/743 493/901/734 531/929/770 528/935/776
f 528/935/776 531/929/770 532/930/777 529/936/778
f 529/936/778 532/930/777 533/915/753 530/914/752
f 492/894/744 507/908/743 528/935/776 525/937/779
f 525/937/779 528/935/776 529/936/778 526/938/780
f 526/938/780 529/936/778 530/914/752 527/913/751
f 505/895/724 492/894/723 525/937/781 522/939/782
f 522/939/782 525/937/781 526/938/783 523/940/784
f 523/940/784 526/938/783 527/913/750 524/912/749
f 494/872/727 505/895/724 522/939/782 519/941/785
f 519/941/785 522/939/782 523/940/784 520/942/786
f 520/942/786 523/940/784 524/912/749 521/911/748
f 506/873/699 494/872/698 519/941/787 516/943/788
f 516/943/788 519/941/787 520/942/789 517/944/790
f 517/944/790 520/942/789 521/911/747 518/910/746
f 495/876/702 506/873/699 516/943/788 515/926/791
f 515/926/791 516/943/788 517/944/790 514/927/792
f 514/927/792 517/944/790 518/910/746 513/909/745
f 474/842/657 466/841/656 538/847/793 537/846/793
f 466/841/794 476/850/667 539/848/665 538/847/664
f 476/850/667 484/844/661 540/849/666 539/848/665
f 484/844/661 474/842/660 537/846/795 540/849/795
f 479/858/796 468/870/796 542/861/683 541/860/682
f 468/870/695 477/864/687 543/862/797 542/861/797
f 477/864/687 486/859/686 544/863/685 543/862/684
f 486/859/681 479/858/680 541/860/682 544/863/685
f 499/879/705 491/878/704 546/884/798 545/883/798
f 491/878/704 501/887/716 547/885/713 546/884/712
f 501/887/716 509/881/715 548/886/714 547/885/713
f 509/881/709 499/879/708 545/883/799 548/886/799
f 504/899/732 495/876/702 550/922/761 549/921/760
f 495/876/702 515/926/791 551/923/800 550/922/800
f 515/926/765 534/925/764 552/924/801 551/923/801
f 534/925/764 504/899/732 549/921/760 552/924/763
f 532/930/771 535/928/767 554/932/802 553/931/802
f 535/928/767 536/916/769 555/933/774 554/932/773
f 536/916/755 533/915/754 556/934/775 555/933/774
f 533/915/753 532/930/777 553/931/803 556/934/803
f 473/840/655 486/859/681 558/866/804 557/865/804
f 486/859/686 476/850/667 559/867/690 558/866/689
f 476/850/667 466/841/794 560/868/691 559/867/690
f 466/841/656 473/840/655 557/865/688 560/868/691
f 500/882/710 509/881/709 562/891/720 561/890/719
f 509/881/715 497/889/718 563/892/721 562/891/720
f 497/889/718 488/898/740 564/893/805 563/892/805
f 488/898/731 500/882/730 561/890/806 564/893/806
f 511/900/733 502/902/735 566/904/807 565/903/807
f 502/902/735 489/888/717 567/905/738 566/904/737
f 489/888/717 501/887/716 568/906/739 567/905/738
f 501/887/716 511/900/733 565/903/736 568/906/739
f 536/916/769 513/909/768 570/918/757 569/917/756
f 513/909/745 468/870/695 571/919/758 570/918/757
f 468/870/808 479/858/680 572/920/759 571/919/758
f 479/858/680 536/916/755 569/917/756 572/920/759
