# Blender v3.4.1 OBJ File: 'MixedBag1_Export.blend'
# www.blender.org
mtllib umbrella_blue.mtl
o umbrella_blue
v 0.431484 -0.028354 0.000000
v 0.420297 -0.028354 0.034788
v 0.390824 -0.028354 0.056575
v 0.353962 -0.028354 0.056975
v 0.323726 -0.028354 0.035435
v 0.312068 -0.028354 0.000000
v 0.323726 -0.028354 -0.035435
v 0.353962 -0.028354 -0.056975
v 0.390824 -0.028354 -0.056575
v 0.420297 -0.028354 -0.034788
v -0.048180 1.460484 -0.034788
v -0.018707 1.460484 -0.056575
v 0.018156 1.460484 -0.056975
v 0.048391 1.460484 -0.035435
v 0.060049 1.460484 0.000000
v 0.048391 1.460484 0.035435
v 0.018156 1.460484 0.056975
v -0.018707 1.460484 0.056575
v -0.048180 1.460484 0.034788
v -0.059366 1.460484 0.000000
v -0.059366 -0.028354 0.000000
v -0.048180 -0.028354 0.034788
v -0.018707 -0.028354 0.056575
v 0.018156 -0.028354 0.056975
v 0.048391 -0.028354 0.035435
v 0.060049 -0.028354 0.000000
v 0.048391 -0.028354 -0.035435
v 0.018156 -0.028354 -0.056975
v -0.018707 -0.028354 -0.056575
v -0.048180 -0.028354 -0.034788
v -0.026485 -0.151067 -0.000000
v -0.016798 -0.145473 0.034788
v 0.008726 -0.130737 0.056575
v 0.040650 -0.112306 0.056975
v 0.066835 -0.097188 0.035435
v 0.076931 -0.091359 -0.000000
v 0.066835 -0.097188 -0.035435
v 0.040650 -0.112306 -0.056975
v 0.008726 -0.130737 -0.056575
v -0.016798 -0.145473 -0.034788
v 0.063346 -0.240898 -0.000000
v 0.068940 -0.231210 0.034788
v 0.083676 -0.205686 0.056575
v 0.102107 -0.173762 0.056975
v 0.117225 -0.147578 0.035435
v 0.123054 -0.137482 -0.000000
v 0.117225 -0.147578 -0.035435
v 0.102107 -0.173762 -0.056975
v 0.083676 -0.205686 -0.056575
v 0.068940 -0.231210 -0.034788
v 0.186059 -0.273779 -0.000000
v 0.186059 -0.262592 0.034788
v 0.186059 -0.233120 0.056575
v 0.186059 -0.196257 0.056975
v 0.186059 -0.166022 0.035435
v 0.186059 -0.154364 -0.000000
v 0.186059 -0.166022 -0.035435
v 0.186059 -0.196257 -0.056975
v 0.186059 -0.233120 -0.056575
v 0.186059 -0.262592 -0.034788
v 0.308771 -0.240898 -0.000000
v 0.303178 -0.231210 0.034788
v 0.288441 -0.205686 0.056575
v 0.270010 -0.173762 0.056975
v 0.254893 -0.147578 0.035435
v 0.249063 -0.137482 -0.000000
v 0.254893 -0.147578 -0.035435
v 0.270010 -0.173762 -0.056975
v 0.288441 -0.205686 -0.056575
v 0.303178 -0.231210 -0.034788
v 0.398603 -0.151067 -0.000000
v 0.388915 -0.145473 0.034788
v 0.363391 -0.130737 0.056575
v 0.331467 -0.112306 0.056975
v 0.305282 -0.097188 0.035435
v 0.295186 -0.091359 -0.000000
v 0.305282 -0.097188 -0.035435
v 0.331467 -0.112306 -0.056975
v 0.363391 -0.130737 -0.056575
v 0.388915 -0.145473 -0.034788
v 0.371906 0.064504 -0.000000
v 0.420297 0.029517 -0.034788
v 0.411552 0.054257 -0.028509
v 0.390824 0.029517 -0.056575
v 0.387398 0.054257 -0.046364
v 0.353962 0.029517 -0.056975
v 0.357189 0.054257 -0.046692
v 0.323726 0.029517 -0.035435
v 0.332410 0.054257 -0.029039
v 0.312068 0.029517 0.000000
v 0.322856 0.054257 0.000000
v 0.323726 0.029517 0.035435
v 0.332410 0.054257 0.029039
v 0.353962 0.029517 0.056975
v 0.357189 0.054257 0.046692
v 0.390824 0.029517 0.056575
v 0.387398 0.054257 0.046364
v 0.420297 0.029517 0.034788
v 0.411552 0.054257 0.028509
v 0.431484 0.029517 0.000000
v 0.420719 0.054257 0.000000
v 0.390439 0.064504 0.013351
v 0.379128 0.064504 0.021713
v 0.353374 0.064504 0.013598
v 0.348900 0.064504 0.000000
v 0.364979 0.064504 -0.021866
v 0.379128 0.064504 -0.021713
v 0.390439 0.064504 -0.013351
v 0.394732 0.064504 -0.000000
v 0.364980 0.064504 0.021866
v 0.353374 0.064504 -0.013598
v -0.071900 1.511690 -0.051915
v -0.027917 1.511690 -0.084429
v 0.027094 1.511690 -0.085025
v 0.072215 1.511690 -0.052880
v 0.089613 1.511690 0.000000
v 0.072215 1.511690 0.052880
v 0.027094 1.511690 0.085025
v -0.027917 1.511690 0.084429
v -0.071900 1.511690 0.051915
v -0.088594 1.511690 0.000000
v 0.000041 1.583764 -0.000000
v -0.041859 1.566460 0.030225
v -0.016252 1.566460 0.049154
v 0.042044 1.566460 0.030787
v 0.052173 1.566460 0.000000
v -0.041859 1.566460 -0.030225
v -0.051579 1.566460 0.000000
v 0.015775 1.566460 0.049501
v 0.015775 1.566460 -0.049501
v -0.016252 1.566460 -0.049154
v 0.042044 1.566460 -0.030787
v -0.018707 0.145064 -0.056575
v -0.014215 0.168827 -0.042990
v 0.060049 0.145064 0.000000
v 0.045629 0.168827 0.000000
v 0.048391 0.145064 0.035435
v 0.036771 0.168827 0.026926
v 0.048391 0.145064 -0.035435
v 0.036771 0.168827 -0.026926
v -0.018707 0.145064 0.056575
v -0.014215 0.168827 0.042990
v -0.048180 0.145064 -0.034788
v -0.036610 0.168827 -0.026434
v -0.059366 0.145064 0.000000
v -0.045110 0.168827 0.000000
v 0.018156 0.145064 0.056975
v 0.013796 0.168827 0.043293
v 0.018156 0.145064 -0.056975
v 0.013796 0.168827 -0.043293
v -0.048180 0.145064 0.034788
v -0.036610 0.168827 0.026434
v -0.000001 1.431279 -0.423366
v -0.000000 1.308023 -0.570767
v 0.066092 1.510638 -0.246084
v 0.124157 1.430934 -0.460880
v 0.171339 1.303854 -0.634444
v 0.205974 1.139223 -0.761308
v 0.226368 0.950148 -0.836476
v 0.227344 0.784216 -0.839886
v 0.121843 1.510604 -0.211042
v 0.234605 1.430094 -0.406350
v 0.330879 1.297828 -0.573102
v 0.404060 1.122196 -0.699856
v 0.442913 0.912370 -0.767151
v 0.437341 0.731842 -0.757500
v 0.180067 1.510638 -0.180280
v 0.337054 1.430934 -0.337964
v 0.463774 1.303855 -0.465606
v 0.556325 1.139223 -0.559034
v 0.611225 0.950148 -0.614279
v 0.613690 0.784216 -0.616829
v 0.200777 1.510645 -0.115919
v 0.366645 1.431279 -0.211683
v 0.494298 1.308023 -0.285383
v 0.584426 1.152840 -0.337419
v 0.638073 0.984014 -0.368391
v 0.657585 0.837804 -0.379657
v 0.246160 1.510638 -0.065804
v 0.461212 1.430934 -0.122916
v 0.635113 1.303854 -0.168837
v 0.762300 1.139223 -0.202275
v 0.837594 0.950148 -0.222198
v 0.841034 0.784216 -0.223057
v 0.243689 1.510604 0.000000
v 0.469211 1.430094 0.000000
v 0.661760 1.297828 0.000000
v 0.808122 1.122196 -0.000000
v 0.885828 0.912370 0.000000
v 0.874684 0.731842 0.000000
v 0.246160 1.510638 0.065804
v 0.461212 1.430934 0.122916
v 0.635113 1.303855 0.168838
v 0.762300 1.139223 0.202275
v 0.837594 0.950148 0.222198
v 0.841034 0.784216 0.223057
v 0.200777 1.510645 0.115919
v 0.366645 1.431279 0.211683
v 0.494298 1.308023 0.285383
v 0.584426 1.152840 0.337419
v 0.638073 0.984014 0.368392
v 0.657585 0.837804 0.379657
v 0.180067 1.510638 0.180280
v 0.337054 1.430934 0.337964
v 0.463774 1.303854 0.465606
v 0.556325 1.139223 0.559034
v 0.611225 0.950148 0.614279
v 0.613690 0.784216 0.616829
v 0.121843 1.510604 0.211042
v 0.234605 1.430094 0.406350
v 0.330879 1.297828 0.573102
v 0.404060 1.122196 0.699855
v 0.442913 0.912370 0.767151
v 0.437341 0.731842 0.757500
v 0.066092 1.510638 0.246084
v 0.124157 1.430934 0.460880
v 0.171339 1.303854 0.634443
v 0.205974 1.139223 0.761308
v 0.226368 0.950148 0.836476
v 0.227344 0.784216 0.839885
v -0.000001 1.510645 0.231839
v -0.000001 1.431279 0.423366
v -0.000000 1.308023 0.570766
v -0.000000 1.152840 0.674837
v -0.000000 0.984014 0.736783
v -0.000000 0.837804 0.759313
v -0.066094 1.510638 0.246084
v -0.124159 1.430934 0.460880
v -0.171340 1.303855 0.634443
v -0.205975 1.139223 0.761308
v -0.226369 0.950147 0.836476
v -0.227345 0.784215 0.839886
v -0.121847 1.510604 0.211042
v -0.234608 1.430094 0.406350
v -0.330882 1.297828 0.573102
v -0.404063 1.122196 0.699856
v -0.442917 0.912370 0.767151
v -0.437344 0.731842 0.757500
v -0.000002 1.535116 0.000000
v -0.180070 1.510638 0.180280
v -0.337056 1.430934 0.337964
v -0.463775 1.303854 0.465606
v -0.556326 1.139223 0.559034
v -0.611226 0.950148 0.614279
v -0.613690 0.784216 0.616828
v -0.200779 1.510645 0.115919
v -0.366646 1.431279 0.211683
v -0.494299 1.308023 0.285383
v -0.584426 1.152840 0.337419
v -0.638073 0.984014 0.368392
v -0.657585 0.837804 0.379657
v -0.246162 1.510638 0.065804
v -0.461213 1.430934 0.122916
v -0.635114 1.303854 0.168838
v -0.762300 1.139222 0.202275
v -0.837594 0.950147 0.222198
v -0.841035 0.784216 0.223057
v -0.243692 1.510604 0.000000
v -0.469214 1.430094 0.000000
v -0.661763 1.297828 0.000000
v -0.808125 1.122196 0.000000
v -0.885831 0.912370 0.000000
v -0.874687 0.731841 0.000000
v -0.246162 1.510638 -0.065804
v -0.461213 1.430934 -0.122916
v -0.635114 1.303854 -0.168837
v -0.762300 1.139222 -0.202275
v -0.837594 0.950147 -0.222198
v -0.841035 0.784216 -0.223057
v -0.200779 1.510645 -0.115919
v -0.366646 1.431279 -0.211683
v -0.494299 1.308023 -0.285383
v -0.584426 1.152840 -0.337418
v -0.638073 0.984014 -0.368391
v -0.657585 0.837804 -0.379657
v -0.180070 1.510638 -0.180280
v -0.337055 1.430934 -0.337964
v -0.463775 1.303854 -0.465606
v -0.556326 1.139223 -0.559034
v -0.611226 0.950148 -0.614279
v -0.613690 0.784216 -0.616828
v -0.121847 1.510604 -0.211042
v -0.234608 1.430094 -0.406350
v -0.330882 1.297828 -0.573102
v -0.404063 1.122196 -0.699855
v -0.442917 0.912370 -0.767151
v -0.437344 0.731842 -0.757500
v -0.066094 1.510638 -0.246084
v -0.124159 1.430934 -0.460880
v -0.171340 1.303855 -0.634443
v -0.205975 1.139223 -0.761308
v -0.226369 0.950147 -0.836476
v -0.227345 0.784215 -0.839886
v -0.000001 1.510645 -0.231838
v -0.000000 1.152840 -0.674837
v -0.000000 0.984014 -0.736783
v -0.000000 0.837804 -0.759313
v -0.000001 1.379954 -0.380932
v -0.000000 1.269480 -0.511580
v 0.063885 1.451406 -0.223725
v 0.121884 1.379694 -0.418355
v 0.170246 1.264405 -0.576159
v 0.205995 1.113394 -0.692634
v 0.226562 0.939873 -0.761988
v 0.223523 0.783188 -0.764462
v 0.111932 1.450739 -0.193875
v 0.214341 1.377741 -0.371252
v 0.302404 1.257074 -0.523782
v 0.369816 1.096035 -0.640543
v 0.405435 0.904736 -0.702236
v 0.399582 0.732951 -0.692099
v 0.161807 1.451406 -0.167189
v 0.301363 1.379694 -0.314733
v 0.413844 1.264405 -0.435517
v 0.496840 1.113395 -0.524714
v 0.546620 0.939873 -0.577203
v 0.550281 0.783188 -0.575808
v 0.183191 1.450889 -0.105766
v 0.329896 1.379954 -0.190466
v 0.443041 1.269480 -0.255790
v 0.524585 1.127786 -0.302869
v 0.573897 0.972008 -0.331340
v 0.592321 0.833639 -0.341976
v 0.225694 1.451406 -0.056535
v 0.423248 1.379694 -0.103622
v 0.584091 1.264405 -0.140641
v 0.702836 1.113395 -0.167920
v 0.773182 0.939873 -0.184786
v 0.773805 0.783188 -0.188654
v 0.223865 1.450739 0.000000
v 0.428683 1.377741 0.000000
v 0.604810 1.257074 0.000000
v 0.739634 1.096035 -0.000000
v 0.810871 0.904736 0.000000
v 0.799165 0.732951 0.000000
v 0.225694 1.451406 0.056536
v 0.423248 1.379694 0.103623
v 0.584091 1.264405 0.140642
v 0.702836 1.113395 0.167920
v 0.773182 0.939873 0.184786
v 0.773805 0.783188 0.188654
v 0.183191 1.450889 0.105766
v 0.329896 1.379954 0.190466
v 0.443041 1.269480 0.255790
v 0.524585 1.127786 0.302869
v 0.573897 0.972008 0.331340
v 0.592321 0.833639 0.341976
v 0.161807 1.451406 0.167190
v 0.301363 1.379694 0.314733
v 0.413844 1.264405 0.435517
v 0.496840 1.113395 0.524714
v 0.546620 0.939873 0.577203
v 0.550281 0.783188 0.575808
v 0.111932 1.450739 0.193875
v 0.214341 1.377741 0.371252
v 0.302404 1.257074 0.523782
v 0.369816 1.096035 0.640543
v 0.405435 0.904736 0.702236
v 0.399582 0.732951 0.692099
v 0.063885 1.451406 0.223725
v 0.121884 1.379694 0.418355
v 0.170246 1.264405 0.576159
v 0.205995 1.113394 0.692634
v 0.226562 0.939873 0.761988
v 0.223523 0.783188 0.764461
v -0.000001 1.450889 0.211532
v -0.000001 1.379955 0.380932
v -0.000000 1.269480 0.511580
v -0.000000 1.127786 0.605738
v -0.000000 0.972008 0.662679
v -0.000000 0.833639 0.683952
v -0.063887 1.451406 0.223725
v -0.121886 1.379694 0.418355
v -0.170247 1.264405 0.576159
v -0.205996 1.113395 0.692634
v -0.226563 0.939873 0.761988
v -0.223524 0.783187 0.764462
v -0.111935 1.450739 0.193875
v -0.214344 1.377741 0.371252
v -0.302407 1.257074 0.523782
v -0.369819 1.096035 0.640543
v -0.405438 0.904736 0.702236
v -0.399585 0.732951 0.692099
v -0.000002 1.473075 0.000000
v -0.161809 1.451406 0.167190
v -0.301365 1.379694 0.314733
v -0.413845 1.264405 0.435517
v -0.496841 1.113394 0.524715
v -0.546620 0.939873 0.577203
v -0.550281 0.783188 0.575808
v -0.183193 1.450889 0.105766
v -0.329898 1.379955 0.190466
v -0.443042 1.269480 0.255790
v -0.524585 1.127786 0.302869
v -0.573897 0.972009 0.331340
v -0.592320 0.833639 0.341976
v -0.225696 1.451406 0.056535
v -0.423249 1.379694 0.103622
v -0.584092 1.264405 0.140641
v -0.702837 1.113394 0.167919
v -0.773183 0.939873 0.184785
v -0.773806 0.783188 0.188654
v -0.223869 1.450739 0.000000
v -0.428686 1.377741 0.000000
v -0.604813 1.257074 0.000000
v -0.739637 1.096035 0.000000
v -0.810874 0.904736 0.000000
v -0.799168 0.732950 0.000000
v -0.225696 1.451406 -0.056535
v -0.423249 1.379695 -0.103622
v -0.584092 1.264405 -0.140641
v -0.702837 1.113394 -0.167919
v -0.773183 0.939873 -0.184785
v -0.773806 0.783188 -0.188653
v -0.183193 1.450889 -0.105766
v -0.329897 1.379955 -0.190466
v -0.443042 1.269480 -0.255790
v -0.524585 1.127786 -0.302869
v -0.573897 0.972009 -0.331340
v -0.592320 0.833639 -0.341976
v -0.161809 1.451406 -0.167189
v -0.301364 1.379694 -0.314733
v -0.413845 1.264405 -0.435517
v -0.496841 1.113395 -0.524715
v -0.546620 0.939873 -0.577203
v -0.550281 0.783188 -0.575808
v -0.111935 1.450739 -0.193874
v -0.214344 1.377741 -0.371252
v -0.302407 1.257074 -0.523782
v -0.369820 1.096035 -0.640543
v -0.405438 0.904736 -0.702236
v -0.399585 0.732951 -0.692098
v -0.063887 1.451406 -0.223725
v -0.121886 1.379694 -0.418355
v -0.170247 1.264405 -0.576158
v -0.205996 1.113395 -0.692634
v -0.226563 0.939873 -0.761988
v -0.223524 0.783188 -0.764462
v -0.000001 1.450889 -0.211531
v -0.000000 1.127786 -0.605738
v -0.000000 0.972008 -0.662679
v 0.000000 0.833639 -0.683952
v 0.804712 0.758679 -0.214623
v 0.834664 0.706329 0.000000
v 0.804712 0.758679 0.214623
v -0.834667 0.706329 0.000000
v -0.804713 0.758679 -0.214623
v 0.626314 0.809620 -0.361603
v -0.626314 0.809620 -0.361603
v -0.804713 0.758679 0.214623
v -0.417334 0.706329 -0.722841
v -0.216488 0.758679 -0.804213
v 0.417331 0.706329 0.722841
v 0.216487 0.758679 0.804212
v 0.626314 0.809620 0.361603
v 0.588225 0.758679 0.589590
v -0.588225 0.758679 0.589589
v -0.626314 0.809620 0.361603
v 0.000000 0.809620 -0.723205
v 0.216487 0.758679 -0.804213
v 0.588225 0.758679 -0.589590
v -0.588225 0.758679 -0.589589
v 0.417331 0.706329 -0.722842
v -0.417334 0.706329 0.722841
v -0.216488 0.758679 0.804213
v -0.000000 0.809620 0.723205
vt 0.587000 0.378976
vt 0.583219 0.378976
vt 0.583219 0.391653
vt 0.587000 0.391653
vt 0.590024 0.378976
vt 0.591171 0.378976
vt 0.591171 0.391653
vt 0.590024 0.391653
vt 0.580117 0.378976
vt 0.580117 0.391653
vt 0.578921 0.378976
vt 0.578921 0.391653
vt 0.580117 0.378976
vt 0.580117 0.391653
vt 0.583219 0.378976
vt 0.583219 0.391653
vt 0.587000 0.378976
vt 0.587000 0.391653
vt 0.590024 0.378976
vt 0.590024 0.391653
vt 0.551873 0.378976
vt 0.553069 0.378976
vt 0.553069 0.416965
vt 0.551873 0.416965
vt 0.650833 0.329602
vt 0.648617 0.329602
vt 0.648617 0.416934
vt 0.650833 0.416934
vt 0.548771 0.378976
vt 0.548771 0.416965
vt 0.540819 0.378976
vt 0.541966 0.378976
vt 0.541966 0.416965
vt 0.540819 0.416965
vt 0.648617 0.329602
vt 0.650833 0.329602
vt 0.650833 0.416934
vt 0.648617 0.416934
vt 0.551873 0.378976
vt 0.548771 0.378976
vt 0.548771 0.416965
vt 0.551873 0.416965
vt 0.651688 0.329602
vt 0.651688 0.416934
vt 0.541966 0.378976
vt 0.541966 0.416965
vt 0.544990 0.378976
vt 0.544990 0.416965
vt 0.544990 0.378976
vt 0.544990 0.416965
vt 0.544192 0.352094
vt 0.545185 0.353319
vt 0.547804 0.356548
vt 0.551079 0.360585
vt 0.553765 0.363897
vt 0.554800 0.365174
vt 0.553765 0.363897
vt 0.551079 0.360585
vt 0.547804 0.356548
vt 0.545185 0.353319
vt 0.553407 0.332415
vt 0.553981 0.334537
vt 0.555492 0.340129
vt 0.557383 0.347122
vt 0.558934 0.352858
vt 0.559532 0.355070
vt 0.558934 0.352858
vt 0.557383 0.347122
vt 0.555492 0.340129
vt 0.553981 0.334537
vt 0.565995 0.325212
vt 0.565995 0.327663
vt 0.565995 0.334119
vt 0.565995 0.342194
vt 0.565995 0.348818
vt 0.565995 0.351372
vt 0.565995 0.348818
vt 0.565995 0.342194
vt 0.565995 0.334119
vt 0.565995 0.327663
vt 0.578583 0.332415
vt 0.578009 0.334537
vt 0.576498 0.340129
vt 0.574607 0.347122
vt 0.573056 0.352858
vt 0.572458 0.355070
vt 0.573056 0.352858
vt 0.574607 0.347122
vt 0.576498 0.340129
vt 0.578009 0.334537
vt 0.587798 0.352094
vt 0.586805 0.353319
vt 0.584186 0.356548
vt 0.580911 0.360585
vt 0.578225 0.363897
vt 0.577189 0.365174
vt 0.578225 0.363897
vt 0.580911 0.360585
vt 0.584186 0.356548
vt 0.586805 0.353319
vt 0.586961 0.399318
vt 0.585800 0.399318
vt 0.586649 0.397073
vt 0.589127 0.397073
vt 0.583159 0.399318
vt 0.582700 0.399318
vt 0.580028 0.397073
vt 0.581008 0.397073
vt 0.584349 0.399318
vt 0.585800 0.399318
vt 0.586649 0.397073
vt 0.583550 0.397073
vt 0.589127 0.397073
vt 0.590067 0.397073
vt 0.586961 0.399318
vt 0.587401 0.399318
vt 0.584349 0.399318
vt 0.583550 0.397073
vt 0.583159 0.399318
vt 0.581008 0.397073
vt 0.585059 0.399318
vt 0.811142 0.682300
vt 0.808080 0.682300
vt 0.810171 0.693965
vt 0.811954 0.693965
vt 0.811142 0.682300
vt 0.814971 0.682300
vt 0.814183 0.693965
vt 0.811954 0.693965
vt 0.808080 0.682300
vt 0.810171 0.693965
vt 0.818112 0.682300
vt 0.816012 0.693965
vt 0.814971 0.682300
vt 0.814183 0.693965
vt 0.819323 0.682300
vt 0.816716 0.693965
vt 0.818112 0.682300
vt 0.816012 0.693965
vt 0.806918 0.682300
vt 0.809494 0.693965
vt 0.813088 0.697651
vt 0.645916 0.329602
vt 0.643756 0.329602
vt 0.643756 0.416934
vt 0.645916 0.416934
vt 0.645916 0.329602
vt 0.645916 0.416934
vt 0.642936 0.329602
vt 0.643756 0.329602
vt 0.643756 0.416934
vt 0.642936 0.416934
vt 0.544990 0.422171
vt 0.548771 0.422171
vt 0.544990 0.422171
vt 0.541966 0.422171
vt 0.548771 0.422171
vt 0.551873 0.422171
vt 0.553069 0.422171
vt 0.540819 0.422171
vt 0.541966 0.422171
vt 0.551873 0.422171
vt 0.812500 0.078125
vt 0.812500 0.097996
vt 0.815394 0.097996
vt 0.815496 0.078125
vt 0.812500 0.132413
vt 0.812500 0.144614
vt 0.813998 0.144614
vt 0.814618 0.132413
vt 0.812500 0.116512
vt 0.815094 0.116512
vt 0.812500 0.152284
vt 0.812500 0.154900
vt 0.813275 0.152284
vt 0.816592 0.132413
vt 0.817512 0.116512
vt 0.813998 0.152284
vt 0.818090 0.097996
vt 0.815394 0.144614
vt 0.818287 0.078125
vt 0.816592 0.144614
vt 0.818287 0.132413
vt 0.819588 0.116512
vt 0.814618 0.152284
vt 0.820406 0.097996
vt 0.820685 0.078125
vt 0.821181 0.116512
vt 0.822183 0.097996
vt 0.815094 0.152284
vt 0.817512 0.144614
vt 0.822524 0.078125
vt 0.819588 0.132413
vt 0.788249 0.163387
vt 0.786965 0.179288
vt 0.787624 0.179288
vt 0.789057 0.163387
vt 0.783342 0.199159
vt 0.781250 0.201775
vt 0.783583 0.199159
vt 0.789057 0.144871
vt 0.789957 0.144871
vt 0.785291 0.191489
vt 0.785757 0.191489
vt 0.789332 0.125000
vt 0.790264 0.125000
vt 0.790264 0.144871
vt 0.790582 0.125000
vt 0.785916 0.191489
vt 0.787849 0.179288
vt 0.789332 0.163387
vt 0.783665 0.199159
vt 0.789057 0.163387
vt 0.789957 0.144871
vt 0.783583 0.199159
vt 0.785757 0.191489
vt 0.790264 0.125000
vt 0.787624 0.179288
vt 0.786965 0.179288
vt 0.788249 0.163387
vt 0.783342 0.199159
vt 0.789057 0.144871
vt 0.785291 0.191489
vt 0.789332 0.125000
vt 0.822524 0.078125
vt 0.822183 0.097996
vt 0.820406 0.097996
vt 0.820685 0.078125
vt 0.819588 0.132413
vt 0.817512 0.144614
vt 0.816592 0.144614
vt 0.818287 0.132413
vt 0.821181 0.116512
vt 0.819588 0.116512
vt 0.815094 0.152284
vt 0.814618 0.152284
vt 0.817512 0.116512
vt 0.818090 0.097996
vt 0.813998 0.152284
vt 0.815394 0.144614
vt 0.818287 0.078125
vt 0.816592 0.132413
vt 0.814618 0.132413
vt 0.815094 0.116512
vt 0.813275 0.152284
vt 0.815394 0.097996
vt 0.813998 0.144614
vt 0.815496 0.078125
vt 0.812500 0.097996
vt 0.812500 0.078125
vt 0.812500 0.144614
vt 0.812500 0.132413
vt 0.812500 0.116512
vt 0.812500 0.152284
vt 0.781250 0.199159
vt 0.780625 0.199159
vt 0.781250 0.144871
vt 0.781250 0.163387
vt 0.779158 0.163387
vt 0.778917 0.144871
vt 0.781250 0.191489
vt 0.780042 0.191489
vt 0.781250 0.125000
vt 0.778835 0.125000
vt 0.781250 0.179288
vt 0.779542 0.179288
vt 0.777950 0.179288
vt 0.777209 0.163387
vt 0.780042 0.199159
vt 0.776743 0.144871
vt 0.778917 0.191489
vt 0.776584 0.125000
vt 0.779542 0.199159
vt 0.777950 0.191489
vt 0.774876 0.144871
vt 0.774651 0.125000
vt 0.776584 0.179288
vt 0.775535 0.163387
vt 0.779158 0.199159
vt 0.774251 0.163387
vt 0.773443 0.144871
vt 0.777209 0.191489
vt 0.773168 0.125000
vt 0.775535 0.179288
vt 0.805411 0.132413
vt 0.807487 0.144614
vt 0.806909 0.144614
vt 0.804594 0.132413
vt 0.803818 0.116512
vt 0.802817 0.116512
vt 0.809905 0.152284
vt 0.809606 0.152284
vt 0.802817 0.097996
vt 0.801700 0.097996
vt 0.802475 0.078125
vt 0.801319 0.078125
vt 0.809504 0.152284
vt 0.806712 0.144614
vt 0.801319 0.097996
vt 0.800924 0.078125
vt 0.804315 0.132413
vt 0.802475 0.116512
vt 0.804594 0.132413
vt 0.802817 0.116512
vt 0.809606 0.152284
vt 0.801700 0.097996
vt 0.806909 0.144614
vt 0.801319 0.078125
vt 0.807487 0.144614
vt 0.805411 0.132413
vt 0.803818 0.116512
vt 0.809905 0.152284
vt 0.802817 0.097996
vt 0.802475 0.078125
vt 0.773443 0.144871
vt 0.774251 0.163387
vt 0.775535 0.163387
vt 0.774876 0.144871
vt 0.777209 0.191489
vt 0.779158 0.199159
vt 0.779542 0.199159
vt 0.777950 0.191489
vt 0.773168 0.125000
vt 0.774651 0.125000
vt 0.775535 0.179288
vt 0.776584 0.179288
vt 0.777950 0.179288
vt 0.777209 0.163387
vt 0.780042 0.199159
vt 0.776743 0.144871
vt 0.778917 0.191489
vt 0.776584 0.125000
vt 0.778917 0.144871
vt 0.778835 0.125000
vt 0.780042 0.191489
vt 0.779542 0.179288
vt 0.779158 0.163387
vt 0.780625 0.199159
vt 0.781250 0.163387
vt 0.781250 0.144871
vt 0.781250 0.199159
vt 0.781250 0.191489
vt 0.781250 0.125000
vt 0.781250 0.179288
vt 0.812500 0.078125
vt 0.815496 0.078125
vt 0.815394 0.097996
vt 0.812500 0.097996
vt 0.812500 0.132413
vt 0.814618 0.132413
vt 0.813998 0.144614
vt 0.812500 0.144614
vt 0.812500 0.116512
vt 0.815094 0.116512
vt 0.781250 0.199159
vt 0.781875 0.199159
vt 0.781250 0.201775
vt 0.813275 0.152284
vt 0.812500 0.152284
vt 0.817512 0.116512
vt 0.816592 0.132413
vt 0.782458 0.199159
vt 0.818090 0.097996
vt 0.815394 0.144614
vt 0.813998 0.152284
vt 0.818287 0.078125
vt 0.818287 0.132413
vt 0.816592 0.144614
vt 0.819588 0.116512
vt 0.782958 0.199159
vt 0.820406 0.097996
vt 0.814618 0.152284
vt 0.820685 0.078125
vt 0.822183 0.097996
vt 0.821181 0.116512
vt 0.817512 0.144614
vt 0.815094 0.152284
vt 0.822524 0.078125
vt 0.819588 0.132413
vt 0.783342 0.199159
vt 0.788249 0.163387
vt 0.789057 0.163387
vt 0.787624 0.179288
vt 0.786965 0.179288
vt 0.783583 0.199159
vt 0.789057 0.144871
vt 0.789957 0.144871
vt 0.785291 0.191489
vt 0.785757 0.191489
vt 0.789332 0.125000
vt 0.790264 0.125000
vt 0.790582 0.125000
vt 0.790264 0.144871
vt 0.787849 0.179288
vt 0.785916 0.191489
vt 0.789332 0.163387
vt 0.783665 0.199159
vt 0.789957 0.144871
vt 0.789057 0.163387
vt 0.785757 0.191489
vt 0.783583 0.199159
vt 0.790264 0.125000
vt 0.787624 0.179288
vt 0.788249 0.163387
vt 0.786965 0.179288
vt 0.783342 0.199159
vt 0.789057 0.144871
vt 0.785291 0.191489
vt 0.789332 0.125000
vt 0.822524 0.078125
vt 0.820685 0.078125
vt 0.820406 0.097996
vt 0.822183 0.097996
vt 0.819588 0.132413
vt 0.818287 0.132413
vt 0.816592 0.144614
vt 0.817512 0.144614
vt 0.821181 0.116512
vt 0.819588 0.116512
vt 0.782958 0.199159
vt 0.814618 0.152284
vt 0.815094 0.152284
vt 0.818090 0.097996
vt 0.817512 0.116512
vt 0.815394 0.144614
vt 0.813998 0.152284
vt 0.818287 0.078125
vt 0.816592 0.132413
vt 0.782458 0.199159
vt 0.815094 0.116512
vt 0.814618 0.132413
vt 0.781875 0.199159
vt 0.815394 0.097996
vt 0.813998 0.144614
vt 0.813275 0.152284
vt 0.815496 0.078125
vt 0.812500 0.078125
vt 0.812500 0.097996
vt 0.812500 0.132413
vt 0.812500 0.144614
vt 0.812500 0.116512
vt 0.781250 0.199159
vt 0.812500 0.152284
vt 0.780625 0.199159
vt 0.781250 0.144871
vt 0.778917 0.144871
vt 0.779158 0.163387
vt 0.781250 0.163387
vt 0.781250 0.191489
vt 0.780042 0.191489
vt 0.781250 0.125000
vt 0.778835 0.125000
vt 0.781250 0.179288
vt 0.779542 0.179288
vt 0.777209 0.163387
vt 0.777950 0.179288
vt 0.780042 0.199159
vt 0.776743 0.144871
vt 0.778917 0.191489
vt 0.776584 0.125000
vt 0.777950 0.191489
vt 0.779542 0.199159
vt 0.774651 0.125000
vt 0.774876 0.144871
vt 0.776584 0.179288
vt 0.775535 0.163387
vt 0.779158 0.199159
vt 0.773443 0.144871
vt 0.774251 0.163387
vt 0.777209 0.191489
vt 0.773168 0.125000
vt 0.775535 0.179288
vt 0.805411 0.132413
vt 0.804594 0.132413
vt 0.806909 0.144614
vt 0.807487 0.144614
vt 0.803818 0.116512
vt 0.802817 0.116512
vt 0.778917 0.199159
vt 0.802817 0.097996
vt 0.801700 0.097996
vt 0.809606 0.152284
vt 0.809905 0.152284
vt 0.802475 0.078125
vt 0.801319 0.078125
vt 0.806712 0.144614
vt 0.809504 0.152284
vt 0.800924 0.078125
vt 0.801319 0.097996
vt 0.804315 0.132413
vt 0.802475 0.116512
vt 0.778835 0.199159
vt 0.802817 0.116512
vt 0.804594 0.132413
vt 0.778917 0.199159
vt 0.801700 0.097996
vt 0.806909 0.144614
vt 0.809606 0.152284
vt 0.801319 0.078125
vt 0.805411 0.132413
vt 0.807487 0.144614
vt 0.803818 0.116512
vt 0.779158 0.199159
vt 0.802817 0.097996
vt 0.809905 0.152284
vt 0.802475 0.078125
vt 0.773443 0.144871
vt 0.774876 0.144871
vt 0.775535 0.163387
vt 0.774251 0.163387
vt 0.777209 0.191489
vt 0.777950 0.191489
vt 0.779542 0.199159
vt 0.773168 0.125000
vt 0.774651 0.125000
vt 0.775535 0.179288
vt 0.776584 0.179288
vt 0.777209 0.163387
vt 0.777950 0.179288
vt 0.780042 0.199159
vt 0.776743 0.144871
vt 0.778917 0.191489
vt 0.776584 0.125000
vt 0.778835 0.125000
vt 0.778917 0.144871
vt 0.779542 0.179288
vt 0.780042 0.191489
vt 0.779158 0.163387
vt 0.780625 0.199159
vt 0.781250 0.144871
vt 0.781250 0.163387
vt 0.781250 0.191489
vt 0.781250 0.125000
vt 0.781250 0.179288
vt 0.790582 0.125000
vt 0.790264 0.125000
vt 0.790264 0.125000
vt 0.801319 0.078125
vt 0.800924 0.078125
vt 0.789332 0.125000
vt 0.802475 0.078125
vt 0.801319 0.078125
vt 0.778835 0.125000
vt 0.776584 0.125000
vt 0.815496 0.078125
vt 0.818287 0.078125
vt 0.820685 0.078125
vt 0.822524 0.078125
vt 0.773168 0.125000
vt 0.774651 0.125000
vt 0.815496 0.078125
vt 0.812500 0.078125
vt 0.822524 0.078125
vt 0.820685 0.078125
vt 0.774651 0.125000
vt 0.818287 0.078125
vt 0.802475 0.078125
vt 0.776584 0.125000
vt 0.781250 0.125000
vt 0.778835 0.125000
vt 0.812500 0.078125
vt 0.781250 0.125000
vt 0.773168 0.125000
vt 0.789332 0.125000
vn 0.3398 -0.0480 -0.9393
vn -0.2750 0.0338 -0.9608
vn -0.2936 0.1964 -0.9355
vn 0.3119 0.1963 -0.9296
vn 0.8154 -0.1068 0.5689
vn 0.9919 -0.1274 0.0000
vn 0.9806 0.1963 -0.0000
vn 0.7965 0.1963 0.5719
vn -0.7909 0.1057 -0.6028
vn -0.7895 0.1964 -0.5815
vn -0.9910 0.1340 -0.0000
vn -0.9805 0.1965 -0.0000
vn -0.7909 0.1057 0.6028
vn -0.7895 0.1964 0.5815
vn -0.2750 0.0338 0.9608
vn -0.2936 0.1964 0.9355
vn 0.3398 -0.0480 0.9393
vn 0.3119 0.1963 0.9296
vn 0.8154 -0.1068 -0.5689
vn 0.7965 0.1963 -0.5719
vn 0.7909 0.1057 0.6028
vn 0.9910 0.1340 -0.0000
vn 1.0000 0.0000 -0.0000
vn 0.8052 0.0000 0.5930
vn 0.8051 -0.0111 -0.5930
vn 0.2994 -0.0111 -0.9541
vn 0.2750 0.0338 0.9608
vn 0.2994 0.0000 0.9541
vn -0.9919 -0.1274 0.0000
vn -0.8154 -0.1068 0.5689
vn -0.8123 0.0000 0.5832
vn -1.0000 0.0000 -0.0000
vn 0.2994 -0.0111 0.9541
vn 0.8051 -0.0111 0.5930
vn 0.7909 0.1057 -0.6028
vn 0.2750 0.0338 -0.9608
vn 0.2994 -0.0000 -0.9541
vn 0.8052 -0.0000 -0.5930
vn 0.9999 -0.0112 -0.0000
vn -0.8154 -0.1068 -0.5689
vn -0.8123 0.0000 -0.5832
vn -0.3398 -0.0480 0.9393
vn -0.3181 0.0000 0.9481
vn -0.3398 -0.0480 -0.9393
vn -0.3181 -0.0000 -0.9481
vn -0.8660 -0.5000 0.0000
vn -0.7173 -0.4141 0.5603
vn -0.3140 -0.1813 0.9319
vn 0.2175 0.1256 0.9680
vn 0.6802 0.3927 0.6189
vn 0.8660 0.5000 -0.0000
vn 0.6802 0.3927 -0.6189
vn 0.2175 0.1256 -0.9680
vn -0.3140 -0.1813 -0.9319
vn -0.7173 -0.4141 -0.5603
vn -0.5000 -0.8660 -0.0000
vn -0.4141 -0.7173 0.5603
vn -0.1813 -0.3140 0.9319
vn 0.1256 0.2175 0.9680
vn 0.3927 0.6802 0.6189
vn 0.5000 0.8660 -0.0000
vn 0.3927 0.6802 -0.6189
vn 0.1256 0.2175 -0.9680
vn -0.1813 -0.3140 -0.9319
vn -0.4141 -0.7173 -0.5603
vn 0.0000 -1.0000 -0.0000
vn 0.0000 -0.8283 0.5603
vn 0.0000 -0.3626 0.9319
vn -0.0000 0.2511 0.9680
vn 0.0000 0.7855 0.6189
vn -0.0000 1.0000 0.0000
vn 0.0000 0.7855 -0.6189
vn -0.0000 0.2511 -0.9680
vn 0.0000 -0.3626 -0.9319
vn 0.0000 -0.8283 -0.5603
vn 0.5000 -0.8660 -0.0000
vn 0.4141 -0.7173 0.5603
vn 0.1813 -0.3140 0.9319
vn -0.1256 0.2175 0.9680
vn -0.3927 0.6802 0.6189
vn -0.5000 0.8660 0.0000
vn -0.3927 0.6802 -0.6189
vn -0.1256 0.2175 -0.9680
vn 0.1813 -0.3140 -0.9319
vn 0.4141 -0.7173 -0.5603
vn 0.8660 -0.5000 -0.0000
vn 0.7173 -0.4141 0.5603
vn 0.3140 -0.1813 0.9319
vn -0.2175 0.1256 0.9680
vn -0.6802 0.3927 0.6189
vn -0.8660 0.5000 -0.0000
vn -0.6802 0.3927 -0.6189
vn -0.2175 0.1256 -0.9680
vn 0.3140 -0.1813 -0.9319
vn 0.7173 -0.4141 -0.5603
vn 0.1802 0.9751 0.1294
vn 0.0706 0.9751 0.2104
vn 0.1166 0.9304 0.3476
vn 0.2980 0.9303 0.2139
vn 0.7449 0.3990 0.5348
vn 0.2916 0.3992 0.8693
vn -0.1788 0.9750 0.1317
vn -0.2222 0.9750 -0.0000
vn -0.7300 0.6834 -0.0000
vn -0.2949 0.9305 0.2172
vn -0.7381 0.3996 0.5436
vn -0.0665 0.9750 -0.2118
vn 0.0706 0.9751 -0.2104
vn 0.2322 0.6836 -0.6920
vn -0.2186 0.6835 -0.6964
vn 0.5929 0.6836 -0.4257
vn 0.9170 0.3990 0.0000
vn 0.3668 0.9303 0.0000
vn 0.1802 0.9751 -0.1294
vn 0.2218 0.9751 0.0000
vn -0.0665 0.9750 0.2118
vn -0.1097 0.9304 0.3496
vn -0.2745 0.3994 0.8747
vn -0.1788 0.9750 -0.1317
vn -0.5878 0.6835 -0.4329
vn -0.2629 0.5614 -0.7847
vn -0.6727 0.5603 -0.4832
vn -0.5216 0.7667 -0.3743
vn -0.2042 0.7672 -0.6081
vn -0.2629 0.5614 0.7847
vn 0.2478 0.5627 0.7886
vn 0.1916 0.7678 0.6114
vn -0.2042 0.7672 0.6081
vn -0.6727 0.5603 0.4832
vn -0.5216 0.7667 0.3743
vn 0.6651 0.5639 0.4896
vn 0.5153 0.7683 0.3797
vn 0.2478 0.5627 -0.7886
vn 0.1916 0.7678 -0.6114
vn 0.8255 0.5643 0.0000
vn 0.6398 0.7685 -0.0000
vn 0.6651 0.5639 -0.4896
vn 0.5153 0.7683 -0.3797
vn -0.8285 0.5599 0.0000
vn -0.6423 0.7665 0.0000
vn -0.0013 1.0000 0.0000
vn -0.3181 -0.0111 -0.9480
vn -0.8123 -0.0110 -0.5832
vn -0.3181 -0.0111 0.9480
vn -0.9999 -0.0110 0.0000
vn -0.8123 -0.0110 0.5832
vn -0.2729 0.5159 -0.8120
vn 0.2558 0.5172 -0.8167
vn 0.2566 0.5172 -0.8165
vn -0.2722 0.5159 -0.8123
vn -0.2729 0.5159 0.8120
vn -0.6966 0.5148 0.4998
vn -0.6963 0.5148 0.5001
vn -0.2722 0.5159 0.8123
vn 0.2558 0.5172 0.8167
vn 0.2566 0.5172 0.8165
vn 0.6884 0.5183 -0.5074
vn 0.8549 0.5188 -0.0000
vn 0.6887 0.5183 -0.5070
vn -0.8575 0.5145 -0.0000
vn -0.6966 0.5148 -0.4998
vn -0.6963 0.5148 -0.5001
vn 0.6884 0.5183 0.5074
vn 0.6887 0.5183 0.5070
vn -0.3554 0.0763 -0.9316
vn -0.3522 0.2166 -0.9105
vn -0.0014 0.1965 -0.9805
vn 0.0402 0.0217 -0.9990
vn -0.2407 0.6727 -0.6997
vn -0.1445 0.8628 -0.4845
vn 0.0234 0.8695 -0.4934
vn 0.0087 0.7031 -0.7111
vn -0.3155 0.4482 -0.8364
vn -0.0027 0.4818 -0.8763
vn -0.0570 0.9727 -0.2250
vn 0.0450 0.9959 -0.0779
vn 0.0240 0.9682 -0.2489
vn 0.3444 0.7249 -0.5965
vn 0.4359 0.4898 -0.7550
vn 0.1097 0.9756 -0.1901
vn 0.4943 0.1510 -0.8561
vn 0.2329 0.8849 -0.4034
vn 0.4999 -0.0218 -0.8658
vn 0.4156 0.8695 -0.2669
vn 0.6114 0.7031 -0.3631
vn 0.7602 0.4818 -0.4358
vn 0.2035 0.9682 -0.1452
vn 0.8499 0.1965 -0.4890
vn 0.8450 0.0217 -0.5343
vn 0.8821 0.4482 -0.1449
vn 0.9646 0.2166 -0.1503
vn 0.2233 0.9727 -0.0631
vn 0.4919 0.8628 -0.1171
vn 0.9845 0.0763 -0.1580
vn 0.7263 0.6727 -0.1414
vn 0.5666 0.4482 -0.6914
vn 0.4856 0.6727 -0.5583
vn 0.6201 0.7031 -0.3480
vn 0.7575 0.4818 -0.4405
vn 0.1663 0.9727 -0.1618
vn 0.0899 0.9959 0.0000
vn 0.2275 0.9682 -0.1036
vn 0.6124 0.2166 -0.7603
vn 0.8484 0.1965 -0.4915
vn 0.3473 0.8628 -0.3674
vn 0.4390 0.8695 -0.2265
vn 0.6291 0.0763 -0.7736
vn 0.8852 0.0217 -0.4646
vn 0.9885 0.1510 -0.0000
vn 0.9998 -0.0218 -0.0000
vn 0.4658 0.8849 0.0000
vn 0.6888 0.7249 0.0000
vn 0.8718 0.4898 -0.0000
vn 0.2195 0.9756 0.0000
vn 0.7575 0.4818 0.4405
vn 0.8484 0.1965 0.4915
vn 0.2275 0.9682 0.1036
vn 0.4390 0.8695 0.2265
vn 0.8852 0.0217 0.4646
vn 0.6201 0.7031 0.3480
vn 0.4856 0.6727 0.5583
vn 0.5666 0.4482 0.6914
vn 0.1663 0.9727 0.1618
vn 0.6124 0.2166 0.7603
vn 0.3473 0.8628 0.3674
vn 0.6291 0.0763 0.7736
vn 0.9845 0.0763 0.1580
vn 0.9646 0.2166 0.1503
vn 0.8499 0.1965 0.4890
vn 0.8450 0.0217 0.5343
vn 0.7263 0.6727 0.1414
vn 0.4919 0.8628 0.1171
vn 0.4156 0.8695 0.2669
vn 0.6114 0.7031 0.3631
vn 0.8821 0.4482 0.1449
vn 0.7602 0.4818 0.4358
vn 0.2233 0.9727 0.0631
vn 0.0450 0.9959 0.0779
vn 0.2035 0.9682 0.1452
vn 0.4359 0.4898 0.7550
vn 0.4943 0.1510 0.8561
vn 0.1097 0.9756 0.1901
vn 0.2329 0.8849 0.4034
vn 0.4999 -0.0218 0.8658
vn 0.3444 0.7249 0.5965
vn 0.0087 0.7031 0.7111
vn -0.0027 0.4818 0.8763
vn 0.0240 0.9682 0.2489
vn -0.0014 0.1965 0.9805
vn 0.0234 0.8695 0.4934
vn 0.0403 0.0217 0.9990
vn -0.3522 0.2166 0.9105
vn -0.3554 0.0763 0.9316
vn -0.1445 0.8628 0.4845
vn -0.2407 0.6727 0.6997
vn -0.3155 0.4482 0.8364
vn -0.0570 0.9727 0.2250
vn 0.0570 0.9727 0.2250
vn -0.0450 0.9959 0.0779
vn -0.0240 0.9682 0.2489
vn 0.3522 0.2166 0.9105
vn 0.3155 0.4482 0.8364
vn 0.0027 0.4818 0.8763
vn 0.0014 0.1965 0.9805
vn 0.1445 0.8628 0.4845
vn -0.0234 0.8695 0.4934
vn 0.3554 0.0763 0.9316
vn -0.0402 0.0217 0.9990
vn 0.2407 0.6727 0.6997
vn -0.0087 0.7031 0.7111
vn -0.3444 0.7249 0.5965
vn -0.4359 0.4898 0.7550
vn -0.1097 0.9756 0.1901
vn -0.4943 0.1510 0.8561
vn -0.2329 0.8849 0.4034
vn -0.4999 -0.0218 0.8658
vn -0.2035 0.9682 0.1452
vn -0.4156 0.8695 0.2669
vn -0.8499 0.1965 0.4890
vn -0.8450 0.0217 0.5343
vn -0.6114 0.7031 0.3631
vn -0.7602 0.4818 0.4358
vn -0.2233 0.9727 0.0631
vn -0.8821 0.4482 0.1449
vn -0.9646 0.2166 0.1503
vn -0.4919 0.8628 0.1171
vn -0.9845 0.0763 0.1580
vn -0.7263 0.6727 0.1414
vn -0.4856 0.6727 0.5583
vn -0.3473 0.8628 0.3674
vn -0.4390 0.8695 0.2265
vn -0.6201 0.7031 0.3480
vn -0.5666 0.4482 0.6914
vn -0.7575 0.4818 0.4405
vn -0.1663 0.9727 0.1618
vn -0.0899 0.9959 -0.0000
vn -0.2275 0.9682 0.1036
vn -0.6124 0.2166 0.7603
vn -0.8484 0.1965 0.4915
vn -0.6291 0.0763 0.7736
vn -0.8852 0.0217 0.4646
vn -0.2195 0.9756 0.0000
vn -0.4658 0.8849 0.0000
vn -0.9885 0.1510 0.0000
vn -0.9998 -0.0218 -0.0000
vn -0.6888 0.7249 0.0000
vn -0.8718 0.4898 0.0000
vn -0.6201 0.7031 -0.3480
vn -0.7575 0.4818 -0.4405
vn -0.2275 0.9682 -0.1036
vn -0.8484 0.1965 -0.4915
vn -0.4390 0.8695 -0.2265
vn -0.8852 0.0217 -0.4646
vn -0.3473 0.8628 -0.3674
vn -0.4856 0.6727 -0.5583
vn -0.5666 0.4482 -0.6914
vn -0.1663 0.9727 -0.1619
vn -0.6124 0.2166 -0.7603
vn -0.6291 0.0763 -0.7736
vn -0.9646 0.2166 -0.1503
vn -0.8821 0.4482 -0.1449
vn -0.7602 0.4818 -0.4358
vn -0.8499 0.1965 -0.4890
vn -0.4919 0.8628 -0.1171
vn -0.2233 0.9727 -0.0631
vn -0.2035 0.9682 -0.1452
vn -0.4156 0.8695 -0.2669
vn -0.9845 0.0763 -0.1580
vn -0.8450 0.0217 -0.5343
vn -0.7263 0.6727 -0.1414
vn -0.6114 0.7031 -0.3631
vn -0.0450 0.9959 -0.0779
vn -0.3444 0.7249 -0.5965
vn -0.4359 0.4898 -0.7550
vn -0.1097 0.9756 -0.1901
vn -0.4943 0.1510 -0.8561
vn -0.2329 0.8849 -0.4034
vn -0.4999 -0.0218 -0.8658
vn 0.0014 0.1965 -0.9805
vn -0.0402 0.0217 -0.9990
vn -0.0234 0.8695 -0.4934
vn -0.0087 0.7031 -0.7111
vn 0.0027 0.4818 -0.8763
vn -0.0240 0.9682 -0.2489
vn 0.3155 0.4482 -0.8364
vn 0.3522 0.2166 -0.9105
vn 0.0570 0.9727 -0.2250
vn 0.1445 0.8628 -0.4845
vn 0.3554 0.0763 -0.9316
vn 0.2407 0.6727 -0.6997
vn 0.3574 -0.0786 0.9306
vn -0.0424 -0.0174 0.9990
vn -0.0090 -0.1972 0.9803
vn 0.3535 -0.2161 0.9101
vn 0.2434 -0.6689 0.7024
vn -0.0154 -0.7046 0.7095
vn -0.0280 -0.8703 0.4916
vn 0.1468 -0.8609 0.4871
vn 0.3171 -0.4450 0.8375
vn -0.0056 -0.4846 0.8747
vn 0.0614 -0.9718 0.2276
vn -0.0268 -0.9692 0.2448
vn -0.0436 -0.9962 0.0755
vn -0.4355 -0.4911 0.7544
vn -0.3435 -0.7266 0.5950
vn -0.1094 -0.9758 0.1894
vn -0.4947 -0.1445 0.8569
vn -0.2316 -0.8862 0.4012
vn -0.4997 0.0317 0.8656
vn -0.6067 -0.7046 0.3681
vn -0.4118 -0.8703 0.2700
vn -0.7547 -0.4846 0.4422
vn -0.1986 -0.9692 0.1456
vn -0.8445 -0.1972 0.4980
vn -0.8439 -0.0174 0.5362
vn -0.9649 -0.2161 0.1489
vn -0.8838 -0.4450 0.1441
vn -0.4953 -0.8609 0.1164
vn -0.2278 -0.9718 0.0606
vn -0.9847 -0.0786 0.1558
vn -0.7300 -0.6689 0.1404
vn -0.5667 -0.4450 0.6934
vn -0.7603 -0.4846 0.4325
vn -0.6221 -0.7046 0.3414
vn -0.4866 -0.6689 0.5620
vn -0.1664 -0.9718 0.1670
vn -0.2254 -0.9692 0.0991
vn -0.0872 -0.9962 -0.0000
vn -0.6115 -0.2161 0.7612
vn -0.8535 -0.1972 0.4823
vn -0.3484 -0.8609 0.3707
vn -0.4398 -0.8703 0.2216
vn -0.6273 -0.0786 0.7748
vn -0.8863 -0.0174 0.4628
vn -0.9995 0.0317 0.0000
vn -0.9895 -0.1445 -0.0000
vn -0.6870 -0.7266 -0.0000
vn -0.4633 -0.8862 -0.0000
vn -0.8711 -0.4911 -0.0000
vn -0.2187 -0.9758 -0.0000
vn -0.8535 -0.1972 -0.4823
vn -0.7603 -0.4846 -0.4325
vn -0.4398 -0.8703 -0.2216
vn -0.2254 -0.9692 -0.0991
vn -0.8863 -0.0174 -0.4628
vn -0.6221 -0.7046 -0.3414
vn -0.5667 -0.4450 -0.6934
vn -0.4866 -0.6689 -0.5620
vn -0.1664 -0.9718 -0.1670
vn -0.6115 -0.2161 -0.7612
vn -0.3484 -0.8609 -0.3707
vn -0.6273 -0.0786 -0.7748
vn -0.9847 -0.0786 -0.1558
vn -0.8439 -0.0174 -0.5362
vn -0.8445 -0.1972 -0.4980
vn -0.9649 -0.2161 -0.1489
vn -0.7300 -0.6689 -0.1404
vn -0.6067 -0.7046 -0.3681
vn -0.4118 -0.8703 -0.2700
vn -0.4953 -0.8609 -0.1164
vn -0.8838 -0.4450 -0.1441
vn -0.7547 -0.4846 -0.4422
vn -0.2278 -0.9718 -0.0606
vn -0.1986 -0.9692 -0.1456
vn -0.0436 -0.9962 -0.0755
vn -0.4947 -0.1445 -0.8569
vn -0.4355 -0.4911 -0.7544
vn -0.2316 -0.8862 -0.4012
vn -0.1094 -0.9758 -0.1894
vn -0.4997 0.0317 -0.8656
vn -0.3435 -0.7266 -0.5950
vn -0.0056 -0.4846 -0.8747
vn -0.0154 -0.7046 -0.7095
vn -0.0268 -0.9692 -0.2448
vn -0.0090 -0.1972 -0.9803
vn -0.0280 -0.8703 -0.4916
vn -0.0424 -0.0174 -0.9990
vn 0.3574 -0.0786 -0.9306
vn 0.3535 -0.2161 -0.9101
vn 0.2434 -0.6689 -0.7024
vn 0.1468 -0.8609 -0.4871
vn 0.3171 -0.4450 -0.8375
vn 0.0614 -0.9718 -0.2276
vn -0.0614 -0.9718 -0.2276
vn 0.0268 -0.9692 -0.2448
vn 0.0436 -0.9962 -0.0755
vn -0.3535 -0.2161 -0.9101
vn 0.0090 -0.1972 -0.9803
vn 0.0056 -0.4846 -0.8747
vn -0.3171 -0.4450 -0.8375
vn -0.1468 -0.8609 -0.4871
vn 0.0280 -0.8703 -0.4916
vn -0.3574 -0.0786 -0.9306
vn 0.0424 -0.0174 -0.9990
vn -0.2434 -0.6689 -0.7024
vn 0.0154 -0.7046 -0.7095
vn 0.4355 -0.4911 -0.7544
vn 0.3435 -0.7266 -0.5950
vn 0.1094 -0.9758 -0.1894
vn 0.4948 -0.1445 -0.8569
vn 0.2316 -0.8862 -0.4012
vn 0.4998 0.0317 -0.8656
vn 0.4118 -0.8703 -0.2700
vn 0.1986 -0.9692 -0.1456
vn 0.8439 -0.0174 -0.5362
vn 0.8445 -0.1972 -0.4980
vn 0.6067 -0.7046 -0.3681
vn 0.7547 -0.4846 -0.4422
vn 0.2278 -0.9718 -0.0606
vn 0.9649 -0.2161 -0.1489
vn 0.8839 -0.4450 -0.1441
vn 0.4953 -0.8609 -0.1164
vn 0.9847 -0.0786 -0.1558
vn 0.7300 -0.6689 -0.1404
vn 0.4866 -0.6689 -0.5620
vn 0.6221 -0.7046 -0.3414
vn 0.4398 -0.8703 -0.2216
vn 0.3484 -0.8609 -0.3707
vn 0.5667 -0.4450 -0.6934
vn 0.7603 -0.4846 -0.4325
vn 0.1664 -0.9718 -0.1670
vn 0.2254 -0.9692 -0.0991
vn 0.0872 -0.9962 -0.0000
vn 0.6115 -0.2161 -0.7612
vn 0.8535 -0.1972 -0.4824
vn 0.6273 -0.0786 -0.7748
vn 0.8863 -0.0174 -0.4628
vn 0.4633 -0.8862 -0.0000
vn 0.2187 -0.9758 -0.0000
vn 0.9995 0.0317 0.0000
vn 0.9895 -0.1445 -0.0000
vn 0.6870 -0.7266 0.0000
vn 0.8711 -0.4911 -0.0000
vn 0.7603 -0.4846 0.4325
vn 0.6221 -0.7046 0.3414
vn 0.2254 -0.9692 0.0991
vn 0.8535 -0.1972 0.4824
vn 0.4398 -0.8703 0.2216
vn 0.8863 -0.0174 0.4628
vn 0.4866 -0.6689 0.5620
vn 0.3484 -0.8609 0.3707
vn 0.5667 -0.4450 0.6934
vn 0.1664 -0.9718 0.1670
vn 0.6115 -0.2161 0.7612
vn 0.6273 -0.0786 0.7748
vn 0.9649 -0.2161 0.1489
vn 0.8445 -0.1972 0.4980
vn 0.7547 -0.4846 0.4422
vn 0.8839 -0.4450 0.1441
vn 0.4953 -0.8609 0.1164
vn 0.4118 -0.8703 0.2700
vn 0.1986 -0.9692 0.1456
vn 0.2278 -0.9718 0.0606
vn 0.9847 -0.0786 0.1558
vn 0.8439 -0.0174 0.5362
vn 0.7300 -0.6689 0.1404
vn 0.6067 -0.7046 0.3681
vn 0.0436 -0.9962 0.0755
vn 0.4355 -0.4911 0.7544
vn 0.3435 -0.7266 0.5950
vn 0.1094 -0.9758 0.1894
vn 0.4948 -0.1445 0.8569
vn 0.2316 -0.8862 0.4012
vn 0.4998 0.0317 0.8656
vn 0.0424 -0.0174 0.9990
vn 0.0090 -0.1972 0.9803
vn 0.0154 -0.7046 0.7095
vn 0.0280 -0.8703 0.4916
vn 0.0056 -0.4846 0.8747
vn 0.0268 -0.9692 0.2448
vn -0.3535 -0.2161 0.9101
vn -0.3171 -0.4450 0.8375
vn -0.1468 -0.8609 0.4871
vn -0.0614 -0.9718 0.2276
vn -0.3574 -0.0786 0.9306
vn -0.2434 -0.6689 0.7024
vn -0.6365 -0.7713 0.0000
vn -0.5578 -0.8267 0.0735
vn -0.5542 -0.8284 0.0810
vn -0.5542 -0.8284 -0.0810
vn -0.5578 -0.8267 -0.0735
vn 0.5542 -0.8284 0.0810
vn 0.5578 -0.8267 0.0735
vn 0.6365 -0.7713 0.0000
vn -0.4555 -0.8519 0.2583
vn 0.4555 -0.8519 0.2583
vn 0.5578 -0.8267 -0.0735
vn 0.5542 -0.8284 -0.0810
vn 0.2070 -0.8284 0.5205
vn 0.2153 -0.8267 0.5198
vn 0.3182 -0.7713 0.5512
vn -0.2070 -0.8284 -0.5205
vn -0.2153 -0.8267 -0.5198
vn -0.3182 -0.7713 -0.5512
vn -0.3472 -0.8284 -0.4395
vn -0.3426 -0.8267 -0.4463
vn -0.4515 -0.8519 -0.2654
vn 0.4515 -0.8519 -0.2654
vn 0.3426 -0.8267 -0.4463
vn 0.3472 -0.8284 -0.4395
vn -0.2070 -0.8284 0.5205
vn -0.2153 -0.8267 0.5198
vn -0.0041 -0.8519 0.5237
vn -0.4515 -0.8519 0.2654
vn -0.3426 -0.8267 0.4463
vn -0.3472 -0.8284 0.4395
vn 0.3426 -0.8267 0.4463
vn 0.3472 -0.8284 0.4395
vn -0.3182 -0.7713 0.5512
vn 0.4555 -0.8519 -0.2583
vn 0.3182 -0.7713 -0.5512
vn 0.0041 -0.8519 0.5237
vn 0.2153 -0.8267 -0.5198
vn 0.2070 -0.8284 -0.5205
vn -0.0041 -0.8519 -0.5237
vn 0.0041 -0.8519 -0.5237
vn 0.4515 -0.8519 0.2654
vn -0.4555 -0.8519 -0.2583
vn 0.3198 -0.7111 0.6261
vn 0.4221 -0.7774 0.4663
vn 0.4332 -0.7833 0.4458
vn -0.6027 -0.7833 -0.1523
vn -0.6149 -0.7774 -0.1323
vn -0.7021 -0.7111 0.0361
vn 0.1695 -0.7833 0.5981
vn 0.1928 -0.7774 0.5987
vn 0.3823 -0.7111 0.5900
vn -0.3823 -0.7111 0.5900
vn -0.1928 -0.7774 0.5987
vn -0.1695 -0.7833 0.5981
vn -0.2672 -0.8453 0.4627
vn 0.3823 -0.7111 -0.5900
vn 0.1928 -0.7774 -0.5987
vn 0.1695 -0.7833 -0.5981
vn 0.6027 -0.7833 -0.1523
vn 0.6149 -0.7774 -0.1323
vn 0.2672 -0.8453 -0.4627
vn -0.6027 -0.7833 0.1523
vn -0.6149 -0.7774 0.1323
vn -0.4332 -0.7833 0.4458
vn -0.4221 -0.7774 0.4663
vn -0.3198 -0.7111 0.6261
vn -0.1928 -0.7774 -0.5987
vn -0.1695 -0.7833 -0.5981
vn -0.2672 -0.8453 -0.4627
vn 0.7021 -0.7111 0.0361
vn -0.3823 -0.7111 -0.5900
vn -0.7021 -0.7111 -0.0361
vn 0.2672 -0.8453 0.4627
vn 0.6149 -0.7774 0.1323
vn 0.6027 -0.7833 0.1523
vn 0.7021 -0.7111 -0.0361
vn -0.5343 -0.8453 0.0000
vn -0.3198 -0.7111 -0.6261
vn -0.4221 -0.7774 -0.4663
vn -0.4332 -0.7833 -0.4458
vn 0.4332 -0.7833 -0.4458
vn 0.4221 -0.7774 -0.4663
vn 0.3198 -0.7111 -0.6261
vn 0.5343 -0.8453 -0.0000
usemtl KayKit_Texture_A
s 1
f 9/1/1 8/2/2 86/3/3 84/4/4
f 2/5/5 1/6/6 100/7/7 98/8/8
f 8/2/2 7/9/9 88/10/10 86/3/3
f 7/9/9 6/11/11 90/12/12 88/10/10
f 6/11/11 5/13/13 92/14/14 90/12/12
f 5/13/13 4/15/15 94/16/16 92/14/14
f 4/15/15 3/17/17 96/18/18 94/16/16
f 10/19/19 9/1/1 84/4/4 82/20/20
f 3/17/17 2/5/5 98/8/8 96/18/18
f 25/21/21 26/22/22 135/23/23 137/24/24
f 140/25/25 150/26/26 13/27/26 14/28/25
f 24/29/27 25/21/21 137/24/24 147/30/28
f 21/31/29 22/32/30 151/33/31 145/34/32
f 148/35/33 138/36/34 16/37/34 17/38/33
f 27/39/35 28/40/36 149/41/37 139/42/38
f 138/36/34 136/43/39 15/44/39 16/37/34
f 30/45/40 21/31/29 145/34/32 143/46/41
f 23/47/42 24/29/27 147/30/28 141/48/43
f 29/49/44 30/45/40 143/46/41 133/50/45
f 21/31/29 31/51/46 32/52/47 22/32/30
f 22/32/30 32/52/47 33/53/48 23/47/42
f 23/47/42 33/53/48 34/54/49 24/29/27
f 24/29/27 34/54/49 35/55/50 25/21/21
f 25/21/21 35/55/50 36/56/51 26/22/22
f 26/22/22 36/56/51 37/57/52 27/39/35
f 27/39/35 37/57/52 38/58/53 28/40/36
f 28/40/36 38/58/53 39/59/54 29/49/44
f 29/49/44 39/59/54 40/60/55 30/45/40
f 30/45/40 40/60/55 31/51/46 21/31/29
f 31/51/46 41/61/56 42/62/57 32/52/47
f 32/52/47 42/62/57 43/63/58 33/53/48
f 33/53/48 43/63/58 44/64/59 34/54/49
f 34/54/49 44/64/59 45/65/60 35/55/50
f 35/55/50 45/65/60 46/66/61 36/56/51
f 36/56/51 46/66/61 47/67/62 37/57/52
f 37/57/52 47/67/62 48/68/63 38/58/53
f 38/58/53 48/68/63 49/69/64 39/59/54
f 39/59/54 49/69/64 50/70/65 40/60/55
f 40/60/55 50/70/65 41/61/56 31/51/46
f 41/61/56 51/71/66 52/72/67 42/62/57
f 42/62/57 52/72/67 53/73/68 43/63/58
f 43/63/58 53/73/68 54/74/69 44/64/59
f 44/64/59 54/74/69 55/75/70 45/65/60
f 45/65/60 55/75/70 56/76/71 46/66/61
f 46/66/61 56/76/71 57/77/72 47/67/62
f 47/67/62 57/77/72 58/78/73 48/68/63
f 48/68/63 58/78/73 59/79/74 49/69/64
f 49/69/64 59/79/74 60/80/75 50/70/65
f 50/70/65 60/80/75 51/71/66 41/61/56
f 51/71/66 61/81/76 62/82/77 52/72/67
f 52/72/67 62/82/77 63/83/78 53/73/68
f 53/73/68 63/83/78 64/84/79 54/74/69
f 54/74/69 64/84/79 65/85/80 55/75/70
f 55/75/70 65/85/80 66/86/81 56/76/71
f 56/76/71 66/86/81 67/87/82 57/77/72
f 57/77/72 67/87/82 68/88/83 58/78/73
f 58/78/73 68/88/83 69/89/84 59/79/74
f 59/79/74 69/89/84 70/90/85 60/80/75
f 60/80/75 70/90/85 61/81/76 51/71/66
f 61/81/76 71/91/86 72/92/87 62/82/77
f 62/82/77 72/92/87 73/93/88 63/83/78
f 63/83/78 73/93/88 74/94/89 64/84/79
f 64/84/79 74/94/89 75/95/90 65/85/80
f 65/85/80 75/95/90 76/96/91 66/86/81
f 66/86/81 76/96/91 77/97/92 67/87/82
f 67/87/82 77/97/92 78/98/93 68/88/83
f 68/88/83 78/98/93 79/99/94 69/89/84
f 69/89/84 79/99/94 80/100/95 70/90/85
f 70/90/85 80/100/95 71/91/86 61/81/76
f 71/91/86 1/6/6 2/5/5 72/92/87
f 72/92/87 2/5/5 3/17/17 73/93/88
f 73/93/88 3/17/17 4/15/15 74/94/89
f 74/94/89 4/15/15 5/13/13 75/95/90
f 75/95/90 5/13/13 6/11/11 76/96/91
f 76/96/91 6/11/11 7/9/9 77/97/92
f 77/97/92 7/9/9 8/2/2 78/98/93
f 78/98/93 8/2/2 9/1/1 79/99/94
f 79/99/94 9/1/1 10/19/19 80/100/95
f 80/100/95 10/19/19 1/6/6 71/91/86
f 102/101/96 103/102/97 97/103/98 99/104/99
f 99/104/100 97/103/101 96/18/18 98/8/8
f 104/105/102 105/106/103 91/107/104 93/108/105
f 93/108/106 91/107/104 90/12/12 92/14/14
f 106/109/107 107/110/108 85/111/109 87/112/110
f 87/112/110 85/111/109 84/4/4 86/3/3
f 100/7/7 82/20/20 83/113/111 101/114/112
f 101/114/113 83/113/111 108/115/114 109/116/115
f 103/102/97 110/117/116 95/118/117 97/103/98
f 97/103/101 95/118/118 94/16/16 96/18/18
f 105/106/103 111/119/119 89/120/120 91/107/104
f 91/107/104 89/120/120 88/10/10 90/12/12
f 107/110/108 108/115/114 83/113/111 85/111/109
f 85/111/109 83/113/111 82/20/20 84/4/4
f 110/117/116 104/105/102 93/108/105 95/118/117
f 95/118/118 93/108/106 92/14/14 94/16/16
f 111/119/119 106/109/107 87/112/110 89/120/120
f 89/120/120 87/112/110 86/3/3 88/10/10
f 109/116/115 102/101/96 99/104/99 101/114/113
f 101/114/112 99/104/100 98/8/8 100/7/7
f 1/6/6 10/19/19 82/20/20 100/7/7
f 81/121/71 103/102/97 102/101/96
f 81/121/71 105/106/103 104/105/102
f 81/121/71 107/110/108 106/109/107
f 81/121/71 109/116/115 108/115/114
f 81/121/71 110/117/116 103/102/97
f 81/121/71 111/119/119 105/106/103
f 81/121/71 108/115/114 107/110/108
f 81/121/71 104/105/102 110/117/116
f 81/121/71 106/109/107 111/119/119
f 81/121/71 102/101/96 109/116/115
f 113/122/121 112/123/122 127/124/123 131/125/124
f 119/126/125 118/127/126 129/128/127 124/129/128
f 120/130/129 119/126/125 124/129/128 123/131/130
f 118/127/126 117/132/131 125/133/132 129/128/127
f 114/134/133 113/122/121 131/125/124 130/135/134
f 117/132/131 116/136/135 126/137/136 125/133/132
f 115/138/137 114/134/133 130/135/134 132/139/138
f 116/136/135 115/138/137 132/139/138 126/137/136
f 112/123/122 121/140/139 128/141/140 127/124/123
f 121/140/139 120/130/129 123/131/130 128/141/140
f 122/142/141 123/131/130 124/129/128
f 122/142/141 125/133/132 126/137/136
f 122/142/141 127/124/123 128/141/140
f 122/142/141 124/129/128 129/128/127
f 122/142/141 130/135/134 131/125/124
f 122/142/141 126/137/136 132/139/138
f 122/142/141 131/125/124 127/124/123
f 122/142/141 129/128/127 125/133/132
f 122/142/141 132/139/138 130/135/134
f 122/142/141 128/141/140 123/131/130
f 136/43/39 140/25/25 14/28/25 15/44/39
f 22/32/30 23/47/42 141/48/43 151/33/31
f 134/143/142 144/144/143 11/145/143 12/146/142
f 142/147/144 148/35/33 17/38/33 18/148/144
f 146/149/145 152/150/146 19/151/146 20/152/145
f 144/144/143 146/149/145 20/152/145 11/145/143
f 26/22/22 27/39/35 139/42/38 135/23/23
f 28/40/36 29/49/44 133/50/45 149/41/37
f 152/150/146 142/147/144 18/148/144 19/151/146
f 134/153/147 150/154/148 149/41/149 133/50/150
f 142/155/151 152/156/152 151/33/153 141/48/154
f 148/157/155 142/155/151 141/48/154 147/30/156
f 140/158/157 136/159/158 135/23/158 139/42/159
f 150/154/148 140/158/157 139/42/159 149/41/149
f 146/160/160 144/161/161 143/46/162 145/34/160
f 152/156/152 146/160/160 145/34/160 151/33/153
f 138/162/163 148/157/155 147/30/156 137/24/164
f 136/159/158 138/162/163 137/24/164 135/23/158
f 144/161/161 134/153/147 133/50/150 143/46/162
f 134/143/142 12/146/142 13/27/26 150/26/26
f 297/163/165 296/164/166 159/165/167 160/166/168
f 154/167/169 153/168/170 156/169/171 157/170/172
f 295/171/173 154/167/169 157/170/172 158/172/174
f 294/173/175 239/174/176 155/175/177
f 296/164/166 295/171/173 158/172/174 159/165/167
f 153/168/170 294/173/175 155/175/177 156/169/171
f 158/172/174 157/170/172 163/176/178 164/177/179
f 155/175/177 239/174/176 161/178/180
f 159/165/167 158/172/174 164/177/179 165/179/181
f 156/169/171 155/175/177 161/178/180 162/180/182
f 160/166/168 159/165/167 165/179/181 166/181/183
f 157/170/172 156/169/171 162/180/182 163/176/178
f 163/176/178 162/180/182 168/182/184 169/183/185
f 164/177/179 163/176/178 169/183/185 170/184/186
f 161/178/180 239/174/176 167/185/187
f 165/179/181 164/177/179 170/184/186 171/186/188
f 162/180/182 161/178/180 167/185/187 168/182/184
f 166/181/183 165/179/181 171/186/188 172/187/189
f 171/186/188 170/184/186 176/188/190 177/189/191
f 168/182/184 167/185/187 173/190/192 174/191/193
f 172/187/189 171/186/188 177/189/191 178/192/194
f 169/183/185 168/182/184 174/191/193 175/193/195
f 170/184/186 169/183/185 175/193/195 176/188/190
f 167/185/187 239/174/176 173/190/192
f 176/194/196 175/195/197 181/196/198 182/197/199
f 173/198/200 239/199/201 179/200/202
f 177/201/203 176/194/196 182/197/199 183/202/204
f 174/203/205 173/198/200 179/200/202 180/204/206
f 178/205/207 177/201/203 183/202/204 184/206/208
f 175/195/197 174/203/205 180/204/206 181/196/198
f 184/206/208 183/202/204 189/207/209 190/208/210
f 181/196/198 180/204/206 186/209/211 187/210/212
f 182/197/199 181/196/198 187/210/212 188/211/213
f 179/200/202 239/199/201 185/212/214
f 183/202/204 182/197/199 188/211/213 189/207/209
f 180/204/206 179/200/202 185/212/214 186/209/211
f 189/207/209 188/211/213 194/213/215 195/214/216
f 186/209/211 185/212/214 191/215/217 192/216/218
f 190/208/210 189/207/209 195/214/216 196/217/219
f 187/210/212 186/209/211 192/216/218 193/218/220
f 188/211/213 187/210/212 193/218/220 194/213/215
f 185/212/214 239/199/201 191/215/217
f 194/213/215 193/218/220 199/219/221 200/220/222
f 191/215/217 239/199/201 197/221/223
f 195/214/216 194/213/215 200/220/222 201/222/224
f 192/216/218 191/215/217 197/221/223 198/223/225
f 196/217/219 195/214/216 201/222/224 202/224/226
f 193/218/220 192/216/218 198/223/225 199/219/221
f 202/225/227 201/226/228 207/227/229 208/228/230
f 199/229/231 198/230/232 204/231/233 205/232/234
f 200/233/235 199/229/231 205/232/234 206/234/236
f 197/235/237 239/174/238 203/236/239
f 201/226/228 200/233/235 206/234/236 207/227/229
f 198/230/232 197/235/237 203/236/239 204/231/233
f 207/227/229 206/234/236 212/237/240 213/238/241
f 204/231/233 203/236/239 209/239/242 210/240/243
f 208/228/230 207/227/229 213/238/241 214/241/244
f 205/232/234 204/231/233 210/240/243 211/242/245
f 206/234/236 205/232/234 211/242/245 212/237/240
f 203/236/239 239/174/238 209/239/242
f 212/237/240 211/242/245 217/243/246 218/244/247
f 209/239/242 239/174/238 215/245/248
f 213/238/241 212/237/240 218/244/247 219/246/249
f 210/240/243 209/239/242 215/245/248 216/247/250
f 214/241/244 213/238/241 219/246/249 220/248/251
f 211/242/245 210/240/243 216/247/250 217/243/246
f 220/248/251 219/246/249 225/249/252 226/250/253
f 217/243/246 216/247/250 222/251/254 223/252/255
f 218/244/247 217/243/246 223/252/255 224/253/256
f 215/245/248 239/174/238 221/254/257
f 219/246/249 218/244/247 224/253/256 225/249/252
f 216/247/250 215/245/248 221/254/257 222/251/254
f 221/255/258 239/199/259 227/256/260
f 225/257/261 224/258/262 230/259/263 231/260/264
f 222/261/265 221/255/258 227/256/260 228/262/266
f 226/263/267 225/257/261 231/260/264 232/264/268
f 223/265/269 222/261/265 228/262/266 229/266/270
f 224/258/262 223/265/269 229/266/270 230/259/263
f 230/259/263 229/266/270 235/267/271 236/268/272
f 227/256/260 239/199/259 233/269/273
f 231/260/264 230/259/263 236/268/272 237/270/274
f 228/262/266 227/256/260 233/269/273 234/271/275
f 232/264/268 231/260/264 237/270/274 238/272/276
f 229/266/270 228/262/266 234/271/275 235/267/271
f 234/271/275 233/269/273 240/273/277 241/274/278
f 238/272/276 237/270/274 244/275/279 245/276/280
f 235/267/271 234/271/275 241/274/278 242/277/281
f 236/268/272 235/267/271 242/277/281 243/278/282
f 233/269/273 239/199/259 240/273/277
f 237/270/274 236/268/272 243/278/282 244/275/279
f 240/273/277 239/199/259 246/279/283
f 244/275/279 243/278/282 249/280/284 250/281/285
f 241/274/278 240/273/277 246/279/283 247/282/286
f 245/276/280 244/275/279 250/281/285 251/283/287
f 242/277/281 241/274/278 247/282/286 248/284/288
f 243/278/282 242/277/281 248/284/288 249/280/284
f 248/285/289 247/286/290 253/287/291 254/288/292
f 249/289/293 248/285/289 254/288/292 255/290/294
f 246/291/295 239/174/296 252/292/297
f 250/293/298 249/289/293 255/290/294 256/294/299
f 247/286/290 246/291/295 252/292/297 253/287/291
f 251/295/300 250/293/298 256/294/299 257/296/301
f 253/287/291 252/292/297 258/297/302 259/298/303
f 257/296/301 256/294/299 262/299/304 263/300/305
f 254/288/292 253/287/291 259/298/303 260/301/306
f 255/290/294 254/288/292 260/301/306 261/302/307
f 252/292/297 239/174/296 258/297/302
f 256/294/299 255/290/294 261/302/307 262/299/304
f 261/302/307 260/301/306 266/303/308 267/304/309
f 258/297/302 239/174/296 264/305/310
f 262/299/304 261/302/307 267/304/309 268/306/311
f 259/298/303 258/297/302 264/305/310 265/307/312
f 263/300/305 262/299/304 268/306/311 269/308/313
f 260/301/306 259/298/303 265/307/312 266/303/308
f 266/303/308 265/307/312 271/309/314 272/310/315
f 267/304/309 266/303/308 272/310/315 273/311/316
f 264/305/310 239/174/296 270/312/317
f 268/306/311 267/304/309 273/311/316 274/313/318
f 265/307/312 264/305/310 270/312/317 271/309/314
f 269/308/313 268/306/311 274/313/318 275/314/319
f 274/315/320 273/316/321 279/317/322 280/318/323
f 271/319/324 270/320/325 276/321/326 277/322/327
f 275/323/328 274/315/320 280/318/323 281/324/329
f 272/325/330 271/319/324 277/322/327 278/326/331
f 273/316/321 272/325/330 278/326/331 279/317/322
f 270/320/325 239/199/332 276/321/326
f 279/317/322 278/326/331 284/327/333 285/328/334
f 276/321/326 239/199/332 282/329/335
f 280/318/323 279/317/322 285/328/334 286/330/336
f 277/322/327 276/321/326 282/329/335 283/331/337
f 281/324/329 280/318/323 286/330/336 287/332/338
f 278/326/331 277/322/327 283/331/337 284/327/333
f 287/332/338 286/330/336 292/333/339 293/334/340
f 284/327/333 283/331/337 289/335/341 290/336/342
f 285/328/334 284/327/333 290/336/342 291/337/343
f 282/329/335 239/199/332 288/338/344
f 286/330/336 285/328/334 291/337/343 292/333/339
f 283/331/337 282/329/335 288/338/344 289/335/341
f 292/333/339 291/337/343 295/339/345 296/340/346
f 289/335/341 288/338/344 294/341/347 153/342/348
f 293/334/340 292/333/339 296/340/346 297/343/349
f 290/336/342 289/335/341 153/342/348 154/344/350
f 291/337/343 290/336/342 154/344/350 295/339/345
f 288/338/344 239/199/332 294/341/347
f 442/345/351 305/346/352 304/347/353 441/348/354
f 299/349/355 302/350/356 301/351/357 298/352/358
f 440/353/359 303/354/360 302/350/356 299/349/355
f 439/355/361 300/356/362 384/357/363
f 441/348/354 304/347/353 303/354/360 440/353/359
f 298/352/358 301/351/357 300/358/362 439/359/361
f 303/354/360 309/360/364 308/361/365 302/350/356
f 300/356/362 306/362/366 384/357/363
f 304/347/353 310/363/367 309/360/364 303/354/360
f 301/351/357 307/364/368 306/365/366 300/358/362
f 305/346/352 311/366/369 310/363/367 304/347/353
f 302/350/356 308/361/365 307/364/368 301/351/357
f 308/361/365 314/367/370 313/368/371 307/364/368
f 309/360/364 315/369/372 314/367/370 308/361/365
f 306/362/366 312/370/373 384/357/363
f 310/363/367 316/371/374 315/369/372 309/360/364
f 307/364/368 313/368/371 312/372/373 306/365/366
f 311/366/369 317/373/375 316/371/374 310/363/367
f 316/371/374 322/374/376 321/375/377 315/369/372
f 313/368/371 319/376/378 318/377/379 312/372/373
f 317/373/375 323/378/380 322/374/376 316/371/374
f 314/367/370 320/379/381 319/376/378 313/368/371
f 315/369/372 321/375/377 320/379/381 314/367/370
f 312/370/373 318/380/379 384/357/363
f 321/381/382 327/382/383 326/383/384 320/384/385
f 318/380/386 324/385/387 384/357/388
f 322/386/389 328/387/390 327/382/383 321/381/382
f 319/388/391 325/389/392 324/385/387 318/380/386
f 323/390/393 329/391/394 328/387/390 322/386/389
f 320/384/385 326/383/384 325/389/392 319/388/391
f 329/391/394 335/392/395 334/393/396 328/387/390
f 326/383/384 332/394/397 331/395/398 325/389/392
f 327/382/383 333/396/399 332/394/397 326/383/384
f 324/385/387 330/397/400 384/357/388
f 328/387/390 334/393/396 333/396/399 327/382/383
f 325/389/392 331/395/398 330/397/400 324/385/387
f 334/393/396 340/398/401 339/399/402 333/396/399
f 331/395/398 337/400/403 336/401/404 330/397/400
f 335/392/395 341/402/405 340/398/401 334/393/396
f 332/394/397 338/403/406 337/400/403 331/395/398
f 333/396/399 339/399/402 338/403/406 332/394/397
f 330/397/400 336/401/404 384/357/388
f 339/399/402 345/404/407 344/405/408 338/403/406
f 336/401/404 342/406/409 384/357/388
f 340/398/401 346/407/410 345/404/407 339/399/402
f 337/400/403 343/408/411 342/406/409 336/401/404
f 341/402/405 347/409/412 346/407/410 340/398/401
f 338/403/406 344/405/408 343/408/411 337/400/403
f 347/410/413 353/411/414 352/412/415 346/413/416
f 344/414/417 350/415/418 349/416/419 343/417/420
f 345/418/421 351/419/422 350/415/418 344/414/417
f 342/406/423 348/420/424 384/357/425
f 346/413/416 352/412/415 351/419/422 345/418/421
f 343/417/420 349/416/419 348/421/424 342/422/423
f 352/412/415 358/423/426 357/424/427 351/419/422
f 349/416/419 355/425/428 354/426/429 348/421/424
f 353/411/414 359/427/430 358/423/426 352/412/415
f 350/415/418 356/428/431 355/425/428 349/416/419
f 351/419/422 357/424/427 356/428/431 350/415/418
f 348/420/424 354/429/429 384/357/425
f 357/424/427 363/430/432 362/431/433 356/428/431
f 354/429/429 360/432/434 384/357/425
f 358/423/426 364/433/435 363/430/432 357/424/427
f 355/425/428 361/434/436 360/435/434 354/426/429
f 359/427/430 365/436/437 364/433/435 358/423/426
f 356/428/431 362/431/433 361/434/436 355/425/428
f 365/436/437 371/437/438 370/438/439 364/433/435
f 362/431/433 368/439/440 367/440/441 361/434/436
f 363/430/432 369/441/442 368/439/440 362/431/433
f 360/432/434 366/442/443 384/357/425
f 364/433/435 370/438/439 369/441/442 363/430/432
f 361/434/436 367/440/441 366/443/443 360/435/434
f 366/442/444 372/444/445 384/357/446
f 370/445/447 376/446/448 375/447/449 369/448/450
f 367/449/451 373/450/452 372/444/445 366/442/444
f 371/451/453 377/452/454 376/446/448 370/445/447
f 368/453/455 374/454/456 373/450/452 367/449/451
f 369/448/450 375/447/449 374/454/456 368/453/455
f 375/447/449 381/455/457 380/456/458 374/454/456
f 372/444/445 378/457/459 384/357/446
f 376/446/448 382/458/460 381/455/457 375/447/449
f 373/450/452 379/459/461 378/457/459 372/444/445
f 377/452/454 383/460/462 382/458/460 376/446/448
f 374/454/456 380/456/458 379/459/461 373/450/452
f 379/459/461 386/461/463 385/462/464 378/457/459
f 383/460/462 390/463/465 389/464/466 382/458/460
f 380/456/458 387/465/467 386/461/463 379/459/461
f 381/455/457 388/466/468 387/465/467 380/456/458
f 378/457/459 385/462/464 384/357/446
f 382/458/460 389/464/466 388/466/468 381/455/457
f 385/462/464 391/467/469 384/357/446
f 389/464/466 395/468/470 394/469/471 388/466/468
f 386/461/463 392/470/472 391/467/469 385/462/464
f 390/463/465 396/471/473 395/468/470 389/464/466
f 387/465/467 393/472/474 392/470/472 386/461/463
f 388/466/468 394/469/471 393/472/474 387/465/467
f 393/473/475 399/474/476 398/475/477 392/476/478
f 394/477/479 400/478/480 399/474/476 393/473/475
f 391/467/481 397/479/482 384/357/483
f 395/480/484 401/481/485 400/478/480 394/477/479
f 392/476/478 398/475/477 397/482/482 391/483/481
f 396/484/486 402/485/487 401/481/485 395/480/484
f 398/475/477 404/486/488 403/487/489 397/482/482
f 402/485/487 408/488/490 407/489/491 401/481/485
f 399/474/476 405/490/492 404/486/488 398/475/477
f 400/478/480 406/491/493 405/490/492 399/474/476
f 397/479/482 403/492/489 384/357/483
f 401/481/485 407/489/491 406/491/493 400/478/480
f 406/491/493 412/493/494 411/494/495 405/490/492
f 403/492/489 409/495/496 384/357/483
f 407/489/491 413/496/497 412/493/494 406/491/493
f 404/486/488 410/497/498 409/498/496 403/487/489
f 408/488/490 414/499/499 413/496/497 407/489/491
f 405/490/492 411/494/495 410/497/498 404/486/488
f 411/494/495 417/500/500 416/501/501 410/497/498
f 412/493/494 418/502/502 417/500/500 411/494/495
f 409/495/496 415/503/503 384/357/483
f 413/496/497 419/504/504 418/502/502 412/493/494
f 410/497/498 416/501/501 415/505/503 409/498/496
f 414/499/499 420/506/505 419/504/504 413/496/497
f 419/507/506 425/508/507 424/509/508 418/510/509
f 416/511/510 422/512/511 421/513/512 415/503/513
f 420/514/514 426/515/515 425/508/507 419/507/506
f 417/516/516 423/517/517 422/512/511 416/511/510
f 418/510/509 424/509/508 423/517/517 417/516/516
f 415/503/513 421/513/512 384/357/518
f 424/509/508 430/518/519 429/519/520 423/517/517
f 421/513/512 427/520/521 384/357/518
f 425/508/507 431/521/522 430/518/519 424/509/508
f 422/512/511 428/522/523 427/520/521 421/513/512
f 426/515/515 432/523/524 431/521/522 425/508/507
f 423/517/517 429/519/520 428/522/523 422/512/511
f 432/523/524 438/524/525 437/525/526 431/521/522
f 429/519/520 435/526/527 434/527/528 428/522/523
f 430/518/519 436/528/529 435/526/527 429/519/520
f 427/520/521 433/529/530 384/357/518
f 431/521/522 437/525/526 436/528/529 430/518/519
f 428/522/523 434/527/528 433/529/530 427/520/521
f 437/525/526 441/530/531 440/531/532 436/528/529
f 434/527/528 298/532/533 439/355/534 433/529/530
f 438/524/525 442/533/535 441/530/531 437/525/526
f 435/526/527 299/534/536 298/532/533 434/527/528
f 436/528/529 440/531/532 299/534/536 435/526/527
f 433/529/530 439/355/534 384/357/518
f 444/535/537 335/392/537 329/391/538 443/536/539
f 445/537/540 341/402/541 335/392/537 444/535/537
f 447/538/542 414/499/543 408/488/544 446/539/544
f 443/536/539 329/391/538 323/390/545 448/540/545
f 449/541/546 420/506/546 414/499/543 447/538/542
f 446/539/544 408/488/544 402/485/547 450/542/548
f 452/543/549 438/524/550 432/523/551 451/544/551
f 454/545/552 365/436/553 359/427/554 453/546/554
f 456/547/555 353/411/556 347/410/557 455/548/557
f 453/546/554 359/427/554 353/411/556 456/547/555
f 458/549/558 396/471/558 390/463/559 457/550/560
f 460/551/561 305/346/562 442/345/563 459/552/563
f 448/553/564 323/378/564 317/373/565 461/554/566
f 451/544/551 432/523/551 426/515/567 462/555/568
f 463/556/569 311/366/569 305/346/562 460/551/561
f 450/542/548 402/485/547 396/484/570 458/557/570
f 457/550/560 390/463/559 383/460/571 464/558/571
f 461/554/566 317/373/565 311/366/569 463/556/569
f 459/559/572 442/533/572 438/524/550 452/543/549
f 464/558/571 383/460/571 377/452/573 465/560/574
f 466/561/575 371/437/575 365/436/553 454/545/552
f 465/560/574 377/452/573 371/451/576 466/562/576
f 462/555/568 426/515/567 420/514/577 449/563/577
f 455/564/578 347/409/578 341/402/541 445/537/540
f 202/224/579 455/564/579 445/537/580 196/217/581
f 281/324/582 462/555/583 449/563/584 275/323/584
f 232/264/585 465/560/586 466/562/587 226/263/587
f 226/250/588 466/561/588 454/545/589 220/248/590
f 238/272/591 464/558/591 465/560/586 232/264/585
f 297/343/592 459/559/592 452/543/593 293/334/594
f 172/187/595 461/554/596 463/556/597 166/181/597
f 245/276/598 457/550/599 464/558/591 238/272/591
f 257/296/600 450/542/601 458/557/602 251/295/602
f 166/181/597 463/556/597 460/551/603 160/166/604
f 287/332/605 451/544/605 462/555/583 281/324/582
f 178/192/606 448/553/606 461/554/596 172/187/595
f 160/166/604 460/551/603 459/552/607 297/163/607
f 251/283/608 458/549/608 457/550/599 245/276/598
f 214/241/609 453/546/609 456/547/610 208/228/611
f 208/228/611 456/547/610 455/548/612 202/225/612
f 220/248/590 454/545/589 453/546/609 214/241/609
f 293/334/594 452/543/593 451/544/605 287/332/605
f 263/300/613 446/539/613 450/542/601 257/296/600
f 275/314/614 449/541/614 447/538/615 269/308/616
f 184/206/617 443/536/618 448/540/619 178/205/619
f 269/308/616 447/538/615 446/539/613 263/300/613
f 196/217/581 445/537/580 444/535/620 190/208/620
f 190/208/620 444/535/620 443/536/618 184/206/617
