# Blender v3.4.1 OBJ File: 'MixedBag1_Export.blend'
# www.blender.org
mtllib waterbottle_B.mtl
o waterbottle_B
v 0.036498 0.730000 -0.063216
v 0.000000 0.730000 -0.072996
v 0.063216 0.730000 -0.036498
v 0.072996 0.730000 0.000000
v 0.063216 0.730000 0.036498
v 0.036498 0.730000 0.063216
v 0.000000 0.730000 0.072996
v -0.036498 0.730000 0.063216
v -0.063216 0.730000 0.036498
v -0.072996 0.730000 0.000000
v -0.063216 0.730000 -0.036498
v -0.036498 0.730000 -0.063216
v 0.032117 0.815326 -0.055629
v 0.000000 0.815326 -0.064235
v 0.055629 0.815326 -0.032117
v 0.064235 0.815326 0.000000
v 0.055629 0.815326 0.032117
v 0.032117 0.815326 0.055629
v 0.000000 0.815326 0.064235
v -0.032117 0.815326 0.055629
v -0.055629 0.815326 0.032117
v -0.064235 0.815326 0.000000
v -0.055629 0.815326 -0.032117
v -0.032117 0.815326 -0.055629
v -0.085203 0.746331 0.000000
v -0.085203 0.798994 -0.000000
v -0.073788 0.798994 -0.042601
v -0.073788 0.746331 -0.042601
v 0.000000 0.746331 0.085203
v 0.000000 0.798994 0.085203
v -0.042601 0.798994 0.073788
v -0.042601 0.746331 0.073788
v 0.085203 0.746331 0.000000
v 0.085203 0.798994 0.000000
v 0.073788 0.798994 0.042601
v 0.073788 0.746331 0.042601
v -0.042601 0.798994 -0.073788
v -0.042601 0.746331 -0.073788
v 0.000000 0.746331 -0.085203
v 0.000000 0.798994 -0.085203
v 0.042601 0.798994 -0.073788
v 0.042601 0.746331 -0.073788
v -0.073788 0.798994 0.042601
v -0.073788 0.746331 0.042601
v 0.042601 0.798994 0.073788
v 0.042601 0.746331 0.073788
v 0.073788 0.798994 -0.042601
v 0.073788 0.746331 -0.042601
v 0.000000 -0.000000 -0.138790
v 0.000000 0.025000 -0.164672
v 0.082336 0.025000 -0.142610
v 0.069395 -0.000000 -0.120195
v 0.142610 0.025000 -0.082336
v 0.120195 -0.000000 -0.069395
v 0.164672 0.025000 0.000000
v 0.138790 -0.000000 0.000000
v 0.142610 0.025000 0.082336
v 0.120195 -0.000000 0.069395
v 0.082336 0.025000 0.142610
v 0.069395 -0.000000 0.120195
v -0.000000 0.025000 0.164672
v -0.000000 -0.000000 0.138790
v -0.082336 0.025000 0.142610
v -0.069395 -0.000000 0.120195
v -0.142610 0.025000 0.082336
v -0.120195 -0.000000 0.069395
v -0.164672 0.025000 -0.000000
v -0.138790 -0.000000 -0.000000
v -0.142610 0.025000 -0.082336
v -0.120195 -0.000000 -0.069395
v -0.082336 0.025000 -0.142610
v -0.069395 -0.000000 -0.120195
v 0.000000 0.142464 -0.157147
v 0.000000 0.195036 -0.150208
v 0.000000 0.168750 -0.142002
v 0.000000 0.286214 -0.143253
v 0.000000 0.338786 -0.143253
v 0.000000 0.312500 -0.132305
v 0.000000 0.429964 -0.150208
v 0.000000 0.482536 -0.157147
v 0.000000 0.456250 -0.142002
v 0.078574 0.482536 -0.136093
v 0.075104 0.429964 -0.130084
v 0.071001 0.456250 -0.122977
v 0.071627 0.338786 -0.124061
v 0.071627 0.286214 -0.124061
v 0.066152 0.312500 -0.114579
v 0.075104 0.195036 -0.130084
v 0.078574 0.142464 -0.136093
v 0.071001 0.168750 -0.122977
v -0.075104 0.195036 -0.130084
v -0.078574 0.142464 -0.136093
v -0.071001 0.168750 -0.122977
v -0.071627 0.338786 -0.124061
v -0.071627 0.286214 -0.124061
v -0.066152 0.312500 -0.114579
v -0.078574 0.482536 -0.136093
v -0.075104 0.429964 -0.130084
v -0.071001 0.456250 -0.122977
v 0.130084 0.429964 -0.075104
v 0.136093 0.482536 -0.078574
v 0.122977 0.456250 -0.071001
v 0.124061 0.286214 -0.071627
v 0.124061 0.338786 -0.071627
v 0.114579 0.312500 -0.066152
v 0.136093 0.142464 -0.078574
v 0.130084 0.195036 -0.075104
v 0.122977 0.168750 -0.071001
v 0.157147 0.482536 0.000000
v 0.150208 0.429964 0.000000
v 0.142002 0.456250 0.000000
v 0.143253 0.338786 0.000000
v 0.143253 0.286214 0.000000
v 0.132305 0.312500 0.000000
v 0.150208 0.195036 0.000000
v 0.157147 0.142464 0.000000
v 0.142002 0.168750 0.000000
v 0.136093 0.482536 0.078574
v 0.130084 0.429964 0.075104
v 0.122977 0.456250 0.071001
v 0.124061 0.338786 0.071627
v 0.124061 0.286214 0.071627
v 0.114579 0.312500 0.066152
v 0.130084 0.195036 0.075104
v 0.136093 0.142464 0.078574
v 0.122977 0.168750 0.071001
v 0.078574 0.482536 0.136093
v 0.075104 0.429964 0.130084
v 0.071001 0.456250 0.122977
v 0.071627 0.338786 0.124061
v 0.071627 0.286214 0.124061
v 0.066152 0.312500 0.114579
v 0.075104 0.195036 0.130084
v 0.078574 0.142464 0.136093
v 0.071001 0.168750 0.122977
v -0.000000 0.482536 0.157147
v -0.000000 0.429964 0.150208
v 0.000000 0.456250 0.142002
v -0.000000 0.338786 0.143253
v -0.000000 0.286214 0.143253
v 0.000000 0.312500 0.132305
v -0.000000 0.195036 0.150208
v -0.000000 0.142464 0.157147
v 0.000000 0.168750 0.142002
v -0.078574 0.482536 0.136093
v -0.075104 0.429964 0.130084
v -0.071001 0.456250 0.122977
v -0.071627 0.338786 0.124061
v -0.071627 0.286214 0.124061
v -0.066152 0.312500 0.114579
v -0.075104 0.195036 0.130084
v -0.078574 0.142464 0.136093
v -0.071001 0.168750 0.122977
v -0.136093 0.482536 0.078574
v -0.130084 0.429964 0.075104
v -0.122977 0.456250 0.071001
v -0.124061 0.338786 0.071627
v -0.124061 0.286214 0.071627
v -0.114579 0.312500 0.066152
v -0.130084 0.195036 0.075104
v -0.136093 0.142464 0.078574
v -0.122977 0.168750 0.071001
v -0.157147 0.482536 -0.000000
v -0.150208 0.429964 -0.000000
v -0.142002 0.456250 -0.000000
v -0.143253 0.338786 -0.000000
v -0.143253 0.286214 -0.000000
v -0.132305 0.312500 -0.000000
v -0.150208 0.195036 -0.000000
v -0.157147 0.142464 -0.000000
v -0.142002 0.168750 -0.000000
v -0.130084 0.429964 -0.075104
v -0.136093 0.482536 -0.078574
v -0.122977 0.456250 -0.071001
v -0.124061 0.286214 -0.071627
v -0.124061 0.338786 -0.071627
v -0.114579 0.312500 -0.066152
v -0.136093 0.142464 -0.078574
v -0.130084 0.195036 -0.075104
v -0.122977 0.168750 -0.071001
v 0.000000 0.815326 0.000000
v -0.000000 -0.000000 0.000000
v 0.000000 0.573227 -0.164644
v 0.000000 0.622128 -0.149067
v 0.074534 0.622128 -0.129096
v 0.082322 0.573227 -0.142586
v 0.129096 0.622128 -0.074534
v 0.142586 0.573227 -0.082322
v 0.149067 0.622128 0.000000
v 0.164644 0.573227 0.000000
v 0.129096 0.622128 0.074534
v 0.142586 0.573227 0.082322
v 0.074534 0.622128 0.129096
v 0.082322 0.573227 0.142586
v -0.000000 0.622128 0.149067
v -0.000000 0.573227 0.164644
v -0.074534 0.622128 0.129096
v -0.082322 0.573227 0.142586
v -0.129096 0.622128 0.074534
v -0.142586 0.573227 0.082322
v -0.149067 0.622128 -0.000000
v -0.164644 0.573227 -0.000000
v -0.129096 0.622128 -0.074534
v -0.142586 0.573227 -0.082322
v -0.074534 0.622128 -0.129096
v -0.082322 0.573227 -0.142586
v 0.000000 0.026015 -0.119937
v 0.000000 0.047619 -0.142303
v 0.071152 0.047619 -0.123238
v 0.059969 0.026015 -0.103868
v 0.123238 0.047619 -0.071152
v 0.103869 0.026015 -0.059968
v 0.142303 0.047619 0.000000
v 0.119937 0.026015 0.000000
v 0.123238 0.047619 0.071152
v 0.103869 0.026015 0.059968
v 0.071152 0.047619 0.123238
v 0.059969 0.026015 0.103868
v 0.000000 0.047619 0.142303
v 0.000000 0.026015 0.119937
v -0.071151 0.047619 0.123238
v -0.059968 0.026015 0.103868
v -0.123238 0.047619 0.071152
v -0.103868 0.026015 0.059968
v -0.142303 0.047619 -0.000000
v -0.119937 0.026015 -0.000000
v -0.123238 0.047619 -0.071152
v -0.103868 0.026015 -0.059968
v -0.071151 0.047619 -0.123238
v -0.059968 0.026015 -0.103868
v 0.000000 0.552641 0.000000
v 0.000000 0.541644 -0.141214
v 0.000000 0.552641 -0.130481
v 0.065241 0.552641 -0.113000
v 0.070607 0.541644 -0.122295
v 0.113000 0.552641 -0.065240
v 0.122295 0.541644 -0.070607
v 0.130481 0.552641 0.000000
v 0.141214 0.541644 0.000000
v 0.113000 0.552641 0.065240
v 0.122295 0.541644 0.070607
v 0.065241 0.552641 0.113000
v 0.070607 0.541644 0.122295
v 0.000000 0.552641 0.130481
v 0.000000 0.541644 0.141214
v -0.065240 0.552641 0.113000
v -0.070607 0.541644 0.122295
v -0.112999 0.552641 0.065240
v -0.122295 0.541644 0.070607
v -0.130481 0.552641 -0.000000
v -0.141214 0.541644 -0.000000
v -0.112999 0.552641 -0.065240
v -0.122295 0.541644 -0.070607
v -0.065240 0.552641 -0.113000
v -0.070607 0.541644 -0.122295
v 0.000000 0.026015 0.000000
v 0.000000 0.238337 -0.125501
v 0.000000 0.312500 -0.121190
v 0.000000 0.386663 -0.125020
v 0.062510 0.386663 -0.108270
v 0.060595 0.312500 -0.104954
v 0.062751 0.238337 -0.108687
v -0.062750 0.238337 -0.108687
v -0.060595 0.312500 -0.104954
v -0.062510 0.386663 -0.108270
v 0.108270 0.386663 -0.062510
v 0.104954 0.312500 -0.060595
v 0.108687 0.238337 -0.062750
v 0.125020 0.386663 0.000000
v 0.121191 0.312500 0.000000
v 0.125501 0.238337 0.000000
v 0.108270 0.386663 0.062510
v 0.104954 0.312500 0.060595
v 0.108687 0.238337 0.062750
v 0.062510 0.386663 0.108270
v 0.060595 0.312500 0.104954
v 0.062751 0.238337 0.108687
v 0.000000 0.386663 0.125020
v 0.000000 0.312500 0.121190
v 0.000000 0.238337 0.125501
v -0.062510 0.386663 0.108270
v -0.060595 0.312500 0.104954
v -0.062750 0.238337 0.108687
v -0.108270 0.386663 0.062510
v -0.104954 0.312500 0.060595
v -0.108687 0.238337 0.062750
v -0.125019 0.386663 -0.000000
v -0.121190 0.312500 -0.000000
v -0.125501 0.238337 -0.000000
v -0.108270 0.386663 -0.062510
v -0.104954 0.312500 -0.060595
v -0.108687 0.238337 -0.062750
vt 0.763775 0.120466
vt 0.757614 0.120466
vt 0.764202 0.129281
vt 0.769481 0.129281
vt 0.780607 0.120466
vt 0.803601 0.120466
vt 0.803601 0.129281
vt 0.783901 0.129281
vt 0.843427 0.120466
vt 0.849588 0.120466
vt 0.843000 0.129281
vt 0.837721 0.129281
vt 0.780607 0.120466
vt 0.783901 0.129281
vt 0.826595 0.120466
vt 0.803601 0.120466
vt 0.803601 0.129281
vt 0.823300 0.129281
vt 0.763775 0.120466
vt 0.769481 0.129281
vt 0.826595 0.120466
vt 0.823300 0.129281
vt 0.843427 0.120466
vt 0.837721 0.129281
vt 0.843000 0.020727
vt 0.837721 0.020727
vt 0.843427 0.029542
vt 0.849588 0.029542
vt 0.803601 0.060792
vt 0.826595 0.060792
vt 0.826595 0.089216
vt 0.803601 0.089216
vt 0.803601 0.020727
vt 0.823300 0.020727
vt 0.826595 0.029542
vt 0.803601 0.029542
vt 0.757614 0.060792
vt 0.763775 0.060792
vt 0.763775 0.089216
vt 0.757614 0.089216
vt 0.764202 0.020727
vt 0.769481 0.020727
vt 0.763775 0.029542
vt 0.757614 0.029542
vt 0.843427 0.060792
vt 0.826595 0.060792
vt 0.826595 0.089216
vt 0.843427 0.089216
vt 0.823300 0.020727
vt 0.826595 0.029542
vt 0.803601 0.060792
vt 0.780607 0.060792
vt 0.780607 0.089216
vt 0.803601 0.089216
vt 0.803601 0.020727
vt 0.783901 0.020727
vt 0.780607 0.029542
vt 0.803601 0.029542
vt 0.843427 0.060792
vt 0.843427 0.089216
vt 0.837721 0.020727
vt 0.843427 0.029542
vt 0.780607 0.060792
vt 0.780607 0.089216
vt 0.783901 0.020727
vt 0.780607 0.029542
vt 0.763775 0.060792
vt 0.763775 0.089216
vt 0.769481 0.020727
vt 0.763775 0.029542
vt 0.849588 0.060792
vt 0.849588 0.089216
vt 0.820549 0.129281
vt 0.803601 0.129281
vt 0.786653 0.129281
vt 0.774247 0.129281
vt 0.769705 0.129281
vt 0.832955 0.129281
vt 0.837496 0.129281
vt 0.835427 0.180149
vt 0.824984 0.180149
vt 0.810718 0.180149
vt 0.796452 0.180149
vt 0.786008 0.180149
vt 0.839250 0.180149
vt 0.782186 0.180149
vt 0.786008 0.180149
vt 0.796452 0.180149
vt 0.810718 0.180149
vt 0.824984 0.180149
vt 0.835427 0.180149
vt 0.810718 0.070084
vt 0.826225 0.070084
vt 0.823787 0.065376
vt 0.810718 0.065376
vt 0.837576 0.070084
vt 0.833355 0.065376
vt 0.841731 0.070084
vt 0.836857 0.065376
vt 0.837576 0.070084
vt 0.833355 0.065376
vt 0.826225 0.070084
vt 0.823787 0.065376
vt 0.810718 0.070084
vt 0.810718 0.065376
vt 0.795211 0.070084
vt 0.797649 0.065376
vt 0.783860 0.070084
vt 0.788081 0.065376
vt 0.779705 0.070084
vt 0.784579 0.065376
vt 0.783860 0.070084
vt 0.788081 0.065376
vt 0.795211 0.070084
vt 0.797648 0.065376
vt 0.810718 0.180149
vt 0.810718 0.097001
vt 0.826225 0.097001
vt 0.795211 0.150835
vt 0.795211 0.177752
vt 0.810718 0.177752
vt 0.810718 0.150835
vt 0.783860 0.150835
vt 0.783860 0.177752
vt 0.779705 0.150835
vt 0.779705 0.177752
vt 0.783860 0.150835
vt 0.783860 0.177752
vt 0.795211 0.150835
vt 0.795211 0.177752
vt 0.810718 0.150835
vt 0.810718 0.177752
vt 0.826225 0.150835
vt 0.826225 0.177752
vt 0.837576 0.150835
vt 0.837576 0.177752
vt 0.841731 0.150835
vt 0.841731 0.177752
vt 0.837576 0.150835
vt 0.837576 0.177752
vt 0.826225 0.150835
vt 0.826225 0.177752
vt 0.810718 0.065376
vt 0.823787 0.065376
vt 0.833355 0.065376
vt 0.836857 0.065376
vt 0.797649 0.065376
vt 0.788081 0.065376
vt 0.784579 0.065376
vt 0.837576 0.097001
vt 0.826225 0.123918
vt 0.837576 0.123918
vt 0.841731 0.097001
vt 0.841731 0.123918
vt 0.837576 0.097001
vt 0.837576 0.123918
vt 0.826225 0.097001
vt 0.826225 0.123918
vt 0.810718 0.097001
vt 0.810718 0.123918
vt 0.795211 0.097001
vt 0.795211 0.123918
vt 0.783859 0.097001
vt 0.783859 0.123918
vt 0.779705 0.097001
vt 0.779705 0.123918
vt 0.783859 0.097001
vt 0.783859 0.123918
vt 0.795211 0.097001
vt 0.795211 0.123918
vt 0.810718 0.123918
vt 0.836492 0.142166
vt 0.836493 0.156393
vt 0.827038 0.156393
vt 0.827038 0.142166
vt 0.836492 0.142166
vt 0.836493 0.156393
vt 0.839953 0.156393
vt 0.839953 0.142166
vt 0.825814 0.164063
vt 0.814122 0.164063
vt 0.814122 0.180985
vt 0.819847 0.180985
vt 0.801206 0.142166
vt 0.801206 0.156393
vt 0.814122 0.156393
vt 0.814122 0.142166
vt 0.827038 0.142166
vt 0.827038 0.156393
vt 0.791752 0.142166
vt 0.791752 0.156393
vt 0.788291 0.142166
vt 0.788291 0.156393
vt 0.791752 0.142166
vt 0.791752 0.156393
vt 0.801206 0.142166
vt 0.801206 0.156393
vt 0.814122 0.142166
vt 0.814122 0.156393
vt 0.788291 0.119617
vt 0.788291 0.133920
vt 0.791752 0.133920
vt 0.791752 0.119617
vt 0.837505 0.164063
vt 0.834373 0.164063
vt 0.824038 0.180985
vt 0.825573 0.180985
vt 0.827038 0.119617
vt 0.827038 0.133920
vt 0.836492 0.133920
vt 0.836492 0.119617
vt 0.791752 0.119617
vt 0.791752 0.133920
vt 0.801206 0.119617
vt 0.801206 0.133920
vt 0.814122 0.119617
vt 0.814122 0.133920
vt 0.827038 0.119617
vt 0.827038 0.133920
vt 0.836492 0.119617
vt 0.836492 0.133920
vt 0.839953 0.119617
vt 0.839953 0.133920
vt 0.814122 0.070395
vt 0.827038 0.070395
vt 0.825008 0.066473
vt 0.814122 0.066473
vt 0.836492 0.070395
vt 0.832976 0.066473
vt 0.839953 0.070395
vt 0.835893 0.066473
vt 0.836492 0.070395
vt 0.832976 0.066473
vt 0.827038 0.070395
vt 0.825008 0.066473
vt 0.814122 0.070395
vt 0.814122 0.066473
vt 0.801206 0.070395
vt 0.803236 0.066473
vt 0.791752 0.070395
vt 0.795268 0.066473
vt 0.788291 0.070395
vt 0.792351 0.066473
vt 0.791752 0.070395
vt 0.795268 0.066473
vt 0.801206 0.070395
vt 0.803236 0.066473
vt 0.801206 0.097068
vt 0.801206 0.111370
vt 0.814122 0.111370
vt 0.814122 0.097068
vt 0.802430 0.164063
vt 0.808397 0.180985
vt 0.814122 0.088821
vt 0.827038 0.088821
vt 0.834373 0.164063
vt 0.824038 0.180985
vt 0.836492 0.088821
vt 0.839953 0.088821
vt 0.836492 0.097068
vt 0.836492 0.111370
vt 0.839953 0.111370
vt 0.839953 0.097068
vt 0.825814 0.164063
vt 0.819847 0.180985
vt 0.836492 0.088821
vt 0.836492 0.111370
vt 0.836492 0.097068
vt 0.814122 0.164063
vt 0.814122 0.180985
vt 0.827038 0.088821
vt 0.827038 0.111370
vt 0.827038 0.097068
vt 0.802430 0.164063
vt 0.808397 0.180985
vt 0.814122 0.088821
vt 0.814122 0.111370
vt 0.814122 0.097068
vt 0.793871 0.164063
vt 0.804206 0.180985
vt 0.801206 0.088821
vt 0.801206 0.111370
vt 0.801206 0.097068
vt 0.790739 0.164063
vt 0.802671 0.180985
vt 0.791752 0.088821
vt 0.791752 0.111370
vt 0.791752 0.097068
vt 0.793871 0.164063
vt 0.804206 0.180985
vt 0.788291 0.088821
vt 0.788291 0.111370
vt 0.788291 0.097068
vt 0.791752 0.088821
vt 0.801206 0.088821
vt 0.827038 0.097068
vt 0.827038 0.111370
vt 0.791752 0.097068
vt 0.791752 0.111370
vt 0.801206 0.133920
vt 0.801206 0.119617
vt 0.814122 0.133920
vt 0.814122 0.119617
vt 0.814122 0.138043
vt 0.826051 0.138043
vt 0.814122 0.115494
vt 0.826051 0.115494
vt 0.814122 0.092944
vt 0.826051 0.092944
vt 0.837979 0.092944
vt 0.834783 0.092944
vt 0.837979 0.115494
vt 0.834783 0.115494
vt 0.837979 0.138043
vt 0.834783 0.138043
vt 0.834783 0.092944
vt 0.834783 0.115494
vt 0.834783 0.138043
vt 0.826051 0.092944
vt 0.826051 0.115494
vt 0.826051 0.138043
vt 0.814122 0.092944
vt 0.814122 0.115494
vt 0.814122 0.138043
vt 0.802194 0.092944
vt 0.802194 0.115494
vt 0.802194 0.138043
vt 0.793461 0.092944
vt 0.793461 0.115494
vt 0.793461 0.138043
vt 0.790265 0.092944
vt 0.790265 0.115494
vt 0.790265 0.138043
vt 0.802193 0.092944
vt 0.793461 0.092944
vt 0.802193 0.115494
vt 0.793461 0.115494
vt 0.802193 0.138043
vt 0.793461 0.138043
vt 0.814122 0.066473
vt 0.822459 0.066473
vt 0.828562 0.066473
vt 0.830796 0.066473
vt 0.805785 0.066473
vt 0.799682 0.066473
vt 0.797448 0.066473
vn -0.5322 0.7889 -0.3072
vn -0.6145 0.7889 0.0000
vn -0.3715 0.9284 0.0000
vn -0.3217 0.9284 -0.1857
vn -0.3072 0.7889 0.5322
vn 0.0000 0.7889 0.6145
vn 0.0000 0.9284 0.3715
vn -0.1857 0.9284 0.3217
vn 0.5322 0.7889 0.3072
vn 0.6145 0.7889 0.0000
vn 0.3715 0.9284 -0.0000
vn 0.3217 0.9284 0.1857
vn -0.3072 0.7889 -0.5322
vn -0.1857 0.9284 -0.3217
vn 0.3072 0.7889 -0.5322
vn -0.0000 0.7889 -0.6145
vn -0.0000 0.9284 -0.3715
vn 0.1857 0.9284 -0.3217
vn -0.5322 0.7889 0.3072
vn -0.3217 0.9284 0.1857
vn 0.3072 0.7889 0.5322
vn 0.1857 0.9284 0.3217
vn 0.5322 0.7889 -0.3072
vn 0.3217 0.9284 -0.1857
vn 0.8010 -0.5987 0.0000
vn 0.6937 -0.5987 -0.4005
vn 0.8259 -0.3009 -0.4768
vn 0.9537 -0.3009 0.0000
vn -0.0000 -0.3009 0.9537
vn 0.4768 -0.3009 0.8259
vn 0.5000 -0.0000 0.8660
vn -0.0000 -0.0000 1.0000
vn 0.0000 -0.5987 0.8010
vn 0.4005 -0.5987 0.6937
vn -0.9537 -0.3009 0.0000
vn -0.8259 -0.3009 0.4768
vn -0.8660 0.0000 0.5000
vn -1.0000 0.0000 0.0000
vn -0.8010 -0.5987 0.0000
vn -0.6937 -0.5987 0.4005
vn 0.4768 -0.3009 -0.8259
vn 0.5000 -0.0000 -0.8660
vn 0.8660 -0.0000 -0.5000
vn 0.4005 -0.5987 -0.6937
vn 0.0000 -0.3009 -0.9537
vn -0.4768 -0.3009 -0.8259
vn -0.5000 0.0000 -0.8660
vn -0.0000 0.0000 -1.0000
vn 0.0000 -0.5987 -0.8010
vn -0.4005 -0.5987 -0.6937
vn 0.8259 -0.3009 0.4768
vn 0.8660 -0.0000 0.5000
vn 0.6937 -0.5987 0.4005
vn -0.4768 -0.3009 0.8259
vn -0.5000 0.0000 0.8660
vn -0.4005 -0.5987 0.6937
vn -0.8259 -0.3009 -0.4768
vn -0.8660 0.0000 -0.5000
vn -0.6937 -0.5987 -0.4005
vn 1.0000 -0.0000 0.0000
vn 0.0000 1.0000 -0.0000
vn -0.0000 -0.7193 -0.6947
vn 0.3474 -0.7193 -0.6017
vn 0.6017 -0.7193 -0.3474
vn 0.6947 -0.7193 -0.0000
vn 0.6017 -0.7193 0.3474
vn 0.3474 -0.7193 0.6017
vn -0.0000 -0.7193 0.6947
vn -0.3474 -0.7193 0.6017
vn -0.6017 -0.7193 0.3474
vn -0.6947 -0.7193 -0.0000
vn -0.6017 -0.7193 -0.3474
vn -0.3474 -0.7193 -0.6017
vn 0.0000 0.0731 -0.9973
vn 0.4987 0.0731 -0.8637
vn 0.4981 0.0878 -0.8627
vn -0.0000 0.0878 -0.9961
vn -0.4985 -0.0781 -0.8634
vn -0.4973 -0.1039 -0.8613
vn -0.0000 -0.1039 -0.9946
vn -0.0000 -0.0781 -0.9969
vn -0.8634 -0.0781 -0.4985
vn -0.8613 -0.1039 -0.4973
vn -0.9969 -0.0781 -0.0000
vn -0.9946 -0.1039 -0.0000
vn -0.8634 -0.0781 0.4985
vn -0.8613 -0.1039 0.4973
vn -0.4985 -0.0781 0.8634
vn -0.4973 -0.1039 0.8613
vn -0.0000 -0.0781 0.9969
vn -0.0000 -0.1039 0.9946
vn 0.4985 -0.0781 0.8634
vn 0.4973 -0.1039 0.8613
vn 0.8634 -0.0781 0.4985
vn 0.8613 -0.1039 0.4973
vn 0.9969 -0.0781 0.0000
vn 0.9946 -0.1039 0.0000
vn 0.8634 -0.0781 -0.4985
vn 0.8613 -0.1039 -0.4973
vn 0.4985 -0.0781 -0.8634
vn 0.4973 -0.1039 -0.8613
vn 0.3578 0.6985 -0.6198
vn -0.0000 0.6985 -0.7156
vn 0.6198 0.6985 -0.3578
vn 0.7156 0.6985 -0.0000
vn 0.6198 0.6985 0.3578
vn 0.3578 0.6985 0.6198
vn -0.0000 0.6985 0.7156
vn -0.3578 0.6985 0.6198
vn -0.6198 0.6985 0.3578
vn -0.7156 0.6985 -0.0000
vn -0.6198 0.6985 -0.3578
vn -0.3578 0.6985 -0.6198
vn 0.0000 -1.0000 -0.0000
vn 0.8637 0.0731 -0.4987
vn 0.8627 0.0878 -0.4981
vn 0.5000 0.0033 -0.8660
vn 0.8660 0.0033 -0.5000
vn 0.9973 0.0731 -0.0000
vn 0.9961 0.0878 -0.0000
vn 1.0000 0.0033 -0.0000
vn 0.8637 0.0731 0.4987
vn 0.8627 0.0878 0.4981
vn 0.8660 0.0033 0.5000
vn 0.4987 0.0731 0.8637
vn 0.4981 0.0878 0.8627
vn 0.5000 0.0033 0.8660
vn -0.0000 0.0731 0.9973
vn -0.0000 0.0878 0.9961
vn -0.0000 0.0033 1.0000
vn -0.4987 0.0731 0.8637
vn -0.4981 0.0878 0.8627
vn -0.5000 0.0033 0.8660
vn -0.8637 0.0731 0.4987
vn -0.8627 0.0878 0.4981
vn -0.8660 0.0033 0.5000
vn -0.9973 0.0731 0.0000
vn -0.9961 0.0878 0.0000
vn -1.0000 0.0033 -0.0000
vn -0.8637 0.0731 -0.4987
vn -0.8627 0.0878 -0.4981
vn -0.8660 0.0033 -0.5000
vn -0.4987 0.0731 -0.8637
vn -0.4981 0.0878 -0.8627
vn -0.5000 0.0033 -0.8660
vn 0.0000 0.0033 -1.0000
vn 0.8631 -0.0824 0.4983
vn 0.8608 0.1093 0.4970
vn 0.4970 0.1093 0.8608
vn 0.4983 -0.0824 0.8631
vn 0.8631 -0.0824 -0.4983
vn 0.8608 0.1093 -0.4970
vn 0.9940 0.1093 0.0000
vn 0.9966 -0.0824 0.0000
vn 0.4501 0.4354 -0.7796
vn -0.0000 0.4354 -0.9002
vn 0.0000 0.5763 -0.8172
vn 0.4086 0.5763 -0.7077
vn -0.4983 -0.0824 -0.8631
vn -0.4970 0.1093 -0.8608
vn 0.0000 0.1093 -0.9940
vn 0.0000 -0.0824 -0.9966
vn 0.4983 -0.0824 -0.8631
vn 0.4970 0.1093 -0.8608
vn -0.8631 -0.0824 -0.4983
vn -0.8608 0.1093 -0.4970
vn -0.9966 -0.0824 0.0000
vn -0.9940 0.1093 0.0000
vn -0.8631 -0.0824 0.4983
vn -0.8608 0.1093 0.4970
vn -0.4983 -0.0824 0.8631
vn -0.4970 0.1093 0.8608
vn -0.0000 -0.0824 0.9966
vn -0.0000 0.1093 0.9940
vn -0.9971 -0.0761 0.0000
vn -0.8635 -0.0761 -0.4986
vn 0.9002 0.4354 -0.0000
vn 0.7796 0.4354 -0.4501
vn 0.7077 0.5763 -0.4086
vn 0.8172 0.5763 -0.0000
vn 0.4986 -0.0761 -0.8635
vn 0.8635 -0.0761 -0.4986
vn -0.8635 -0.0761 0.4986
vn -0.4986 -0.0761 0.8635
vn -0.0000 -0.0761 0.9971
vn 0.4986 -0.0761 0.8635
vn 0.8635 -0.0761 0.4986
vn 0.9971 -0.0761 0.0000
vn 0.2129 -0.9049 -0.3687
vn -0.0000 -0.9049 -0.4257
vn 0.3687 -0.9049 -0.2129
vn 0.4257 -0.9049 0.0000
vn 0.3687 -0.9049 0.2129
vn 0.2129 -0.9049 0.3687
vn -0.0000 -0.9049 0.4257
vn -0.2129 -0.9049 0.3687
vn -0.3687 -0.9049 0.2129
vn -0.4257 -0.9049 0.0000
vn -0.3687 -0.9049 -0.2129
vn -0.2129 -0.9049 -0.3687
vn -0.4986 0.0761 -0.8635
vn -0.0000 0.0761 -0.9971
vn -0.4501 0.4354 -0.7796
vn -0.4086 0.5763 -0.7077
vn -0.0000 0.0639 -0.9980
vn 0.4990 0.0639 -0.8643
vn 0.7796 0.4354 0.4501
vn 0.7077 0.5763 0.4086
vn 0.8643 0.0639 -0.4990
vn 0.9980 0.0639 -0.0000
vn 0.8635 0.0761 -0.4986
vn 0.9971 0.0761 0.0000
vn 0.4501 0.4354 0.7796
vn 0.4086 0.5763 0.7077
vn 0.8643 0.0639 0.4990
vn 0.8635 0.0761 0.4986
vn -0.0000 0.4354 0.9002
vn 0.0000 0.5763 0.8172
vn 0.4990 0.0639 0.8643
vn 0.4986 0.0761 0.8635
vn -0.4501 0.4354 0.7796
vn -0.4086 0.5763 0.7077
vn -0.0000 0.0639 0.9980
vn -0.0000 0.0761 0.9971
vn -0.7796 0.4354 0.4501
vn -0.7077 0.5763 0.4086
vn -0.4990 0.0639 0.8643
vn -0.4986 0.0761 0.8635
vn -0.9002 0.4354 0.0000
vn -0.8172 0.5763 0.0000
vn -0.8643 0.0639 0.4990
vn -0.8635 0.0761 0.4986
vn -0.7796 0.4354 -0.4501
vn -0.7077 0.5763 -0.4086
vn -0.9980 0.0639 0.0000
vn -0.9971 0.0761 -0.0000
vn -0.8643 0.0639 -0.4990
vn -0.4990 0.0639 -0.8643
vn 0.4986 0.0761 -0.8635
vn -0.8635 0.0761 -0.4986
vn -0.4986 -0.0761 -0.8635
vn -0.0000 -0.0761 -0.9971
vn 0.4773 0.2980 -0.8267
vn -0.0000 0.2980 -0.9546
vn 0.4332 -0.4992 -0.7504
vn 0.0000 -0.4992 -0.8665
vn 0.4616 0.3845 -0.7994
vn -0.0000 0.3845 -0.9231
vn 0.4616 -0.3845 -0.7994
vn 0.0000 -0.3845 -0.9231
vn 0.4332 0.4992 -0.7504
vn -0.0000 0.4992 -0.8665
vn 0.4773 -0.2980 -0.8267
vn 0.0000 -0.2980 -0.9546
vn 0.8267 -0.2980 -0.4773
vn 0.9546 -0.2980 -0.0000
vn 0.7504 0.4992 -0.4332
vn 0.8665 0.4992 -0.0000
vn 0.7994 -0.3845 -0.4616
vn 0.9231 -0.3845 -0.0000
vn 0.7994 0.3845 -0.4616
vn 0.9231 0.3845 0.0000
vn 0.7504 -0.4992 -0.4332
vn 0.8665 -0.4992 -0.0000
vn 0.8267 0.2980 -0.4773
vn 0.9546 0.2980 0.0000
vn 0.8267 -0.2980 0.4773
vn 0.7504 0.4992 0.4332
vn 0.7994 -0.3845 0.4616
vn 0.7994 0.3845 0.4616
vn 0.7504 -0.4992 0.4332
vn 0.8267 0.2980 0.4773
vn 0.4773 -0.2980 0.8267
vn 0.4332 0.4992 0.7504
vn 0.4616 -0.3845 0.7994
vn 0.4616 0.3845 0.7994
vn 0.4332 -0.4992 0.7504
vn 0.4773 0.2980 0.8267
vn -0.0000 -0.2980 0.9546
vn 0.0000 0.4992 0.8665
vn -0.0000 -0.3845 0.9231
vn 0.0000 0.3845 0.9231
vn -0.0000 -0.4992 0.8665
vn 0.0000 0.2980 0.9546
vn -0.4773 -0.2980 0.8267
vn -0.4332 0.4992 0.7504
vn -0.4616 -0.3845 0.7994
vn -0.4616 0.3845 0.7994
vn -0.4332 -0.4992 0.7504
vn -0.4773 0.2980 0.8267
vn -0.8267 -0.2980 0.4773
vn -0.7504 0.4992 0.4332
vn -0.7994 -0.3845 0.4616
vn -0.7994 0.3845 0.4616
vn -0.7504 -0.4992 0.4332
vn -0.8267 0.2980 0.4773
vn -0.9546 -0.2980 -0.0000
vn -0.8665 0.4992 0.0000
vn -0.9231 -0.3845 0.0000
vn -0.9231 0.3845 0.0000
vn -0.8665 -0.4992 0.0000
vn -0.9546 0.2980 -0.0000
vn -0.8267 -0.2980 -0.4773
vn -0.4773 -0.2980 -0.8267
vn -0.7504 0.4992 -0.4332
vn -0.4332 0.4992 -0.7504
vn -0.7994 -0.3845 -0.4616
vn -0.4616 -0.3845 -0.7994
vn -0.7994 0.3845 -0.4616
vn -0.4616 0.3845 -0.7994
vn -0.7504 -0.4992 -0.4332
vn -0.4332 -0.4992 -0.7504
vn -0.8267 0.2980 -0.4773
vn -0.4773 0.2980 -0.8267
usemtl KayKit_Texture_A
s 1
f 27/1/1 26/2/2 22/3/3 23/4/4
f 31/5/5 30/6/6 19/7/7 20/8/8
f 35/9/9 34/10/10 16/11/11 17/12/12
f 37/13/13 27/1/1 23/4/4 24/14/14
f 41/15/15 40/16/16 14/17/17 13/18/18
f 43/19/19 31/5/5 20/8/8 21/20/20
f 45/21/21 35/9/9 17/12/12 18/22/22
f 40/16/16 37/13/13 24/14/14 14/17/17
f 47/23/23 41/15/15 13/18/18 15/24/24
f 26/2/2 43/19/19 21/20/20 22/3/3
f 30/6/6 45/21/21 18/22/22 19/7/7
f 34/10/10 47/23/23 15/24/24 16/11/11
f 4/25/25 3/26/26 48/27/27 33/28/28
f 29/29/29 46/30/30 45/31/31 30/32/32
f 7/33/33 6/34/34 46/35/30 29/36/29
f 25/37/35 44/38/36 43/39/37 26/40/38
f 10/41/39 9/42/40 44/43/36 25/44/35
f 48/45/27 42/46/41 41/47/42 47/48/43
f 3/26/26 1/49/44 42/50/41 48/27/27
f 39/51/45 38/52/46 37/53/47 40/54/48
f 2/55/49 12/56/50 38/57/46 39/58/45
f 46/30/30 36/59/51 35/60/52 45/31/31
f 6/34/34 5/61/53 36/62/51 46/35/30
f 44/38/36 32/63/54 31/64/55 43/39/37
f 9/42/40 8/65/56 32/66/54 44/43/36
f 42/46/41 39/51/45 40/54/48 41/47/42
f 1/49/44 2/55/49 39/58/45 42/50/41
f 38/52/46 28/67/57 27/68/58 37/53/47
f 12/56/50 11/69/59 28/70/57 38/57/46
f 36/59/51 33/71/28 34/72/60 35/60/52
f 5/61/53 4/25/25 33/28/28 36/62/51
f 32/63/54 29/29/29 30/32/32 31/64/55
f 8/65/56 7/33/33 29/36/29 32/66/54
f 28/67/57 25/37/35 26/40/38 27/68/58
f 11/69/59 10/41/39 25/44/35 28/70/57
f 33/71/28 48/45/27 47/48/43 34/72/60
f 13/18/18 14/17/17 181/73/61
f 14/17/17 24/14/14 181/74/61
f 24/14/14 23/4/4 181/75/61
f 23/4/4 22/3/3 181/76/61
f 22/3/3 21/20/20 181/77/61
f 21/20/20 20/8/8 181/76/61
f 20/8/8 19/7/7 181/75/61
f 19/7/7 18/22/22 181/74/61
f 18/22/22 17/12/12 181/73/61
f 17/12/12 16/11/11 181/78/61
f 16/11/11 15/24/24 181/79/61
f 15/24/24 13/18/18 181/78/61
f 236/80/61 234/81/61 231/82/61
f 254/83/61 252/84/61 231/82/61
f 238/85/61 236/80/61 231/82/61
f 252/84/61 250/86/61 231/82/61
f 250/86/61 248/87/61 231/82/61
f 248/87/61 246/88/61 231/82/61
f 246/88/61 244/89/61 231/82/61
f 244/89/61 242/90/61 231/82/61
f 242/90/61 240/91/61 231/82/61
f 240/91/61 238/85/61 231/82/61
f 208/92/62 209/93/63 210/94/63 207/95/62
f 209/93/63 211/96/64 212/97/64 210/94/63
f 211/96/64 213/98/65 214/99/65 212/97/64
f 213/98/65 215/100/66 216/101/66 214/99/65
f 215/100/66 217/102/67 218/103/67 216/101/66
f 217/102/67 219/104/68 220/105/68 218/103/67
f 219/104/68 221/106/69 222/107/69 220/105/68
f 221/106/69 223/108/70 224/109/70 222/107/69
f 223/108/70 225/110/71 226/111/71 224/109/70
f 225/110/71 227/112/72 228/113/72 226/111/71
f 227/112/72 229/114/73 230/115/73 228/113/72
f 229/114/73 208/92/62 207/95/62 230/115/73
f 233/116/61 254/83/61 231/82/61
f 257/117/74 262/118/75 209/93/76 208/92/77
f 265/119/78 255/120/79 232/121/80 259/122/81
f 290/123/82 253/124/83 255/120/79 265/119/78
f 287/125/84 251/126/85 253/124/83 290/123/82
f 284/127/86 249/128/87 251/126/85 287/125/84
f 281/129/88 247/130/89 249/128/87 284/127/86
f 278/131/90 245/132/91 247/130/89 281/129/88
f 275/133/92 243/134/93 245/132/91 278/131/90
f 272/135/94 241/136/95 243/134/93 275/133/92
f 269/137/96 239/138/97 241/136/95 272/135/94
f 266/139/98 237/140/99 239/138/97 269/137/96
f 260/141/100 235/142/101 237/140/99 266/139/98
f 235/142/102 232/121/103 233/116/103 234/81/102
f 237/140/104 235/142/102 234/81/102 236/80/104
f 239/138/105 237/140/104 236/80/104 238/85/105
f 241/136/106 239/138/105 238/85/105 240/91/106
f 243/134/107 241/136/106 240/91/106 242/90/107
f 245/132/108 243/134/107 242/90/107 244/89/108
f 247/130/109 245/132/108 244/89/108 246/88/109
f 249/128/110 247/130/109 246/88/109 248/87/110
f 251/126/111 249/128/110 248/87/110 250/86/111
f 253/124/112 251/126/111 250/86/111 252/84/112
f 255/120/113 253/124/112 252/84/112 254/83/113
f 232/121/103 255/120/113 254/83/113 233/116/103
f 234/81/61 233/116/61 231/82/61
f 207/95/114 210/94/114 256/143/114
f 210/94/114 212/97/114 256/144/114
f 212/97/114 214/99/114 256/145/114
f 214/99/114 216/101/114 256/146/114
f 216/101/114 218/103/114 256/145/114
f 218/103/114 220/105/114 256/144/114
f 220/105/114 222/107/114 256/143/114
f 222/107/114 224/109/114 256/147/114
f 224/109/114 226/111/114 256/148/114
f 226/111/114 228/113/114 256/149/114
f 228/113/114 230/115/114 256/148/114
f 230/115/114 207/95/114 256/147/114
f 209/93/76 262/118/75 268/150/115 211/96/116
f 262/118/75 261/151/117 267/152/118 268/150/115
f 261/151/117 260/141/100 266/139/98 267/152/118
f 211/96/116 268/150/115 271/153/119 213/98/120
f 268/150/115 267/152/118 270/154/121 271/153/119
f 267/152/118 266/139/98 269/137/96 270/154/121
f 213/98/120 271/153/119 274/155/122 215/100/123
f 271/153/119 270/154/121 273/156/124 274/155/122
f 270/154/121 269/137/96 272/135/94 273/156/124
f 215/100/123 274/155/122 277/157/125 217/102/126
f 274/155/122 273/156/124 276/158/127 277/157/125
f 273/156/124 272/135/94 275/133/92 276/158/127
f 217/102/126 277/157/125 280/159/128 219/104/129
f 277/157/125 276/158/127 279/160/130 280/159/128
f 276/158/127 275/133/92 278/131/90 279/160/130
f 219/104/129 280/159/128 283/161/131 221/106/132
f 280/159/128 279/160/130 282/162/133 283/161/131
f 279/160/130 278/131/90 281/129/88 282/162/133
f 221/106/132 283/161/131 286/163/134 223/108/135
f 283/161/131 282/162/133 285/164/136 286/163/134
f 282/162/133 281/129/88 284/127/86 285/164/136
f 223/108/135 286/163/134 289/165/137 225/110/138
f 286/163/134 285/164/136 288/166/139 289/165/137
f 285/164/136 284/127/86 287/125/84 288/166/139
f 225/110/138 289/165/137 292/167/140 227/112/141
f 289/165/137 288/166/139 291/168/142 292/167/140
f 288/166/139 287/125/84 290/123/82 291/168/142
f 227/112/141 292/167/140 263/169/143 229/114/144
f 292/167/140 291/168/142 264/170/145 263/169/143
f 291/168/142 290/123/82 265/119/78 264/170/145
f 229/114/144 263/169/143 257/117/74 208/92/77
f 263/169/143 264/170/145 258/171/146 257/117/74
f 264/170/145 265/119/78 259/122/81 258/171/146
f 232/121/80 235/142/101 260/141/100 259/122/81
f 259/122/81 260/141/100 261/151/117 258/171/146
f 258/171/146 261/151/117 262/118/75 257/117/74
usemtl glass
f 118/172/147 192/173/148 194/174/149 127/175/150
f 101/176/151 188/177/152 190/178/153 109/179/154
f 185/180/155 184/181/156 2/182/157 1/183/158
f 97/184/159 206/185/160 183/186/161 80/187/162
f 109/179/154 190/178/153 192/173/148 118/172/147
f 82/188/163 186/189/164 188/177/152 101/176/151
f 173/190/165 204/191/166 206/185/160 97/184/159
f 163/192/167 202/193/168 204/191/166 173/190/165
f 154/194/169 200/195/170 202/193/168 163/192/167
f 145/196/171 198/197/172 200/195/170 154/194/169
f 136/198/173 196/199/174 198/197/172 145/196/171
f 127/175/150 194/174/149 196/199/174 136/198/173
f 166/200/175 164/201/175 172/202/176 176/203/176
f 189/204/177 187/205/178 3/206/179 4/207/180
f 85/208/181 83/209/181 100/210/182 104/211/182
f 157/212/183 155/213/183 164/201/175 166/200/175
f 148/214/184 146/215/184 155/213/183 157/212/183
f 139/216/185 137/217/185 146/215/184 148/214/184
f 130/218/186 128/219/186 137/217/185 139/216/185
f 121/220/187 119/221/187 128/219/186 130/218/186
f 112/222/188 110/223/188 119/221/187 121/220/187
f 104/211/182 100/210/182 110/223/188 112/222/188
f 50/224/62 51/225/63 52/226/189 49/227/190
f 51/225/63 53/228/64 54/229/191 52/226/189
f 53/228/64 55/230/65 56/231/192 54/229/191
f 55/230/65 57/232/66 58/233/193 56/231/192
f 57/232/66 59/234/67 60/235/194 58/233/193
f 59/234/67 61/236/68 62/237/195 60/235/194
f 61/236/68 63/238/69 64/239/196 62/237/195
f 63/238/69 65/240/70 66/241/197 64/239/196
f 65/240/70 67/242/71 68/243/198 66/241/197
f 67/242/71 69/244/72 70/245/199 68/243/198
f 69/244/72 71/246/73 72/247/200 70/245/199
f 71/246/73 50/224/62 49/227/190 72/247/200
f 91/248/201 95/249/201 76/250/202 74/251/202
f 187/205/178 185/180/155 1/183/158 3/206/179
f 184/181/156 205/252/203 12/253/204 2/182/157
f 73/254/205 89/255/206 51/225/206 50/224/205
f 191/256/207 189/204/177 4/207/180 5/257/208
f 53/228/209 106/258/209 116/259/210 55/230/210
f 107/260/211 103/261/211 113/262/212 115/263/212
f 193/264/213 191/256/207 5/257/208 6/265/214
f 55/230/210 116/259/210 125/266/215 57/232/215
f 115/263/212 113/262/212 122/267/216 124/268/216
f 195/269/217 193/264/213 6/265/214 7/270/218
f 57/232/215 125/266/215 134/271/219 59/234/219
f 124/268/216 122/267/216 131/272/220 133/273/220
f 197/274/221 195/269/217 7/270/218 8/275/222
f 59/234/219 134/271/219 143/276/223 61/236/223
f 133/273/220 131/272/220 140/277/224 142/278/224
f 199/279/225 197/274/221 8/275/222 9/280/226
f 61/236/223 143/276/223 152/281/227 63/238/227
f 142/278/224 140/277/224 149/282/228 151/283/228
f 201/284/229 199/279/225 9/280/226 10/285/230
f 63/238/227 152/281/227 161/286/231 65/240/231
f 151/283/228 149/282/228 158/287/232 160/288/232
f 203/289/233 201/284/229 10/285/230 11/290/234
f 65/240/231 161/286/231 170/291/235 67/242/235
f 160/288/232 158/287/232 167/292/236 169/293/236
f 69/244/237 178/294/237 92/295/238 71/246/238
f 51/225/206 89/255/206 106/258/209 53/228/209
f 88/296/239 86/297/239 103/261/211 107/260/211
f 179/298/240 175/299/240 95/249/201 91/248/201
f 176/203/176 172/202/176 98/300/241 94/301/241
f 205/252/203 203/289/233 11/290/234 12/253/204
f 67/242/235 170/291/235 178/294/237 69/244/237
f 169/293/236 167/292/236 175/299/240 179/298/240
f 76/250/202 86/297/239 88/296/239 74/251/202
f 94/301/241 98/300/241 79/302/242 77/303/242
f 79/302/242 83/209/181 85/208/181 77/303/242
f 83/209/243 79/302/244 81/304/244 84/305/243
f 84/305/245 81/304/246 80/187/246 82/188/245
f 86/297/247 76/250/248 78/306/248 87/307/247
f 87/307/249 78/306/250 77/303/250 85/208/249
f 89/255/251 73/254/252 75/308/252 90/309/251
f 90/309/253 75/308/254 74/251/254 88/296/253
f 107/260/255 115/263/256 117/310/256 108/311/255
f 108/311/257 117/310/258 116/259/258 106/258/257
f 104/211/259 112/222/260 114/312/260 105/313/259
f 105/313/261 114/312/262 113/262/262 103/261/261
f 101/176/263 109/179/264 111/314/264 102/315/263
f 102/315/265 111/314/266 110/223/266 100/210/265
f 115/263/256 124/268/267 126/316/267 117/310/256
f 117/310/258 126/316/268 125/266/268 116/259/258
f 112/222/260 121/220/269 123/317/269 114/312/260
f 114/312/262 123/317/270 122/267/270 113/262/262
f 109/179/264 118/172/271 120/318/271 111/314/264
f 111/314/266 120/318/272 119/221/272 110/223/266
f 124/268/267 133/273/273 135/319/273 126/316/267
f 126/316/268 135/319/274 134/271/274 125/266/268
f 121/220/269 130/218/275 132/320/275 123/317/269
f 123/317/270 132/320/276 131/272/276 122/267/270
f 118/172/271 127/175/277 129/321/277 120/318/271
f 120/318/272 129/321/278 128/219/278 119/221/272
f 133/273/273 142/278/279 144/322/279 135/319/273
f 135/319/274 144/322/280 143/276/280 134/271/274
f 130/218/275 139/216/281 141/323/281 132/320/275
f 132/320/276 141/323/282 140/277/282 131/272/276
f 127/175/277 136/198/283 138/324/283 129/321/277
f 129/321/278 138/324/284 137/217/284 128/219/278
f 142/278/279 151/283/285 153/325/285 144/322/279
f 144/322/280 153/325/286 152/281/286 143/276/280
f 139/216/281 148/214/287 150/326/287 141/323/281
f 141/323/282 150/326/288 149/282/288 140/277/282
f 136/198/283 145/196/289 147/327/289 138/324/283
f 138/324/284 147/327/290 146/215/290 137/217/284
f 151/283/285 160/288/291 162/328/291 153/325/285
f 153/325/286 162/328/292 161/286/292 152/281/286
f 148/214/287 157/212/293 159/329/293 150/326/287
f 150/326/288 159/329/294 158/287/294 149/282/288
f 145/196/289 154/194/295 156/330/295 147/327/289
f 147/327/290 156/330/296 155/213/296 146/215/290
f 160/288/291 169/293/297 171/331/297 162/328/291
f 162/328/292 171/331/298 170/291/298 161/286/292
f 157/212/293 166/200/299 168/332/299 159/329/293
f 159/329/294 168/332/300 167/292/300 158/287/294
f 154/194/295 163/192/301 165/333/301 156/330/295
f 156/330/296 165/333/302 164/201/302 155/213/296
f 88/296/253 107/260/255 108/311/255 90/309/253
f 90/309/251 108/311/257 106/258/257 89/255/251
f 85/208/249 104/211/259 105/313/259 87/307/249
f 87/307/247 105/313/261 103/261/261 86/297/247
f 82/188/245 101/176/263 102/315/263 84/305/245
f 84/305/243 102/315/265 100/210/265 83/209/243
f 179/298/303 91/248/304 93/334/304 180/335/303
f 180/335/305 93/334/306 92/295/306 178/294/305
f 176/203/307 94/301/308 96/336/308 177/337/307
f 177/337/309 96/336/310 95/249/310 175/299/309
f 173/190/311 97/184/312 99/338/312 174/339/311
f 174/339/313 99/338/314 98/300/314 172/202/313
f 169/293/297 179/298/303 180/335/303 171/331/297
f 171/331/298 180/335/305 178/294/305 170/291/298
f 166/200/299 176/203/307 177/337/307 168/332/299
f 168/332/300 177/337/309 175/299/309 167/292/300
f 163/192/301 173/190/311 174/339/311 165/333/301
f 165/333/302 174/339/313 172/202/313 164/201/302
f 91/248/304 74/251/254 75/308/254 93/334/304
f 93/334/306 75/308/252 73/254/252 92/295/306
f 94/301/308 77/303/250 78/306/250 96/336/308
f 96/336/310 78/306/248 76/250/248 95/249/310
f 97/184/312 80/187/246 81/304/246 99/338/312
f 99/338/314 81/304/244 79/302/244 98/300/314
f 71/246/238 92/295/238 73/254/205 50/224/205
f 49/227/190 52/226/189 182/340/114
f 52/226/189 54/229/191 182/341/114
f 54/229/191 56/231/192 182/342/114
f 56/231/192 58/233/193 182/343/114
f 58/233/193 60/235/194 182/342/114
f 60/235/194 62/237/195 182/341/114
f 62/237/195 64/239/196 182/340/114
f 64/239/196 66/241/197 182/344/114
f 66/241/197 68/243/198 182/345/114
f 68/243/198 70/245/199 182/346/114
f 70/245/199 72/247/200 182/345/114
f 72/247/200 49/227/190 182/344/114
f 186/189/164 183/186/161 184/181/156 185/180/155
f 188/177/152 186/189/164 185/180/155 187/205/178
f 190/178/153 188/177/152 187/205/178 189/204/177
f 192/173/148 190/178/153 189/204/177 191/256/207
f 194/174/149 192/173/148 191/256/207 193/264/213
f 196/199/174 194/174/149 193/264/213 195/269/217
f 198/197/172 196/199/174 195/269/217 197/274/221
f 200/195/170 198/197/172 197/274/221 199/279/225
f 202/193/168 200/195/170 199/279/225 201/284/229
f 204/191/166 202/193/168 201/284/229 203/289/233
f 206/185/160 204/191/166 203/289/233 205/252/203
f 183/186/161 206/185/160 205/252/203 184/181/156
f 183/186/161 186/189/164 82/188/163 80/187/162
