# Blender v3.4.1 OBJ File: 'MixedBag1_Export.blend'
# www.blender.org
mtllib waterbottle_A.mtl
o waterbottle_A
v 0.036498 0.730000 -0.063216
v 0.000000 0.730000 -0.072996
v 0.063216 0.730000 -0.036498
v 0.072996 0.730000 0.000000
v 0.063216 0.730000 0.036498
v 0.036498 0.730000 0.063216
v 0.000000 0.730000 0.072996
v -0.036498 0.730000 0.063216
v -0.063216 0.730000 0.036498
v -0.072996 0.730000 0.000000
v -0.063216 0.730000 -0.036498
v -0.036498 0.730000 -0.063216
v 0.032117 0.815326 -0.055629
v 0.000000 0.815326 -0.064235
v 0.055629 0.815326 -0.032117
v 0.064235 0.815326 0.000000
v 0.055629 0.815326 0.032117
v 0.032117 0.815326 0.055629
v 0.000000 0.815326 0.064235
v -0.032117 0.815326 0.055629
v -0.055629 0.815326 0.032117
v -0.064235 0.815326 0.000000
v -0.055629 0.815326 -0.032117
v -0.032117 0.815326 -0.055629
v -0.085203 0.746331 0.000000
v -0.085203 0.798994 -0.000000
v -0.073788 0.798994 -0.042601
v -0.073788 0.746331 -0.042601
v 0.000000 0.746331 0.085203
v 0.000000 0.798994 0.085203
v -0.042601 0.798994 0.073788
v -0.042601 0.746331 0.073788
v 0.085203 0.746331 0.000000
v 0.085203 0.798994 0.000000
v 0.073788 0.798994 0.042601
v 0.073788 0.746331 0.042601
v -0.042601 0.798994 -0.073788
v -0.042601 0.746331 -0.073788
v 0.000000 0.746331 -0.085203
v 0.000000 0.798994 -0.085203
v 0.042601 0.798994 -0.073788
v 0.042601 0.746331 -0.073788
v -0.073788 0.798994 0.042601
v -0.073788 0.746331 0.042601
v 0.042601 0.798994 0.073788
v 0.042601 0.746331 0.073788
v 0.073788 0.798994 -0.042601
v 0.073788 0.746331 -0.042601
v 0.000000 -0.000000 -0.138790
v 0.000000 0.025000 -0.164672
v 0.082336 0.025000 -0.142610
v 0.069395 -0.000000 -0.120195
v 0.142610 0.025000 -0.082336
v 0.120195 -0.000000 -0.069395
v 0.164672 0.025000 0.000000
v 0.138790 -0.000000 0.000000
v 0.142610 0.025000 0.082336
v 0.120195 -0.000000 0.069395
v 0.082336 0.025000 0.142610
v 0.069395 -0.000000 0.120195
v -0.000000 0.025000 0.164672
v -0.000000 -0.000000 0.138790
v -0.082336 0.025000 0.142610
v -0.069395 -0.000000 0.120195
v -0.142610 0.025000 0.082336
v -0.120195 -0.000000 0.069395
v -0.164672 0.025000 -0.000000
v -0.138790 -0.000000 -0.000000
v -0.142610 0.025000 -0.082336
v -0.120195 -0.000000 -0.069395
v -0.082336 0.025000 -0.142610
v -0.069395 -0.000000 -0.120195
v 0.000000 0.142464 -0.157147
v 0.000000 0.195036 -0.150208
v 0.000000 0.168750 -0.142002
v 0.000000 0.286214 -0.143253
v 0.000000 0.338786 -0.143253
v 0.000000 0.312500 -0.132305
v 0.000000 0.429964 -0.150208
v 0.000000 0.482536 -0.157147
v 0.000000 0.456250 -0.142002
v 0.078574 0.482536 -0.136093
v 0.075104 0.429964 -0.130084
v 0.071001 0.456250 -0.122977
v 0.071627 0.338786 -0.124061
v 0.071627 0.286214 -0.124061
v 0.066152 0.312500 -0.114579
v 0.075104 0.195036 -0.130084
v 0.078574 0.142464 -0.136093
v 0.071001 0.168750 -0.122977
v -0.075104 0.195036 -0.130084
v -0.078574 0.142464 -0.136093
v -0.071001 0.168750 -0.122977
v -0.071627 0.338786 -0.124061
v -0.071627 0.286214 -0.124061
v -0.066152 0.312500 -0.114579
v -0.078574 0.482536 -0.136093
v -0.075104 0.429964 -0.130084
v -0.071001 0.456250 -0.122977
v 0.130084 0.429964 -0.075104
v 0.136093 0.482536 -0.078574
v 0.122977 0.456250 -0.071001
v 0.124061 0.286214 -0.071627
v 0.124061 0.338786 -0.071627
v 0.114579 0.312500 -0.066152
v 0.136093 0.142464 -0.078574
v 0.130084 0.195036 -0.075104
v 0.122977 0.168750 -0.071001
v 0.157147 0.482536 0.000000
v 0.150208 0.429964 0.000000
v 0.142002 0.456250 0.000000
v 0.143253 0.338786 0.000000
v 0.143253 0.286214 0.000000
v 0.132305 0.312500 0.000000
v 0.150208 0.195036 0.000000
v 0.157147 0.142464 0.000000
v 0.142002 0.168750 0.000000
v 0.136093 0.482536 0.078574
v 0.130084 0.429964 0.075104
v 0.122977 0.456250 0.071001
v 0.124061 0.338786 0.071627
v 0.124061 0.286214 0.071627
v 0.114579 0.312500 0.066152
v 0.130084 0.195036 0.075104
v 0.136093 0.142464 0.078574
v 0.122977 0.168750 0.071001
v 0.078574 0.482536 0.136093
v 0.075104 0.429964 0.130084
v 0.071001 0.456250 0.122977
v 0.071627 0.338786 0.124061
v 0.071627 0.286214 0.124061
v 0.066152 0.312500 0.114579
v 0.075104 0.195036 0.130084
v 0.078574 0.142464 0.136093
v 0.071001 0.168750 0.122977
v -0.000000 0.482536 0.157147
v -0.000000 0.429964 0.150208
v 0.000000 0.456250 0.142002
v -0.000000 0.338786 0.143253
v -0.000000 0.286214 0.143253
v 0.000000 0.312500 0.132305
v -0.000000 0.195036 0.150208
v -0.000000 0.142464 0.157147
v 0.000000 0.168750 0.142002
v -0.078574 0.482536 0.136093
v -0.075104 0.429964 0.130084
v -0.071001 0.456250 0.122977
v -0.071627 0.338786 0.124061
v -0.071627 0.286214 0.124061
v -0.066152 0.312500 0.114579
v -0.075104 0.195036 0.130084
v -0.078574 0.142464 0.136093
v -0.071001 0.168750 0.122977
v -0.136093 0.482536 0.078574
v -0.130084 0.429964 0.075104
v -0.122977 0.456250 0.071001
v -0.124061 0.338786 0.071627
v -0.124061 0.286214 0.071627
v -0.114579 0.312500 0.066152
v -0.130084 0.195036 0.075104
v -0.136093 0.142464 0.078574
v -0.122977 0.168750 0.071001
v -0.157147 0.482536 -0.000000
v -0.150208 0.429964 -0.000000
v -0.142002 0.456250 -0.000000
v -0.143253 0.338786 -0.000000
v -0.143253 0.286214 -0.000000
v -0.132305 0.312500 -0.000000
v -0.150208 0.195036 -0.000000
v -0.157147 0.142464 -0.000000
v -0.142002 0.168750 -0.000000
v -0.130084 0.429964 -0.075104
v -0.136093 0.482536 -0.078574
v -0.122977 0.456250 -0.071001
v -0.124061 0.286214 -0.071627
v -0.124061 0.338786 -0.071627
v -0.114579 0.312500 -0.066152
v -0.136093 0.142464 -0.078574
v -0.130084 0.195036 -0.075104
v -0.122977 0.168750 -0.071001
v 0.000000 0.815326 0.000000
v -0.000000 -0.000000 0.000000
v 0.000000 0.573227 -0.164644
v 0.000000 0.622128 -0.149067
v 0.074534 0.622128 -0.129096
v 0.082322 0.573227 -0.142586
v 0.129096 0.622128 -0.074534
v 0.142586 0.573227 -0.082322
v 0.149067 0.622128 0.000000
v 0.164644 0.573227 0.000000
v 0.129096 0.622128 0.074534
v 0.142586 0.573227 0.082322
v 0.074534 0.622128 0.129096
v 0.082322 0.573227 0.142586
v -0.000000 0.622128 0.149067
v -0.000000 0.573227 0.164644
v -0.074534 0.622128 0.129096
v -0.082322 0.573227 0.142586
v -0.129096 0.622128 0.074534
v -0.142586 0.573227 0.082322
v -0.149067 0.622128 -0.000000
v -0.164644 0.573227 -0.000000
v -0.129096 0.622128 -0.074534
v -0.142586 0.573227 -0.082322
v -0.074534 0.622128 -0.129096
v -0.082322 0.573227 -0.142586
vt 0.836492 0.142166
vt 0.836493 0.172018
vt 0.827038 0.172018
vt 0.827038 0.142166
vt 0.836492 0.142166
vt 0.836493 0.172018
vt 0.839953 0.172018
vt 0.839953 0.142166
vt 0.763775 0.120466
vt 0.757614 0.120466
vt 0.764202 0.129281
vt 0.769481 0.129281
vt 0.825814 0.179688
vt 0.814122 0.179688
vt 0.814122 0.180985
vt 0.819847 0.180985
vt 0.801206 0.142166
vt 0.801206 0.172018
vt 0.814122 0.172018
vt 0.814122 0.142166
vt 0.827038 0.142166
vt 0.827038 0.172018
vt 0.791752 0.142166
vt 0.791752 0.172018
vt 0.788291 0.142166
vt 0.788291 0.172018
vt 0.791752 0.142166
vt 0.791752 0.172018
vt 0.801206 0.142166
vt 0.801206 0.172018
vt 0.814122 0.142166
vt 0.814122 0.172018
vt 0.780607 0.120466
vt 0.803601 0.120466
vt 0.803601 0.129281
vt 0.783901 0.129281
vt 0.843427 0.120466
vt 0.849588 0.120466
vt 0.843000 0.129281
vt 0.837721 0.129281
vt 0.780607 0.120466
vt 0.783901 0.129281
vt 0.826595 0.120466
vt 0.803601 0.120466
vt 0.803601 0.129281
vt 0.823300 0.129281
vt 0.763775 0.120466
vt 0.769481 0.129281
vt 0.826595 0.120466
vt 0.823300 0.129281
vt 0.843427 0.120466
vt 0.837721 0.129281
vt 0.843000 0.020727
vt 0.837721 0.020727
vt 0.843427 0.029542
vt 0.849588 0.029542
vt 0.803601 0.060792
vt 0.826595 0.060792
vt 0.826595 0.089216
vt 0.803601 0.089216
vt 0.803601 0.020727
vt 0.823300 0.020727
vt 0.826595 0.029542
vt 0.803601 0.029542
vt 0.788291 0.119617
vt 0.788291 0.133920
vt 0.791752 0.133920
vt 0.791752 0.119617
vt 0.757614 0.060792
vt 0.763775 0.060792
vt 0.763775 0.089216
vt 0.757614 0.089216
vt 0.764202 0.020727
vt 0.769481 0.020727
vt 0.763775 0.029542
vt 0.757614 0.029542
vt 0.843427 0.060792
vt 0.826595 0.060792
vt 0.826595 0.089216
vt 0.843427 0.089216
vt 0.823300 0.020727
vt 0.826595 0.029542
vt 0.803601 0.060792
vt 0.780607 0.060792
vt 0.780607 0.089216
vt 0.803601 0.089216
vt 0.803601 0.020727
vt 0.783901 0.020727
vt 0.780607 0.029542
vt 0.803601 0.029542
vt 0.837505 0.179688
vt 0.834373 0.179688
vt 0.824038 0.180985
vt 0.825573 0.180985
vt 0.843427 0.060792
vt 0.843427 0.089216
vt 0.837721 0.020727
vt 0.843427 0.029542
vt 0.780607 0.060792
vt 0.780607 0.089216
vt 0.783901 0.020727
vt 0.780607 0.029542
vt 0.763775 0.060792
vt 0.763775 0.089216
vt 0.769481 0.020727
vt 0.763775 0.029542
vt 0.849588 0.060792
vt 0.849588 0.089216
vt 0.827038 0.119617
vt 0.827038 0.133920
vt 0.836492 0.133920
vt 0.836492 0.119617
vt 0.791752 0.119617
vt 0.791752 0.133920
vt 0.801206 0.119617
vt 0.801206 0.133920
vt 0.814122 0.119617
vt 0.814122 0.133920
vt 0.827038 0.119617
vt 0.827038 0.133920
vt 0.836492 0.119617
vt 0.836492 0.133920
vt 0.839953 0.119617
vt 0.839953 0.133920
vt 0.814122 0.070395
vt 0.827038 0.070395
vt 0.825008 0.050848
vt 0.814122 0.050848
vt 0.836492 0.070395
vt 0.832976 0.050848
vt 0.839953 0.070395
vt 0.835893 0.050848
vt 0.836492 0.070395
vt 0.832976 0.050848
vt 0.827038 0.070395
vt 0.825008 0.050848
vt 0.814122 0.070395
vt 0.814122 0.050848
vt 0.801206 0.070395
vt 0.803236 0.050848
vt 0.791752 0.070395
vt 0.795268 0.050848
vt 0.788291 0.070395
vt 0.792351 0.050848
vt 0.791752 0.070395
vt 0.795268 0.050848
vt 0.801206 0.070395
vt 0.803236 0.050848
vt 0.801206 0.097068
vt 0.801206 0.111370
vt 0.814122 0.111370
vt 0.814122 0.097068
vt 0.802430 0.179688
vt 0.808397 0.180985
vt 0.814122 0.088821
vt 0.827038 0.088821
vt 0.834373 0.179688
vt 0.824038 0.180985
vt 0.836492 0.088821
vt 0.839953 0.088821
vt 0.836492 0.097068
vt 0.836492 0.111370
vt 0.839953 0.111370
vt 0.839953 0.097068
vt 0.825814 0.179688
vt 0.819847 0.180985
vt 0.836492 0.088821
vt 0.836492 0.111370
vt 0.836492 0.097068
vt 0.814122 0.179688
vt 0.814122 0.180985
vt 0.827038 0.088821
vt 0.827038 0.111370
vt 0.827038 0.097068
vt 0.802430 0.179688
vt 0.808397 0.180985
vt 0.814122 0.088821
vt 0.814122 0.111370
vt 0.814122 0.097068
vt 0.793871 0.179688
vt 0.804206 0.180985
vt 0.801206 0.088821
vt 0.801206 0.111370
vt 0.801206 0.097068
vt 0.790739 0.179688
vt 0.802671 0.180985
vt 0.791752 0.088821
vt 0.791752 0.111370
vt 0.791752 0.097068
vt 0.793871 0.179688
vt 0.804206 0.180985
vt 0.788291 0.088821
vt 0.788291 0.111370
vt 0.788291 0.097068
vt 0.791752 0.088821
vt 0.801206 0.088821
vt 0.827038 0.097068
vt 0.827038 0.111370
vt 0.791752 0.097068
vt 0.791752 0.111370
vt 0.801206 0.133920
vt 0.801206 0.119617
vt 0.814122 0.133920
vt 0.814122 0.119617
vt 0.814122 0.138043
vt 0.826051 0.138043
vt 0.826051 0.106793
vt 0.814122 0.106793
vt 0.814122 0.115494
vt 0.826051 0.115494
vt 0.826051 0.084244
vt 0.814122 0.084244
vt 0.814122 0.092944
vt 0.826051 0.092944
vt 0.826051 0.061694
vt 0.814122 0.061694
vt 0.837979 0.061694
vt 0.834783 0.061694
vt 0.834783 0.092944
vt 0.837979 0.092944
vt 0.837979 0.084244
vt 0.834783 0.084244
vt 0.834783 0.115494
vt 0.837979 0.115494
vt 0.837979 0.106793
vt 0.834783 0.106793
vt 0.834783 0.138043
vt 0.837979 0.138043
vt 0.834783 0.061694
vt 0.834783 0.092944
vt 0.834783 0.084244
vt 0.834783 0.115494
vt 0.834783 0.106793
vt 0.834783 0.138043
vt 0.826051 0.061694
vt 0.826051 0.092944
vt 0.826051 0.084244
vt 0.826051 0.115494
vt 0.826051 0.106793
vt 0.826051 0.138043
vt 0.814122 0.061694
vt 0.814122 0.092944
vt 0.814122 0.084244
vt 0.814122 0.115494
vt 0.814122 0.106793
vt 0.814122 0.138043
vt 0.802194 0.061694
vt 0.802194 0.092944
vt 0.802194 0.084244
vt 0.802194 0.115494
vt 0.802194 0.106793
vt 0.802194 0.138043
vt 0.793461 0.061694
vt 0.793461 0.092944
vt 0.793461 0.084244
vt 0.793461 0.115494
vt 0.793461 0.106793
vt 0.793461 0.138043
vt 0.790265 0.061694
vt 0.790265 0.092944
vt 0.790265 0.084244
vt 0.790265 0.115494
vt 0.790265 0.106793
vt 0.790265 0.138043
vt 0.802193 0.061694
vt 0.793461 0.061694
vt 0.793461 0.092944
vt 0.802193 0.092944
vt 0.802193 0.084244
vt 0.793461 0.084244
vt 0.793461 0.115494
vt 0.802193 0.115494
vt 0.802193 0.106793
vt 0.793461 0.106793
vt 0.793461 0.138043
vt 0.802193 0.138043
vt 0.820549 0.129281
vt 0.803601 0.129281
vt 0.786653 0.129281
vt 0.774247 0.129281
vt 0.769705 0.129281
vt 0.832955 0.129281
vt 0.837496 0.129281
vt 0.814122 0.050848
vt 0.822459 0.050848
vt 0.828562 0.050848
vt 0.830796 0.050848
vt 0.805785 0.050848
vt 0.799682 0.050848
vt 0.797448 0.050848
vn 0.8631 -0.0824 0.4983
vn 0.8608 0.1093 0.4970
vn 0.4970 0.1093 0.8608
vn 0.4983 -0.0824 0.8631
vn 0.8631 -0.0824 -0.4983
vn 0.8608 0.1093 -0.4970
vn 0.9940 0.1093 0.0000
vn 0.9966 -0.0824 0.0000
vn -0.5322 0.7889 -0.3072
vn -0.6145 0.7889 0.0000
vn -0.3715 0.9284 0.0000
vn -0.3217 0.9284 -0.1857
vn 0.4501 0.4354 -0.7796
vn -0.0000 0.4354 -0.9002
vn 0.0000 0.5763 -0.8172
vn 0.4086 0.5763 -0.7077
vn -0.4983 -0.0824 -0.8631
vn -0.4970 0.1093 -0.8608
vn 0.0000 0.1093 -0.9940
vn 0.0000 -0.0824 -0.9966
vn 0.4983 -0.0824 -0.8631
vn 0.4970 0.1093 -0.8608
vn -0.8631 -0.0824 -0.4983
vn -0.8608 0.1093 -0.4970
vn -0.9966 -0.0824 0.0000
vn -0.9940 0.1093 0.0000
vn -0.8631 -0.0824 0.4983
vn -0.8608 0.1093 0.4970
vn -0.4983 -0.0824 0.8631
vn -0.4970 0.1093 0.8608
vn -0.0000 -0.0824 0.9966
vn -0.0000 0.1093 0.9940
vn -0.3072 0.7889 0.5322
vn 0.0000 0.7889 0.6145
vn 0.0000 0.9284 0.3715
vn -0.1857 0.9284 0.3217
vn 0.5322 0.7889 0.3072
vn 0.6145 0.7889 0.0000
vn 0.3715 0.9284 -0.0000
vn 0.3217 0.9284 0.1857
vn -0.3072 0.7889 -0.5322
vn -0.1857 0.9284 -0.3217
vn 0.3072 0.7889 -0.5322
vn -0.0000 0.7889 -0.6145
vn -0.0000 0.9284 -0.3715
vn 0.1857 0.9284 -0.3217
vn -0.5322 0.7889 0.3072
vn -0.3217 0.9284 0.1857
vn 0.3072 0.7889 0.5322
vn 0.1857 0.9284 0.3217
vn 0.5322 0.7889 -0.3072
vn 0.3217 0.9284 -0.1857
vn 0.8010 -0.5987 0.0000
vn 0.6937 -0.5987 -0.4005
vn 0.8259 -0.3009 -0.4768
vn 0.9537 -0.3009 0.0000
vn -0.0000 -0.3009 0.9537
vn 0.4768 -0.3009 0.8259
vn 0.5000 -0.0000 0.8660
vn -0.0000 -0.0000 1.0000
vn 0.0000 -0.5987 0.8010
vn 0.4005 -0.5987 0.6937
vn -0.9971 -0.0761 0.0000
vn -0.8635 -0.0761 -0.4986
vn -0.9537 -0.3009 0.0000
vn -0.8259 -0.3009 0.4768
vn -0.8660 0.0000 0.5000
vn -1.0000 0.0000 0.0000
vn -0.8010 -0.5987 0.0000
vn -0.6937 -0.5987 0.4005
vn 0.4768 -0.3009 -0.8259
vn 0.5000 -0.0000 -0.8660
vn 0.8660 -0.0000 -0.5000
vn 0.4005 -0.5987 -0.6937
vn 0.0000 -0.3009 -0.9537
vn -0.4768 -0.3009 -0.8259
vn -0.5000 0.0000 -0.8660
vn -0.0000 0.0000 -1.0000
vn 0.0000 -0.5987 -0.8010
vn -0.4005 -0.5987 -0.6937
vn 0.9002 0.4354 -0.0000
vn 0.7796 0.4354 -0.4501
vn 0.7077 0.5763 -0.4086
vn 0.8172 0.5763 -0.0000
vn 0.8259 -0.3009 0.4768
vn 0.8660 -0.0000 0.5000
vn 0.6937 -0.5987 0.4005
vn -0.4768 -0.3009 0.8259
vn -0.5000 0.0000 0.8660
vn -0.4005 -0.5987 0.6937
vn -0.8259 -0.3009 -0.4768
vn -0.8660 0.0000 -0.5000
vn -0.6937 -0.5987 -0.4005
vn 1.0000 -0.0000 0.0000
vn 0.4986 -0.0761 -0.8635
vn 0.8635 -0.0761 -0.4986
vn -0.8635 -0.0761 0.4986
vn -0.4986 -0.0761 0.8635
vn -0.0000 -0.0761 0.9971
vn 0.4986 -0.0761 0.8635
vn 0.8635 -0.0761 0.4986
vn 0.9971 -0.0761 0.0000
vn -0.0000 -0.7193 -0.6947
vn 0.3474 -0.7193 -0.6017
vn 0.2129 -0.9049 -0.3687
vn -0.0000 -0.9049 -0.4257
vn 0.6017 -0.7193 -0.3474
vn 0.3687 -0.9049 -0.2129
vn 0.6947 -0.7193 0.0000
vn 0.4257 -0.9049 0.0000
vn 0.6017 -0.7193 0.3474
vn 0.3687 -0.9049 0.2129
vn 0.3474 -0.7193 0.6017
vn 0.2129 -0.9049 0.3687
vn -0.0000 -0.7193 0.6947
vn -0.0000 -0.9049 0.4257
vn -0.3474 -0.7193 0.6017
vn -0.2129 -0.9049 0.3687
vn -0.6017 -0.7193 0.3474
vn -0.3687 -0.9049 0.2129
vn -0.6947 -0.7193 0.0000
vn -0.4257 -0.9049 0.0000
vn -0.6017 -0.7193 -0.3474
vn -0.3687 -0.9049 -0.2129
vn -0.3474 -0.7193 -0.6017
vn -0.2129 -0.9049 -0.3687
vn -0.4986 0.0761 -0.8635
vn -0.0000 0.0761 -0.9971
vn -0.4501 0.4354 -0.7796
vn -0.4086 0.5763 -0.7077
vn -0.0000 0.0639 -0.9980
vn 0.4990 0.0639 -0.8643
vn 0.7796 0.4354 0.4501
vn 0.7077 0.5763 0.4086
vn 0.8643 0.0639 -0.4990
vn 0.9980 0.0639 -0.0000
vn 0.8635 0.0761 -0.4986
vn 0.9971 0.0761 0.0000
vn 0.4501 0.4354 0.7796
vn 0.4086 0.5763 0.7077
vn 0.8643 0.0639 0.4990
vn 0.8635 0.0761 0.4986
vn -0.0000 0.4354 0.9002
vn 0.0000 0.5763 0.8172
vn 0.4990 0.0639 0.8643
vn 0.4986 0.0761 0.8635
vn -0.4501 0.4354 0.7796
vn -0.4086 0.5763 0.7077
vn -0.0000 0.0639 0.9980
vn -0.0000 0.0761 0.9971
vn -0.7796 0.4354 0.4501
vn -0.7077 0.5763 0.4086
vn -0.4990 0.0639 0.8643
vn -0.4986 0.0761 0.8635
vn -0.9002 0.4354 0.0000
vn -0.8172 0.5763 0.0000
vn -0.8643 0.0639 0.4990
vn -0.8635 0.0761 0.4986
vn -0.7796 0.4354 -0.4501
vn -0.7077 0.5763 -0.4086
vn -0.9980 0.0639 0.0000
vn -0.9971 0.0761 -0.0000
vn -0.8643 0.0639 -0.4990
vn -0.4990 0.0639 -0.8643
vn 0.4986 0.0761 -0.8635
vn -0.8635 0.0761 -0.4986
vn -0.4986 -0.0761 -0.8635
vn -0.0000 -0.0761 -0.9971
vn 0.4773 0.2980 -0.8267
vn -0.0000 0.2980 -0.9546
vn 0.4332 -0.4992 -0.7504
vn 0.0000 -0.4992 -0.8665
vn 0.4616 0.3845 -0.7994
vn -0.0000 0.3845 -0.9231
vn 0.4616 -0.3845 -0.7994
vn 0.0000 -0.3845 -0.9231
vn 0.4332 0.4992 -0.7504
vn -0.0000 0.4992 -0.8665
vn 0.4773 -0.2980 -0.8267
vn 0.0000 -0.2980 -0.9546
vn 0.8267 -0.2980 -0.4773
vn 0.9546 -0.2980 -0.0000
vn 0.7504 0.4992 -0.4332
vn 0.8665 0.4992 -0.0000
vn 0.7994 -0.3845 -0.4616
vn 0.9231 -0.3845 -0.0000
vn 0.7994 0.3845 -0.4616
vn 0.9231 0.3845 0.0000
vn 0.7504 -0.4992 -0.4332
vn 0.8665 -0.4992 -0.0000
vn 0.8267 0.2980 -0.4773
vn 0.9546 0.2980 0.0000
vn 0.8267 -0.2980 0.4773
vn 0.7504 0.4992 0.4332
vn 0.7994 -0.3845 0.4616
vn 0.7994 0.3845 0.4616
vn 0.7504 -0.4992 0.4332
vn 0.8267 0.2980 0.4773
vn 0.4773 -0.2980 0.8267
vn 0.4332 0.4992 0.7504
vn 0.4616 -0.3845 0.7994
vn 0.4616 0.3845 0.7994
vn 0.4332 -0.4992 0.7504
vn 0.4773 0.2980 0.8267
vn -0.0000 -0.2980 0.9546
vn 0.0000 0.4992 0.8665
vn -0.0000 -0.3845 0.9231
vn 0.0000 0.3845 0.9231
vn -0.0000 -0.4992 0.8665
vn 0.0000 0.2980 0.9546
vn -0.4773 -0.2980 0.8267
vn -0.4332 0.4992 0.7504
vn -0.4616 -0.3845 0.7994
vn -0.4616 0.3845 0.7994
vn -0.4332 -0.4992 0.7504
vn -0.4773 0.2980 0.8267
vn -0.8267 -0.2980 0.4773
vn -0.7504 0.4992 0.4332
vn -0.7994 -0.3845 0.4616
vn -0.7994 0.3845 0.4616
vn -0.7504 -0.4992 0.4332
vn -0.8267 0.2980 0.4773
vn -0.9546 -0.2980 -0.0000
vn -0.8665 0.4992 0.0000
vn -0.9231 -0.3845 0.0000
vn -0.9231 0.3845 0.0000
vn -0.8665 -0.4992 0.0000
vn -0.9546 0.2980 -0.0000
vn -0.8267 -0.2980 -0.4773
vn -0.4773 -0.2980 -0.8267
vn -0.7504 0.4992 -0.4332
vn -0.4332 0.4992 -0.7504
vn -0.7994 -0.3845 -0.4616
vn -0.4616 -0.3845 -0.7994
vn -0.7994 0.3845 -0.4616
vn -0.4616 0.3845 -0.7994
vn -0.7504 -0.4992 -0.4332
vn -0.4332 -0.4992 -0.7504
vn -0.8267 0.2980 -0.4773
vn -0.4773 0.2980 -0.8267
vn 0.0000 1.0000 -0.0000
vn 0.0000 -1.0000 0.0000
usemtl KayKit_Texture_A
s 1
f 118/1/1 192/2/2 194/3/3 127/4/4
f 101/5/5 188/6/6 190/7/7 109/8/8
f 27/9/9 26/10/10 22/11/11 23/12/12
f 185/13/13 184/14/14 2/15/15 1/16/16
f 97/17/17 206/18/18 183/19/19 80/20/20
f 109/8/8 190/7/7 192/2/2 118/1/1
f 82/21/21 186/22/22 188/6/6 101/5/5
f 173/23/23 204/24/24 206/18/18 97/17/17
f 163/25/25 202/26/26 204/24/24 173/23/23
f 154/27/27 200/28/28 202/26/26 163/25/25
f 145/29/29 198/30/30 200/28/28 154/27/27
f 136/31/31 196/32/32 198/30/30 145/29/29
f 127/4/4 194/3/3 196/32/32 136/31/31
f 31/33/33 30/34/34 19/35/35 20/36/36
f 35/37/37 34/38/38 16/39/39 17/40/40
f 37/41/41 27/9/9 23/12/12 24/42/42
f 41/43/43 40/44/44 14/45/45 13/46/46
f 43/47/47 31/33/33 20/36/36 21/48/48
f 45/49/49 35/37/37 17/40/40 18/50/50
f 40/44/44 37/41/41 24/42/42 14/45/45
f 47/51/51 41/43/43 13/46/46 15/52/52
f 26/10/10 43/47/47 21/48/48 22/11/11
f 30/34/34 45/49/49 18/50/50 19/35/35
f 34/38/38 47/51/51 15/52/52 16/39/39
f 4/53/53 3/54/54 48/55/55 33/56/56
f 29/57/57 46/58/58 45/59/59 30/60/60
f 7/61/61 6/62/62 46/63/58 29/64/57
f 166/65/63 164/66/63 172/67/64 176/68/64
f 25/69/65 44/70/66 43/71/67 26/72/68
f 10/73/69 9/74/70 44/75/66 25/76/65
f 48/77/55 42/78/71 41/79/72 47/80/73
f 3/54/54 1/81/74 42/82/71 48/55/55
f 39/83/75 38/84/76 37/85/77 40/86/78
f 2/87/79 12/88/80 38/89/76 39/90/75
f 189/91/81 187/92/82 3/93/83 4/94/84
f 46/58/58 36/95/85 35/96/86 45/59/59
f 6/62/62 5/97/87 36/98/85 46/63/58
f 44/70/66 32/99/88 31/100/89 43/71/67
f 9/74/70 8/101/90 32/102/88 44/75/66
f 42/78/71 39/83/75 40/86/78 41/79/72
f 1/81/74 2/87/79 39/90/75 42/82/71
f 38/84/76 28/103/91 27/104/92 37/85/77
f 12/88/80 11/105/93 28/106/91 38/89/76
f 36/95/85 33/107/56 34/108/94 35/96/86
f 5/97/87 4/53/53 33/56/56 36/98/85
f 32/99/88 29/57/57 30/60/60 31/100/89
f 8/101/90 7/61/61 29/64/57 32/102/88
f 85/109/95 83/110/95 100/111/96 104/112/96
f 28/103/91 25/69/65 26/72/68 27/104/92
f 11/105/93 10/73/69 25/76/65 28/106/91
f 33/107/56 48/77/55 47/80/73 34/108/94
f 157/113/97 155/114/97 164/66/63 166/65/63
f 148/115/98 146/116/98 155/114/97 157/113/97
f 139/117/99 137/118/99 146/116/98 148/115/98
f 130/119/100 128/120/100 137/118/99 139/117/99
f 121/121/101 119/122/101 128/120/100 130/119/100
f 112/123/102 110/124/102 119/122/101 121/121/101
f 104/112/96 100/111/96 110/124/102 112/123/102
f 50/125/103 51/126/104 52/127/105 49/128/106
f 51/126/104 53/129/107 54/130/108 52/127/105
f 53/129/107 55/131/109 56/132/110 54/130/108
f 55/131/109 57/133/111 58/134/112 56/132/110
f 57/133/111 59/135/113 60/136/114 58/134/112
f 59/135/113 61/137/115 62/138/116 60/136/114
f 61/137/115 63/139/117 64/140/118 62/138/116
f 63/139/117 65/141/119 66/142/120 64/140/118
f 65/141/119 67/143/121 68/144/122 66/142/120
f 67/143/121 69/145/123 70/146/124 68/144/122
f 69/145/123 71/147/125 72/148/126 70/146/124
f 71/147/125 50/125/103 49/128/106 72/148/126
f 91/149/127 95/150/127 76/151/128 74/152/128
f 187/92/82 185/13/13 1/16/16 3/93/83
f 184/14/14 205/153/129 12/154/130 2/15/15
f 73/155/131 89/156/132 51/126/132 50/125/131
f 191/157/133 189/91/81 4/94/84 5/158/134
f 53/129/135 106/159/135 116/160/136 55/131/136
f 107/161/137 103/162/137 113/163/138 115/164/138
f 193/165/139 191/157/133 5/158/134 6/166/140
f 55/131/136 116/160/136 125/167/141 57/133/141
f 115/164/138 113/163/138 122/168/142 124/169/142
f 195/170/143 193/165/139 6/166/140 7/171/144
f 57/133/141 125/167/141 134/172/145 59/135/145
f 124/169/142 122/168/142 131/173/146 133/174/146
f 197/175/147 195/170/143 7/171/144 8/176/148
f 59/135/145 134/172/145 143/177/149 61/137/149
f 133/174/146 131/173/146 140/178/150 142/179/150
f 199/180/151 197/175/147 8/176/148 9/181/152
f 61/137/149 143/177/149 152/182/153 63/139/153
f 142/179/150 140/178/150 149/183/154 151/184/154
f 201/185/155 199/180/151 9/181/152 10/186/156
f 63/139/153 152/182/153 161/187/157 65/141/157
f 151/184/154 149/183/154 158/188/158 160/189/158
f 203/190/159 201/185/155 10/186/156 11/191/160
f 65/141/157 161/187/157 170/192/161 67/143/161
f 160/189/158 158/188/158 167/193/162 169/194/162
f 69/145/163 178/195/163 92/196/164 71/147/164
f 51/126/132 89/156/132 106/159/135 53/129/135
f 88/197/165 86/198/165 103/162/137 107/161/137
f 179/199/166 175/200/166 95/150/127 91/149/127
f 176/68/64 172/67/64 98/201/167 94/202/167
f 205/153/129 203/190/159 11/191/160 12/154/130
f 67/143/161 170/192/161 178/195/163 69/145/163
f 169/194/162 167/193/162 175/200/166 179/199/166
f 76/151/128 86/198/165 88/197/165 74/152/128
f 94/202/167 98/201/167 79/203/168 77/204/168
f 79/203/168 83/110/95 85/109/95 77/204/168
f 83/110/169 79/203/170 81/205/170 84/206/169
f 84/207/171 81/208/172 80/20/172 82/21/171
f 86/198/173 76/151/174 78/209/174 87/210/173
f 87/211/175 78/212/176 77/204/176 85/109/175
f 89/156/177 73/155/178 75/213/178 90/214/177
f 90/215/179 75/216/180 74/152/180 88/197/179
f 107/161/181 115/164/182 117/217/182 108/218/181
f 108/219/183 117/220/184 116/160/184 106/159/183
f 104/112/185 112/123/186 114/221/186 105/222/185
f 105/223/187 114/224/188 113/163/188 103/162/187
f 101/5/189 109/8/190 111/225/190 102/226/189
f 102/227/191 111/228/192 110/124/192 100/111/191
f 115/164/182 124/169/193 126/229/193 117/217/182
f 117/220/184 126/230/194 125/167/194 116/160/184
f 112/123/186 121/121/195 123/231/195 114/221/186
f 114/224/188 123/232/196 122/168/196 113/163/188
f 109/8/190 118/1/197 120/233/197 111/225/190
f 111/228/192 120/234/198 119/122/198 110/124/192
f 124/169/193 133/174/199 135/235/199 126/229/193
f 126/230/194 135/236/200 134/172/200 125/167/194
f 121/121/195 130/119/201 132/237/201 123/231/195
f 123/232/196 132/238/202 131/173/202 122/168/196
f 118/1/197 127/4/203 129/239/203 120/233/197
f 120/234/198 129/240/204 128/120/204 119/122/198
f 133/174/199 142/179/205 144/241/205 135/235/199
f 135/236/200 144/242/206 143/177/206 134/172/200
f 130/119/201 139/117/207 141/243/207 132/237/201
f 132/238/202 141/244/208 140/178/208 131/173/202
f 127/4/203 136/31/209 138/245/209 129/239/203
f 129/240/204 138/246/210 137/118/210 128/120/204
f 142/179/205 151/184/211 153/247/211 144/241/205
f 144/242/206 153/248/212 152/182/212 143/177/206
f 139/117/207 148/115/213 150/249/213 141/243/207
f 141/244/208 150/250/214 149/183/214 140/178/208
f 136/31/209 145/29/215 147/251/215 138/245/209
f 138/246/210 147/252/216 146/116/216 137/118/210
f 151/184/211 160/189/217 162/253/217 153/247/211
f 153/248/212 162/254/218 161/187/218 152/182/212
f 148/115/213 157/113/219 159/255/219 150/249/213
f 150/250/214 159/256/220 158/188/220 149/183/214
f 145/29/215 154/27/221 156/257/221 147/251/215
f 147/252/216 156/258/222 155/114/222 146/116/216
f 160/189/217 169/194/223 171/259/223 162/253/217
f 162/254/218 171/260/224 170/192/224 161/187/218
f 157/113/219 166/65/225 168/261/225 159/255/219
f 159/256/220 168/262/226 167/193/226 158/188/220
f 154/27/221 163/25/227 165/263/227 156/257/221
f 156/258/222 165/264/228 164/66/228 155/114/222
f 88/197/179 107/161/181 108/218/181 90/215/179
f 90/214/177 108/219/183 106/159/183 89/156/177
f 85/109/175 104/112/185 105/222/185 87/211/175
f 87/210/173 105/223/187 103/162/187 86/198/173
f 82/21/171 101/5/189 102/226/189 84/207/171
f 84/206/169 102/227/191 100/111/191 83/110/169
f 179/199/229 91/149/230 93/265/230 180/266/229
f 180/267/231 93/268/232 92/196/232 178/195/231
f 176/68/233 94/202/234 96/269/234 177/270/233
f 177/271/235 96/272/236 95/150/236 175/200/235
f 173/23/237 97/17/238 99/273/238 174/274/237
f 174/275/239 99/276/240 98/201/240 172/67/239
f 169/194/223 179/199/229 180/266/229 171/259/223
f 171/260/224 180/267/231 178/195/231 170/192/224
f 166/65/225 176/68/233 177/270/233 168/261/225
f 168/262/226 177/271/235 175/200/235 167/193/226
f 163/25/227 173/23/237 174/274/237 165/263/227
f 165/264/228 174/275/239 172/67/239 164/66/228
f 91/149/230 74/152/180 75/216/180 93/265/230
f 93/268/232 75/213/178 73/155/178 92/196/232
f 94/202/234 77/204/176 78/212/176 96/269/234
f 96/272/236 78/209/174 76/151/174 95/150/236
f 97/17/238 80/20/172 81/208/172 99/273/238
f 99/276/240 81/205/170 79/203/170 98/201/240
f 71/147/164 92/196/164 73/155/131 50/125/131
f 13/46/46 14/45/45 181/277/241
f 14/45/45 24/42/42 181/278/241
f 24/42/42 23/12/12 181/279/241
f 23/12/12 22/11/11 181/280/241
f 22/11/11 21/48/48 181/281/241
f 21/48/48 20/36/36 181/280/241
f 20/36/36 19/35/35 181/279/241
f 19/35/35 18/50/50 181/278/241
f 18/50/50 17/40/40 181/277/241
f 17/40/40 16/39/39 181/282/241
f 16/39/39 15/52/52 181/283/241
f 15/52/52 13/46/46 181/282/241
f 49/128/106 52/127/105 182/284/242
f 52/127/105 54/130/108 182/285/242
f 54/130/108 56/132/110 182/286/242
f 56/132/110 58/134/112 182/287/242
f 58/134/112 60/136/114 182/286/242
f 60/136/114 62/138/116 182/285/242
f 62/138/116 64/140/118 182/284/242
f 64/140/118 66/142/120 182/288/242
f 66/142/120 68/144/122 182/289/242
f 68/144/122 70/146/124 182/290/242
f 70/146/124 72/148/126 182/289/242
f 72/148/126 49/128/106 182/288/242
f 186/22/22 183/19/19 184/14/14 185/13/13
f 188/6/6 186/22/22 185/13/13 187/92/82
f 190/7/7 188/6/6 187/92/82 189/91/81
f 192/2/2 190/7/7 189/91/81 191/157/133
f 194/3/3 192/2/2 191/157/133 193/165/139
f 196/32/32 194/3/3 193/165/139 195/170/143
f 198/30/30 196/32/32 195/170/143 197/175/147
f 200/28/28 198/30/30 197/175/147 199/180/151
f 202/26/26 200/28/28 199/180/151 201/185/155
f 204/24/24 202/26/26 201/185/155 203/190/159
f 206/18/18 204/24/24 203/190/159 205/153/129
f 183/19/19 206/18/18 205/153/129 184/14/14
f 183/19/19 186/22/22 82/21/21 80/20/20
