# Blender v3.4.1 OBJ File: 'MixedBag1_Export.blend'
# www.blender.org
mtllib woodstove.mtl
o woodstove
v 0.000000 0.160000 0.000000
v 0.000000 0.260000 -0.500000
v 0.191342 0.260000 -0.461940
v 0.353553 0.260000 -0.353553
v 0.461940 0.260000 -0.191342
v 0.500000 0.260000 0.000000
v 0.461940 0.260000 0.191342
v 0.353553 0.260000 0.353553
v 0.191342 0.260000 0.461940
v -0.000000 0.260000 0.500000
v -0.191342 0.260000 0.461940
v -0.353553 0.260000 0.353553
v -0.461940 0.260000 0.191342
v -0.500000 0.260000 -0.000000
v -0.461940 0.260000 -0.191342
v -0.353553 0.260000 -0.353553
v -0.191342 0.260000 -0.461940
v 0.000000 0.160000 -0.500000
v 0.191342 0.160000 -0.461940
v 0.156349 0.360000 -0.377460
v 0.000000 0.360000 -0.408560
v 0.353553 0.160000 -0.353553
v 0.288895 0.360000 -0.288895
v 0.461940 0.160000 -0.191342
v 0.377460 0.360000 -0.156349
v 0.500000 0.160000 0.000000
v 0.408560 0.360000 0.000000
v 0.461940 0.160000 0.191342
v 0.377460 0.360000 0.156349
v 0.353553 0.160000 0.353553
v 0.288895 0.360000 0.288895
v 0.191342 0.160000 0.461940
v 0.156349 0.360000 0.377460
v -0.000000 0.160000 0.500000
v -0.000000 0.360000 0.408560
v -0.191342 0.160000 0.461940
v -0.156349 0.360000 0.377460
v -0.353553 0.160000 0.353553
v -0.288895 0.360000 0.288895
v -0.461940 0.160000 0.191342
v -0.377460 0.360000 0.156349
v -0.500000 0.160000 -0.000000
v -0.408560 0.360000 -0.000000
v -0.461940 0.160000 -0.191342
v -0.377460 0.360000 -0.156349
v -0.353553 0.160000 -0.353553
v -0.288895 0.360000 -0.288895
v -0.191342 0.160000 -0.461940
v -0.156349 0.360000 -0.377460
v 0.000000 1.260000 -0.402613
v 0.154073 1.260000 -0.371966
v 0.284690 1.260000 -0.284690
v 0.371966 1.260000 -0.154073
v 0.402613 1.260000 0.000000
v 0.371966 1.260000 0.154073
v 0.284690 1.260000 0.284690
v 0.154073 1.260000 0.371966
v -0.000000 1.260000 0.402613
v -0.154073 1.260000 0.371966
v -0.284690 1.260000 0.284690
v -0.371966 1.260000 0.154073
v -0.402613 1.260000 -0.000000
v -0.371966 1.260000 -0.154073
v -0.284690 1.260000 -0.284690
v -0.154073 1.260000 -0.371966
v -0.184184 1.102801 -0.444661
v -0.184184 0.417199 -0.444661
v -0.208219 0.885474 -0.502684
v -0.208219 0.534526 -0.502684
v -0.340329 0.417199 -0.340328
v -0.340329 1.102801 -0.340328
v -0.384738 0.534526 -0.384738
v -0.384738 0.885474 -0.384738
v -0.444661 1.102801 -0.184185
v -0.444661 0.417199 -0.184185
v -0.502684 0.885474 -0.208219
v -0.502684 0.534526 -0.208219
v -0.481297 0.417199 -0.000000
v -0.481297 1.102801 -0.000000
v -0.544101 0.534526 -0.000000
v -0.544101 0.885474 -0.000000
v -0.444661 1.102801 0.184185
v -0.444661 0.417199 0.184185
v -0.502684 0.885474 0.208219
v -0.502684 0.534526 0.208219
v -0.340328 0.417199 0.340329
v -0.340328 1.102801 0.340329
v -0.384738 0.534526 0.384738
v -0.384738 0.885474 0.384738
v -0.184184 1.102801 0.444661
v -0.184184 0.417199 0.444661
v -0.208219 0.885474 0.502684
v -0.208219 0.534526 0.502684
v -0.000000 0.417199 0.481297
v -0.000000 1.102801 0.481297
v -0.000000 0.534526 0.544101
v -0.000000 0.885474 0.544101
v 0.184184 1.102801 0.444661
v 0.184184 0.417199 0.444661
v 0.208219 0.885474 0.502684
v 0.208219 0.534526 0.502684
v 0.340328 0.417199 0.340328
v 0.340328 1.102801 0.340328
v 0.384738 0.534526 0.384738
v 0.384738 0.885474 0.384738
v 0.444661 1.102801 0.184184
v 0.444661 0.417199 0.184184
v 0.502684 0.885474 0.208219
v 0.502684 0.534526 0.208219
v 0.481297 0.417199 0.000000
v 0.481297 1.102801 0.000000
v 0.544101 0.534526 0.000000
v 0.544101 0.885474 0.000000
v 0.444661 1.102801 -0.184184
v 0.444661 0.417199 -0.184184
v 0.502684 0.885474 -0.208219
v 0.502684 0.534526 -0.208219
v 0.340328 0.417199 -0.340328
v 0.340328 1.102801 -0.340328
v 0.384738 0.534526 -0.384738
v 0.384738 0.885474 -0.384738
v 0.184184 1.102801 -0.444661
v 0.184184 0.417199 -0.444661
v 0.208219 0.885474 -0.502684
v 0.208219 0.534526 -0.502684
v 0.000000 0.417199 -0.481297
v 0.000000 1.102801 -0.481297
v 0.000000 0.534526 -0.544101
v 0.000000 0.885474 -0.544101
v -0.030764 -0.000315 0.369236
v 0.030764 -0.000315 0.369236
v -0.030764 0.000315 0.430764
v 0.030764 0.000315 0.430764
v -0.050000 0.167076 0.373319
v 0.050000 0.167076 0.373319
v -0.050000 0.167076 0.473319
v 0.050000 0.167076 0.473319
v -0.041632 0.082838 0.405200
v 0.041632 0.082838 0.405200
v -0.047193 0.111698 0.495973
v -0.039111 0.054689 0.486230
v 0.047193 0.111698 0.495973
v 0.039111 0.054689 0.486230
v 0.000000 1.360000 -0.500000
v -0.191342 1.360000 -0.461940
v -0.353553 1.360000 -0.353553
v -0.461940 1.360000 -0.191342
v -0.500000 1.360000 0.000000
v -0.461940 1.360000 0.191342
v -0.353553 1.360000 0.353553
v -0.191342 1.360000 0.461940
v 0.000000 1.360000 0.500000
v 0.191342 1.360000 0.461940
v 0.353553 1.360000 0.353553
v 0.461940 1.360000 0.191342
v 0.500000 1.360000 0.000000
v 0.461940 1.360000 -0.191342
v 0.353553 1.360000 -0.353553
v 0.191342 1.360000 -0.461940
v 0.000000 1.460000 -0.479608
v 0.000000 1.440000 -0.500000
v -0.191342 1.440000 -0.461940
v -0.183538 1.460000 -0.443100
v -0.353553 1.440000 -0.353553
v -0.339134 1.460000 -0.339134
v -0.461940 1.440000 -0.191342
v -0.443100 1.460000 -0.183538
v -0.500000 1.440000 0.000000
v -0.479608 1.460000 0.000000
v -0.461940 1.440000 0.191342
v -0.443100 1.460000 0.183538
v -0.353553 1.440000 0.353553
v -0.339134 1.460000 0.339134
v -0.191342 1.440000 0.461940
v -0.183538 1.460000 0.443100
v 0.000000 1.440000 0.500000
v 0.000000 1.460000 0.479608
v 0.191342 1.440000 0.461940
v 0.183538 1.460000 0.443100
v 0.353553 1.440000 0.353553
v 0.339134 1.460000 0.339134
v 0.461940 1.440000 0.191342
v 0.443100 1.460000 0.183538
v 0.500000 1.440000 0.000000
v 0.479608 1.460000 0.000000
v 0.461940 1.440000 -0.191342
v 0.443100 1.460000 -0.183538
v 0.353554 1.440000 -0.353553
v 0.339134 1.460000 -0.339134
v 0.191342 1.440000 -0.461940
v 0.183538 1.460000 -0.443100
v -0.208219 0.617414 -0.502684
v -0.208219 0.502586 -0.502684
v -0.384738 0.502586 -0.384738
v -0.384738 0.617414 -0.384738
v -0.502684 0.617414 -0.208219
v -0.502684 0.502586 -0.208219
v -0.544101 0.502586 -0.000000
v -0.544101 0.617414 -0.000000
v -0.502684 0.617414 0.208219
v -0.502684 0.502586 0.208219
v -0.384738 0.502586 0.384738
v -0.384738 0.617414 0.384738
v -0.208219 0.617414 0.502684
v -0.208219 0.502586 0.502684
v -0.000000 0.502586 0.544101
v -0.000000 0.617414 0.544101
v 0.208219 0.617414 0.502684
v 0.208219 0.502586 0.502684
v 0.384738 0.502586 0.384738
v 0.384738 0.617414 0.384738
v 0.502684 0.617414 0.208219
v 0.502684 0.502586 0.208219
v 0.544101 0.502586 0.000000
v 0.544101 0.617414 0.000000
v 0.502684 0.617414 -0.208219
v 0.502684 0.502586 -0.208219
v 0.384738 0.502586 -0.384738
v 0.384738 0.617414 -0.384738
v 0.208219 0.617414 -0.502684
v 0.208219 0.502586 -0.502684
v 0.000000 0.502586 -0.544101
v 0.000000 0.617414 -0.544101
v -0.229878 0.612206 -0.554975
v -0.424760 0.612206 -0.424760
v -0.424760 0.507794 -0.424760
v -0.229878 0.507794 -0.554975
v -0.554975 0.612206 -0.229878
v -0.600701 0.612206 -0.000000
v -0.600701 0.507794 -0.000000
v -0.554975 0.507794 -0.229878
v -0.554975 0.612206 0.229878
v -0.424760 0.612206 0.424760
v -0.424760 0.507794 0.424760
v -0.554975 0.507794 0.229878
v -0.229878 0.612206 0.554975
v -0.000000 0.612206 0.600701
v -0.000000 0.507794 0.600701
v -0.229878 0.507794 0.554975
v 0.229878 0.612206 0.554975
v 0.424760 0.612206 0.424760
v 0.424760 0.507794 0.424760
v 0.229878 0.507794 0.554975
v 0.554975 0.612206 0.229878
v 0.600701 0.612206 0.000000
v 0.600701 0.507794 0.000000
v 0.554975 0.507794 0.229878
v 0.554975 0.612206 -0.229878
v 0.424760 0.612206 -0.424760
v 0.424760 0.507794 -0.424760
v 0.554975 0.507794 -0.229878
v 0.229878 0.612206 -0.554975
v -0.000000 0.612206 -0.600701
v -0.000000 0.507794 -0.600701
v 0.229878 0.507794 -0.554975
v 0.155016 1.166901 0.485016
v -0.000000 1.166901 0.515851
v -0.155016 1.166901 0.485016
v -0.271739 0.688818 0.517460
v -0.271739 0.895668 0.517460
v 0.190844 0.688818 0.571512
v 0.025480 1.053611 0.513966
v -0.000000 1.053584 0.517033
v -0.208219 0.659792 0.542684
v -0.000000 0.659792 0.584101
v 0.208219 0.659792 0.542684
v 0.240373 1.094860 0.470517
v -0.190844 0.688818 0.571512
v -0.000000 0.688818 0.609473
v -0.025480 1.053611 0.513966
v -0.169129 1.181400 0.448313
v -0.000000 1.181400 0.481955
v 0.169129 1.181400 0.448313
v -0.134826 1.053611 0.497009
v -0.159200 1.053584 0.486109
v 0.262256 1.102801 0.432495
v 0.296478 0.885474 0.483711
v 0.296478 0.659792 0.483711
v 0.240819 1.181400 0.400411
v -0.181907 1.053611 0.469540
v -0.262256 1.102801 0.432495
v -0.296478 0.885474 0.483711
v -0.296478 0.659792 0.483711
v -0.240819 1.181400 0.400411
v 0.220725 1.166901 0.441111
v 0.271739 0.895668 0.517460
v 0.271739 0.688818 0.517460
v -0.240373 1.094860 0.470517
v -0.220725 1.166901 0.441111
v 0.271739 0.739962 0.517460
v 0.181907 1.053611 0.469540
v 0.159200 1.053584 0.486109
v 0.134826 1.053611 0.497009
v 0.296478 0.715593 0.483711
v -0.296478 0.715593 0.483711
v -0.271739 0.739962 0.517460
v 0.144719 0.895668 0.580687
v 0.229948 0.895668 0.545384
v 0.122689 1.094860 0.527505
v 0.207920 1.094860 0.492202
v 0.160766 1.136884 0.498897
v 0.166759 1.094860 0.513365
v -0.229948 0.895668 0.545384
v -0.144719 0.895668 0.580687
v -0.207920 1.094860 0.492202
v -0.122689 1.094860 0.527505
v -0.160766 1.136884 0.498897
v -0.166759 1.094860 0.513365
v -0.046127 1.094860 0.542735
v 0.046127 1.094860 0.542735
v -0.000000 1.136884 0.530875
v -0.000000 1.094860 0.546535
v 0.046125 0.895668 0.600299
v -0.046125 0.895668 0.600299
v 0.229947 0.739962 0.545385
v 0.144720 0.739962 0.580687
v 0.188788 0.739962 0.566547
v 0.046124 0.739962 0.600299
v -0.046124 0.739962 0.600299
v -0.000000 0.739962 0.604099
v -0.144720 0.739962 0.580687
v -0.229946 0.739962 0.545385
v -0.188788 0.739962 0.566547
v 0.194517 0.767087 0.512689
v 0.171874 0.767087 0.529207
v 0.147571 0.767087 0.540079
v 0.025407 0.767087 0.560627
v -0.000000 0.767087 0.563682
v -0.025407 0.767087 0.560627
v -0.147571 0.767087 0.540079
v -0.171874 0.767087 0.529207
v -0.194517 0.767087 0.512689
v 0.025426 0.892187 0.560939
v -0.000000 0.892236 0.563988
v -0.025426 0.892187 0.560939
v 0.147638 0.892187 0.540378
v 0.171957 0.892236 0.529489
v 0.194619 0.892187 0.512966
v -0.194619 0.892187 0.512966
v -0.171957 0.892236 0.529489
v -0.147638 0.892187 0.540378
v -0.208219 0.659792 0.482684
v -0.000000 0.659792 0.524101
v 0.208219 0.659792 0.482684
v -0.169129 1.181400 0.388313
v -0.000000 1.181400 0.421955
v 0.169129 1.181400 0.388313
v 0.262256 1.102801 0.372495
v 0.296478 0.885474 0.423711
v 0.296478 0.659792 0.423711
v 0.240819 1.181400 0.340411
v -0.262256 1.102801 0.372495
v -0.296478 0.885474 0.423711
v -0.296478 0.659792 0.423711
v -0.240819 1.181400 0.340411
v 0.296478 0.715593 0.423711
v -0.296478 0.715593 0.423711
v 0.369236 -0.000315 0.030764
v 0.369236 -0.000315 -0.030764
v 0.430764 0.000315 0.030764
v 0.430764 0.000315 -0.030764
v 0.373319 0.167076 0.050000
v 0.373319 0.167076 -0.050000
v 0.473319 0.167076 0.050000
v 0.473319 0.167076 -0.050000
v 0.405200 0.082838 0.041632
v 0.405200 0.082838 -0.041632
v 0.495973 0.111698 0.047193
v 0.486230 0.054689 0.039111
v 0.495973 0.111698 -0.047193
v 0.486230 0.054689 -0.039111
v 0.030764 -0.000315 -0.369236
v -0.030764 -0.000315 -0.369236
v 0.030764 0.000315 -0.430764
v -0.030764 0.000315 -0.430764
v 0.050000 0.167076 -0.373319
v -0.050000 0.167076 -0.373319
v 0.050000 0.167076 -0.473319
v -0.050000 0.167076 -0.473319
v 0.041632 0.082838 -0.405200
v -0.041632 0.082838 -0.405200
v 0.047193 0.111698 -0.495973
v 0.039110 0.054689 -0.486230
v -0.047193 0.111698 -0.495973
v -0.039111 0.054689 -0.486230
v -0.369236 -0.000315 -0.030764
v -0.369236 -0.000315 0.030764
v -0.430764 0.000315 -0.030764
v -0.430764 0.000315 0.030764
v -0.373319 0.167076 -0.050000
v -0.373319 0.167076 0.050000
v -0.473319 0.167076 -0.050000
v -0.473319 0.167076 0.050000
v -0.405200 0.082838 -0.041632
v -0.405200 0.082838 0.041632
v -0.495973 0.111698 -0.047193
v -0.486230 0.054689 -0.039110
v -0.495973 0.111698 0.047193
v -0.486230 0.054689 0.039111
v 0.282406 0.897081 0.474628
v 0.288141 0.900571 0.500925
v 0.324836 0.805705 0.491507
v 0.310891 0.904061 0.515308
v 0.337331 0.905506 0.509351
v 0.309541 0.995437 0.469664
v 0.351971 0.904061 0.486543
v 0.346237 0.900571 0.460246
v 0.323487 0.897081 0.445863
v 0.297047 0.895636 0.451820
v 0.299635 0.807861 0.455517
v 0.331851 0.809623 0.448258
v 0.317874 0.983015 0.428297
v 0.285658 0.981254 0.435555
v 0.359571 0.813875 0.465783
v 0.345594 0.987267 0.445821
v 0.366558 0.818127 0.497826
v 0.352581 0.991519 0.477864
v 0.348719 0.819888 0.525616
v 0.334742 0.993280 0.505654
v 0.316504 0.818127 0.532874
v 0.302527 0.991519 0.512913
v 0.288783 0.813875 0.515349
v 0.274806 0.987267 0.495388
v 0.281796 0.809623 0.483307
v 0.267819 0.983015 0.463345
v -0.322430 0.987931 0.593760
v -0.339937 0.981191 0.570435
v -0.321347 0.956234 0.541591
v -0.291025 0.948468 0.548908
v -0.273778 0.956234 0.574899
v -0.294524 0.981191 0.602233
v -0.287372 1.033989 0.543692
v -0.307796 1.023417 0.524532
v -0.300535 0.983576 0.511869
v -0.274271 0.970479 0.524981
v -0.252966 0.983576 0.545177
v -0.262383 1.023417 0.556331
v -0.233806 0.784674 0.516381
v -0.230653 0.823178 0.511983
v -0.252901 0.834503 0.494462
v -0.276974 0.823178 0.479548
v -0.280029 0.784674 0.484015
v -0.257786 0.773897 0.501439
v -0.215493 1.011848 0.490228
v -0.218548 0.973343 0.494695
v -0.242622 0.962019 0.479781
v -0.264869 0.973343 0.462261
v -0.261717 1.011848 0.457862
v -0.237736 1.022624 0.472804
v -0.307296 0.786826 0.572146
v -0.326137 0.795892 0.550726
v -0.312900 0.830182 0.529528
v -0.284662 0.841580 0.539821
v -0.265332 0.830182 0.562836
v -0.280724 0.795892 0.582524
v -0.333714 0.847947 0.609875
v -0.350357 0.851928 0.585316
v -0.328583 0.866466 0.551925
v -0.297287 0.870789 0.557851
v -0.281014 0.866466 0.585233
v -0.304944 0.851928 0.617114
v -0.168982 1.460000 0.016527
v 0.000000 1.460000 0.199827
v -0.151980 1.440953 0.043653
v -0.221678 1.460000 0.093067
v -0.198832 1.440953 0.113092
v -0.241433 1.460000 0.183933
v -0.215651 1.440953 0.195171
v -0.225056 1.460000 0.275763
v -0.199822 1.440953 0.277533
v -0.174345 1.460000 0.354986
v -0.153550 1.440953 0.347758
v -0.095640 1.460000 0.409380
v -0.083477 1.440953 0.395108
v 0.000000 1.460000 0.429033
v 0.000000 1.440953 0.408642
v 0.095641 1.460000 0.409380
v 0.083478 1.440953 0.395108
v 0.174345 1.460000 0.354986
v 0.153551 1.440953 0.347758
v 0.225056 1.460000 0.275763
v 0.199822 1.440953 0.277533
v 0.241433 1.460000 0.183933
v 0.215652 1.440953 0.195171
v 0.221678 1.460000 0.093067
v 0.198833 1.440953 0.113092
v 0.168983 1.460000 0.016527
v 0.151980 1.440953 0.043653
v 0.091245 1.460000 -0.034427
v 0.082190 1.440953 -0.002689
v 0.000000 1.460000 -0.052289
v 0.000000 1.440953 -0.020443
v -0.091244 1.460000 -0.034427
v -0.082190 1.440953 -0.002689
v -0.571005 0.859999 0.000000
v 0.571007 0.859999 0.000000
v -0.562878 0.859999 -0.051676
v -0.562878 0.823459 -0.036540
v 0.562879 0.823459 -0.036540
v 0.562879 0.859999 -0.051676
v -0.562878 0.808323 0.000000
v 0.562879 0.808323 0.000000
v -0.562878 0.823459 0.036540
v 0.562879 0.823459 0.036540
v -0.562878 0.859999 0.051676
v 0.562879 0.859999 0.051676
v -0.562878 0.896540 0.036540
v 0.562879 0.896540 0.036540
v -0.562878 0.911675 0.000000
v 0.562879 0.911675 0.000000
v -0.562878 0.896540 -0.036540
v 0.562879 0.896540 -0.036540
v -0.000000 0.859999 -0.571007
v -0.051676 0.859999 -0.337122
v -0.036540 0.823459 -0.337122
v -0.036540 0.823459 -0.562879
v -0.051676 0.859999 -0.562879
v 0.000000 0.808323 -0.337122
v -0.000000 0.808323 -0.562879
v 0.036540 0.823459 -0.337122
v 0.036540 0.823459 -0.562879
v 0.051676 0.859999 -0.337122
v 0.051676 0.859999 -0.562879
v 0.036540 0.896540 -0.337122
v 0.036540 0.896540 -0.562879
v 0.000000 0.911675 -0.337122
v -0.000000 0.911675 -0.562879
v -0.036540 0.896540 -0.337122
v -0.036540 0.896540 -0.562879
v 0.403763 0.859999 -0.403763
v 0.201841 0.859999 -0.274922
v 0.212544 0.823459 -0.264219
v 0.372178 0.823459 -0.423854
v 0.361475 0.859999 -0.434556
v 0.238382 0.808323 -0.238382
v 0.398016 0.808323 -0.398016
v 0.264220 0.823459 -0.212544
v 0.423854 0.823459 -0.372178
v 0.274922 0.859999 -0.201841
v 0.434556 0.859999 -0.361475
v 0.264220 0.896540 -0.212544
v 0.423854 0.896540 -0.372178
v 0.238382 0.911675 -0.238382
v 0.398016 0.911675 -0.398016
v 0.212544 0.896540 -0.264219
v 0.372178 0.896540 -0.423854
v -0.403763 0.859999 -0.403763
v -0.274922 0.859999 -0.201841
v -0.264219 0.823459 -0.212544
v -0.423854 0.823459 -0.372178
v -0.434556 0.859999 -0.361475
v -0.238382 0.808323 -0.238382
v -0.398016 0.808323 -0.398016
v -0.212544 0.823459 -0.264220
v -0.372178 0.823459 -0.423854
v -0.201841 0.859999 -0.274922
v -0.361475 0.859999 -0.434556
v -0.212544 0.896540 -0.264220
v -0.372178 0.896540 -0.423854
v -0.238382 0.911675 -0.238382
v -0.398016 0.911675 -0.398016
v -0.264219 0.896540 -0.212544
v -0.423854 0.896540 -0.372178
v -0.000001 1.559999 -0.528691
v -0.000001 1.760000 -0.528691
v 0.119920 1.559999 -0.496558
v 0.119920 1.760000 -0.496558
v 0.207708 1.559999 -0.408770
v 0.207708 1.760000 -0.408770
v 0.239840 1.559999 -0.288849
v 0.239840 1.760000 -0.288849
v 0.207708 1.559999 -0.168929
v 0.207708 1.760000 -0.168929
v 0.119920 1.559999 -0.081140
v 0.119920 1.760000 -0.081140
v -0.000001 1.559999 -0.049008
v -0.000001 1.760000 -0.049008
v -0.119922 1.559999 -0.081140
v -0.119922 1.760000 -0.081140
v -0.207710 1.559999 -0.168929
v -0.207710 1.760000 -0.168929
v -0.239843 1.559999 -0.288849
v -0.239843 1.760000 -0.288849
v -0.207710 1.559999 -0.408770
v -0.207710 1.760000 -0.408770
v -0.119922 1.559999 -0.496558
v -0.119922 1.760000 -0.496558
v 0.059960 1.960000 -0.392704
v -0.000001 1.960000 -0.408770
v 0.103854 1.960000 -0.348810
v 0.119920 1.960000 -0.288849
v 0.103854 1.960000 -0.228889
v 0.059960 1.960000 -0.184995
v -0.000001 1.960000 -0.168929
v -0.059961 1.960000 -0.184995
v -0.103855 1.960000 -0.228889
v -0.119921 1.960000 -0.288849
v -0.103855 1.960000 -0.348810
v -0.059961 1.960000 -0.392704
v 0.059960 2.399999 -0.392704
v -0.000001 2.399999 -0.408770
v 0.103854 2.399999 -0.348810
v 0.119920 2.399999 -0.288849
v 0.103854 2.399999 -0.228889
v 0.059960 2.399999 -0.184995
v -0.000001 2.399999 -0.168929
v -0.059961 2.399999 -0.184995
v -0.103855 2.399999 -0.228889
v -0.119921 2.399999 -0.288849
v -0.103855 2.399999 -0.348810
v -0.059961 2.399999 -0.392704
v 0.093493 2.499999 -0.450786
v -0.000001 2.499999 -0.475838
v 0.161936 2.499999 -0.382344
v 0.186988 2.499999 -0.288849
v 0.161936 2.499999 -0.195355
v 0.093493 2.499999 -0.126913
v -0.000001 2.499999 -0.101861
v -0.093495 2.499999 -0.126913
v -0.161938 2.499999 -0.195355
v -0.186989 2.499999 -0.288849
v -0.161938 2.499999 -0.382344
v -0.093495 2.499999 -0.450786
v 0.058595 2.599999 -0.390340
v -0.000001 2.599999 -0.406041
v 0.101490 2.599999 -0.347445
v 0.117191 2.599999 -0.288849
v 0.101490 2.599999 -0.230254
v 0.058595 2.599999 -0.187358
v -0.000001 2.599999 -0.171658
v -0.058597 2.599999 -0.187358
v -0.101492 2.599999 -0.230254
v -0.117193 2.599999 -0.288849
v -0.101492 2.599999 -0.347445
v -0.058597 2.599999 -0.390340
v 0.093493 2.599999 -0.450786
v -0.000001 2.599999 -0.475838
v 0.161936 2.599999 -0.382344
v 0.186988 2.599999 -0.288849
v 0.161936 2.599999 -0.195355
v 0.093493 2.599999 -0.126913
v -0.000001 2.599999 -0.101861
v -0.093495 2.599999 -0.126913
v -0.161938 2.599999 -0.195355
v -0.186989 2.599999 -0.288849
v -0.161938 2.599999 -0.382344
v -0.093495 2.599999 -0.450786
v -0.000001 2.080000 -0.288849
v 0.045165 2.270000 -0.367079
v -0.000001 2.270000 -0.379181
v 0.078228 2.270000 -0.334015
v 0.090330 2.270000 -0.288849
v 0.078228 2.270000 -0.243684
v 0.045165 2.270000 -0.210620
v -0.000001 2.270000 -0.198518
v -0.045167 2.270000 -0.210620
v -0.078230 2.270000 -0.243684
v -0.090333 2.270000 -0.288849
v -0.078230 2.270000 -0.334015
v -0.045167 2.270000 -0.367079
v -0.000001 1.460000 -0.471448
v 0.091298 1.460000 -0.446984
v 0.158134 1.460000 -0.380149
v 0.182597 1.460000 -0.288849
v 0.158134 1.460000 -0.197550
v 0.091298 1.460000 -0.130715
v -0.000001 1.460000 -0.106251
v -0.091300 1.460000 -0.130715
v -0.158136 1.460000 -0.197550
v -0.182599 1.460000 -0.288849
v -0.158136 1.460000 -0.380149
v -0.091300 1.460000 -0.446984
v -0.133236 1.460000 0.066590
v -0.072107 1.460000 0.025745
v -0.174082 1.460000 0.127720
v -0.188425 1.460000 0.199827
v -0.174082 1.460000 0.271934
v -0.133236 1.460000 0.333063
v -0.072107 1.460000 0.373909
v 0.000000 1.460000 0.388252
v 0.072107 1.460000 0.373909
v 0.133237 1.460000 0.333063
v 0.174082 1.460000 0.271934
v 0.188425 1.460000 0.199827
v 0.174082 1.460000 0.127720
v 0.133237 1.460000 0.066590
v 0.072107 1.460000 0.025745
v 0.000000 1.460000 0.011402
vt 0.797364 0.545023
vt 0.797364 0.551200
vt 0.812540 0.551200
vt 0.812540 0.545023
vt 0.797364 0.566825
vt 0.800139 0.573002
vt 0.812540 0.573002
vt 0.812540 0.566825
vt 0.784498 0.545023
vt 0.784498 0.551200
vt 0.784498 0.566825
vt 0.789627 0.573002
vt 0.775902 0.545023
vt 0.775902 0.551200
vt 0.775902 0.566825
vt 0.782602 0.573002
vt 0.772883 0.545023
vt 0.772883 0.551200
vt 0.772883 0.566825
vt 0.780136 0.573002
vt 0.775902 0.545023
vt 0.775902 0.551200
vt 0.775902 0.566825
vt 0.782602 0.573002
vt 0.784498 0.545023
vt 0.784498 0.551200
vt 0.784498 0.566825
vt 0.789627 0.573002
vt 0.797364 0.545023
vt 0.797364 0.551200
vt 0.797364 0.566825
vt 0.800139 0.573002
vt 0.812540 0.545023
vt 0.812540 0.551200
vt 0.812540 0.566825
vt 0.812540 0.573002
vt 0.827716 0.545023
vt 0.827716 0.551200
vt 0.827716 0.566825
vt 0.824941 0.573002
vt 0.840582 0.545023
vt 0.840582 0.551200
vt 0.840582 0.566825
vt 0.835454 0.573002
vt 0.849178 0.545023
vt 0.849178 0.551200
vt 0.849178 0.566825
vt 0.842478 0.573002
vt 0.852197 0.545023
vt 0.852197 0.551200
vt 0.852197 0.566825
vt 0.844945 0.573002
vt 0.849178 0.545023
vt 0.849178 0.551200
vt 0.849178 0.566825
vt 0.842478 0.573002
vt 0.840582 0.545023
vt 0.840582 0.551200
vt 0.840582 0.566825
vt 0.835454 0.573002
vt 0.827716 0.545023
vt 0.827716 0.551200
vt 0.827716 0.566825
vt 0.824941 0.573002
vt 0.812540 0.513773
vt 0.812540 0.513773
vt 0.827716 0.513773
vt 0.827149 0.514036
vt 0.824941 0.510502
vt 0.812540 0.510502
vt 0.812540 0.514036
vt 0.840582 0.513773
vt 0.849178 0.513773
vt 0.852197 0.513773
vt 0.849178 0.513773
vt 0.840582 0.513773
vt 0.827716 0.513773
vt 0.812540 0.513773
vt 0.797364 0.513773
vt 0.784498 0.513773
vt 0.775902 0.513773
vt 0.772883 0.513773
vt 0.775902 0.513773
vt 0.784498 0.513773
vt 0.797364 0.513773
vt 0.812540 0.603261
vt 0.812540 0.612971
vt 0.824760 0.612971
vt 0.827149 0.603261
vt 0.850714 0.514036
vt 0.844945 0.510502
vt 0.842478 0.510502
vt 0.847808 0.514036
vt 0.839533 0.514036
vt 0.835454 0.510502
vt 0.842478 0.510502
vt 0.847808 0.514036
vt 0.812540 0.514036
vt 0.812540 0.510502
vt 0.824941 0.510502
vt 0.827149 0.514036
vt 0.785547 0.514036
vt 0.789627 0.510502
vt 0.800139 0.510502
vt 0.797932 0.514036
vt 0.774366 0.514036
vt 0.780136 0.510502
vt 0.782602 0.510502
vt 0.777272 0.514036
vt 0.785547 0.514036
vt 0.789627 0.510502
vt 0.782602 0.510502
vt 0.777272 0.514036
vt 0.777272 0.603261
vt 0.783038 0.612971
vt 0.789960 0.612971
vt 0.785547 0.603261
vt 0.797932 0.603261
vt 0.800320 0.612971
vt 0.797932 0.514036
vt 0.800139 0.510502
vt 0.777272 0.603261
vt 0.783038 0.612971
vt 0.780607 0.612971
vt 0.774366 0.603261
vt 0.797932 0.603261
vt 0.800320 0.612971
vt 0.789960 0.612971
vt 0.785547 0.603261
vt 0.827149 0.603261
vt 0.824760 0.612971
vt 0.812540 0.612971
vt 0.812540 0.603261
vt 0.847808 0.603261
vt 0.842042 0.612971
vt 0.835120 0.612971
vt 0.839533 0.603261
vt 0.847808 0.603261
vt 0.842042 0.612971
vt 0.844473 0.612971
vt 0.850714 0.603261
vt 0.835120 0.612971
vt 0.839533 0.603261
vt 0.835454 0.510502
vt 0.839533 0.514036
vt 0.796025 0.589837
vt 0.782025 0.589837
vt 0.796025 0.568158
vt 0.782025 0.568158
vt 0.797932 0.560911
vt 0.785547 0.560911
vt 0.772670 0.589837
vt 0.769385 0.589837
vt 0.772670 0.568158
vt 0.769385 0.568158
vt 0.777272 0.560911
vt 0.774366 0.560911
vt 0.772670 0.589837
vt 0.782025 0.589837
vt 0.772670 0.568158
vt 0.782025 0.568158
vt 0.777272 0.560911
vt 0.785547 0.560911
vt 0.796025 0.589837
vt 0.812540 0.589837
vt 0.796025 0.568158
vt 0.812540 0.568158
vt 0.797932 0.560911
vt 0.812540 0.560911
vt 0.829055 0.589837
vt 0.843055 0.589837
vt 0.829055 0.568158
vt 0.843055 0.568158
vt 0.827149 0.560911
vt 0.839533 0.560911
vt 0.852410 0.589837
vt 0.855695 0.589837
vt 0.852410 0.568158
vt 0.855695 0.568158
vt 0.847808 0.560911
vt 0.850714 0.560911
vt 0.852410 0.589837
vt 0.843055 0.589837
vt 0.852410 0.568158
vt 0.843055 0.568158
vt 0.847808 0.560911
vt 0.839533 0.560911
vt 0.829055 0.589837
vt 0.812540 0.589837
vt 0.829055 0.568158
vt 0.812540 0.568158
vt 0.827149 0.560911
vt 0.812540 0.560911
vt 0.809238 0.556324
vt 0.808797 0.558614
vt 0.808574 0.563006
vt 0.808574 0.563006
vt 0.816283 0.558614
vt 0.815842 0.556324
vt 0.816506 0.563006
vt 0.816506 0.563006
vt 0.810100 0.549729
vt 0.814980 0.549729
vt 0.814980 0.518479
vt 0.814980 0.518529
vt 0.810100 0.518529
vt 0.810100 0.518479
vt 0.814980 0.549779
vt 0.815642 0.554092
vt 0.809438 0.554092
vt 0.810100 0.549779
vt 0.812540 0.624090
vt 0.812540 0.619149
vt 0.797364 0.619149
vt 0.797364 0.624090
vt 0.793391 0.625326
vt 0.794958 0.625326
vt 0.777396 0.625326
vt 0.774500 0.625326
vt 0.827716 0.572274
vt 0.824760 0.566096
vt 0.812540 0.566096
vt 0.812540 0.572274
vt 0.812540 0.625326
vt 0.819777 0.625326
vt 0.827097 0.625326
vt 0.812540 0.625326
vt 0.840582 0.572274
vt 0.835120 0.566096
vt 0.825943 0.625326
vt 0.839438 0.625326
vt 0.849178 0.572274
vt 0.842042 0.566096
vt 0.830122 0.625326
vt 0.847684 0.625326
vt 0.852197 0.572274
vt 0.844473 0.566096
vt 0.831689 0.625326
vt 0.850580 0.625326
vt 0.849178 0.572274
vt 0.842042 0.566096
vt 0.830390 0.625326
vt 0.847684 0.625326
vt 0.840582 0.572274
vt 0.835120 0.566096
vt 0.826368 0.625326
vt 0.839438 0.625326
vt 0.827716 0.572274
vt 0.824760 0.566096
vt 0.820126 0.625326
vt 0.827097 0.625326
vt 0.812540 0.572274
vt 0.812540 0.566096
vt 0.812540 0.625326
vt 0.812540 0.625326
vt 0.797364 0.572274
vt 0.800320 0.566096
vt 0.804955 0.625326
vt 0.797983 0.625326
vt 0.784498 0.572274
vt 0.789960 0.566096
vt 0.798712 0.625326
vt 0.785642 0.625326
vt 0.775902 0.572274
vt 0.783038 0.566096
vt 0.794690 0.625326
vt 0.777396 0.625326
vt 0.772883 0.572274
vt 0.780607 0.566096
vt 0.775902 0.572274
vt 0.783038 0.566096
vt 0.784498 0.572274
vt 0.789960 0.566096
vt 0.799137 0.625326
vt 0.805303 0.625326
vt 0.797983 0.625326
vt 0.785642 0.625326
vt 0.797364 0.572274
vt 0.800320 0.566096
vt 0.827716 0.624090
vt 0.827716 0.619149
vt 0.784498 0.624090
vt 0.784498 0.619149
vt 0.775902 0.619149
vt 0.775902 0.624090
vt 0.772883 0.619149
vt 0.772883 0.624090
vt 0.775902 0.619149
vt 0.775902 0.624090
vt 0.784498 0.619149
vt 0.784498 0.624090
vt 0.797364 0.619149
vt 0.797364 0.624090
vt 0.812540 0.619149
vt 0.812540 0.624090
vt 0.827716 0.619149
vt 0.827716 0.624090
vt 0.840582 0.619149
vt 0.840582 0.624090
vt 0.849178 0.619149
vt 0.849178 0.624090
vt 0.852197 0.619149
vt 0.852197 0.624090
vt 0.849178 0.619149
vt 0.849178 0.624090
vt 0.840582 0.619149
vt 0.840582 0.624090
vt 0.812540 0.639715
vt 0.797364 0.639715
vt 0.797983 0.640951
vt 0.812540 0.640951
vt 0.784498 0.639715
vt 0.785642 0.640951
vt 0.775902 0.639715
vt 0.777396 0.640951
vt 0.772883 0.639715
vt 0.774500 0.640951
vt 0.775902 0.639715
vt 0.777396 0.640951
vt 0.784498 0.639715
vt 0.785642 0.640951
vt 0.797364 0.639715
vt 0.797983 0.640951
vt 0.812540 0.639715
vt 0.812540 0.640951
vt 0.827716 0.639715
vt 0.827097 0.640951
vt 0.840582 0.639715
vt 0.839438 0.640951
vt 0.849178 0.639715
vt 0.847684 0.640951
vt 0.852197 0.639715
vt 0.850580 0.640951
vt 0.849178 0.639715
vt 0.847684 0.640951
vt 0.840582 0.639715
vt 0.839438 0.640951
vt 0.827716 0.639715
vt 0.827097 0.640951
vt 0.778851 0.567061
vt 0.794308 0.567061
vt 0.794308 0.558779
vt 0.778851 0.558779
vt 0.764896 0.567061
vt 0.768523 0.567061
vt 0.768523 0.558779
vt 0.764896 0.558779
vt 0.778851 0.567061
vt 0.768523 0.567061
vt 0.768523 0.558779
vt 0.778851 0.558779
vt 0.812540 0.567061
vt 0.794308 0.567061
vt 0.794308 0.558779
vt 0.812540 0.558779
vt 0.846229 0.567061
vt 0.830773 0.567061
vt 0.830773 0.558779
vt 0.846229 0.558779
vt 0.860184 0.567061
vt 0.856557 0.567061
vt 0.856557 0.558779
vt 0.860184 0.558779
vt 0.846229 0.567061
vt 0.856557 0.567061
vt 0.856557 0.558779
vt 0.846229 0.558779
vt 0.812540 0.567061
vt 0.830773 0.567061
vt 0.830773 0.558779
vt 0.812540 0.558779
vt 0.843055 0.583099
vt 0.829055 0.583099
vt 0.830773 0.582686
vt 0.846229 0.582686
vt 0.843055 0.511491
vt 0.852410 0.511491
vt 0.856557 0.511904
vt 0.846229 0.511904
vt 0.796025 0.511491
vt 0.782025 0.511491
vt 0.778851 0.511904
vt 0.794308 0.511904
vt 0.852410 0.583099
vt 0.855695 0.583099
vt 0.860184 0.582686
vt 0.856557 0.582686
vt 0.769385 0.583099
vt 0.772670 0.583099
vt 0.768523 0.582686
vt 0.764896 0.582686
vt 0.829055 0.511491
vt 0.812540 0.511491
vt 0.812540 0.511904
vt 0.830773 0.511904
vt 0.855695 0.511491
vt 0.852410 0.511491
vt 0.856557 0.511904
vt 0.860184 0.511904
vt 0.829055 0.511491
vt 0.830773 0.511904
vt 0.829055 0.583099
vt 0.843055 0.583099
vt 0.846229 0.582686
vt 0.830773 0.582686
vt 0.796025 0.583099
vt 0.812540 0.583099
vt 0.812540 0.582686
vt 0.794308 0.582686
vt 0.852410 0.583099
vt 0.856557 0.582686
vt 0.843055 0.511491
vt 0.846229 0.511904
vt 0.772670 0.511491
vt 0.769385 0.511491
vt 0.764896 0.511904
vt 0.768523 0.511904
vt 0.782025 0.583099
vt 0.778851 0.582686
vt 0.782025 0.583099
vt 0.772670 0.583099
vt 0.768523 0.582686
vt 0.778851 0.582686
vt 0.772670 0.511491
vt 0.768523 0.511904
vt 0.782025 0.511491
vt 0.778851 0.511904
vt 0.796025 0.583099
vt 0.794308 0.582686
vt 0.812540 0.583099
vt 0.812540 0.582686
vt 0.796025 0.511491
vt 0.794308 0.511904
vt 0.812540 0.511491
vt 0.812540 0.511904
vt 0.808882 0.605342
vt 0.802809 0.605342
vt 0.801062 0.589543
vt 0.808882 0.589543
vt 0.075705 0.766032
vt 0.075707 0.767740
vt 0.073690 0.767741
vt 0.073690 0.766032
vt 0.812540 0.627831
vt 0.799126 0.627831
vt 0.800245 0.626681
vt 0.812540 0.626681
vt 0.812540 0.608675
vt 0.812540 0.611056
vt 0.800245 0.611056
vt 0.799789 0.608675
vt 0.830047 0.611056
vt 0.824835 0.611056
vt 0.825291 0.608675
vt 0.812540 0.573137
vt 0.808882 0.577194
vt 0.801062 0.577194
vt 0.797404 0.573137
vt 0.834093 0.577194
vt 0.830778 0.577194
vt 0.827677 0.573137
vt 0.834093 0.573137
vt 0.794302 0.577194
vt 0.790987 0.577194
vt 0.790987 0.573137
vt 0.822271 0.605342
vt 0.816199 0.605342
vt 0.816199 0.589543
vt 0.824018 0.589543
vt 0.794302 0.589543
vt 0.790987 0.589543
vt 0.789025 0.590886
vt 0.789025 0.586460
vt 0.790987 0.588762
vt 0.790987 0.592819
vt 0.791739 0.621597
vt 0.789025 0.604360
vt 0.790987 0.605168
vt 0.793475 0.620967
vt 0.824018 0.577194
vt 0.816198 0.577194
vt 0.829055 0.586460
vt 0.836055 0.586460
vt 0.834093 0.588762
vt 0.827677 0.588762
vt 0.831641 0.627831
vt 0.825954 0.627831
vt 0.824835 0.626681
vt 0.830047 0.626681
vt 0.796025 0.586460
vt 0.797404 0.588762
vt 0.812540 0.586460
vt 0.812540 0.588762
vt 0.833341 0.621597
vt 0.831605 0.620967
vt 0.793440 0.627831
vt 0.795034 0.626681
vt 0.836055 0.590886
vt 0.836055 0.604360
vt 0.834093 0.605168
vt 0.834093 0.592819
vt 0.796049 0.605342
vt 0.793475 0.605342
vt 0.831605 0.605342
vt 0.829031 0.605342
vt 0.830778 0.589543
vt 0.834093 0.589543
vt 0.795034 0.611056
vt 0.825767 0.605342
vt 0.799314 0.605342
vt 0.812540 0.605342
vt 0.827514 0.577194
vt 0.812540 0.577194
vt 0.797567 0.577194
vt 0.808882 0.574092
vt 0.808882 0.558293
vt 0.810524 0.558017
vt 0.810519 0.570820
vt 0.824018 0.545944
vt 0.827514 0.545944
vt 0.826172 0.548095
vt 0.824245 0.548095
vt 0.829031 0.574092
vt 0.825767 0.574092
vt 0.825167 0.570818
vt 0.826968 0.570820
vt 0.830778 0.558293
vt 0.827976 0.558017
vt 0.830778 0.545944
vt 0.827968 0.548095
vt 0.801062 0.545944
vt 0.801062 0.558293
vt 0.800830 0.558017
vt 0.800836 0.548095
vt 0.822271 0.574092
vt 0.823234 0.570820
vt 0.816199 0.558293
vt 0.816199 0.574092
vt 0.814561 0.570820
vt 0.814557 0.558017
vt 0.816198 0.545944
vt 0.814555 0.548095
vt 0.808882 0.545944
vt 0.812540 0.545944
vt 0.812540 0.548095
vt 0.810525 0.548095
vt 0.802809 0.574092
vt 0.799314 0.574092
vt 0.799913 0.570818
vt 0.801847 0.570820
vt 0.071673 0.767740
vt 0.071675 0.766032
vt 0.084383 0.769944
vt 0.085400 0.767740
vt 0.087328 0.767741
vt 0.086317 0.769944
vt 0.089126 0.767740
vt 0.088118 0.769944
vt 0.059262 0.769944
vt 0.058254 0.767740
vt 0.060051 0.767741
vt 0.061063 0.769944
vt 0.061980 0.767740
vt 0.062996 0.769944
vt 0.075711 0.769944
vt 0.073690 0.769944
vt 0.071669 0.769944
vt 0.085394 0.766032
vt 0.087322 0.766032
vt 0.089118 0.766032
vt 0.058262 0.766032
vt 0.060058 0.766032
vt 0.061985 0.766032
vt 0.796049 0.574092
vt 0.794302 0.558293
vt 0.797104 0.558017
vt 0.798112 0.570820
vt 0.824018 0.558293
vt 0.824250 0.558017
vt 0.812540 0.574092
vt 0.812540 0.570818
vt 0.797567 0.545944
vt 0.798908 0.548095
vt 0.794302 0.545944
vt 0.797112 0.548095
vt 0.791739 0.574722
vt 0.793440 0.580956
vt 0.793440 0.580956
vt 0.791739 0.574722
vt 0.831641 0.580956
vt 0.833341 0.574722
vt 0.833341 0.574722
vt 0.831641 0.580956
vt 0.836055 0.557485
vt 0.836055 0.544011
vt 0.836055 0.544011
vt 0.836055 0.557485
vt 0.789025 0.539585
vt 0.789025 0.544011
vt 0.789025 0.544011
vt 0.789025 0.539585
vt 0.799126 0.580956
vt 0.812540 0.580956
vt 0.812540 0.580956
vt 0.799126 0.580956
vt 0.836055 0.539585
vt 0.836055 0.539585
vt 0.829055 0.539585
vt 0.812540 0.539585
vt 0.812540 0.539585
vt 0.829055 0.539585
vt 0.789025 0.557485
vt 0.789025 0.557485
vt 0.825954 0.580956
vt 0.825954 0.580956
vt 0.796025 0.539585
vt 0.796025 0.539585
vt 0.844678 0.556324
vt 0.851878 0.558614
vt 0.850081 0.563006
vt 0.842150 0.563006
vt 0.851878 0.558614
vt 0.844678 0.556324
vt 0.842150 0.563006
vt 0.850081 0.563006
vt 0.841826 0.549729
vt 0.841826 0.549729
vt 0.841826 0.518479
vt 0.846706 0.518529
vt 0.846706 0.518529
vt 0.841826 0.518479
vt 0.846706 0.549779
vt 0.851105 0.554092
vt 0.851105 0.554092
vt 0.846706 0.549779
vt 0.815842 0.556324
vt 0.816283 0.558614
vt 0.816506 0.563006
vt 0.816506 0.563006
vt 0.808797 0.558614
vt 0.809238 0.556324
vt 0.808574 0.563006
vt 0.808574 0.563006
vt 0.814980 0.549729
vt 0.810100 0.549729
vt 0.810100 0.518479
vt 0.810100 0.518529
vt 0.814980 0.518529
vt 0.814980 0.518479
vt 0.810100 0.549779
vt 0.809438 0.554092
vt 0.815642 0.554092
vt 0.814980 0.549779
vt 0.780402 0.556324
vt 0.773203 0.558614
vt 0.774999 0.563006
vt 0.782931 0.563006
vt 0.773203 0.558614
vt 0.780402 0.556324
vt 0.782931 0.563006
vt 0.774999 0.563006
vt 0.783255 0.549729
vt 0.783255 0.549729
vt 0.783255 0.518479
vt 0.778375 0.518529
vt 0.778375 0.518529
vt 0.783255 0.518479
vt 0.778375 0.549779
vt 0.773975 0.554092
vt 0.773975 0.554092
vt 0.778375 0.549779
vt 0.836100 0.589541
vt 0.835197 0.596331
vt 0.837752 0.596471
vt 0.838197 0.589655
vt 0.839951 0.596808
vt 0.840002 0.589932
vt 0.840505 0.597146
vt 0.840456 0.590209
vt 0.839090 0.597285
vt 0.839295 0.590324
vt 0.836535 0.597146
vt 0.837198 0.590209
vt 0.834336 0.596808
vt 0.835394 0.589932
vt 0.833782 0.596471
vt 0.834939 0.589655
vt 0.838304 0.551158
vt 0.836305 0.551329
vt 0.838860 0.551469
vt 0.837091 0.613081
vt 0.837752 0.612096
vt 0.835197 0.611956
vt 0.841059 0.551806
vt 0.839951 0.612433
vt 0.841613 0.552143
vt 0.840505 0.612771
vt 0.840198 0.552283
vt 0.839090 0.612910
vt 0.837643 0.552143
vt 0.836535 0.612771
vt 0.835445 0.551806
vt 0.834336 0.612433
vt 0.834890 0.551469
vt 0.833782 0.612096
vt 0.836305 0.582579
vt 0.838860 0.582719
vt 0.841059 0.583056
vt 0.841613 0.583393
vt 0.840198 0.583533
vt 0.837643 0.583393
vt 0.835445 0.583056
vt 0.834890 0.582719
vt 0.788961 0.556320
vt 0.789458 0.562481
vt 0.790826 0.563097
vt 0.790252 0.555977
vt 0.789180 0.596326
vt 0.788354 0.586074
vt 0.790252 0.587227
vt 0.790826 0.594347
vt 0.788354 0.601699
vt 0.789180 0.611951
vt 0.786967 0.612486
vt 0.786072 0.601383
vt 0.788703 0.596516
vt 0.787053 0.594347
vt 0.785578 0.596326
vt 0.788128 0.599676
vt 0.786479 0.587227
vt 0.784752 0.586074
vt 0.789747 0.616139
vt 0.788128 0.615301
vt 0.785578 0.611951
vt 0.791730 0.599676
vt 0.792476 0.596516
vt 0.787053 0.563097
vt 0.788703 0.565266
vt 0.790787 0.564227
vt 0.792476 0.565266
vt 0.791496 0.584349
vt 0.790275 0.581630
vt 0.793996 0.580740
vt 0.794246 0.583794
vt 0.791730 0.615301
vt 0.795206 0.595704
vt 0.795449 0.598758
vt 0.791782 0.598758
vt 0.791532 0.595704
vt 0.793684 0.615238
vt 0.791782 0.614383
vt 0.786673 0.581630
vt 0.787723 0.584349
vt 0.790572 0.583794
vt 0.790330 0.580740
vt 0.790275 0.597255
vt 0.788167 0.596536
vt 0.792094 0.595510
vt 0.793996 0.596365
vt 0.784752 0.601699
vt 0.795449 0.614383
vt 0.786673 0.597255
vt 0.790330 0.596365
vt 0.787723 0.553099
vt 0.789963 0.554003
vt 0.792482 0.553442
vt 0.790572 0.552544
vt 0.791532 0.564454
vt 0.793297 0.563556
vt 0.791496 0.553099
vt 0.794246 0.552544
vt 0.795206 0.564454
vt 0.786479 0.555977
vt 0.800486 0.624149
vt 0.806021 0.624149
vt 0.806021 0.561649
vt 0.800486 0.561649
vt 0.801973 0.562826
vt 0.806821 0.562826
vt 0.796770 0.624149
vt 0.796770 0.561649
vt 0.798733 0.562826
vt 0.795436 0.624149
vt 0.795436 0.561649
vt 0.797595 0.562826
vt 0.796692 0.624149
vt 0.796692 0.561649
vt 0.798733 0.562826
vt 0.800361 0.624149
vt 0.800361 0.561649
vt 0.801973 0.562826
vt 0.805919 0.624149
vt 0.805919 0.561649
vt 0.806821 0.562826
vt 0.812540 0.624149
vt 0.812540 0.561649
vt 0.812540 0.562826
vt 0.819161 0.624149
vt 0.819161 0.561649
vt 0.818259 0.562826
vt 0.824719 0.624149
vt 0.824719 0.561649
vt 0.823108 0.562826
vt 0.828389 0.624149
vt 0.828389 0.561649
vt 0.826347 0.562826
vt 0.829644 0.624149
vt 0.829644 0.561649
vt 0.827485 0.562826
vt 0.828310 0.624149
vt 0.828310 0.561649
vt 0.826347 0.562826
vt 0.824594 0.624149
vt 0.824594 0.561649
vt 0.823108 0.562826
vt 0.819059 0.624149
vt 0.819059 0.561649
vt 0.818259 0.562826
vt 0.812540 0.624149
vt 0.812540 0.561649
vt 0.812540 0.562826
vt 0.767896 0.586714
vt 0.857184 0.586714
vt 0.857184 0.583816
vt 0.767896 0.583816
vt 0.857184 0.582616
vt 0.767896 0.582616
vt 0.857184 0.583816
vt 0.767896 0.583816
vt 0.857184 0.586714
vt 0.767896 0.586714
vt 0.857184 0.589612
vt 0.767896 0.589612
vt 0.857184 0.590813
vt 0.767896 0.590813
vt 0.857184 0.589612
vt 0.767896 0.589612
vt 0.767251 0.586714
vt 0.857829 0.586714
vt 0.808442 0.586714
vt 0.808442 0.586714
vt 0.809642 0.583816
vt 0.809642 0.583816
vt 0.812540 0.582616
vt 0.812540 0.582616
vt 0.815438 0.583816
vt 0.815438 0.583816
vt 0.816639 0.586714
vt 0.816639 0.586714
vt 0.815438 0.589612
vt 0.815438 0.589612
vt 0.812540 0.590813
vt 0.812540 0.590813
vt 0.809642 0.589612
vt 0.809642 0.589612
vt 0.812540 0.586714
vt 0.828549 0.586714
vt 0.841210 0.586714
vt 0.842059 0.583816
vt 0.829398 0.583816
vt 0.844108 0.582616
vt 0.831447 0.582616
vt 0.846158 0.583816
vt 0.833496 0.583816
vt 0.847006 0.586714
vt 0.834345 0.586714
vt 0.846158 0.589612
vt 0.833496 0.589612
vt 0.844108 0.590813
vt 0.831447 0.590813
vt 0.842059 0.589612
vt 0.829398 0.589612
vt 0.844564 0.586714
vt 0.790735 0.586714
vt 0.778074 0.586714
vt 0.778923 0.583816
vt 0.791584 0.583816
vt 0.780972 0.582616
vt 0.793633 0.582616
vt 0.783021 0.583816
vt 0.795682 0.583816
vt 0.783870 0.586714
vt 0.796531 0.586714
vt 0.783021 0.589612
vt 0.795682 0.589612
vt 0.780972 0.590813
vt 0.793633 0.590813
vt 0.778923 0.589612
vt 0.791584 0.589612
vt 0.780516 0.586714
vt 0.812540 0.595359
vt 0.812540 0.611222
vt 0.822051 0.611222
vt 0.822051 0.595359
vt 0.829014 0.611222
vt 0.829014 0.595359
vt 0.831563 0.611222
vt 0.831563 0.595359
vt 0.829014 0.611222
vt 0.829014 0.595359
vt 0.822051 0.611222
vt 0.822051 0.595359
vt 0.812540 0.611222
vt 0.812540 0.595359
vt 0.803029 0.611222
vt 0.803029 0.595359
vt 0.796066 0.611222
vt 0.796066 0.595359
vt 0.793517 0.611222
vt 0.793517 0.595359
vt 0.796066 0.611222
vt 0.796066 0.595359
vt 0.831563 0.626847
vt 0.829014 0.626847
vt 0.820777 0.642710
vt 0.822052 0.642710
vt 0.803029 0.611222
vt 0.803029 0.595359
vt 0.812540 0.584497
vt 0.803029 0.584497
vt 0.805299 0.576565
vt 0.812540 0.576565
vt 0.807784 0.627085
vt 0.812540 0.627085
vt 0.812540 0.661983
vt 0.807784 0.661983
vt 0.803029 0.626847
vt 0.796066 0.626847
vt 0.804303 0.642710
vt 0.807784 0.642710
vt 0.822051 0.626847
vt 0.817296 0.642710
vt 0.793517 0.626847
vt 0.803029 0.642710
vt 0.796066 0.626847
vt 0.804303 0.642710
vt 0.803029 0.626847
vt 0.807784 0.642710
vt 0.812540 0.626847
vt 0.812540 0.642710
vt 0.822051 0.626847
vt 0.817296 0.642710
vt 0.829014 0.626847
vt 0.820777 0.642710
vt 0.812540 0.626847
vt 0.812540 0.642710
vt 0.822052 0.630733
vt 0.820777 0.630733
vt 0.825384 0.638664
vt 0.827371 0.638664
vt 0.820777 0.627085
vt 0.822052 0.627085
vt 0.822052 0.661983
vt 0.820777 0.661983
vt 0.807784 0.627085
vt 0.804303 0.627085
vt 0.804303 0.661983
vt 0.807784 0.661983
vt 0.817296 0.627085
vt 0.812540 0.627085
vt 0.812540 0.661983
vt 0.817296 0.661983
vt 0.804303 0.627085
vt 0.804303 0.661983
vt 0.817296 0.627085
vt 0.817296 0.661983
vt 0.820777 0.627085
vt 0.820777 0.661983
vt 0.803029 0.627085
vt 0.803029 0.661983
vt 0.827371 0.669914
vt 0.825384 0.669914
vt 0.825384 0.677846
vt 0.827371 0.677846
vt 0.804303 0.630733
vt 0.803029 0.630733
vt 0.797709 0.638664
vt 0.799696 0.638664
vt 0.807784 0.630733
vt 0.812540 0.630733
vt 0.812540 0.638664
vt 0.805125 0.638664
vt 0.820777 0.630733
vt 0.825384 0.638664
vt 0.807784 0.630733
vt 0.805125 0.638664
vt 0.817296 0.630733
vt 0.812540 0.630733
vt 0.812540 0.638664
vt 0.819955 0.638664
vt 0.804303 0.630733
vt 0.799696 0.638664
vt 0.817296 0.630733
vt 0.819955 0.638664
vt 0.812540 0.537423
vt 0.817188 0.537423
vt 0.816122 0.524517
vt 0.812540 0.524517
vt 0.799696 0.669914
vt 0.797709 0.669914
vt 0.797709 0.677846
vt 0.799696 0.677846
vt 0.805125 0.669914
vt 0.812540 0.669914
vt 0.812540 0.677846
vt 0.805125 0.677846
vt 0.825384 0.669914
vt 0.825384 0.677846
vt 0.805125 0.669914
vt 0.805125 0.677846
vt 0.819955 0.669914
vt 0.812540 0.669914
vt 0.812540 0.677846
vt 0.819955 0.677846
vt 0.799696 0.669914
vt 0.799696 0.677846
vt 0.819955 0.669914
vt 0.819955 0.677846
vt 0.812540 0.693471
vt 0.817188 0.693471
vt 0.819955 0.693471
vt 0.812540 0.693471
vt 0.820590 0.693471
vt 0.825384 0.693471
vt 0.821835 0.693471
vt 0.827371 0.693471
vt 0.820590 0.693471
vt 0.825384 0.693471
vt 0.817188 0.693471
vt 0.819955 0.693471
vt 0.812540 0.693471
vt 0.812540 0.693471
vt 0.807893 0.693471
vt 0.805125 0.693471
vt 0.804490 0.693471
vt 0.799696 0.693471
vt 0.803245 0.693471
vt 0.797709 0.693471
vt 0.804490 0.693471
vt 0.799696 0.693471
vt 0.807893 0.693471
vt 0.805125 0.693471
vt 0.821835 0.537423
vt 0.820590 0.537423
vt 0.818745 0.524517
vt 0.819705 0.524517
vt 0.804490 0.537423
vt 0.803245 0.537423
vt 0.805376 0.524517
vt 0.806335 0.524517
vt 0.807893 0.537423
vt 0.808958 0.524517
vt 0.820590 0.537423
vt 0.818745 0.524517
vt 0.807893 0.537423
vt 0.808958 0.524517
vt 0.817188 0.537423
vt 0.812540 0.537423
vt 0.812540 0.524517
vt 0.816122 0.524517
vt 0.804490 0.537423
vt 0.806335 0.524517
vt 0.812540 0.517087
vt 0.822051 0.584497
vt 0.819781 0.576565
vt 0.829014 0.584497
vt 0.825082 0.576565
vt 0.831563 0.584497
vt 0.827023 0.576565
vt 0.803029 0.584497
vt 0.812540 0.584497
vt 0.812540 0.576565
vt 0.805299 0.576565
vt 0.822051 0.584497
vt 0.819781 0.576565
vt 0.829014 0.584497
vt 0.825082 0.576565
vt 0.796066 0.584497
vt 0.799998 0.576565
vt 0.793517 0.584497
vt 0.798057 0.576565
vt 0.796066 0.584497
vt 0.799998 0.576565
vt 0.806821 0.594076
vt 0.806821 0.594076
vt 0.801973 0.594076
vt 0.801973 0.594076
vt 0.798733 0.594076
vt 0.798733 0.594076
vt 0.797595 0.594076
vt 0.797595 0.594076
vt 0.798733 0.594076
vt 0.801973 0.594076
vt 0.806821 0.594076
vt 0.812540 0.594076
vt 0.812540 0.594076
vt 0.818259 0.594076
vt 0.818259 0.594076
vt 0.823108 0.594076
vt 0.823108 0.594076
vt 0.826347 0.594076
vt 0.826347 0.594076
vt 0.827485 0.594076
vt 0.827485 0.594076
vt 0.826347 0.594076
vt 0.823108 0.594076
vt 0.818259 0.594076
vt 0.812540 0.594076
vn -0.3827 0.0000 -0.9239
vn 0.0000 0.0000 -1.0000
vn -0.2824 0.6748 -0.6818
vn 0.0000 0.6748 -0.7380
vn -0.7071 0.0000 -0.7071
vn -0.5218 0.6748 -0.5218
vn -0.9239 0.0000 -0.3827
vn -0.6818 0.6748 -0.2824
vn -1.0000 0.0000 -0.0000
vn -0.7380 0.6748 -0.0000
vn -0.9239 0.0000 0.3827
vn -0.6818 0.6748 0.2824
vn -0.7071 0.0000 0.7071
vn -0.5218 0.6748 0.5218
vn -0.3827 0.0000 0.9239
vn -0.2824 0.6748 0.6818
vn -0.0000 0.0000 1.0000
vn -0.0000 0.6748 0.7380
vn 0.3827 0.0000 0.9239
vn 0.2824 0.6748 0.6818
vn 0.7071 0.0000 0.7071
vn 0.5218 0.6748 0.5218
vn 0.9239 0.0000 0.3827
vn 0.6818 0.6748 0.2824
vn 1.0000 0.0000 -0.0000
vn 0.7380 0.6748 -0.0000
vn 0.9239 0.0000 -0.3827
vn 0.6818 0.6748 -0.2824
vn 0.7071 0.0000 -0.7071
vn 0.5218 0.6748 -0.5218
vn 0.3827 0.0000 -0.9239
vn 0.2824 0.6748 -0.6818
vn -0.0000 -1.0000 -0.0000
vn 0.2971 -0.6303 -0.7172
vn 0.2366 -0.7861 -0.5711
vn 0.0000 -0.7861 -0.6181
vn 0.0000 -0.6303 -0.7763
vn -0.0000 0.3603 -0.9328
vn 0.0000 0.4476 -0.8942
vn 0.3422 0.4476 -0.8262
vn 0.3570 0.3603 -0.8618
vn 0.7763 -0.6303 0.0000
vn 0.6181 -0.7861 0.0000
vn 0.5711 -0.7861 -0.2366
vn 0.7172 -0.6303 -0.2971
vn 0.5489 -0.6303 0.5489
vn 0.4371 -0.7861 0.4371
vn 0.5711 -0.7861 0.2366
vn 0.7172 -0.6303 0.2971
vn -0.0000 -0.6303 0.7763
vn -0.0000 -0.7861 0.6181
vn 0.2366 -0.7861 0.5711
vn 0.2971 -0.6303 0.7172
vn -0.5489 -0.6303 0.5489
vn -0.4371 -0.7861 0.4371
vn -0.2366 -0.7861 0.5711
vn -0.2971 -0.6303 0.7172
vn -0.7763 -0.6303 -0.0000
vn -0.6181 -0.7861 -0.0000
vn -0.5711 -0.7861 0.2366
vn -0.7172 -0.6303 0.2971
vn -0.5489 -0.6303 -0.5489
vn -0.4371 -0.7861 -0.4371
vn -0.5711 -0.7861 -0.2366
vn -0.7172 -0.6303 -0.2971
vn -0.8618 0.3603 -0.3570
vn -0.8262 0.4476 -0.3422
vn -0.6323 0.4476 -0.6323
vn -0.6596 0.3603 -0.6596
vn -0.3570 0.3603 -0.8618
vn -0.3422 0.4476 -0.8262
vn -0.2971 -0.6303 -0.7172
vn -0.2366 -0.7861 -0.5711
vn -0.8618 0.3603 0.3570
vn -0.8262 0.4476 0.3422
vn -0.8942 0.4476 -0.0000
vn -0.9328 0.3603 -0.0000
vn -0.3570 0.3603 0.8618
vn -0.3422 0.4476 0.8262
vn -0.6323 0.4476 0.6323
vn -0.6596 0.3603 0.6596
vn 0.3570 0.3603 0.8618
vn 0.3422 0.4476 0.8262
vn 0.0000 0.4476 0.8942
vn -0.0000 0.3603 0.9328
vn 0.8618 0.3603 0.3570
vn 0.8262 0.4476 0.3422
vn 0.6323 0.4476 0.6323
vn 0.6596 0.3603 0.6596
vn 0.8618 0.3603 -0.3570
vn 0.8262 0.4476 -0.3422
vn 0.8942 0.4476 0.0000
vn 0.9328 0.3603 0.0000
vn 0.6323 0.4476 -0.6323
vn 0.6596 0.3603 -0.6596
vn 0.4371 -0.7861 -0.4371
vn 0.5489 -0.6303 -0.5489
vn -0.3790 0.1378 -0.9151
vn -0.7004 0.1378 -0.7004
vn -0.3718 -0.2364 -0.8977
vn -0.6871 -0.2364 -0.6871
vn -0.9151 0.1378 -0.3790
vn -0.9905 0.1378 -0.0000
vn -0.8977 -0.2364 -0.3718
vn -0.9716 -0.2364 -0.0000
vn -0.9151 0.1378 0.3790
vn -0.7004 0.1378 0.7004
vn -0.8977 -0.2364 0.3718
vn -0.6871 -0.2364 0.6871
vn -0.3790 0.1378 0.9151
vn -0.0000 0.1378 0.9905
vn -0.3718 -0.2364 0.8977
vn -0.0000 -0.2364 0.9716
vn 0.3790 0.1378 0.9151
vn 0.7004 0.1378 0.7004
vn 0.3718 -0.2364 0.8977
vn 0.6871 -0.2364 0.6871
vn 0.9151 0.1378 0.3790
vn 0.9905 0.1378 0.0000
vn 0.8977 -0.2364 0.3718
vn 0.9716 -0.2364 0.0000
vn 0.9151 0.1378 -0.3790
vn 0.7004 0.1378 -0.7004
vn 0.8977 -0.2364 -0.3718
vn 0.6871 -0.2364 -0.6871
vn 0.3790 0.1378 -0.9151
vn 0.0000 0.1378 -0.9905
vn 0.3718 -0.2364 -0.8977
vn -0.0000 -0.2364 -0.9716
vn -0.9934 -0.1143 -0.0129
vn -0.9940 -0.1078 -0.0164
vn -0.9962 -0.0860 -0.0160
vn 0.9940 -0.1078 -0.0164
vn 0.9934 -0.1143 -0.0129
vn 0.9962 -0.0860 -0.0160
vn 0.0000 0.3970 -0.9178
vn 0.0000 -0.0044 -1.0000
vn 0.0000 -0.9999 0.0102
vn 0.0000 -0.9187 0.3950
vn 0.0000 0.1266 0.9920
vn 0.0000 0.3786 0.9256
vn 0.0000 -0.4415 0.8973
vn 0.9911 -0.1330 -0.0082
vn 0.9907 -0.1355 -0.0131
vn 0.0000 -0.3540 -0.9353
vn -0.9907 -0.1355 -0.0131
vn -0.9911 -0.1330 -0.0082
vn -0.0000 -0.3612 -0.9325
vn -0.3569 -0.3612 -0.8615
vn 0.0000 1.0000 0.0000
vn 0.3569 -0.3612 -0.8615
vn 0.2742 -0.6977 -0.6619
vn -0.0000 -0.6977 -0.7164
vn 0.6594 -0.3612 -0.6594
vn 0.5066 -0.6977 -0.5066
vn 0.8615 -0.3612 -0.3569
vn 0.6619 -0.6977 -0.2742
vn 0.9325 -0.3612 -0.0000
vn 0.7164 -0.6977 -0.0000
vn 0.8615 -0.3612 0.3569
vn 0.6619 -0.6977 0.2742
vn 0.6594 -0.3612 0.6594
vn 0.5066 -0.6977 0.5066
vn 0.3569 -0.3612 0.8615
vn 0.2742 -0.6977 0.6619
vn -0.0000 -0.3612 0.9325
vn -0.0000 -0.6977 0.7164
vn -0.3569 -0.3612 0.8615
vn -0.2742 -0.6977 0.6619
vn -0.6594 -0.3612 0.6594
vn -0.5066 -0.6977 0.5066
vn -0.8615 -0.3612 0.3569
vn -0.6619 -0.6977 0.2742
vn -0.9325 -0.3612 0.0000
vn -0.7164 -0.6977 -0.0000
vn -0.8615 -0.3612 -0.3569
vn -0.6619 -0.6977 -0.2742
vn -0.6594 -0.3612 -0.6594
vn -0.5066 -0.6977 -0.5066
vn -0.2742 -0.6977 -0.6619
vn -0.0000 0.7139 -0.7002
vn -0.2680 0.7139 -0.6469
vn -0.4951 0.7139 -0.4951
vn -0.6469 0.7139 -0.2680
vn -0.7002 0.7139 -0.0000
vn -0.6469 0.7139 0.2680
vn -0.4951 0.7139 0.4951
vn -0.2680 0.7139 0.6469
vn 0.0000 0.7139 0.7002
vn 0.2680 0.7139 0.6469
vn 0.4951 0.7139 0.4951
vn 0.6469 0.7139 0.2680
vn 0.7002 0.7139 -0.0000
vn 0.6469 0.7139 -0.2680
vn 0.4951 0.7139 -0.4951
vn 0.2680 0.7139 -0.6469
vn 0.0648 0.9958 0.0648
vn 0.0351 0.9958 0.0846
vn 0.0648 -0.9958 0.0648
vn 0.0846 -0.9958 0.0351
vn -0.0351 -0.9958 -0.0846
vn -0.0648 -0.9958 -0.0648
vn 0.0846 0.9958 -0.0351
vn 0.0916 0.9958 -0.0000
vn -0.0916 0.9958 0.0000
vn -0.0846 0.9958 -0.0351
vn 0.0351 -0.9958 -0.0846
vn 0.0000 -0.9958 -0.0916
vn 0.0916 -0.9958 0.0000
vn 0.0846 -0.9958 -0.0351
vn 0.0351 -0.9958 0.0846
vn 0.0351 0.9958 -0.0846
vn 0.0648 0.9958 -0.0648
vn -0.0351 0.9958 -0.0846
vn 0.0000 0.9958 -0.0916
vn 0.0846 0.9958 0.0351
vn 0.0648 -0.9958 -0.0648
vn -0.0846 -0.9958 -0.0351
vn -0.0916 -0.9958 0.0000
vn -0.0648 0.9958 -0.0648
vn -0.0648 0.9958 0.0648
vn -0.0846 0.9958 0.0351
vn -0.0846 -0.9958 0.0351
vn -0.0648 -0.9958 0.0648
vn -0.0351 0.9958 0.0846
vn -0.0000 0.9958 0.0916
vn -0.0351 -0.9958 0.0846
vn -0.0000 -0.9958 0.0916
vn -0.1638 0.3690 0.9149
vn -0.1987 0.3690 0.9079
vn -0.1933 0.1352 0.9718
vn 0.1192 -0.0025 0.9929
vn 0.1181 0.1403 0.9830
vn -0.0000 0.1386 0.9904
vn 0.0000 -0.0025 1.0000
vn -0.0000 0.9194 0.3933
vn -0.2344 0.8700 0.4338
vn -0.1340 0.9030 0.4082
vn -0.0000 0.4222 0.9065
vn -0.3469 0.4222 0.8375
vn 0.4987 0.4407 0.7464
vn 0.3469 0.4222 0.8375
vn -0.0000 -0.3141 0.9494
vn -0.1754 0.0184 0.9843
vn -0.2147 0.0184 0.9765
vn -0.3389 -0.2829 0.8973
vn 0.5556 0.0000 0.8315
vn 0.5387 0.0184 0.8423
vn 0.3389 -0.2829 0.8973
vn 0.6457 -0.1820 0.7416
vn -0.5387 0.0184 0.8423
vn -0.5556 0.0000 0.8315
vn -0.6457 -0.1820 0.7416
vn 0.1987 0.3690 0.9079
vn 0.1638 0.3690 0.9149
vn 0.1933 0.1352 0.9718
vn -0.5505 0.1352 0.8238
vn -0.5503 0.1377 0.8236
vn -0.8065 0.0000 0.5912
vn -0.7056 -0.1918 0.6822
vn -0.7779 0.3513 0.5211
vn -0.8173 0.1120 0.5652
vn -0.8183 0.1424 0.5568
vn -0.7919 0.3170 0.5220
vn 0.2147 0.0184 0.9765
vn 0.1754 0.0184 0.9843
vn 0.3975 -0.5158 0.7589
vn 0.7056 -0.1918 0.6822
vn 0.6148 0.5965 0.5160
vn 0.2344 0.8700 0.4338
vn 0.1340 0.9030 0.4082
vn 0.5271 0.6842 0.5040
vn -0.3975 -0.5158 0.7589
vn -0.0000 -0.6581 0.7529
vn 0.7779 0.3513 0.5211
vn 0.7919 0.3170 0.5220
vn -0.6148 0.5965 0.5160
vn -0.5271 0.6842 0.5040
vn 0.8065 0.0000 0.5912
vn 0.8173 0.1120 0.5652
vn 0.8183 0.1424 0.5568
vn -0.5015 0.3690 0.7825
vn -0.5187 0.3581 0.7763
vn 0.5187 0.3581 0.7763
vn 0.5015 0.3690 0.7825
vn 0.5505 0.1352 0.8238
vn 0.5503 0.1377 0.8236
vn -0.4987 0.4407 0.7464
vn 0.3586 0.3492 0.8657
vn -0.3586 0.3492 0.8657
vn -0.0000 0.3492 0.9371
vn 0.3806 0.1045 0.9188
vn -0.0000 0.1045 0.9945
vn -0.3806 0.1045 0.9188
vn 0.8833 0.1307 0.4503
vn 0.8865 0.0631 0.4584
vn 0.8864 0.0670 0.4580
vn 0.1961 0.8211 0.5361
vn 0.2337 0.8363 0.4960
vn 0.2349 0.8367 0.4947
vn 0.4115 -0.5884 0.6960
vn 0.3489 -0.5639 0.7485
vn 0.3570 -0.5673 0.7421
vn -0.6943 0.0565 0.7175
vn -0.7096 0.1177 0.6947
vn -0.6953 0.0603 0.7162
vn 0.2692 0.8483 0.4559
vn -0.9975 -0.0003 0.0710
vn -0.9931 0.0628 0.0987
vn -0.9928 0.0661 0.1002
vn 0.2894 -0.5380 0.7917
vn -0.8865 0.0631 0.4584
vn -0.8833 0.1307 0.4503
vn -0.8864 0.0670 0.4580
vn -0.8858 -0.0005 0.4641
vn -0.0528 0.8331 0.5507
vn 0.0000 0.8342 0.5514
vn -0.2894 -0.5380 0.7917
vn -0.3489 -0.5639 0.7485
vn -0.3570 -0.5673 0.7421
vn -0.9834 0.1292 0.1275
vn -0.1181 0.1403 0.9830
vn -0.1192 -0.0025 0.9929
vn 0.3935 0.2676 0.8795
vn 0.4049 0.1321 0.9048
vn 0.4956 0.1305 0.8587
vn 0.4877 0.2624 0.8327
vn 0.5842 0.1310 0.8010
vn 0.5699 0.2551 0.7811
vn -0.5699 0.2551 0.7811
vn -0.5842 0.1310 0.8010
vn -0.4956 0.1305 0.8587
vn -0.4877 0.2624 0.8327
vn -0.4049 0.1321 0.9048
vn -0.3935 0.2676 0.8795
vn 0.1147 0.2776 0.9538
vn -0.0000 0.2794 0.9602
vn -0.1147 0.2776 0.9538
vn 0.4085 -0.0024 0.9128
vn 0.5016 -0.0023 0.8651
vn 0.5892 -0.0022 0.8080
vn -0.5892 -0.0022 0.8080
vn -0.5016 -0.0023 0.8651
vn -0.4085 -0.0024 0.9128
vn 0.7096 0.1177 0.6947
vn 0.6943 0.0565 0.7175
vn 0.6953 0.0603 0.7162
vn 0.9931 0.0628 0.0987
vn 0.9975 -0.0003 0.0710
vn 0.9928 0.0661 0.1002
vn 0.0000 -0.5897 0.8076
vn -0.0775 -0.5879 0.8052
vn -0.2337 0.8363 0.4960
vn -0.1961 0.8211 0.5361
vn -0.2349 0.8367 0.4947
vn 0.8858 -0.0005 0.4641
vn 0.0775 -0.5879 0.8052
vn -0.2692 0.8483 0.4559
vn 0.9834 0.1292 0.1275
vn -0.6772 -0.0005 0.7358
vn -0.4115 -0.5884 0.6960
vn 0.0528 0.8331 0.5506
vn 0.6772 -0.0005 0.7358
vn -0.9800 0.1988 0.0000
vn -0.9648 0.2631 0.0000
vn -0.9756 0.2195 0.0000
vn 0.9648 0.2631 0.0000
vn 0.9800 0.1988 0.0000
vn 0.9756 0.2195 0.0000
vn 0.9974 0.0719 0.0000
vn 0.9965 0.0833 0.0000
vn -0.9974 0.0719 0.0000
vn -0.9965 0.0833 0.0000
vn -0.0129 -0.1143 0.9934
vn -0.0164 -0.1078 0.9940
vn -0.0160 -0.0860 0.9962
vn -0.0164 -0.1078 -0.9940
vn -0.0129 -0.1143 -0.9934
vn -0.0160 -0.0860 -0.9962
vn -0.9178 0.3970 0.0000
vn -1.0000 -0.0044 0.0000
vn 0.0102 -0.9999 0.0000
vn 0.3950 -0.9187 0.0000
vn 0.9920 0.1266 0.0000
vn 0.9256 0.3786 0.0000
vn 0.8973 -0.4415 0.0000
vn -0.0082 -0.1330 -0.9911
vn -0.0131 -0.1355 -0.9907
vn -0.9353 -0.3540 0.0000
vn -0.0131 -0.1355 0.9907
vn -0.0082 -0.1330 0.9911
vn 0.9934 -0.1143 0.0129
vn 0.9940 -0.1078 0.0164
vn 0.9962 -0.0860 0.0160
vn -0.9940 -0.1078 0.0164
vn -0.9934 -0.1143 0.0129
vn -0.9962 -0.0860 0.0160
vn 0.0000 0.3970 0.9178
vn 0.0000 -0.0044 1.0000
vn 0.0000 -0.9999 -0.0102
vn 0.0000 -0.9187 -0.3950
vn -0.0000 0.1266 -0.9920
vn -0.0000 0.3786 -0.9256
vn 0.0000 -0.4415 -0.8973
vn -0.9911 -0.1330 0.0082
vn -0.9907 -0.1355 0.0131
vn 0.0000 -0.3540 0.9353
vn 0.9907 -0.1355 0.0131
vn 0.9911 -0.1330 0.0082
vn 0.0129 -0.1143 -0.9934
vn 0.0164 -0.1078 -0.9940
vn 0.0160 -0.0860 -0.9962
vn 0.0164 -0.1078 0.9940
vn 0.0129 -0.1143 0.9934
vn 0.0160 -0.0860 0.9962
vn 0.9178 0.3970 -0.0000
vn 1.0000 -0.0044 -0.0000
vn -0.0102 -0.9999 0.0000
vn -0.3950 -0.9187 0.0000
vn -0.9920 0.1266 0.0000
vn -0.9256 0.3786 0.0000
vn -0.8973 -0.4415 0.0000
vn 0.0082 -0.1330 0.9911
vn 0.0131 -0.1355 0.9907
vn 0.9353 -0.3540 -0.0000
vn 0.0131 -0.1355 -0.9907
vn 0.0082 -0.1330 -0.9911
vn -0.5680 -0.1392 -0.8112
vn -0.5587 -0.2259 -0.7980
vn 0.1839 -0.1853 -0.9653
vn 0.1776 -0.0984 -0.9792
vn 0.8230 -0.0873 -0.5613
vn 0.8192 0.0000 -0.5736
vn 0.9841 0.0107 0.1774
vn 0.9809 0.0984 0.1680
vn 0.5728 0.0513 0.8181
vn 0.5680 0.1392 0.8112
vn -0.1699 0.0107 0.9854
vn -0.1776 0.0984 0.9792
vn -0.8089 -0.0873 0.5814
vn -0.8192 -0.0000 0.5736
vn -0.9700 -0.1853 -0.1573
vn -0.9809 -0.0984 -0.1680
vn 0.0798 -0.9903 0.1140
vn -0.0281 -0.9988 -0.0402
vn 0.1117 -0.9912 -0.0717
vn -0.0798 0.9903 -0.1140
vn -0.0451 0.9542 -0.2956
vn -0.1849 0.9466 -0.2641
vn 0.2320 -0.9727 0.0044
vn 0.0752 0.9727 -0.2196
vn 0.2624 -0.9542 0.1435
vn 0.1056 0.9912 -0.0805
vn 0.1849 -0.9466 0.2641
vn 0.0281 0.9988 0.0402
vn 0.0451 -0.9542 0.2956
vn -0.1117 0.9912 0.0717
vn -0.0752 -0.9727 0.2196
vn -0.2320 0.9727 -0.0044
vn -0.1056 -0.9912 0.0805
vn -0.2624 0.9542 -0.1435
vn -0.5728 -0.0513 -0.8181
vn 0.1699 -0.0107 -0.9854
vn 0.8089 0.0873 -0.5814
vn 0.9700 0.1853 0.1573
vn 0.5587 0.2259 0.7980
vn -0.1839 0.1853 0.9653
vn -0.8230 0.0873 0.5613
vn -0.9841 -0.0107 -0.1774
vn 0.8536 0.2192 -0.4726
vn 0.7994 -0.4523 -0.3953
vn 0.7959 -0.4632 -0.3898
vn 0.8519 0.2314 -0.4697
vn 0.8035 0.0163 0.5950
vn 0.8016 -0.0083 0.5979
vn 0.8012 -0.0067 0.5983
vn 0.8030 0.0149 0.5959
vn -0.2089 -0.2219 0.9524
vn -0.1539 0.4614 0.8738
vn -0.4917 0.5150 0.7022
vn -0.5540 -0.2588 0.7913
vn -0.8228 0.0218 -0.5679
vn -0.8345 0.0149 -0.5507
vn -0.8340 0.0163 -0.5516
vn -0.8238 0.0223 -0.5665
vn -0.8363 -0.0067 -0.5483
vn -0.8360 -0.0083 -0.5487
vn -0.1500 0.9652 0.2142
vn -0.4406 0.8970 -0.0355
vn -0.7684 0.4614 0.4434
vn 0.8141 0.0223 0.5803
vn 0.8151 0.0218 0.5790
vn 0.0940 -0.4632 -0.8812
vn -0.2180 -0.8764 -0.4293
vn 0.1334 -0.9726 -0.1905
vn 0.0981 -0.4523 -0.8864
vn 0.4780 -0.8764 0.0580
vn 0.8118 -0.0191 0.5837
vn 0.8107 -0.0191 0.5851
vn 0.8187 -0.0187 0.5739
vn 0.1840 0.8970 0.4019
vn 0.8217 0.0181 0.5697
vn -0.8163 0.0181 -0.5773
vn 0.0772 0.9909 -0.1102
vn -0.2135 0.9286 -0.3034
vn -0.8271 -0.0191 -0.5617
vn -0.8261 -0.0191 -0.5632
vn -0.8193 -0.0187 -0.5731
vn 0.0472 -0.8006 0.5973
vn -0.2968 -0.8557 0.4238
vn -0.0825 -0.9896 0.1178
vn 0.2085 -0.9274 0.3105
vn -0.8235 -0.2219 0.5221
vn 0.3581 0.9286 0.0969
vn -0.5774 -0.8006 0.1600
vn -0.3631 -0.9274 -0.0897
vn -0.0845 0.7800 -0.6200
vn 0.2820 0.8708 -0.4027
vn 0.0701 0.9925 -0.1001
vn -0.2482 0.9172 -0.3117
vn -0.3957 -0.9128 -0.1010
vn -0.0895 -0.9877 0.1279
vn 0.6115 0.7800 -0.1327
vn 0.3778 0.9172 0.1266
vn 0.2303 -0.9128 0.3373
vn 0.1500 0.2314 -0.9612
vn 0.1522 0.2192 -0.9637
vn 0.1879 0.8627 0.4695
vn 0.3557 0.8553 0.3768
vn 0.3752 0.8534 0.3617
vn 0.1994 0.8626 0.4650
vn -0.2024 0.8483 -0.4892
vn -0.3789 0.8404 -0.3876
vn -0.3874 0.8400 -0.3800
vn -0.2082 0.8481 -0.4873
vn 0.4966 0.8370 0.2300
vn 0.5169 0.8328 0.1983
vn -0.5095 0.8317 -0.2206
vn -0.5168 0.8310 -0.2060
vn 0.5867 0.8093 0.0294
vn 0.5971 0.8019 -0.0194
vn -0.5720 0.8202 -0.0108
vn -0.5737 0.8190 0.0091
vn 0.6003 0.7714 -0.2112
vn 0.5898 0.7614 -0.2691
vn -0.5505 0.8066 0.2154
vn -0.5440 0.8053 0.2358
vn 0.5101 0.7260 -0.4611
vn 0.4770 0.7163 -0.5094
vn -0.4384 0.7928 0.4233
vn -0.4258 0.7918 0.4379
vn 0.2934 0.6978 -0.6534
vn 0.2548 0.6978 -0.6694
vn -0.2427 0.7720 0.5874
vn -0.2300 0.7703 0.5948
vn -0.0000 0.6959 -0.7181
vn 0.0000 0.7533 0.6577
vn -0.2934 0.6978 -0.6534
vn -0.2548 0.6978 -0.6694
vn 0.2427 0.7720 0.5874
vn 0.2300 0.7703 0.5948
vn -0.5101 0.7260 -0.4611
vn -0.4770 0.7163 -0.5094
vn 0.4384 0.7928 0.4233
vn 0.4258 0.7918 0.4379
vn -0.6003 0.7714 -0.2112
vn -0.5898 0.7614 -0.2691
vn 0.5505 0.8066 0.2154
vn 0.5440 0.8053 0.2358
vn -0.5867 0.8093 0.0294
vn -0.5971 0.8019 -0.0194
vn 0.5720 0.8202 -0.0108
vn 0.5737 0.8190 0.0091
vn -0.4966 0.8370 0.2300
vn -0.5169 0.8328 0.1983
vn 0.5095 0.8317 -0.2206
vn 0.5168 0.8310 -0.2060
vn -0.3557 0.8553 0.3768
vn -0.3752 0.8534 0.3617
vn 0.3789 0.8404 -0.3876
vn 0.3874 0.8400 -0.3800
vn -0.1879 0.8627 0.4695
vn -0.1994 0.8626 0.4650
vn 0.2024 0.8483 -0.4892
vn 0.2082 0.8481 -0.4873
vn -0.0000 0.8642 0.5031
vn 0.0000 0.8534 -0.5212
vn -0.0000 -0.3827 -0.9239
vn -0.0000 -0.7071 -0.7071
vn -0.0000 -0.9239 -0.3827
vn 0.0000 -0.9239 0.3827
vn 0.0000 -0.7071 0.7071
vn 0.0000 -0.3827 0.9239
vn 0.0000 0.3827 0.9239
vn 0.0000 0.7071 0.7071
vn -0.0000 0.9239 -0.3827
vn -0.0000 0.3827 -0.9239
vn -0.9879 -0.0000 -0.1554
vn -0.9879 -0.1099 -0.1099
vn 0.9879 -0.1099 -0.1099
vn 0.9879 0.0000 -0.1554
vn -0.9879 -0.1554 0.0000
vn 0.9879 -0.1554 -0.0000
vn -0.9879 -0.1099 0.1099
vn 0.9879 -0.1099 0.1099
vn -0.9879 -0.0000 0.1554
vn 0.9879 -0.0000 0.1554
vn -0.9879 0.1099 0.1099
vn 0.9879 0.1099 0.1099
vn -0.9879 0.1554 0.0000
vn 0.9879 0.1554 -0.0000
vn -0.9879 0.1099 -0.1099
vn 0.9879 0.1099 -0.1099
vn -0.9239 -0.3827 0.0000
vn -0.7071 -0.7071 0.0000
vn -0.3827 -0.9239 0.0000
vn 0.3827 -0.9239 -0.0000
vn 0.7071 -0.7071 -0.0000
vn 0.9239 0.3827 -0.0000
vn 0.3827 0.9239 -0.0000
vn -0.3827 0.9239 -0.0000
vn -0.7071 0.7071 -0.0000
vn -0.9239 0.3827 0.0000
vn -0.1099 -0.1099 -0.9879
vn -0.1554 0.0000 -0.9879
vn 0.0000 -0.1554 -0.9879
vn 0.1099 -0.1099 -0.9879
vn 0.1554 -0.0000 -0.9879
vn 0.1099 0.1099 -0.9879
vn -0.0000 0.1554 -0.9879
vn -0.1099 0.1099 -0.9879
vn -0.6533 -0.3827 -0.6533
vn -0.2706 -0.9239 -0.2706
vn 0.5000 -0.7071 0.5000
vn 0.6533 -0.3827 0.6533
vn 0.6533 0.3827 0.6533
vn 0.5000 0.7071 0.5000
vn 0.2706 0.9239 0.2706
vn -0.2706 0.9239 -0.2706
vn -0.5000 0.7071 -0.5000
vn -0.6533 0.3827 -0.6533
vn 0.6208 -0.1099 -0.7762
vn 0.5887 -0.0000 -0.8084
vn 0.6985 -0.1554 -0.6985
vn 0.7762 -0.1099 -0.6208
vn 0.8084 -0.0000 -0.5887
vn 0.7762 0.1099 -0.6208
vn 0.6985 0.1554 -0.6985
vn 0.6208 0.1099 -0.7762
vn -0.6533 -0.3827 0.6533
vn -0.5000 -0.7071 0.5000
vn -0.2706 -0.9239 0.2706
vn 0.2706 -0.9239 -0.2706
vn 0.5000 -0.7071 -0.5000
vn 0.6533 -0.3827 -0.6533
vn 0.6533 0.3827 -0.6533
vn 0.5000 0.7071 -0.5000
vn 0.2706 0.9239 -0.2706
vn -0.2706 0.9239 0.2706
vn -0.5000 0.7071 0.5000
vn -0.6533 0.3827 0.6533
vn -0.7762 -0.1099 -0.6208
vn -0.8084 0.0000 -0.5887
vn -0.6985 -0.1554 -0.6985
vn -0.6208 -0.1099 -0.7762
vn -0.5887 -0.0000 -0.8084
vn -0.6208 0.1099 -0.7762
vn -0.6985 0.1554 -0.6985
vn -0.7762 0.1099 -0.6208
vn -0.0000 -0.2471 -0.9690
vn 0.5000 0.0000 -0.8660
vn 0.4845 -0.2471 -0.8392
vn 0.8660 0.0000 -0.5000
vn 0.8392 -0.2471 -0.4845
vn 0.9690 -0.2471 0.0000
vn 0.8660 0.0000 0.5000
vn 0.8392 -0.2471 0.4845
vn 0.5000 0.0000 0.8660
vn 0.4845 -0.2471 0.8392
vn -0.0000 -0.2471 0.9690
vn -0.5000 0.0000 0.8660
vn -0.4845 -0.2471 0.8392
vn -0.8660 0.0000 0.5000
vn -0.8392 -0.2471 0.4845
vn -0.9690 -0.2471 -0.0000
vn -0.8660 0.0000 -0.5000
vn -0.8392 -0.2471 -0.4845
vn 0.8576 0.5142 0.0000
vn 0.7427 0.5142 -0.4288
vn -0.5000 0.0000 -0.8660
vn -0.4845 -0.2471 -0.8392
vn -0.4339 -0.4968 0.7516
vn 0.0000 -0.4968 0.8679
vn -0.4288 0.5142 -0.7427
vn -0.7427 0.5142 -0.4288
vn 0.4288 0.5142 -0.7427
vn -0.8576 0.5142 0.0000
vn -0.7427 0.5142 0.4288
vn -0.4288 0.5142 0.7427
vn -0.0000 0.5142 0.8576
vn 0.4288 0.5142 0.7427
vn 0.7427 0.5142 0.4288
vn -0.0000 0.5142 -0.8576
vn 0.8305 -0.5570 -0.0000
vn 0.7192 -0.5570 -0.4153
vn -0.7192 -0.5570 -0.4153
vn -0.8305 -0.5570 -0.0000
vn -0.4153 -0.5570 0.7192
vn 0.0000 -0.5570 0.8305
vn 0.7192 -0.5570 0.4153
vn -0.4153 -0.5570 -0.7192
vn 0.4153 -0.5570 -0.7192
vn 0.0000 -0.5570 -0.8305
vn -0.7192 -0.5570 0.4153
vn 0.4153 -0.5570 0.7192
vn -0.0000 0.0811 -0.9967
vn -0.4984 0.0811 -0.8632
vn -0.4838 0.2523 -0.8380
vn 0.0000 0.2523 -0.9676
vn -0.9967 0.0811 0.0000
vn -0.8632 0.0811 0.4984
vn -0.8380 0.2523 0.4838
vn -0.9676 0.2523 0.0000
vn 0.8632 0.0811 0.4984
vn 0.9967 0.0811 0.0000
vn 0.9676 0.2523 0.0000
vn 0.8380 0.2523 0.4838
vn 0.4984 0.0811 -0.8632
vn 0.4838 0.2523 -0.8380
vn -0.8632 0.0811 -0.4984
vn -0.8380 0.2523 -0.4838
vn 0.4984 0.0811 0.8632
vn 0.4838 0.2523 0.8380
vn -0.4984 0.0811 0.8632
vn -0.0000 0.0811 0.9967
vn -0.0000 0.2523 0.9676
vn -0.4838 0.2523 0.8380
vn 0.8632 0.0811 -0.4984
vn 0.8380 0.2523 -0.4838
vn 0.4339 -0.4968 0.7516
vn 0.7516 -0.4968 0.4339
vn 0.8679 -0.4968 0.0000
vn 0.0000 -0.4968 -0.8679
vn -0.4339 -0.4968 -0.7516
vn 0.4339 -0.4968 -0.7516
vn 0.7516 -0.4968 -0.4339
vn -0.7516 -0.4968 -0.4339
vn -0.8679 -0.4968 -0.0000
vn -0.7516 -0.4968 0.4339
usemtl KayKit_Texture_A
s 1
f 48/1/1 17/2/1 2/3/2 18/4/2
f 17/5/3 49/6/3 21/7/4 2/8/4
f 46/9/5 16/10/5 17/2/1 48/1/1
f 16/11/6 47/12/6 49/6/3 17/5/3
f 44/13/7 15/14/7 16/10/5 46/9/5
f 15/15/8 45/16/8 47/12/6 16/11/6
f 42/17/9 14/18/9 15/14/7 44/13/7
f 14/19/10 43/20/10 45/16/8 15/15/8
f 40/21/11 13/22/11 14/18/9 42/17/9
f 13/23/12 41/24/12 43/20/10 14/19/10
f 38/25/13 12/26/13 13/22/11 40/21/11
f 12/27/14 39/28/14 41/24/12 13/23/12
f 36/29/15 11/30/15 12/26/13 38/25/13
f 11/31/16 37/32/16 39/28/14 12/27/14
f 34/33/17 10/34/17 11/30/15 36/29/15
f 10/35/18 35/36/18 37/32/16 11/31/16
f 32/37/19 9/38/19 10/34/17 34/33/17
f 9/39/20 33/40/20 35/36/18 10/35/18
f 30/41/21 8/42/21 9/38/19 32/37/19
f 8/43/22 31/44/22 33/40/20 9/39/20
f 28/45/23 7/46/23 8/42/21 30/41/21
f 7/47/24 29/48/24 31/44/22 8/43/22
f 26/49/25 6/50/25 7/46/23 28/45/23
f 6/51/26 27/52/26 29/48/24 7/47/24
f 24/53/27 5/54/27 6/50/25 26/49/25
f 5/55/28 25/56/28 27/52/26 6/51/26
f 22/57/29 4/58/29 5/54/27 24/53/27
f 4/59/30 23/60/30 25/56/28 5/55/28
f 19/61/31 3/62/31 4/58/29 22/57/29
f 3/63/32 20/64/32 23/60/30 4/59/30
f 18/4/2 2/3/2 3/62/31 19/61/31
f 2/8/4 21/7/4 20/64/32 3/63/32
f 1/65/33 18/66/33 19/67/33
f 123/68/34 20/69/35 21/70/36 126/71/37
f 1/65/33 19/67/33 22/72/33
f 1/65/33 22/72/33 24/73/33
f 1/65/33 24/73/33 26/74/33
f 1/65/33 26/74/33 28/75/33
f 1/65/33 28/75/33 30/76/33
f 1/65/33 30/76/33 32/77/33
f 1/65/33 32/77/33 34/78/33
f 1/65/33 34/78/33 36/79/33
f 1/65/33 36/79/33 38/80/33
f 1/65/33 38/80/33 40/81/33
f 1/65/33 40/81/33 42/82/33
f 1/65/33 42/82/33 44/83/33
f 1/65/33 44/83/33 46/84/33
f 1/65/33 46/84/33 48/85/33
f 1/65/33 48/85/33 18/66/33
f 127/86/38 50/87/39 51/88/40 122/89/41
f 110/90/42 27/91/43 25/92/44 115/93/45
f 102/94/46 31/95/47 29/96/48 107/97/49
f 94/98/50 35/99/51 33/100/52 99/101/53
f 86/102/54 39/103/55 37/104/56 91/105/57
f 78/106/58 43/107/59 41/108/60 83/109/61
f 70/110/62 47/111/63 45/112/64 75/113/65
f 74/114/66 63/115/67 64/116/68 71/117/69
f 50/87/39 127/86/38 66/118/70 65/119/71
f 67/120/72 49/121/73 47/111/63 70/110/62
f 82/122/74 61/123/75 62/124/76 79/125/77
f 75/113/65 45/112/64 43/107/59 78/106/58
f 90/126/78 59/127/79 60/128/80 87/129/81
f 83/109/61 41/108/60 39/103/55 86/102/54
f 98/130/82 57/131/83 58/132/84 95/133/85
f 91/105/57 37/104/56 35/99/51 94/98/50
f 106/134/86 55/135/87 56/136/88 103/137/89
f 71/117/69 64/116/68 65/119/71 66/118/70
f 99/101/53 33/100/52 31/95/47 102/94/46
f 79/125/77 62/124/76 63/115/67 74/114/66
f 114/138/90 53/139/91 54/140/92 111/141/93
f 87/129/81 60/128/80 61/123/75 82/122/74
f 107/97/49 29/96/48 27/91/43 110/90/42
f 95/133/85 58/132/84 59/127/79 90/126/78
f 122/89/41 51/88/40 52/142/94 119/143/95
f 103/137/89 56/136/88 57/131/83 98/130/82
f 115/93/45 25/92/44 23/144/96 118/145/97
f 111/141/93 54/140/92 55/135/87 106/134/86
f 118/145/97 23/144/96 20/69/35 123/68/34
f 119/143/95 52/142/94 53/139/91 114/138/90
f 71/117/69 66/118/70 68/146/98 73/147/99
f 73/147/99 68/146/98 69/148/100 72/149/101
f 72/149/101 69/148/100 67/150/72 70/151/62
f 79/125/77 74/114/66 76/152/102 81/153/103
f 81/153/103 76/152/102 77/154/104 80/155/105
f 80/155/105 77/154/104 75/156/65 78/157/58
f 87/129/81 82/122/74 84/158/106 89/159/107
f 89/159/107 84/158/106 85/160/108 88/161/109
f 88/161/109 85/160/108 83/162/61 86/163/54
f 95/133/85 90/126/78 92/164/110 97/165/111
f 97/165/111 92/164/110 93/166/112 96/167/113
f 96/167/113 93/166/112 91/168/57 94/169/50
f 103/137/89 98/130/82 100/170/114 105/171/115
f 105/171/115 100/170/114 101/172/116 104/173/117
f 104/173/117 101/172/116 99/174/53 102/175/46
f 111/141/93 106/134/86 108/176/118 113/177/119
f 113/177/119 108/176/118 109/178/120 112/179/121
f 112/179/121 109/178/120 107/180/49 110/181/42
f 119/143/95 114/138/90 116/182/122 121/183/123
f 121/183/123 116/182/122 117/184/124 120/185/125
f 120/185/125 117/184/124 115/186/45 118/187/97
f 127/86/38 122/89/41 124/188/126 129/189/127
f 129/189/127 124/188/126 125/190/128 128/191/129
f 128/191/129 125/190/128 123/192/34 126/193/37
f 126/193/37 67/150/72 69/148/100 128/191/129
f 128/191/129 69/148/100 68/146/98 129/189/127
f 129/189/127 68/146/98 66/118/70 127/86/38
f 74/114/66 71/117/69 73/147/99 76/152/102
f 76/152/102 73/147/99 72/149/101 77/154/104
f 77/154/104 72/149/101 70/151/62 75/156/65
f 82/122/74 79/125/77 81/153/103 84/158/106
f 84/158/106 81/153/103 80/155/105 85/160/108
f 85/160/108 80/155/105 78/157/58 83/162/61
f 90/126/78 87/129/81 89/159/107 92/164/110
f 92/164/110 89/159/107 88/161/109 93/166/112
f 93/166/112 88/161/109 86/163/54 91/168/57
f 98/130/82 95/133/85 97/165/111 100/170/114
f 100/170/114 97/165/111 96/167/113 101/172/116
f 101/172/116 96/167/113 94/169/50 99/174/53
f 106/134/86 103/137/89 105/171/115 108/176/118
f 108/176/118 105/171/115 104/173/117 109/178/120
f 109/178/120 104/173/117 102/175/46 107/180/49
f 114/138/90 111/141/93 113/177/119 116/182/122
f 116/182/122 113/177/119 112/179/121 117/184/124
f 117/184/124 112/179/121 110/181/42 115/186/45
f 122/89/41 119/143/95 121/183/123 124/188/126
f 124/188/126 121/183/123 120/185/125 125/190/128
f 125/190/128 120/185/125 118/187/97 123/192/34
f 126/71/37 21/70/36 49/121/73 67/120/72
f 138/194/130 140/195/131 136/196/132 134/197/132
f 142/198/133 139/199/134 135/200/135 137/201/135
f 130/202/136 138/194/137 139/199/137 131/203/136
f 131/204/138 133/205/139 132/206/139 130/207/138
f 140/195/140 142/198/140 137/201/141 136/196/141
f 133/208/139 143/209/142 141/210/142 132/211/139
f 131/203/143 139/199/134 143/209/144 133/208/143
f 139/199/137 138/194/137 134/197/145 135/200/145
f 139/199/134 142/198/133 143/209/144
f 142/198/140 140/195/140 141/210/142 143/209/142
f 140/195/131 138/194/130 141/210/146
f 132/211/147 141/210/146 138/194/130 130/202/147
f 161/212/2 144/213/148 145/214/149 162/215/1
f 467/216/150 465/217/150 167/218/150 169/219/150
f 159/220/151 51/221/152 50/222/153 144/223/148
f 491/224/150 489/225/150 191/226/150 160/227/150
f 158/228/154 52/229/155 51/221/152 159/220/151
f 489/225/150 487/230/150 189/231/150 191/226/150
f 157/232/156 53/233/157 52/229/155 158/228/154
f 487/230/150 485/234/150 187/235/150 189/231/150
f 156/236/158 54/237/159 53/233/157 157/232/156
f 485/234/150 483/238/150 185/239/150 187/235/150
f 155/240/160 55/241/161 54/237/159 156/236/158
f 483/238/150 481/242/150 183/243/150 185/239/150
f 154/244/162 56/245/163 55/241/161 155/240/160
f 481/242/150 479/246/150 181/247/150 183/243/150
f 153/248/164 57/249/165 56/245/163 154/244/162
f 479/246/150 477/250/150 179/251/150 181/247/150
f 152/252/166 58/253/167 57/249/165 153/248/164
f 477/250/150 475/254/150 177/255/150 179/251/150
f 151/256/168 59/257/169 58/253/167 152/252/166
f 475/254/150 473/258/150 175/259/150 177/255/150
f 150/260/170 60/261/171 59/257/169 151/256/168
f 473/258/150 471/262/150 173/263/150 175/259/150
f 149/264/172 61/265/173 60/261/171 150/260/170
f 471/262/150 469/266/150 171/267/150 173/263/150
f 148/268/174 62/269/175 61/265/173 149/264/172
f 469/266/150 467/216/150 169/219/150 171/267/150
f 147/270/176 63/271/177 62/269/175 148/268/174
f 146/272/178 64/273/179 63/271/177 147/270/176
f 462/274/150 493/275/150 163/276/150 165/277/150
f 145/278/149 65/279/180 64/273/179 146/272/178
f 190/280/31 159/281/151 144/213/148 161/212/2
f 164/282/5 146/283/178 147/284/176 166/285/7
f 166/285/7 147/284/176 148/286/174 168/287/9
f 168/287/9 148/286/174 149/288/172 170/289/11
f 170/289/11 149/288/172 150/290/170 172/291/13
f 172/291/13 150/290/170 151/292/168 174/293/15
f 174/293/15 151/292/168 152/294/166 176/295/17
f 176/295/17 152/294/166 153/296/164 178/297/19
f 178/297/19 153/296/164 154/298/162 180/299/21
f 180/299/21 154/298/162 155/300/160 182/301/23
f 182/301/23 155/300/160 156/302/158 184/303/25
f 184/303/25 156/302/158 157/304/156 186/305/27
f 186/305/27 157/304/156 158/306/154 188/307/29
f 188/307/29 158/306/154 159/281/151 190/280/31
f 162/215/1 145/214/149 146/283/178 164/282/5
f 161/308/181 162/309/182 163/310/182 160/311/181
f 162/309/182 164/312/183 165/313/183 163/310/182
f 164/312/183 166/314/184 167/315/184 165/313/183
f 166/314/184 168/316/185 169/317/185 167/315/184
f 168/316/185 170/318/186 171/319/186 169/317/185
f 170/318/186 172/320/187 173/321/187 171/319/186
f 172/320/187 174/322/188 175/323/188 173/321/187
f 174/322/188 176/324/189 177/325/189 175/323/188
f 176/324/189 178/326/190 179/327/190 177/325/189
f 178/326/190 180/328/191 181/329/191 179/327/190
f 180/328/191 182/330/192 183/331/192 181/329/191
f 182/330/192 184/332/193 185/333/193 183/331/192
f 184/332/193 186/334/194 187/335/194 185/333/193
f 186/334/194 188/336/195 189/337/195 187/335/194
f 188/336/195 190/338/196 191/339/196 189/337/195
f 190/338/196 161/308/181 160/311/181 191/339/196
f 493/275/150 491/224/150 160/227/150 163/276/150
f 225/340/5 224/341/1 227/342/1 226/343/5
f 229/344/9 228/345/7 231/346/7 230/347/9
f 233/348/13 232/349/11 235/350/11 234/351/13
f 237/352/17 236/353/15 239/354/15 238/355/17
f 241/356/21 240/357/19 243/358/19 242/359/21
f 245/360/25 244/361/23 247/362/23 246/363/25
f 249/364/29 248/365/27 251/366/27 250/367/29
f 253/368/2 252/369/31 255/370/31 254/371/2
f 254/371/2 227/342/1 224/341/1 253/368/2
f 228/345/7 225/340/5 226/343/5 231/346/7
f 232/349/11 229/344/9 230/347/9 235/350/11
f 236/353/15 233/348/13 234/351/13 239/354/15
f 240/357/19 237/352/17 238/355/17 243/358/19
f 244/361/23 241/356/21 242/359/21 247/362/23
f 248/365/27 245/360/25 246/363/25 251/366/27
f 252/369/31 249/364/29 250/367/29 255/370/31
f 211/372/197 208/373/198 240/374/198 241/375/197
f 210/376/199 213/377/200 247/378/200 242/379/199
f 193/380/201 194/381/202 226/382/202 227/383/201
f 216/384/203 215/385/204 245/386/204 248/387/203
f 199/388/205 196/389/206 228/390/206 229/391/205
f 221/392/207 222/393/208 254/394/208 255/395/207
f 214/396/209 217/397/210 251/398/210 246/399/209
f 222/393/208 193/380/201 227/383/201 254/394/208
f 209/400/211 210/376/199 242/379/199 243/401/211
f 220/402/212 219/403/213 249/404/213 252/405/212
f 192/406/214 223/407/215 253/408/215 224/409/214
f 215/385/204 212/410/216 244/411/216 245/386/204
f 218/412/217 221/392/207 255/395/207 250/413/217
f 197/414/218 198/415/219 230/416/219 231/417/218
f 196/389/206 195/418/220 225/419/220 228/390/206
f 203/420/221 200/421/222 232/422/222 233/423/221
f 194/381/202 197/414/218 231/417/218 226/382/202
f 200/421/222 199/388/205 229/391/205 232/422/222
f 213/377/200 214/396/209 246/399/209 247/378/200
f 198/415/219 201/424/223 235/425/223 230/416/219
f 219/403/213 216/384/203 248/387/203 249/404/213
f 201/424/223 202/426/224 234/427/224 235/425/223
f 204/428/225 203/420/221 233/423/221 236/429/225
f 207/430/226 204/428/225 236/429/225 237/431/226
f 202/426/224 205/432/227 239/433/227 234/427/224
f 208/373/198 207/430/226 237/431/226 240/374/198
f 195/418/220 192/406/214 224/409/214 225/419/220
f 217/397/210 218/412/217 250/413/217 251/398/210
f 206/434/228 209/400/211 243/401/211 238/435/228
f 223/407/215 220/402/212 252/405/212 253/408/215
f 205/432/227 206/434/228 238/435/228 239/433/227
f 212/410/216 211/372/197 241/375/197 244/411/216
f 309/436/229 306/437/230 304/438/231 314/439/231
f 327/440/232 333/441/233 334/442/234 328/443/235
f 272/444/236 271/445/237 258/446/238 257/447/236
f 311/448/239 257/449/84 258/450/79 307/451/240
f 285/452/241 256/453/83 301/454/242
f 269/455/243 319/456/244 321/457/245 268/458/246
f 290/459/247 315/460/248 261/461/249 287/462/250
f 301/454/242 256/453/83 257/449/84 311/448/239
f 268/458/246 322/463/251 296/464/252 259/465/253
f 299/466/254 310/467/255 313/468/256 297/469/256
f 303/470/257 260/471/258 296/464/252 322/463/251
f 314/439/231 304/438/231 321/457/245 319/456/244
f 295/472/259 283/473/260 259/474/253 296/475/259
f 281/476/261 282/477/262 260/478/263 288/479/264
f 261/461/249 316/480/265 318/481/266 269/455/243
f 266/482/267 278/483/268 287/484/250 261/485/249
f 279/486/269 273/487/270 256/488/271 285/489/272
f 283/473/260 264/490/273 268/491/246 259/474/253
f 264/490/273 265/492/274 269/493/243 268/491/246
f 276/494/275 279/486/269 285/489/272 267/495/276
f 297/469/256 313/468/256 318/481/266 316/480/265
f 271/445/237 284/496/277 289/497/278 258/446/238
f 294/498/279 277/499/280 286/500/281 290/501/279
f 284/496/277 281/476/261 288/479/264 289/497/278
f 277/499/280 276/494/275 267/495/276 286/500/281
f 273/487/270 272/444/236 257/447/236 256/488/271
f 305/502/282 288/503/283 260/471/258 303/470/257
f 278/483/268 294/498/279 290/501/279 287/484/250
f 282/477/262 295/472/259 296/475/259 260/478/263
f 267/504/284 300/505/285 298/506/286 286/507/287
f 307/451/240 258/450/79 289/508/288
f 265/492/274 266/482/267 261/485/249 269/493/243
f 299/466/254 302/509/289 301/454/242
f 302/509/289 300/505/285 301/454/242
f 305/502/282 308/510/290 307/451/240
f 308/510/290 306/437/230 307/451/240
f 309/436/229 312/511/291 311/448/239
f 312/511/291 310/467/255 311/448/239
f 315/460/248 317/512/292 261/461/249
f 317/512/292 316/480/265 261/461/249
f 318/481/266 320/513/293 269/455/243
f 320/513/293 319/456/244 269/455/243
f 321/457/245 323/514/294 268/458/246
f 323/514/294 322/463/251 268/458/246
f 309/515/295 314/516/296 335/517/297 270/518/295
f 316/519/298 317/520/299 325/521/300 326/522/298
f 300/523/301 302/524/302 292/525/303 291/526/301
f 298/527/304 300/523/305 291/526/305 338/528/306
f 317/520/299 315/529/307 324/530/307 325/521/300
f 321/531/308 304/532/309 341/533/310 330/534/308
f 302/524/302 299/535/311 293/536/311 292/525/303
f 313/537/312 310/538/313 262/539/313 333/540/314
f 318/541/315 313/537/312 333/540/314 327/542/315
f 319/543/316 320/544/317 328/545/317 329/546/316
f 306/547/318 308/548/319 275/549/320 274/550/318
f 304/532/309 306/547/321 274/550/321 341/533/310
f 286/507/287 298/506/286 315/460/248 290/459/247
f 328/443/235 334/442/234 335/551/322 329/552/323
f 293/553/324 336/554/325 337/555/326 292/556/327
f 292/556/327 337/555/326 338/557/328 291/558/329
f 280/559/330 339/560/331 340/561/332 275/562/333
f 275/562/333 340/561/332 341/563/334 274/564/335
f 333/441/233 262/565/336 263/566/337 334/442/234
f 334/442/234 263/566/337 270/567/338 335/551/322
f 336/554/325 326/568/339 325/569/340 337/555/326
f 337/555/326 325/569/340 324/570/341 338/557/328
f 339/560/331 332/571/342 331/572/343 340/561/332
f 340/561/332 331/572/343 330/573/344 341/563/334
f 305/574/345 303/575/346 339/576/347 280/577/345
f 297/578/348 316/519/349 326/522/349 336/579/350
f 312/580/351 309/515/352 270/518/352 263/581/351
f 323/582/353 321/531/354 330/534/354 331/583/355
f 314/516/296 319/543/356 329/546/356 335/517/297
f 310/538/357 312/580/351 263/581/351 262/539/357
f 322/584/358 323/582/353 331/583/355 332/585/358
f 299/535/359 297/578/348 336/579/350 293/536/359
f 315/529/360 298/527/304 338/528/306 324/530/360
f 308/548/319 305/574/361 280/577/361 275/549/320
f 320/544/317 318/541/362 327/542/362 328/545/317
f 303/575/346 322/584/363 332/585/363 339/576/347
f 309/436/229 311/448/239 307/451/240 306/437/230
f 299/466/254 301/454/242 311/448/239 310/467/255
f 267/504/284 285/452/241 301/454/242 300/505/285
f 305/502/282 307/451/240 289/508/288 288/503/283
f 281/586/364 284/587/365 355/588/365 352/589/366
f 279/590/367 276/591/368 348/592/369 351/593/367
f 277/594/370 294/595/25 356/596/25 349/597/371
f 283/598/9 295/599/9 357/600/9 354/601/9
f 271/602/150 272/603/150 346/604/150 345/605/150
f 294/595/25 278/606/25 350/607/25 356/596/25
f 266/608/33 265/609/33 343/610/33 344/611/33
f 295/599/9 282/612/372 353/613/373 357/600/9
f 282/612/372 281/586/364 352/589/366 353/613/373
f 276/591/368 277/594/370 349/597/371 348/592/369
f 273/614/150 279/590/150 351/593/150 347/615/150
f 264/616/33 283/598/33 354/601/33 342/617/33
f 272/603/150 273/614/150 347/615/150 346/604/150
f 278/606/33 266/608/33 344/611/33 350/607/33
f 284/587/150 271/602/150 345/605/150 355/588/150
f 265/609/33 264/616/33 342/617/33 343/610/33
f 366/618/374 368/619/375 364/620/376 362/621/376
f 370/622/377 367/623/378 363/624/379 365/625/379
f 358/626/380 366/618/381 367/623/381 359/627/380
f 359/628/382 361/629/383 360/630/383 358/631/382
f 368/619/384 370/622/384 365/625/385 364/620/385
f 361/632/383 371/633/386 369/634/386 360/635/383
f 359/627/387 367/623/378 371/633/388 361/632/387
f 367/623/381 366/618/381 362/621/389 363/624/389
f 367/623/378 370/622/377 371/633/388
f 370/622/384 368/619/384 369/634/386 371/633/386
f 368/619/375 366/618/374 369/634/390
f 360/635/391 369/634/390 366/618/374 358/626/391
f 380/636/392 382/637/393 378/638/394 376/639/394
f 384/640/395 381/641/396 377/642/397 379/643/397
f 372/644/398 380/636/399 381/641/399 373/645/398
f 373/646/400 375/647/401 374/648/401 372/649/400
f 382/637/402 384/640/402 379/643/403 378/638/403
f 375/650/401 385/651/404 383/652/404 374/653/401
f 373/645/405 381/641/396 385/651/406 375/650/405
f 381/641/399 380/636/399 376/639/407 377/642/407
f 381/641/396 384/640/395 385/651/406
f 384/640/402 382/637/402 383/652/404 385/651/404
f 382/637/393 380/636/392 383/652/408
f 374/653/409 383/652/408 380/636/392 372/644/409
f 394/654/410 396/655/411 392/656/412 390/657/412
f 398/658/413 395/659/414 391/660/415 393/661/415
f 386/662/416 394/654/417 395/659/417 387/663/416
f 387/664/418 389/665/419 388/666/419 386/667/418
f 396/655/420 398/658/420 393/661/421 392/656/421
f 389/668/419 399/669/422 397/670/422 388/671/419
f 387/663/423 395/659/414 399/669/424 389/668/423
f 395/659/417 394/654/417 390/657/425 391/660/425
f 395/659/414 398/658/413 399/669/424
f 398/658/420 396/655/420 397/670/422 399/669/422
f 396/655/411 394/654/410 397/670/426
f 388/671/427 397/670/426 394/654/410 386/662/427
f 144/223/148 50/222/153 65/279/180 145/278/149
f 409/672/428 413/673/429 412/674/430 408/675/431
f 408/675/431 412/674/430 415/676/432 407/677/433
f 407/677/433 415/676/432 417/678/434 406/679/435
f 406/679/435 417/678/434 419/680/436 404/681/437
f 404/681/437 419/680/436 421/682/438 403/683/439
f 403/683/439 421/682/438 423/684/440 401/685/441
f 401/685/441 423/684/440 425/686/442 400/687/443
f 400/687/443 425/686/442 413/673/429 409/672/428
f 402/688/444 410/689/445 411/690/446
f 405/691/447 412/692/448 413/693/449
f 402/688/444 411/690/446 414/694/450
f 405/691/447 415/695/451 412/692/448
f 402/688/444 414/694/450 416/696/452
f 405/691/447 417/697/453 415/695/451
f 402/688/444 416/696/452 418/698/454
f 405/691/447 419/699/455 417/697/453
f 402/688/444 418/698/454 420/700/456
f 405/691/447 421/701/457 419/699/455
f 402/688/444 420/700/456 422/702/458
f 405/691/447 423/703/459 421/701/457
f 402/688/444 422/702/458 424/704/460
f 405/691/447 425/705/461 423/703/459
f 402/688/444 424/704/460 410/689/445
f 405/691/447 413/693/449 425/705/461
f 410/706/462 409/672/428 408/675/431 411/707/463
f 411/707/463 408/675/431 407/677/433 414/708/464
f 414/708/464 407/677/433 406/679/435 416/709/465
f 416/709/465 406/679/435 404/681/437 418/710/466
f 418/710/466 404/681/437 403/683/439 420/711/467
f 420/711/467 403/683/439 401/685/441 422/712/468
f 422/712/468 401/685/441 400/687/443 424/713/469
f 424/713/469 400/687/443 409/672/428 410/706/462
f 459/714/470 429/715/471 430/716/472 460/717/473
f 431/718/474 461/719/475 460/720/476 430/721/477
f 461/722/478 431/723/479 426/724/480 456/725/481
f 434/726/482 428/727/483 427/728/484 433/729/485
f 428/727/483 458/730/486 457/731/487 427/728/484
f 426/724/480 432/732/488 433/733/489 427/734/490
f 437/735/491 431/718/474 430/721/477 436/736/492
f 428/737/493 434/738/494 435/739/495 429/715/496
f 429/715/471 435/739/495 436/740/497 430/716/472
f 454/741/498 455/742/499 438/743/500 439/744/500
f 431/723/479 437/745/501 432/732/488 426/724/480
f 437/735/491 436/736/492 445/746/502 444/747/502
f 434/726/482 433/729/485 448/748/503 447/749/503
f 433/733/489 432/732/488 449/750/504 448/751/505
f 451/752/506 452/753/507 441/754/508 442/755/508
f 455/756/509 450/757/510 443/758/511 438/759/512
f 456/725/481 426/724/480 427/734/490 457/760/513
f 432/732/488 437/745/501 444/761/514 449/750/504
f 450/757/510 451/762/515 442/763/516 443/758/511
f 452/764/517 453/765/518 440/766/519 441/767/520
f 435/739/495 434/738/494 447/768/521 446/769/522
f 453/765/518 454/770/523 439/771/524 440/766/519
f 458/730/486 452/753/507 451/752/506 457/731/487
f 436/740/497 435/739/495 446/769/522 445/772/525
f 450/757/510 456/725/481 457/760/513 451/762/515
f 461/719/475 455/742/499 454/741/498 460/720/476
f 452/764/517 458/773/526 459/714/527 453/765/518
f 453/765/518 459/714/470 460/717/473 454/770/523
f 455/756/509 461/722/478 456/725/481 450/757/510
f 458/773/526 428/737/493 429/715/496 459/714/527
f 465/217/150 462/274/150 165/277/150 167/218/150
f 493/275/528 462/274/529 464/774/530 494/775/531
f 494/776/532 464/777/533 673/778/534 674/779/535
f 462/274/529 465/217/536 466/780/537 464/774/530
f 464/777/533 466/781/538 675/782/539 673/778/534
f 465/217/536 467/216/540 468/783/541 466/780/537
f 466/781/538 468/784/542 676/785/543 675/782/539
f 467/216/540 469/266/544 470/786/545 468/783/541
f 468/784/542 470/787/546 677/788/547 676/785/543
f 469/266/544 471/262/548 472/789/549 470/786/545
f 470/787/546 472/790/550 678/791/551 677/788/547
f 471/262/548 473/258/552 474/792/553 472/789/549
f 472/790/550 474/793/554 679/794/555 678/791/551
f 473/258/552 475/254/556 476/795/556 474/792/553
f 474/793/554 476/796/557 680/797/557 679/794/555
f 475/254/556 477/250/558 478/798/559 476/795/556
f 476/796/557 478/799/560 681/800/561 680/797/557
f 477/250/558 479/246/562 480/801/563 478/798/559
f 478/799/560 480/802/564 682/803/565 681/800/561
f 479/246/562 481/242/566 482/804/567 480/801/563
f 480/802/564 482/805/568 683/806/569 682/803/565
f 481/242/566 483/238/570 484/807/571 482/804/567
f 482/805/568 484/808/572 684/809/573 683/806/569
f 483/238/570 485/234/574 486/810/575 484/807/571
f 484/808/572 486/811/576 685/812/577 684/809/573
f 485/234/574 487/230/578 488/813/579 486/810/575
f 486/811/576 488/814/580 686/815/581 685/812/577
f 487/230/578 489/225/582 490/816/583 488/813/579
f 488/814/580 490/817/584 687/818/585 686/815/581
f 489/225/582 491/224/586 492/819/586 490/816/583
f 490/817/584 492/820/587 688/821/587 687/818/585
f 491/224/586 493/275/528 494/775/531 492/819/586
f 492/820/587 494/776/532 674/779/535 688/821/587
f 497/822/588 500/823/588 499/824/589 498/825/589
f 498/825/589 499/824/589 502/826/590 501/827/590
f 501/827/591 502/826/591 504/828/592 503/829/592
f 503/829/592 504/828/592 506/830/593 505/831/593
f 505/831/594 506/830/594 508/832/595 507/833/595
f 507/833/595 508/832/595 510/834/150 509/835/150
f 509/835/150 510/834/150 512/836/596 511/837/596
f 511/837/597 512/836/597 500/823/597 497/822/597
f 495/838/9 497/822/598 498/825/599
f 496/839/25 499/824/600 500/823/601
f 495/838/9 498/825/599 501/827/602
f 496/839/25 502/826/603 499/824/600
f 495/838/9 501/827/602 503/829/604
f 496/839/25 504/828/605 502/826/603
f 495/838/9 503/829/604 505/831/606
f 496/839/25 506/830/607 504/828/605
f 495/838/9 505/831/606 507/833/608
f 496/839/25 508/832/609 506/830/607
f 495/838/9 507/833/608 509/835/610
f 496/839/25 510/834/611 508/832/609
f 495/838/9 509/835/610 511/837/612
f 496/839/25 512/836/613 510/834/611
f 495/838/9 511/837/612 497/822/598
f 496/839/25 500/823/601 512/836/613
f 514/840/614 517/841/614 516/842/615 515/843/615
f 515/843/615 516/842/615 519/844/616 518/845/616
f 518/845/617 519/844/617 521/846/618 520/847/618
f 520/847/618 521/846/618 523/848/25 522/849/25
f 522/849/25 523/848/25 525/850/619 524/851/619
f 524/851/620 525/850/620 527/852/620 526/853/620
f 526/853/621 527/852/621 529/854/622 528/855/622
f 528/855/622 529/854/622 517/841/623 514/840/623
f 513/856/2 516/842/624 517/841/625
f 513/856/2 519/844/626 516/842/624
f 513/856/2 521/846/627 519/844/626
f 513/856/2 523/848/628 521/846/627
f 513/856/2 525/850/629 523/848/628
f 513/856/2 527/852/630 525/850/629
f 513/856/2 529/854/631 527/852/630
f 513/856/2 517/841/625 529/854/631
f 531/857/632 534/858/632 533/859/632 532/860/632
f 532/860/633 533/859/633 536/861/33 535/862/33
f 535/862/33 536/861/33 538/863/634 537/864/634
f 537/864/634 538/863/634 540/865/635 539/866/635
f 539/866/636 540/865/636 542/867/637 541/868/637
f 541/868/637 542/867/637 544/869/638 543/870/638
f 543/870/639 544/869/639 546/871/640 545/872/640
f 545/872/640 546/871/640 534/858/641 531/857/641
f 530/873/29 533/859/642 534/858/643
f 530/873/29 536/861/644 533/859/642
f 530/873/29 538/863/645 536/861/644
f 530/873/29 540/865/646 538/863/645
f 530/873/29 542/867/647 540/865/646
f 530/873/29 544/869/648 542/867/647
f 530/873/29 546/871/649 544/869/648
f 530/873/29 534/858/643 546/871/649
f 548/874/650 551/875/650 550/876/651 549/877/651
f 549/877/651 550/876/651 553/878/652 552/879/652
f 552/879/653 553/878/653 555/880/654 554/881/654
f 554/881/654 555/880/654 557/882/655 556/883/655
f 556/883/656 557/882/656 559/884/657 558/885/657
f 558/885/657 559/884/657 561/886/658 560/887/658
f 560/887/659 561/886/659 563/888/660 562/889/660
f 562/889/660 563/888/660 551/875/661 548/874/661
f 547/890/5 550/876/662 551/875/663
f 547/890/5 553/878/664 550/876/662
f 547/890/5 555/880/665 553/878/664
f 547/890/5 557/882/666 555/880/665
f 547/890/5 559/884/667 557/882/666
f 547/890/5 561/886/668 559/884/667
f 547/890/5 563/888/669 561/886/668
f 547/890/5 551/875/663 563/888/669
f 564/891/670 565/892/2 567/893/671 566/894/672
f 566/894/672 567/893/671 569/895/673 568/896/674
f 568/896/674 569/895/673 571/897/25 570/898/675
f 570/898/675 571/897/25 573/899/676 572/900/677
f 572/900/677 573/899/676 575/901/678 574/902/679
f 574/902/679 575/901/678 577/903/17 576/904/680
f 576/904/680 577/903/17 579/905/681 578/906/682
f 578/906/682 579/905/681 581/907/683 580/908/684
f 580/908/684 581/907/683 583/909/9 582/910/685
f 582/910/685 583/909/9 585/911/686 584/912/687
f 571/913/688 569/914/689 590/915/689 591/916/688
f 584/912/687 585/911/686 587/917/690 586/918/691
f 586/918/691 587/917/690 565/892/2 564/891/670
f 576/919/680 578/920/682 668/921/692 667/922/693
f 595/923/681 594/924/17 606/925/17 607/926/681
f 587/927/694 585/928/695 598/929/695 599/930/694
f 569/914/689 567/931/696 588/932/696 590/915/689
f 585/928/695 583/933/697 597/934/697 598/929/695
f 583/933/697 581/935/698 596/936/698 597/934/697
f 581/935/698 579/937/699 595/938/699 596/936/698
f 579/937/699 577/939/700 594/940/700 595/938/699
f 577/939/700 575/941/701 593/942/701 594/940/700
f 575/941/701 573/943/702 592/944/702 593/942/701
f 573/943/702 571/913/688 591/916/688 592/944/702
f 565/945/703 587/927/694 599/930/694 589/946/703
f 567/931/696 565/945/703 589/946/703 588/932/696
f 603/947/704 602/948/705 614/949/705 615/950/704
f 592/951/676 591/952/25 603/953/25 604/954/676
f 599/955/690 598/956/686 610/957/686 611/958/690
f 588/959/671 589/960/2 601/961/2 600/962/671
f 596/963/683 595/923/681 607/926/681 608/964/683
f 593/965/678 592/951/676 604/954/676 605/966/678
f 589/960/2 599/955/690 611/958/690 601/961/2
f 590/967/673 588/959/671 600/962/671 602/968/673
f 597/969/9 596/963/683 608/964/683 609/970/9
f 594/924/17 593/965/678 605/966/678 606/925/17
f 591/952/25 590/967/673 602/968/673 603/953/25
f 598/956/686 597/969/9 609/970/9 610/957/686
f 615/971/25 614/972/673 638/973/673 639/974/25
f 610/975/706 609/976/707 621/977/707 622/978/706
f 607/979/708 606/980/709 618/981/709 619/982/708
f 604/983/710 603/947/704 615/950/704 616/984/710
f 611/985/711 610/975/706 622/978/706 623/986/711
f 600/987/712 601/988/713 613/989/713 612/990/712
f 608/991/714 607/979/708 619/982/708 620/992/714
f 605/993/715 604/983/710 616/984/710 617/994/715
f 601/988/713 611/985/711 623/986/711 613/989/713
f 602/948/705 600/987/712 612/990/712 614/949/705
f 609/976/707 608/991/714 620/992/714 621/977/707
f 606/980/709 605/993/715 617/994/715 618/981/709
f 630/995/716 629/996/717 654/997/718 655/998/719
f 622/999/686 621/1000/9 645/1001/9 646/1002/686
f 619/1003/681 618/1004/17 642/1005/17 643/1006/681
f 616/1007/676 615/971/25 639/974/25 640/1008/676
f 623/1009/690 622/999/686 646/1002/686 647/1010/690
f 612/1011/671 613/1012/2 637/1013/2 636/1014/671
f 620/1015/683 619/1003/681 643/1006/681 644/1016/683
f 617/1017/678 616/1007/676 640/1008/676 641/1018/678
f 613/1012/2 623/1009/690 647/1010/690 637/1013/2
f 614/972/673 612/1011/671 636/1014/671 638/973/673
f 621/1000/9 620/1015/683 644/1016/683 645/1001/9
f 618/1004/17 617/1017/678 641/1018/678 642/1005/17
f 625/1019/150 624/1020/150 636/1021/150 637/1022/150
f 624/1020/150 626/1023/150 638/1024/150 636/1021/150
f 626/1023/150 627/1025/150 639/1026/150 638/1024/150
f 627/1025/150 628/1027/150 640/1028/150 639/1026/150
f 628/1027/150 629/1029/150 641/1030/150 640/1028/150
f 629/1029/150 630/1031/150 642/1032/150 641/1030/150
f 630/1031/150 631/1033/150 643/1034/150 642/1032/150
f 631/1033/150 632/1035/150 644/1036/150 643/1034/150
f 632/1035/150 633/1037/150 645/1038/150 644/1036/150
f 633/1037/150 634/1039/150 646/1040/150 645/1038/150
f 634/1039/150 635/1041/150 647/1042/150 646/1040/150
f 635/1041/150 625/1019/150 637/1022/150 647/1042/150
f 627/1043/720 626/1044/721 651/1045/722 652/1046/723
f 634/1047/724 633/1048/725 658/1049/726 659/1050/727
f 631/1051/728 630/995/716 655/998/719 656/1052/729
f 628/1053/730 627/1043/720 652/1046/723 653/1054/731
f 635/1055/732 634/1047/724 659/1050/727 660/1056/733
f 624/1057/734 625/1058/735 650/1059/736 649/1060/737
f 632/1061/738 631/1051/728 656/1052/729 657/1062/739
f 629/996/717 628/1053/730 653/1054/731 654/997/718
f 625/1058/735 635/1055/732 660/1056/733 650/1059/736
f 626/1044/721 624/1057/734 649/1060/737 651/1045/722
f 633/1048/725 632/1061/738 657/1062/739 658/1049/726
f 648/1063/150 649/1060/737 650/1059/736
f 648/1063/150 651/1045/722 649/1060/737
f 648/1063/150 652/1046/723 651/1045/722
f 648/1063/150 653/1054/731 652/1046/723
f 648/1063/150 654/997/718 653/1054/731
f 648/1063/150 655/998/719 654/997/718
f 648/1063/150 656/1052/729 655/998/719
f 648/1063/150 657/1062/739 656/1052/729
f 648/1063/150 658/1049/726 657/1062/739
f 648/1063/150 659/1050/727 658/1049/726
f 648/1063/150 660/1056/733 659/1050/727
f 648/1063/150 650/1059/736 660/1056/733
f 574/1064/679 576/919/680 667/922/693 666/1065/740
f 572/1066/677 574/1064/679 666/1065/740 665/1067/741
f 570/1068/675 572/1066/677 665/1067/741 664/1069/742
f 586/1070/691 564/1071/670 661/1072/743 672/1073/744
f 564/1071/670 566/1074/672 662/1075/745 661/1072/743
f 568/1076/674 570/1068/675 664/1069/742 663/1077/746
f 584/1078/687 586/1070/691 672/1073/744 671/1079/747
f 566/1074/672 568/1076/674 663/1077/746 662/1075/745
f 582/1080/685 584/1078/687 671/1079/747 670/1081/748
f 580/1082/684 582/1080/685 670/1081/748 669/1083/749
f 578/920/682 580/1082/684 669/1083/749 668/921/692
f 463/1084/150 674/1085/150 673/1086/150
f 463/1087/150 673/1086/150 675/1088/150
f 463/1089/150 675/1088/150 676/1090/150
f 463/1091/150 676/1090/150 677/1092/150
f 463/1089/150 677/1092/150 678/1093/150
f 463/1087/150 678/1093/150 679/1094/150
f 463/1084/150 679/1094/150 680/1095/150
f 463/1096/150 680/1095/150 681/1097/150
f 463/1098/150 681/1097/150 682/1099/150
f 463/1100/150 682/1099/150 683/1101/150
f 463/1102/150 683/1101/150 684/1103/150
f 463/1104/150 684/1103/150 685/1105/150
f 463/1102/150 685/1105/150 686/1106/150
f 463/1100/150 686/1106/150 687/1107/150
f 463/1098/150 687/1107/150 688/1108/150
f 463/1096/150 688/1108/150 674/1085/150
